#N canvas 444 237 887 686 12;
#X declare -path ./bop.p;
#X obj 623 97 savestate, f 17;
#X obj 622 70 bop.p.autosave \$0;
#X obj 444 158 inlet~, f 31;
#X obj 658 248 outlet;
#X text 670 285 MIDI and messages dump out of right, f 13;
#X obj 444 358 outlet~;
#X text 380 304 Signal out of left, f 9;
#X text 440 132 Signal \, MIDI \, and messages in left, f 36;
#X obj 658 212 bop.p.inout \$0;
#X obj 447 70 declare -path ./bop.p;
#N canvas 518 44 947 833 delay 1;
#X obj 58 1149 outlet~;
#X obj 79 177 inlet~;
#X obj 267 705 *~;
#X obj 267 603 r~ \$0-get-feedback;
#X obj 433 149 *~ 2500;
#X obj 452 245 r~ \$0-get-cutoff;
#X obj 433 607 bob~, f 16;
#X obj 433 101 pow~ 2;
#X obj 77 469 rev1~, f 15;
#X obj 74 603 *~;
#X obj 108 350 r \$0-get-reverb-size;
#X obj 179 437 bng 19 250 50 0 empty empty empty 0 -10 0 12 #fcfcfc #000000 #000000;
#X obj 128 422 * 100;
#X obj 542 520 r~ \$0-get-q;
#X obj 148 374 loadbang;
#X obj 148 398 t b b, f 7;
#X obj 267 651 *~ 1.2;
#X obj 58 1072 +~, f 17;
#X obj 94 567 pow~ 2;
#X obj 659 145 loadbang;
#X msg 659 169 range 50 15000;
#X obj 706 230 s \$0-set-cutoff;
#X obj 542 544 *~ 4;
#X obj 94 543 r~ \$0-get-reverb-level;
#X obj 433 65 lop~ 0.5;
#X obj 99 283 s~ \$0-dry;
#X obj 170 917 r~ \$0-dry;
#X obj 172 1025 *~;
#X obj 189 950 r~ \$0-get-dry-level;
#X obj 444 787 *~;
#X obj 468 724 r~ \$0-get-delay-level;
#X obj 58 854 +~, f 53;
#X obj 457 752 pow~ 2;
#X obj 189 974 pow~ 2;
#X obj 267 627 pow~ 2;
#X obj 433 37 r~ \$0-get-delay-time;
#X obj 210 816 delwrite~ \$0-delay 2500;
#X obj 433 173 delread4~ \$0-delay;
#X obj 251 781 r~ \$0-dry;
#X obj 74 687 *~ 2;
#X obj 433 387 *~;
#X obj 496 488 r~ \$0-get-cutoff;
#X obj 611 271 sig~;
#X obj 660 271 sig~;
#X msg 660 220 \$2;
#X msg 610 221 \$1;
#X obj 365 345 noise~;
#X obj 365 369 *~ 0.001;
#X obj 418 417 +~;
#X obj 453 306 expr~ (1 - (($v1 - $v2) / ($v3-$v2))) * 1.8;
#X obj 433 459 expr~ tanh($v1) * 1;
#X obj 453 347 +~ 3;
#X obj 846 364 inlet;
#X obj 852 449 outlet;
#X text 859 403 midi through;
#X obj 77 646 expr~ tanh($v1*2);
#X connect 1 0 25 0;
#X connect 1 0 8 0;
#X connect 2 0 36 0;
#X connect 3 0 34 0;
#X connect 4 0 37 0;
#X connect 5 0 49 0;
#X connect 6 0 29 0;
#X connect 6 0 2 1;
#X connect 7 0 4 0;
#X connect 8 0 9 0;
#X connect 9 0 55 0;
#X connect 10 0 12 0;
#X connect 11 0 8 2;
#X connect 12 0 8 1;
#X connect 13 0 22 0;
#X connect 14 0 15 0;
#X connect 15 0 12 0;
#X connect 15 1 11 0;
#X connect 16 0 2 0;
#X connect 17 0 0 0;
#X connect 18 0 9 1;
#X connect 19 0 20 0;
#X connect 20 0 21 0;
#X connect 20 0 45 0;
#X connect 20 0 44 0;
#X connect 22 0 6 2;
#X connect 23 0 18 0;
#X connect 24 0 7 0;
#X connect 26 0 27 0;
#X connect 27 0 17 1;
#X connect 28 0 33 0;
#X connect 29 0 31 1;
#X connect 30 0 32 0;
#X connect 31 0 17 0;
#X connect 32 0 29 1;
#X connect 33 0 27 1;
#X connect 34 0 16 0;
#X connect 35 0 24 0;
#X connect 37 0 40 0;
#X connect 38 0 36 0;
#X connect 39 0 31 0;
#X connect 39 0 36 0;
#X connect 40 0 48 1;
#X connect 41 0 6 1;
#X connect 42 0 49 1;
#X connect 43 0 49 2;
#X connect 44 0 43 0;
#X connect 45 0 42 0;
#X connect 46 0 47 0;
#X connect 47 0 48 0;
#X connect 48 0 50 0;
#X connect 49 0 51 0;
#X connect 50 0 6 0;
#X connect 51 0 40 1;
#X connect 52 0 53 0;
#X connect 55 0 39 0;
#X restore 444 249 pd delay;
#X obj 110 150 bop.p.param \$0 feedback 0.666;
#X obj 110 220 bop.p.param \$0 q 0.5;
#X obj 110 200 bop.p.number \$0 cutoff 3000;
#X obj 110 270 bop.p.param \$0 reverb-level 0.5;
#X obj 497 203 r \$0-midi-in;
#X obj 497 297 s \$0-midi-out;
#X obj 110 300 bop.p.param \$0 dry-level 1;
#X obj 110 170 bop.p.param \$0 delay-level 0.75;
#X obj 110 130 bop.p.param \$0 delay-time 0.333;
#X obj 110 250 bop.p.param \$0 reverb-size 0.42;
#X connect 0 0 1 1;
#X connect 0 1 1 0;
#X connect 1 0 0 0;
#X connect 2 0 10 0;
#X connect 2 1 8 0;
#X connect 8 0 3 0;
#X connect 10 0 5 0;
#X connect 10 1 16 0;
#X connect 15 0 10 1;
#X coords 0 -1 1 1 166 230 1 100 100;
