#N canvas 151 90 1230 779 12;
#X declare -path ../bop.p;
#X obj 49 -6 inlet~, f 12;
#X obj 160 643 outlet;
#X text 161 681 MIDI and messages dump out of right, f 13;
#X obj 49 644 outlet~;
#X text 39 672 Signal out of left, f 9;
#X text 45 -32 Signal \, MIDI \, and messages in left, f 36;
#X obj 130 35 bop.p.inout \$0;
#X obj 43 -92 declare -path ../bop.p;
#X obj 175 609 r \$0-params;
#X obj 160 576 r \$0-midi;
#X msg 686 85 list saw square pulse sinepulse halfpulse res-saw res-triangle res-trapezoid;
#X obj 686 56 loadbang;
#X obj 706 138 list length;
#X msg 706 162 range 0 \$1;
#X obj 716 191 s \$0-set-wave-1;
#X obj 706 220 s \$0-set-wave-2;
#X obj 696 259 s \$0-set-wave-1-enum;
#X obj 686 288 s \$0-set-wave-2-enum;
#X obj 139 312 bop.p.casio~ \$0;
#X obj 139 234 pack f f f;
#X obj 139 263 route 1 2 3 4;
#X obj 161 342 bop.p.casio~ \$0;
#X obj 184 372 bop.p.casio~ \$0;
#X obj 205 402 bop.p.casio~ \$0;
#X obj 139 154 unpack, f 10;
#X obj 139 192 poly 4 1, f 10;
#X obj 139 523 *~, f 9;
#X obj 66 126 r \$0-stop;
#X msg 66 150 stop;
#X obj 687 321 text define -k params;
#A set enum wave-1 saw square pulse sinepulse halfpulse res-saw res-triangle res-trapezoid \; enum wave-2 saw square pulse sinepulse halfpulse res-saw res-triangle res-trapezoid \; float filter 0 1 \; float attack 0 1 \; float decay 0 1 \; float sustain 0 1 \; float release 0 1 \; float gain 0 1 \;;
#X obj 139 126 r \$0-midi;
#X obj 49 557 +~;
#X obj 274 36 r \$0-stop;
#X obj 349 36 r \$0-dump;
#X obj 504 35 r \$0-params;
#X obj 429 36 r \$0-midi;
#X obj 196 484 bop.p.param \$0 gain;
#X text 228 511 todo - implement for enum and toggle;
#X obj 385 549 r \$0-dump;
#X obj 386 622 list prepend dump;
#X obj 386 589 route bang;
#X obj 392 691 list trim;
#X text 236 531 todo - fix dump;
#X connect 0 0 31 0;
#X connect 0 1 6 0;
#X connect 8 0 1 0;
#X connect 9 0 1 0;
#X connect 10 0 12 0;
#X connect 10 0 16 0;
#X connect 10 0 17 0;
#X connect 11 0 10 0;
#X connect 12 0 13 0;
#X connect 13 0 14 0;
#X connect 13 0 15 0;
#X connect 18 0 26 0;
#X connect 19 0 20 0;
#X connect 20 0 18 0;
#X connect 20 1 21 0;
#X connect 20 2 22 0;
#X connect 20 3 23 0;
#X connect 21 0 26 0;
#X connect 22 0 26 0;
#X connect 23 0 26 0;
#X connect 24 0 25 0;
#X connect 24 1 25 1;
#X connect 25 0 19 0;
#X connect 25 1 19 1;
#X connect 25 2 19 2;
#X connect 26 0 31 1;
#X connect 27 0 28 0;
#X connect 28 0 25 0;
#X connect 30 0 24 0;
#X connect 31 0 3 0;
#X connect 36 0 26 1;
#X connect 38 0 40 0;
#X connect 39 0 41 0;
#X connect 40 1 39 0;
#X connect 41 0 1 0;
#X coords 0 779 1 778 166 280 0;
