#N canvas 296 52 798 876 12;
#X declare -path ../bop.p;
#X obj 49 121 inlet~, f 12;
#X obj 160 770 outlet;
#X text 161 808 MIDI and messages dump out of right, f 13;
#X obj 49 771 outlet~;
#X text 39 799 Signal out of left, f 9;
#X text 45 95 Signal \, MIDI \, and messages in left, f 36;
#X obj 130 162 bop.p.inout \$0;
#X obj 43 35 declare -path ../bop.p;
#X obj 175 736 r \$0-params;
#X obj 160 703 r \$0-midi;
#X obj 139 439 bop.p.casio~ \$0;
#X obj 139 361 pack f f f;
#X obj 139 390 route 1 2 3 4;
#X obj 161 469 bop.p.casio~ \$0;
#X obj 184 499 bop.p.casio~ \$0;
#X obj 205 529 bop.p.casio~ \$0;
#X obj 139 281 unpack, f 10;
#X obj 139 319 poly 4 1, f 10;
#X obj 139 650 *~, f 9;
#X obj 66 253 r \$0-stop;
#X msg 66 277 stop;
#X obj 139 253 r \$0-midi;
#X obj 49 684 +~;
#X obj 274 163 r \$0-stop;
#X obj 444 162 r \$0-params;
#X obj 369 163 r \$0-midi;
#X obj 199 611 bop.p.param \$0 gain;
#X msg 577 297 saw square pulse sinepulse halfpulse res-saw res-triangle res-trapezoid, f 27;
#X obj 577 253 loadbang;
#X obj 318 288 bop.p.param \$0 filter;
#X obj 369 324 bop.p.param \$0 wave-1;
#X obj 399 353 bop.p.enum \$0 wave-1, f 22;
#X obj 425 405 bop.p.param \$0 wave-2;
#X obj 425 434 bop.p.enum \$0 wave-2, f 22;
#X connect 0 0 22 0;
#X connect 0 1 6 0;
#X connect 8 0 1 0;
#X connect 9 0 1 0;
#X connect 10 0 18 0;
#X connect 11 0 12 0;
#X connect 12 0 10 0;
#X connect 12 1 13 0;
#X connect 12 2 14 0;
#X connect 12 3 15 0;
#X connect 13 0 18 0;
#X connect 14 0 18 0;
#X connect 15 0 18 0;
#X connect 16 0 17 0;
#X connect 16 1 17 1;
#X connect 17 0 11 0;
#X connect 17 1 11 1;
#X connect 17 2 11 2;
#X connect 18 0 22 1;
#X connect 19 0 20 0;
#X connect 20 0 17 0;
#X connect 21 0 16 0;
#X connect 22 0 3 0;
#X connect 26 0 18 1;
#X connect 27 0 31 1;
#X connect 27 0 33 1;
#X connect 28 0 27 0;
#X connect 29 0 10 1;
#X connect 29 0 13 1;
#X connect 29 0 14 1;
#X connect 29 0 15 1;
#X connect 30 1 31 0;
#X connect 31 0 10 2;
#X connect 31 0 13 2;
#X connect 31 0 14 2;
#X connect 31 0 15 2;
#X connect 32 1 33 0;
#X connect 33 0 13 3;
#X connect 33 0 10 3;
#X connect 33 0 14 3;
#X connect 33 0 15 3;
#X coords 0 876 1 875 166 280 0;
