#N canvas 0 37 1470 891 12;
#X declare -path ../bop.p;
#X obj 49 136 inlet~, f 82;
#X obj 620 785 outlet;
#X obj 49 786 outlet~;
#X text 39 814 Signal out of left, f 9;
#X text 45 110 Signal \, MIDI \, and messages in left, f 36;
#X obj 620 176 bop.p.inout \$0;
#X obj 43 50 declare -path ../bop.p;
#X obj 139 434 bop.p.casio~ \$0;
#X obj 139 356 pack f f f;
#X obj 139 385 route 1 2 3 4;
#X obj 161 464 bop.p.casio~ \$0;
#X obj 184 494 bop.p.casio~ \$0;
#X obj 205 524 bop.p.casio~ \$0;
#X obj 139 276 unpack, f 10;
#X obj 139 314 poly 4 1, f 10;
#X obj 139 645 *~, f 9;
#X obj 66 248 r \$0-stop;
#X msg 66 272 stop;
#X obj 139 248 r \$0-midi;
#X obj 49 679 +~;
#X obj 561 80 r \$0-stop;
#X obj 715 80 r \$0-params;
#X obj 638 80 r \$0-midi;
#X msg 997 312 saw square pulse sinepulse halfpulse res-saw res-triangle res-trapezoid, f 27;
#X obj 997 268 loadbang;
#X obj 799 368 bop.p.enum \$0 wave-1, f 25;
#X obj 799 502 s \$0-attack;
#X obj 799 550 s \$0-decay;
#X obj 799 598 s \$0-sustain;
#X obj 799 646 s \$0-release;
#X obj 799 320 s~ \$0-filter;
#X obj 799 387 s \$0-wave-1;
#X obj 799 454 s \$0-wave-2;
#X obj 799 301 bop.p.param \$0 filter 0.66;
#X obj 799 349 bop.p.param \$0 wave-1 1;
#X obj 799 416 bop.p.param \$0 wave-2 1, f 26;
#X obj 799 435 bop.p.enum \$0 wave-2, f 28;
#X obj 799 483 bop.p.param \$0 attack 0.1;
#X obj 799 531 bop.p.param \$0 decay 0.3;
#X obj 799 579 bop.p.param \$0 sustain 0.7;
#X obj 799 627 bop.p.param \$0 release 0.2;
#X obj 199 606 bop.p.param \$0 gain;
#X text 621 823 stop \, midi \, params \, and dump;
#X obj 816 79 r \$0-dump;
#X connect 0 0 19 0;
#X connect 0 1 5 0;
#X connect 5 0 1 0;
#X connect 7 0 15 0;
#X connect 8 0 9 0;
#X connect 9 0 7 0;
#X connect 9 1 10 0;
#X connect 9 2 11 0;
#X connect 9 3 12 0;
#X connect 10 0 15 0;
#X connect 11 0 15 0;
#X connect 12 0 15 0;
#X connect 13 0 14 0;
#X connect 13 1 14 1;
#X connect 14 0 8 0;
#X connect 14 1 8 1;
#X connect 14 2 8 2;
#X connect 15 0 19 1;
#X connect 16 0 17 0;
#X connect 17 0 14 0;
#X connect 18 0 13 0;
#X connect 19 0 2 0;
#X connect 23 0 25 1;
#X connect 23 0 36 1;
#X connect 24 0 23 0;
#X connect 25 0 31 0;
#X connect 33 0 30 0;
#X connect 34 1 25 0;
#X connect 35 1 36 0;
#X connect 36 0 32 0;
#X connect 37 1 26 0;
#X connect 38 1 27 0;
#X connect 39 1 28 0;
#X connect 40 1 29 0;
#X connect 41 0 15 1;
#X coords 0 891 1 890 166 280 0;
