#N canvas 0 37 1470 891 12;
#X declare -path ../bop.p;
#X obj 85 132 inlet~, f 31;
#X obj 299 222 outlet;
#X text 311 259 MIDI and messages dump out of right, f 13;
#X obj 160 1390 outlet~;
#X text 96 1336 Signal out of left, f 9;
#X text 81 106 Signal \, MIDI \, and messages in left, f 36;
#X obj 299 186 bop.p.inout \$0;
#X obj 849 412 bop.p.param \$0 dry-level 1;
#X obj 851 200 bop.p.param \$0 delay-level 0.75;
#X obj 851 80 bop.p.param \$0 delay-time 0.333;
#X obj 88 44 declare -path ../bop.p;
#X obj 238 995 *~;
#X obj 236 881 r~ \$0-get-feedback;
#X obj 460 534 r~ \$0-get-cutoff;
#X obj 441 896 bob~, f 16;
#X obj 441 360 pow~ 2;
#X obj 550 809 r~ \$0-get-q;
#X obj 238 941 *~ 1.2;
#X obj 157 1305 +~, f 17;
#X obj 667 434 loadbang;
#X msg 667 458 range 50 15000;
#X obj 714 519 s \$0-set-cutoff;
#X obj 550 833 *~ 4;
#X obj 441 324 lop~ 0.5;
#X obj 82 175 s~ \$0-dry;
#X obj 154 1150 r~ \$0-dry;
#X obj 156 1258 *~;
#X obj 173 1183 r~ \$0-get-dry-level;
#X obj 442 1170 *~;
#X obj 466 1085 r~ \$0-get-delay-level;
#X obj 464 1126 pow~ 2;
#X obj 173 1207 pow~ 2;
#X obj 238 917 pow~ 2;
#X obj 441 296 r~ \$0-get-delay-time;
#X obj 237 1063 delwrite~ \$0-delay 2500;
#X obj 441 462 delread4~ \$0-delay;
#X obj 278 1028 r~ \$0-dry;
#X obj 441 676 *~;
#X obj 504 777 r~ \$0-get-cutoff;
#X obj 619 560 sig~;
#X obj 668 560 sig~;
#X msg 668 509 \$2;
#X msg 618 510 \$1;
#X obj 373 634 noise~;
#X obj 373 658 *~ 0.001;
#X obj 426 706 +~;
#X obj 461 595 expr~ (1 - (($v1 - $v2) / ($v3-$v2))) * 1.8;
#X obj 441 748 expr~ tanh($v1) * 1;
#X obj 461 636 +~ 3;
#X obj 852 136 bop.p.param \$0 feedback 0.5;
#X obj 849 359 bop.p.param \$0 q 0.3;
#X obj 851 299 bop.p.param \$0 cutoff 1000;
#X obj 441 388 *~ 1000;
#X obj 442 425 clip~ 0 2500;
#X obj 156 994 r \$0-stop;
#X msg 156 1018 clear;
#X connect 0 0 24 0;
#X connect 0 1 6 0;
#X connect 6 0 1 0;
#X connect 11 0 34 0;
#X connect 12 0 32 0;
#X connect 13 0 46 0;
#X connect 14 0 28 0;
#X connect 14 0 11 1;
#X connect 15 0 52 0;
#X connect 16 0 22 0;
#X connect 17 0 11 0;
#X connect 18 0 3 0;
#X connect 19 0 20 0;
#X connect 20 0 21 0;
#X connect 20 0 42 0;
#X connect 20 0 41 0;
#X connect 22 0 14 2;
#X connect 23 0 15 0;
#X connect 25 0 26 0;
#X connect 26 0 18 0;
#X connect 27 0 31 0;
#X connect 28 0 18 1;
#X connect 29 0 30 0;
#X connect 30 0 28 1;
#X connect 31 0 26 1;
#X connect 32 0 17 0;
#X connect 33 0 23 0;
#X connect 35 0 37 0;
#X connect 36 0 34 0;
#X connect 37 0 45 1;
#X connect 38 0 14 1;
#X connect 39 0 46 1;
#X connect 40 0 46 2;
#X connect 41 0 40 0;
#X connect 42 0 39 0;
#X connect 43 0 44 0;
#X connect 44 0 45 0;
#X connect 45 0 47 0;
#X connect 46 0 48 0;
#X connect 47 0 14 0;
#X connect 48 0 37 1;
#X connect 52 0 53 0;
#X connect 53 0 35 0;
#X connect 54 0 55 0;
#X connect 55 0 34 0;
#X coords 0 891 1 890 166 230 0;
