#N canvas 0 37 735 891 12;
#X declare -path ../bop.p;
#X obj 85 132 inlet~, f 31;
#X obj 299 222 outlet;
#X text 311 259 MIDI and messages dump out of right, f 13;
#X obj 69 1446 outlet~;
#X text 5 1392 Signal out of left, f 9;
#X text 81 106 Signal \, MIDI \, and messages in left, f 36;
#X obj 299 186 bop.p.inout \$0;
#X obj 850 433 bop.p.param \$0 reverb-level 0.5;
#X obj 857 566 bop.p.param \$0 dry-level 1;
#X obj 851 200 bop.p.param \$0 delay-level 0.75;
#X obj 851 80 bop.p.param \$0 delay-time 0.333;
#X obj 857 505 bop.p.param \$0 reverb-size 0.42;
#X obj 88 44 declare -path ../bop.p;
#X obj 275 994 *~;
#X obj 280 877 r~ \$0-get-feedback;
#X obj 441 438 *~ 2500;
#X obj 460 534 r~ \$0-get-cutoff;
#X obj 441 896 bob~, f 16;
#X obj 441 390 pow~ 2;
#X obj 85 758 rev1~, f 15;
#X obj 82 892 *~;
#X obj 116 639 r \$0-get-reverb-size;
#X obj 187 726 bng 19 250 50 0 empty empty empty 0 -10 0 12 #fcfcfc #000000 #000000;
#X obj 136 711 * 100;
#X obj 550 809 r~ \$0-get-q;
#X obj 156 663 loadbang;
#X obj 156 687 t b b, f 7;
#X obj 275 940 *~ 1.2;
#X obj 66 1361 +~, f 17;
#X obj 102 856 pow~ 2;
#X obj 667 434 loadbang;
#X msg 667 458 range 50 15000;
#X obj 714 519 s \$0-set-cutoff;
#X obj 550 833 *~ 4;
#X obj 102 832 r~ \$0-get-reverb-level;
#X obj 441 354 lop~ 0.5;
#X obj 103 172 s~ \$0-dry;
#X obj 178 1206 r~ \$0-dry;
#X obj 180 1314 *~;
#X obj 197 1239 r~ \$0-get-dry-level;
#X obj 452 1076 *~;
#X obj 476 1013 r~ \$0-get-delay-level;
#X obj 66 1143 +~, f 53;
#X obj 465 1041 pow~ 2;
#X obj 197 1263 pow~ 2;
#X obj 275 916 pow~ 2;
#X obj 441 326 r~ \$0-get-delay-time;
#X obj 218 1105 delwrite~ \$0-delay 2500;
#X obj 441 462 delread4~ \$0-delay;
#X obj 259 1070 r~ \$0-dry;
#X obj 82 976 *~ 2;
#X obj 441 676 *~;
#X obj 504 777 r~ \$0-get-cutoff;
#X obj 619 560 sig~;
#X obj 668 560 sig~;
#X msg 668 509 \$2;
#X msg 618 510 \$1;
#X obj 373 634 noise~;
#X obj 373 658 *~ 0.001;
#X obj 426 706 +~;
#X obj 461 595 expr~ (1 - (($v1 - $v2) / ($v3-$v2))) * 1.8;
#X obj 441 748 expr~ tanh($v1) * 1;
#X obj 461 636 +~ 3;
#X obj 85 935 expr~ tanh($v1*2);
#X obj 852 111 s~ \$0-get-delay-time;
#X obj 851 326 s~ \$0-get-cutoff;
#X obj 851 231 s~ \$0-get-delay-level;
#X obj 850 166 s~ \$0-get-feedback;
#X obj 854 470 s~ \$0-get-reverb-level;
#X obj 854 602 s~ \$0-get-dry-level;
#X obj 849 383 s~ \$0-get-q;
#X obj 852 136 bop.p.param \$0 feedback 0.5;
#X obj 849 359 bop.p.param \$0 q 0.3;
#X obj 851 299 bop.p.param \$0 cutoff 1000;
#X connect 0 0 36 0;
#X connect 0 0 19 0;
#X connect 0 1 6 0;
#X connect 6 0 1 0;
#X connect 7 0 68 0;
#X connect 8 0 69 0;
#X connect 9 0 66 0;
#X connect 10 0 64 0;
#X connect 13 0 47 0;
#X connect 14 0 45 0;
#X connect 15 0 48 0;
#X connect 16 0 60 0;
#X connect 17 0 40 0;
#X connect 17 0 13 1;
#X connect 18 0 15 0;
#X connect 19 0 20 0;
#X connect 20 0 63 0;
#X connect 21 0 23 0;
#X connect 22 0 19 2;
#X connect 23 0 19 1;
#X connect 24 0 33 0;
#X connect 25 0 26 0;
#X connect 26 0 23 0;
#X connect 26 1 22 0;
#X connect 27 0 13 0;
#X connect 28 0 3 0;
#X connect 29 0 20 1;
#X connect 30 0 31 0;
#X connect 31 0 32 0;
#X connect 31 0 56 0;
#X connect 31 0 55 0;
#X connect 33 0 17 2;
#X connect 34 0 29 0;
#X connect 35 0 18 0;
#X connect 37 0 38 0;
#X connect 38 0 28 1;
#X connect 39 0 44 0;
#X connect 40 0 42 1;
#X connect 41 0 43 0;
#X connect 42 0 28 0;
#X connect 43 0 40 1;
#X connect 44 0 38 1;
#X connect 45 0 27 0;
#X connect 46 0 35 0;
#X connect 48 0 51 0;
#X connect 49 0 47 0;
#X connect 50 0 42 0;
#X connect 50 0 47 0;
#X connect 51 0 59 1;
#X connect 52 0 17 1;
#X connect 53 0 60 1;
#X connect 54 0 60 2;
#X connect 55 0 54 0;
#X connect 56 0 53 0;
#X connect 57 0 58 0;
#X connect 58 0 59 0;
#X connect 59 0 61 0;
#X connect 60 0 62 0;
#X connect 61 0 17 0;
#X connect 62 0 51 1;
#X connect 63 0 50 0;
#X connect 71 0 67 0;
#X connect 72 0 70 0;
#X connect 73 0 65 0;
#X coords 0 891 1 890 166 230 0;
