#N canvas 0 37 735 891 12;
#X declare -path ../bop.p;
#X obj 71 111 inlet~, f 10;
#X obj 138 252 outlet;
#X text 150 289 MIDI and messages dump out of right, f 13;
#X obj 71 771 outlet~;
#X text 67 85 Signal \, MIDI \, and messages in left, f 36;
#X obj 424 285 pack 0 0 0, f 13;
#X obj 424 165 unpack, f 13;
#X obj 424 205 poly 6 1, f 13;
#X obj 424 257 - 1;
#X obj 422 385 list prepend;
#X obj 505 330 r \$0-get-instrument;
#X obj 421 425 route 0 1 2 3, f 91;
#X msg 1031 163 list harp glok marimba rhodes;
#X obj 505 358 int;
#X obj 1166 566 *~ 0.35;
#X obj 349 121 r \$0-stop;
#X msg 349 145 stop;
#X obj 425 112 r \$0-midi;
#X obj 138 176 bop.p.inout \$0;
#X obj 74 51 declare -path ../bop.p;
#X obj 680 128 bop.p.param \$0 instrument 3;
#X obj 417 679 clip~ -1 1;
#X obj 884 563 *~ 1;
#X obj 569 562 *~ 1.7;
#X obj 298 568 *~ 0.8;
#X obj 303 516 clone sub/instrument~.voice.harp 6;
#X obj 569 515 clone sub/instrument~.voice.glok 6;
#X obj 880 515 clone sub/instrument~.voice.marimba 6;
#X obj 1168 516 clone sub/instrument~.voice.rhodes 6;
#X obj 908 304 bop.p.nth, f 10;
#X obj 908 78 r \$0-get-instrument;
#X obj 908 106 int;
#X obj 908 352 list trim;
#X obj 908 376 s \$0-out;
#X obj 163 214 r \$0-out;
#X obj 908 130 t b f b, f 18;
#X obj 1007 220 list length;
#X obj 975 273 clip 0;
#X obj 1014 248 - 1;
#X obj 907 271 list;
#X obj 932 189 t l l;
#X obj 908 328 list prepend instrumentname;
#X obj 611 240 s \$0-get-instrumet;
#X obj 622 208 bng 19 250 50 0 empty empty empty 0 -10 0 12 #fcfcfc #000000 #000000;
#X connect 0 0 3 0;
#X connect 0 1 18 0;
#X connect 5 0 9 0;
#X connect 6 0 7 0;
#X connect 6 1 7 1;
#X connect 7 0 8 0;
#X connect 7 1 5 1;
#X connect 7 2 5 2;
#X connect 8 0 5 0;
#X connect 9 0 11 0;
#X connect 10 0 13 0;
#X connect 11 0 25 0;
#X connect 11 1 26 0;
#X connect 11 2 27 0;
#X connect 11 3 28 0;
#X connect 12 0 40 0;
#X connect 13 0 9 1;
#X connect 14 0 21 0;
#X connect 15 0 16 0;
#X connect 16 0 7 0;
#X connect 17 0 6 0;
#X connect 18 0 1 0;
#X connect 21 0 3 0;
#X connect 22 0 21 0;
#X connect 23 0 21 0;
#X connect 24 0 21 0;
#X connect 25 0 24 0;
#X connect 26 0 23 0;
#X connect 27 0 22 0;
#X connect 28 0 14 0;
#X connect 29 0 41 0;
#X connect 30 0 31 0;
#X connect 31 0 35 0;
#X connect 32 0 33 0;
#X connect 34 0 1 0;
#X connect 35 0 39 0;
#X connect 35 1 37 0;
#X connect 35 2 12 0;
#X connect 36 0 38 0;
#X connect 37 0 29 1;
#X connect 38 0 37 2;
#X connect 39 0 29 0;
#X connect 40 0 39 1;
#X connect 40 1 36 0;
#X connect 41 0 32 0;
#X connect 43 0 42 0;
#X coords 0 891 1 890 166 80 0;
