#N canvas 0 37 1470 891 12;
#X declare -path ../bop.p;
#X obj 71 111 inlet~, f 10;
#X obj 138 252 outlet;
#X text 150 289 MIDI and messages dump out of right, f 13;
#X obj 71 771 outlet~;
#X text 67 85 Signal \, MIDI \, and messages in left, f 36;
#X obj 424 285 pack 0 0 0, f 13;
#X obj 424 165 unpack, f 13;
#X obj 730 515 clone bop.p.marimba~ 6;
#X obj 898 516 clone bop.p.rhodes~ 6;
#X obj 421 513 clone bop.p.harp~ 6;
#X obj 424 205 poly 6 1, f 13;
#X obj 424 257 - 1;
#X obj 422 385 list prepend;
#X obj 505 330 r \$0-get-instrument;
#X obj 421 425 route 0 1 2 3, f 91;
#X obj 569 515 clone bop.p.glok~ 6;
#X msg 685 171 list harp glok marimba rhodes;
#X obj 505 358 int;
#X obj 896 566 *~ 0.35;
#X obj 349 121 r \$0-stop;
#X msg 349 145 stop;
#X obj 425 112 r \$0-midi;
#X obj 138 176 bop.p.inout \$0;
#X obj 74 51 declare -path ../bop.p;
#X obj 680 128 bop.p.param \$0 instrument 3;
#X obj 417 679 clip~ -1 1;
#X obj 734 563 *~ 1;
#X obj 569 562 *~ 1.7;
#X obj 418 568 *~ 0.8;
#X connect 0 0 3 0;
#X connect 0 1 22 0;
#X connect 5 0 12 0;
#X connect 6 0 10 0;
#X connect 6 1 10 1;
#X connect 7 0 26 0;
#X connect 8 0 18 0;
#X connect 9 0 28 0;
#X connect 10 0 11 0;
#X connect 10 1 5 1;
#X connect 10 2 5 2;
#X connect 11 0 5 0;
#X connect 12 0 14 0;
#X connect 13 0 17 0;
#X connect 14 0 9 0;
#X connect 14 1 15 0;
#X connect 14 2 7 0;
#X connect 14 3 8 0;
#X connect 15 0 27 0;
#X connect 17 0 12 1;
#X connect 18 0 25 0;
#X connect 19 0 20 0;
#X connect 20 0 10 0;
#X connect 21 0 6 0;
#X connect 22 0 1 0;
#X connect 25 0 3 0;
#X connect 26 0 25 0;
#X connect 27 0 25 0;
#X connect 28 0 25 0;
#X coords 0 891 1 890 166 80 0;
