#N canvas 0 37 1142 891 12;
#X declare -path ../bop.p;
#X obj 63 1425 outlet~;
#X obj 62 82 inlet~, f 70;
#X obj 549 191 outlet;
#X obj 659 758 bng 19 250 50 0 empty empty empty 0 -10 0 12 #fcfcfc #000000 #000000;
#X text 1542 1534 comment;
#X obj 588 901 change;
#X obj 537 636 loadbang;
#N canvas 0 37 1470 891 load-samples 0;
#X obj 251 32 inlet;
#X obj 290 284 file glob;
#X obj 291 250 makefilename %s/*.wav;
#X msg 311 120 clear;
#X obj 290 317 list split 1;
#X obj 251 83 t b b f b;
#X text 484 349 store paths to samples;
#X text 331 423 number of samples;
#X obj 483 533 outlet;
#X text 417 205 get path to folder;
#X obj 147 621 outlet;
#X obj 140 42 inlet;
#X text 311 31 folder index;
#X text 40 43 sample index;
#X floatatom 146 442 5 0 0 0 - - - 0;
#X obj 146 497 %;
#X floatatom 144 533 5 0 0 0 - - - 0;
#X msg 299 59 0;
#X text 544 533 num samples;
#X text 201 620 sample path;
#X obj 488 247 print Loading Folder:;
#X text 194 495 modulo over number of samples;
#X obj 271 392 text size \$0-samples;
#X obj 290 349 text set \$0-samples 1e+10;
#X obj 291 208 text get \$0-folders;
#X obj 311 155 text define \$0-samples;
#X obj 146 576 text get \$0-samples;
#X connect 0 0 5 0;
#X connect 1 0 4 0;
#X connect 2 0 1 0;
#X connect 3 0 25 0;
#X connect 4 0 23 0;
#X connect 5 1 22 0;
#X connect 5 2 24 0;
#X connect 5 3 3 0;
#X connect 11 0 14 0;
#X connect 14 0 15 0;
#X connect 15 0 16 0;
#X connect 16 0 26 0;
#X connect 17 0 5 0;
#X connect 22 0 8 0;
#X connect 22 0 15 1;
#X connect 24 0 2 0;
#X connect 24 0 20 0;
#X connect 26 0 10 0;
#X restore 423 982 pd load-samples;
#X f 17;
#X obj 539 1042 s \$0-num-samples;
#X obj 537 723 t b b b, f 15;
#X msg 588 793 set -1;
#X obj 537 938 f;
#X obj 604 867 int;
#X text 508 603 ---------- SAMPLE LOADING ------------;
#N canvas 804 178 454 722 load-folders 0;
#X obj 32 18 inlet;
#X obj 102 347 file glob;
#X obj 104 260 pdcontrol;
#X msg 104 228 dir;
#X msg 125 136 clear;
#X obj 104 382 list split 1;
#X obj 108 866 - 1;
#X msg 109 895 range 0 \$1;
#X text 144 864 number of banks;
#X text 123 410 store paths to banks;
#X obj 32 85 t b b b b b, f 14;
#X obj 76 776 bop.p.accum, f 28;
#X obj 76 510 t b b b, f 28;
#X obj 111 570 bop.p.iter;
#X obj 111 603 sel \\\;;
#X obj 112 635 file split;
#X obj 145 693 list length;
#X obj 113 663 t l l;
#X obj 113 747 bop.p.nth;
#X obj 145 717 - 1;
#X obj 109 835 list length;
#X obj 76 806 t l l;
#X obj 109 926 s \$0-set-folder;
#X obj 76 999 s \$0-set-folder-enum;
#X text 90 974 names of folders;
#X obj 103 304 makefilename %s/../samples/*/;
#X obj 127 168 text define \$0-folders;
#X obj 104 433 text set \$0-folders 1e+10;
#X obj 101 540 text tolist \$0-folders;
#X connect 0 0 10 0;
#X connect 1 0 5 0;
#X connect 2 0 25 0;
#X connect 3 0 2 0;
#X connect 4 0 26 0;
#X connect 5 0 27 0;
#X connect 6 0 7 0;
#X connect 7 0 22 0;
#X connect 10 2 12 0;
#X connect 10 3 3 0;
#X connect 10 4 4 0;
#X connect 11 0 21 0;
#X connect 12 0 11 0;
#X connect 12 1 28 0;
#X connect 12 2 11 1;
#X connect 13 0 14 0;
#X connect 14 1 15 0;
#X connect 15 0 17 0;
#X connect 16 0 19 0;
#X connect 17 0 18 0;
#X connect 17 1 16 0;
#X connect 18 0 11 0;
#X connect 19 0 18 1;
#X connect 20 0 6 0;
#X connect 21 0 23 0;
#X connect 21 1 20 0;
#X connect 25 0 1 0;
#X connect 28 0 13 0;
#X restore 659 793 pd load-folders;
#X f 17;
#X obj 156 1316 r~ \$0-get-gain;
#X obj 124 1347 *~, f 5;
#X obj 537 694 bng 19 250 50 0 empty empty empty 0 -10 0 12 #fcfcfc #000000 #000000;
#X obj 537 665 delay 100;
#X obj 60 29 declare -path ../bop.p;
#X obj 549 128 bop.p.inout \$0;
#X obj 715 96 r \$0-stop;
#X obj 729 118 r \$0-params;
#X obj 698 74 r \$0-dump;
#X obj 606 841 r \$0-get-folder;
#X obj 908 164 bop.p.param \$0 gain 1;
#X obj 908 121 bop.p.param \$0 folder 0;
#X obj 909 183 s~ \$0-get-gain;
#X obj 123 1269 readsf~, f 32;
#X msg 195 1159 print;
#X obj 423 1101 list prepend open;
#X obj 422 1129 list trim;
#X obj 1051 386 unpack, f 10;
#X obj 978 358 r \$0-stop;
#X msg 978 382 stop;
#X obj 1051 358 r \$0-midi;
#X obj 1051 424 poly 2 1, f 10;
#X obj 1051 584 route 1 2;
#X msg 1051 545 \$1 \$3 \$2;
#X text 1133 546 voice velocity pitch;
#X obj 123 584 pipe 50;
#X obj 186 1097 r \$0-stop;
#X msg 186 1121 stop;
#X obj 1051 506 pack f f f;
#X obj 123 111 r \$0-midi;
#X text 1135 468 TODO: two voices for x-fading;
#X msg 882 618 \$1 10;
#X obj 882 588 / 127;
#X obj 882 649 line~;
#X obj 124 1384 *~, f 110;
#X msg 123 511 \$2 \$1 \$2;
#X obj 123 545 unpack f f f, f 87;
#X obj 234 356 r \$0-num-samples;
#X obj 193 385 random;
#X obj 192 325 unpack, f 24;
#X obj 192 359 bng 19 250 50 0 empty empty empty 0 -10 0 12 #fcfcfc #000000 #000000;
#X obj 193 417 pack, f 24;
#X obj 125 175 list prepend;
#X obj 124 203 list trim;
#X obj 422 128 r \$0-num-samples;
#X msg 422 152 numsamples \$1;
#X obj 910 222 bop.p.param \$0 mode 0;
#X obj 206 142 r \$0-get-mode;
#X obj 124 232 route 0 1 2, f 56;
#X obj 448 404 bop.p.counter;
#X obj 446 308 unpack, f 22;
#X obj 448 449 pack, f 22;
#X text 245 291 mode 1: random;
#X text 481 279 mode 2: cycle;
#X obj 531 341 loadbang;
#X msg 534 369 0;
#X msg 342 1309 done;
#X obj 1068 1107 delay;
#X obj 1064 1167 bng 19 250 50 0 empty empty empty 0 -10 0 12 #fcfcfc #000000 #000000;
#X floatatom 1118 1106 5 0 0 0 - - - 0;
#X msg 1065 1234 0 127;
#X text 1124 1235 retrigger;
#X floatatom 1253 1185 5 0 0 0 - - - 0;
#X obj 1094 1165 r \$0-midi;
#X msg 1095 1194 set \$1 \$2;
#X msg 1244 1229 0;
#X msg 1292 1231 1;
#X obj 1072 1380 route 1;
#X obj 1068 920 f;
#X obj 1074 1296 pack f f f;
#X text 1059 825 ---------- RETRIGGER ------------;
#X obj 908 270 bop.p.param \$0 follow 0;
#X obj 1243 1077 r \$0-get-follow;
#X obj 1071 1420 s \$0-midi;
#X obj 1066 1081 + 50;
#X msg 1075 1341 \$3 \$1 \$2;
#X obj 1062 882 route done;
#X obj 1273 1274 tgl 19 0 empty empty empty 0 -10 0 12 #fcfcfc #000000 #000000 0 1;
#X obj 342 1341 s \$0-report;
#X obj 1067 855 r \$0-report;
#X obj 1189 1467 s \$0-report;
#X msg 1189 1426 retrigger \$1 \$2;
#X obj 566 167 r \$0-retrigger;
#X text 255 30 play samples from disk without loading to ram \, optionally following on cyclicly or randomly and a defined interval.;
#X obj 1065 1011 random;
#X obj 1065 973 t b f;
#X obj 1245 1117 moses 1;
#X obj 978 1083 r \$0-stop;
#X msg 978 1107 stop;
#X connect 1 0 0 0;
#X connect 1 1 20 0;
#X connect 3 0 14 0;
#X connect 5 0 11 0;
#X connect 6 0 18 0;
#X connect 7 0 30 0;
#X connect 7 1 8 0;
#X connect 9 0 11 0;
#X connect 9 1 10 0;
#X connect 9 2 3 0;
#X connect 10 0 5 0;
#X connect 11 0 7 1;
#X connect 12 0 5 0;
#X connect 15 0 16 1;
#X connect 16 0 49 0;
#X connect 17 0 9 0;
#X connect 18 0 17 0;
#X connect 20 0 2 0;
#X connect 24 0 12 0;
#X connect 25 0 27 0;
#X connect 28 0 16 0;
#X connect 28 1 71 0;
#X connect 29 0 28 0;
#X connect 30 0 31 0;
#X connect 31 0 28 0;
#X connect 32 0 36 0;
#X connect 32 1 36 1;
#X connect 33 0 34 0;
#X connect 34 0 36 0;
#X connect 35 0 32 0;
#X connect 36 0 43 0;
#X connect 36 1 43 1;
#X connect 36 2 43 2;
#X connect 38 0 37 0;
#X connect 40 0 28 0;
#X connect 41 0 42 0;
#X connect 42 0 28 0;
#X connect 43 0 38 0;
#X connect 44 0 57 0;
#X connect 46 0 48 0;
#X connect 47 0 46 0;
#X connect 48 0 49 1;
#X connect 49 0 0 0;
#X connect 50 0 51 0;
#X connect 51 0 40 0;
#X connect 51 1 7 0;
#X connect 51 2 47 0;
#X connect 52 0 53 1;
#X connect 53 0 56 0;
#X connect 54 0 55 0;
#X connect 54 1 56 1;
#X connect 55 0 53 0;
#X connect 56 0 50 0;
#X connect 57 0 58 0;
#X connect 58 0 63 0;
#X connect 59 0 60 0;
#X connect 60 0 2 0;
#X connect 62 0 57 1;
#X connect 63 0 50 0;
#X connect 63 1 54 0;
#X connect 63 2 65 0;
#X connect 64 0 66 0;
#X connect 65 0 64 0;
#X connect 65 1 66 1;
#X connect 66 0 50 0;
#X connect 69 0 70 0;
#X connect 70 0 64 1;
#X connect 71 0 93 0;
#X connect 72 0 73 0;
#X connect 73 0 75 0;
#X connect 75 0 84 0;
#X connect 77 0 83 1;
#X connect 78 0 79 0;
#X connect 79 0 75 0;
#X connect 80 0 84 2;
#X connect 80 0 92 0;
#X connect 81 0 84 2;
#X connect 81 0 92 0;
#X connect 82 0 88 0;
#X connect 82 0 96 0;
#X connect 83 0 100 0;
#X connect 84 0 90 0;
#X connect 87 0 101 0;
#X connect 89 0 72 0;
#X connect 89 0 74 0;
#X connect 90 0 82 0;
#X connect 91 0 83 0;
#X connect 94 0 91 0;
#X connect 96 0 95 0;
#X connect 97 0 2 0;
#X connect 99 0 89 0;
#X connect 100 0 99 0;
#X connect 100 1 99 1;
#X connect 101 0 80 0;
#X connect 101 1 77 0;
#X connect 101 1 81 0;
#X connect 102 0 103 0;
#X connect 103 0 72 0;
