#N canvas 504 37 735 891 12;
#X declare -path ../bop.p;
#X obj 63 535 outlet~;
#X obj 62 82 inlet~, f 70;
#X obj 548 181 outlet;
#X obj 1254 168 bng 19 250 50 0 empty empty empty 0 -10 0 12 #fcfcfc #000000 #000000;
#X text 1622 844 comment;
#X obj 1183 321 change;
#X obj 124 190 r \$0-to-clone;
#X obj 1203 921 s \$0-to-clone;
#X msg 1277 880 vis 2 \$1;
#X obj 1280 853 tgl 19 0 empty empty empty 0 -10 0 12 #fcfcfc #000000 #000000 0 1;
#X obj 1203 849 tgl 19 0 empty empty empty 0 -10 0 12 #fcfcfc #000000 #000000 0 1;
#X msg 1203 880 vis 1 \$1;
#X obj 1132 60 loadbang;
#N canvas 282 74 581 816 load-samples 0;
#X obj 101 32 inlet;
#X obj 140 284 file glob;
#X obj 141 250 makefilename %s/*.wav;
#X obj 161 155 text define samples;
#X msg 161 120 clear;
#X obj 140 317 list split 1;
#X obj 140 349 text set samples 1e+10;
#X obj 121 392 text size samples;
#X obj 121 431 - 1;
#X msg 121 492 range 0 \$1;
#X obj 121 520 s \$0-set-sample;
#X obj 121 463 max 0;
#X obj 101 83 t b b f b;
#X text 302 347 store paths to samples;
#X text 181 423 number of samples;
#X obj 98 632 text sequence samples;
#X obj 98 569 t b b, f 24;
#X msg 263 677 set 0;
#X msg 98 599 line 0 \, auto;
#X msg 98 661 next read \$1;
#X obj 333 533 outlet;
#X obj 141 208 text get folders;
#X text 267 205 get path to folder;
#X obj 98 706 outlet;
#X connect 0 0 12 0;
#X connect 1 0 5 0;
#X connect 2 0 1 0;
#X connect 4 0 3 0;
#X connect 5 0 6 0;
#X connect 7 0 8 0;
#X connect 7 0 20 0;
#X connect 8 0 11 0;
#X connect 9 0 10 0;
#X connect 11 0 9 0;
#X connect 12 0 16 0;
#X connect 12 1 7 0;
#X connect 12 2 21 0;
#X connect 12 3 4 0;
#X connect 15 0 19 0;
#X connect 16 0 18 0;
#X connect 16 1 17 0;
#X connect 17 0 23 0;
#X connect 18 0 15 0;
#X connect 19 0 23 0;
#X connect 21 0 2 0;
#X restore 1155 508 pd load-samples;
#X f 17;
#X obj 1271 568 s \$0-num-samples;
#X obj 337 778 r \$0-num-samples;
#X obj 328 812 %, f 6;
#X obj 238 476 r \$0-midi;
#X obj 328 865 pack, f 26;
#X text 381 809 wrap notes;
#X obj 1271 538 min 16;
#X obj 238 1205 s \$0-to-clone;
#X obj 1132 143 t b b b, f 15;
#X msg 1183 203 set -1;
#X obj 1132 358 f;
#X obj 1199 287 int;
#X text 1103 23 ---------- SAMPLE LOADING ------------;
#X text 407 395 ---------- MIDI HANDLING ------------;
#X text 1138 754 ---------- DEBUG ------------;
#N canvas 804 178 454 722 load-folders 0;
#X obj 32 18 inlet;
#X obj 102 347 file glob;
#X obj 104 260 pdcontrol;
#X msg 104 228 dir;
#X msg 125 136 clear;
#X obj 104 382 list split 1;
#X obj 108 866 - 1;
#X msg 109 895 range 0 \$1;
#X text 144 864 number of banks;
#X text 123 410 store paths to banks;
#X obj 32 85 t b b b b b, f 14;
#X obj 76 776 bop.p.accum, f 25;
#X obj 76 510 t b b b, f 25;
#X obj 111 570 bop.p.iter;
#X obj 111 603 sel \\\;;
#X obj 112 635 file split;
#X obj 145 693 list length;
#X obj 113 663 t l l;
#X obj 113 747 bop.p.nth;
#X obj 145 717 - 1;
#X obj 109 835 list length;
#X obj 76 806 t l l;
#X obj 127 168 text define folders;
#X obj 104 433 text set folders 1e+10;
#X obj 101 540 text tolist folders;
#X obj 109 926 s \$0-set-folder;
#X obj 74 999 s \$0-set-folder-enum;
#X text 88 974 names of folders;
#X obj 240 348 print;
#X obj 103 304 makefilename %s/../samples/*/;
#X connect 0 0 10 0;
#X connect 1 0 5 0;
#X connect 2 0 29 0;
#X connect 3 0 2 0;
#X connect 4 0 22 0;
#X connect 5 0 23 0;
#X connect 6 0 7 0;
#X connect 7 0 25 0;
#X connect 10 2 12 0;
#X connect 10 3 3 0;
#X connect 10 4 4 0;
#X connect 11 0 21 0;
#X connect 12 0 11 0;
#X connect 12 1 24 0;
#X connect 12 2 11 1;
#X connect 13 0 14 0;
#X connect 14 1 15 0;
#X connect 15 0 17 0;
#X connect 16 0 19 0;
#X connect 17 0 18 0;
#X connect 17 1 16 0;
#X connect 18 0 11 0;
#X connect 19 0 18 1;
#X connect 20 0 6 0;
#X connect 21 0 26 0;
#X connect 21 1 20 0;
#X connect 24 0 13 0;
#X connect 29 0 1 0;
#X connect 29 0 28 0;
#X restore 1254 203 pd load-folders;
#X f 17;
#X obj 156 336 r~ \$0-get-gain;
#X obj 124 367 *~, f 5;
#X obj 277 584 r \$0-get-mode;
#X obj 277 608 == 1;
#X obj 238 640 spigot;
#X obj 814 825 r \$0-get-sample;
#X obj 814 859 int;
#X obj 814 883 change;
#X text 260 448 keymap mode;
#X obj 328 991 list append;
#X obj 401 955 r \$0-get-root;
#X obj 47 726 r \$0-get-sample;
#X obj 47 752 int;
#X obj 29 783 +;
#X obj 740 917 list append;
#X obj 1155 621 clone bop.p.sampler-loader 16 \$0;
#X obj 1155 651 text define \$0-sample-info;
#X obj 1132 391 t b f b;
#X obj 1178 446 text delete \$0-sample-info, f 16;
#X obj 1132 118 bng 19 250 50 0 empty empty empty 0 -10 0 12 #fcfcfc #000000 #000000;
#X msg 1178 420 -1;
#X obj 1183 545 tgl 19 0 empty empty empty 0 -10 0 12 #fcfcfc #000000 #000000 0 1;
#X msg 1183 576 vis 1 \$1;
#X text 338 904 sample velocity;
#X text 339 1027 sample velocity pitch;
#X obj 238 539 pack f f f;
#X obj 238 508 poly 4 1;
#X text 337 535 target \, pitch \, velocity;
#X obj 238 677 unpack f f f, f 26;
#X obj 238 1127 list append;
#X msg 238 1165 \$1 play \$2 \$3 \$4;
#X obj 238 993 - 1;
#X text 341 1096 pitch velocity sample;
#X msg 328 1069 \$3 \$2 \$1;
#X text 661 1104 [target] play [pitch] [velocity] [sample];
#X obj 667 484 r \$0-midi;
#X obj 706 589 r \$0-get-mode;
#X obj 667 648 spigot;
#X obj 667 547 pack f f f;
#X text 766 543 target \, pitch \, velocity;
#X obj 706 616 == 0;
#X text 668 449 repitch mode;
#X obj 665 677 unpack f f f, f 29;
#X obj 740 752 pack, f 23;
#X obj 665 985 list append;
#X text 753 982 target pitch velocity sample;
#X obj 665 1072 s \$0-to-clone;
#X msg 665 1032 \$1 play \$2 \$3 \$4;
#X obj 664 773 - 1;
#X obj 1135 848 tgl 19 0 empty empty empty 0 -10 0 12 #fcfcfc #000000 #000000 0 1;
#X msg 1135 880 vis 0 \$1;
#X obj 1132 88 delay 100;
#X obj 124 265 clone bop.p.sampler-voice 4 \$0, f 33;
#X obj 667 514 poly 4 1;
#X text 78 757 todo \; offset sample \; may need to flush hanging notes when changing sample, f 13;
#X obj 60 29 declare -path ../bop.p;
#X obj 550 133 bop.p.inout \$0;
#X obj 632 190 r \$0-stop;
#X obj 666 234 r \$0-params;
#X obj 649 212 r \$0-midi;
#X obj 615 168 r \$0-dump;
#X obj 1201 261 r \$0-get-folder;
#X obj 891 311 bop.p.param \$0 attack 0.1;
#X obj 893 367 bop.p.param \$0 release 0.3;
#X obj 908 435 bop.p.param \$0 loop 1;
#X obj 892 488 bop.p.param \$0 loop-length 1;
#X obj 979 542 bop.p.param \$0 loop-start 0;
#X obj 892 258 bop.p.param \$0 gain 1;
#X obj 948 103 bop.p.param \$0 tune 0;
#X obj 758 91 bop.p.param \$0 folder 0;
#X obj 757 63 bop.p.param \$0 sample 0;
#X obj 758 37 bop.p.param \$0 mode 0;
#X obj 946 35 bop.p.param \$0 root 0;
#X obj 893 277 s~ \$0-get-gain;
#X obj 948 135 s~ \$0-get-tune;
#X obj 947 63 s~ \$0-get-root;
#X obj 892 336 s~ \$0-get-attack;
#X obj 892 390 s~ \$0-get-release;
#X obj 887 517 s~ \$0-get-loop-length;
#X obj 981 570 s~ \$0-get-loop-start;
#X connect 1 0 0 0;
#X connect 1 1 86 0;
#X connect 3 0 29 0;
#X connect 5 0 24 0;
#X connect 6 0 82 0;
#X connect 8 0 7 0;
#X connect 9 0 8 0;
#X connect 10 0 11 0;
#X connect 11 0 7 0;
#X connect 12 0 81 0;
#X connect 13 0 45 0;
#X connect 13 1 20 0;
#X connect 15 0 16 1;
#X connect 16 0 18 0;
#X connect 17 0 56 0;
#X connect 18 0 39 0;
#X connect 20 0 14 0;
#X connect 22 0 24 0;
#X connect 22 1 23 0;
#X connect 22 2 3 0;
#X connect 23 0 5 0;
#X connect 24 0 47 0;
#X connect 25 0 5 0;
#X connect 30 0 31 1;
#X connect 31 0 0 0;
#X connect 32 0 33 0;
#X connect 33 0 34 1;
#X connect 34 0 58 0;
#X connect 35 0 36 0;
#X connect 36 0 37 0;
#X connect 37 0 44 1;
#X connect 39 0 63 0;
#X connect 40 0 39 1;
#X connect 41 0 42 0;
#X connect 42 0 43 1;
#X connect 44 0 74 1;
#X connect 47 1 13 0;
#X connect 47 2 50 0;
#X connect 49 0 22 0;
#X connect 50 0 48 0;
#X connect 51 0 52 0;
#X connect 52 0 45 0;
#X connect 55 0 34 0;
#X connect 56 0 55 0;
#X connect 56 1 55 1;
#X connect 56 2 55 2;
#X connect 58 0 61 0;
#X connect 58 1 16 0;
#X connect 58 2 18 1;
#X connect 59 0 60 0;
#X connect 60 0 21 0;
#X connect 61 0 59 0;
#X connect 63 0 59 1;
#X connect 65 0 83 0;
#X connect 66 0 70 0;
#X connect 67 0 72 0;
#X connect 68 0 67 0;
#X connect 70 0 67 1;
#X connect 72 0 78 0;
#X connect 72 1 73 0;
#X connect 72 2 73 1;
#X connect 73 0 44 0;
#X connect 74 0 77 0;
#X connect 77 0 76 0;
#X connect 78 0 74 0;
#X connect 79 0 80 0;
#X connect 80 0 7 0;
#X connect 81 0 49 0;
#X connect 82 0 31 0;
#X connect 83 0 68 0;
#X connect 83 1 68 1;
#X connect 83 2 68 2;
#X connect 86 0 2 0;
#X connect 91 0 25 0;
#X connect 92 0 106 0;
#X connect 93 0 107 0;
#X connect 95 0 108 0;
#X connect 96 0 109 0;
#X connect 97 0 103 0;
#X connect 98 0 104 0;
#X connect 102 0 105 0;
