#N canvas 0 37 876 891 12;
#X declare -path ../bop.p;
#X obj 63 1425 outlet~;
#X obj 62 82 inlet~, f 70;
#X obj 549 191 outlet;
#X obj 659 758 bng 19 250 50 0 empty empty empty 0 -10 0 12 #fcfcfc #000000 #000000;
#X text 1552 1314 comment;
#X obj 588 901 change;
#X obj 537 636 loadbang;
#N canvas 0 37 1470 891 load-samples 0;
#X obj 251 32 inlet;
#X obj 290 284 file glob;
#X obj 291 250 makefilename %s/*.wav;
#X obj 311 155 text define samples;
#X msg 311 120 clear;
#X obj 290 317 list split 1;
#X obj 290 349 text set samples 1e+10;
#X obj 271 392 text size samples;
#X obj 251 83 t b b f b;
#X text 452 347 store paths to samples;
#X text 331 423 number of samples;
#X obj 483 533 outlet;
#X obj 291 208 text get folders;
#X text 417 205 get path to folder;
#X obj 147 621 outlet;
#X obj 140 42 inlet;
#X text 311 31 folder index;
#X text 40 43 sample index;
#X obj 146 576 text get samples;
#X floatatom 146 442 5 0 0 0 - - - 0;
#X obj 146 497 %;
#X floatatom 144 533 5 0 0 0 - - - 0;
#X msg 299 59 0;
#X text 544 533 num samples;
#X text 201 620 sample path;
#X obj 488 247 print Loading Folder:;
#X text 194 495 modulo over number of samples;
#X connect 0 0 8 0;
#X connect 1 0 5 0;
#X connect 2 0 1 0;
#X connect 4 0 3 0;
#X connect 5 0 6 0;
#X connect 7 0 11 0;
#X connect 7 0 20 1;
#X connect 8 1 7 0;
#X connect 8 2 12 0;
#X connect 8 3 4 0;
#X connect 12 0 2 0;
#X connect 12 0 25 0;
#X connect 15 0 19 0;
#X connect 18 0 14 0;
#X connect 19 0 20 0;
#X connect 20 0 21 0;
#X connect 21 0 18 0;
#X connect 22 0 8 0;
#X restore 423 982 pd load-samples;
#X f 17;
#X obj 539 1042 s \$0-num-samples;
#X obj 537 723 t b b b, f 15;
#X msg 588 793 set -1;
#X obj 537 938 f;
#X obj 604 867 int;
#X text 508 603 ---------- SAMPLE LOADING ------------;
#N canvas 804 178 454 722 load-folders 0;
#X obj 32 18 inlet;
#X obj 102 347 file glob;
#X obj 104 260 pdcontrol;
#X msg 104 228 dir;
#X msg 125 136 clear;
#X obj 104 382 list split 1;
#X obj 108 866 - 1;
#X msg 109 895 range 0 \$1;
#X text 144 864 number of banks;
#X text 123 410 store paths to banks;
#X obj 32 85 t b b b b b, f 14;
#X obj 76 776 bop.p.accum, f 25;
#X obj 76 510 t b b b, f 25;
#X obj 111 570 bop.p.iter;
#X obj 111 603 sel \\\;;
#X obj 112 635 file split;
#X obj 145 693 list length;
#X obj 113 663 t l l;
#X obj 113 747 bop.p.nth;
#X obj 145 717 - 1;
#X obj 109 835 list length;
#X obj 76 806 t l l;
#X obj 127 168 text define folders;
#X obj 104 433 text set folders 1e+10;
#X obj 101 540 text tolist folders;
#X obj 109 926 s \$0-set-folder;
#X obj 76 999 s \$0-set-folder-enum;
#X text 90 974 names of folders;
#X obj 240 348 print;
#X obj 103 304 makefilename %s/../samples/*/;
#X connect 0 0 10 0;
#X connect 1 0 5 0;
#X connect 2 0 29 0;
#X connect 3 0 2 0;
#X connect 4 0 22 0;
#X connect 5 0 23 0;
#X connect 6 0 7 0;
#X connect 7 0 25 0;
#X connect 10 2 12 0;
#X connect 10 3 3 0;
#X connect 10 4 4 0;
#X connect 11 0 21 0;
#X connect 12 0 11 0;
#X connect 12 1 24 0;
#X connect 12 2 11 1;
#X connect 13 0 14 0;
#X connect 14 1 15 0;
#X connect 15 0 17 0;
#X connect 16 0 19 0;
#X connect 17 0 18 0;
#X connect 17 1 16 0;
#X connect 18 0 11 0;
#X connect 19 0 18 1;
#X connect 20 0 6 0;
#X connect 21 0 26 0;
#X connect 21 1 20 0;
#X connect 24 0 13 0;
#X connect 29 0 1 0;
#X connect 29 0 28 0;
#X restore 659 793 pd load-folders;
#X f 17;
#X obj 156 1316 r~ \$0-get-gain;
#X obj 124 1347 *~, f 5;
#X obj 537 694 bng 19 250 50 0 empty empty empty 0 -10 0 12 #fcfcfc #000000 #000000;
#X obj 537 665 delay 100;
#X obj 60 29 declare -path ../bop.p;
#X obj 549 128 bop.p.inout \$0;
#X obj 715 96 r \$0-stop;
#X obj 729 118 r \$0-params;
#X obj 698 74 r \$0-dump;
#X obj 606 841 r \$0-get-folder;
#X obj 908 164 bop.p.param \$0 gain 1;
#X obj 908 121 bop.p.param \$0 folder 0;
#X obj 909 183 s~ \$0-get-gain;
#X obj 123 1269 readsf~, f 55;
#X msg 195 1159 print;
#X obj 423 1101 list prepend open;
#X obj 422 1129 list trim;
#X obj 1216 345 unpack, f 10;
#X obj 1143 317 r \$0-stop;
#X msg 1143 341 stop;
#X obj 1216 317 r \$0-midi;
#X obj 1216 383 poly 2 1, f 10;
#X obj 1216 543 route 1 2;
#X msg 1216 504 \$1 \$3 \$2;
#X text 1298 505 voice velocity pitch;
#X obj 123 584 pipe 50;
#X obj 186 1097 r \$0-stop;
#X msg 186 1121 stop;
#X obj 1216 465 pack f f f;
#X obj 123 111 r \$0-midi;
#X text 1300 427 TODO: two voices for x-fading;
#X msg 882 618 \$1 10;
#X obj 882 588 / 127;
#X obj 882 649 line~;
#X obj 124 1384 *~, f 110;
#X msg 123 511 \$2 \$1 \$2;
#X obj 123 545 unpack f f f, f 87;
#X obj 505 1339 s \$0-done;
#X msg 505 1307 done;
#X obj 566 167 r \$0-done;
#X obj 234 356 r \$0-num-samples;
#X obj 193 385 random;
#X obj 192 325 unpack, f 24;
#X obj 192 359 bng 19 250 50 0 empty empty empty 0 -10 0 12 #fcfcfc #000000 #000000;
#X obj 193 417 pack, f 24;
#X obj 125 175 list prepend;
#X obj 124 203 list trim;
#X obj 422 128 r \$0-num-samples;
#X msg 422 152 numsamples \$1;
#X obj 910 222 bop.p.param \$0 mode 0;
#X obj 206 142 r \$0-get-mode;
#X obj 124 232 route 0 1 2, f 56;
#X obj 448 404 bop.p.counter;
#X obj 446 308 unpack, f 22;
#X obj 448 449 pack, f 22;
#X text 245 291 mode 1: random;
#X text 481 279 mode 2: cycle;
#X obj 531 341 loadbang;
#X msg 534 369 0;
#X connect 1 0 0 0;
#X connect 1 1 20 0;
#X connect 3 0 14 0;
#X connect 5 0 11 0;
#X connect 6 0 18 0;
#X connect 7 0 30 0;
#X connect 7 1 8 0;
#X connect 9 0 11 0;
#X connect 9 1 10 0;
#X connect 9 2 3 0;
#X connect 10 0 5 0;
#X connect 11 0 7 1;
#X connect 12 0 5 0;
#X connect 15 0 16 1;
#X connect 16 0 49 0;
#X connect 17 0 9 0;
#X connect 18 0 17 0;
#X connect 20 0 2 0;
#X connect 24 0 12 0;
#X connect 25 0 27 0;
#X connect 28 0 16 0;
#X connect 28 1 53 0;
#X connect 29 0 28 0;
#X connect 30 0 31 0;
#X connect 31 0 28 0;
#X connect 32 0 36 0;
#X connect 32 1 36 1;
#X connect 33 0 34 0;
#X connect 34 0 36 0;
#X connect 35 0 32 0;
#X connect 36 0 43 0;
#X connect 36 1 43 1;
#X connect 36 2 43 2;
#X connect 38 0 37 0;
#X connect 40 0 28 0;
#X connect 41 0 42 0;
#X connect 42 0 28 0;
#X connect 43 0 38 0;
#X connect 44 0 60 0;
#X connect 46 0 48 0;
#X connect 47 0 46 0;
#X connect 48 0 49 1;
#X connect 49 0 0 0;
#X connect 50 0 51 0;
#X connect 51 0 40 0;
#X connect 51 1 7 0;
#X connect 51 2 47 0;
#X connect 53 0 52 0;
#X connect 54 0 2 0;
#X connect 55 0 56 1;
#X connect 56 0 59 0;
#X connect 57 0 58 0;
#X connect 57 1 59 1;
#X connect 58 0 56 0;
#X connect 59 0 50 0;
#X connect 60 0 61 0;
#X connect 61 0 66 0;
#X connect 62 0 63 0;
#X connect 63 0 2 0;
#X connect 65 0 60 1;
#X connect 66 0 50 0;
#X connect 66 1 57 0;
#X connect 66 2 68 0;
#X connect 67 0 69 0;
#X connect 68 0 67 0;
#X connect 68 1 69 1;
#X connect 69 0 50 0;
#X connect 72 0 73 0;
#X connect 73 0 67 1;
