#N canvas 0 37 1470 891 12;
#X declare -path ../bop.p;
#X obj 359 64 bop.p.param \$0 noteslider;
#X obj 39 91 inlet~, f 15;
#X obj 141 1382 outlet;
#X obj 42 221 outlet~;
#X obj 141 195 bop.p.inout \$0;
#X text 153 238 < MIDI and messages dump out of right, f 13;
#X text 151 121 < midi and messages;
#X obj 359 224 bop.p.param \$0 velocity 0.888;
#X obj 359 244 bop.p.param \$0 duration 0.444;
#X obj 47 35 declare -path ../bop.p;
#X obj 359 174 bop.p.param \$0 root 46;
#X obj 359 194 bop.p.param \$0 octaves 3;
#X obj 1266 259 text define \$0-chords;
#X msg 1266 228 read bop.p.chords.txt;
#X obj 946 79 loadbang;
#X obj 969 409 text sequence \$0-chords;
#X msg 969 378 line 0 \, bang;
#X obj 945 249 bng 19 250 50 0 empty empty empty 0 -10 0 12 #fcfcfc #000000 #000000;
#X obj 945 318 t b b b, f 18;
#X obj 956 473 bop.p.accum;
#X msg 969 442 \$1;
#X obj 1165 423 list split 1;
#X obj 1172 518 text define \$0-notes;
#X obj 1169 379 text sequence \$0-chords;
#X msg 1169 348 line 0 \, bang;
#X obj 1341 379 text delete \$0-notes;
#X obj 1158 249 bng 19 250 50 0 empty empty empty 0 -10 0 12 #fcfcfc #000000 #000000;
#X obj 1169 315 t b b, f 25;
#X obj 385 763 text get \$0-notes;
#X obj 513 333 r \$0-numnotes;
#X obj 355 325 r \$0-get-noteslider;
#X obj 513 364 - 1;
#X obj 948 112 bng 19 250 50 0 empty empty empty 0 -10 0 12 #fcfcfc #000000 #000000;
#X msg 1339 346 -1;
#X obj 420 913 list length;
#X obj 1206 459 text set \$0-notes 1e+10;
#X obj 420 949 s \$0-numnotes;
#X obj 355 524 int;
#X obj 355 548 change;
#X obj 374 1023 bop.p.nth, f 25;
#X floatatom 374 1047 5 0 0 0 - - - 0;
#X floatatom 384 729 5 0 0 0 - - - 0;
#X obj 357 636 t b f, f 28;
#X obj 553 1096 r \$0-get-duration;
#X obj 553 1120 pow 2;
#X obj 553 1144 * 5000;
#X obj 374 1248 makenote 127 100, f 26;
#X text 413 1134 < scale offset;
#X obj 394 1104 r \$0-get-root;
#X obj 373 1136 + 0;
#X obj 374 1335 pack;
#N canvas 42 117 783 792 scalemaker 0;
#X obj 241 100 inlet;
#X obj 265 757 outlet;
#X obj 311 322 bng 15 250 50 0 empty empty empty 17 7 0 10 #fcfcfc #000000 #000000;
#X floatatom 372 459 5 0 0 0 - - - 0;
#X obj 414 449 + 12;
#X obj 311 379 t b b;
#X obj 355 651 + 0;
#X msg 372 377 set 0;
#X obj 549 321 bng 15 250 50 0 empty empty empty 17 7 0 10 #fcfcfc #000000 #000000;
#X floatatom 241 179 5 0 0 0 - - - 0;
#X obj 241 205 t b f b, f 52;
#X msg 415 479 set \$1;
#X obj 310 284 until;
#X obj 278 576 bop.p.iter;
#X obj 81 47 inlet;
#X obj 81 113 t b l, f 8;
#X obj 241 124 int;
#X obj 291 469 list;
#X obj 265 704 bop.p.accum, f 45;
#X connect 0 0 16 0;
#X connect 2 0 5 0;
#X connect 3 0 4 0;
#X connect 3 0 6 1;
#X connect 4 0 11 0;
#X connect 5 0 17 0;
#X connect 5 1 3 0;
#X connect 6 0 18 0;
#X connect 7 0 3 0;
#X connect 8 0 7 0;
#X connect 9 0 10 0;
#X connect 10 0 18 0;
#X connect 10 1 12 0;
#X connect 10 2 8 0;
#X connect 10 2 18 1;
#X connect 11 0 3 0;
#X connect 12 0 2 0;
#X connect 13 0 6 0;
#X connect 14 0 15 0;
#X connect 15 0 9 0;
#X connect 15 1 17 1;
#X connect 16 0 9 0;
#X connect 17 0 13 0;
#X connect 18 0 1 0;
#X restore 391 861 pd scalemaker;
#X obj 417 812 r \$0-get-octaves;
#X obj 362 955 list;
#X obj 355 430 bop.p.scale 0 1 -0.05 5;
#X obj 355 463 moses 0;
#X obj 513 398 + 0.05;
#X obj 355 592 moses 0;
#X msg 355 493 -1;
#X text 451 498 handle high and low retriggering;
#X obj 384 669 r \$0-get-chord;
#X obj 410 1181 r \$0-get-velocity;
#X obj 410 1205 * 127;
#N canvas 793 309 625 571 shuffle 0;
#X obj 130 44 inlet;
#X obj 242 49 inlet;
#X obj 178 521 outlet;
#X obj 214 211 t f f;
#X obj 214 275 pack;
#X obj 212 241 % 2;
#X text 253 227 even = 0 \; odd = 1 \;;
#X obj 214 304 route 0 1;
#X obj 214 328 + 1;
#X obj 245 329 - 1;
#X obj 178 156 route 0 1;
#X obj 166 99 list prepend;
#X obj 212 188 + 1;
#X obj 337 77 inlet;
#X obj 214 376 -1;
#X obj 364 423 * -1;
#X obj 214 450 +;
#X obj 213 402 t f f;
#X obj 364 399 >=;
#X obj 364 447 - 1;
#X obj 217 488 max 0;
#X connect 0 0 11 0;
#X connect 1 0 11 1;
#X connect 3 0 5 0;
#X connect 3 1 4 1;
#X connect 4 0 7 0;
#X connect 5 0 4 0;
#X connect 7 0 8 0;
#X connect 7 1 9 0;
#X connect 8 0 14 0;
#X connect 9 0 14 0;
#X connect 10 0 2 0;
#X connect 10 1 12 0;
#X connect 11 0 10 0;
#X connect 12 0 3 0;
#X connect 13 0 18 1;
#X connect 14 0 17 0;
#X connect 15 0 19 0;
#X connect 16 0 20 0;
#X connect 17 0 16 0;
#X connect 17 1 18 0;
#X connect 18 0 15 0;
#X connect 19 0 16 1;
#X connect 20 0 2 0;
#X restore 553 828 pd shuffle;
#X obj 588 747 r \$0-get-shuffle;
#X obj 384 693 int;
#X text 1030 77 Read chords from texfile \; prepare notes for indexed access \; set enum label for ui \;;
#X obj 949 139 t b b b, f 47;
#X obj 552 1281 int;
#X obj 273 1183 r \$0-stop;
#X msg 273 1207 stop;
#X obj 729 122 bop.p.onlist;
#X text 740 148 LIST OF HELD NOTES;
#X listbox 729 175 20 0 0 0 - - - 0;
#X obj 729 79 r \$0-midi;
#X obj 876 666 list, f 14;
#X obj 881 790 print chord;
#X obj 881 746 bop.p.nth, f 18;
#X obj 874 564 r \$0-get-chord;
#X obj 874 588 int;
#X obj 876 617 t b f, f 19;
#X text 658 56 run off of frets or semisteps instead?;
#X obj 360 139 bop.p.param \$0 shuffle 1;
#X obj 566 64 loadbang;
#X obj 566 88 delay 10;
#X msg 566 112 chord 0;
#X obj 566 136 s \$0-params;
#X obj 359 94 bop.p.param \$0 chord;
#X text 594 858 todo: doubling bottom note \, not playing top one?;
#X obj 621 787 r \$0-numnotes;
#X obj 598 923 print INDEX;
#X connect 1 0 3 0;
#X connect 1 1 4 0;
#X connect 4 0 2 0;
#X connect 13 0 12 0;
#X connect 14 0 32 0;
#X connect 15 0 20 0;
#X connect 16 0 15 0;
#X connect 17 0 18 0;
#X connect 18 0 19 0;
#X connect 18 1 16 0;
#X connect 18 2 19 1;
#X connect 19 0 75 1;
#X connect 20 0 19 0;
#X connect 21 1 35 0;
#X connect 23 0 21 0;
#X connect 24 0 23 0;
#X connect 26 0 27 0;
#X connect 27 0 24 0;
#X connect 27 1 33 0;
#X connect 28 0 51 0;
#X connect 29 0 31 0;
#X connect 30 0 54 0;
#X connect 31 0 56 0;
#X connect 32 0 67 0;
#X connect 33 0 25 0;
#X connect 34 0 36 0;
#X connect 37 0 38 0;
#X connect 38 0 57 0;
#X connect 39 0 40 0;
#X connect 40 0 49 0;
#X connect 41 0 28 0;
#X connect 42 0 53 0;
#X connect 42 1 63 0;
#X connect 43 0 44 0;
#X connect 44 0 45 0;
#X connect 45 0 46 2;
#X connect 46 0 50 0;
#X connect 46 1 68 0;
#X connect 48 0 49 1;
#X connect 49 0 46 0;
#X connect 50 0 2 0;
#X connect 51 0 53 1;
#X connect 51 0 34 0;
#X connect 52 0 51 1;
#X connect 53 0 39 0;
#X connect 54 0 55 0;
#X connect 55 0 58 0;
#X connect 55 1 37 0;
#X connect 56 0 54 4;
#X connect 57 1 42 0;
#X connect 58 0 37 0;
#X connect 60 0 65 0;
#X connect 61 0 62 0;
#X connect 62 0 46 1;
#X connect 63 0 39 1;
#X connect 63 0 90 0;
#X connect 64 0 63 1;
#X connect 65 0 41 0;
#X connect 67 0 17 0;
#X connect 67 1 26 0;
#X connect 67 2 13 0;
#X connect 68 0 50 1;
#X connect 69 0 70 0;
#X connect 70 0 46 0;
#X connect 71 0 73 0;
#X connect 74 0 71 0;
#X connect 75 0 77 0;
#X connect 77 0 76 0;
#X connect 78 0 79 0;
#X connect 79 0 80 0;
#X connect 80 0 75 0;
#X connect 80 1 77 1;
#X connect 83 0 84 0;
#X connect 84 0 85 0;
#X connect 85 0 86 0;
#X connect 89 0 63 2;
#X coords 0 891 1 890 166 240 0;
