#N canvas 385 37 1085 891 12;
#X declare -path ../bop.p;
#X obj 79 151 inlet~, f 34;
#X obj 314 331 outlet;
#X obj 79 801 outlet~;
#X text 75 125 Signal \, MIDI \, and messages in left, f 36;
#X obj 314 245 bop.p.inout \$0;
#X obj 720 682 bop.p.param \$0 slide 0;
#X obj 772 498 bop.p.param \$0 q 0.5;
#X obj 552 642 bop.p.param \$0 gain 1;
#X obj 772 383 bop.p.param \$0 noise 0;
#X obj 723 642 bop.p.param \$0 mono 0;
#X obj 772 438 bop.p.param \$0 cutoff 2600;
#X obj 46 66 declare -path ../bop.p;
#X obj 188 481 route 1 2 3 4;
#X obj 188 520 bop.p.synth~ \$0;
#X obj 198 550 bop.p.synth~ \$0;
#X obj 208 579 bop.p.synth~ \$0;
#X obj 218 608 bop.p.synth~ \$0;
#X obj 314 411 r \$0-get-mono;
#X obj 185 441 bop.p.monopoly \$0 4;
#X obj 97 674 hip~ 5;
#X obj 79 728 +~;
#X obj 772 522 s~ \$0-get-q;
#X obj 772 462 s~ \$0-get-cutoff;
#X obj 772 407 s~ \$0-get-noise;
#X obj 552 666 s~ \$0-get-gain;
#X obj 523 385 bop.p.param \$0 attack 0.1;
#X obj 529 434 bop.p.param \$0 decay 0.3;
#X obj 532 472 bop.p.param \$0 sustain 0.7;
#X obj 541 514 bop.p.param \$0 release 0.2;
#X obj 526 99 bop.p.param \$0 osc1-tune 0;
#X obj 526 123 s~ \$0-get-osc1-tune;
#X obj 524 176 bop.p.param \$0 osc1-gain 1;
#X obj 524 200 s~ \$0-get-osc1-gain;
#X obj 522 261 bop.p.param \$0 osc1-puslewidth 0.5;
#X obj 795 99 bop.p.param \$0 osc2-tune 0;
#X obj 795 123 s~ \$0-get-osc2-tune;
#X obj 796 180 bop.p.param \$0 osc2-gain 1;
#X obj 796 204 s~ \$0-get-osc2-gain;
#X obj 791 257 bop.p.param \$0 osc2-puslewidth 0.5;
#X obj 791 281 s~ \$0-get-osc2-pulsewidth;
#X obj 522 285 s~ \$0-get-osc1-pulsewidth;
#X obj 187 396 r \$0-midi;
#X obj 259 33 r \$0-midi;
#X obj 340 32 r \$0-stop;
#X obj 415 32 r \$0-dump;
#X obj 490 32 r \$0-params;
#X obj 530 71 bop.p.param \$0 osc1-wave 1;
#X obj 793 70 bop.p.param \$0 osc2-wave 3;
#X obj 329 293 r \$0-out;
#X msg 474 879 list sine triangle saw pulse;
#X obj 477 906 bop.p.nth, f 32;
#X obj 479 845 t b f, f 33;
#X obj 473 809 r \$0-get-osc1-wave;
#X obj 477 930 list prepend osc1-wavename;
#X msg 731 877 list sine triangle saw pulse;
#X obj 734 904 bop.p.nth, f 32;
#X obj 736 843 t b f, f 33;
#X obj 730 807 r \$0-get-osc2-wave;
#X obj 734 928 list prepend osc2-wavename;
#X obj 477 1004 s \$0-out;
#X obj 478 967 list trim;
#X connect 0 0 20 0;
#X connect 0 1 4 0;
#X connect 4 0 1 0;
#X connect 6 0 21 0;
#X connect 7 0 24 0;
#X connect 8 0 23 0;
#X connect 10 0 22 0;
#X connect 12 0 13 0;
#X connect 12 1 14 0;
#X connect 12 2 15 0;
#X connect 12 3 16 0;
#X connect 13 0 19 0;
#X connect 14 0 19 0;
#X connect 15 0 19 0;
#X connect 16 0 19 0;
#X connect 17 0 18 1;
#X connect 18 0 12 0;
#X connect 19 0 20 1;
#X connect 20 0 2 0;
#X connect 29 0 30 0;
#X connect 31 0 32 0;
#X connect 33 0 40 0;
#X connect 34 0 35 0;
#X connect 36 0 37 0;
#X connect 38 0 39 0;
#X connect 41 0 18 0;
#X connect 48 0 1 0;
#X connect 49 0 50 0;
#X connect 50 0 53 0;
#X connect 51 0 49 0;
#X connect 51 1 50 1;
#X connect 52 0 51 0;
#X connect 53 0 60 0;
#X connect 54 0 55 0;
#X connect 55 0 58 0;
#X connect 56 0 54 0;
#X connect 56 1 55 1;
#X connect 57 0 56 0;
#X connect 58 0 60 0;
#X connect 60 0 59 0;
#X coords 0 891 1 890 322 280 0;
