#N canvas 52 85 1337 739 12;
#X declare -path ./bop.p;
#X text 549 149 \$1: parent \$0;
#X text 548 168 \$2: label;
#X text 548 129 arguments:;
#X floatatom 320 447 5 0 0 0 - - - 0;
#X msg 63 405 0.5;
#X obj 63 442 s \$0-set-thisParam;
#X obj 320 413 r \$0-get-thisParam;
#X obj 1062 101 savestate, f 17;
#X obj 1061 74 bop.p.autosave \$0;
#X obj 511 521 r~ \$0-get-thisParam;
#X obj 908 171 inlet~, f 34;
#X obj 1143 351 outlet;
#X text 1143 388 MIDI and messages dump out of right, f 13;
#X obj 908 361 outlet~;
#X text 898 389 Signal out of left, f 9;
#X text 904 145 Signal \, MIDI \, and messages in left, f 36;
#X text 58 378 params can be set or get by name as float or signal;
#N canvas 237 274 450 300 fakeModule 0;
#X obj 80 46 inlet~;
#X obj 115 99 bop.p.inout \$0;
#X connect 0 1 1 0;
#X restore 511 464 pd fakeModule;
#X obj 514 587 *~;
#X obj 527 560 noise~;
#X obj 514 680 dac~;
#X obj 514 626 *~ 0.05;
#X text 645 376 when setting from outside \, an additional slew time is available, f 25;
#X text 592 594 access slewed parameters with [r~ \$0-get-*] for smooth interpolation, f 30;
#X obj 1143 265 bop.p.inout \$0;
#X obj 875 86 declare -path ./bop.p;
#X text 1207 27 GOP width: 166;
#X obj 1011 235 r \$0-midi-in;
#X obj 1010 313 s \$0-midi-out;
#X obj 110 190 bop.p.number \$0 thisNumber 7;
#X text 549 188 \$3: default value;
#X obj 110 130 bop.p.param \$0 thisParam 0.5;
#X obj 110 160 bop.p.toggle \$0 thisTog 1;
#X obj 110 220 bop.p.enum \$0 thisNumber;
#X msg 70 646 list itemOne itemTwo;
#X obj 70 680 s \$0-set-thisNumber-enum;
#X msg 68 561 range -3 7;
#X obj 68 595 s \$0-set-thisNumber;
#X text 64 536 GUI elements can be configured via messages on load;
#N canvas 382 419 450 300 do-the-thing 0;
#X obj 154 185 outlet~;
#X obj 152 122 inlet~;
#X obj 313 82 inlet;
#X obj 315 192 outlet;
#X connect 1 0 0 0;
#X connect 2 0 3 0;
#X restore 908 272 pd do-the-thing;
#X text 273 130 [bop.p.param \$0 thisParam 0.5];
#X text 272 163 [bop.p.toggle \$0 thisTog 1];
#X text 272 192 [bop.p.number \$0 thisNumber 0.5];
#X text 272 223 [bop.p.enum \$0 thisNumber] (binds to enum to provide menu list), f 65;
#X text 108 42 bop.p provides smart GUI abstractions along with other useful things., f 72;
#X text 27 339 ------------------------------ PARAMETERS -----------------------------------------------------------------------, f 114;
#X text 868 27 ---------- bop.p module template -------------;
#X msg 511 398 thisParam 1 3000;
#X msg 533 432 thisParam 0 100;
#X obj 110 251 bop.p.button \$0 thisBut;
#X text 272 259 [bop.p.button \$0 thisBut] (no default \, savestate \, or easing);
#X text 72 295 (right-click & open UI elements);
#X connect 4 0 5 0;
#X connect 6 0 3 0;
#X connect 7 0 8 1;
#X connect 7 1 8 0;
#X connect 8 0 7 0;
#X connect 9 0 18 0;
#X connect 10 0 39 0;
#X connect 10 1 24 0;
#X connect 18 0 21 0;
#X connect 19 0 18 1;
#X connect 21 0 20 0;
#X connect 21 0 20 1;
#X connect 24 0 11 0;
#X connect 27 0 39 1;
#X connect 34 0 35 0;
#X connect 36 0 37 0;
#X connect 39 0 13 0;
#X connect 39 1 28 0;
#X connect 47 0 17 0;
#X connect 48 0 17 0;
#X coords 0 739 1 738 166 150 0;
