#N canvas 52 85 1324 801 12;
#X declare -path ./bop.p;
#X text 549 151 \$1: parent \$0;
#X text 548 170 \$2: label;
#X text 548 131 arguments:;
#X floatatom 320 479 5 0 0 0 - - - 0;
#X msg 63 437 0.5;
#X obj 63 474 s \$0-set-thisParam;
#X obj 320 445 r \$0-get-thisParam;
#X obj 1102 123 savestate, f 17;
#X obj 1101 96 bop.p.autosave \$0;
#X obj 511 553 r~ \$0-get-thisParam;
#X obj 948 193 inlet~, f 34;
#X obj 1183 373 outlet;
#X text 1183 410 MIDI and messages dump out of right, f 13;
#X obj 948 383 outlet~;
#X text 938 411 Signal out of left, f 9;
#X text 944 167 Signal \, MIDI \, and messages in left, f 36;
#X text 58 410 params can be set or get by name as float or signal;
#N canvas 237 274 450 300 fakeModule 0;
#X obj 80 46 inlet~;
#X obj 115 99 bop.p.inout \$0;
#X connect 0 1 1 0;
#X restore 511 516 pd fakeModule;
#X obj 514 619 *~;
#X obj 527 592 noise~;
#X obj 514 712 dac~;
#X obj 514 658 *~ 0.05;
#X text 645 408 when setting from outside \, an additional slew time is available, f 25;
#X text 592 626 access slewed parameters with [r~ \$0-get-*] for smooth interpolation, f 30;
#X obj 1183 287 bop.p.inout \$0;
#X obj 915 108 declare -path ./bop.p;
#X obj 1051 257 r \$0-midi-in;
#X obj 1050 335 s \$0-midi-out;
#X obj 110 192 bop.p.number \$0 thisNumber 7;
#X text 549 190 \$3: default value;
#X obj 110 132 bop.p.param \$0 thisParam 0.5;
#X obj 110 162 bop.p.toggle \$0 thisTog 1;
#X obj 110 222 bop.p.enum \$0 thisNumber;
#X msg 70 678 list itemOne itemTwo;
#X obj 70 712 s \$0-set-thisNumber-enum;
#X obj 68 627 s \$0-set-thisNumber;
#N canvas 382 419 450 300 do-the-thing 0;
#X obj 113 195 outlet~;
#X obj 112 82 inlet~;
#X obj 313 82 inlet;
#X obj 315 192 outlet;
#X text 163 136 BUILD MODULE HERE;
#X connect 1 0 0 0;
#X connect 2 0 3 0;
#X restore 948 294 pd do-the-thing;
#X text 272 165 [bop.p.toggle \$0 thisTog 1];
#X text 272 194 [bop.p.number \$0 thisNumber 0.5];
#X text 108 44 bop.p provides smart GUI abstractions along with other useful things., f 72;
#X text 27 371 ------------------------------ PARAMETERS -----------------------------------------------------------------------, f 114;
#X obj 110 253 bop.p.button \$0 thisBut;
#X text 272 261 [bop.p.button \$0 thisBut] (no default \, savestate \, or easing);
#X text 92 87 (right-click & open UI elements);
#X obj 533 457 loadbang;
#X msg 511 430 thisParam 1 100;
#X msg 533 484 thisParam 0 3000;
#X text 998 498 (Standard GOP width: 166);
#X text 64 568 GUI elements can be configured via sends;
#X text 929 21 ---------- bop module template -------------;
#X text 273 132 [bop.p.param \$0 thisParam 0.0];
#X text 926 565 -----------GLOBAL MESSAGES------------------;
#X msg 938 619 stop;
#X text 1010 662 output all params from right outlet;
#X text 935 589 TODO....;
#X obj 110 283 bop.p.list \$0 thisList;
#X text 273 298 [bop.p.list \$0 thisList] (no default or easing);
#X text 982 618 flush hanging midi notes \, stop automation;
#X text 272 225 [bop.p.enum \$0 thisNumber] (binds to number to provide menu list), f 65;
#X msg 68 593 range 0 3;
#N canvas 629 155 451 584 print-bop.p-objects 0;
#X obj 203 280 file glob;
#X obj 201 123 pdcontrol;
#X msg 201 95 dir;
#X obj 202 242 makefilename %s/bop.p/*;
#X obj 203 304 file split;
#X obj 235 371 list length;
#X obj 203 328 t l l;
#X obj 198 417 list split;
#X obj 235 395 - 1;
#X obj 231 499 print;
#X msg 231 449 \$1;
#X obj 202 31 inlet;
#X connect 0 0 4 0;
#X connect 1 0 3 0;
#X connect 2 0 1 0;
#X connect 3 0 0 0;
#X connect 4 0 6 0;
#X connect 5 0 8 0;
#X connect 6 0 7 0;
#X connect 6 1 5 0;
#X connect 7 1 10 0;
#X connect 8 0 7 1;
#X connect 10 0 9 0;
#X connect 11 0 2 0;
#X restore 636 85 pd print-bop.p-objects;
#X obj 636 46 bng 19 250 50 0 empty empty empty 0 -10 0 12 #fcfcfc #000000 #000000;
#X msg 938 663 dump;
#X connect 4 0 5 0;
#X connect 6 0 3 0;
#X connect 7 0 8 1;
#X connect 7 1 8 0;
#X connect 8 0 7 0;
#X connect 9 0 18 0;
#X connect 10 0 36 0;
#X connect 10 1 24 0;
#X connect 18 0 21 0;
#X connect 19 0 18 1;
#X connect 21 0 20 0;
#X connect 21 0 20 1;
#X connect 24 0 11 0;
#X connect 26 0 36 1;
#X connect 33 0 34 0;
#X connect 36 0 13 0;
#X connect 36 1 27 0;
#X connect 44 0 46 0;
#X connect 45 0 17 0;
#X connect 46 0 17 0;
#X connect 59 0 35 0;
#X connect 61 0 60 0;
#X coords 0 801 1 800 166 150 0;
