#N canvas 98 85 1373 811 12;
#X declare -path ./bop.p;
#X text 549 161 \$1: parent \$0;
#X text 548 180 \$2: label;
#X text 548 141 arguments:;
#X floatatom 583 724 5 0 0 0 - - - 0;
#X msg 63 447 0.5;
#X obj 63 484 s \$0-set-thisParam;
#X obj 583 690 r \$0-get-thisParam;
#X obj 1102 113 savestate, f 17;
#X obj 1101 86 bop.p.autosave \$0;
#X obj 463 601 r~ \$0-get-thisParam;
#X obj 948 203 inlet~, f 34;
#X obj 1183 383 outlet;
#X text 1183 420 MIDI and messages dump out of right, f 13;
#X obj 948 393 outlet~;
#X text 938 421 Signal out of left, f 9;
#X text 944 177 Signal \, MIDI \, and messages in left, f 36;
#X text 56 413 params can be set or get by name as float or signal;
#N canvas 237 274 450 300 fakeModule 0;
#X obj 80 46 inlet~;
#X obj 115 99 bop.p.inout \$0;
#X connect 0 1 1 0;
#X restore 469 529 pd fakeModule;
#X obj 466 667 *~;
#X obj 479 640 noise~;
#X obj 466 760 dac~;
#X obj 1183 297 bop.p.inout \$0;
#X obj 915 98 declare -path ./bop.p;
#X obj 1051 267 r \$0-midi-in;
#X obj 1050 345 s \$0-midi-out;
#X obj 110 202 bop.p.number \$0 thisNumber 7;
#X text 549 200 \$3: default value;
#X obj 110 142 bop.p.param \$0 thisParam 0.5;
#X obj 110 172 bop.p.toggle \$0 thisTog 1;
#X obj 110 232 bop.p.enum \$0 thisNumber;
#X msg 57 712 list itemOne itemTwo;
#X obj 57 746 s \$0-set-thisNumber-enum;
#X obj 55 659 s \$0-set-thisNumber;
#N canvas 382 419 450 300 do-the-thing 0;
#X obj 113 195 outlet~;
#X obj 112 82 inlet~;
#X obj 313 82 inlet;
#X obj 315 192 outlet;
#X text 163 136 BUILD MODULE HERE;
#X connect 1 0 0 0;
#X connect 2 0 3 0;
#X restore 948 304 pd do-the-thing;
#X text 272 175 [bop.p.toggle \$0 thisTog 1];
#X text 272 204 [bop.p.number \$0 thisNumber 0.5];
#X text 108 54 bop.p provides smart GUI abstractions along with other useful things., f 72;
#X text 27 381 ------------------------------ PARAMETERS -----------------------------------------------------------------------, f 114;
#X obj 110 263 bop.p.button \$0 thisBut;
#X text 272 271 [bop.p.button \$0 thisBut] (no default \, savestate \, or easing);
#X text 92 97 (right-click & open UI elements);
#X obj 491 470 loadbang;
#X msg 469 443 thisParam 1 100;
#X msg 491 497 thisParam 0 3000;
#X text 998 508 (Standard GOP width: 166);
#X text 929 31 ---------- bop module template -------------;
#X text 273 142 [bop.p.param \$0 thisParam 0.0];
#X text 926 575 -----------GLOBAL MESSAGES------------------;
#X msg 938 629 stop;
#X text 1010 672 output all params from right outlet;
#X text 935 599 TODO....;
#X obj 110 293 bop.p.list \$0 thisList;
#X text 273 308 [bop.p.list \$0 thisList] (no default or easing);
#X text 982 628 flush hanging midi notes \, stop automation;
#X text 272 235 [bop.p.enum \$0 thisNumber] (binds to number to provide menu list), f 65;
#X msg 55 625 range 0 3;
#X msg 938 673 dump;
#X obj 54 537 bop.p.bline~;
#X obj 466 706 *~ 0.2;
#X text 595 433 params accept lists \; end \, milliseconds \; start \, end \, milliseconds \;, f 27;
#X text 580 664 or [r \$0-get-*] for control rate;
#X text 616 593 access parameters with [r~ \$0-get-*] for signal rate, f 30;
#X text 51 600 GUI elements can be configured via their sends;
#X text 180 531 < parameters uses this abstraction internally for automation..., f 27;
#X connect 4 0 5 0;
#X connect 6 0 3 0;
#X connect 7 0 8 1;
#X connect 7 1 8 0;
#X connect 8 0 7 0;
#X connect 9 0 18 0;
#X connect 10 0 33 0;
#X connect 10 1 21 0;
#X connect 18 0 58 0;
#X connect 19 0 18 1;
#X connect 21 0 11 0;
#X connect 23 0 33 1;
#X connect 30 0 31 0;
#X connect 33 0 13 0;
#X connect 33 1 24 0;
#X connect 41 0 43 0;
#X connect 42 0 17 0;
#X connect 43 0 17 0;
#X connect 55 0 32 0;
#X connect 58 0 20 0;
#X connect 58 0 20 1;
#X coords 0 811 1 810 166 150 0;
