#N canvas 109 87 1083 659 12;
#X obj 247 -6 inlet;
#X text 528 346 prepare message for vline;
#X obj 389 606 list length;
#X obj 301 631 list prepend, f 13;
#X obj 301 666 t l l;
#X msg 383 704 \$1;
#X obj 383 728 % 2;
#X obj 302 755 list prepend;
#X obj 301 795 route 0 1;
#X obj 301 866 list split 1;
#X obj 328 836 print even number of arguments required for param;
#X text 456 815 odd number of arguments errors;
#X text 528 369 messages come in as a list of value duration pairs;
#X text 527 391 odd list lengths error out;
#X obj 341 1072 bop.p.iter;
#X msg 422 1031 1;
#X obj 445 1130 tgl 19 0 empty empty empty 0 -10 0 12 #fcfcfc #000000 #000000 0 1;
#X text 1205 2538 comment;
#X obj 364 1161 list prepend;
#X obj 364 1194 route 0 1, f 12;
#X obj 341 1102 t b f b;
#X obj 341 1031 t l b;
#X obj 364 1227 pack;
#X text 523 411 stop current message cue;
#X text 403 1229 value duration;
#X msg 545 1319 0;
#X obj 432 1517 list append;
#X msg 364 1296 \$2;
#X obj 506 1408 f;
#X obj 364 1266 t l l b, f 20;
#X obj 506 1482 +;
#X obj 506 1442 t f b;
#X obj 545 1482 f;
#X obj 341 962 t b l b, f 26;
#X obj 364 1381 +;
#X obj 396 1381 f;
#X obj 364 1350 t f b;
#X obj 201 1459 f;
#X text 244 1459 total duration;
#X obj 296 315 delay;
#X obj 296 283 t b f;
#X obj 296 350 bng 19 250 50 0 empty empty empty 0 -10 0 12 #fcfcfc #000000 #000000;
#X text 134 -57 bang retriggers last list \, stop cancels delay;
#X obj 193 478 s \$0-stop;
#X msg 194 450 stop;
#X obj 461 1594 r \$0-stop;
#X obj 262 222 r \$0-stop;
#X obj 274 1486 r \$0-loop;
#X obj 193 1533 spigot;
#X obj 343 516 s \$0-stop;
#X msg 344 488 stop;
#X obj 574 16 inlet;
#X text 574 -10 looped messages;
#X text 241 -28 oneshot messages;
#X obj 301 577 t l l b b, f 30;
#X obj 289 110 s \$0-loop;
#X msg 289 69 0;
#X obj 281 456 list;
#X obj 246 134 s \$0-input;
#X obj 247 187 r \$0-input;
#X obj 247 28 t a b;
#X obj 619 131 s \$0-loop;
#X obj 576 155 s \$0-input;
#X obj 577 49 t a b;
#X msg 619 90 1;
#X obj 395 439 s \$0-float;
#X obj 468 1634 r \$0-float;
#X obj 141 1605 pack f f, f 25;
#X msg 141 1653 duration \$1 \$2;
#X msg 468 1668 \$1 \, duration 0 0;
#X text 424 1755 duration message is (duration \, loop-bool);
#X obj 404 1780 route duration, f 37;
#X obj 660 2079 vline~;
#X obj 552 2370 snapshot~;
#X obj 329 2064 pipe;
#X msg 285 2097 0;
#X obj 384 1962 t b f b;
#X msg 425 2048 1;
#X obj 285 1836 r \$0-stop;
#X msg 331 1930 clear;
#X obj 285 1900 t b b, f 7;
#X obj 490 2274 metro 100;
#X msg 404 1882 \$2 \$1;
#X obj 553 2420 outlet float;
#X obj 657 2419 outlet~ signal;
#X obj 323 415 t l b;
#X obj 193 1562 s \$0-schedule-loop;
#X obj 296 251 r \$0-schedule-loop;
#X msg 477 2052 0;
#X obj 671 86 bng 19 250 50 0 empty empty empty 0 -10 0 12 #fcfcfc #000000 #000000;
#X obj 404 1926 route 1 0, f 17;
#X text 467 1875 0 = noloop/float \; 1 = loop \;;
#X obj 356 2124 print;
#X obj 440 2015 bng 19 250 50 0 empty empty empty 0 -10 0 12 #fcfcfc #000000 #000000;
#X obj 432 2188 tgl 19 0 empty empty empty 0 -10 0 12 #fcfcfc #000000 #000000 0 1;
#X obj 299 1864 bng 19 250 50 0 empty empty empty 0 -10 0 12 #fcfcfc #000000 #000000;
#X obj 247 383 route stop bang list float;
#X listbox 686 1824 20 0 0 0 - - - 0;
#X connect 0 0 60 0;
#X connect 2 0 3 1;
#X connect 3 0 4 0;
#X connect 4 0 7 0;
#X connect 4 1 5 0;
#X connect 5 0 6 0;
#X connect 6 0 7 1;
#X connect 7 0 8 0;
#X connect 8 0 9 0;
#X connect 8 1 10 0;
#X connect 9 1 33 0;
#X connect 14 0 20 0;
#X connect 15 0 16 0;
#X connect 16 0 18 1;
#X connect 18 0 19 0;
#X connect 19 0 22 0;
#X connect 19 1 22 1;
#X connect 20 1 18 0;
#X connect 20 2 16 0;
#X connect 21 0 14 0;
#X connect 21 1 15 0;
#X connect 22 0 29 0;
#X connect 25 0 28 1;
#X connect 25 0 32 1;
#X connect 25 0 35 1;
#X connect 26 0 71 0;
#X connect 27 0 28 1;
#X connect 27 0 36 0;
#X connect 28 0 31 0;
#X connect 29 0 27 0;
#X connect 29 1 26 0;
#X connect 29 2 28 0;
#X connect 30 0 26 1;
#X connect 30 0 32 1;
#X connect 31 0 30 0;
#X connect 31 1 32 0;
#X connect 32 0 30 1;
#X connect 33 0 37 0;
#X connect 33 1 21 0;
#X connect 33 2 25 0;
#X connect 34 0 35 1;
#X connect 34 0 37 1;
#X connect 35 0 34 1;
#X connect 36 0 34 0;
#X connect 36 1 35 0;
#X connect 37 0 48 0;
#X connect 37 0 67 0;
#X connect 39 0 41 0;
#X connect 40 0 39 0;
#X connect 40 1 39 1;
#X connect 41 0 96 0;
#X connect 44 0 43 0;
#X connect 45 0 71 0;
#X connect 46 0 39 0;
#X connect 47 0 48 1;
#X connect 47 0 67 1;
#X connect 48 0 86 0;
#X connect 50 0 49 0;
#X connect 51 0 63 0;
#X connect 54 0 3 0;
#X connect 54 1 2 0;
#X connect 56 0 55 0;
#X connect 57 0 54 0;
#X connect 59 0 96 0;
#X connect 60 0 58 0;
#X connect 60 1 56 0;
#X connect 63 0 62 0;
#X connect 63 1 64 0;
#X connect 63 1 89 0;
#X connect 64 0 61 0;
#X connect 66 0 69 0;
#X connect 67 0 68 0;
#X connect 68 0 71 0;
#X connect 69 0 71 0;
#X connect 71 0 82 0;
#X connect 71 1 72 0;
#X connect 71 1 97 0;
#X connect 72 0 84 0;
#X connect 72 0 73 0;
#X connect 73 0 83 0;
#X connect 74 0 75 0;
#X connect 75 0 92 0;
#X connect 75 0 94 0;
#X connect 76 0 74 0;
#X connect 76 1 74 1;
#X connect 76 2 77 0;
#X connect 76 2 93 0;
#X connect 77 0 94 0;
#X connect 78 0 80 0;
#X connect 79 0 74 0;
#X connect 80 0 75 0;
#X connect 80 1 79 0;
#X connect 81 0 73 0;
#X connect 82 0 90 0;
#X connect 85 0 57 1;
#X connect 85 0 54 0;
#X connect 85 1 50 0;
#X connect 87 0 40 0;
#X connect 90 0 76 0;
#X connect 90 1 88 0;
#X connect 94 0 81 0;
#X connect 95 0 80 0;
#X connect 96 0 44 0;
#X connect 96 1 57 0;
#X connect 96 2 85 0;
#X connect 96 3 65 0;
