#N canvas 159 510 487 375 12;
#X obj 101 101 cnv 15 144 18 empty \$0-label waiting... 3 10 0 12 #e3c6ff #ffffff 0;
#X text 94 218 \$1: parent \$0;
#X text 93 198 arguments:;
#X obj 307 97 r \$1-enum-\$2;
#X msg 307 160 label \$1;
#X obj 307 233 s \$0-label;
#X text 93 237 \$2: label of target param;
#X connect 3 0 4 0;
#X connect 4 0 5 0;
#X coords 0 -1 1 1 146 20 2 100 100;
