#N canvas 287 147 800 624 12;
#X text 476 77 \$1: parent \$0;
#X text 475 96 \$2: label;
#X text 475 57 arguments:;
#X text 116 127 route based on param name;
#X text 118 91 receives params from parent module;
#X obj 494 266 loadbang;
#X obj 495 456 f \$3;
#X obj 23 92 r \$1-params;
#X obj 23 126 route \$2;
#X obj 23 273 outlet;
#X obj 202 210 route bang;
#X obj 202 300 list trim;
#X obj 76 273 s \$1-get-\$2;
#X obj 494 323 pdcontrol;
#X msg 494 297 args 0;
#X obj 494 353 list length;
#X obj 494 378 >= 3;
#X obj 494 402 sel 1;
#X obj 494 426 bng 19 250 50 0 empty empty empty 0 -10 0 12 #fcfcfc #000000 #000000;
#X text 307 182 stop dump from parent;
#X obj 202 243 symbol \$2, f 14;
#X obj 202 269 list prepend msg;
#X obj 23 183 bng 19 250 50 0 empty empty empty 0 -10 0 12 #fcfcfc #000000 #000000;
#X obj 23 220 t b b, f 8;
#X text 474 226 \$3: bool do loadbang?;
#X text 18 53 sends bang to named receive when msg matches param label;
#X text 471 203 maybe....;
#X obj 202 185 r \$1-get-dump;
#X obj 202 330 s \$1-get-dump;
#X connect 7 0 8 0;
#X connect 8 0 22 0;
#X connect 10 0 20 0;
#X connect 11 0 28 0;
#X connect 13 0 15 0;
#X connect 14 0 13 0;
#X connect 15 0 16 0;
#X connect 16 0 17 0;
#X connect 17 0 18 0;
#X connect 18 0 6 0;
#X connect 20 0 21 0;
#X connect 21 0 11 0;
#X connect 22 0 23 0;
#X connect 23 0 9 0;
#X connect 23 1 12 0;
#X connect 27 0 10 0;
#X coords 0 624 1 623 146 20 0;
