#N canvas 542 73 441 782 12;
#X obj 170 29 inlet;
#X obj 202 125 list length;
#X obj 170 85 t l l;
#X obj 138 534 list trim;
#X obj 42 32 inlet;
#X obj 42 238 int;
#X obj 42 626 outlet;
#X obj 170 58 list;
#X obj 138 401 list, f 5;
#X obj 42 204 clip;
#X obj 138 437 bop.p.nth;
#X obj 202 153 - 1;
#X obj 42 277 change;
#X obj 42 315 t f f b f, f 21;
#X obj 138 566 s \$1-params;
#X obj 138 470 list prepend \$2;
#X obj 138 499 list prepend enum;
#X obj 280 438 route bang;
#X obj 280 413 r \$1-dump;
#X obj 280 471 list;
#X obj 280 569 list trim;
#X obj 280 505 list prepend \$2;
#X obj 280 534 list prepend enum;
#X obj 280 601 s \$1-dump;
#X connect 0 0 7 0;
#X connect 1 0 11 0;
#X connect 2 0 8 1;
#X connect 2 1 1 0;
#X connect 3 0 14 0;
#X connect 4 0 9 0;
#X connect 5 0 12 0;
#X connect 7 0 2 0;
#X connect 8 0 10 0;
#X connect 9 0 5 0;
#X connect 10 0 15 0;
#X connect 10 0 19 1;
#X connect 11 0 9 2;
#X connect 12 0 13 0;
#X connect 13 0 6 0;
#X connect 13 2 8 0;
#X connect 13 3 10 1;
#X connect 15 0 16 0;
#X connect 16 0 3 0;
#X connect 17 0 19 0;
#X connect 18 0 17 0;
#X connect 19 0 21 0;
#X connect 20 0 23 0;
#X connect 21 0 22 0;
#X connect 22 0 20 0;
#X coords 0 782 1 781 146 20 0;
