#N canvas 35 213 809 681 12;
#X obj 85 493 outlet~;
#X obj 85 139 inlet~;
#X obj 154 258 expr if($f1 == 0 \, 1e+09 \, 1/$f1);
#X obj 435 258 expr if($f1 == 0 \, 1e+09 \, 1/$f1);
#X obj 442 139 inlet slide-down;
#X obj 161 139 inlet slide-up;
#X obj 85 443 slop~ 1e+09 1e+09 0 1e+09 0, f 63;
#X obj 185 352 samplerate~;
#X obj 153 386 /, f 5;
#X obj 153 327 t f b;
#X floatatom 153 297 5 0 0 0 - - - 0;
#X obj 467 352 samplerate~;
#X obj 435 386 /, f 5;
#X obj 435 327 t f b;
#X floatatom 435 297 5 0 0 0 - - - 0;
#X text 233 56 similar to [slide~] in Max \; arguments in seconds (accuracy not tested) \;;
#X connect 1 0 6 0;
#X connect 2 0 10 0;
#X connect 3 0 14 0;
#X connect 4 0 2 0;
#X connect 5 0 3 0;
#X connect 6 0 0 0;
#X connect 7 0 8 1;
#X connect 8 0 6 2;
#X connect 9 0 8 0;
#X connect 9 1 7 0;
#X connect 10 0 9 0;
#X connect 11 0 12 1;
#X connect 12 0 6 4;
#X connect 13 0 12 0;
#X connect 13 1 11 0;
#X connect 14 0 13 0;
