#N canvas 595 325 845 603 12;
#X obj 169 25 inlet;
#X obj 168 559 outlet;
#X obj 312 476 outlet;
#X obj 312 176 f;
#X obj 347 176 + 1;
#X obj 312 138 bng 19 250 50 0 empty empty empty 0 -10 0 12 #fcfcfc #000000 #000000;
#X obj 312 314 sel 1;
#X obj 312 338 t b b, f 22;
#X msg 462 112 0;
#X obj 329 236 - 1;
#X obj 185 250 sel 0;
#X obj 591 424 spigot;
#X msg 591 344 step \$1 \$2;
#X obj 591 320 pack, f 6;
#X obj 185 274 s \$1-set-step-\$2;
#X obj 591 245 r \$1-get-step-\$2;
#X obj 630 276 r \$1-get-value-\$2;
#X obj 591 283 f \$2;
#X obj 329 212 r \$1-get-beats-\$2;
#X obj 630 390 r \$1-get-enable-\$2;
#X obj 462 80 r \$1-reset;
#X obj 378 45 inlet enable;
#X obj 311 95 spigot, f 10;
#X msg 312 421 1;
#X obj 169 61 t b b, f 21;
#X obj 591 458 s \$1-steps;
#X obj 312 270 >, f 10;
#X obj 378 72 tgl 19 0 empty empty empty 0 -10 0 12 #fcfcfc #000000 #000000 0 1;
#X floatatom 272 200 5 0 0 0 - - - 0;
#X connect 0 0 24 0;
#X connect 3 0 4 0;
#X connect 3 0 10 0;
#X connect 3 0 26 0;
#X connect 3 0 28 0;
#X connect 4 0 3 1;
#X connect 5 0 3 0;
#X connect 6 0 7 0;
#X connect 7 0 23 0;
#X connect 7 1 8 0;
#X connect 8 0 3 1;
#X connect 8 0 22 1;
#X connect 9 0 26 1;
#X connect 10 0 14 0;
#X connect 11 0 25 0;
#X connect 12 0 11 0;
#X connect 13 0 12 0;
#X connect 15 0 17 0;
#X connect 16 0 13 1;
#X connect 17 0 13 0;
#X connect 18 0 9 0;
#X connect 19 0 11 1;
#X connect 20 0 8 0;
#X connect 21 0 27 0;
#X connect 22 0 5 0;
#X connect 23 0 2 0;
#X connect 24 0 1 0;
#X connect 24 1 22 0;
#X connect 26 0 6 0;
#X connect 27 0 22 1;
