#N canvas 425 140 776 567 12;
#X obj 107 75 inlet;
#X text 53 9 recieves messages from parent patcher \, provides forwarding and saving for param \, toggle \, number;
#X obj 188 235 s \$1-stop;
#X obj 188 201 bng 19 250 50 0 empty empty empty 0 -10 0 12 #fcfcfc #000000 #000000;
#X obj 188 170 route stop dump, f 22;
#X obj 263 265 s \$1-dump;
#X obj 263 231 bng 19 250 50 0 empty empty empty 0 -10 0 12 #fcfcfc #000000 #000000;
#X obj 107 120 route list, f 12;
#X obj 340 471 s, f 11;
#X obj 414 347 list split 1;
#X obj 340 299 t b l, f 11;
#X obj 340 266 list;
#X obj 340 407 list;
#X obj 340 434 list trim;
#X obj 414 403 list prepend \$1;
#X msg 414 434 symbol \$1-get-\$2;
#X obj 107 273 s \$1-midi;
#X obj 491 210 route bang;
#X obj 491 177 r \$1-dump;
#X text 489 139 Output all params on dump, f 16;
#X obj 491 299 s \$1-params;
#X text 388 161 Forward all incoming params, f 10;
#X text 232 435 Forward parameter messages to bop.p.param objects, f 13;
#X obj 613 287 list prepend dump;
#X obj 613 311 list trim;
#X obj 273 204 loadbang;
#X text 208 294 dump at loadbang to send defaults to gui, f 16;
#X obj 614 369 outlet;
#X obj 37 460 outlet;
#X text 18 155 passthrough;
#X text 627 408 dump;
#X msg 80 365 stop;
#X connect 0 0 7 0;
#X connect 3 0 2 0;
#X connect 4 0 3 0;
#X connect 4 0 31 0;
#X connect 4 1 6 0;
#X connect 4 2 11 0;
#X connect 4 2 20 0;
#X connect 4 2 28 0;
#X connect 6 0 5 0;
#X connect 7 0 16 0;
#X connect 7 0 28 0;
#X connect 7 1 4 0;
#X connect 9 0 14 0;
#X connect 9 1 12 1;
#X connect 10 0 12 0;
#X connect 10 1 9 0;
#X connect 11 0 10 0;
#X connect 12 0 13 0;
#X connect 13 0 8 0;
#X connect 14 0 15 0;
#X connect 15 0 8 1;
#X connect 17 1 23 0;
#X connect 17 1 20 0;
#X connect 17 1 28 0;
#X connect 18 0 17 0;
#X connect 23 0 24 0;
#X connect 24 0 27 0;
#X connect 25 0 6 0;
#X connect 31 0 28 0;
