#N canvas 0 53 1336 767 12;
#X text 191 35 \$1: parent \$0;
#X text 190 54 \$2: label;
#X obj 36 369 t b f, f 13;
#X obj 37 502 pack s f, f 13;
#X obj 36 453 symbol \$2;
#X obj 122 408 * 1000;
#X obj 122 435 int;
#X obj 122 462 / 1000;
#X text 4 123 send: \$0-from-[label];
#X text 4 145 recv: \$0-to-[label];
#X text 5 52 binds to a ui element in parent patch with sends and receives as so:, f 20;
#X text 190 15 arguments:;
#X obj 13 10 hsl 141 20 0 1 0 0 \$1-get-\$2-raw \$1-set-\$2 thisParam:\ 0 3 10 0 10 #e3c6ff #c6feff #000000 0 1;
#X obj 437 210 s \$1-params;
#X obj 516 125 f;
#X obj 437 163 pack s f, f 12;
#X obj 437 126 symbol \$2;
#X obj 433 57 r \$1-savestate;
#X obj 435 88 t b b, f 12;
#X obj 37 566 s \$1-set-\$2;
#X obj 534 90 r \$1-get-\$2;
#X text 497 467 route based on param name;
#X text 499 431 receives params from parent module;
#X obj 36 314 r \$1-get-\$2;
#X text 534 211 send params parent savestate;
#X obj 45 407 loadbang;
#X msg 37 536 label \$1:\\\ \$2;
#X obj 866 109 r \$1-get-\$2;
#X text 36 277 ----LABEL----;
#X text 429 27 ----SAVESTATE----;
#X obj 821 70 loadbang;
#X msg 866 133 0;
#X obj 821 94 f \$3;
#X obj 819 212 s \$1-set-\$2;
#X text 801 33 ----DEFAULTS----;
#X text 189 72 \$3: default;
#X obj 819 178 spigot 1;
#X obj 380 657 bop.p.bline~;
#X msg 383 388 setsignal \$1;
#X obj 380 815 s~ \$1-get-\$2;
#X obj 481 733 s \$1-set-\$2;
#X obj 1095 426 r \$1-get-\$2;
#X obj 404 432 r \$1-params;
#X obj 404 466 route \$2;
#X text 486 816 a signal receive can be used for smoother control;
#X text 381 275 ----MESSAGES and EASING----;
#X text 475 656 adds ease-in-out;
#X msg 445 607 1 0 2000;
#X floatatom 1094 464 5 0 0 0 - - - 0;
#X obj 384 321 r \$1-get-\$2-raw;
#X floatatom 384 355 5 0 0 0 - - - 0;
#X msg 481 708 set \$1;
#X obj 462 776 s \$1-get-\$2;
#X obj 901 430 r~ \$1-get-\$2;
#X obj 433 353 s \$1-get-\$2;
#X text 575 735 sets param slider avoiding feedback., f 37;
#X text 512 605 [start \, end \, msec];
#X text 471 570 [jump-to];
#X text 476 388 set signal without float output to avoid feedback.;
#X text 551 780 send param for receiving., f 26;
#X text 520 351 send param for receiving., f 26;
#X text 753 296 todo - create cue of arguments above 3 as value destination pairs, f 26;
#X text 924 390 receive values from slider \;;
#X obj 448 507 tgl 19 0 empty empty empty 0 -10 0 12 #fcfcfc #000000 #000000 0 1;
#X msg 447 534 \$1 1000;
#X obj 447 571 tgl 19 0 empty empty empty 0 -10 0 12 #fcfcfc #000000 #000000 0 1;
#X text 481 509 [end \, msec);
#X obj 884 470 *~;
#X connect 2 0 4 0;
#X connect 2 1 5 0;
#X connect 3 0 26 0;
#X connect 4 0 3 0;
#X connect 5 0 6 0;
#X connect 6 0 7 0;
#X connect 7 0 3 1;
#X connect 14 0 15 1;
#X connect 15 0 13 0;
#X connect 16 0 15 0;
#X connect 17 0 18 0;
#X connect 18 0 16 0;
#X connect 18 1 14 0;
#X connect 20 0 14 1;
#X connect 23 0 2 0;
#X connect 25 0 4 0;
#X connect 26 0 19 0;
#X connect 27 0 31 0;
#X connect 30 0 32 0;
#X connect 31 0 36 1;
#X connect 32 0 36 0;
#X connect 36 0 33 0;
#X connect 37 0 39 0;
#X connect 37 1 51 0;
#X connect 37 1 52 0;
#X connect 38 0 37 0;
#X connect 41 0 48 0;
#X connect 42 0 43 0;
#X connect 43 0 37 0;
#X connect 47 0 37 0;
#X connect 49 0 50 0;
#X connect 49 0 54 0;
#X connect 50 0 38 0;
#X connect 51 0 40 0;
#X connect 53 0 67 1;
#X connect 63 0 64 0;
#X connect 64 0 37 0;
#X connect 65 0 37 0;
#X coords 0 -1 1 1 146 20 2 10 10;
