#N canvas 205 134 986 663 12;
#X text 191 35 \$1: parent \$0;
#X text 190 54 \$2: label;
#X obj 36 369 t b f, f 13;
#X obj 37 502 pack s f, f 13;
#X obj 36 453 symbol \$2;
#X obj 122 408 * 1000;
#X obj 122 435 int;
#X obj 122 462 / 1000;
#X text 4 123 send: \$0-from-[label];
#X text 4 145 recv: \$0-to-[label];
#X text 5 52 binds to a ui element in parent patch with sends and receives as so:, f 20;
#X text 190 15 arguments:;
#X obj 13 10 hsl 141 20 0 1 0 0 \$1-get-\$2 \$1-set-\$2 :\ 0 3 10 0 10 #e3c6ff #c6feff #000000 0 1;
#X obj 437 210 s \$1-params;
#X obj 514 125 f;
#X obj 437 163 pack s f;
#X obj 437 126 symbol \$2;
#X obj 433 57 r \$1-savestate;
#X obj 435 88 t b b, f 9;
#X obj 341 383 r \$1-params;
#X obj 37 566 s \$1-set-\$2;
#X obj 527 90 r \$1-get-\$2;
#X obj 341 538 s \$1-set-\$2;
#X text 433 430 route based on param name;
#X text 428 381 receives params from parent module;
#X obj 36 314 r \$1-get-\$2;
#X text 534 211 send params parent savestate;
#X obj 45 407 loadbang;
#X text 432 537 sets param value;
#X obj 341 490 line;
#X text 426 491 a list can be used to ease param;
#X obj 264 612 s~ \$1-get-\$2;
#X obj 264 492 line~;
#X text 368 614 a signal receive can be used for smooth easing;
#X obj 263 338 r \$1-get-\$2;
#X text 564 536 can be picked up via [r \$0-get-thisParam];
#X msg 37 536 label \$1:\\\ \$2;
#X obj 880 120 r \$1-get-\$2;
#X text 283 292 ----EASING----;
#X text 36 277 ----LABEL----;
#X text 429 27 ----SAVESTATE----;
#X obj 835 81 loadbang;
#X msg 880 144 0;
#X obj 835 105 f \$3;
#X obj 833 223 s \$1-set-\$2;
#X text 815 44 ----DEFAULTS----;
#X text 189 72 \$3: default;
#X obj 833 189 spigot 1;
#X text 350 336 receives value from slider \; this only effects the signal receiver \;;
#X obj 341 427 route \$2;
#X text 298 579 TODO: add slide?;
#X connect 2 0 4 0;
#X connect 2 1 5 0;
#X connect 3 0 36 0;
#X connect 4 0 3 0;
#X connect 5 0 6 0;
#X connect 6 0 7 0;
#X connect 7 0 3 1;
#X connect 14 0 15 1;
#X connect 15 0 13 0;
#X connect 16 0 15 0;
#X connect 17 0 18 0;
#X connect 18 0 16 0;
#X connect 18 1 14 0;
#X connect 19 0 49 0;
#X connect 21 0 14 1;
#X connect 25 0 2 0;
#X connect 27 0 4 0;
#X connect 29 0 22 0;
#X connect 32 0 31 0;
#X connect 34 0 32 0;
#X connect 36 0 20 0;
#X connect 37 0 42 0;
#X connect 41 0 43 0;
#X connect 42 0 47 1;
#X connect 43 0 47 0;
#X connect 47 0 44 0;
#X connect 49 0 29 0;
#X connect 49 0 32 0;
#X coords 0 -1 1 1 146 20 2 10 10;
