#N canvas 613 185 716 572 12;
#X text 30 28 ------------------------------ SAVESTATE ------------------------------------, f 80;
#X obj 58 130 bng 19 250 50 0 empty empty empty 0 -10 0 12 #fcfcfc #000000 #000000;
#X msg 140 189 -1;
#X msg 61 419 line 0 \, bang;
#X obj 58 161 t b b b, f 12;
#X obj 99 222 bng 19 250 50 0 empty empty empty 0 -10 0 12 #fcfcfc #000000 #000000;
#X obj 502 293 list trim;
#X obj 100 340 list;
#X obj 61 510 outlet;
#X obj 100 373 text set \$1-paramData 9999;
#X obj 135 509 text define \$1-paramData;
#X obj 502 328 s \$1-params;
#X obj 100 306 r \$1-params;
#X obj 502 252 inlet;
#X obj 57 84 inlet;
#X obj 140 218 text delete \$1-paramData;
#X obj 61 453 text sequence \$1-paramData;
#X obj 99 259 s \$1-savestate;
#X text 210 79 on save... \; - clear data \; - send savestate query to params \; - params return values via [r \$1-params] \; - save values to text \; - dump text into savestate \;;
#X text 443 398 on load and before loadbang... \; - receive messages from savestate \; - parse and send to params \;;
#X connect 1 0 4 0;
#X connect 2 0 15 0;
#X connect 3 0 16 0;
#X connect 4 0 3 0;
#X connect 4 1 5 0;
#X connect 4 2 2 0;
#X connect 5 0 17 0;
#X connect 6 0 11 0;
#X connect 7 0 9 0;
#X connect 12 0 7 0;
#X connect 13 0 6 0;
#X connect 14 0 1 0;
#X connect 16 0 8 0;
