#N canvas 128 516 688 336 12;
#X obj 87 75 inlet;
#X obj 287 290 outlet;
#X obj 307 199 s \$1-params;
#X obj 87 196 s \$1-midi-in;
#X obj 307 248 r \$1-midi-out;
#X text 33 9 recieves messages from parent patcher \, provides forwarding and saving for param \, toggle \, number;
#X obj 428 254 s \$1-stop;
#X obj 428 220 bng 19 250 50 0 empty empty empty 0 -10 0 12 #fcfcfc #000000 #000000;
#X obj 428 189 route stop dump, f 22;
#X obj 503 254 s \$1-dump;
#X obj 503 220 bng 19 250 50 0 empty empty empty 0 -10 0 12 #fcfcfc #000000 #000000;
#X obj 87 120 route list, f 29;
#X connect 0 0 11 0;
#X connect 4 0 1 0;
#X connect 7 0 6 0;
#X connect 8 0 7 0;
#X connect 8 1 10 0;
#X connect 10 0 9 0;
#X connect 11 0 3 0;
#X connect 11 1 1 0;
#X connect 11 1 2 0;
#X connect 11 1 8 0;
