#N canvas 626 172 704 430 12;
#X obj 87 75 inlet;
#X obj 371 244 outlet;
#X obj 390 165 s \$1-params;
#X obj 87 154 s \$1-midi-in;
#X obj 387 212 r \$1-midi-out;
#X text 33 9 recieves messages from parent patcher \, provides forwarding and saving for param \, toggle \, number;
#X obj 87 120 route list stop, f 41;
#X obj 231 243 s \$1-stop;
#X obj 231 151 bng 19 250 50 0 empty empty empty 0 -10 0 12 #fcfcfc #000000 #000000;
#X connect 0 0 6 0;
#X connect 4 0 1 0;
#X connect 6 0 3 0;
#X connect 6 1 8 0;
#X connect 6 2 2 0;
#X connect 6 2 1 0;
#X connect 8 0 7 0;
#X connect 8 0 1 0;
