#N canvas 91 68 1246 784 12;
#X text 525 53 \$1: parent \$0;
#X text 523 213 send: \$0-from-[label];
#X text 523 235 recv: \$0-to-[label];
#X text 524 142 binds to a ui element in parent patch with sends and receives as so:, f 20;
#X text 524 33 arguments:;
#X obj 290 280 s \$1-params;
#X obj 366 162 f;
#X obj 290 244 pack s f;
#X obj 289 163 symbol \$2;
#X obj 289 83 r \$1-savestate;
#X obj 289 125 t b b;
#X obj 10 10 nbx 7 20 0 -1 0 0 \$1-get-\$2-raw \$1-set-\$2 thisNumber 77 10 0 10 #c6feff #000000 #000000 0 256;
#X obj 28 85 loadbang;
#X msg 28 185 label \$1;
#X obj 28 150 symbol \$2;
#X text 524 72 \$2: label;
#X obj 28 117 bng 19 250 50 0 empty empty empty 0 -10 0 12 #fcfcfc #000000 #000000;
#X obj 28 215 s \$1-set-\$2;
#X obj 384 122 r \$1-get-\$2;
#X obj 844 129 r \$1-get-\$2;
#X obj 799 90 loadbang;
#X msg 844 153 0;
#X obj 799 114 f \$3;
#X obj 797 232 s \$1-set-\$2;
#X text 779 53 ----DEFAULTS----;
#X text 20 58 ----LABEL----;
#X text 272 46 ----SAVESTATE----;
#X text 525 92 \$3: default;
#X obj 797 198 spigot 1;
#X text 149 544 route based on param name;
#X text 151 508 receives params from parent module;
#X obj 32 734 bop.p.bline~;
#X msg 35 465 setsignal \$1;
#X obj 32 892 s~ \$1-get-\$2;
#X obj 133 810 s \$1-set-\$2;
#X obj 747 503 r \$1-get-\$2;
#X obj 56 509 r \$1-params;
#X obj 56 543 route \$2;
#X text 138 893 a signal receive can be used for smoother control;
#X text 33 352 ----MESSAGES and EASING----;
#X text 127 733 adds ease-in-out;
#X msg 97 684 1 0 2000;
#X floatatom 746 541 5 0 0 0 - - - 0;
#X obj 36 398 r \$1-get-\$2-raw;
#X floatatom 36 432 5 0 0 0 - - - 0;
#X msg 133 785 set \$1;
#X obj 114 853 s \$1-get-\$2;
#X obj 553 507 r~ \$1-get-\$2;
#X obj 85 430 s \$1-get-\$2;
#X text 227 812 sets param slider avoiding feedback., f 37;
#X text 164 682 [start \, end \, msec];
#X text 123 647 [jump-to];
#X text 128 465 set signal without float output to avoid feedback.;
#X text 203 857 send param for receiving., f 26;
#X text 172 428 send param for receiving., f 26;
#X text 405 373 todo - create cue of arguments above 3 as value destination pairs, f 26;
#X text 576 467 receive values from slider \;;
#X obj 100 584 tgl 19 0 empty empty empty 0 -10 0 12 #fcfcfc #000000 #000000 0 1;
#X msg 99 611 \$1 1000;
#X obj 99 648 tgl 19 0 empty empty empty 0 -10 0 12 #fcfcfc #000000 #000000 0 1;
#X text 133 586 [end \, msec);
#X obj 536 547 *~;
#X connect 6 0 7 1;
#X connect 7 0 5 0;
#X connect 8 0 7 0;
#X connect 9 0 10 0;
#X connect 10 0 8 0;
#X connect 10 1 6 0;
#X connect 12 0 16 0;
#X connect 13 0 17 0;
#X connect 14 0 13 0;
#X connect 16 0 14 0;
#X connect 18 0 6 1;
#X connect 19 0 21 0;
#X connect 20 0 22 0;
#X connect 21 0 28 1;
#X connect 22 0 28 0;
#X connect 28 0 23 0;
#X connect 31 0 33 0;
#X connect 31 1 45 0;
#X connect 31 1 46 0;
#X connect 32 0 31 0;
#X connect 35 0 42 0;
#X connect 36 0 37 0;
#X connect 37 0 31 0;
#X connect 41 0 31 0;
#X connect 43 0 44 0;
#X connect 43 0 48 0;
#X connect 44 0 32 0;
#X connect 45 0 34 0;
#X connect 47 0 61 1;
#X connect 57 0 58 0;
#X connect 58 0 31 0;
#X connect 59 0 31 0;
#X coords 0 -1 1 1 146 20 2 10 10;
