#N canvas 63 100 926 795 12;
#X declare -path ./bop.p;
#X obj 179 154 list fromsymbol;
#X msg 179 114 symbol i\$1;
#X obj 180 208 route 105;
#X obj 180 511 list prepend;
#X msg 282 438 0;
#X msg 238 454 1;
#X obj 183 557 route 0 1;
#X obj 112 128 int;
#X floatatom 112 152 5 0 0 0 - - - 0;
#X obj 112 90 t f f, f 10;
#X obj 182 424 sel 46;
#X obj 199 307 t l b, f 13;
#X obj 178 252 t b l b, f 22;
#X obj 193 589 - 48;
#X obj 110 675 list, f 7;
#X obj 168 901 f;
#X obj 128 899 +;
#X obj 133 854 t f b;
#X msg 185 855 0;
#X obj 112 761 t b l b b;
#X obj 420 145 declare -path ./bop.p;
#X obj 111 44 inlet;
#X obj 92 968 outlet;
#X obj 188 366 bop.p.iter;
#X obj 157 623 bop.p.accum, f 25;
#X obj 131 814 bop.p.iter;
#X obj 92 944 bop.p.accum;
#X connect 0 0 2 0;
#X connect 1 0 0 0;
#X connect 2 0 12 0;
#X connect 3 0 6 0;
#X connect 4 0 3 1;
#X connect 5 0 3 1;
#X connect 6 1 13 0;
#X connect 7 0 8 0;
#X connect 8 0 14 0;
#X connect 9 0 7 0;
#X connect 9 1 1 0;
#X connect 10 0 5 0;
#X connect 10 1 3 0;
#X connect 11 0 23 0;
#X connect 11 1 4 0;
#X connect 12 0 24 0;
#X connect 12 1 11 0;
#X connect 12 2 24 1;
#X connect 13 0 24 0;
#X connect 14 0 19 0;
#X connect 15 0 16 1;
#X connect 16 0 15 1;
#X connect 16 0 26 0;
#X connect 17 0 16 0;
#X connect 17 1 15 0;
#X connect 18 0 15 1;
#X connect 19 0 26 0;
#X connect 19 1 25 0;
#X connect 19 2 18 0;
#X connect 19 3 26 1;
#X connect 21 0 9 0;
#X connect 23 0 10 0;
#X connect 24 0 14 1;
#X connect 25 0 17 0;
#X connect 26 0 22 0;
