#N canvas 143 182 617 680 12;
#X text 187 89 \$1: parent \$0;
#X text 186 108 \$2: label;
#X obj 15 192 symbol \$2;
#X text 185 218 send: \$0-from-[label];
#X text 185 240 recv: \$0-to-[label];
#X text 186 147 binds to a ui element in parent patch with sends and receives as so:, f 20;
#X text 186 69 arguments:;
#X msg 15 227 label \$1;
#X obj 15 118 loadbang;
#X obj 15 152 bng 19 250 50 0 empty empty empty 0 -10 0 12 #fcfcfc #000000 #000000;
#X obj 15 257 s \$1-set-\$2;
#X obj 23 340 route \$2;
#X obj 23 306 r \$1-params;
#X text 112 305 Receive from parent patch:;
#X obj 23 421 s \$1-set-\$2;
#X text 19 85 ----LABEL----;
#X obj 10 31 cnv 18 72 18 empty empty empty 20 12 0 12 #ffffff #404040 0;
#X obj 10 10 bng 20 250 50 0 \$1-get-\$2 \$1-set-\$2 empty 22 10 0 10 #e3c6ff #c6feff #000000;
#X obj 23 365 bng 19 250 50 0 empty empty empty 0 -10 0 12 #fcfcfc #000000 #000000;
#X text 188 26 buttons have no savestate \, default value \, or easing;
#X connect 2 0 7 0;
#X connect 7 0 10 0;
#X connect 8 0 9 0;
#X connect 9 0 2 0;
#X connect 11 0 18 0;
#X connect 12 0 11 0;
#X connect 18 0 14 0;
#X coords 0 -1 1 1 73 20 2 10 10;
