#N canvas 298 47 1126 837 12;
#X obj 76 28 inlet;
#X text 212 16 args \; \$1 voice number \; \$2 parent \$0 \;;
#X msg 81 290 read -resize \$1 \$2-sample-array-\$3;
#X obj 81 227 pack s \$2 \$1;
#X obj 81 369 soundfiler, f 23;
#X obj 350 23 array define \$2-sample-array-\$1;
#X obj 81 179 route read;
#X obj 877 1281 tabread4~ \$2-sample-array-\$1;
#X obj 49 453 array size \$2-sample-array-\$1, f 21;
#X obj 49 256 t b l;
#X text 95 333 load audio into ram;
#X obj 114 426 s \$2-samplerate-\$1;
#X obj 59 498 s \$2-size-\$1;
#X msg 249 393 \$1;
#X obj 49 533 /, f 29;
#X obj 76 57 s \$2-inlet-\$1;
#X obj 81 156 r \$2-inlet-\$1;
#X obj 492 168 r \$2-inlet-\$1;
#X obj 48 564 s \$2-duration-\$1;
#X obj 492 201 route play;
#X obj 877 837 phasor~, f 38;
#X msg 1140 605 0;
#X msg 881 635 0;
#X obj 877 1316 hip~ 5;
#X obj 876 1362 outlet~;
#X obj 877 1240 *~;
#X obj 895 1209 r \$2-samplerate-\$1;
#X obj 953 537 r \$2-get-loop;
#X obj 881 311 > 0;
#X text 914 313 todo - handle velocity;
#X obj 953 561 == 0;
#X obj 914 585 spigot;
#X text 350 47 example read message \; read -resize /Users/bob/repos/bop/samples/bank000/PreparedPiano093.wav 11-sample-array-1003, f 97;
#X text 227 856 May need to watch phasor~ for end of cycle instead of cueing a stop bang. use threshold~. \; This could occur after an ADSR (or just AR) and also trigger a [switch~] \;, f 22;
#X text 51 117 ---- LOAD SAMPLES ----;
#X obj 492 255 unpack, f 56;
#X text 1018 1380 comment;
#X text 867 142 [target] play [pitch-offset] [velocity];
#X obj 492 324 sig~;
#X obj 765 775 *~, f 17;
#X msg 1107 605 1;
#X obj 601 350 r~ \$2-get-root;
#X obj 492 477 -~, f 16;
#X obj 663 589 r \$2-duration-\$1;
#X obj 1107 561 t b b;
#X obj 663 618 expr 1/$f1;
#X obj 663 647 sig~;
#X text 700 654 duration in hz;
#X obj 490 704 *~, f 25;
#X obj 619 382 r~ \$2-get-tune;
#X obj 601 444 +~;
#X obj 491 588 expr~ if($v1 >= 0 \, $v1/12 + 1 \, 1/(abs($v1/12)+1)), f 21;
#X obj 619 406 *~ -1;
#X text 496 518 pitch offset in semitones, f 17;
#X text 498 647 pitch offset ratio;
#X obj 881 371 sel 0 1, f 18;
#X obj 914 492 r \$0-sample-end;
#X obj 1217 724 r \$2-get-loop-start;
#X obj 1217 751 * 0.99;
#X obj 1199 782 f;
#X obj 1238 623 r \$2-get-loop;
#X obj 1199 679 spigot;
#X obj 1199 586 r \$0-sample-end;
#X obj 1238 647 == 1;
#X obj 1065 405 s \$0-sample-start;
#X obj 1107 525 r \$0-sample-start;
#X obj 875 1071 expr~ ($v1 - $v2) / $v3;
#X obj 973 935 r \$2-get-loop-start;
#X obj 922 1013 sig~;
#X obj 955 971 f;
#X obj 954 909 r \$0-sample-end;
#X obj 922 878 r \$0-sample-start;
#X msg 922 902 0;
#X obj 1000 1009 r~ \$2-get-loop-length;
#X obj 875 1095 wrap~;
#X obj 877 1173 expr~ $v1 * $v2 + $v3;
#X obj 947 1114 r~ \$2-get-loop-length;
#X obj 1009 1138 r~ \$2-get-loop-start;
#X connect 0 0 15 0;
#X connect 2 0 4 0;
#X connect 3 0 9 0;
#X connect 4 1 13 0;
#X connect 6 0 3 0;
#X connect 7 0 23 0;
#X connect 8 0 12 0;
#X connect 8 0 14 0;
#X connect 9 0 8 0;
#X connect 9 1 2 0;
#X connect 13 0 11 0;
#X connect 13 0 14 1;
#X connect 14 0 18 0;
#X connect 16 0 6 0;
#X connect 17 0 19 0;
#X connect 19 0 35 0;
#X connect 20 0 66 0;
#X connect 21 0 20 1;
#X connect 22 0 39 1;
#X connect 23 0 24 0;
#X connect 25 0 7 0;
#X connect 26 0 25 1;
#X connect 27 0 30 0;
#X connect 28 0 55 0;
#X connect 30 0 31 1;
#X connect 31 0 22 0;
#X connect 35 0 38 0;
#X connect 35 1 28 0;
#X connect 38 0 42 0;
#X connect 39 0 20 0;
#X connect 40 0 39 1;
#X connect 41 0 50 0;
#X connect 42 0 51 0;
#X connect 43 0 45 0;
#X connect 44 0 40 0;
#X connect 44 1 21 0;
#X connect 45 0 46 0;
#X connect 46 0 48 1;
#X connect 48 0 39 0;
#X connect 49 0 52 0;
#X connect 50 0 42 1;
#X connect 51 0 48 0;
#X connect 52 0 50 1;
#X connect 55 0 22 0;
#X connect 55 1 64 0;
#X connect 56 0 31 0;
#X connect 57 0 58 0;
#X connect 58 0 59 1;
#X connect 60 0 63 0;
#X connect 61 0 59 0;
#X connect 62 0 61 0;
#X connect 63 0 61 1;
#X connect 65 0 44 0;
#X connect 66 0 74 0;
#X connect 67 0 69 1;
#X connect 68 0 66 1;
#X connect 69 0 68 0;
#X connect 70 0 69 0;
#X connect 71 0 72 0;
#X connect 72 0 68 0;
#X connect 73 0 66 2;
#X connect 74 0 75 0;
#X connect 75 0 25 0;
#X connect 76 0 75 1;
#X connect 77 0 75 2;
