#N canvas 156 225 1000 624 12;
#X text 525 53 \$1: parent \$0;
#X obj 125 455 route \$2;
#X text 523 213 send: \$0-from-[label];
#X text 523 235 recv: \$0-to-[label];
#X text 524 142 binds to a ui element in parent patch with sends and receives as so:, f 20;
#X text 524 33 arguments:;
#X obj 290 280 s \$1-params;
#X obj 366 162 f;
#X obj 290 244 pack s f;
#X obj 289 163 symbol \$2;
#X obj 289 83 r \$1-savestate;
#X obj 289 125 t b b;
#X obj 125 421 r \$1-params;
#X obj 10 10 nbx 5 20 -1e+37 1e+37 0 0 \$1-get-\$2 \$1-set-\$2 empty 60 10 0 10 #c6feff #000000 #000000 0 256;
#X obj 28 85 loadbang;
#X msg 28 185 label \$1;
#X obj 28 150 symbol \$2;
#X text 524 72 \$2: label;
#X text 214 420 Receive from parent patch:;
#X obj 28 117 bng 19 250 50 0 empty empty empty 0 -10 0 12 #fcfcfc #000000 #000000;
#X obj 125 536 s \$1-set-\$2;
#X obj 28 215 s \$1-set-\$2;
#X obj 384 122 r \$1-get-\$2;
#X obj 125 489 line;
#X obj 34 490 line~;
#X obj 34 536 s~ \$1-get-\$2;
#X obj 33 373 r \$1-get-\$2;
#X text 120 371 receives value from slider;
#X obj 844 129 r \$1-get-\$2;
#X obj 799 90 loadbang;
#X msg 844 153 0;
#X obj 799 114 f \$3;
#X obj 797 232 s \$1-set-\$2;
#X text 779 53 ----DEFAULTS----;
#X text 34 333 ----EASING----;
#X text 20 58 ----LABEL----;
#X text 272 46 ----SAVESTATE----;
#X text 525 92 \$3: default;
#X obj 797 198 spigot 1;
#X connect 1 0 23 0;
#X connect 1 0 24 0;
#X connect 7 0 8 1;
#X connect 8 0 6 0;
#X connect 9 0 8 0;
#X connect 10 0 11 0;
#X connect 11 0 9 0;
#X connect 11 1 7 0;
#X connect 12 0 1 0;
#X connect 14 0 19 0;
#X connect 15 0 21 0;
#X connect 16 0 15 0;
#X connect 19 0 16 0;
#X connect 22 0 7 1;
#X connect 23 0 20 0;
#X connect 24 0 25 0;
#X connect 26 0 24 0;
#X connect 28 0 30 0;
#X connect 29 0 31 0;
#X connect 30 0 38 1;
#X connect 31 0 38 0;
#X connect 38 0 32 0;
#X coords 0 -1 1 1 146 20 2 10 10;
