#N canvas 578 308 839 540 12;
#X text 372 51 \$1: parent \$0;
#X text 371 70 \$2: label;
#X obj 15 192 symbol \$2;
#X text 370 180 send: \$0-from-[label];
#X text 370 202 recv: \$0-to-[label];
#X text 371 109 binds to a ui element in parent patch with sends and receives as so:, f 20;
#X text 371 31 arguments:;
#X obj 160 311 s \$1-params;
#X obj 236 182 f;
#X obj 160 264 pack s f;
#X obj 159 183 symbol \$2;
#X obj 159 66 r \$1-savestate;
#X obj 159 123 t b b;
#X msg 15 227 label \$1;
#X obj 15 118 loadbang;
#X obj 15 152 bng 19 250 50 0 empty empty empty 0 -10 0 12 #fcfcfc #000000 #000000;
#X obj 15 257 s \$1-set-\$2;
#X obj 250 139 r \$1-get-\$2;
#X obj 415 399 route \$2;
#X obj 415 365 r \$1-params;
#X text 504 364 Receive from parent patch:;
#X obj 415 480 s \$1-set-\$2;
#X obj 415 433 line;
#X obj 324 434 line~;
#X obj 324 480 s~ \$1-get-\$2;
#X obj 324 332 r \$1-get-\$2;
#X text 410 315 receives value from slider;
#X text 372 85 \$3: default;
#X text 353 292 ----EASING----;
#X text 170 35 ----SAVESTATE----;
#X text 19 85 ----LABEL----;
#X obj 697 117 r \$1-get-\$2;
#X obj 652 78 loadbang;
#X msg 697 141 0;
#X obj 652 102 f \$3;
#X obj 650 220 s \$1-set-\$2;
#X text 632 41 ----DEFAULTS----;
#X obj 650 186 spigot 1;
#X obj 10 11 cnv 18 72 18 empty empty empty 20 12 0 12 #ffffff #404040 0;
#X obj 10 10 tgl 20 1 \$1-get-\$2 \$1-set-\$2 empty 23 10 0 10 #e3c6ff #000000 #000000 0 1;
#X connect 2 0 13 0;
#X connect 8 0 9 1;
#X connect 9 0 7 0;
#X connect 10 0 9 0;
#X connect 11 0 12 0;
#X connect 12 0 10 0;
#X connect 12 1 8 0;
#X connect 13 0 16 0;
#X connect 14 0 15 0;
#X connect 15 0 2 0;
#X connect 17 0 8 1;
#X connect 18 0 22 0;
#X connect 18 0 23 0;
#X connect 19 0 18 0;
#X connect 22 0 21 0;
#X connect 23 0 24 0;
#X connect 25 0 23 0;
#X connect 31 0 33 0;
#X connect 32 0 34 0;
#X connect 33 0 37 1;
#X connect 34 0 37 0;
#X connect 37 0 35 0;
#X coords 0 -1 1 1 73 20 2 10 10;
