#N canvas 27 93 785 732 12;
#X obj 545 327 bng 19 250 50 0 empty empty empty 0 -10 0 12 #fcfcfc #000000 #000000;
#N canvas 362 247 615 598 dump-and-construct 0;
#X obj 152 367 list prepend add2;
#X obj 226 431 list trim;
#X obj 152 399 t b l, f 11;
#X msg 152 431 addcomma;
#X obj 160 261 list prepend dump;
#X obj 154 337 route dump;
#X obj 155 301 list trim;
#X obj 335 558 outlet;
#X msg 344 431 set;
#X obj 269 92 bng 19 250 50 0 empty empty empty 0 -10 0 12 #fcfcfc #000000 #000000;
#X msg 376 194 dump;
#X obj 42 107 inlet;
#X obj 269 66 inlet;
#X text 11 13 write bop params to a parent-level message box;
#X obj 455 544 outlet;
#X obj -42 560 outlet;
#X obj 269 124 t b b b, f 33;
#X connect 0 0 2 0;
#X connect 1 0 7 0;
#X connect 2 0 3 0;
#X connect 2 1 1 0;
#X connect 3 0 7 0;
#X connect 4 0 6 0;
#X connect 5 0 0 0;
#X connect 6 0 5 0;
#X connect 8 0 7 0;
#X connect 9 0 16 0;
#X connect 10 0 4 1;
#X connect 10 0 15 0;
#X connect 11 0 4 0;
#X connect 11 0 14 0;
#X connect 12 0 9 0;
#X connect 16 0 4 1;
#X connect 16 1 10 0;
#X connect 16 2 8 0;
#X restore 317 419 pd dump-and-construct;
#X f 36;
#X text 569 327 < 1.) trigger dump message;
#X text 206 527 < 2.) sends dump message;
#X text 154 301 3.) receive params >;
#X obj 527 256 inlet;
#X msg 371 684 follow 100 \, mode 1 \,, f 38;
#X text 447 556 < 4.) construct message;
#X obj 431 600 outlet;
#X obj 167 556 outlet;
#X obj 668 568 outlet;
#X obj 294 245 inlet;
#X connect 0 0 1 1;
#X connect 1 0 9 0;
#X connect 1 1 8 0;
#X connect 1 1 6 0;
#X connect 1 2 10 0;
#X connect 5 0 0 0;
#X connect 11 0 1 0;
