#N canvas 476 183 814 716 12;
#X obj 234 80 inlet~;
#X text 300 80 FM;
#X text 316 26 \$1 parent \$0 \; \$2 label;
#X obj 54 705 *~, f 18;
#N canvas 38 532 450 300 triangle 0;
#X obj 175 86 phasor~;
#X obj 211 119 *~ -1;
#X obj 211 147 +~ 1;
#X obj 177 199 min~;
#X obj 177 272 outlet~;
#X obj 177 223 *~ 4;
#X obj 177 247 -~ 1;
#X obj 295 56 inlet;
#X obj 295 80 switch~;
#X obj 176 48 inlet~;
#X connect 0 0 1 0;
#X connect 0 0 3 0;
#X connect 1 0 2 0;
#X connect 2 0 3 1;
#X connect 3 0 5 0;
#X connect 5 0 6 0;
#X connect 6 0 4 0;
#X connect 7 0 8 0;
#X connect 9 0 0 0;
#X restore 219 533 pd triangle;
#N canvas 121 158 678 300 rect 0;
#X obj 160 235 outlet~;
#X obj 159 113 osc~;
#X obj 159 147 expr~ if( $v1 > $v2 \, 0.9 \, -.9);
#X obj 366 72 inlet~ pulsewidth;
#X obj 501 61 inlet;
#X obj 159 27 inlet~;
#X obj 501 85 switch~;
#X connect 1 0 2 0;
#X connect 2 0 0 0;
#X connect 3 0 2 1;
#X connect 4 0 6 0;
#X connect 5 0 1 0;
#X restore 311 533 pd rect;
#X f 23;
#X obj 172 676 pow~ 4;
#N canvas 237 274 450 300 sine 0;
#X obj 249 112 switch~;
#X obj 256 60 inlet;
#X obj 87 214 outlet~;
#X obj 84 155 osc~;
#X obj 51 65 inlet~;
#X connect 1 0 0 0;
#X connect 3 0 2 0;
#X connect 4 0 3 0;
#X restore 54 529 pd sine;
#N canvas 295 332 450 300 saw 0;
#X obj 43 96 inlet~;
#X obj 183 93 inlet;
#X obj 183 117 switch~;
#X obj 43 120 phasor~;
#X obj 43 144 outlet~;
#X connect 0 0 3 0;
#X connect 1 0 2 0;
#X connect 3 0 4 0;
#X restore 146 531 pd saw;
#X obj 86 443 == 0;
#X obj 467 473 == 3;
#X obj 195 446 == 2;
#X obj 303 446 == 1;
#X obj 277 366 r \$1-get-\$2-wave;
#X obj 57 311 +~, f 26;
#X obj 57 77 inlet~;
#X text 105 80 freq;
#X obj 172 652 r~ \$1-get-\$2-gain;
#X obj 54 748 outlet~;
#X obj 485 76 loadbang;
#X msg 485 100 list sine triangle saw pulse;
#X obj 515 134 list length;
#X msg 515 158 range 0 \$1;
#X obj 525 183 s \$1-set-\$2-wave;
#X obj 485 223 s \$1-set-\$2-wave-enum;
#X obj 390 391 r~ \$1-get-\$2-pulsewidth;
#X obj 390 415 *~ 2;
#X obj 390 439 -~ 1;
#X obj 390 503 clip~ -0.99 0.99;
#X connect 0 0 14 1;
#X connect 3 0 18 0;
#X connect 4 0 3 0;
#X connect 5 0 3 0;
#X connect 6 0 3 1;
#X connect 7 0 3 0;
#X connect 8 0 3 0;
#X connect 9 0 7 1;
#X connect 10 0 5 2;
#X connect 11 0 8 1;
#X connect 12 0 4 1;
#X connect 13 0 9 0;
#X connect 13 0 10 0;
#X connect 13 0 11 0;
#X connect 13 0 12 0;
#X connect 14 0 7 0;
#X connect 14 0 8 0;
#X connect 14 0 4 0;
#X connect 14 0 5 0;
#X connect 15 0 14 0;
#X connect 17 0 6 0;
#X connect 19 0 20 0;
#X connect 20 0 21 0;
#X connect 20 0 24 0;
#X connect 21 0 22 0;
#X connect 22 0 23 0;
#X connect 25 0 26 0;
#X connect 26 0 27 0;
#X connect 27 0 28 0;
#X connect 28 0 5 1;
