#N canvas 592 95 511 718 12;
#X obj 38 18 inlet notepairs;
#X obj 38 54 t b l;
#X obj 252 192 text define \$0-note-ons;
#X msg 125 95 \$2 \$1;
#X text 194 109 stripping out velocity for simplicity at the moment, f 29;
#X obj 125 119 unpack;
#X obj 125 143 > 0;
#X obj 125 176 pack;
#X obj 125 200 route 1 0;
#X obj 155 245 text search \$0-note-ons;
#X obj 155 282 text delete \$0-note-ons;
#X obj 125 319 text set \$0-note-ons 9999;
#X obj 201 540 text sequence \$0-note-ons, f 14;
#X msg 201 505 line 0 \, auto;
#X obj 40 365 text size \$0-note-ons;
#X obj 40 400 > 0;
#X obj 84 601 bop.p.accum, f 34;
#X obj 84 462 t b b b, f 34;
#X obj 40 427 sel 0 1, f 13;
#X msg 40 625 -1;
#X obj 84 664 outlet;
#X text 182 23 input midi notes \; outputs list of current note-on messages \;;
#X connect 0 0 1 0;
#X connect 1 0 14 0;
#X connect 1 1 3 0;
#X connect 3 0 5 0;
#X connect 5 0 6 0;
#X connect 5 1 7 1;
#X connect 6 0 7 0;
#X connect 7 0 8 0;
#X connect 8 0 11 0;
#X connect 8 1 9 0;
#X connect 9 0 10 0;
#X connect 12 0 16 0;
#X connect 13 0 12 0;
#X connect 14 0 15 0;
#X connect 15 0 18 0;
#X connect 16 0 20 0;
#X connect 17 0 16 0;
#X connect 17 1 13 0;
#X connect 17 2 16 1;
#X connect 18 0 19 0;
#X connect 18 1 17 0;
#X connect 19 0 20 0;
