#N canvas 269 154 809 681 12;
#X obj 85 483 outlet~;
#X obj 85 139 inlet~;
#X obj 154 278 expr if($f1 == 0 \, 1e+09 \, 1/$f1);
#X obj 435 278 expr if($f1 == 0 \, 1e+09 \, 1/$f1);
#X obj 435 136 inlet slide-down;
#X obj 154 138 inlet slide-up;
#X obj 85 433 slop~ 1e+09 1e+09 0 1e+09 0, f 63;
#X obj 185 342 samplerate~;
#X obj 153 376 /, f 5;
#X obj 153 317 t f b;
#X obj 467 342 samplerate~;
#X obj 435 376 /, f 5;
#X obj 435 317 t f b;
#X obj 154 248 f \$1;
#X obj 435 247 f \$2;
#X obj 435 215 loadbang;
#X obj 154 212 loadbang;
#X obj 435 166 / 1000;
#X obj 154 163 / 1000;
#X text 233 56 similar to [slide~] in Max \; arguments in milliseconds (accuracy not tested) \;;
#X connect 1 0 6 0;
#X connect 2 0 9 0;
#X connect 3 0 12 0;
#X connect 4 0 17 0;
#X connect 5 0 18 0;
#X connect 6 0 0 0;
#X connect 7 0 8 1;
#X connect 8 0 6 2;
#X connect 9 0 8 0;
#X connect 9 1 7 0;
#X connect 10 0 11 1;
#X connect 11 0 6 4;
#X connect 12 0 11 0;
#X connect 12 1 10 0;
#X connect 13 0 2 0;
#X connect 14 0 3 0;
#X connect 15 0 14 0;
#X connect 16 0 13 0;
#X connect 17 0 2 0;
#X connect 18 0 3 0;
