#N canvas 578 308 839 540 12;
#X text 372 51 \$1: parent \$0;
#X text 371 70 \$2: label;
#X obj 15 192 symbol \$2;
#X text 370 180 send: \$0-from-[label];
#X text 370 202 recv: \$0-to-[label];
#X text 371 109 binds to a ui element in parent patch with sends and receives as so:, f 20;
#X text 371 31 arguments:;
#X obj 160 311 s \$1-params;
#X obj 236 182 f;
#X obj 160 264 pack s f;
#X obj 159 183 symbol \$2;
#X obj 159 66 r \$1-savestate;
#X obj 159 123 t b b;
#X msg 15 227 label \$1;
#X obj 15 118 loadbang;
#X obj 15 152 bng 19 250 50 0 empty empty empty 0 -10 0 12 #fcfcfc #000000 #000000;
#X obj 15 257 s \$1-set-\$2;
#X obj 250 139 r \$1-get-\$2;
#X text 372 85 \$3: default;
#X text 170 35 ----SAVESTATE----;
#X text 19 85 ----LABEL----;
#X obj 697 117 r \$1-get-\$2;
#X obj 652 78 loadbang;
#X msg 697 141 0;
#X obj 652 102 f \$3;
#X obj 650 220 s \$1-set-\$2;
#X text 632 41 ----DEFAULTS----;
#X obj 650 186 spigot 1;
#X obj 10 11 cnv 18 72 18 empty empty empty 20 12 0 12 #ffffff #404040 0;
#X obj 10 10 tgl 20 1 \$1-get-\$2 \$1-set-\$2 thisTog 23 10 0 10 #e3c6ff #000000 #000000 1 1;
#X text 184 560 route based on param name;
#X text 186 524 receives params from parent module;
#X obj 67 660 bop.p.bline~;
#X msg 70 481 setsignal \$1;
#X obj 67 818 s~ \$1-get-\$2;
#X obj 168 736 s \$1-set-\$2;
#X obj 782 509 r \$1-get-\$2;
#X obj 91 525 r \$1-params;
#X obj 91 559 route \$2;
#X text 173 819 a signal receive can be used for smoother control;
#X text 68 358 ----MESSAGES and EASING----;
#X text 162 659 adds ease-in-out;
#X floatatom 781 547 5 0 0 0 - - - 0;
#X obj 71 414 r \$1-get-\$2-raw;
#X floatatom 71 448 5 0 0 0 - - - 0;
#X msg 168 711 set \$1;
#X obj 149 779 s \$1-get-\$2;
#X obj 588 513 r~ \$1-get-\$2;
#X obj 120 446 s \$1-get-\$2;
#X text 262 738 sets param slider avoiding feedback., f 37;
#X text 163 481 set signal without float output to avoid feedback.;
#X text 238 783 send param for receiving., f 26;
#X text 207 444 send param for receiving., f 26;
#X text 611 473 receive values from slider \;;
#X obj 571 553 *~;
#X obj 67 625 bop.p.blineseq;
#X connect 2 0 13 0;
#X connect 8 0 9 1;
#X connect 9 0 7 0;
#X connect 10 0 9 0;
#X connect 11 0 12 0;
#X connect 12 0 10 0;
#X connect 12 1 8 0;
#X connect 13 0 16 0;
#X connect 14 0 15 0;
#X connect 15 0 2 0;
#X connect 17 0 8 1;
#X connect 21 0 23 0;
#X connect 22 0 24 0;
#X connect 23 0 27 1;
#X connect 24 0 27 0;
#X connect 27 0 25 0;
#X connect 32 0 34 0;
#X connect 32 1 45 0;
#X connect 32 1 46 0;
#X connect 33 0 55 0;
#X connect 36 0 42 0;
#X connect 37 0 38 0;
#X connect 38 0 55 0;
#X connect 43 0 44 0;
#X connect 43 0 48 0;
#X connect 44 0 33 0;
#X connect 45 0 35 0;
#X connect 47 0 54 1;
#X connect 55 0 32 0;
#X coords 0 -1 1 1 73 20 2 10 10;
