#N canvas 235 58 997 801 12;
#X obj 38 18 inlet notepairs;
#X obj 38 324 t b l;
#X obj 248 20 text define \$0-note-ons;
#X msg 70 363 \$2 \$1;
#X text 139 377 stripping out velocity for simplicity at the moment, f 29;
#X obj 70 387 unpack;
#X obj 70 411 > 0;
#X obj 70 444 pack, f 6;
#X obj 70 468 route 1 0;
#X obj 100 513 text search \$0-note-ons;
#X obj 100 550 text delete \$0-note-ons;
#X obj 70 587 text set \$0-note-ons 9999;
#X obj 201 810 text sequence \$0-note-ons, f 14;
#X msg 201 775 line 0 \, auto;
#X obj 40 635 text size \$0-note-ons;
#X obj 40 670 > 0;
#X obj 84 871 bop.p.accum, f 34;
#X obj 84 732 t b b b, f 34;
#X obj 40 697 sel 0 1, f 13;
#X msg 40 895 -1;
#X obj 84 934 outlet;
#X obj 119 116 list length;
#X obj 38 85 t l l;
#X obj 38 163 list prepend;
#X obj 38 227 route 2 3, f 123;
#X text 50 258 pitch velocity pair, f 9;
#X text 487 258 pitch velocity voice triplet, f 17;
#X obj 142 145 change;
#X text 197 148 clear list when switching from pair to triplet, f 25;
#X obj 142 193 text delete \$0-note-ons;
#X msg 142 169 -1;
#X text 551 25 input midi notes \; outputs list of current note-on messages \; accepts [note velocity] and [note velocity voice];
#X obj 467 309 t b l;
#X connect 0 0 22 0;
#X connect 1 0 14 0;
#X connect 1 1 3 0;
#X connect 3 0 5 0;
#X connect 5 0 6 0;
#X connect 5 1 7 1;
#X connect 6 0 7 0;
#X connect 7 0 8 0;
#X connect 8 0 11 0;
#X connect 8 1 9 0;
#X connect 9 0 10 0;
#X connect 12 0 16 0;
#X connect 13 0 12 0;
#X connect 14 0 15 0;
#X connect 15 0 18 0;
#X connect 16 0 20 0;
#X connect 17 0 16 0;
#X connect 17 1 13 0;
#X connect 17 2 16 1;
#X connect 18 0 19 0;
#X connect 18 1 17 0;
#X connect 19 0 20 0;
#X connect 21 0 23 1;
#X connect 21 0 27 0;
#X connect 22 0 23 0;
#X connect 22 1 21 0;
#X connect 23 0 24 0;
#X connect 24 0 1 0;
#X connect 24 1 32 0;
#X connect 27 0 30 0;
#X connect 30 0 29 0;
