#N canvas 0 39 1049 889 12;
#X obj 76 28 inlet;
#X text 212 16 args \; \$1 voice number \; \$2 parent \$0 \;;
#X msg 81 290 read -resize \$1 \$2-sample-array-\$3;
#X obj 81 227 pack s \$2 \$1;
#X obj 81 369 soundfiler, f 23;
#X obj 350 23 array define \$2-sample-array-\$1;
#X obj 81 179 route read;
#X obj 697 942 tabread4~ \$2-sample-array-\$1;
#X obj 49 453 array size \$2-sample-array-\$1, f 21;
#X obj 49 256 t b l;
#X text 95 333 load audio into ram;
#X obj 114 426 s \$2-samplerate-\$1;
#X obj 59 498 s \$2-size-\$1;
#X msg 249 393 \$1;
#X obj 49 533 /, f 29;
#X obj 76 57 s \$2-inlet-\$1;
#X obj 81 156 r \$2-inlet-\$1;
#X obj 630 189 r \$2-inlet-\$1;
#X obj 48 564 s \$2-duration-\$1;
#X obj 630 222 route play;
#X obj 697 837 phasor~, f 38;
#X msg 960 696 0;
#X msg 697 618 0;
#X obj 699 339 sel 0 1, f 15;
#X obj 697 977 hip~ 5;
#X obj 696 1023 outlet~;
#X obj 697 901 *~;
#X obj 715 870 r \$2-samplerate-\$1;
#X obj 760 440 r \$2-get-loop;
#X obj 697 311 > 0;
#X text 730 313 todo - handle velocity;
#X obj 753 520 r \$2-duration-\$1;
#X obj 760 464 == 0;
#X obj 721 488 spigot;
#X obj 721 392 t b b, f 30;
#X obj 721 568 delay;
#X text 766 567 cue stop;
#X obj 753 544 * 1000;
#X text 350 47 example read message \; read -resize /Users/bob/repos/bop/samples/bank000/PreparedPiano093.wav 11-sample-array-1003, f 97;
#X text 284 769 todo: how to get real-time pitch control?, f 15;
#X text 283 851 May need to watch phasor~ for end of cycle instead of cueing a stop bang. use threshold~. \; This could occur after an ADSR (or just AR) and also trigger a [switch~] \;, f 22;
#X text 51 117 ---- LOAD SAMPLES ----;
#X obj 630 276 unpack, f 10;
#X text 279 829 [r~ \$2-get-tune];
#X text 838 1090 comment;
#X text 687 142 [target] play [pitch-offset] [velocity];
#X obj 422 324 sig~;
#X obj 636 764 *~, f 17;
#X msg 766 719 1;
#X obj 531 310 r~ \$2-get-root;
#X obj 422 407 -~, f 16;
#X obj 516 459 r \$2-duration-\$1;
#X obj 927 561 t b b;
#X obj 516 488 expr 1/$f1;
#X obj 516 517 sig~;
#X text 553 524 duration in hz;
#X obj 634 718 *~;
#X obj 568 342 r~ \$2-get-tune;
#X obj 531 374 +~;
#X obj 421 608 expr~ if($v1 >= 0 \, $v1/12 + 1 \, 1/(abs($v1/12)+1)), f 21;
#X obj 568 366 *~ -1;
#X connect 0 0 15 0;
#X connect 2 0 4 0;
#X connect 3 0 9 0;
#X connect 4 1 13 0;
#X connect 6 0 3 0;
#X connect 7 0 24 0;
#X connect 8 0 12 0;
#X connect 8 0 14 0;
#X connect 9 0 8 0;
#X connect 9 1 2 0;
#X connect 13 0 11 0;
#X connect 13 0 14 1;
#X connect 14 0 18 0;
#X connect 16 0 6 0;
#X connect 17 0 19 0;
#X connect 19 0 42 0;
#X connect 20 0 26 0;
#X connect 21 0 20 1;
#X connect 22 0 47 1;
#X connect 23 0 22 0;
#X connect 23 1 34 0;
#X connect 24 0 25 0;
#X connect 26 0 7 0;
#X connect 27 0 26 1;
#X connect 28 0 32 0;
#X connect 29 0 23 0;
#X connect 31 0 37 0;
#X connect 32 0 33 1;
#X connect 33 0 35 0;
#X connect 34 0 33 0;
#X connect 34 1 52 0;
#X connect 35 0 22 0;
#X connect 37 0 35 1;
#X connect 42 0 46 0;
#X connect 42 1 29 0;
#X connect 46 0 50 0;
#X connect 47 0 20 0;
#X connect 48 0 47 1;
#X connect 49 0 58 0;
#X connect 50 0 59 0;
#X connect 51 0 53 0;
#X connect 52 0 48 0;
#X connect 52 1 21 0;
#X connect 53 0 54 0;
#X connect 54 0 56 1;
#X connect 56 0 47 0;
#X connect 57 0 60 0;
#X connect 58 0 50 1;
#X connect 59 0 56 0;
#X connect 60 0 58 1;
