#N canvas 84 85 1073 655 12;
#X obj 107 117 inlet;
#X obj 188 357 s \$1-stop;
#X obj 188 243 bng 19 250 50 0 empty empty empty 0 -10 0 12 #fcfcfc #000000 #000000;
#X obj 188 212 route stop dump, f 22;
#X obj 263 357 s \$1-dump;
#X obj 263 243 bng 19 250 50 0 empty empty empty 0 -10 0 12 #fcfcfc #000000 #000000;
#X obj 107 162 route list, f 12;
#X obj 598 453 s, f 11;
#X obj 672 329 list split 1;
#X obj 598 281 t b l, f 11;
#X obj 598 248 list;
#X obj 598 389 list;
#X obj 598 416 list trim;
#X obj 672 385 list prepend \$1;
#X msg 672 416 symbol \$1-get-\$2;
#X obj 107 358 s \$1-midi;
#X obj 841 262 route bang;
#X obj 841 229 r \$1-dump;
#X text 839 191 Output all params on dump, f 16;
#X obj 943 365 s \$1-params;
#X text 376 233 Forward all incoming params, f 10;
#X text 515 307 Forward parameter messages to bop.p.param objects, f 13;
#X obj 908 449 list prepend dump;
#X obj 908 473 list trim;
#X obj 909 571 outlet;
#X obj 37 612 outlet;
#X text 18 197 passthrough;
#X text 922 610 dump;
#X msg 198 277 stop;
#X obj 117 212 s \$0-out;
#X obj 198 301 s \$0-out;
#X obj 366 301 s \$0-out;
#X obj 943 333 s \$0-out;
#X obj 37 586 r \$0-out;
#X obj 338 357 s \$1-params;
#X obj 598 213 r \$1-params;
#X text 53 9 recieves messages from parent patcher \, filters out midi messages \, coordinates dumping of parameters \, provides forwarding to [r \$0-get-paramname];
#X connect 0 0 6 0;
#X connect 2 0 28 0;
#X connect 2 0 1 0;
#X connect 3 0 2 0;
#X connect 3 1 5 0;
#X connect 3 2 31 0;
#X connect 3 2 34 0;
#X connect 5 0 4 0;
#X connect 6 0 15 0;
#X connect 6 0 29 0;
#X connect 6 1 3 0;
#X connect 8 0 13 0;
#X connect 8 1 11 1;
#X connect 9 0 11 0;
#X connect 9 1 8 0;
#X connect 10 0 9 0;
#X connect 11 0 12 0;
#X connect 12 0 7 0;
#X connect 13 0 14 0;
#X connect 14 0 7 1;
#X connect 16 1 22 0;
#X connect 16 1 19 0;
#X connect 16 1 32 0;
#X connect 17 0 16 0;
#X connect 22 0 23 0;
#X connect 23 0 24 0;
#X connect 28 0 30 0;
#X connect 33 0 25 0;
#X connect 35 0 10 0;
