#N canvas 117 74 796 787 12;
#X text 393 89 \$1: parent \$0;
#X text 392 108 \$2: label;
#X text 392 69 arguments:;
#X text 117 119 route based on param name;
#X text 119 83 receives params from parent module;
#X obj 47 153 loadbang;
#X obj 48 343 f \$3;
#X text 391 126 \$3: default;
#X obj 24 624 bop.p.bline~, f 20;
#X obj 24 84 r \$1-params;
#X obj 24 118 route \$2;
#X text 83 929 a signal receive can be used for smoother control;
#X obj 24 569 bop.p.blineseq;
#X text 131 575 handles looping;
#X text 178 616 adds ease-in-out (see help), f 20;
#X obj 22 931 outlet~;
#X obj 303 900 outlet;
#X obj 66 745 route bang;
#X obj 66 778 float, f 14;
#X obj 66 865 s \$1-dump;
#X obj 66 720 r \$1-dump;
#X obj 66 835 list trim;
#X text 32 425 separate number messages, f 10;
#X obj 538 853 s \$1-get-\$2;
#X obj 209 457 list prepend loop;
#X obj 209 481 list trim;
#X text 468 507 < everything else;
#X text 254 436 loop messages;
#X obj 211 513 r \$1-stop;
#X text 252 534 stop from parent;
#X msg 211 532 stop;
#X obj 47 210 pdcontrol;
#X msg 47 184 args 0;
#X obj 47 240 list length;
#X obj 47 265 >= 3;
#X obj 47 289 sel 1;
#X obj 47 313 bng 19 250 50 0 empty empty empty 0 -10 0 12 #fcfcfc #000000 #000000;
#X text 124 213 instantiate default if arg exists;
#X obj 46 683 s~ \$1-get-\$2;
#X obj 24 397 route float list loop bang, f 58;
#X text 403 529 < bangs;
#X obj 66 804 list prepend param \$2;
#X connect 5 0 32 0;
#X connect 6 0 39 0;
#X connect 8 0 15 0;
#X connect 8 0 38 0;
#X connect 8 1 16 0;
#X connect 8 1 18 1;
#X connect 8 1 23 0;
#X connect 9 0 10 0;
#X connect 10 0 39 0;
#X connect 12 0 8 0;
#X connect 17 0 18 0;
#X connect 18 0 41 0;
#X connect 20 0 17 0;
#X connect 21 0 19 0;
#X connect 24 0 25 0;
#X connect 25 0 12 0;
#X connect 28 0 30 0;
#X connect 30 0 12 0;
#X connect 31 0 33 0;
#X connect 32 0 31 0;
#X connect 33 0 34 0;
#X connect 34 0 35 0;
#X connect 35 0 36 0;
#X connect 36 0 6 0;
#X connect 39 0 12 0;
#X connect 39 1 12 0;
#X connect 39 2 24 0;
#X connect 39 3 23 0;
#X connect 39 4 23 0;
#X connect 41 0 21 0;
#X coords 0 787 1 786 146 20 0;
