#N canvas 53 42 1113 768 12;
#X declare -path ./bop.p;
#X text 25 194 \$1: parent \$0;
#X text 24 213 \$2: label;
#X text 24 174 arguments:;
#X floatatom 342 380 5 0 0 0 - - - 0;
#X text 23 139 [bop.p.param \$0 thisParam] -->;
#X obj 294 140 bop.p.param \$0 thisParam;
#X msg 85 348 0.5;
#X obj 85 375 s \$0-set-thisParam;
#X obj 342 356 r \$0-get-thisParam;
#X text 109 61 Smart GUI parameters with state saving and built in message forwarding., f 77;
#X text 292 166 (right-click & open), f 26;
#X obj 865 666 savestate, f 17;
#X obj 864 639 bop.p.autosave \$0;
#X text 705 587 Other messages get picked up in the bop.p.param \, bop.p.toggle \, and bop.p.number objects, f 20;
#X text 862 586 ... and are stored in here when the parent patch is saved, f 22;
#X text 700 558 Incoming lists are treated as MIDI note and velocity;
#X obj 277 518 r~ \$0-get-thisParam;
#X obj 741 145 inlet~, f 18;
#X obj 866 235 outlet;
#X text 878 272 MIDI and messages dump out of right, f 13;
#X obj 741 245 outlet~;
#X text 747 276 Signal out of left, f 9;
#X text 737 119 Signal \, MIDI \, and messages in left, f 36;
#X text 49 282 ------------------------------ PARAMETERS ------------------------------------, f 80;
#X text 80 321 params can be set or get by name as float or signal;
#N canvas 237 274 450 300 fakeModule 0;
#X obj 115 99 bop.p.inlet \$0;
#X obj 80 46 inlet~;
#X connect 1 1 0 0;
#X restore 73 637 pd fakeModule;
#X text 730 506 ---------- STATE SAVING ---------------, f 43;
#X msg 95 605 thisParam 0.8 100;
#X msg 73 571 thisParam 0 3000;
#X text 708 342 ---midi handling---;
#X obj 280 584 *~;
#X obj 293 557 noise~;
#X obj 280 677 dac~;
#X obj 280 623 *~ 0.05;
#X text 67 516 when setting from outside \, an additional slew time is available, f 25;
#X text 301 452 access slewed parameters with [r~ \$0-get-*] for smooth interpolation, f 30;
#X obj 866 199 bop.p.inout \$0;
#X obj 736 373 r \$1-midi-in;
#X obj 735 437 s \$1-midi-out;
#X obj 744 85 declare -path ./bop.p;
#X text 699 42 ---------- In parent patch -------------;
#N canvas 382 419 450 300 audio-thing 0;
#X obj 154 185 outlet~;
#X obj 152 122 inlet~;
#X restore 741 196 pd audio-thing;
#N canvas 208 245 450 300 do-things 0;
#X obj 98 56 inlet;
#X obj 102 222 outlet;
#X connect 0 0 1 0;
#X restore 736 403 pd do-things;
#X connect 6 0 7 0;
#X connect 8 0 3 0;
#X connect 11 0 12 1;
#X connect 11 1 12 0;
#X connect 12 0 11 0;
#X connect 16 0 30 0;
#X connect 17 0 41 0;
#X connect 17 1 36 0;
#X connect 27 0 25 0;
#X connect 28 0 25 0;
#X connect 30 0 33 0;
#X connect 31 0 30 1;
#X connect 33 0 32 0;
#X connect 33 0 32 1;
#X connect 36 0 18 0;
#X connect 37 0 42 0;
#X connect 41 0 20 0;
#X connect 42 0 38 0;
