#N canvas 83 187 712 540 12;
#X text 372 51 \$1: parent \$0;
#X text 371 70 \$2: label;
#X obj 12 124 symbol \$2;
#X text 370 180 send: \$0-from-[label];
#X text 370 202 recv: \$0-to-[label];
#X text 371 109 binds to a ui element in parent patch with sends and receives as so:, f 20;
#X text 371 31 arguments:;
#X obj 131 304 s \$1-params;
#X obj 207 175 f;
#X obj 131 257 pack s f;
#X obj 130 176 symbol \$2;
#X obj 130 59 r \$1-savestate;
#X obj 130 116 t b b;
#X obj 10 10 tgl 20 1 \$1-get-\$2 \$1-set-\$2 keytrack 23 10 0 10 #c7c6ff #000000 #000000 1 1;
#X msg 12 159 label \$1;
#X obj 12 50 loadbang;
#X obj 12 84 bng 19 250 50 0 empty empty empty 0 -10 0 12 #fcfcfc #000000 #000000;
#X obj 12 189 s \$1-set-\$2;
#X obj 221 132 r \$1-get-\$2;
#X obj 390 357 route \$2;
#X obj 390 323 r \$1-params;
#X text 479 322 Receive from parent patch:;
#X obj 390 438 s \$1-set-\$2;
#X obj 390 391 line;
#X obj 299 392 line~;
#X obj 299 438 s~ \$1-get-\$2;
#X obj 298 275 r \$1-get-\$2;
#X text 385 273 receives value from slider;
#X msg 299 343 \$1 100;
#X connect 2 0 14 0;
#X connect 8 0 9 1;
#X connect 9 0 7 0;
#X connect 10 0 9 0;
#X connect 11 0 12 0;
#X connect 12 0 10 0;
#X connect 12 1 8 0;
#X connect 14 0 17 0;
#X connect 15 0 16 0;
#X connect 16 0 2 0;
#X connect 18 0 8 1;
#X connect 19 0 23 0;
#X connect 19 0 24 0;
#X connect 20 0 19 0;
#X connect 23 0 22 0;
#X connect 24 0 25 0;
#X connect 26 0 28 0;
#X connect 28 0 24 0;
#X coords 0 -1 1 1 72 20 2 10 10;
