#N canvas 179 216 860 484 12;
#X obj 101 49 inlet;
#X obj 240 49 inlet slide-up;
#X obj 442 49 inlet slide-down;
#X obj 240 73 f \$1;
#X obj 442 73 f \$2;
#X obj 101 428 outlet;
#X obj 101 245 t f f b;
#X obj 128 277 f;
#X obj 101 319 expr if($f1>$f2 \, $f3+$f4*($f1-$f3) \, $f3+$f5*($f1-$f3));
#X obj 240 97 clip 0 1;
#X obj 442 97 clip 0 1;
#X obj 101 73 f;
#X obj 101 363 f;
#X text 199 391 arguments: \; slide-up coefficient (0.0 - 1.0) \; slide-down coefficient (0.0 - 1.0) \; value of 1 passes input uneffected \;;
#X obj 627 54 inlet auto;
#X connect 0 0 11 0;
#X connect 1 0 3 0;
#X connect 2 0 4 0;
#X connect 3 0 9 0;
#X connect 4 0 10 0;
#X connect 6 0 8 0;
#X connect 6 1 7 1;
#X connect 6 2 7 0;
#X connect 7 0 8 1;
#X connect 8 0 12 0;
#X connect 9 0 8 3;
#X connect 10 0 8 4;
#X connect 11 0 6 0;
#X connect 12 0 8 2;
#X connect 12 0 5 0;
