#N canvas 335 404 433 449 12;
#X obj 70 254 spigot;
#X obj 71 197 f;
#X obj 72 87 f;
#X obj 71 24 r \$1-get-values;
#X obj 90 50 r \$1-get-step;
#X obj 71 124 sel \$2;
#X obj 89 169 r \$1-get-value-\$2;
#X obj 109 220 r \$1-get-on-\$2;
#X obj 70 291 s \$1-value;
#X connect 0 0 8 0;
#X connect 1 0 0 0;
#X connect 2 0 5 0;
#X connect 3 0 2 0;
#X connect 4 0 2 1;
#X connect 5 0 1 0;
#X connect 6 0 1 1;
#X connect 7 0 0 1;
