#N canvas 111 98 574 614 12;
#X text 393 26 \$1: parent \$0;
#X text 392 45 \$2: label;
#X text 392 6 arguments:;
#X text 117 56 route based on param name;
#X text 119 20 receives params from parent module;
#X obj 47 186 loadbang;
#X obj 47 216 f \$3;
#X text 391 63 \$3: default;
#X obj 24 261 bop.p.bline~, f 20;
#X obj 24 21 r \$1-params;
#X obj 24 55 route \$2;
#X text 83 566 a signal receive can be used for smoother control;
#X obj 24 146 bop.p.blineseq;
#X text 131 152 handles looping;
#X text 178 253 adds ease-in-out (see help), f 20;
#X obj 22 568 outlet~;
#X obj 303 537 outlet;
#X obj 66 382 route bang;
#X obj 66 415 float, f 14;
#X obj 66 441 list prepend \$2;
#X obj 66 502 s \$1-dump;
#X obj 66 357 r \$1-dump;
#X obj 66 472 list trim;
#X text 86 215 instantiate default;
#X obj 358 536 s \$0-get-\$2;
#X obj 24 94 route float list, f 50;
#X text 168 120 separate number messages;
#X text 379 134 < symbols;
#X connect 5 0 6 0;
#X connect 6 0 8 0;
#X connect 8 0 15 0;
#X connect 8 1 16 0;
#X connect 8 1 18 1;
#X connect 8 1 24 0;
#X connect 9 0 10 0;
#X connect 10 0 25 0;
#X connect 12 0 8 0;
#X connect 17 0 18 0;
#X connect 18 0 19 0;
#X connect 19 0 22 0;
#X connect 21 0 17 0;
#X connect 22 0 20 0;
#X connect 25 0 12 0;
#X connect 25 1 12 0;
#X connect 25 2 24 0;
#X coords 0 614 1 613 146 20 0;
