#N canvas 835 37 544 787 10;
#X msg 82 229 1000 \$1;
#X obj 82 250 /;
#X obj 82 383 vline~;
#X obj 132 411 noise~;
#X obj 82 425 *~;
#X obj 20 640 delwrite~ \$0-del 100;
#X obj 172 524 delread~ \$0-del;
#X msg 12 432 clear;
#X obj 82 756 outlet~;
#X obj 82 466 lop~;
#X obj 82 489 hip~;
#X msg 192 306 0 \, 1 \$1;
#X obj 192 327 vline~;
#X obj 192 390 cos~;
#X obj 82 271 t f f;
#X obj 82 313 pack f f;
#X msg 82 362 1 \$1 \, 0 \$2 \$1;
#X obj 120 475 / 2;
#X obj 201 137 > 0;
#X obj 82 187 pipe 2;
#X obj 272 590 sel 1;
#X obj 302 611 del 2;
#X msg 302 632 1 0;
#X msg 272 632 0 1;
#X obj 272 653 line~;
#X obj 82 510 lop~;
#X obj 82 292 * 8;
#X obj 346 611 env~;
#X obj 346 632 change;
#X obj 346 653 sel 0;
#X msg 346 674 0;
#X msg 376 674 1;
#X obj 455 727 switch~ 1 1 1;
#X obj 82 571 biquad~ 0 0 0.5 0.5 0;
#X obj 192 411 *~ 0.1;
#X obj 192 369 -~ 0.25;
#X obj 298 512 f \$1;
#X msg 132 390 seed \$1;
#X obj 120 445 * 3;
#X obj 288 185 sel 0;
#X obj 288 206 - 1;
#X obj 288 227 / 126;
#X msg 288 248 1 \$1;
#X obj 288 269 -;
#X obj 288 311 + 100;
#X obj 288 332 dbtorms;
#X obj 288 353 pipe 2;
#X obj 82 446 *~;
#X obj 361 358 pipe 2;
#X msg 361 295 2 \$1;
#X obj 361 316 pow;
#X obj 172 545 *~ 0.995;
#X obj 288 290 * 0;
#X obj 82 531 lop~ 3000;
#X obj 20 614 hip~ 4;
#X obj 361 274 * 2.5;
#X obj 361 337 / 1.5;
#X obj 127 292 * 2;
#X obj 192 285 * 10;
#X obj 192 348 *~ 10;
#X obj 82 404 pow~ 2;
#X obj 80 690 *~;
#X obj 76 33 inlet;
#X obj 196 116 t f f;
#X obj 76 124 list prepend;
#X obj 76 145 route 1;
#X obj 80 720 hip~ 5;
#X obj 102 68 unpack;
#X obj 102 89 mtof;
#X connect 0 0 1 0;
#X connect 1 0 6 0;
#X connect 1 0 14 0;
#X connect 2 0 60 0;
#X connect 3 0 4 1;
#X connect 4 0 47 0;
#X connect 6 0 51 0;
#X connect 7 0 5 0;
#X connect 7 0 9 0;
#X connect 7 0 10 0;
#X connect 7 0 25 0;
#X connect 7 0 33 0;
#X connect 7 0 53 0;
#X connect 7 0 54 0;
#X connect 9 0 10 0;
#X connect 10 0 25 0;
#X connect 11 0 12 0;
#X connect 12 0 59 0;
#X connect 13 0 34 0;
#X connect 14 0 26 0;
#X connect 14 1 57 0;
#X connect 14 1 58 0;
#X connect 15 0 16 0;
#X connect 16 0 2 0;
#X connect 17 0 10 1;
#X connect 18 0 20 0;
#X connect 18 0 64 1;
#X connect 19 0 0 0;
#X connect 19 0 38 0;
#X connect 19 0 17 0;
#X connect 20 0 21 0;
#X connect 20 0 23 0;
#X connect 21 0 22 0;
#X connect 21 0 7 0;
#X connect 21 0 31 0;
#X connect 21 0 36 0;
#X connect 22 0 24 0;
#X connect 23 0 24 0;
#X connect 24 0 61 1;
#X connect 25 0 53 0;
#X connect 26 0 15 0;
#X connect 27 0 28 0;
#X connect 28 0 29 0;
#X connect 29 0 30 0;
#X connect 30 0 32 0;
#X connect 31 0 32 0;
#X connect 33 0 54 0;
#X connect 33 0 27 0;
#X connect 33 0 61 0;
#X connect 34 0 4 1;
#X connect 35 0 13 0;
#X connect 36 0 37 0;
#X connect 37 0 3 0;
#X connect 38 0 9 1;
#X connect 38 0 25 1;
#X connect 39 1 40 0;
#X connect 40 0 41 0;
#X connect 41 0 42 0;
#X connect 41 0 55 0;
#X connect 42 0 43 0;
#X connect 43 0 52 0;
#X connect 44 0 45 0;
#X connect 45 0 46 0;
#X connect 46 0 47 1;
#X connect 47 0 9 0;
#X connect 48 0 38 1;
#X connect 49 0 50 0;
#X connect 50 0 56 0;
#X connect 51 0 33 0;
#X connect 52 0 44 0;
#X connect 53 0 33 0;
#X connect 54 0 5 0;
#X connect 55 0 49 0;
#X connect 56 0 48 0;
#X connect 57 0 15 1;
#X connect 58 0 11 0;
#X connect 59 0 35 0;
#X connect 60 0 4 0;
#X connect 61 0 66 0;
#X connect 62 0 67 0;
#X connect 63 0 18 0;
#X connect 63 1 39 0;
#X connect 64 0 65 0;
#X connect 65 0 19 0;
#X connect 66 0 8 0;
#X connect 67 0 68 0;
#X connect 67 1 63 0;
#X connect 68 0 64 0;
