#N canvas 663 187 763 623 12;
#X obj 441 435 list length;
#X obj 426 578 bop.p.nth, f 44;
#X obj 426 92 t b f, f 44;
#X msg 441 486 range 0 \$1;
#X obj 441 456 - 1;
#X obj 426 71 change;
#X obj 584 653 symbol;
#X obj 436 650 list;
#X msg 436 692 label \$1;
#X obj 101 101 cnv 15 144 18 empty \$1-set-\$2-enum-current itemOne 3 10 0 12 #e3c6ff #ffffff 0;
#X text 94 218 \$1: parent \$0;
#X text 93 345 send: \$0-from-[label];
#X text 93 367 recv: \$0-to-[label];
#X text 94 274 binds to a ui element in parent patch with sends and receives as so:, f 20;
#X text 93 198 arguments:;
#X text 93 237 \$2: label of target numbox;
#X obj 426 44 r \$1-get-\$2;
#X obj 441 522 s \$1-set-\$2;
#X obj 584 698 s \$1-get-\$2-enum;
#X obj 436 748 s \$1-set-\$2-enum-current;
#X obj 462 133 r \$1-set-\$2-enum;
#X obj 426 310 list, f 36;
#X obj 462 168 t b b a, f 30;
#X floatatom 298 242 5 0 0 0 - - - 0;
#X msg 298 198 set \$1;
#X obj 298 135 r \$1-get-\$2;
#X obj 298 271 s \$1-set-\$2;
#X obj 423 374 t l l;
#X connect 0 0 4 0;
#X connect 1 0 6 0;
#X connect 1 0 7 0;
#X connect 2 0 21 0;
#X connect 2 1 1 1;
#X connect 3 0 17 0;
#X connect 4 0 3 0;
#X connect 5 0 2 0;
#X connect 6 0 18 0;
#X connect 7 0 8 0;
#X connect 8 0 19 0;
#X connect 16 0 5 0;
#X connect 20 0 22 0;
#X connect 21 0 27 0;
#X connect 22 0 23 0;
#X connect 22 1 21 0;
#X connect 22 2 21 1;
#X connect 23 0 26 0;
#X connect 24 0 23 0;
#X connect 25 0 24 0;
#X connect 27 0 1 0;
#X connect 27 1 0 0;
#X coords 0 -1 1 1 146 20 2 100 100;
