#N canvas 573 37 880 891 12;
#X obj 84 423 slop~ 1e+09 0 0 0 0, f 51;
#X obj 186 339 t f b;
#X obj 186 363 /;
#X obj 221 363 samplerate~;
#X obj 186 285 loadbang;
#X msg 186 309 1;
#X obj 84 483 outlet~;
#X obj 84 49 inlet~;
#X obj 507 173 expr if($f1 == 0 \, 1e+09 \, 1/$f1);
#X obj 245 174 expr if($f1 == 0 \, 1e+09 \, 1/$f1);
#X obj 507 142 * 10;
#X obj 507 100 inlet slide-down;
#X obj 245 111 inlet slide-up;
#X obj 245 135 * 10;
#X text 233 56 similar to [slide~] in max with arbitrary up/down units;
#X connect 0 0 6 0;
#X connect 1 0 2 0;
#X connect 1 1 3 0;
#X connect 2 0 0 2;
#X connect 2 0 0 4;
#X connect 3 0 2 1;
#X connect 4 0 5 0;
#X connect 5 0 1 0;
#X connect 7 0 0 0;
#X connect 8 0 0 3;
#X connect 9 0 0 5;
#X connect 10 0 8 0;
#X connect 11 0 10 0;
#X connect 12 0 13 0;
#X connect 13 0 9 0;
