#N canvas 238 246 765 564 12;
#X obj 107 117 inlet;
#X obj 188 357 s \$1-stop;
#X obj 188 243 bng 19 250 50 0 empty empty empty 0 -10 0 12 #fcfcfc #000000 #000000;
#X obj 188 212 route stop dump, f 22;
#X obj 263 357 s \$1-dump;
#X obj 263 243 bng 19 250 50 0 empty empty empty 0 -10 0 12 #fcfcfc #000000 #000000;
#X obj 107 162 route list, f 12;
#X obj 107 358 s \$1-midi;
#X obj 521 242 route bang;
#X obj 521 209 r \$1-dump;
#X text 519 171 Output all params on dump, f 16;
#X obj 623 325 s \$1-params;
#X text 376 233 Forward all incoming params, f 10;
#X obj 588 365 list prepend dump;
#X obj 588 389 list trim;
#X obj 589 467 outlet;
#X obj 37 482 outlet;
#X text 18 197 passthrough;
#X text 662 466 dump;
#X msg 198 277 stop;
#X obj 117 212 s \$0-out;
#X obj 198 301 s \$0-out;
#X obj 366 301 s \$0-out;
#X obj 623 293 s \$0-out;
#X obj 37 456 r \$0-out;
#X obj 338 357 s \$1-params;
#X text 53 9 recieves messages from parent patcher \, filters out midi messages \, coordinates dumping of parameters \, provides forwarding to [r \$0-get-paramname];
#X connect 0 0 6 0;
#X connect 2 0 19 0;
#X connect 2 0 1 0;
#X connect 3 0 2 0;
#X connect 3 1 5 0;
#X connect 3 2 22 0;
#X connect 3 2 25 0;
#X connect 5 0 4 0;
#X connect 6 0 7 0;
#X connect 6 0 20 0;
#X connect 6 1 3 0;
#X connect 8 1 13 0;
#X connect 8 1 11 0;
#X connect 8 1 23 0;
#X connect 9 0 8 0;
#X connect 13 0 14 0;
#X connect 14 0 15 0;
#X connect 19 0 21 0;
#X connect 24 0 16 0;
