#N canvas 483 37 735 891 12;
#X text 476 44 \$1: parent \$0;
#X text 475 63 \$2: label;
#X text 475 24 arguments:;
#X obj 501 245 loadbang;
#X obj 173 747 outlet;
#X obj 306 339 route bang;
#X obj 225 710 list trim;
#X obj 501 302 pdcontrol;
#X msg 501 276 args 0;
#X obj 501 355 list length;
#X obj 501 380 >= 3;
#X obj 306 392 symbol \$2, f 14;
#X obj 524 473 list split 2;
#X obj 501 326 t l l, f 15;
#X obj 524 439 list, f 12;
#X obj 501 404 sel 0 1;
#X msg 501 561 list NULL;
#X obj 501 585 t b l;
#X obj 501 651 s \$0-fire;
#X obj 306 264 r \$1-get-dump;
#X obj 225 747 s \$1-get-dump;
#X text 475 83 \$3... : arg1 \, arg2 \, etc.;
#X obj 86 245 r \$1-get-\$2;
#X obj 86 389 int;
#X obj 564 506 s \$0-enumlist;
#X obj 533 624 s \$0-enum;
#X text 502 216 init list;
#X obj 85 561 bop.p.nth, f 19;
#X obj 85 526 list;
#X obj 108 479 r \$0-enumlist;
#X obj 85 448 t b f, f 19;
#X obj 306 418 list prepend enum;
#X obj 225 619 list prepend;
#X text 81 52 dump and output indexed enum when receiving from associated named param or dump message, f 36;
#X obj 82 141 inlet enumlist;
#X obj 82 198 s \$0-enumlist;
#X obj 82 165 list;
#X obj 88 295 t b f;
#X connect 3 0 8 0;
#X connect 5 0 11 0;
#X connect 5 0 23 0;
#X connect 6 0 20 0;
#X connect 6 0 4 0;
#X connect 7 0 13 0;
#X connect 8 0 7 0;
#X connect 9 0 10 0;
#X connect 10 0 15 0;
#X connect 11 0 31 0;
#X connect 12 1 24 0;
#X connect 13 0 9 0;
#X connect 13 1 14 1;
#X connect 14 0 12 0;
#X connect 15 0 16 0;
#X connect 15 1 14 0;
#X connect 16 0 17 0;
#X connect 19 0 5 0;
#X connect 22 0 37 0;
#X connect 23 0 30 0;
#X connect 27 0 32 0;
#X connect 28 0 27 0;
#X connect 29 0 28 1;
#X connect 30 0 28 0;
#X connect 30 1 27 1;
#X connect 31 0 32 1;
#X connect 32 0 6 0;
#X connect 34 0 36 0;
#X connect 36 0 35 0;
#X connect 37 0 5 0;
#X connect 37 1 23 1;
#X coords 0 891 1 890 146 20 0;
