#N canvas 0 37 1470 891 12;
#X text 525 53 \$1: parent \$0;
#X text 523 213 send: \$0-from-[label];
#X text 523 235 recv: \$0-to-[label];
#X text 524 142 binds to a ui element in parent patch with sends and receives as so:, f 20;
#X text 524 33 arguments:;
#X obj 290 280 s \$1-params;
#X obj 366 162 f;
#X obj 290 244 pack s f;
#X obj 289 163 symbol \$2;
#X obj 289 83 r \$1-savestate;
#X obj 289 125 t b b;
#X obj 10 10 nbx 7 20 0 256 0 0 \$1-get-\$2 \$1-set-\$2 wave-1 77 10 0 10 #c6feff #000000 #000000 0 256;
#X obj 28 85 loadbang;
#X msg 28 185 label \$1;
#X obj 28 150 symbol \$2;
#X text 524 72 \$2: label;
#X obj 28 117 bng 19 250 50 0 empty empty empty 0 -10 0 12 #fcfcfc #000000 #000000;
#X obj 28 215 s \$1-set-\$2;
#X obj 384 122 r \$1-get-\$2;
#X obj 340 435 r \$1-get-\$2;
#X obj 295 396 loadbang;
#X msg 340 459 0;
#X obj 295 420 f \$3;
#X obj 293 538 s \$1-set-\$2;
#X text 275 359 ----DEFAULTS----;
#X text 20 58 ----LABEL----;
#X text 272 46 ----SAVESTATE----;
#X text 525 92 \$3: default;
#X obj 293 504 spigot 1;
#X text 27 359 ----MESSAGES and EASING----;
#X obj 33 389 r \$1-get-\$2;
#X obj 33 428 list prepend \$2;
#X obj 33 517 s \$1-from-gui;
#X obj 33 461 list trim;
#X connect 6 0 7 1;
#X connect 7 0 5 0;
#X connect 8 0 7 0;
#X connect 9 0 10 0;
#X connect 10 0 8 0;
#X connect 10 1 6 0;
#X connect 12 0 16 0;
#X connect 13 0 17 0;
#X connect 14 0 13 0;
#X connect 16 0 14 0;
#X connect 18 0 6 1;
#X connect 19 0 21 0;
#X connect 20 0 22 0;
#X connect 21 0 28 1;
#X connect 22 0 28 0;
#X connect 28 0 23 0;
#X connect 30 0 31 0;
#X connect 31 0 33 0;
#X connect 33 0 32 0;
#X coords 0 -1 1 1 146 20 2 10 10;
