#N canvas 49 146 1035 688 12;
#X text 191 35 \$1: parent \$0;
#X text 190 54 \$2: label;
#X obj 36 379 t b f, f 13;
#X obj 36 512 pack s f, f 13;
#X obj 36 463 symbol \$2;
#X obj 124 418 * 1000;
#X obj 124 445 int;
#X obj 124 472 / 1000;
#X text 4 123 send: \$0-from-[label];
#X text 4 145 recv: \$0-to-[label];
#X text 5 52 binds to a ui element in parent patch with sends and receives as so:, f 20;
#X text 190 15 arguments:;
#X obj 13 10 hsl 141 20 0 1 0 0 \$1-get-\$2 \$1-set-\$2 filter:\ 0.434 3 10 0 10 #e3c6ff #c6feff #000000 0 1;
#X obj 437 210 s \$1-params;
#X obj 516 125 f;
#X obj 437 163 pack s f, f 12;
#X obj 437 126 symbol \$2;
#X obj 433 57 r \$1-savestate;
#X obj 435 88 t b b, f 12;
#X obj 36 576 s \$1-set-\$2;
#X obj 534 90 r \$1-get-\$2;
#X obj 36 324 r \$1-get-\$2;
#X text 534 211 send params parent savestate;
#X obj 45 417 loadbang;
#X msg 36 546 label \$1:\\\ \$2;
#X obj 866 109 r \$1-get-\$2;
#X text 36 287 ----LABEL----;
#X text 429 27 ----SAVESTATE----;
#X obj 821 70 loadbang;
#X msg 866 133 0;
#X obj 821 94 f \$3;
#X obj 819 212 s \$1-set-\$2;
#X text 801 33 ----DEFAULTS----;
#X text 189 72 \$3: default;
#X obj 819 178 spigot 1;
#X obj 387 315 r \$1-get-\$2;
#X obj 387 354 list prepend \$2;
#X obj 387 423 s \$1-from-gui;
#X obj 387 387 list trim;
#X obj 548 315 r \$1-to-gui;
#X obj 548 339 route \$2;
#X text 381 285 ----MESSAGES----;
#X obj 548 398 s \$1-set-\$2;
#X msg 548 368 set \$1;
#X obj 144 327 r \$1-to-gui;
#X obj 144 354 route \$2;
#X connect 2 0 4 0;
#X connect 2 1 5 0;
#X connect 3 0 24 0;
#X connect 4 0 3 0;
#X connect 5 0 6 0;
#X connect 6 0 7 0;
#X connect 7 0 3 1;
#X connect 14 0 15 1;
#X connect 15 0 13 0;
#X connect 16 0 15 0;
#X connect 17 0 18 0;
#X connect 18 0 16 0;
#X connect 18 1 14 0;
#X connect 20 0 14 1;
#X connect 21 0 2 0;
#X connect 23 0 4 0;
#X connect 24 0 19 0;
#X connect 25 0 29 0;
#X connect 28 0 30 0;
#X connect 29 0 34 1;
#X connect 30 0 34 0;
#X connect 34 0 31 0;
#X connect 35 0 36 0;
#X connect 36 0 38 0;
#X connect 38 0 37 0;
#X connect 39 0 40 0;
#X connect 40 0 43 0;
#X connect 43 0 42 0;
#X connect 44 0 45 0;
#X connect 45 0 2 0;
#X coords 0 -1 1 1 146 20 2 10 10;
