#N canvas 203 47 1235 837 12;
#X obj 76 28 inlet;
#X text 212 16 args \; \$1 voice number \; \$2 parent \$0 \;;
#X msg 81 290 read -resize \$1 \$2-sample-array-\$3;
#X obj 81 227 pack s \$2 \$1;
#X obj 81 369 soundfiler, f 23;
#X obj 350 23 array define \$2-sample-array-\$1;
#X obj 81 179 route read;
#X obj 877 1551 tabread4~ \$2-sample-array-\$1;
#X obj 49 453 array size \$2-sample-array-\$1, f 21;
#X obj 49 256 t b l;
#X text 95 333 load audio into ram;
#X obj 114 426 s \$2-samplerate-\$1;
#X obj 59 498 s \$2-size-\$1;
#X msg 249 393 \$1;
#X obj 49 533 /, f 29;
#X obj 76 57 s \$2-inlet-\$1;
#X obj 81 156 r \$2-inlet-\$1;
#X obj 492 168 r \$2-inlet-\$1;
#X obj 48 564 s \$2-duration-\$1;
#X obj 492 201 route play;
#X obj 877 837 phasor~, f 38;
#X msg 1140 605 0;
#X msg 881 685 0;
#X obj 877 2046 hip~ 5;
#X obj 877 2092 outlet~;
#X obj 877 1240 *~;
#X obj 895 1209 r \$2-samplerate-\$1;
#X obj 881 311 > 0;
#X text 914 313 todo - handle velocity;
#X text 350 47 example read message \; read -resize /Users/bob/repos/bop/samples/bank000/PreparedPiano093.wav 11-sample-array-1003, f 97;
#X text 51 117 ---- LOAD SAMPLES ----;
#X text 1648 2390 comment;
#X text 867 142 [target] play [pitch-offset] [velocity];
#X obj 492 324 sig~;
#X obj 765 775 *~, f 17;
#X msg 1107 605 1;
#X obj 601 350 r~ \$2-get-root;
#X obj 492 477 -~, f 16;
#X obj 663 589 r \$2-duration-\$1;
#X obj 1107 561 t b b;
#X obj 663 618 expr 1/$f1;
#X obj 663 647 sig~;
#X text 700 654 duration in hz;
#X obj 490 704 *~, f 25;
#X obj 619 382 r~ \$2-get-tune;
#X obj 601 444 +~;
#X obj 491 588 expr~ if($v1 >= 0 \, $v1/12 + 1 \, 1/(abs($v1/12)+1)), f 21;
#X obj 619 406 *~ -1;
#X text 496 518 pitch offset in semitones, f 17;
#X text 498 647 pitch offset ratio;
#X obj 881 371 sel 0 1, f 18;
#X obj 882 643 r \$0-sample-end;
#X obj 942 415 s \$0-sample-start;
#X obj 1107 525 r \$0-sample-start;
#X obj 875 1071 expr~ ($v1 - $v2) / $v3;
#X obj 1005 935 r \$2-get-loop-start;
#X obj 954 1013 sig~;
#X obj 987 971 f;
#X obj 986 909 r \$0-sample-end;
#X obj 954 878 r \$0-sample-start;
#X msg 954 902 0;
#X obj 1000 1009 r~ \$2-get-loop-length;
#X obj 875 1095 wrap~;
#X obj 877 1173 expr~ $v1 * $v2 + $v3;
#X obj 949 1118 r~ \$2-get-loop-length;
#X obj 1021 1148 r~ \$2-get-loop-start;
#X obj 895 1621 r \$0-sample-start;
#X obj 895 1842 line~;
#X msg 895 1754 1 \$1;
#X obj 877 1925 *~;
#X obj 895 1724 f;
#X obj 913 1652 r \$2-get-fade-in;
#X obj 880 557 s \$0-sample-end;
#X obj 913 1690 * 1000;
#X obj 598 1205 threshold~ 0.999 10 0.9988 10;
#X obj 598 1229 bng 19 250 50 0 empty empty empty 0 -10 0 12 #fcfcfc #000000 #000000;
#X obj 598 1328 s \$0-sample-end;
#X obj 637 1241 r \$2-get-loop;
#X obj 637 1265 == 0;
#X obj 598 1289 spigot;
#X obj 377 1207 threshold~ 0.999 10 0.9988 10;
#X obj 376 1058 r~ \$2-get-fade-out;
#X obj 376 1112 expr~ $v1 + 1 * $v2;
#X obj 377 1246 bng 19 250 50 0 empty empty empty 0 -10 0 12 #fcfcfc #000000 #000000;
#X obj 1214 1678 r \$2-duration-\$1;
#X obj 1214 1702 * 1000;
#X obj 1196 1654 r \$2-get-fade-out;
#X obj 1196 1739 *;
#X obj 1178 1775 f;
#X msg 1178 1801 0 \$1;
#X obj 1178 1618 r \$0-fade-out-start;
#X obj 378 1326 s \$0-fade-out-start;
#X obj 895 1879 pow~ 3;
#X obj 1059 1619 r \$0-sample-end;
#X msg 1059 1643 0 10;
#X obj 375 1082 clip~ 0 0.99;
#X obj 416 1244 r \$2-get-loop;
#X obj 416 1268 == 0;
#X obj 377 1292 spigot;
#X obj 899 447 r \$2-get-loop;
#X obj 881 472 f;
#X obj 881 496 sel 0 1;
#X obj 904 530 s \$0-fade-out-start;
#X text 913 1921 todo: optimize with a switch~;
#X obj 491 254 unpack f f f, f 112;
#X text 1252 377 0: repitch \; 1: keymap \;;
#X obj 1273 347 s \$0-mode;
#X obj 1339 1400 symbol \$2-sample-array-\$1;
#X text 1285 1478 args \; \$1 voice number \; \$2 parent \$0 \;;
#X obj 1108 1368 r \$2-get-sample;
#X text 1348 1374 1: keymap \;;
#X obj 1108 1399 makefilename \$2-sample-array-%d;
#X obj 1070 1437 symbol;
#X text 1105 1342 0: repitch \;;
#X obj 1070 1280 r \$0-mode;
#X obj 1070 1304 sel 0 1, f 35;
#X obj 1070 1474 list prepend set;
#X obj 1070 1498 list trim;
#X connect 0 0 15 0;
#X connect 2 0 4 0;
#X connect 3 0 9 0;
#X connect 4 1 13 0;
#X connect 6 0 3 0;
#X connect 7 0 69 0;
#X connect 8 0 12 0;
#X connect 8 0 14 0;
#X connect 9 0 8 0;
#X connect 9 1 2 0;
#X connect 13 0 11 0;
#X connect 13 0 14 1;
#X connect 14 0 18 0;
#X connect 16 0 6 0;
#X connect 17 0 19 0;
#X connect 19 0 104 0;
#X connect 20 0 54 0;
#X connect 21 0 20 1;
#X connect 22 0 34 1;
#X connect 23 0 24 0;
#X connect 25 0 7 0;
#X connect 26 0 25 1;
#X connect 27 0 50 0;
#X connect 33 0 37 0;
#X connect 34 0 20 0;
#X connect 35 0 34 1;
#X connect 36 0 45 0;
#X connect 37 0 46 0;
#X connect 38 0 40 0;
#X connect 39 0 35 0;
#X connect 39 1 21 0;
#X connect 40 0 41 0;
#X connect 41 0 43 1;
#X connect 43 0 34 0;
#X connect 44 0 47 0;
#X connect 45 0 37 1;
#X connect 46 0 43 0;
#X connect 47 0 45 1;
#X connect 50 0 100 0;
#X connect 50 1 52 0;
#X connect 51 0 22 0;
#X connect 53 0 39 0;
#X connect 54 0 62 0;
#X connect 55 0 57 1;
#X connect 56 0 54 1;
#X connect 57 0 56 0;
#X connect 58 0 57 0;
#X connect 59 0 60 0;
#X connect 60 0 56 0;
#X connect 61 0 54 2;
#X connect 62 0 63 0;
#X connect 62 0 74 0;
#X connect 62 0 82 1;
#X connect 63 0 25 0;
#X connect 64 0 63 1;
#X connect 65 0 63 2;
#X connect 66 0 70 0;
#X connect 67 0 92 0;
#X connect 68 0 67 0;
#X connect 69 0 23 0;
#X connect 70 0 68 0;
#X connect 71 0 73 0;
#X connect 73 0 70 1;
#X connect 74 0 75 0;
#X connect 75 0 79 0;
#X connect 77 0 78 0;
#X connect 78 0 79 1;
#X connect 79 0 76 0;
#X connect 80 0 83 0;
#X connect 81 0 95 0;
#X connect 82 0 80 0;
#X connect 83 0 98 0;
#X connect 84 0 85 0;
#X connect 85 0 87 1;
#X connect 86 0 87 0;
#X connect 87 0 88 1;
#X connect 88 0 89 0;
#X connect 89 0 67 0;
#X connect 90 0 88 0;
#X connect 92 0 69 1;
#X connect 93 0 94 0;
#X connect 94 0 67 0;
#X connect 95 0 82 0;
#X connect 96 0 97 0;
#X connect 97 0 98 1;
#X connect 98 0 91 0;
#X connect 99 0 100 1;
#X connect 100 0 101 0;
#X connect 101 0 72 0;
#X connect 101 1 102 0;
#X connect 104 0 33 0;
#X connect 104 1 27 0;
#X connect 104 2 106 0;
#X connect 107 0 116 0;
#X connect 109 0 111 0;
#X connect 111 0 112 1;
#X connect 112 0 116 0;
#X connect 114 0 115 0;
#X connect 115 0 112 0;
#X connect 115 1 107 0;
#X connect 116 0 117 0;
#X connect 117 0 7 0;
