#N canvas 705 345 691 583 12;
#X obj 246 53 inlet;
#X obj 313 52 inlet;
#X obj 238 475 outlet;
#X text 367 56 set mono bool;
#X text 181 54 midi in;
#X obj 237 251 unpack, f 8;
#X obj 237 280 poly 1 1;
#X obj 318 104 t f b;
#X obj 237 307 pack f f f;
#X obj 437 306 pack f f f;
#X obj 437 248 unpack, f 8;
#X obj 236 192 route 1 0;
#X obj 233 166 list prepend;
#X obj 351 143 s \$0-stop;
#X obj 237 372 list;
#X text 313 431 outputs list: \; voicenum note velocity;
#X msg 160 274 stop;
#X msg 359 271 stop;
#X text 399 384 \$1 parent \$0 \; \$2 number of poly voices;
#X obj 437 277 poly \$2 1;
#X obj 359 247 r \$1-stop;
#X obj 160 250 r \$1-stop;
#X connect 0 0 12 0;
#X connect 1 0 7 0;
#X connect 5 0 6 0;
#X connect 5 1 6 1;
#X connect 6 0 8 0;
#X connect 6 1 8 1;
#X connect 6 2 8 2;
#X connect 7 0 12 1;
#X connect 7 1 13 0;
#X connect 8 0 14 0;
#X connect 9 0 14 0;
#X connect 10 0 19 0;
#X connect 10 1 19 1;
#X connect 11 0 5 0;
#X connect 11 1 10 0;
#X connect 12 0 11 0;
#X connect 14 0 2 0;
#X connect 16 0 6 0;
#X connect 17 0 19 0;
#X connect 19 0 9 0;
#X connect 19 1 9 1;
#X connect 19 2 9 2;
#X connect 20 0 17 0;
#X connect 21 0 16 0;
