#N canvas 3 106 841 768 12;
#X obj 234 80 inlet~;
#X text 300 80 FM;
#X text 176 26 \$1 parent \$0 \; \$2 label;
#X obj 424 705 *~, f 18;
#X obj 542 676 pow~ 4;
#X obj 57 311 +~, f 26;
#X obj 57 77 inlet~;
#X text 105 80 freq;
#X obj 542 652 r~ \$1-get-\$2-gain;
#X obj 424 748 outlet~;
#X msg 615 80 list sine triangle saw pulse;
#X obj 645 114 list length;
#X msg 645 138 range 0 \$1;
#X obj 655 163 s \$1-set-\$2-wave;
#X obj 615 203 s \$1-set-\$2-wave-enum;
#X obj 611 44 loadbang;
#N canvas 344 224 861 599 band-limited-oscillators 0;
#N canvas 0 22 450 425 rlpf 0;
#X obj 177 80 samplerate~;
#X obj 229 12 loadbang;
#X obj 45 202 sig~ 1;
#X obj 45 250 -~;
#X obj 177 122 / 2;
#X obj 156 318 outlet~;
#X obj 177 101 t f f;
#X obj 82 123 inlet~;
#X obj 12 123 inlet~;
#X msg 229 33 bang;
#X obj 269 211 inlet;
#X msg 269 232 clear;
#X msg 256 123 1;
#X obj 256 144 atan;
#X obj 229 54 t b b;
#X obj 82 144 clip~ 0 22050;
#X obj 256 165 * -8;
#X obj 189 212 exp~;
#X obj 12 276 *~;
#X obj 60 228 abs~;
#X obj 156 292 rpole~;
#X obj 189 191 *~ -6.28319;
#X obj 159 170 /~ 44100;
#X text 12 13 One-pole Lowpass Filter;
#X text 8 369 https://www.musicdsp.org/en/latest/Filters/237-one-pole-filter-lp-and-hp.html;
#X text 8 349 Reference:;
#X text 269 191 (I3) Clear internal state;
#X text 206 318 (O1) Output;
#X text 12 103 (I1) Input;
#X text 82 103 (I2) Frequency;
#X connect 0 0 6 0;
#X connect 1 0 9 0;
#X connect 2 0 3 0;
#X connect 3 0 18 1;
#X connect 4 0 15 2;
#X connect 6 0 4 0;
#X connect 6 1 22 1;
#X connect 7 0 15 0;
#X connect 8 0 18 0;
#X connect 9 0 14 0;
#X connect 10 0 11 0;
#X connect 11 0 20 0;
#X connect 12 0 13 0;
#X connect 13 0 16 0;
#X connect 14 0 0 0;
#X connect 14 1 12 0;
#X connect 15 0 22 0;
#X connect 16 0 21 1;
#X connect 17 0 20 1;
#X connect 17 0 19 0;
#X connect 18 0 20 0;
#X connect 19 0 3 1;
#X connect 20 0 5 0;
#X connect 21 0 17 0;
#X connect 22 0 21 0;
#X restore 141 253 pd rlpf;
#X obj 110 67 phasor~;
#X obj 293 47 *~;
#X obj 392 250 +~;
#N canvas 1329 474 147 163 1/Fs 0;
#X obj 12 54 samplerate~;
#X obj 12 12 loadbang;
#X msg 12 75 1 \$1;
#X obj 12 96 /;
#X msg 12 33 bang;
#X obj 12 117 outlet;
#X connect 0 0 2 0;
#X connect 1 0 4 0;
#X connect 2 0 3 0;
#X connect 3 0 5 0;
#X connect 4 0 0 0;
#X restore 308 21 pd 1/Fs;
#X obj 392 292 outlet~;
#X obj 392 271 *~ -1;
#X text 23 477 http://www.martin-finke.de/blog/articles/audio-plugins-018-polyblep-oscillator/;
#X text 23 457 https://github.com/enzienaudio/heavylib/tree/master/hv.osc;
#X obj 110 31 inlet~;
#N canvas 1008 608 416 294 polyblep 0;
#X obj 167 225 -~;
#X obj 230 127 -~;
#X obj 230 12 sig~ 1;
#X obj 177 74 /~;
#X obj 167 252 outlet~;
#X obj 12 173 *~;
#X obj 162 173 *~;
#X obj 12 90 *~;
#X obj 162 147 -~;
#X obj 47 54 inlet~;
#X text 47 34 (I1) Phase;
#X obj 12 147 -~ 1;
#X obj 177 120 -~ 1;
#X text 245 38 (I2) Normalised Frequency;
#X obj 32 199 *~;
#X obj 182 199 *~;
#N canvas 1389 528 164 179 >=~ 0;
#X obj 47 64 -~;
#X obj 47 85 clip~ -1e-37 0;
#X obj 12 12 inlet~;
#X obj 62 12 inlet~;
#X obj 47 148 outlet~;
#X obj 47 127 *~ 1e+37;
#X obj 12 38 min~;
#X obj 47 106 +~ 1e-37;
#X connect 0 0 1 0;
#X connect 1 0 7 0;
#X connect 2 0 6 0;
#X connect 3 0 6 1;
#X connect 3 0 0 1;
#X connect 5 0 4 0;
#X connect 6 0 0 0;
#X connect 7 0 5 0;
#X restore 197 153 pd >=~;
#N canvas 1221 655 166 185 <=~ 0;
#X obj 41 60 -~;
#X obj 41 81 clip~ -1e-37 0;
#X obj 12 12 inlet~;
#X obj 62 12 inlet~;
#X obj 41 144 outlet~;
#X obj 41 123 *~ 1e+37;
#X obj 41 38 min~;
#X obj 41 102 +~ 1e-37;
#X connect 0 0 1 0;
#X connect 1 0 7 0;
#X connect 2 0 6 0;
#X connect 2 0 0 1;
#X connect 3 0 6 1;
#X connect 5 0 4 0;
#X connect 6 0 0 0;
#X connect 7 0 5 0;
#X restore 47 173 pd <=~;
#X obj 245 58 inlet~;
#X connect 0 0 4 0;
#X connect 1 0 16 1;
#X connect 2 0 3 0;
#X connect 2 0 1 0;
#X connect 3 0 7 1;
#X connect 3 0 12 0;
#X connect 5 0 14 0;
#X connect 6 0 15 0;
#X connect 7 0 8 0;
#X connect 7 0 11 0;
#X connect 8 0 6 0;
#X connect 8 0 6 1;
#X connect 9 0 7 0;
#X connect 9 0 17 0;
#X connect 9 0 16 0;
#X connect 11 0 5 0;
#X connect 11 0 5 1;
#X connect 12 0 8 1;
#X connect 14 0 0 0;
#X connect 15 0 0 1;
#X connect 16 0 15 1;
#X connect 17 0 14 1;
#X connect 18 0 1 1;
#X connect 18 0 3 1;
#X connect 18 0 17 1;
#X restore 230 129 pd polyblep;
#N canvas 1412 395 163 124 normalize 0;
#X obj 12 75 outlet~;
#X obj 12 12 inlet~;
#X obj 12 54 -~ 1;
#X obj 12 33 *~ 2;
#X connect 1 0 3 0;
#X connect 2 0 0 0;
#X connect 3 0 2 0;
#X restore 110 129 pd normalize;
#X obj 540 51 inlet;
#X text 110 11 (I1) Frequency;
#X text 23 507 https://github.com/cfloisand/pd-externals;
#X obj 270 185 +~;
#X obj 613 252 outlet~;
#N canvas 1008 608 416 294 polyblep 0;
#X obj 167 225 -~;
#X obj 230 127 -~;
#X obj 230 12 sig~ 1;
#X obj 177 74 /~;
#X obj 167 252 outlet~;
#X obj 12 173 *~;
#X obj 162 173 *~;
#X obj 12 90 *~;
#X obj 162 147 -~;
#X obj 47 54 inlet~;
#X text 47 34 (I1) Phase;
#X obj 12 147 -~ 1;
#X obj 177 120 -~ 1;
#X text 245 38 (I2) Normalised Frequency;
#X obj 32 199 *~;
#X obj 182 199 *~;
#N canvas 1389 528 164 179 >=~ 0;
#X obj 47 64 -~;
#X obj 47 85 clip~ -1e-37 0;
#X obj 12 12 inlet~;
#X obj 62 12 inlet~;
#X obj 47 148 outlet~;
#X obj 47 127 *~ 1e+37;
#X obj 12 38 min~;
#X obj 47 106 +~ 1e-37;
#X connect 0 0 1 0;
#X connect 1 0 7 0;
#X connect 2 0 6 0;
#X connect 3 0 6 1;
#X connect 3 0 0 1;
#X connect 5 0 4 0;
#X connect 6 0 0 0;
#X connect 7 0 5 0;
#X restore 197 153 pd >=~;
#N canvas 1221 655 166 185 <=~ 0;
#X obj 41 60 -~;
#X obj 41 81 clip~ -1e-37 0;
#X obj 12 12 inlet~;
#X obj 62 12 inlet~;
#X obj 41 144 outlet~;
#X obj 41 123 *~ 1e+37;
#X obj 41 38 min~;
#X obj 41 102 +~ 1e-37;
#X connect 0 0 1 0;
#X connect 1 0 7 0;
#X connect 2 0 6 0;
#X connect 2 0 0 1;
#X connect 3 0 6 1;
#X connect 5 0 4 0;
#X connect 6 0 0 0;
#X connect 7 0 5 0;
#X restore 47 173 pd <=~;
#X obj 245 58 inlet~;
#X connect 0 0 4 0;
#X connect 1 0 16 1;
#X connect 2 0 3 0;
#X connect 2 0 1 0;
#X connect 3 0 7 1;
#X connect 3 0 12 0;
#X connect 5 0 14 0;
#X connect 6 0 15 0;
#X connect 7 0 8 0;
#X connect 7 0 11 0;
#X connect 8 0 6 0;
#X connect 8 0 6 1;
#X connect 9 0 7 0;
#X connect 9 0 17 0;
#X connect 9 0 16 0;
#X connect 11 0 5 0;
#X connect 11 0 5 1;
#X connect 12 0 8 1;
#X connect 14 0 0 0;
#X connect 15 0 0 1;
#X connect 16 0 15 1;
#X connect 17 0 14 1;
#X connect 18 0 1 1;
#X connect 18 0 3 1;
#X connect 18 0 17 1;
#X restore 270 159 pd polyblep;
#N canvas 1412 395 163 124 normalize 0;
#X obj 12 75 outlet~;
#X obj 12 12 inlet~;
#X obj 12 54 -~ 1;
#X obj 12 33 *~ 2;
#X connect 1 0 3 0;
#X connect 2 0 0 0;
#X connect 3 0 2 0;
#X restore 356 169 pd normalize;
#X obj 356 99 +~;
#X obj 356 125 wrap~;
#X obj 255 206 -~;
#X obj 255 227 +~;
#X obj 442 83 samphold~;
#X obj 442 44 clip~ 0 1;
#X obj 442 211 *~ 2;
#X obj 442 23 inlet~;
#X text 442 3 (I2) Pulse Width;
#X msg 452 67 reset;
#X text 540 31 (I3) Phase;
#X obj 255 248 -~ 1;
#X text 23 437 References:;
#X obj 500 169 +~;
#N canvas 1008 608 416 294 polyblep 0;
#X obj 167 225 -~;
#X obj 230 127 -~;
#X obj 230 12 sig~ 1;
#X obj 177 74 /~;
#X obj 167 252 outlet~;
#X obj 12 173 *~;
#X obj 162 173 *~;
#X obj 12 90 *~;
#X obj 162 147 -~;
#X obj 47 54 inlet~;
#X text 47 34 (I1) Phase;
#X obj 12 147 -~ 1;
#X obj 177 120 -~ 1;
#X text 245 38 (I2) Normalised Frequency;
#X obj 32 199 *~;
#X obj 182 199 *~;
#N canvas 1389 528 164 179 >=~ 0;
#X obj 47 64 -~;
#X obj 47 85 clip~ -1e-37 0;
#X obj 12 12 inlet~;
#X obj 62 12 inlet~;
#X obj 47 148 outlet~;
#X obj 47 127 *~ 1e+37;
#X obj 12 38 min~;
#X obj 47 106 +~ 1e-37;
#X connect 0 0 1 0;
#X connect 1 0 7 0;
#X connect 2 0 6 0;
#X connect 3 0 6 1;
#X connect 3 0 0 1;
#X connect 5 0 4 0;
#X connect 6 0 0 0;
#X connect 7 0 5 0;
#X restore 197 153 pd >=~;
#N canvas 1221 655 166 185 <=~ 0;
#X obj 41 60 -~;
#X obj 41 81 clip~ -1e-37 0;
#X obj 12 12 inlet~;
#X obj 62 12 inlet~;
#X obj 41 144 outlet~;
#X obj 41 123 *~ 1e+37;
#X obj 41 38 min~;
#X obj 41 102 +~ 1e-37;
#X connect 0 0 1 0;
#X connect 1 0 7 0;
#X connect 2 0 6 0;
#X connect 2 0 0 1;
#X connect 3 0 6 1;
#X connect 5 0 4 0;
#X connect 6 0 0 0;
#X connect 7 0 5 0;
#X restore 47 173 pd <=~;
#X obj 245 58 inlet~;
#X connect 0 0 4 0;
#X connect 1 0 16 1;
#X connect 2 0 3 0;
#X connect 2 0 1 0;
#X connect 3 0 7 1;
#X connect 3 0 12 0;
#X connect 5 0 14 0;
#X connect 6 0 15 0;
#X connect 7 0 8 0;
#X connect 7 0 11 0;
#X connect 8 0 6 0;
#X connect 8 0 6 1;
#X connect 9 0 7 0;
#X connect 9 0 17 0;
#X connect 9 0 16 0;
#X connect 11 0 5 0;
#X connect 11 0 5 1;
#X connect 12 0 8 1;
#X connect 14 0 0 0;
#X connect 15 0 0 1;
#X connect 16 0 15 1;
#X connect 17 0 14 1;
#X connect 18 0 1 1;
#X connect 18 0 3 1;
#X connect 18 0 17 1;
#X restore 500 143 pd polyblep;
#N canvas 1307 395 163 124 normalize 0;
#X obj 12 75 outlet~;
#X obj 12 12 inlet~;
#X obj 12 54 -~ 1;
#X obj 12 33 *~ 2;
#X connect 1 0 3 0;
#X connect 2 0 0 0;
#X connect 3 0 2 0;
#X restore 576 153 pd normalize;
#X obj 576 109 wrap~;
#X obj 485 206 -~;
#X obj 576 83 +~ 0.5;
#X msg 540 201 bang;
#X obj 141 274 outlet~;
#X text 14 378 From Mike Morenso os.triangle~ https://github.com/MikeMorenoDSP/pd-mkmr;
#X obj 31 245 outlet~;
#X text 141 294 (O2) Triangle;
#X obj 21 112 cos~;
#X text 22 273 (O1) Sine;
#X text 393 312 (O3) Sawtooth;
#X text 617 286 (O4) Square;
#X connect 0 0 39 0;
#X connect 1 0 11 0;
#X connect 1 0 10 0;
#X connect 1 0 19 0;
#X connect 1 0 23 1;
#X connect 1 0 37 0;
#X connect 1 0 43 0;
#X connect 2 0 10 1;
#X connect 2 0 17 1;
#X connect 2 0 33 1;
#X connect 3 0 6 0;
#X connect 3 0 21 0;
#X connect 3 0 36 0;
#X connect 4 0 2 1;
#X connect 6 0 5 0;
#X connect 9 0 1 0;
#X connect 9 0 2 0;
#X connect 9 0 0 1;
#X connect 10 0 3 1;
#X connect 11 0 3 0;
#X connect 12 0 28 0;
#X connect 12 0 1 1;
#X connect 12 0 38 0;
#X connect 15 0 21 1;
#X connect 17 0 15 0;
#X connect 18 0 15 1;
#X connect 19 0 20 0;
#X connect 20 0 18 0;
#X connect 20 0 17 0;
#X connect 21 0 22 0;
#X connect 22 0 30 0;
#X connect 23 0 19 1;
#X connect 23 0 25 0;
#X connect 24 0 23 0;
#X connect 25 0 22 1;
#X connect 26 0 24 0;
#X connect 28 0 23 0;
#X connect 30 0 16 0;
#X connect 32 0 36 1;
#X connect 33 0 32 0;
#X connect 34 0 32 1;
#X connect 35 0 34 0;
#X connect 35 0 33 0;
#X connect 36 0 0 0;
#X connect 37 0 35 0;
#X connect 38 0 0 2;
#X connect 43 0 41 0;
#X restore 56 407 pd band-limited-oscillators;
#X f 85;
#X obj 350 372 r~ \$1-get-\$2-pulsewidth;
#X obj 74 497 == 0;
#X obj 74 452 r \$1-get-\$2-wave;
#X msg 74 521 \$1 10;
#X obj 74 545 line~;
#X obj 56 575 *~;
#X obj 273 459 r \$1-get-\$2-wave;
#X msg 273 528 \$1 10;
#X obj 273 552 line~;
#X obj 255 582 *~;
#X obj 468 458 r \$1-get-\$2-wave;
#X msg 468 527 \$1 10;
#X obj 468 551 line~;
#X obj 450 581 *~;
#X obj 663 459 r \$1-get-\$2-wave;
#X msg 663 528 \$1 10;
#X obj 663 552 line~;
#X obj 645 582 *~;
#X obj 275 504 == 1;
#X obj 470 503 == 2;
#X obj 663 504 == 3;
#X text 329 329 https://github.com/MikeMorenoAudio;
#X text 329 309 Band-limited oscillators from Mike Moreno;
#X text 661 399 < Phase;
#X connect 0 0 5 1;
#X connect 3 0 9 0;
#X connect 4 0 3 1;
#X connect 5 0 16 0;
#X connect 6 0 5 0;
#X connect 8 0 4 0;
#X connect 10 0 11 0;
#X connect 10 0 14 0;
#X connect 11 0 12 0;
#X connect 12 0 13 0;
#X connect 15 0 10 0;
#X connect 16 0 22 0;
#X connect 16 1 26 0;
#X connect 16 2 30 0;
#X connect 16 3 34 0;
#X connect 17 0 16 1;
#X connect 18 0 20 0;
#X connect 19 0 18 0;
#X connect 20 0 21 0;
#X connect 21 0 22 1;
#X connect 22 0 3 0;
#X connect 23 0 35 0;
#X connect 24 0 25 0;
#X connect 25 0 26 1;
#X connect 26 0 3 0;
#X connect 27 0 36 0;
#X connect 28 0 29 0;
#X connect 29 0 30 1;
#X connect 30 0 3 0;
#X connect 31 0 37 0;
#X connect 32 0 33 0;
#X connect 33 0 34 1;
#X connect 34 0 3 0;
#X connect 35 0 24 0;
#X connect 36 0 28 0;
#X connect 37 0 32 0;
