#N canvas 13 47 1342 859 12;
#X obj 481 1437 phasor~, f 21;
#X msg 625 1406 0;
#X obj 481 1179 t f 0 b f, f 40;
#X obj 735 1662 snapshot~;
#X obj 736 1521 bng 19 250 50 0 empty empty empty 0 -10 0 12 #fcfcfc #000000 #000000;
#X msg 736 1307 0 \, 1 \$1;
#X obj 736 1437 line 0 10;
#X obj 335 1054 pipe;
#X msg 335 991 \$2 \$3;
#X obj 335 1015 unpack;
#X obj 736 1280 - 1;
#X obj 196 1528 s \$0-float-out;
#X msg 481 1142 \$3;
#X obj 202 151 inlet;
#X obj 570 1781 outlet~;
#X obj 735 1779 outlet;
#X obj 735 1736 r \$0-float-out;
#X obj 865 1442 sig~;
#X msg 865 1401 \$1;
#X msg 908 1401 \$2;
#X obj 908 1442 sig~;
#X obj 570 1588 expr~ ($v3 - $v2) * $v1/1 + $v2, f 60;
#X obj 735 1703 s \$0-float-out;
#X obj 865 1369 t l l;
#X obj 481 1372 expr 1/$f1 * 1000;
#X obj 736 1245 abs;
#X text 679 303 negative times run in reverse!;
#X msg 408 305 0 1 1000;
#X obj 571 1518 expr~ tanh($v1 * 2);
#X obj 335 914 t l l l b, f 114;
#X msg 289 1353 0;
#X obj 635 1259 s \$0-sh;
#X msg 635 1237 1;
#X text 320 1351 stop phasor, f 12;
#X msg 492 305 1 0 1000;
#X text 206 43 a curvy combination of line and line~;
#X obj 229 1268 t f b f b;
#X obj 269 1390 sig~;
#X obj 249 1476 s \$0-hold;
#X msg 249 1442 1;
#X obj 269 1414 s~ \$0-holdsig;
#N canvas 115 305 450 374 hold~ 0;
#X obj 177 186 inlet~;
#X obj 126 317 outlet~;
#X obj 126 75 r~ \$0-holdsig;
#X obj 144 109 r \$0-hold;
#X obj 126 214 *~;
#X obj 229 144 expr 1 - $f1;
#X obj 176 248 *~, f 8;
#X obj 126 282 +~;
#X connect 0 0 6 0;
#X connect 2 0 4 0;
#X connect 3 0 4 1;
#X connect 3 0 5 0;
#X connect 4 0 7 0;
#X connect 5 0 6 1;
#X connect 6 0 7 1;
#X connect 7 0 1 0;
#X restore 570 1623 pd hold~;
#X obj 1078 978 s \$0-hold;
#X msg 1078 954 0;
#X msg 763 1399 stop, f 8;
#X obj 230 1147 s \$0-stop;
#X obj 198 1108 t f b;
#X obj 763 1346 r \$0-stop;
#X msg 576 305 1 0 -1000;
#X obj 364 592 list length;
#X obj 332 545 t l l;
#X obj 332 634 list prepend;
#X obj 332 672 route 2 3, f 62;
#X msg 547 846 \$1 \$2 \$3;
#X text 680 353 no time specified jumps immediately;
#X msg 624 394 4;
#X text 1089 2236 you have great buns.;
#X obj 198 1188 t f f;
#X obj 511 586 s \$0-setsignal;
#X msg 511 550 \$1;
#X obj 241 1232 r \$0-setsignal;
#X msg 369 246 setsignal \$1;
#X obj 371 219 tgl 19 0 empty empty empty 0 -10 0 12 #fcfcfc #000000 #000000 0 1;
#X obj 203 467 route float list setsignal, f 50;
#X text 647 45 bob@zeal.co 2023;
#X obj 763 1372 bng 19 250 50 0 empty empty empty 0 -10 0 12 #fcfcfc #000000 #000000;
#X text 680 395 jump immediatly;
#X obj 203 194 t a b;
#X obj 235 237 s \$0-start;
#X obj 243 979 r \$0-start;
#X msg 243 1003 clear;
#X text 646 144 [setsignal \$1( sets signal without float output;
#X text 649 113 float sets output;
#X text 1293 2500 yes \, you Cayn \\\;), f 25;
#X obj 353 774 r \$0-float-out;
#X text 561 703 start \, end \, duration;
#X text 348 703 end \, duration;
#X obj 335 847 pack f f f, f 18;
#X obj 335 809 f;
#X obj 336 740 t b l, f 20;
#X obj 451 808 unpack;
#X msg 542 354 1 1000;
#X msg 604 355 0 1000;
#X text 649 177 list \; end \, milliseconds \; start \, end \, milliseconds \; start \, end \, milliseconds \, curve (0 - 1) (todo) \;, f 67;
#X connect 0 0 28 0;
#X connect 1 0 0 1;
#X connect 2 0 24 0;
#X connect 2 1 1 0;
#X connect 2 2 32 0;
#X connect 2 3 25 0;
#X connect 3 0 22 0;
#X connect 4 0 3 0;
#X connect 5 0 6 0;
#X connect 6 0 4 0;
#X connect 7 0 46 0;
#X connect 8 0 9 0;
#X connect 9 0 7 0;
#X connect 9 1 7 1;
#X connect 10 0 5 0;
#X connect 12 0 2 0;
#X connect 13 0 67 0;
#X connect 16 0 15 0;
#X connect 17 0 21 1;
#X connect 18 0 17 0;
#X connect 19 0 20 0;
#X connect 20 0 21 2;
#X connect 21 0 41 0;
#X connect 23 0 18 0;
#X connect 23 1 19 0;
#X connect 24 0 0 0;
#X connect 25 0 10 0;
#X connect 27 0 63 0;
#X connect 28 0 21 0;
#X connect 29 0 8 0;
#X connect 29 1 12 0;
#X connect 29 2 23 0;
#X connect 29 3 43 0;
#X connect 30 0 0 0;
#X connect 32 0 31 0;
#X connect 34 0 63 0;
#X connect 36 1 39 0;
#X connect 36 2 37 0;
#X connect 36 3 30 0;
#X connect 37 0 40 0;
#X connect 39 0 38 0;
#X connect 41 0 3 0;
#X connect 41 0 14 0;
#X connect 43 0 42 0;
#X connect 44 0 6 0;
#X connect 46 0 57 0;
#X connect 46 1 45 0;
#X connect 47 0 65 0;
#X connect 48 0 63 0;
#X connect 49 0 51 1;
#X connect 50 0 51 0;
#X connect 50 1 49 0;
#X connect 51 0 52 0;
#X connect 52 0 79 0;
#X connect 52 1 53 0;
#X connect 53 0 29 0;
#X connect 55 0 63 0;
#X connect 57 0 11 0;
#X connect 57 1 36 0;
#X connect 59 0 58 0;
#X connect 60 0 36 0;
#X connect 61 0 63 0;
#X connect 62 0 61 0;
#X connect 63 0 46 0;
#X connect 63 1 50 0;
#X connect 63 2 59 0;
#X connect 65 0 44 0;
#X connect 67 0 63 0;
#X connect 67 1 68 0;
#X connect 69 0 70 0;
#X connect 70 0 7 0;
#X connect 74 0 78 1;
#X connect 77 0 29 0;
#X connect 78 0 77 0;
#X connect 79 0 78 0;
#X connect 79 1 80 0;
#X connect 80 0 77 1;
#X connect 80 1 77 2;
#X connect 81 0 63 0;
#X connect 82 0 63 0;
