#N canvas 86 128 852 738 12;
#X text 93 7 no repeat random;
#X text 242 181 get random number;
#X text 160 391 does it equal previous number?;
#X text 87 443 no;
#X text 128 493 set previous number;
#X text 130 524 output this number;
#X text 290 431 yes;
#X text 406 479 get another random number;
#X obj 82 179 random \$1, f 22;
#X msg 267 126 3;
#X obj 86 124 bng 19 250 50 0 empty empty empty 0 -10 0 12 #fcfcfc #000000 #000000;
#X obj 96 289 r \$0-prev;
#X obj 81 323 ==;
#X obj 83 247 t f f, f 15;
#X obj 80 358 pack f f, f 16;
#X obj 80 390 route 0 1;
#X obj 79 492 t f f;
#X obj 111 556 s \$0-prev;
#X obj 87 36 inlet;
#X obj 233 39 inlet;
#X obj 79 613 outlet;
#X obj 292 483 s \$0-trigger;
#X obj 93 89 r \$0-trigger;
#X obj 289 452 bng 19 250 50 0 empty empty empty 0 -10 0 12 #fcfcfc #000000 #000000;
#X connect 8 0 13 0;
#X connect 9 0 8 1;
#X connect 10 0 8 0;
#X connect 11 0 12 1;
#X connect 12 0 14 0;
#X connect 13 0 12 0;
#X connect 13 1 14 1;
#X connect 14 0 15 0;
#X connect 15 0 16 0;
#X connect 15 1 23 0;
#X connect 16 0 20 0;
#X connect 16 1 17 0;
#X connect 18 0 10 0;
#X connect 19 0 8 1;
#X connect 22 0 10 0;
#X connect 23 0 21 0;
