#N canvas 8 42 1159 728 12;
#X obj 76 28 inlet;
#X obj 411 452 print voice \$1;
#X text 212 16 args \; \$1 voice number \; \$2 parent \$0 \;;
#X msg 81 290 read -resize \$1 \$2-sample-array-\$3;
#X text 350 47 read -resize /Users/bob/repos/bop/samples/bank000/PreparedPiano093.wav 11-sample-array-1003;
#X obj 81 227 pack s \$2 \$1;
#X obj 81 369 soundfiler, f 23;
#X obj 350 23 array define \$2-sample-array-\$1;
#X obj 81 179 route read;
#X obj 800 569 tabread4~ \$2-sample-array-\$1;
#X obj 49 453 array size \$2-sample-array-\$1, f 21;
#X obj 49 256 t b l;
#X text 95 333 load audio into ram;
#X obj 114 426 s \$2-samplerate-\$1;
#X obj 59 498 s \$2-size-\$1;
#X obj 509 197 r \$2-samplerate-\$1;
#X msg 411 246 size \$1;
#X msg 509 246 samplerate \$1;
#X obj 411 197 r \$2-size-\$1;
#X floatatom 421 221 9 0 0 0 - - - 0;
#X floatatom 519 221 12 0 0 0 - - - 0;
#X msg 249 393 \$1;
#X obj 49 533 /, f 29;
#X msg 645 248 duration \$1;
#X obj 76 57 s \$2-inlet-\$1;
#X obj 81 156 r \$2-inlet-\$1;
#X obj 800 198 r \$2-inlet-\$1;
#X obj 647 197 r \$2-duration-\$1;
#X obj 48 564 s \$2-duration-\$1;
#X floatatom 657 221 13 0 0 0 - - - 0;
#X obj 800 231 route play;
#X obj 800 464 phasor~, f 12;
#X msg 883 423 0;
#X msg 800 295 0;
#X obj 800 266 sel 0 1, f 15;
#X obj 851 358 /;
#X obj 869 327 r \$2-duration-\$1;
#X obj 851 295 f 1;
#X obj 851 389 t f b;
#X obj 800 604 hip~ 5;
#X obj 800 642 outlet~;
#X obj 928 226 tgl 19 0 empty empty empty 0 -10 0 12 #fcfcfc #000000 #000000 0 1;
#X obj 800 528 *~;
#X obj 818 497 r \$2-samplerate-\$1;
#X connect 0 0 24 0;
#X connect 3 0 6 0;
#X connect 5 0 11 0;
#X connect 6 1 21 0;
#X connect 8 0 5 0;
#X connect 9 0 39 0;
#X connect 10 0 14 0;
#X connect 10 0 22 0;
#X connect 11 0 10 0;
#X connect 11 1 3 0;
#X connect 15 0 17 0;
#X connect 15 0 20 0;
#X connect 16 0 1 0;
#X connect 17 0 1 0;
#X connect 18 0 16 0;
#X connect 18 0 19 0;
#X connect 21 0 13 0;
#X connect 21 0 22 1;
#X connect 22 0 28 0;
#X connect 23 0 1 0;
#X connect 25 0 8 0;
#X connect 26 0 30 0;
#X connect 27 0 23 0;
#X connect 27 0 29 0;
#X connect 30 0 34 0;
#X connect 30 0 41 0;
#X connect 31 0 42 0;
#X connect 32 0 31 1;
#X connect 33 0 31 0;
#X connect 34 0 33 0;
#X connect 34 1 37 0;
#X connect 35 0 38 0;
#X connect 36 0 35 1;
#X connect 37 0 35 0;
#X connect 38 0 31 0;
#X connect 38 1 32 0;
#X connect 39 0 40 0;
#X connect 42 0 9 0;
#X connect 43 0 42 1;
