#N canvas 612 368 703 514 10;
#X obj 71 39 inlet;
#X obj 118 237 / 127;
#X obj 118 258 sel 0;
#X obj 118 299 pack 1 1 1 1, f 24;
#X obj 26 293 pack 0 1;
#X msg 118 350 \$1 \$2 \, \$4 \$3 \$2;
#X obj 118 391 vline~;
#X obj 118 462 outlet~;
#X obj 71 200 route release float attack decay sustain;
#X obj 118 412 pow~ 4;
#X obj 137 68 bop.p.scale 0 1 1 1000;
#X obj 287 63 bop.p.scale 0 1 1 3000;
#X obj 547 70 bop.p.scale 0 1 1 3000;
#X msg 137 92 attack \$1;
#X msg 437 62 sustain \$1;
#X msg 547 94 release \$1;
#X msg 287 87 decay \$1;
#X obj 137 38 r \$1-get-attack;
#X obj 287 38 r \$1-get-decay;
#X obj 437 38 r \$1-get-sustain;
#X obj 547 38 r \$1-get-release;
#X connect 0 0 8 0;
#X connect 1 0 2 0;
#X connect 2 0 4 0;
#X connect 2 1 3 0;
#X connect 3 0 5 0;
#X connect 4 0 6 0;
#X connect 5 0 6 0;
#X connect 6 0 9 0;
#X connect 8 0 4 1;
#X connect 8 1 1 0;
#X connect 8 2 3 1;
#X connect 8 3 3 2;
#X connect 8 4 3 3;
#X connect 9 0 7 0;
#X connect 10 0 13 0;
#X connect 11 0 16 0;
#X connect 12 0 15 0;
#X connect 13 0 8 0;
#X connect 14 0 8 0;
#X connect 15 0 8 0;
#X connect 16 0 8 0;
#X connect 17 0 10 0;
#X connect 18 0 11 0;
#X connect 19 0 14 0;
#X connect 20 0 12 0;
