#N canvas 71 37 1241 891 12;
#X obj 314 139 mtof;
#X obj 516 1246 outlet~;
#X obj 614 25 inlet;
#X obj 614 53 unpack, f 53;
#X obj 982 1004 bop.p.adsr~ \$1;
#X obj 516 1073 *~, f 67;
#X obj 449 275 r \$1-get-osc-1;
#X obj 544 788 r~ \$1-get-noise;
#X obj 408 110 r \$1-get-slide;
#X obj 534 1106 r~ \$1-get-gain;
#X obj 346 654 *~;
#X obj 313 205 line~;
#X obj 332 63 r \$1-get-osc-1-tune;
#X obj 314 110 +;
#X obj 516 758 +~;
#X obj 569 852 noise~;
#X obj 534 852 *~;
#X obj 516 1002 bob~, f 16;
#X obj 625 968 *~ 4;
#X obj 516 882 +~;
#X obj 516 1176 *~;
#X obj 569 894 r~ \$1-get-cutoff;
#X obj 625 939 r~ \$1-get-q;
#X obj 364 601 r~ \$1-get-osc-1-level;
#N canvas 38 532 450 300 triangle 0;
#X obj 175 86 phasor~;
#X obj 211 119 *~ -1;
#X obj 211 147 +~ 1;
#X obj 177 199 min~;
#X obj 177 272 outlet~;
#X obj 177 223 *~ 4;
#X obj 177 247 -~ 1;
#X obj 295 56 inlet;
#X obj 295 80 switch~;
#X obj 176 48 inlet~;
#X connect 0 0 1 0;
#X connect 0 0 3 0;
#X connect 1 0 2 0;
#X connect 2 0 3 1;
#X connect 3 0 5 0;
#X connect 5 0 6 0;
#X connect 6 0 4 0;
#X connect 7 0 8 0;
#X connect 9 0 0 0;
#X restore 391 442 pd triangle;
#N canvas 121 158 678 300 rect 0;
#X obj 160 235 outlet~;
#X obj 159 113 osc~;
#X obj 159 147 expr~ if( $v1 > $v2 \, 0.9 \, -.9);
#X obj 366 72 inlet~ pulsewidth;
#X obj 501 61 inlet;
#X obj 159 27 inlet~;
#X obj 501 85 switch~;
#X connect 1 0 2 0;
#X connect 2 0 0 0;
#X connect 3 0 2 1;
#X connect 4 0 6 0;
#X connect 5 0 1 0;
#X restore 483 442 pd rect;
#X floatatom 506 384 5 0 1 0 - - - 0;
#X obj 506 410 sig~ 0;
#X obj 544 812 pow~ 4;
#X obj 364 625 pow~ 4;
#N canvas 237 274 450 300 sine 0;
#X obj 249 112 switch~;
#X obj 256 60 inlet;
#X obj 87 214 outlet~;
#X obj 84 155 osc~;
#X obj 51 65 inlet~;
#X connect 1 0 0 0;
#X connect 3 0 2 0;
#X connect 4 0 3 0;
#X restore 226 438 pd sine;
#N canvas 295 332 450 300 saw 0;
#X obj 43 96 inlet~;
#X obj 183 93 inlet;
#X obj 183 117 switch~;
#X obj 43 120 phasor~;
#X obj 43 144 outlet~;
#X connect 0 0 3 0;
#X connect 1 0 2 0;
#X connect 3 0 4 0;
#X restore 318 440 pd saw;
#X obj 258 352 == 0;
#X obj 539 352 == 3;
#X obj 534 1130 pow~ 4;
#X obj 408 174 * 1200;
#X obj 314 176 pack;
#X obj 516 1200 *~ 0.4;
#X obj 686 658 *~;
#N canvas 38 532 450 300 triangle 0;
#X obj 175 86 phasor~;
#X obj 211 119 *~ -1;
#X obj 211 147 +~ 1;
#X obj 177 199 min~;
#X obj 177 272 outlet~;
#X obj 177 223 *~ 4;
#X obj 177 247 -~ 1;
#X obj 295 56 inlet;
#X obj 295 80 switch~;
#X obj 176 48 inlet~;
#X connect 0 0 1 0;
#X connect 0 0 3 0;
#X connect 1 0 2 0;
#X connect 2 0 3 1;
#X connect 3 0 5 0;
#X connect 5 0 6 0;
#X connect 6 0 4 0;
#X connect 7 0 8 0;
#X connect 9 0 0 0;
#X restore 711 446 pd triangle;
#N canvas 121 158 678 300 rect 0;
#X obj 160 235 outlet~;
#X obj 159 113 osc~;
#X obj 159 147 expr~ if( $v1 > $v2 \, 0.9 \, -.9);
#X obj 366 72 inlet~ pulsewidth;
#X obj 501 61 inlet;
#X obj 159 27 inlet~;
#X obj 501 85 switch~;
#X connect 1 0 2 0;
#X connect 2 0 0 0;
#X connect 3 0 2 1;
#X connect 4 0 6 0;
#X connect 5 0 1 0;
#X restore 803 446 pd rect;
#X floatatom 826 388 5 0 1 0 - - - 0;
#X obj 826 414 sig~ 0;
#X obj 704 629 pow~ 4;
#N canvas 237 274 450 300 sine 0;
#X obj 249 112 switch~;
#X obj 256 60 inlet;
#X obj 87 214 outlet~;
#X obj 84 155 osc~;
#X obj 51 65 inlet~;
#X connect 1 0 0 0;
#X connect 3 0 2 0;
#X connect 4 0 3 0;
#X restore 596 442 pd sine;
#N canvas 295 332 450 300 saw 0;
#X obj 43 96 inlet~;
#X obj 183 93 inlet;
#X obj 183 117 switch~;
#X obj 43 120 phasor~;
#X obj 43 144 outlet~;
#X connect 0 0 3 0;
#X connect 1 0 2 0;
#X connect 3 0 4 0;
#X restore 658 444 pd saw;
#X obj 628 356 == 0;
#X obj 859 356 == 3;
#X obj 789 279 r \$1-get-osc-2;
#X obj 704 605 r~ \$1-get-osc-2-level;
#X obj 600 160 mtof;
#X obj 694 131 r \$1-get-slide;
#X obj 599 226 line~;
#X obj 600 131 +;
#X obj 694 195 * 1200;
#X obj 600 197 pack;
#X obj 618 84 r \$1-get-osc-2-tune;
#X obj 367 355 == 2;
#X obj 475 355 == 1;
#X obj 707 359 == 2;
#X obj 795 359 == 1;
#X connect 0 0 36 0;
#X connect 2 0 3 0;
#X connect 3 0 13 0;
#X connect 3 0 53 0;
#X connect 3 1 4 0;
#X connect 4 0 5 1;
#X connect 5 0 20 0;
#X connect 6 0 32 0;
#X connect 6 0 33 0;
#X connect 6 0 57 0;
#X connect 6 0 58 0;
#X connect 7 0 28 0;
#X connect 8 0 35 0;
#X connect 9 0 34 0;
#X connect 10 0 14 0;
#X connect 11 0 30 0;
#X connect 11 0 25 0;
#X connect 11 0 31 0;
#X connect 11 0 24 0;
#X connect 12 0 13 1;
#X connect 13 0 0 0;
#X connect 14 0 19 0;
#X connect 15 0 16 1;
#X connect 16 0 19 1;
#X connect 17 0 5 0;
#X connect 18 0 17 2;
#X connect 19 0 17 0;
#X connect 20 0 37 0;
#X connect 21 0 17 1;
#X connect 22 0 18 0;
#X connect 23 0 29 0;
#X connect 24 0 10 0;
#X connect 25 0 10 0;
#X connect 26 0 27 0;
#X connect 27 0 25 1;
#X connect 28 0 16 0;
#X connect 29 0 10 1;
#X connect 30 0 10 0;
#X connect 31 0 10 0;
#X connect 32 0 30 1;
#X connect 33 0 25 2;
#X connect 34 0 20 1;
#X connect 35 0 36 1;
#X connect 36 0 11 0;
#X connect 37 0 1 0;
#X connect 38 0 14 1;
#X connect 39 0 38 0;
#X connect 40 0 38 0;
#X connect 41 0 42 0;
#X connect 42 0 40 1;
#X connect 43 0 38 1;
#X connect 44 0 38 0;
#X connect 45 0 38 0;
#X connect 46 0 44 1;
#X connect 47 0 40 2;
#X connect 48 0 46 0;
#X connect 48 0 47 0;
#X connect 48 0 59 0;
#X connect 48 0 60 0;
#X connect 49 0 43 0;
#X connect 50 0 55 0;
#X connect 51 0 54 0;
#X connect 52 0 44 0;
#X connect 52 0 45 0;
#X connect 52 0 39 0;
#X connect 52 0 40 0;
#X connect 53 0 50 0;
#X connect 54 0 55 1;
#X connect 55 0 52 0;
#X connect 56 0 53 1;
#X connect 57 0 31 1;
#X connect 58 0 24 1;
#X connect 59 0 45 1;
#X connect 60 0 39 1;
