#N canvas 295 61 733 586 12;
#X text 191 35 \$1: parent \$0;
#X text 190 54 \$2: label;
#X obj 21 307 route \$2;
#X text 4 123 send: \$0-from-[label];
#X text 4 145 recv: \$0-to-[label];
#X text 5 52 binds to a ui element in parent patch with sends and receives as so:, f 20;
#X text 190 15 arguments:;
#X obj 435 214 s \$1-params;
#X obj 551 136 symbol \$2;
#X obj 433 37 r \$1-savestate;
#X obj 435 68 t b b, f 17;
#X obj 21 243 r \$1-params;
#X obj 460 100 r \$1-get-\$2;
#X obj 21 528 s \$1-set-\$2;
#X text 83 310 route based on param name;
#X text 108 241 receives params from parent module;
#X text 532 215 send params parent savestate;
#X text 112 507 sets param value;
#X text 429 7 ----SAVESTATE----;
#X obj 435 135 list;
#X obj 324 351 cnv 10 144 18 empty empty empty 20 12 0 12 #c6feff #404040 0;
#X obj 435 167 list prepend;
#X listbox 12 29 20 0 0 2 \$2 \$1-set-\$2 \$1-get-\$2 0;
#X msg 21 402 set;
#X obj 21 342 route bang list, f 25;
#X text 98 402 clear list with [values( message;
#X obj 115 475 s \$1-get-\$2;
#X obj 115 441 bng 19 250 50 0 empty empty empty 0 -10 0 12 #fcfcfc #000000 #000000;
#X connect 2 0 24 0;
#X connect 8 0 21 1;
#X connect 9 0 10 0;
#X connect 10 0 19 0;
#X connect 10 1 8 0;
#X connect 11 0 2 0;
#X connect 12 0 19 1;
#X connect 19 0 21 0;
#X connect 21 0 7 0;
#X connect 23 0 13 0;
#X connect 23 0 27 0;
#X connect 24 0 23 0;
#X connect 24 1 13 0;
#X connect 27 0 26 0;
#X coords 0 -1 1 1 146 40 2 10 10;
