#N canvas 766 509 657 371 12;
#X obj 328 323 list length;
#X obj 426 247 bop.p.nth, f 44;
#X obj 426 92 t b f, f 44;
#X msg 328 374 range 0 \$1;
#X obj 328 344 - 1;
#X obj 426 71 change;
#X obj 584 323 symbol;
#X obj 436 320 list;
#X msg 436 362 label \$1;
#X obj 101 100 cnv 8 144 9 empty \$1-set-\$2-enum-current major-pentatonic 3 5 0 10 #e3c6ff #000000 0;
#X text 94 218 \$1: parent \$0;
#X text 93 345 send: \$0-from-[label];
#X text 93 367 recv: \$0-to-[label];
#X text 94 274 binds to a ui element in parent patch with sends and receives as so:, f 20;
#X text 93 198 arguments:;
#X text 93 237 \$2: label of target numbox;
#X obj 426 44 r \$1-get-\$2;
#X obj 328 398 s \$1-set-\$2;
#X obj 584 398 s \$1-get-\$2-enum;
#X obj 436 428 s \$1-set-\$2-enum-current;
#X obj 462 143 r \$1-set-\$2-enum;
#X obj 426 200 list;
#X obj 462 168 t b a;
#X connect 0 0 4 0;
#X connect 1 0 6 0;
#X connect 1 0 7 0;
#X connect 2 0 21 0;
#X connect 2 1 1 1;
#X connect 3 0 17 0;
#X connect 4 0 3 0;
#X connect 5 0 2 0;
#X connect 6 0 18 0;
#X connect 7 0 8 0;
#X connect 8 0 19 0;
#X connect 16 0 5 0;
#X connect 20 0 22 0;
#X connect 21 0 1 0;
#X connect 21 0 0 0;
#X connect 22 0 21 0;
#X connect 22 1 21 1;
#X coords 0 -1 1 1 146 10 2 100 100;
