#N canvas 29 37 1371 891 12;
#X obj 151 28 inlet;
#X text 287 16 args \; \$1 voice number \; \$2 parent \$0 \;;
#X obj 930 1352 tabread4~ \$2-sample-array-\$1;
#X obj 151 57 s \$2-inlet-\$1;
#X obj 147 169 r \$2-inlet-\$1;
#X obj 147 202 route play;
#X obj 532 838 phasor~, f 38;
#X msg 795 606 0;
#X msg 536 686 0;
#X obj 930 1767 hip~ 5;
#X obj 930 1813 outlet~;
#X obj 530 1241 *~;
#X obj 548 1210 r \$2-samplerate-\$1;
#X obj 536 312 > 0;
#X text 569 314 todo - handle velocity;
#X text 1303 2391 comment;
#X obj 147 325 sig~;
#X obj 420 776 *~, f 17;
#X msg 762 606 1;
#X obj 256 351 r~ \$2-get-root;
#X obj 147 478 -~, f 16;
#X obj 317 590 r \$2-duration-\$1;
#X obj 762 562 t b b;
#X obj 317 619 expr 1/$f1;
#X obj 317 648 sig~;
#X text 354 655 duration in hz;
#X obj 145 705 *~, f 25;
#X obj 274 383 r~ \$2-get-tune;
#X obj 256 445 +~;
#X obj 146 589 expr~ if($v1 >= 0 \, $v1/12 + 1 \, 1/(abs($v1/12)+1)), f 21;
#X obj 274 407 *~ -1;
#X text 151 519 pitch offset in semitones, f 17;
#X text 153 648 pitch offset ratio;
#X obj 536 372 sel 0 1, f 18;
#X obj 536 644 r \$0-sample-end;
#X obj 597 416 s \$0-sample-start;
#X obj 762 526 r \$0-sample-start;
#X obj 530 1072 expr~ ($v1 - $v2) / $v3;
#X obj 660 936 r \$2-get-loop-start;
#X obj 609 1014 sig~;
#X obj 642 972 f;
#X obj 641 910 r \$0-sample-end;
#X obj 609 879 r \$0-sample-start;
#X msg 609 903 0;
#X obj 655 1010 r~ \$2-get-loop-length;
#X obj 530 1116 wrap~;
#X obj 530 1174 expr~ $v1 * $v2 + $v3;
#X obj 602 1119 r~ \$2-get-loop-length;
#X obj 674 1149 r~ \$2-get-loop-start;
#X obj 948 1422 r \$0-sample-start;
#X obj 948 1643 line~;
#X msg 948 1555 1 \$1;
#X obj 930 1726 *~;
#X obj 948 1525 f;
#X obj 966 1453 r \$2-get-fade-in;
#X obj 536 568 s \$0-sample-end;
#X obj 966 1491 * 1000;
#X obj 433 1368 threshold~ 0.999 10 0.9988 10;
#X obj 433 1402 bng 19 250 50 0 empty empty empty 0 -10 0 12 #fcfcfc #000000 #000000;
#X obj 433 1497 s \$0-sample-end;
#X obj 472 1400 r \$2-get-loop;
#X obj 472 1430 == 0;
#X obj 433 1458 spigot;
#X obj 202 1368 threshold~ 0.999 10 0.9988 10;
#X obj 202 1256 r~ \$2-get-fade-out;
#X obj 202 1323 expr~ $v1 + 1 * $v2;
#X obj 202 1407 bng 19 250 50 0 empty empty empty 0 -10 0 12 #fcfcfc #000000 #000000;
#X obj 1267 1479 r \$2-duration-\$1;
#X obj 1267 1503 * 1000;
#X obj 1249 1455 r \$2-get-fade-out;
#X obj 1249 1540 *;
#X obj 1231 1576 f;
#X msg 1231 1602 0 \$1;
#X obj 1231 1419 r \$0-fade-out-start;
#X obj 202 1497 s \$0-fade-out-start;
#X obj 948 1680 pow~ 3;
#X obj 1112 1420 r \$0-sample-end;
#X msg 1112 1444 0 10;
#X obj 202 1293 clip~ 0 0.99;
#X obj 241 1405 r \$2-get-loop;
#X obj 241 1435 == 0;
#X obj 202 1463 spigot;
#X obj 554 448 r \$2-get-loop;
#X obj 536 473 f;
#X obj 536 507 sel 0 1;
#X obj 559 541 s \$0-fade-out-start;
#X text 966 1722 todo: optimize with a switch~;
#X obj 146 255 unpack f f f, f 112;
#X text 264 166 [target] play [pitch] [velocity] [sample];
#X obj 929 324 text get \$2-sample-info;
#X obj 1024 415 s \$2-duration-\$1;
#X obj 992 439 s \$2-samplerate-\$1;
#X obj 929 377 unpack s f f f;
#X obj 930 473 list prepend set;
#X obj 930 507 list trim;
#X obj 1050 381 print;
#X connect 0 0 3 0;
#X connect 2 0 52 0;
#X connect 4 0 5 0;
#X connect 5 0 87 0;
#X connect 6 0 37 0;
#X connect 7 0 6 1;
#X connect 8 0 17 1;
#X connect 9 0 10 0;
#X connect 11 0 2 0;
#X connect 12 0 11 1;
#X connect 13 0 33 0;
#X connect 16 0 20 0;
#X connect 17 0 6 0;
#X connect 18 0 17 1;
#X connect 19 0 28 0;
#X connect 20 0 29 0;
#X connect 21 0 23 0;
#X connect 22 0 18 0;
#X connect 22 1 7 0;
#X connect 23 0 24 0;
#X connect 24 0 26 1;
#X connect 26 0 17 0;
#X connect 27 0 30 0;
#X connect 28 0 20 1;
#X connect 29 0 26 0;
#X connect 30 0 28 1;
#X connect 33 0 83 0;
#X connect 33 1 35 0;
#X connect 34 0 8 0;
#X connect 36 0 22 0;
#X connect 37 0 45 0;
#X connect 38 0 40 1;
#X connect 39 0 37 1;
#X connect 40 0 39 0;
#X connect 41 0 40 0;
#X connect 42 0 43 0;
#X connect 43 0 39 0;
#X connect 44 0 37 2;
#X connect 45 0 46 0;
#X connect 45 0 57 0;
#X connect 45 0 65 1;
#X connect 46 0 11 0;
#X connect 47 0 46 1;
#X connect 48 0 46 2;
#X connect 49 0 53 0;
#X connect 50 0 75 0;
#X connect 51 0 50 0;
#X connect 52 0 9 0;
#X connect 53 0 51 0;
#X connect 54 0 56 0;
#X connect 56 0 53 1;
#X connect 57 0 58 0;
#X connect 58 0 62 0;
#X connect 60 0 61 0;
#X connect 61 0 62 1;
#X connect 62 0 59 0;
#X connect 63 0 66 0;
#X connect 64 0 78 0;
#X connect 65 0 63 0;
#X connect 66 0 81 0;
#X connect 67 0 68 0;
#X connect 68 0 70 1;
#X connect 69 0 70 0;
#X connect 70 0 71 1;
#X connect 71 0 72 0;
#X connect 72 0 50 0;
#X connect 73 0 71 0;
#X connect 75 0 52 1;
#X connect 76 0 77 0;
#X connect 77 0 50 0;
#X connect 78 0 65 0;
#X connect 79 0 80 0;
#X connect 80 0 81 1;
#X connect 81 0 74 0;
#X connect 82 0 83 1;
#X connect 83 0 84 0;
#X connect 84 0 55 0;
#X connect 84 1 85 0;
#X connect 87 0 16 0;
#X connect 87 1 13 0;
#X connect 87 2 89 0;
#X connect 89 0 92 0;
#X connect 89 0 95 0;
#X connect 92 0 93 0;
#X connect 92 2 91 0;
#X connect 92 3 90 0;
#X connect 93 0 94 0;
#X connect 94 0 2 0;
