#N canvas 894 77 522 484 12;
#X obj 87 75 inlet;
#X obj 432 207 s \$1-params;
#X text 33 9 recieves messages from parent patcher \, provides forwarding and saving for param \, toggle \, number;
#X obj 168 235 s \$1-stop;
#X obj 168 201 bng 19 250 50 0 empty empty empty 0 -10 0 12 #fcfcfc #000000 #000000;
#X obj 168 170 route stop dump, f 22;
#X obj 243 235 s \$1-dump;
#X obj 243 201 bng 19 250 50 0 empty empty empty 0 -10 0 12 #fcfcfc #000000 #000000;
#X obj 87 120 route list, f 12;
#X obj 320 431 s, f 11;
#X obj 394 307 list split 1;
#X obj 320 259 t b l, f 11;
#X obj 320 226 list;
#X obj 320 367 list;
#X obj 320 394 list trim;
#X obj 394 363 list prepend \$1;
#X msg 394 394 symbol \$1-get-\$2;
#X obj 87 193 s \$1-midi;
#X connect 0 0 8 0;
#X connect 4 0 3 0;
#X connect 5 0 4 0;
#X connect 5 1 7 0;
#X connect 5 2 1 0;
#X connect 5 2 12 0;
#X connect 7 0 6 0;
#X connect 8 0 17 0;
#X connect 8 1 5 0;
#X connect 10 0 15 0;
#X connect 10 1 13 1;
#X connect 11 0 13 0;
#X connect 11 1 10 0;
#X connect 12 0 11 0;
#X connect 13 0 14 0;
#X connect 14 0 9 0;
#X connect 15 0 16 0;
#X connect 16 0 9 1;
