#N canvas 451 114 989 680 12;
#X text 718 55 \$1: parent \$0;
#X text 717 74 \$2: label;
#X text 717 35 arguments:;
#X text 117 32 route based on param name;
#X text 119 -4 receives params from parent module;
#X obj 624 112 r \$1-get-\$2;
#X obj 571 73 loadbang;
#X msg 624 136 0;
#X obj 571 97 f \$3;
#X obj 571 215 s \$1-set-\$2;
#X text 553 36 ----DEFAULTS----;
#X text 716 92 \$3: default;
#X obj 571 181 spigot 1;
#X obj 24 97 bop.p.bline~;
#X obj 590 322 s \$1-set-\$2;
#X obj 24 -3 r \$1-params;
#X obj 24 31 route \$2;
#X text 83 392 a signal receive can be used for smoother control;
#X text 15 -50 ----MESSAGES and EASING----;
#X msg 590 297 set \$1;
#X text 684 324 sets param slider avoiding feedback., f 37;
#X obj 24 62 bop.p.blineseq;
#X text 134 61 handles looping;
#X text 119 96 adds ease-in-out (see help);
#X obj 22 394 outlet~;
#X obj 108 349 outlet;
#X text 544 -10 GUI comms stuff...;
#X obj 187 218 route bang;
#X obj 187 251 float;
#X obj 187 277 list prepend \$2;
#X obj 187 338 s \$1-dump;
#X obj 187 193 r \$1-dump;
#X obj 187 308 list trim;
#X connect 5 0 7 0;
#X connect 6 0 8 0;
#X connect 7 0 12 1;
#X connect 8 0 12 0;
#X connect 12 0 9 0;
#X connect 13 0 24 0;
#X connect 13 1 19 0;
#X connect 13 1 25 0;
#X connect 13 1 28 1;
#X connect 15 0 16 0;
#X connect 16 0 21 0;
#X connect 19 0 14 0;
#X connect 21 0 13 0;
#X connect 27 0 28 0;
#X connect 28 0 29 0;
#X connect 29 0 32 0;
#X connect 31 0 27 0;
#X connect 32 0 30 0;
#X coords 0 680 1 679 146 20 0;
