#N canvas 19 125 855 764 12;
#X obj 258 613 list store;
#X msg 602 532 append \$1;
#X obj 574 456 select 192 219;
#X msg 580 494 219 \, 220;
#X msg 673 495 219 \, 221;
#X msg 119 464 append 192 \, bang;
#X msg 293 411 192;
#X obj 635 787 outlet error;
#X obj 347 790 outlet slip;
#N canvas 156 156 450 300 iterate 0;
#X obj 118 136 until;
#X obj 131 219 list store;
#X obj 152 103 t b b l;
#X obj 118 161 f;
#X obj 156 162 + 1;
#X msg 175 136 0, f 2;
#X msg 118 192 get \$1 1;
#X obj 159 28 inlet;
#X obj 175 266 outlet;
#X connect 0 0 3 0;
#X connect 1 0 8 0;
#X connect 1 1 0 1;
#X connect 2 0 0 0;
#X connect 2 1 5 0;
#X connect 2 2 1 1;
#X connect 3 0 4 0;
#X connect 3 0 6 0;
#X connect 4 0 3 1;
#X connect 5 0 3 1;
#X connect 6 0 1 0;
#X connect 7 0 2 0;
#X restore 391 274 pd iterate;
#X obj 479 349 moses 256;
#X obj 391 311 moses 0;
#X obj 218 52 inlet list;
#N canvas 182 182 896 652 switcher 0;
#X obj 217 67 inlet;
#X obj 230 412 outlet out0;
#X obj 432 408 outlet out1;
#X obj 392 65 inlet select outlet;
#X obj 270 281 route 0 1;
#X obj 265 222 list prepend 0;
#X connect 0 0 5 0;
#X connect 3 0 5 1;
#X connect 4 0 1 0;
#X connect 4 1 2 0;
#X connect 5 0 4 0;
#X restore 401 688 pd switcher;
#X msg 442 445 1;
#X obj 218 130 t b b a b;
#X msg 391 448 0;
#X text 350 84 from Thomas Fredericks \; https://github.com/thomasfredericks/MicroOsc;
#X connect 0 0 13 0;
#X connect 1 0 0 0;
#X connect 2 0 3 0;
#X connect 2 1 4 0;
#X connect 2 2 1 0;
#X connect 3 0 1 0;
#X connect 4 0 1 0;
#X connect 5 0 0 0;
#X connect 6 0 0 1;
#X connect 9 0 11 0;
#X connect 10 0 2 0;
#X connect 10 1 14 0;
#X connect 11 0 14 0;
#X connect 11 1 10 0;
#X connect 12 0 15 0;
#X connect 13 0 8 0;
#X connect 13 1 7 0;
#X connect 14 0 13 1;
#X connect 15 0 16 0;
#X connect 15 1 5 0;
#X connect 15 2 9 0;
#X connect 15 3 6 0;
#X connect 16 0 13 1;
