#N canvas 569 107 590 787 12;
#X text 393 89 \$1: parent \$0;
#X text 392 108 \$2: label;
#X text 392 69 arguments:;
#X text 117 119 route based on param name;
#X text 119 83 receives params from parent module;
#X obj 47 183 loadbang;
#X obj 47 213 f \$3;
#X text 391 126 \$3: default;
#X obj 24 494 bop.p.bline~, f 20;
#X obj 24 84 r \$1-params;
#X obj 24 118 route \$2;
#X text 83 799 a signal receive can be used for smoother control;
#X obj 24 439 bop.p.blineseq;
#X text 131 445 handles looping;
#X text 178 486 adds ease-in-out (see help), f 20;
#X obj 22 801 outlet~;
#X obj 303 770 outlet;
#X obj 66 615 route bang;
#X obj 66 648 float, f 14;
#X obj 66 674 list prepend \$2;
#X obj 66 735 s \$1-dump;
#X obj 66 590 r \$1-dump;
#X obj 66 705 list trim;
#X text 90 211 instantiate default;
#X text 32 295 separate number messages, f 10;
#X obj 368 769 s \$1-get-\$2;
#X obj 46 237 route 0;
#X text 104 236 don't init if no default arg;
#X obj 24 267 route float list loop, f 58;
#X obj 209 327 list prepend loop;
#X obj 209 351 list trim;
#X text 428 311 < everything else;
#X text 254 306 loop messages;
#X obj 211 383 r \$1-stop;
#X text 252 404 stop from parent;
#X msg 211 402 stop;
#X connect 5 0 6 0;
#X connect 6 0 26 0;
#X connect 8 0 15 0;
#X connect 8 1 16 0;
#X connect 8 1 18 1;
#X connect 8 1 25 0;
#X connect 9 0 10 0;
#X connect 10 0 28 0;
#X connect 12 0 8 0;
#X connect 17 0 18 0;
#X connect 18 0 19 0;
#X connect 19 0 22 0;
#X connect 21 0 17 0;
#X connect 22 0 20 0;
#X connect 26 1 28 0;
#X connect 28 0 12 0;
#X connect 28 1 12 0;
#X connect 28 2 29 0;
#X connect 28 3 25 0;
#X connect 29 0 30 0;
#X connect 30 0 12 0;
#X connect 33 0 35 0;
#X connect 35 0 12 0;
#X coords 0 787 1 786 146 20 0;
