#N canvas 237 101 750 502 12;
#X text 30 28 ------------------------------ SAVESTATE ------------------------------------, f 80;
#X obj 371 171 bng 19 250 50 0 empty empty empty 0 -10 0 12 #fcfcfc #000000 #000000;
#X msg 453 230 -1;
#X msg 374 337 line 0 \, bang;
#X obj 371 202 t b b b, f 12;
#X obj 412 263 bng 19 250 50 0 empty empty empty 0 -10 0 12 #fcfcfc #000000 #000000;
#X text 424 133 on save: clear data send savestate message to params params save state to text dump text into savestate, f 36;
#X obj 617 359 list trim;
#X obj 39 102 list;
#X obj 374 421 outlet;
#X obj 39 135 text set \$1-paramData 9999;
#X obj 41 226 text define \$1-paramData;
#X obj 617 394 s \$1-params;
#X obj 39 68 r \$1-params;
#X obj 614 305 inlet;
#X obj 370 125 inlet;
#X obj 453 259 text delete \$1-paramData;
#X obj 374 364 text sequence \$1-paramData;
#X obj 412 300 s \$1-savestate;
#X connect 1 0 4 0;
#X connect 2 0 16 0;
#X connect 3 0 17 0;
#X connect 4 0 3 0;
#X connect 4 1 5 0;
#X connect 4 2 2 0;
#X connect 5 0 18 0;
#X connect 7 0 12 0;
#X connect 8 0 10 0;
#X connect 13 0 8 0;
#X connect 14 0 7 0;
#X connect 15 0 1 0;
#X connect 17 0 9 0;
