#N canvas 338 50 990 828 12;
#X obj 444 1002 phasor~, f 8;
#X msg 498 971 0;
#X obj 444 784 t f 0 b f, f 24;
#X obj 608 1177 snapshot~;
#X obj 609 1036 bng 19 250 50 0 empty empty empty 0 -10 0 12 #fcfcfc #000000 #000000;
#X msg 609 872 0 \, 1 \$1;
#X obj 609 1002 line 0 10;
#X obj 262 779 pipe;
#X msg 262 726 \$2 \$3;
#X obj 262 750 unpack;
#X obj 609 845 - 1;
#X obj 49 1043 s \$0-float-out;
#X msg 444 753 \$3;
#X obj 49 86 inlet;
#X obj 441 1296 outlet~;
#X obj 608 1294 outlet;
#X obj 608 1251 r \$0-float-out;
#X obj 738 1007 sig~;
#X msg 738 966 \$1;
#X msg 781 966 \$2;
#X obj 781 1007 sig~;
#X obj 443 1103 expr~ ($v3 - $v2) * $v1/1 + $v2, f 60;
#X obj 608 1218 s \$0-float-out;
#X obj 738 934 t l l;
#X obj 444 937 expr 1/$f1 * 1000;
#X obj 609 810 abs;
#X text 342 181 negative times run in reverse!;
#X msg 84 183 0 1 1000;
#X obj 444 1033 expr~ tanh($v1 * 2);
#X obj 263 679 t l l l b, f 74;
#X msg 109 888 0;
#X obj 528 864 s \$0-sh;
#X msg 528 842 1;
#X text 140 886 stop phasor, f 12;
#X msg 168 183 1 0 1000;
#X text 58 31 a curvy combination of line and line~;
#X obj 49 843 t f b f b;
#X obj 89 925 sig~;
#X obj 69 1011 s \$0-hold;
#X msg 69 977 1;
#X obj 89 949 s~ \$0-holdsig;
#N canvas 115 305 450 374 hold~ 0;
#X obj 169 53 inlet~;
#X obj 118 284 outlet~;
#X obj 119 112 r~ \$0-holdsig;
#X obj 136 146 r \$0-hold;
#X obj 118 181 *~;
#X obj 186 181 expr 1 - $f1;
#X obj 168 215 *~;
#X obj 118 249 +~;
#X connect 0 0 6 0;
#X connect 2 0 4 0;
#X connect 3 0 4 1;
#X connect 3 0 5 0;
#X connect 4 0 7 0;
#X connect 5 0 6 1;
#X connect 6 0 7 1;
#X connect 7 0 1 0;
#X restore 443 1138 pd hold~;
#X obj 718 753 s \$0-hold;
#X msg 718 729 0;
#X obj 49 312 route float list, f 37;
#X text 107 78 float: sets output;
#X msg 636 964 stop, f 8;
#X obj 81 612 s \$0-stop;
#X obj 49 573 t f b;
#X obj 636 936 r \$0-stop;
#X text 108 100 list: [start \, end \, milliseconds \, curve (0 - 1)] (curve todo), f 67;
#X msg 252 183 1 0 -1000;
#X obj 235 397 list length;
#X obj 203 350 t l l;
#X obj 203 439 list prepend;
#X obj 203 477 route 2 3;
#X msg 263 511 \$1 \$2 \$3;
#X msg 203 511 \$2;
#X text 287 231 no time specified jumps immediately;
#X msg 249 232 1 5;
#X msg 252 261 4;
#X text 289 262 as do floats;
#X text 842 1571 you have great buns.;
#X text 1106 2062 yes \, you Cayn.;
#X connect 0 0 28 0;
#X connect 1 0 0 1;
#X connect 2 0 24 0;
#X connect 2 1 1 0;
#X connect 2 2 32 0;
#X connect 2 3 25 0;
#X connect 3 0 22 0;
#X connect 4 0 3 0;
#X connect 5 0 6 0;
#X connect 6 0 4 0;
#X connect 7 0 36 0;
#X connect 8 0 9 0;
#X connect 9 0 7 0;
#X connect 9 1 7 1;
#X connect 10 0 5 0;
#X connect 12 0 2 0;
#X connect 13 0 44 0;
#X connect 16 0 15 0;
#X connect 17 0 21 1;
#X connect 18 0 17 0;
#X connect 19 0 20 0;
#X connect 20 0 21 2;
#X connect 21 0 41 0;
#X connect 23 0 18 0;
#X connect 23 1 19 0;
#X connect 24 0 0 0;
#X connect 25 0 10 0;
#X connect 27 0 44 0;
#X connect 28 0 21 0;
#X connect 29 0 8 0;
#X connect 29 1 12 0;
#X connect 29 2 23 0;
#X connect 29 3 43 0;
#X connect 30 0 0 0;
#X connect 32 0 31 0;
#X connect 34 0 44 0;
#X connect 36 0 11 0;
#X connect 36 1 39 0;
#X connect 36 2 37 0;
#X connect 36 3 30 0;
#X connect 37 0 40 0;
#X connect 39 0 38 0;
#X connect 41 0 3 0;
#X connect 41 0 14 0;
#X connect 43 0 42 0;
#X connect 44 0 48 0;
#X connect 44 1 53 0;
#X connect 46 0 6 0;
#X connect 48 0 36 0;
#X connect 48 1 47 0;
#X connect 49 0 46 0;
#X connect 51 0 44 0;
#X connect 52 0 54 1;
#X connect 53 0 54 0;
#X connect 53 1 52 0;
#X connect 54 0 55 0;
#X connect 55 0 57 0;
#X connect 55 1 56 0;
#X connect 55 2 56 0;
#X connect 56 0 29 0;
#X connect 57 0 48 0;
#X connect 59 0 44 0;
#X connect 60 0 44 0;
