#N canvas 181 179 1111 743 12;
#X obj 324 149 mtof;
#X obj 516 926 outlet~;
#X obj 614 25 inlet;
#X obj 614 53 unpack, f 53;
#X obj 982 684 bop.p.adsr~ \$1;
#X obj 516 753 *~, f 67;
#X obj 544 468 r~ \$1-get-noise;
#X obj 348 180 r \$1-get-slide;
#X obj 534 786 r~ \$1-get-gain;
#X obj 323 285 line~;
#X obj 342 73 r \$1-get-osc-1-tune;
#X obj 324 120 +;
#X obj 516 438 +~;
#X obj 569 532 noise~;
#X obj 534 532 *~;
#X obj 516 682 bob~, f 16;
#X obj 625 648 *~ 4;
#X obj 516 562 +~;
#X obj 516 856 *~;
#X obj 569 574 r~ \$1-get-cutoff;
#X obj 625 619 r~ \$1-get-q;
#X obj 544 492 pow~ 4;
#X obj 534 810 pow~ 4;
#X obj 324 256 pack;
#X obj 516 880 *~ 0.4;
#X obj 600 160 mtof;
#X obj 624 201 r \$1-get-slide;
#X obj 599 296 line~;
#X obj 600 131 +;
#X obj 624 235 * 1200;
#X obj 600 267 pack;
#X obj 618 84 r \$1-get-osc-2-tune;
#X obj 321 327 bop.p.osc \$1 osc-1;
#X obj 601 341 bop.p.osc \$1 osc-2;
#X obj 348 214 * 400;
#X connect 0 0 23 0;
#X connect 2 0 3 0;
#X connect 3 0 11 0;
#X connect 3 0 28 0;
#X connect 3 1 4 0;
#X connect 4 0 5 1;
#X connect 5 0 18 0;
#X connect 6 0 21 0;
#X connect 7 0 34 0;
#X connect 8 0 22 0;
#X connect 9 0 32 0;
#X connect 10 0 11 1;
#X connect 11 0 0 0;
#X connect 12 0 17 0;
#X connect 13 0 14 1;
#X connect 14 0 17 1;
#X connect 15 0 5 0;
#X connect 16 0 15 2;
#X connect 17 0 15 0;
#X connect 18 0 24 0;
#X connect 19 0 15 1;
#X connect 20 0 16 0;
#X connect 21 0 14 0;
#X connect 22 0 18 1;
#X connect 23 0 9 0;
#X connect 24 0 1 0;
#X connect 25 0 30 0;
#X connect 26 0 29 0;
#X connect 27 0 33 0;
#X connect 28 0 25 0;
#X connect 29 0 30 1;
#X connect 30 0 27 0;
#X connect 31 0 28 1;
#X connect 32 0 12 0;
#X connect 33 0 12 1;
#X connect 34 0 23 1;
