#N canvas 0 37 806 891 12;
#X obj 104 172 inlet;
#X msg 136 337 read -resize \$1 \$2-sample-array-\$3;
#X obj 104 253 pack s \$2 \$1;
#X obj 136 416 soundfiler, f 19;
#X obj 199 29 array define \$2-sample-array-\$1;
#X obj 104 205 route read;
#X obj 104 500 array size \$2-sample-array-\$1, f 21;
#X obj 104 303 t b l;
#X text 150 380 load audio into ram;
#X msg 276 450 \$1;
#X obj 136 669 /, f 7;
#X text 199 53 example read message \; read -resize /Users/bob/repos/bop/samples/bank000/PreparedPiano093.wav 11-sample-array-1003, f 97;
#X text 98 134 ---- LOAD SAMPLES ----;
#X text 61 22 args \; \$1 sample number \; \$2 parent \$0 \;;
#X obj 104 704 pack f f f;
#X obj 104 575 pack, f 25;
#X obj 136 639 unpack, f 7;
#X obj 104 604 t l l;
#X obj 105 849 text set \$2-sample-info;
#X obj 104 744 t l b, f 24;
#X obj 269 789 f \$1;
#X obj 104 774 list prepend \$2-sample-array-\$1, f 19;
#X text 929 926 comment;
#X text 272 818 array name \, size (samples) \, sample rate \, duration (seconds);
#X connect 0 0 5 0;
#X connect 1 0 3 0;
#X connect 2 0 7 0;
#X connect 3 1 9 0;
#X connect 5 0 2 0;
#X connect 6 0 15 0;
#X connect 7 0 6 0;
#X connect 7 1 1 0;
#X connect 9 0 15 1;
#X connect 10 0 14 2;
#X connect 14 0 19 0;
#X connect 15 0 17 0;
#X connect 16 0 10 0;
#X connect 16 1 10 1;
#X connect 17 0 14 0;
#X connect 17 1 16 0;
#X connect 19 0 21 0;
#X connect 19 1 20 0;
#X connect 20 0 18 1;
#X connect 21 0 18 0;
