#N canvas 985 511 450 352 12;
#X obj 70 115 route enum;
#X obj 70 300 s, f 14;
#X obj 70 187 t l l, f 14;
#X obj 70 150 list;
#X msg 165 263 symbol \$1-enum-\$2;
#X msg 70 264 symbol \$2;
#X obj 70 28 inlet;
#X obj 165 224 list prepend \$1;
#X text 169 41 \$1: parent \$0;
#X obj 137 150 s \$1-to-gui;
#X obj 82 64 outlet;
#X connect 0 0 3 0;
#X connect 0 1 9 0;
#X connect 2 0 5 0;
#X connect 2 1 7 0;
#X connect 3 0 2 0;
#X connect 4 0 1 1;
#X connect 5 0 1 0;
#X connect 6 0 0 0;
#X connect 6 0 10 0;
#X connect 7 0 4 0;
