#N canvas 54 189 693 668 12;
#X obj 225 173 inlet;
#X obj 226 591 outlet;
#X obj 383 390 list;
#X obj 224 526 list;
#X obj 444 324 bng 19 250 50 0 empty empty empty 0 -10 0 12 #fcfcfc #000000 #000000;
#X text 86 145 bang outputs current list;
#X text 84 126 list \, symbol \, float are added to list;
#X obj 443 185 inlet;
#X obj 225 229 route bang;
#X text 444 150 bang clears list;
#X obj 267 423 list prepend, f 30;
#X connect 0 0 8 0;
#X connect 2 0 10 1;
#X connect 3 0 1 0;
#X connect 4 0 10 1;
#X connect 7 0 4 0;
#X connect 8 0 3 0;
#X connect 8 1 10 0;
#X connect 10 0 2 0;
#X connect 10 0 3 1;
