#N canvas 0 37 1470 891 12;
#X obj 60 36 inlet;
#X text 196 24 args \; \$1 voice number \; \$2 parent \$0 \;;
#X obj 839 1360 tabread4~ \$2-sample-array-\$1;
#X obj 60 65 s \$2-inlet-\$1;
#X obj 56 177 r \$2-inlet-\$1;
#X obj 56 210 route play;
#X obj 441 846 phasor~, f 38;
#X msg 704 614 0;
#X msg 445 694 0;
#X obj 825 2435 hip~ 5;
#X obj 825 2481 outlet~;
#X obj 439 1249 *~;
#X obj 457 1218 r \$2-samplerate-\$1;
#X obj 445 300 > 0;
#X text 478 302 todo - handle velocity;
#X text 1322 2609 comment;
#X obj 56 333 sig~;
#X obj 329 784 *~, f 17;
#X msg 671 614 1;
#X obj 69 558 r \$2-duration-\$1;
#X obj 671 570 t b b;
#X text 263 663 duration in hz;
#X obj 74 423 r~ \$2-get-tune;
#X obj 56 485 +~;
#X text 100 475 pitch offset in semitones, f 17;
#X obj 445 340 sel 0 1, f 18;
#X obj 445 652 r \$0-sample-end;
#X obj 439 1080 expr~ ($v1 - $v2) / $v3;
#X obj 569 944 r \$2-get-loop-start;
#X obj 518 1022 sig~;
#X obj 551 980 f;
#X obj 550 918 r \$0-sample-end;
#X msg 518 911 0;
#X obj 564 1018 r~ \$2-get-loop-length;
#X obj 439 1124 wrap~;
#X obj 439 1182 expr~ $v1 * $v2 + $v3;
#X obj 511 1127 r~ \$2-get-loop-length;
#X obj 583 1157 r~ \$2-get-loop-start;
#X obj 673 2281 line~;
#X msg 673 2223 1 \$1;
#X obj 825 2394 *~;
#X obj 673 2193 f;
#X obj 691 2159 * 1000;
#X obj 147 1224 threshold~ 0.999 10 0.9988 10;
#X obj 147 1258 bng 19 250 50 0 empty empty empty 0 -10 0 12 #fcfcfc #000000 #000000;
#X obj 186 1256 r \$2-get-loop;
#X obj 186 1286 == 0;
#X obj 147 1314 spigot;
#X obj 518 1736 f;
#X msg 518 2050 0 \$1;
#X obj 673 2318 pow~ 3;
#X obj 513 1405 r \$2-get-loop;
#X obj 495 1430 f;
#X obj 495 1464 sel 0 1;
#X text 861 2390 todo: optimize with a switch~;
#X obj 55 263 unpack f f f, f 112;
#X text 173 174 [target] play [pitch] [velocity] [sample];
#X obj 838 332 text get \$2-sample-info;
#X obj 933 423 s \$2-duration-\$1;
#X obj 901 447 s \$2-samplerate-\$1;
#X obj 838 385 unpack s f f f;
#X obj 839 481 list prepend set;
#X obj 839 515 list trim;
#X obj 56 397 -~;
#X obj 74 362 r~ \$2-get-root;
#X obj 57 522 expr~ pow(2 \, $v1/12), f 21;
#X obj 57 590 /~;
#X obj 691 2120 r \$2-get-attack;
#X obj 536 1677 r \$2-get-release;
#X obj 518 1633 bng 19 250 50 0 empty empty empty 0 -10 0 12 #fcfcfc #000000 #000000;
#X obj 446 405 s \$0-note-off;
#X obj 502 374 s \$0-note-on;
#X obj 671 534 r \$0-note-on;
#X obj 518 886 r \$0-note-on;
#X obj 673 2090 r \$0-note-on;
#X obj 495 1368 r \$0-note-off;
#X obj 536 1705 * 2000;
#X obj 296 1574 snapshot~;
#X obj 633 1981 delay;
#X obj 518 1848 t f b f, f 33;
#X obj 634 2046 s \$0-sample-end;
#X obj 147 1354 s \$0-note-off;
#X obj 633 2010 bng 19 250 50 0 empty empty empty 0 -10 0 12 #fcfcfc #000000 #000000;
#X obj 296 1785 min, f 9;
#X obj 314 1664 r \$2-duration-\$1;
#X obj 314 1688 * 1000;
#X obj 296 1731 *;
#X obj 356 1731 r \$2-get-release;
#X obj 356 1759 * 2000;
#X obj 495 1505 bng 19 250 50 0 empty empty empty 0 -10 0 12 #fcfcfc #000000 #000000;
#X obj 296 1618 expr 1 - $f1;
#X obj 535 1897 r \$0-note-on;
#X msg 535 1921 stop;
#X text 145 1375 stop sample when not looping, f 14;
#X connect 0 0 3 0;
#X connect 2 0 40 1;
#X connect 4 0 5 0;
#X connect 5 0 55 0;
#X connect 6 0 27 0;
#X connect 7 0 6 1;
#X connect 8 0 17 1;
#X connect 9 0 10 0;
#X connect 11 0 2 0;
#X connect 12 0 11 1;
#X connect 13 0 25 0;
#X connect 16 0 63 0;
#X connect 17 0 6 0;
#X connect 18 0 17 1;
#X connect 19 0 66 1;
#X connect 20 0 18 0;
#X connect 20 1 7 0;
#X connect 22 0 23 1;
#X connect 23 0 65 0;
#X connect 25 0 70 0;
#X connect 25 1 71 0;
#X connect 26 0 8 0;
#X connect 27 0 34 0;
#X connect 28 0 30 1;
#X connect 29 0 27 1;
#X connect 30 0 29 0;
#X connect 31 0 30 0;
#X connect 32 0 29 0;
#X connect 33 0 27 2;
#X connect 34 0 35 0;
#X connect 34 0 43 0;
#X connect 35 0 11 0;
#X connect 35 0 77 0;
#X connect 36 0 35 1;
#X connect 37 0 35 2;
#X connect 38 0 50 0;
#X connect 39 0 38 0;
#X connect 40 0 9 0;
#X connect 41 0 39 0;
#X connect 42 0 41 1;
#X connect 43 0 44 0;
#X connect 44 0 47 0;
#X connect 45 0 46 0;
#X connect 46 0 47 1;
#X connect 47 0 81 0;
#X connect 48 0 79 0;
#X connect 49 0 38 0;
#X connect 50 0 40 0;
#X connect 51 0 52 1;
#X connect 52 0 53 0;
#X connect 53 0 89 0;
#X connect 53 1 69 0;
#X connect 55 0 16 0;
#X connect 55 1 13 0;
#X connect 55 2 57 0;
#X connect 57 0 60 0;
#X connect 60 0 61 0;
#X connect 60 2 59 0;
#X connect 60 3 58 0;
#X connect 61 0 62 0;
#X connect 62 0 2 0;
#X connect 63 0 23 0;
#X connect 64 0 63 1;
#X connect 65 0 66 0;
#X connect 66 0 17 0;
#X connect 67 0 42 0;
#X connect 68 0 76 0;
#X connect 69 0 48 0;
#X connect 72 0 20 0;
#X connect 73 0 32 0;
#X connect 74 0 41 0;
#X connect 75 0 52 0;
#X connect 76 0 48 1;
#X connect 77 0 90 0;
#X connect 78 0 82 0;
#X connect 79 0 49 0;
#X connect 79 1 78 0;
#X connect 79 2 78 1;
#X connect 82 0 80 0;
#X connect 83 0 79 0;
#X connect 84 0 85 0;
#X connect 85 0 86 1;
#X connect 86 0 83 0;
#X connect 87 0 88 0;
#X connect 88 0 83 1;
#X connect 89 0 77 0;
#X connect 90 0 86 0;
#X connect 91 0 92 0;
#X connect 92 0 78 0;
