#N canvas 0 37 735 891 12;
#X declare -path ./;
#X text 2000 2307 hi there! you are great! :);
#X msg 2545 157 dump;
#X obj 2558 237 print;
#X msg 129 1003 open;
#X msg 174 1072 go;
#X msg 209 1073 stop;
#X obj 226 1174 print;
#X msg 261 1073 loop \$1;
#X obj 261 1047 tgl 19 0 empty empty empty 0 -10 0 12 #fcfcfc #000000 #000000 0 1;
#X obj 96 932 loadbang;
#X text 165 921 loadbang and read loads after internal savestate mechanism, f 31;
#X msg 96 962 read sequences/seq-help1.bopseq;
#X msg 749 146 path ../sample-test;
#X msg 759 179 path samples;
#X obj 675 360 print;
#X msg 857 235 folder \$1;
#X floatatom 857 207 5 0 0 0 - - - 0;
#X text 854 179 < default path;
#X text 177 1003 < else sequence content saved with parent patch, f 26;
#X text 542 208 STREAMSAMPLE~;
#X text 93 893 SEQUENCE;
#X text 49 180 CASIO~;
#X text 898 139 < alternative path relative to bop/, f 22;
#X msg 798 1551 dump;
#X msg 684 1353 semisteps 0.777;
#X msg 788 1511 hold \$1;
#X obj 795 1476 tgl 19 0 empty empty empty 0 -10 0 12 #fcfcfc #000000 #000000 0 1;
#X msg 774 1436 velocity 1;
#X msg 747 1406 duration 1;
#X text 687 1319 SEMISTEPS;
#X msg 100 1629 dump;
#X msg 445 1591 hold \$1;
#X obj 445 1555 tgl 19 0 empty empty empty 0 -10 0 12 #fcfcfc #000000 #000000 0 1;
#X text 137 1270 FRETS;
#X msg 208 1417 frets -12.224;
#X msg 62 1630 stop;
#X text 240 1304 E B E G#;
#X msg 139 1307 frets 0.221;
#X msg 160 1334 frets 0.022;
#X text 262 1335 E A E A;
#X msg 194 1391 frets 1.33211;
#X text 304 1387 F C F A C F;
#X text 324 1414 E(8vb) B E B;
#X msg 181 1363 frets 3.20202;
#X text 292 1365 G B D A B F#;
#X msg 443 1445 duration 0.5;
#X msg 450 1521 tuning 0.55545;
#X msg 141 131 64 127;
#X obj 84 331 dac~;
#X msg 858 287 gain 1 1000;
#X msg 857 262 gain 0 1000;
#X obj 192 336 print;
#X msg 198 257 stop;
#X msg 157 158 gain 0.9 \, release 0.1 \, sustain 0.507143 \, decay 0.535714 \, attack 0.3 \, wave-2 1 \, wave-1 5 \, filter 0.32857, f 36;
#X msg 841 1554 stop;
#X text 1304 130 INTRUMENT~;
#X obj 1278 323 dac~;
#X obj 1429 327 print;
#X msg 1283 161 loop 1 \, go;
#X msg 1364 161 stop;
#X obj 147 1790 dac~;
#X obj 298 1794 print;
#X text 2437 81 has bugs -----------------------------;
#X obj 345 1750 bop.p/bop.p.onlist;
#X listbox 345 1774 20 0 0 0 - - - 0;
#X msg 676 143 0 127;
#X obj 598 361 dac~;
#X msg 763 315 stop;
#X obj 761 1231 dac~;
#X obj 986 1258 print;
#X obj 814 830 hsl 162 19 0 1 0 0 empty empty empty -2 -10 0 12 #fcfcfc #000000 #000000 0 1;
#X msg 703 1083 dump;
#X msg 981 1043 octaves \$1;
#X floatatom 986 1005 5 0 0 0 - - - 0;
#X msg 740 860 chord \$1;
#X floatatom 744 827 5 0 0 0 - - - 0;
#X msg 736 1050 stop;
#X msg 1069 1044 shuffle \$1;
#X obj 1067 1014 tgl 19 0 empty empty empty 0 -10 0 12 #fcfcfc #000000 #000000 0 1;
#X floatatom 1169 1003 5 0 0 0 - - - 0;
#X msg 1165 1042 duration \$1;
#X floatatom 1169 1069 5 0 0 0 - - - 0;
#X msg 1168 1092 velocity \$1;
#X floatatom 913 1004 5 0 0 0 - - - 0;
#X msg 908 1042 root \$1;
#X text 675 962 STRUM;
#X listbox 912 1292 37 0 0 0 - - - 0;
#X obj 912 1256 list;
#X obj 722 1693 dac~;
#X obj 873 1707 print;
#X msg 449 1478 velocity 0.5;
#X obj 917 1689 bop.p/bop.p.onlist;
#X listbox 917 1713 20 0 0 0 - - - 0;
#X obj 129 802 dac~;
#X msg 233 485 feedback loop 0.7 4000 0 3000;
#X msg 388 712 dump;
#X msg 346 712 stop;
#X obj 49 563 * 127;
#X obj 52 526 tgl 19 0 empty empty empty 0 -10 0 12 #fcfcfc #000000 #000000 0 1;
#X msg 55 1062 dump;
#X msg 763 337 dump;
#X msg 199 280 dump;
#X msg 1392 224 dump;
#X obj 201 797 print;
#X obj 1809 362 print;
#X msg 1887 260 dump;
#X obj 1704 377 dac~;
#X msg 1809 204 open;
#X msg 1687 176 loop 1 \, go;
#X msg 1768 176 stop;
#X msg 1848 260 stop;
#X text 1649 130 SYNTH~;
#X text 43 85 WORKING ---------------------------------------------------------------------------------------------------------------------------------------------------------------------------------------------------------------------------------------------------, f 247;
#X obj 1497 859 print;
#X msg 1602 776 dump, f 6;
#X obj 1447 880 dac~;
#X obj 1473 559 tgl 19 0 empty empty empty 0 -10 0 12 #fcfcfc #000000 #000000 0 1;
#X obj 1473 583 * 127;
#X floatatom 1599 719 5 0 0 0 - - - 0;
#X obj 1599 692 hsl 162 19 0 1 0 0 empty empty empty -2 -10 0 12 #fcfcfc #000000 #000000 0 1;
#X text 1384 677 FM~;
#X msg 203 65 \; pd dsp 1;
#X obj 203 32 loadbang;
#X obj 112 563 loadbang;
#X msg 1476 614 30 \$1;
#X msg 1603 748 fm \$1 200;
#X msg 223 458 delay-time loop 0.5 500 1 500;
#X msg 238 512 delay-time 2.5 0.1 7000;
#X text 321 555 cutoff (Hz);
#X text 71 448 DELAY~;
#X text 322 536 delay-time (seconds) max 2.5s;
#X msg 49 593 60 \$1;
#X msg 111 604 instrument 0;
#X msg 249 577 cutoff 1200 \, q 0.1 \, feedback 0.7 \, delay-time 0.7 \, delay-level 1 \, dry-level 1, f 24;
#X msg 254 649 feedback 0.8 \, delay-time 0.5;
#X obj 874 531 * 127;
#X obj 877 494 tgl 19 0 empty empty empty 0 -10 0 12 #fcfcfc #000000 #000000 0 1;
#X obj 948 692 print;
#X msg 983 608 dump;
#X obj 825 687 dac~;
#X msg 1039 613 stop;
#X text 810 460 reverb~, f 8;
#X msg 874 561 80 \$1;
#X obj 965 480 loadbang;
#X obj 252 547 loadbang;
#X text 1053 485 cutoff (Hz);
#X msg 1405 157 open;
#X msg 986 563 dry 1 \, wet 0.7 \, cutoff 3000 \, damp 0.5 \, size 0.5, f 24;
#X msg 965 507 dry 0.2 \, wet 1 \, cutoff 8000 \, damp 0.8 \, size 0.9, f 24;
#X obj 56 28 declare -path ./;
#X obj 86 281 bop.casio~;
#X obj 598 307 bop.stream~;
#X obj 1278 283 bop.instrument~;
#X obj 1281 221 bop.sequence;
#A saved stop \; 50 127 \; 57 127 \; - 500 \; 53 127 \; 60 127 \; - 2000 \;;
#X obj 1685 236 bop.sequence;
#A saved 53 0 \; 60 0 \; 50 127 \; 57 127 \; - 500 \; 50 0 \; 57 0 \; 53 127 \; 60 127 \; - 2000 \;;
#X obj 1710 299 bop.synth~;
#X obj 1447 818 bop.fm~;
#X obj 1463 678 bop.fm~;
#X obj 2476 201 bop.sampler~;
#X obj 140 1702 bop.frets;
#X obj 147 1750 bop.instrument~;
#X obj 704 1587 bop.semisteps;
#X obj 722 1663 bop.instrument~;
#X obj 761 1191 bop.instrument~;
#X obj 128 743 bop.delay~;
#X obj 96 1138 bop.sequence;
#A saved instrument 3 \; chord 7 \; volume 1 50 \; delay-time loop 0.8 300 0.81 10000 \; === \; --- swell up \; delay-level 0.1 0.01 0.1 2000 0.5 3000 \; noteslider 0 \; noteslider 0.2 3000 0.8 9000 \; root 46 \; octaves 8 \; octaves 4 5000 \; shuffle 1 \; velocity 0.05 \; velocity 0.5 2800 0.1 5000 \; - 9500 \; --- fall \; noteslider 0.75 \; noteslider 0.1 4000 \; root 53 \; octaves 3 \; shuffle 0 \; velocity 0.9 0.2 4000 \; feedback 0.2 400 \; delay-level 0.8 200 0.5 6000 0 6000 \; - 6000 \;;
#X obj 802 1140 bop.strum;
#X msg 812 859 strum \$1;
#X msg 841 908 strum loop 1 2000 1 3000 0.6 0 0 4000;
#X obj 912 1218 route strum;
#X obj 49 637 bop.instrument~;
#X obj 825 642 bop.reverb~;
#X obj 776 595 bop.instrument~;
#X msg 185 229 filter loop 1 50 0 200;
#X obj 1484 721 route list;
#X msg 915 933 strum 0 1 3000;
#X obj 749 117 loadbang;
#X msg 1866 63 osc2-wave 3 \, osc1-wave 2 \, osc2-puslewidth loop 0.1 1234 0.9 1234 \, osc2-gain 1 \, osc2-tune 0 \, osc1-puslewidth loop 0.1 1000 0.9 1000 \, osc1-gain 1 \, osc1-tune -12.03 \, release 0 \, sustain 0 \, decay 1.1 \, attack 0 \, mono 0 \, noise 0.7 \, gain 1 \, q 0.5 \, slide 0.4 \, cutoff loop 1000 3000 10000 5000, f 30;
#X msg 1455 249 instrument 2;
#X obj 1455 225 loadbang;
#X msg 1576 504 release 0.5 \, sustain 0.3 \, decay 0.5 \, attack 0.2 \, envelope 1 \, detune 0 \, divisor 8 \, dividend 1 \, gain 1 \, lfo-depth 0.9 \, lfo-speed 0.1 \, fm 0, f 36;
#X msg 1560 594 release 0.7 \, sustain 0.7 \, decay 0.3 \, attack 0.1 \, envelope 1 \, detune 0.5 \, divisor 1 \, dividend 1 \, gain 0.75 \, lfo-depth 0 \, lfo-speed 0.25 \, fm loop 0.2 2000 0.6 6000, f 36;
#X msg 438 1410 root 50;
#X msg 722 1382 root 50;
#X connect 1 0 158 1;
#X connect 3 0 165 1;
#X connect 4 0 165 1;
#X connect 5 0 165 1;
#X connect 7 0 165 1;
#X connect 8 0 7 0;
#X connect 9 0 11 0;
#X connect 11 0 165 1;
#X connect 12 0 151 1;
#X connect 13 0 151 1;
#X connect 15 0 151 1;
#X connect 16 0 15 0;
#X connect 23 0 161 1;
#X connect 24 0 161 1;
#X connect 25 0 161 1;
#X connect 26 0 25 0;
#X connect 27 0 161 1;
#X connect 28 0 161 1;
#X connect 30 0 159 1;
#X connect 31 0 159 1;
#X connect 32 0 31 0;
#X connect 34 0 159 1;
#X connect 35 0 159 1;
#X connect 37 0 159 1;
#X connect 38 0 159 1;
#X connect 40 0 159 1;
#X connect 43 0 159 1;
#X connect 45 0 159 1;
#X connect 46 0 159 1;
#X connect 47 0 150 1;
#X connect 49 0 151 1;
#X connect 50 0 151 1;
#X connect 52 0 150 1;
#X connect 53 0 150 1;
#X connect 54 0 161 1;
#X connect 58 0 153 1;
#X connect 59 0 153 1;
#X connect 63 0 64 0;
#X connect 65 0 151 1;
#X connect 67 0 151 1;
#X connect 70 0 167 0;
#X connect 71 0 166 1;
#X connect 72 0 166 1;
#X connect 73 0 72 0;
#X connect 74 0 166 1;
#X connect 75 0 74 0;
#X connect 76 0 166 1;
#X connect 77 0 166 1;
#X connect 78 0 77 0;
#X connect 79 0 80 0;
#X connect 80 0 166 1;
#X connect 81 0 82 0;
#X connect 82 0 166 1;
#X connect 83 0 84 0;
#X connect 84 0 166 1;
#X connect 87 0 86 0;
#X connect 90 0 159 1;
#X connect 91 0 92 0;
#X connect 94 0 164 1;
#X connect 95 0 164 1;
#X connect 96 0 164 1;
#X connect 97 0 131 0;
#X connect 98 0 97 0;
#X connect 99 0 165 1;
#X connect 100 0 151 1;
#X connect 101 0 150 1;
#X connect 102 0 152 1;
#X connect 105 0 155 1;
#X connect 107 0 154 1;
#X connect 108 0 154 1;
#X connect 109 0 154 1;
#X connect 110 0 155 1;
#X connect 114 0 156 2;
#X connect 116 0 117 0;
#X connect 117 0 124 0;
#X connect 118 0 125 0;
#X connect 119 0 118 0;
#X connect 122 0 121 0;
#X connect 123 0 132 0;
#X connect 124 0 157 2;
#X connect 125 0 156 2;
#X connect 126 0 164 1;
#X connect 127 0 164 1;
#X connect 131 0 170 1;
#X connect 132 0 170 1;
#X connect 133 0 164 1;
#X connect 134 0 164 1;
#X connect 135 0 142 0;
#X connect 136 0 135 0;
#X connect 138 0 171 1;
#X connect 140 0 171 1;
#X connect 142 0 172 1;
#X connect 143 0 148 0;
#X connect 144 0 133 0;
#X connect 146 0 153 1;
#X connect 147 0 171 1;
#X connect 148 0 171 1;
#X connect 150 0 48 0;
#X connect 150 0 48 1;
#X connect 150 1 51 0;
#X connect 151 0 66 0;
#X connect 151 0 66 1;
#X connect 151 1 14 0;
#X connect 152 0 56 0;
#X connect 152 0 56 1;
#X connect 152 1 57 0;
#X connect 153 1 152 1;
#X connect 154 1 155 1;
#X connect 155 0 106 0;
#X connect 155 0 106 1;
#X connect 155 1 104 0;
#X connect 156 0 115 0;
#X connect 156 0 115 1;
#X connect 156 1 113 0;
#X connect 157 0 156 1;
#X connect 157 1 174 0;
#X connect 158 1 2 0;
#X connect 159 1 63 0;
#X connect 159 1 160 1;
#X connect 160 0 60 0;
#X connect 160 0 60 1;
#X connect 160 1 61 0;
#X connect 161 1 162 1;
#X connect 162 0 88 0;
#X connect 162 0 88 1;
#X connect 162 1 89 0;
#X connect 162 1 91 0;
#X connect 163 0 68 0;
#X connect 163 0 68 1;
#X connect 163 1 169 0;
#X connect 164 0 93 0;
#X connect 164 0 93 1;
#X connect 164 1 103 0;
#X connect 165 1 6 0;
#X connect 166 1 163 1;
#X connect 167 0 166 1;
#X connect 168 0 166 1;
#X connect 169 0 87 0;
#X connect 169 1 69 0;
#X connect 170 0 164 0;
#X connect 171 0 139 0;
#X connect 171 0 139 1;
#X connect 171 1 137 0;
#X connect 172 0 171 0;
#X connect 173 0 150 1;
#X connect 174 0 156 2;
#X connect 175 0 166 1;
#X connect 176 0 12 0;
#X connect 177 0 155 1;
#X connect 178 0 152 1;
#X connect 179 0 178 0;
#X connect 180 0 157 2;
#X connect 181 0 156 2;
#X connect 182 0 159 1;
#X connect 183 0 161 1;
