#N canvas 5 37 1470 891 12;
#X declare -path ./bop;
#X obj 44 33 declare -path ./bop;
#X text 1830 1267 hi there! you are great! :);
#X msg 1326 165 dump;
#X obj 1459 231 print;
#X obj 1326 201 bop.module/sampler~;
#X obj 48 370 bop.module/sequence;
#A saved instrument 3 \; chord 7 \; volume 1 50 \; delay-time loop 0.8 300 0.81 10000 \; === \; --- swell up \; delay-level 0.1 0.01 0.1 2000 0.5 3000 \; noteslider 0 \; noteslider 0.2 3000 0.8 9000 \; root 46 \; octaves 8 \; octaves 4 5000 \; shuffle 1 \; velocity 0.05 \; velocity 0.5 2800 0.1 5000 \; - 9500 \; --- fall \; noteslider 0.75 \; noteslider 0.1 4000 \; root 53 \; octaves 3 \; shuffle 0 \; velocity 0.9 0.2 4000 \; feedback 0.2 400 \; delay-level 0.8 200 0.5 6000 0 6000 \; - 6000 \;;
#X msg 81 235 open;
#X msg 99 308 go;
#X msg 134 309 stop;
#X obj 178 406 print;
#X msg 186 309 loop \$1;
#X obj 186 283 tgl 19 0 empty empty empty 0 -10 0 12 #fcfcfc #000000 #000000 0 1;
#X obj 48 164 loadbang;
#X text 117 153 loadbang and read loads after internal savestate mechanism, f 31;
#X msg 48 194 read sequences/seq-help1.bopseq;
#X obj 440 310 bop.module/streamsample~;
#X msg 440 158 path ../sample-test;
#X msg 450 191 path samples;
#X obj 605 344 print;
#X msg 548 247 folder \$1;
#X floatatom 548 219 5 0 0 0 - - - 0;
#X obj 904 282 bop.module/casio~;
#X text 545 191 < default path;
#X text 129 235 < else sequence content saved with parent patch, f 26;
#X text 425 130 STREAMSAMPLE~;
#X text 45 125 SEQUENCE;
#X text 900 131 CASIO~;
#X text 589 151 < alternative path relative to bop/, f 22;
#X obj 68 707 bop.module/semisteps;
#X msg 162 681 dump;
#X obj 202 754 print;
#X msg 51 495 semisteps 0.777;
#X msg 152 651 hold \$1;
#X obj 159 616 tgl 19 0 empty empty empty 0 -10 0 12 #fcfcfc #000000 #000000 0 1;
#X msg 138 576 velocity 1;
#X msg 111 546 duration 1;
#X msg 86 522 root 40;
#X text 51 459 SEMISTEPS;
#X msg 400 812 dump;
#X msg 745 774 hold \$1;
#X obj 745 738 tgl 19 0 empty empty empty 0 -10 0 12 #fcfcfc #000000 #000000 0 1;
#X msg 749 661 velocity 1;
#X msg 738 593 root 40;
#X text 437 453 FRETS;
#X obj 440 885 bop.module/frets;
#X msg 508 600 frets -12.224;
#X msg 362 813 stop;
#X text 540 487 E B E G#;
#X msg 439 490 frets 0.221;
#X msg 460 517 frets 0.022;
#X text 562 518 E A E A;
#X msg 494 574 frets 1.33211;
#X text 604 570 F C F A C F;
#X text 624 597 E(8vb) B E B;
#X msg 481 546 frets 3.20202;
#X text 592 548 G B D A B F#;
#X msg 743 628 duration 0.5;
#X msg 750 704 tuning 0.55545;
#X obj 549 917 print;
#X msg 1062 259 64 127;
#X obj 902 332 dac~;
#X text 1287 81 IN PROGRESS -----------------------------;
#X msg 633 250 gain 1 1000;
#X msg 639 276 gain 0 1000;
#X obj 1010 337 print;
#X msg 832 241 stop;
#X msg 905 160 gain 0.9 \, release 0.1 \, sustain 0.507143 \, decay 0.535714 \, attack 0.3 \, wave-2 1 \, wave-1 5 \, filter 0.32857, f 36;
#X msg 933 231 filter loop 1 50 0 3000;
#X text 43 85 WORKING ----------------------------------------------------------------------------------------------------------------------------------------------------------, f 166;
#X msg 205 684 stop;
#X connect 2 0 4 0;
#X connect 4 1 3 0;
#X connect 5 1 9 0;
#X connect 6 0 5 0;
#X connect 7 0 5 0;
#X connect 8 0 5 0;
#X connect 10 0 5 0;
#X connect 11 0 10 0;
#X connect 12 0 14 0;
#X connect 14 0 5 0;
#X connect 15 1 18 0;
#X connect 16 0 15 0;
#X connect 17 0 15 0;
#X connect 19 0 15 0;
#X connect 20 0 19 0;
#X connect 21 0 60 0;
#X connect 21 0 60 1;
#X connect 21 1 64 0;
#X connect 28 1 30 0;
#X connect 29 0 28 0;
#X connect 31 0 28 0;
#X connect 32 0 28 0;
#X connect 33 0 32 0;
#X connect 34 0 28 0;
#X connect 35 0 28 0;
#X connect 36 0 28 0;
#X connect 38 0 44 0;
#X connect 39 0 44 0;
#X connect 40 0 39 0;
#X connect 41 0 44 0;
#X connect 42 0 44 0;
#X connect 44 1 58 0;
#X connect 45 0 44 0;
#X connect 46 0 44 0;
#X connect 48 0 44 0;
#X connect 49 0 44 0;
#X connect 51 0 44 0;
#X connect 54 0 44 0;
#X connect 56 0 44 0;
#X connect 57 0 44 0;
#X connect 59 0 21 0;
#X connect 62 0 15 0;
#X connect 63 0 15 0;
#X connect 65 0 21 0;
#X connect 66 0 21 0;
#X connect 67 0 21 0;
#X connect 69 0 28 0;
