#N canvas 584 70 886 842 12;
#X declare -path ./bop;
#X obj 624 108 declare -path ./bop;
#X obj 601 611 bop.module/casio~;
#X msg 739 259 wave-1 \$1;
#X floatatom 739 228 5 0 7 0 - - - 0;
#X floatatom 830 228 5 0 7 0 - - - 0;
#X msg 830 259 wave-2 \$1;
#X floatatom 922 228 5 0 1 0 - - - 0;
#X msg 922 259 filter \$1;
#X msg 1011 259 gain \$1;
#X floatatom 1011 228 5 0 1 0 - - - 0;
#X msg 631 149 50 127;
#X msg 691 149 stop;
#X obj 402 665 output~;
#X obj 406 111 bop.gui/casio~;
#A saved release 0;
#A saved sustain 0;
#A saved decay 0;
#A saved attack 0;
#A saved wave-2 0;
#A saved wave-1 0;
#A saved gain 0;
#A saved filter 0;
#X msg 741 149 wave-1 3 \, wave-2 3 \, filter 0.5 \, attack 0.3 \, decay 0.8 \, sustain 0.7 \, release 0.1 \, gain 0.9;
#X text 624 78 hi there! you are great! :);
#X obj 972 784 bng 19 250 50 0 empty empty empty 0 -10 0 12 #fcfcfc #000000 #000000;
#X msg 903 949 gain 0 \, release 0.2 \, sustain 0.7 \, decay 0.3 \, attack 0.1 \, enum wave-2 square \, wave-2 1 \, wave-1 1 \, filter 0.66 \, enum wave-1 square \, gain 0 \, release 0 \, sustain 0 \, decay 0 \, attack 0 \, enum wave-2 \, wave-2 0 \, wave-1 0 \, filter 0 \, enum wave-1 \, gain 0 \, release 0 \, sustain 0 \, decay 0 \, attack 0 \, enum wave-2 \, wave-2 0 \, wave-1 0 \, filter 0 \, enum wave-1 \, gain 0 \, release 0 \, sustain 0 \, decay 0 \, attack 0 \, enum wave-2 \, wave-2 0 \, wave-1 0 \, filter 0 \, enum wave-1 \, gain 0 \, release 0 \, sustain 0 \, decay 0 \, attack 0 \, enum wave-2 \, wave-2 0 \, wave-1 0 \, filter 0 \, enum wave-1 \, gain 0 \, release 0 \, sustain 0 \, decay 0 \, attack 0 \, enum wave-2 \, wave-2 0 \, wave-1 0 \, filter 0 \, enum wave-1 \, gain 0 \, release 0 \, sustain 0 \, decay 0 \, attack 0 \, enum wave-2 \, wave-2 0 \, wave-1 0 \, filter 0 \, enum wave-1 \, gain 0 \, release 0 \, sustain 0 \, decay 0 \, attack 0 \, enum wave-2 \, wave-2 0 \, wave-1 0 \, filter 0 \, enum wave-1 \, gain 0 \, release 0 \, sustain 0 \, decay 0 \, attack 0 \, enum wave-2 \, wave-2 0 \, wave-1 0 \, filter 0 \, enum wave-1 \, gain 0 \, release 0 \, sustain 0 \, decay 0 \, attack 0 \, enum wave-2 \, wave-2 0 \, wave-1 0 \, filter 0 \, enum wave-1 \, gain 0 \, release 0 \, sustain 0 \, decay 0 \, attack 0 \, enum wave-2 \, wave-2 0 \, wave-1 0 \, filter 0 \, enum wave-1 \, gain 0 \, release 0 \, sustain 0 \, decay 0 \, attack 0 \, enum wave-2 \, wave-2 0 \, wave-1 0 \, filter 0 \, enum wave-1 \, gain 0 \, release 0 \, sustain 0 \, decay 0 \, attack 0 \, enum wave-2 \, wave-2 0 \, wave-1 0 \, filter 0 \, enum wave-1 \, gain 0 \, release 0 \, sustain 0 \, decay 0 \, attack 0 \, enum wave-2 \, wave-2 0 \, wave-1 0 \, filter 0 \, enum wave-1 \, gain 0 \, release 0 \, sustain 0 \, decay 0 \, attack 0 \, enum wave-2 \, wave-2 0 \, wave-1 0 \, filter 0 \, enum wave-1 \, gain 0 \, release 0 \, sustain 0 \, decay 0 \, attack 0 \, enum wave-2 \, wave-2 0 \, wave-1 0 \, filter 0 \, enum wave-1 \, gain 0 \, release 0 \, sustain 0 \, decay 0 \, attack 0 \, enum wave-2 \, wave-2 0 \, wave-1 0 \, filter 0 \, enum wave-1 \, gain 0 \, release 0 \, sustain 0 \, decay 0 \, attack 0 \, enum wave-2 \, wave-2 0 \, wave-1 0 \, filter 0 \, enum wave-1 \, gain 0 \, release 0 \, sustain 0 \, decay 0 \, attack 0 \, enum wave-2 \, wave-2 0 \, wave-1 0 \, filter 0 \, enum wave-1 \, gain 0 \, release 0 \, sustain 0 \, decay 0 \, attack 0 \, enum wave-2 \, wave-2 0 \, wave-1 0 \, filter 0 \, enum wave-1 \, gain 0 \, release 0 \, sustain 0 \, decay 0 \, attack 0 \, enum wave-2 \, wave-2 0 \, wave-1 0 \, filter 0 \, enum wave-1 \, gain 0 \, release 0 \, sustain 0 \, decay 0 \, attack 0 \, enum wave-2 \, wave-2 0 \, wave-1 0 \, filter 0 \, enum wave-1 \, gain 0 \, release 0 \, sustain 0 \, decay 0 \, attack 0 \, enum wave-2 \, wave-2 0 \, wave-1 0 \, filter 0 \, enum wave-1 \, gain 0 \, release 0 \, sustain 0 \, decay 0 \, attack 0 \, enum wave-2 \, wave-2 0 \, wave-1 0 \, filter 0 \, enum wave-1 \, gain 0 \, release 0 \, sustain 0 \, decay 0 \, attack 0 \, enum wave-2 \, wave-2 0 \, wave-1 0 \, filter 0 \, enum wave-1 \, gain 0 \, release 0 \, sustain 0 \, decay 0 \, attack 0 \, enum wave-2 \, wave-2 0 \, wave-1 0 \, filter 0 \, enum wave-1 \, gain 0 \, release 0 \, sustain 0 \, decay 0 \, attack 0 \, enum wave-2 \, wave-2 0 \, wave-1 0 \, filter 0 \, enum wave-1 \,, f 38;
#X msg 422 427 gain 0.9 \, release 0.1 \, sustain 0.507143 \, decay 0.535714 \, attack 0.3 \, enum wave-2 res-trapezoid \, wave-2 21 \, wave-1 2 \, filter 0.32857 \, enum wave-1 pulse \,, f 18;
#N canvas 362 247 615 598 dump-and-construct 0;
#X obj 152 367 list prepend add2;
#X obj 226 431 list trim;
#X obj 152 399 t b l, f 11;
#X msg 152 431 addcomma;
#X obj 160 261 list prepend dump;
#X obj 154 337 route dump;
#X obj 155 301 list trim;
#X obj 335 558 outlet;
#X msg 344 431 set;
#X obj 269 92 bng 19 250 50 0 empty empty empty 0 -10 0 12 #fcfcfc #000000 #000000;
#X msg 376 194 dump;
#X obj 204 64 inlet;
#X obj 269 66 inlet;
#X text 11 13 write bop params to a parent-level message box;
#X obj 510 541 outlet;
#X obj 137 551 outlet;
#X obj 269 124 t b b b, f 33;
#X connect 0 0 2 0;
#X connect 1 0 7 0;
#X connect 2 0 3 0;
#X connect 2 1 1 0;
#X connect 3 0 7 0;
#X connect 4 0 6 0;
#X connect 5 0 0 0;
#X connect 6 0 5 0;
#X connect 8 0 7 0;
#X connect 9 0 16 0;
#X connect 10 0 4 1;
#X connect 10 0 15 0;
#X connect 11 0 4 0;
#X connect 11 0 14 0;
#X connect 12 0 9 0;
#X connect 16 0 4 1;
#X connect 16 1 10 0;
#X connect 16 2 8 0;
#X restore 828 821 pd dump-and-construct;
#N canvas 179 216 450 300 (subpatch) 0;
#X obj 152 97 inlet;
#X restore 971 875 pd;
#X text 996 784 < 1.) trigger dump message;
#X text 745 741 < 2.) sends dump message;
#X msg 480 74 dump;
#X text 916 922 < 4.) construct message;
#X text 981 848 < 5.) messages pass thru;
#X msg 78 704 dump;
#X obj 211 770 print;
#X obj 78 740 bop.module/sampler~;
#X text 614 692 3.) receive params >;
#X text 747 598 Module can be remote controlled by a gui version of the same module, f 23;
#X obj 405 74 r to-gui;
#X obj 629 354 s to-gui;
#X obj 58 541 bop.module/sequence;
#A saved instrument 3 \; chord 7 \; volume 1 50 \; delay-time loop 0.8 300 0.81 10000 \; === \; --- swell up \; delay-level 0.1 0.01 0.1 2000 0.5 3000 \; noteslider 0 \; noteslider 0.2 3000 0.8 9000 \; root 46 \; octaves 8 \; octaves 4 5000 \; shuffle 1 \; velocity 0.05 \; velocity 0.5 2800 0.1 5000 \; - 9500 \; --- fall \; noteslider 0.75 \; noteslider 0.1 4000 \; root 53 \; octaves 3 \; shuffle 0 \; velocity 0.9 0.2 4000 \; feedback 0.2 400 \; delay-level 0.8 200 0.5 6000 0 6000 \; - 6000 \;;
#X msg 81 376 open;
#X msg 109 469 go;
#X msg 144 470 stop;
#X obj 188 577 print;
#X msg 196 470 loop \$1;
#X obj 196 444 tgl 19 0 empty empty empty 0 -10 0 12 #fcfcfc #000000 #000000 0 1;
#X obj 58 305 loadbang;
#X text 127 294 loadbang and read loads after internal savestate mechanism, f 31;
#X msg 58 335 read sequences/seq-help1.bopseq;
#X obj 70 225 bop.module/streamsample~;
#X msg 70 153 path ../sample-test;
#X text 66 130 alternative path relative to /bop;
#X msg 80 176 path samples;
#X obj 239 259 print;
#X msg 178 202 folder \$1;
#X floatatom 220 174 5 0 0 0 - - - 0;
#X connect 1 0 12 1;
#X connect 1 1 19 0;
#X connect 2 0 32 0;
#X connect 3 0 2 0;
#X connect 4 0 5 0;
#X connect 5 0 32 0;
#X connect 6 0 7 0;
#X connect 7 0 32 0;
#X connect 8 0 32 0;
#X connect 9 0 8 0;
#X connect 10 0 32 0;
#X connect 11 0 32 0;
#X connect 13 0 12 0;
#X connect 13 1 1 0;
#X connect 14 0 32 0;
#X connect 16 0 19 1;
#X connect 18 0 1 0;
#X connect 19 0 1 0;
#X connect 19 1 17 0;
#X connect 19 2 20 0;
#X connect 23 0 13 0;
#X connect 26 0 28 0;
#X connect 28 1 27 0;
#X connect 31 0 13 0;
#X connect 33 1 37 0;
#X connect 34 0 33 0;
#X connect 35 0 33 0;
#X connect 36 0 33 0;
#X connect 38 0 33 0;
#X connect 39 0 38 0;
#X connect 40 0 42 0;
#X connect 42 0 33 0;
#X connect 44 0 43 0;
#X connect 46 0 43 0;
#X connect 48 0 43 0;
#X connect 49 0 48 0;
