#N canvas 754 85 701 842 12;
#X declare -path ./bop;
#X obj 624 108 declare -path ./bop;
#X obj 601 611 bop.module/casio~;
#X msg 739 259 wave-1 \$1;
#X floatatom 739 228 5 0 7 0 - - - 0;
#X floatatom 830 228 5 0 7 0 - - - 0;
#X msg 830 259 wave-2 \$1;
#X floatatom 922 228 5 0 1 0 - - - 0;
#X msg 922 259 filter \$1;
#X msg 1011 259 gain \$1;
#X floatatom 1011 228 5 0 1 0 - - - 0;
#X msg 631 149 50 127;
#X msg 691 149 stop;
#X obj 402 665 output~;
#X obj 406 111 bop.gui/casio~;
#A saved release 0;
#A saved sustain 0;
#A saved decay 0;
#A saved attack 0;
#A saved wave-2 0;
#A saved wave-1 0;
#A saved gain 0;
#A saved filter 0;
#X msg 741 149 wave-1 3 \, wave-2 3 \, filter 0.5 \, attack 0.3 \, decay 0.8 \, sustain 0.7 \, release 0.1 \, gain 0.9;
#X text 624 78 hi there! you are great! :);
#X obj 972 784 bng 19 250 50 0 empty empty empty 0 -10 0 12 #fcfcfc #000000 #000000;
#X msg 903 949 gain 0.9 \, release 0.1 \, sustain 0.7 \, decay 0.8 \, attack 0.3 \, enum wave-2 sinepulse \, wave-2 3 \, wave-1 3 \, filter 0.5 \, enum wave-1 sinepulse \, gain 0 \, release 0 \, sustain 0 \, decay 0 \, attack 0 \, enum wave-2 \, wave-2 0 \, wave-1 0 \, filter 0 \, enum wave-1 \, gain 0 \, release 0.292857 \, sustain 0.535714 \, decay 0.542857 \, attack 0 \, enum wave-2 \, wave-2 0 \, wave-1 0 \, filter 0.557143 \, enum wave-1 \,, f 38;
#X msg 422 427 gain 0.9 \, release 0.1 \, sustain 0.507143 \, decay 0.535714 \, attack 0.3 \, enum wave-2 res-trapezoid \, wave-2 21 \, wave-1 2 \, filter 0.32857 \, enum wave-1 pulse \,, f 18;
#N canvas 362 247 615 598 dump-and-construct 0;
#X obj 152 367 list prepend add2;
#X obj 226 431 list trim;
#X obj 152 399 t b l, f 11;
#X msg 152 431 addcomma;
#X obj 160 261 list prepend dump;
#X obj 154 337 route dump;
#X obj 155 301 list trim;
#X obj 335 558 outlet;
#X msg 344 431 set;
#X obj 269 92 bng 19 250 50 0 empty empty empty 0 -10 0 12 #fcfcfc #000000 #000000;
#X msg 376 194 dump;
#X obj 204 64 inlet;
#X obj 269 66 inlet;
#X text 11 13 write bop params to a parent-level message box;
#X obj 510 541 outlet;
#X obj 137 551 outlet;
#X obj 269 124 t b b b, f 33;
#X connect 0 0 2 0;
#X connect 1 0 7 0;
#X connect 2 0 3 0;
#X connect 2 1 1 0;
#X connect 3 0 7 0;
#X connect 4 0 6 0;
#X connect 5 0 0 0;
#X connect 6 0 5 0;
#X connect 8 0 7 0;
#X connect 9 0 16 0;
#X connect 10 0 4 1;
#X connect 10 0 15 0;
#X connect 11 0 4 0;
#X connect 11 0 14 0;
#X connect 12 0 9 0;
#X connect 16 0 4 1;
#X connect 16 1 10 0;
#X connect 16 2 8 0;
#X restore 828 821 pd dump-and-construct;
#N canvas 179 216 450 300 (subpatch) 0;
#X obj 152 97 inlet;
#X restore 971 875 pd;
#X text 996 784 < 1.) trigger dump message;
#X text 745 741 < 2.) sends dump message;
#X msg 480 74 dump;
#X text 916 922 < 4.) construct message;
#X text 981 848 < 5.) messages pass thru;
#X msg 71 137 dump;
#X obj 204 203 print;
#X obj 71 173 bop.module/sampler~;
#X text 614 692 3.) receive params >;
#X text 747 598 Module can be remote controlled by a gui version of the same module, f 23;
#X obj 405 74 r to-gui;
#X obj 629 354 s to-gui;
#X connect 1 0 12 1;
#X connect 1 1 19 0;
#X connect 2 0 32 0;
#X connect 3 0 2 0;
#X connect 4 0 5 0;
#X connect 5 0 32 0;
#X connect 6 0 7 0;
#X connect 7 0 32 0;
#X connect 8 0 32 0;
#X connect 9 0 8 0;
#X connect 10 0 32 0;
#X connect 11 0 32 0;
#X connect 13 0 12 0;
#X connect 13 1 1 0;
#X connect 14 0 32 0;
#X connect 16 0 19 1;
#X connect 18 0 1 0;
#X connect 19 0 1 0;
#X connect 19 1 17 0;
#X connect 19 2 20 0;
#X connect 23 0 13 0;
#X connect 26 0 28 0;
#X connect 28 1 27 0;
#X connect 31 0 13 0;
