#N canvas 0 37 735 891 12;
#X declare -path ./bop;
#X obj 44 33 declare -path ./bop;
#X text 2000 2307 hi there! you are great! :);
#X msg 1326 165 dump;
#X obj 1459 231 print;
#X obj 1326 201 bop.module/sampler~;
#X obj 96 1138 bop.module/sequence;
#A saved instrument 3 \; chord 7 \; volume 1 50 \; delay-time loop 0.8 300 0.81 10000 \; === \; --- swell up \; delay-level 0.1 0.01 0.1 2000 0.5 3000 \; noteslider 0 \; noteslider 0.2 3000 0.8 9000 \; root 46 \; octaves 8 \; octaves 4 5000 \; shuffle 1 \; velocity 0.05 \; velocity 0.5 2800 0.1 5000 \; - 9500 \; --- fall \; noteslider 0.75 \; noteslider 0.1 4000 \; root 53 \; octaves 3 \; shuffle 0 \; velocity 0.9 0.2 4000 \; feedback 0.2 400 \; delay-level 0.8 200 0.5 6000 0 6000 \; - 6000 \;;
#X msg 129 1003 open;
#X msg 147 1076 go;
#X msg 182 1077 stop;
#X obj 226 1174 print;
#X msg 234 1077 loop \$1;
#X obj 234 1051 tgl 19 0 empty empty empty 0 -10 0 12 #fcfcfc #000000 #000000 0 1;
#X obj 96 932 loadbang;
#X text 165 921 loadbang and read loads after internal savestate mechanism, f 31;
#X msg 96 962 read sequences/seq-help1.bopseq;
#X obj 440 310 bop.module/streamsample~;
#X msg 440 158 path ../sample-test;
#X msg 450 191 path samples;
#X obj 605 344 print;
#X msg 548 247 folder \$1;
#X floatatom 548 219 5 0 0 0 - - - 0;
#X obj 86 281 bop.module/casio~;
#X text 545 191 < default path;
#X text 177 1003 < else sequence content saved with parent patch, f 26;
#X text 425 130 STREAMSAMPLE~;
#X text 93 893 SEQUENCE;
#X text 82 130 CASIO~;
#X text 589 151 < alternative path relative to bop/, f 22;
#X obj 704 1587 bop.module/semisteps;
#X msg 798 1551 dump;
#X msg 684 1353 semisteps 0.777;
#X msg 788 1511 hold \$1;
#X obj 795 1476 tgl 19 0 empty empty empty 0 -10 0 12 #fcfcfc #000000 #000000 0 1;
#X msg 774 1436 velocity 1;
#X msg 747 1406 duration 1;
#X msg 722 1382 root 40;
#X text 687 1319 SEMISTEPS;
#X msg 100 1629 dump;
#X msg 445 1591 hold \$1;
#X obj 445 1555 tgl 19 0 empty empty empty 0 -10 0 12 #fcfcfc #000000 #000000 0 1;
#X msg 438 1410 root 40;
#X text 137 1270 FRETS;
#X obj 140 1702 bop.module/frets;
#X msg 208 1417 frets -12.224;
#X msg 62 1630 stop;
#X text 240 1304 E B E G#;
#X msg 139 1307 frets 0.221;
#X msg 160 1334 frets 0.022;
#X text 262 1335 E A E A;
#X msg 194 1391 frets 1.33211;
#X text 304 1387 F C F A C F;
#X text 324 1414 E(8vb) B E B;
#X msg 181 1363 frets 3.20202;
#X text 292 1365 G B D A B F#;
#X msg 443 1445 duration 0.5;
#X msg 450 1521 tuning 0.55545;
#X msg 244 258 64 127;
#X obj 84 331 dac~;
#X msg 633 250 gain 1 1000;
#X msg 639 276 gain 0 1000;
#X obj 192 336 print;
#X msg 14 240 stop;
#X msg 87 159 gain 0.9 \, release 0.1 \, sustain 0.507143 \, decay 0.535714 \, attack 0.3 \, wave-2 1 \, wave-1 5 \, filter 0.32857, f 36;
#X msg 115 230 filter loop 1 50 0 3000;
#X text 43 85 WORKING ----------------------------------------------------------------------------------------------------------------------------------------------------------, f 166;
#X msg 841 1554 stop;
#X text 824 130 INTRUMENT~;
#X obj 798 283 bop.module/instrument~;
#X obj 798 323 dac~;
#X obj 949 327 print;
#X msg 975 249 instrument \$1;
#X floatatom 974 157 5 0 5 0 - - - 0;
#X obj 801 221 bop.module/sequence;
#A saved 60 127 \; 67 127 \; - 300 \; 62 127 \; 69 127 \; - 2000 \;;
#X msg 925 189 open;
#X msg 803 161 loop 1 \, go;
#X msg 884 161 stop;
#X obj 132 1741 bop.module/instrument~;
#X obj 132 1781 dac~;
#X obj 283 1785 print;
#X text 1287 81 has bugs -----------------------------;
#X text 218 1109 error on stop;
#X obj 330 1741 bop.p/bop.p.onlist;
#X listbox 330 1765 20 0 0 0 - - - 0;
#X msg 373 251 0 127;
#X obj 440 364 dac~;
#X msg 373 284 stop;
#X obj 703 1037 bop.module/strum;
#X obj 701 1078 bop.module/instrument~;
#X obj 701 1118 dac~;
#X obj 926 1145 print;
#X obj 715 727 hsl 162 19 0 1 0 0 empty empty empty -2 -10 0 12 #fcfcfc #000000 #000000 0 1;
#X msg 604 980 dump;
#X msg 882 940 octaves \$1;
#X floatatom 887 902 5 0 0 0 - - - 0;
#X msg 641 757 chord \$1;
#X floatatom 645 724 5 0 0 0 - - - 0;
#X msg 637 947 stop;
#X msg 970 941 shuffle \$1;
#X obj 968 911 tgl 19 0 empty empty empty 0 -10 0 12 #fcfcfc #000000 #000000 0 1;
#X floatatom 1070 900 5 0 0 0 - - - 0;
#X msg 1066 939 duration \$1;
#X floatatom 1070 966 5 0 0 0 - - - 0;
#X msg 1069 989 velocity \$1;
#X floatatom 814 901 5 0 0 0 - - - 0;
#X msg 809 939 root \$1;
#X text 835 784 error when sending loop cmd;
#X msg 742 805 noteslider loop 1 2000 1 3000 0.6 0 0 4000;
#X msg 816 830 noteslider 0 1 3000;
#X text 959 830 ok without loop;
#X text 641 690 STRUM;
#X listbox 852 1179 37 0 0 0 - - - 0;
#X obj 852 1143 list;
#X obj 722 1663 bop.module/instrument~;
#X obj 722 1693 dac~;
#X obj 873 1707 print;
#X msg 449 1478 velocity 0.5;
#X obj 917 1689 bop.p/bop.p.onlist;
#X listbox 917 1713 20 0 0 0 - - - 0;
#X msg 713 756 strum \$1;
#X obj 852 1105 route strum;
#X obj 128 793 bop.module/echo~;
#X obj 374 714 bop.module/instrument~;
#X obj 129 852 dac~;
#X msg 137 598 delay-time 1 0.2 7000;
#X msg 122 544 delay-time loop 0.2 500 0.4 500;
#X msg 132 571 feedback loop 0.7 4000 0 3000;
#X msg 82 750 dump;
#X msg 61 767 stop;
#X msg 370 684 40 \$1;
#X obj 376 654 * 127;
#X obj 376 519 tgl 19 0 empty empty empty 0 -10 0 12 #fcfcfc #000000 #000000 0 1;
#X msg 55 1062 dump;
#X msg 386 212 dump;
#X msg 43 195 dump;
#X msg 775 185 dump;
#X obj 237 850 print;
#X msg 148 633 cutoff 1000 \, q 0.3 \, feedback 0.5 \, reverb-size 0.42 \, delay-time 0.333 \, delay-level 0.75 \, dry-level 1 \, reverb-level 0.5, f 24;
#X text 71 498 ECHO~;
#X connect 2 0 4 0;
#X connect 4 1 3 0;
#X connect 5 1 9 0;
#X connect 6 0 5 0;
#X connect 7 0 5 0;
#X connect 8 0 5 0;
#X connect 10 0 5 0;
#X connect 11 0 10 0;
#X connect 12 0 14 0;
#X connect 14 0 5 0;
#X connect 15 0 84 0;
#X connect 15 0 84 1;
#X connect 15 1 18 0;
#X connect 16 0 15 0;
#X connect 17 0 15 0;
#X connect 19 0 15 0;
#X connect 20 0 19 0;
#X connect 21 0 57 0;
#X connect 21 0 57 1;
#X connect 21 1 60 0;
#X connect 28 1 112 0;
#X connect 29 0 28 0;
#X connect 30 0 28 0;
#X connect 31 0 28 0;
#X connect 32 0 31 0;
#X connect 33 0 28 0;
#X connect 34 0 28 0;
#X connect 35 0 28 0;
#X connect 37 0 42 0;
#X connect 38 0 42 0;
#X connect 39 0 38 0;
#X connect 40 0 42 0;
#X connect 42 1 76 0;
#X connect 42 1 81 0;
#X connect 43 0 42 0;
#X connect 44 0 42 0;
#X connect 46 0 42 0;
#X connect 47 0 42 0;
#X connect 49 0 42 0;
#X connect 52 0 42 0;
#X connect 54 0 42 0;
#X connect 55 0 42 0;
#X connect 56 0 21 0;
#X connect 58 0 15 0;
#X connect 59 0 15 0;
#X connect 61 0 21 0;
#X connect 62 0 21 0;
#X connect 63 0 21 0;
#X connect 65 0 28 0;
#X connect 67 0 68 0;
#X connect 67 0 68 1;
#X connect 67 1 69 0;
#X connect 70 0 67 0;
#X connect 71 0 70 0;
#X connect 72 1 67 0;
#X connect 73 0 72 0;
#X connect 74 0 72 0;
#X connect 75 0 72 0;
#X connect 76 0 77 0;
#X connect 76 0 77 1;
#X connect 76 1 78 0;
#X connect 81 0 82 0;
#X connect 83 0 15 0;
#X connect 85 0 15 0;
#X connect 86 1 87 0;
#X connect 87 0 88 0;
#X connect 87 0 88 1;
#X connect 87 1 119 0;
#X connect 90 0 118 0;
#X connect 91 0 86 0;
#X connect 92 0 86 0;
#X connect 93 0 92 0;
#X connect 94 0 86 0;
#X connect 95 0 94 0;
#X connect 96 0 86 0;
#X connect 97 0 86 0;
#X connect 98 0 97 0;
#X connect 99 0 100 0;
#X connect 100 0 86 0;
#X connect 101 0 102 0;
#X connect 102 0 86 0;
#X connect 103 0 104 0;
#X connect 104 0 86 0;
#X connect 106 0 86 0;
#X connect 107 0 86 0;
#X connect 111 0 110 0;
#X connect 112 0 113 0;
#X connect 112 0 113 1;
#X connect 112 1 114 0;
#X connect 112 1 116 0;
#X connect 115 0 42 0;
#X connect 116 0 117 0;
#X connect 118 0 86 0;
#X connect 119 0 111 0;
#X connect 119 1 89 0;
#X connect 120 0 122 0;
#X connect 120 0 122 1;
#X connect 120 1 135 0;
#X connect 121 0 120 0;
#X connect 123 0 120 0;
#X connect 124 0 120 0;
#X connect 125 0 120 0;
#X connect 126 0 120 0;
#X connect 127 0 120 0;
#X connect 128 0 121 0;
#X connect 129 0 128 0;
#X connect 130 0 129 0;
#X connect 131 0 5 0;
#X connect 132 0 15 0;
#X connect 133 0 21 0;
#X connect 134 0 67 0;
#X connect 136 0 120 0;
