#N canvas 0 37 735 431 12;
#X declare -path ./bop;
#X obj 58 34 declare -path ./bop;
#X obj 1091 611 bop.module/casio~;
#X msg 1229 259 wave-1 \$1;
#X floatatom 1229 228 5 0 7 0 - - - 0;
#X floatatom 1320 228 5 0 7 0 - - - 0;
#X msg 1320 259 wave-2 \$1;
#X floatatom 1412 228 5 0 1 0 - - - 0;
#X msg 1412 259 filter \$1;
#X msg 1501 259 gain \$1;
#X floatatom 1501 228 5 0 1 0 - - - 0;
#X msg 1121 149 50 127;
#X msg 1181 149 stop;
#X obj 892 665 output~;
#X obj 896 111 bop.gui/casio~;
#A saved release 0;
#A saved sustain 0;
#A saved decay 0;
#A saved attack 0;
#A saved wave-2 0;
#A saved wave-1 0;
#A saved gain 0;
#A saved filter 0;
#X msg 1231 149 wave-1 3 \, wave-2 3 \, filter 0.5 \, attack 0.3 \, decay 0.8 \, sustain 0.7 \, release 0.1 \, gain 0.9;
#X text 1844 1268 hi there! you are great! :);
#X obj 1462 784 bng 19 250 50 0 empty empty empty 0 -10 0 12 #fcfcfc #000000 #000000;
#X msg 1393 949 gain 0 \, release 0 \, sustain 0 \, decay 0 \, attack 0 \, enum wave-2 \, wave-2 0 \, wave-1 0 \, filter 0 \, enum wave-1 \, gain 0 \, release 0 \, sustain 0 \, decay 0 \, attack 0 \, enum wave-2 \, wave-2 0 \, wave-1 0 \, filter 0 \, enum wave-1 \, gain 0 \, release 0 \, sustain 0 \, decay 0 \, attack 0 \, enum wave-2 \, wave-2 0 \, wave-1 0 \, filter 0 \, enum wave-1 \, gain 0 \, release 0 \, sustain 0 \, decay 0 \, attack 0 \, enum wave-2 \, wave-2 0 \, wave-1 0 \, filter 0 \, enum wave-1 \, gain 0 \, release 0 \, sustain 0 \, decay 0 \, attack 0 \, enum wave-2 \, wave-2 0 \, wave-1 0 \, filter 0 \, enum wave-1 \, gain 0 \, release 0 \, sustain 0 \, decay 0 \, attack 0 \, enum wave-2 \, wave-2 0 \, wave-1 0 \, filter 0 \, enum wave-1 \, gain 0 \, release 0 \, sustain 0 \, decay 0 \, attack 0 \, enum wave-2 \, wave-2 0 \, wave-1 0 \, filter 0 \, enum wave-1 \,;
#X msg 912 427 gain 0.9 \, release 0.1 \, sustain 0.507143 \, decay 0.535714 \, attack 0.3 \, enum wave-2 res-trapezoid \, wave-2 21 \, wave-1 2 \, filter 0.32857 \, enum wave-1 pulse \,, f 18;
#N canvas 179 216 450 300 (subpatch) 0;
#X obj 152 97 inlet;
#X restore 1461 875 pd;
#X text 1486 784 < 1.) trigger dump message;
#X text 1235 741 < 2.) sends dump message;
#X msg 970 74 dump;
#X text 1406 922 < 4.) construct message;
#X text 1471 848 < 5.) messages pass thru;
#X msg 569 158 dump;
#X obj 702 224 print;
#X obj 569 194 bop.module/sampler~;
#X text 1104 692 3.) receive params >;
#X text 1237 598 Module can be remote controlled by a gui version of the same module, f 23;
#X obj 895 74 r to-gui;
#X obj 1119 354 s to-gui;
#X obj 58 611 bop.module/sequence;
#A saved instrument 3 \; chord 7 \; volume 1 50 \; delay-time loop 0.8 300 0.81 10000 \; === \; --- swell up \; delay-level 0.1 0.01 0.1 2000 0.5 3000 \; noteslider 0 \; noteslider 0.2 3000 0.8 9000 \; root 46 \; octaves 8 \; octaves 4 5000 \; shuffle 1 \; velocity 0.05 \; velocity 0.5 2800 0.1 5000 \; - 9500 \; --- fall \; noteslider 0.75 \; noteslider 0.1 4000 \; root 53 \; octaves 3 \; shuffle 0 \; velocity 0.9 0.2 4000 \; feedback 0.2 400 \; delay-level 0.8 200 0.5 6000 0 6000 \; - 6000 \;;
#X msg 91 476 open;
#X msg 109 549 go;
#X msg 144 550 stop;
#X obj 188 647 print;
#X msg 196 550 loop \$1;
#X obj 196 524 tgl 19 0 empty empty empty 0 -10 0 12 #fcfcfc #000000 #000000 0 1;
#X obj 58 405 loadbang;
#X text 127 394 loadbang and read loads after internal savestate mechanism, f 31;
#X msg 58 435 read sequences/seq-help1.bopseq;
#X obj 70 285 bop.module/streamsample~;
#X msg 70 163 path ../sample-test;
#X msg 80 196 path samples;
#X obj 235 319 print;
#X msg 178 252 folder \$1;
#X floatatom 178 224 5 0 0 0 - - - 0;
#X obj 1318 828 bop.p/bop.p.construct;
#X obj 61 827 bop.module/casio~;
#X msg 62 725 gain 0.9 \, release 0.1 \, sustain 0.507143 \, decay 0.535714 \, attack 0.3 \, enum wave-2 res-trapezoid \, wave-2 21 \, wave-1 2 \, filter 0.32857 \, enum wave-1 pulse \,, f 36;
#X text 175 196 < default path;
#X text 139 476 < else sequence content saved with parent patch, f 26;
#X text 55 135 STREAMSAMPLE~;
#X text 55 366 SEQUENCE;
#X text 57 696 CASIO~;
#X text 57 86 WORKING -----------------------------;
#X text 530 74 TODO -----------------------------;
#X text 887 47 GUI STUFF (in progress) -----------------------------;
#X text 219 156 < alternative path relative to bop/, f 22;
#X obj 78 1167 bop.module/semisteps;
#X msg 172 1141 dump;
#X obj 212 1214 print;
#X msg 61 955 semisteps 0.777;
#X msg 162 1111 hold \$1;
#X obj 169 1076 tgl 19 0 empty empty empty 0 -10 0 12 #fcfcfc #000000 #000000 0 1;
#X msg 148 1036 velocity 1;
#X msg 121 1006 duration 1;
#X msg 96 982 root 40;
#X text 61 919 SEMISTEPS;
#X connect 1 0 12 1;
#X connect 1 1 48 0;
#X connect 2 0 31 0;
#X connect 3 0 2 0;
#X connect 4 0 5 0;
#X connect 5 0 31 0;
#X connect 6 0 7 0;
#X connect 7 0 31 0;
#X connect 8 0 31 0;
#X connect 9 0 8 0;
#X connect 10 0 31 0;
#X connect 11 0 31 0;
#X connect 13 0 12 0;
#X connect 13 1 1 0;
#X connect 14 0 31 0;
#X connect 16 0 48 1;
#X connect 18 0 1 0;
#X connect 22 0 13 0;
#X connect 25 0 27 0;
#X connect 27 1 26 0;
#X connect 30 0 13 0;
#X connect 32 1 36 0;
#X connect 33 0 32 0;
#X connect 34 0 32 0;
#X connect 35 0 32 0;
#X connect 37 0 32 0;
#X connect 38 0 37 0;
#X connect 39 0 41 0;
#X connect 41 0 32 0;
#X connect 42 1 45 0;
#X connect 43 0 42 0;
#X connect 44 0 42 0;
#X connect 46 0 42 0;
#X connect 47 0 46 0;
#X connect 48 0 1 0;
#X connect 48 1 17 0;
#X connect 48 2 19 0;
#X connect 50 0 49 0;
#X connect 60 1 62 0;
#X connect 61 0 60 0;
#X connect 63 0 60 0;
#X connect 64 0 60 0;
#X connect 65 0 64 0;
#X connect 66 0 60 0;
#X connect 67 0 60 0;
#X connect 68 0 60 0;
