#N canvas 368 48 1078 845 12;
#X obj 34 51 cnv 19 310 692 empty empty bop -20 -20 0 64 #c6feff #c7c6ff 0;
#X obj 107 686 bng 19 250 50 0 empty empty about\ the\ bop.p\ library 25 10 0 12 #fcfcfc #000000 #000000;
#X text 1109 1165 hi there! you are great :);
#X obj 54 627 bng 19 250 50 0 empty empty print\ bop\ modules 25 10 0 12 #fcfcfc #000000 #000000;
#X obj 80 656 bng 19 250 50 0 empty empty print\ bop.p\ abstractions 25 10 0 12 #fcfcfc #000000 #000000;
#X text 51 96 --- todo... \; --- global state-saving [x] \; --- addressable parameters [x] \; --- built-in automation[x] \; --- esoteric chord notation [x] \; --- flexible text sequencing[x] \; --- X-platorm [x] \; --- highly networkable [x] \; --- very embedable [x] \; --- \; === --- begin loop [ ] \; - 1b --- one bar rest [ ] \; - b2 --- 1/2 bar rest [ ] \; - b4 --- 1/4 bar rest [ ] \; - 1000 --- 1000ms rest [x] \; --- \; instrument 3 \; gain 0 1 3000 \; root 43 \; velocity 0.6 \; intermal 0.75 \; - 1000 \; velocity 1.1 \; intermal 0.43 \; - 3000 \; === --- end loop [ ] \; osc 255.255.255 /ping 1 \; osc 127.0.0.1 /flame-thrower 1 \; volume 1.5 \; fan 0 \; midi 25 127 \; midi 32 127 \; midi 555 127 \; run explode-drives.sh [ ] \;;
#N canvas 513 193 826 634 >+(:b 0;
#X obj 531 33 inlet;
#X obj 531 114 pdcontrol;
#X msg 531 86 dir;
#X msg 531 144 \; pd open ./bop.p/about-bop.p.pd \$1;
#X obj 43 124 pdcontrol;
#X msg 43 95 dir;
#X obj 44 242 file glob;
#X msg 92 201 symbol *;
#X obj 83 386 file split;
#X obj 43 170 makefilename %s/bop.*;
#X obj 112 444 list length;
#X obj 83 417 t l l;
#X obj 83 514 list split;
#X obj 149 478 - 1;
#X obj 75 317 route 0;
#X msg 75 284 \$2 \$1 \$2;
#X obj 75 350 list;
#X msg 115 542 \$1;
#X obj 50 18 inlet;
#X obj 255 114 pdcontrol;
#X msg 255 85 dir;
#X obj 256 232 file glob;
#X msg 304 191 symbol *;
#X obj 266 379 file split;
#X obj 295 437 list length;
#X obj 266 410 t l l;
#X obj 266 507 list split;
#X obj 332 471 - 1;
#X obj 258 310 route 0;
#X msg 258 277 \$2 \$1 \$2;
#X obj 258 343 list;
#X msg 298 535 \$1;
#X obj 263 43 inlet;
#X obj 115 576 print bop module;
#X obj 255 160 makefilename %s/bop.p/bop.p.*.pd;
#X obj 298 569 print bop.p abstraction;
#X connect 0 0 2 0;
#X connect 1 0 3 0;
#X connect 2 0 1 0;
#X connect 4 0 9 0;
#X connect 5 0 4 0;
#X connect 6 0 15 0;
#X connect 7 0 6 0;
#X connect 8 0 11 0;
#X connect 9 0 6 0;
#X connect 10 0 13 0;
#X connect 11 0 12 0;
#X connect 11 1 10 0;
#X connect 12 1 17 0;
#X connect 13 0 12 1;
#X connect 14 0 16 0;
#X connect 15 0 14 0;
#X connect 16 0 8 0;
#X connect 17 0 33 0;
#X connect 18 0 5 0;
#X connect 19 0 34 0;
#X connect 20 0 19 0;
#X connect 21 0 29 0;
#X connect 22 0 21 0;
#X connect 23 0 25 0;
#X connect 24 0 27 0;
#X connect 25 0 26 0;
#X connect 25 1 24 0;
#X connect 26 1 31 0;
#X connect 27 0 26 1;
#X connect 28 0 30 0;
#X connect 29 0 28 0;
#X connect 30 0 23 0;
#X connect 31 0 35 0;
#X connect 32 0 20 0;
#X connect 34 0 21 0;
#X restore 54 715 pd >+(:b;
#X obj 413 378 bop.module/casio~;
#X msg 581 169 wave-1 \$1;
#X floatatom 581 125 5 0 7 0 - - - 0;
#X floatatom 662 124 5 0 7 0 - - - 0;
#X msg 662 168 wave-2 \$1;
#X floatatom 754 124 5 0 1 0 - - - 0;
#X msg 754 168 filter \$1;
#X msg 844 170 gain \$1;
#X floatatom 843 131 5 0 1 0 - - - 0;
#X msg 413 34 50 127;
#X msg 438 68 stop;
#X obj 413 521 output~;
#X msg 496 57 wave-1 0 \, wave-2 1 \, filter 0.5 \, attack 0.3 \, decay 0.8 \, sustain 0.7 \, release 0.1 \, gain 0.9;
#X msg 507 133 dump;
#X obj 529 477 print enum;
#X obj 529 423 route enum dump;
#X obj 580 453 print dump;
#X obj 755 330 bop.gui/casio~;
#A saved release 0.2;
#A saved sustain 0.8;
#A saved decay 0.3;
#A saved attack 0.1;
#A saved gain 1;
#A saved wave-2 0;
#A saved wave-1 -1;
#A saved filter 0.635714;
#X obj 755 638 output~;
#X obj 411 239 s test, f 8;
#X obj 413 337 r test;
#X obj 755 276 r test;
#X connect 1 0 6 2;
#X connect 3 0 6 0;
#X connect 4 0 6 1;
#X connect 7 0 18 0;
#X connect 7 1 22 0;
#X connect 8 0 26 0;
#X connect 9 0 8 0;
#X connect 10 0 11 0;
#X connect 11 0 26 0;
#X connect 12 0 13 0;
#X connect 13 0 26 0;
#X connect 14 0 26 0;
#X connect 15 0 14 0;
#X connect 16 0 26 0;
#X connect 17 0 26 0;
#X connect 19 0 26 0;
#X connect 20 0 26 0;
#X connect 22 0 21 0;
#X connect 22 1 23 0;
#X connect 24 0 25 0;
#X connect 27 0 7 0;
#X connect 28 0 24 0;
