#N canvas 569 37 893 891 12;
#X declare -path ./bop;
#X obj 79 42 declare -path ./bop;
#X obj 636 860 bop.module/casio~;
#X msg 473 172 wave-1 \$1;
#X floatatom 473 141 5 0 7 0 - - - 0;
#X floatatom 564 141 5 0 7 0 - - - 0;
#X msg 564 172 wave-2 \$1;
#X floatatom 656 141 5 0 1 0 - - - 0;
#X msg 656 172 filter \$1;
#X msg 745 172 gain \$1;
#X floatatom 745 141 5 0 1 0 - - - 0;
#X msg 365 62 50 127;
#X msg 425 62 stop;
#X obj 437 914 output~;
#X obj 441 360 bop.gui/casio~;
#A saved release 0.278571;
#A saved sustain 0.507143;
#A saved decay 0.535714;
#A saved attack 0.335714;
#A saved wave-2 4;
#A saved wave-1 2;
#A saved gain 0.521429;
#A saved filter 0.207143;
#X obj 363 267 s test, f 8;
#X obj 440 323 r test;
#X msg 475 62 wave-1 3 \, wave-2 3 \, filter 0.5 \, attack 0.3 \, decay 0.8 \, sustain 0.7 \, release 0.1 \, gain 0.9;
#X text 79 12 hi there! you are great! :);
#X obj 777 1020 bng 19 250 50 0 empty empty empty 0 -10 0 12 #fcfcfc #000000 #000000;
#X msg 724 1117 gain 0.9 \, release 0.1 \, sustain 0.507143 \, decay 0.535714 \, attack 0.3 \, enum wave-2 res-trapezoid \, wave-2 21 \, wave-1 2 \, filter 0.207143 \, enum wave-1 pulse \,, f 38;
#X msg 457 676 gain 0.9 \, release 0.1 \, sustain 0.507143 \, decay 0.535714 \, attack 0.3 \, enum wave-2 res-trapezoid \, wave-2 21 \, wave-1 2 \, filter 0.32857 \, enum wave-1 pulse \,, f 18;
#N canvas 362 247 615 598 dump-and-construct 0;
#X obj 152 367 list prepend add2;
#X obj 226 431 list trim;
#X obj 152 399 t b l, f 11;
#X msg 152 431 addcomma;
#X obj 160 261 list prepend dump;
#X obj 154 337 route dump;
#X obj 155 301 list trim;
#X obj 335 558 outlet;
#X msg 344 431 set;
#X obj 269 92 bng 19 250 50 0 empty empty empty 0 -10 0 12 #fcfcfc #000000 #000000;
#X msg 376 194 dump;
#X obj 42 107 inlet;
#X obj 269 66 inlet;
#X text 11 13 write bop params to a parent-level message box;
#X obj 38 562 outlet;
#X obj 438 551 outlet;
#X obj 269 124 t b b b, f 33;
#X connect 0 0 2 0;
#X connect 1 0 7 0;
#X connect 2 0 3 0;
#X connect 2 1 1 0;
#X connect 3 0 7 0;
#X connect 4 0 6 0;
#X connect 5 0 0 0;
#X connect 6 0 5 0;
#X connect 8 0 7 0;
#X connect 9 0 16 0;
#X connect 10 0 4 1;
#X connect 10 0 15 0;
#X connect 11 0 4 0;
#X connect 11 0 14 0;
#X connect 12 0 9 0;
#X connect 16 0 4 1;
#X connect 16 1 10 0;
#X connect 16 2 8 0;
#X restore 636 1057 pd dump-and-construct;
#N canvas 179 216 450 300 (subpatch) 0;
#X obj 152 97 inlet;
#X restore 637 1286 pd;
#X text 801 1020 < 1.) trigger dump message;
#X text 727 966 < 2.) sends dump message;
#X text 640 1239 < messages pass thru;
#X text 737 1090 < 3.) construct message;
#X connect 1 0 12 1;
#X connect 1 1 21 0;
#X connect 2 0 14 0;
#X connect 3 0 2 0;
#X connect 4 0 5 0;
#X connect 5 0 14 0;
#X connect 6 0 7 0;
#X connect 7 0 14 0;
#X connect 8 0 14 0;
#X connect 9 0 8 0;
#X connect 10 0 14 0;
#X connect 11 0 14 0;
#X connect 13 0 12 0;
#X connect 13 1 1 0;
#X connect 15 0 13 0;
#X connect 16 0 14 0;
#X connect 18 0 21 1;
#X connect 20 0 1 0;
#X connect 21 0 22 0;
#X connect 21 1 19 0;
#X connect 21 2 1 0;
