#N canvas 558 37 912 891 12;
#X declare -path ./bop;
#X obj 44 33 declare -path ./bop;
#X text 2000 2307 hi there! you are great! :);
#X msg 1996 165 dump;
#X obj 2129 231 print;
#X obj 1996 201 bop.module/sampler~;
#X obj 96 1138 bop.module/sequence;
#A saved instrument 3 \; chord 7 \; volume 1 50 \; delay-time loop 0.8 300 0.81 10000 \; === \; --- swell up \; delay-level 0.1 0.01 0.1 2000 0.5 3000 \; noteslider 0 \; noteslider 0.2 3000 0.8 9000 \; root 46 \; octaves 8 \; octaves 4 5000 \; shuffle 1 \; velocity 0.05 \; velocity 0.5 2800 0.1 5000 \; - 9500 \; --- fall \; noteslider 0.75 \; noteslider 0.1 4000 \; root 53 \; octaves 3 \; shuffle 0 \; velocity 0.9 0.2 4000 \; feedback 0.2 400 \; delay-level 0.8 200 0.5 6000 0 6000 \; - 6000 \;;
#X msg 129 1003 open;
#X msg 147 1076 go;
#X msg 182 1077 stop;
#X obj 226 1174 print;
#X msg 234 1077 loop \$1;
#X obj 234 1051 tgl 19 0 empty empty empty 0 -10 0 12 #fcfcfc #000000 #000000 0 1;
#X obj 96 932 loadbang;
#X text 165 921 loadbang and read loads after internal savestate mechanism, f 31;
#X msg 96 962 read sequences/seq-help1.bopseq;
#X msg 440 158 path ../sample-test;
#X msg 450 191 path samples;
#X obj 605 344 print;
#X msg 548 247 folder \$1;
#X floatatom 548 219 5 0 0 0 - - - 0;
#X obj 86 281 bop.module/casio~;
#X text 545 191 < default path;
#X text 177 1003 < else sequence content saved with parent patch, f 26;
#X text 425 130 STREAMSAMPLE~;
#X text 93 893 SEQUENCE;
#X text 82 130 CASIO~;
#X text 589 151 < alternative path relative to bop/, f 22;
#X obj 704 1587 bop.module/semisteps;
#X msg 798 1551 dump;
#X msg 684 1353 semisteps 0.777;
#X msg 788 1511 hold \$1;
#X obj 795 1476 tgl 19 0 empty empty empty 0 -10 0 12 #fcfcfc #000000 #000000 0 1;
#X msg 774 1436 velocity 1;
#X msg 747 1406 duration 1;
#X msg 722 1382 root 40;
#X text 687 1319 SEMISTEPS;
#X msg 100 1629 dump;
#X msg 445 1591 hold \$1;
#X obj 445 1555 tgl 19 0 empty empty empty 0 -10 0 12 #fcfcfc #000000 #000000 0 1;
#X msg 438 1410 root 40;
#X text 137 1270 FRETS;
#X obj 140 1702 bop.module/frets;
#X msg 208 1417 frets -12.224;
#X msg 62 1630 stop;
#X text 240 1304 E B E G#;
#X msg 139 1307 frets 0.221;
#X msg 160 1334 frets 0.022;
#X text 262 1335 E A E A;
#X msg 194 1391 frets 1.33211;
#X text 304 1387 F C F A C F;
#X text 324 1414 E(8vb) B E B;
#X msg 181 1363 frets 3.20202;
#X text 292 1365 G B D A B F#;
#X msg 443 1445 duration 0.5;
#X msg 450 1521 tuning 0.55545;
#X msg 244 258 64 127;
#X obj 84 331 dac~;
#X msg 633 250 gain 1 1000;
#X msg 639 276 gain 0 1000;
#X obj 192 336 print;
#X msg 14 240 stop;
#X msg 87 159 gain 0.9 \, release 0.1 \, sustain 0.507143 \, decay 0.535714 \, attack 0.3 \, wave-2 1 \, wave-1 5 \, filter 0.32857, f 36;
#X msg 115 230 filter loop 1 50 0 3000;
#X msg 841 1554 stop;
#X text 824 130 INTRUMENT~;
#X obj 798 283 bop.module/instrument~;
#X obj 798 323 dac~;
#X obj 949 327 print;
#X msg 975 249 instrument \$1;
#X floatatom 974 157 5 0 5 0 - - - 0;
#X obj 801 221 bop.module/sequence;
#A saved 60 127 \; 67 127 \; - 300 \; 62 127 \; 69 127 \; - 2000 \;;
#X msg 803 161 loop 1 \, go;
#X msg 884 161 stop;
#X obj 132 1741 bop.module/instrument~;
#X obj 132 1781 dac~;
#X obj 283 1785 print;
#X text 1957 81 has bugs -----------------------------;
#X text 218 1109 error on stop;
#X obj 330 1741 bop.p/bop.p.onlist;
#X listbox 330 1765 20 0 0 0 - - - 0;
#X msg 373 251 0 127;
#X obj 440 364 dac~;
#X msg 373 284 stop;
#X obj 802 1140 bop.module/strum;
#X obj 800 1181 bop.module/instrument~;
#X obj 800 1221 dac~;
#X obj 1025 1248 print;
#X obj 814 830 hsl 162 19 0 1 0 0 empty empty empty -2 -10 0 12 #fcfcfc #000000 #000000 0 1;
#X msg 703 1083 dump;
#X msg 981 1043 octaves \$1;
#X floatatom 986 1005 5 0 0 0 - - - 0;
#X msg 740 860 chord \$1;
#X floatatom 744 827 5 0 0 0 - - - 0;
#X msg 736 1050 stop;
#X msg 1069 1044 shuffle \$1;
#X obj 1067 1014 tgl 19 0 empty empty empty 0 -10 0 12 #fcfcfc #000000 #000000 0 1;
#X floatatom 1169 1003 5 0 0 0 - - - 0;
#X msg 1165 1042 duration \$1;
#X floatatom 1169 1069 5 0 0 0 - - - 0;
#X msg 1168 1092 velocity \$1;
#X floatatom 913 1004 5 0 0 0 - - - 0;
#X msg 908 1042 root \$1;
#X text 740 793 STRUM;
#X listbox 951 1282 37 0 0 0 - - - 0;
#X obj 951 1246 list;
#X obj 722 1663 bop.module/instrument~;
#X obj 722 1693 dac~;
#X obj 873 1707 print;
#X msg 449 1478 velocity 0.5;
#X obj 917 1689 bop.p/bop.p.onlist;
#X listbox 917 1713 20 0 0 0 - - - 0;
#X obj 374 664 bop.module/instrument~;
#X obj 129 802 dac~;
#X msg 132 491 feedback loop 0.7 4000 0 3000;
#X msg 82 700 dump;
#X msg 40 700 stop;
#X obj 374 590 * 127;
#X obj 377 553 tgl 19 0 empty empty empty 0 -10 0 12 #fcfcfc #000000 #000000 0 1;
#X msg 55 1062 dump;
#X msg 386 212 dump;
#X msg 43 195 dump;
#X msg 779 251 dump;
#X obj 237 800 print;
#X obj 1197 277 bop.module/synth~;
#X obj 1296 340 print;
#X msg 1153 235 dump;
#X obj 1191 355 dac~;
#X obj 1205 236 bop.module/sequence;
#A saved 60 127 \; 67 127 \; - 300 \; 62 127 \; 69 127 \; - 2000 \;;
#X msg 1329 204 open;
#X msg 1207 176 loop 1 \, go;
#X msg 1288 176 stop;
#X msg 1114 235 stop;
#X text 1169 130 SYNTH~;
#X msg 1387 128 osc2-wave 3 \, osc1-wave 1 \, osc2-puslewidth 0.5 \, osc2-gain 1 \, osc2-tune 0 \, osc1-puslewidth 0.5 \, osc1-gain 1 \, osc1-tune 0 \, release 0.2 \, sustain 0.7 \, decay 0.3 \, attack 0.1 \, cutoff 2600 \, mono 0 \, noise 0 \, gain 1 \, q 0.5 \, slide 0, f 30;
#X text 43 85 WORKING ---------------------------------------------------------------------------------------------------------------------------------------------------------------------------------------------------------------------------------------------------, f 247;
#X obj 1447 750 bop.module/fm~;
#X obj 1532 797 print;
#X msg 1348 706 dump, f 6;
#X obj 1451 844 dac~;
#X obj 1548 707 bop.module/fm~;
#X obj 1492 604 tgl 19 0 empty empty empty 0 -10 0 12 #fcfcfc #000000 #000000 0 1;
#X obj 1492 628 * 127;
#X floatatom 1352 585 5 0 0 0 - - - 0;
#X obj 1355 487 hsl 162 19 0 3 0 0 empty empty empty -2 -10 0 12 #fcfcfc #000000 #000000 0 1;
#X text 1348 454 FM~;
#X msg 203 65 \; pd dsp 1;
#X obj 203 32 loadbang;
#X obj 437 590 loadbang;
#X msg 1495 659 30 \$1;
#X msg 1437 531 release 0.7 \, sustain 0.7 \, decay 0.3 \, attack 0.1 \, envelope 1 \, detune 0 \, divisor 1 \, dividend 1 \, frequency 333 \, gain 0.75 \, lfo-depth 0 \, lfo-speed 0.25 \, fm 0.4;
#X msg 1619 602 release 0.5 \, sustain 0.3 \, decay 0.5 \, attack 0.2 \, envelope 1 \, detune 0 \, divisor 3 \, dividend 1 \, frequency 333 \, gain 0.75 \, lfo-depth 0.5 \, lfo-speed 0.2 \, fm 0;
#X msg 1358 613 fm \$1 200;
#X obj 128 743 bop.module/delay~;
#X msg 122 464 delay-time loop 0.5 500 1 500;
#X msg 137 518 delay-time 2.5 0.1 7000;
#X text 378 507 cutoff (Hz);
#X text 71 448 DELAY~;
#X text 379 488 delay-time (seconds) max 2.5s;
#X msg 374 620 60 \$1;
#X msg 436 631 instrument 0;
#X msg 148 583 cutoff 1200 \, q 0.1 \, feedback 0.7 \, delay-time 0.7 \, delay-level 1 \, dry-level 1, f 24;
#X msg 153 655 feedback 0.8 \, delay-time 0.5;
#X obj 1021 600 bop.module/instrument~;
#X obj 1021 526 * 127;
#X obj 1024 489 tgl 19 0 empty empty empty 0 -10 0 12 #fcfcfc #000000 #000000 0 1;
#X obj 1084 526 loadbang;
#X obj 825 642 bop.module/reverb~;
#X obj 948 692 print;
#X msg 711 575 dump;
#X obj 825 687 dac~;
#X msg 767 580 stop;
#X text 810 460 reverb~, f 8;
#X msg 1083 567 instrument 2;
#X msg 1021 556 80 \$1;
#X obj 797 492 loadbang;
#X obj 151 553 loadbang;
#X text 885 497 cutoff (Hz);
#X msg 925 157 open;
#X msg 818 575 dry 1 \, wet 0.7 \, cutoff 3000 \, damp 0.5 \, size 0.5, f 24;
#X msg 797 519 dry 0.2 \, wet 1 \, cutoff 8000 \, damp 0.8 \, size 0.9, f 24;
#X obj 440 310 bop.module/stream~;
#X msg 812 859 strumplate \$1;
#X msg 841 908 strumplate loop 1 2000 1 3000 0.6 0 0 4000;
#X msg 915 933 strumplate 0 1 3000;
#X obj 951 1208 route strumplate;
#X connect 2 0 4 0;
#X connect 4 1 3 0;
#X connect 5 1 9 0;
#X connect 6 0 5 0;
#X connect 7 0 5 0;
#X connect 8 0 5 0;
#X connect 10 0 5 0;
#X connect 11 0 10 0;
#X connect 12 0 14 0;
#X connect 14 0 5 0;
#X connect 15 0 180 0;
#X connect 16 0 180 0;
#X connect 18 0 180 0;
#X connect 19 0 18 0;
#X connect 20 0 56 0;
#X connect 20 0 56 1;
#X connect 20 1 59 0;
#X connect 27 1 105 0;
#X connect 28 0 27 0;
#X connect 29 0 27 0;
#X connect 30 0 27 0;
#X connect 31 0 30 0;
#X connect 32 0 27 0;
#X connect 33 0 27 0;
#X connect 34 0 27 0;
#X connect 36 0 41 0;
#X connect 37 0 41 0;
#X connect 38 0 37 0;
#X connect 39 0 41 0;
#X connect 41 1 78 0;
#X connect 41 1 73 0;
#X connect 42 0 41 0;
#X connect 43 0 41 0;
#X connect 45 0 41 0;
#X connect 46 0 41 0;
#X connect 48 0 41 0;
#X connect 51 0 41 0;
#X connect 53 0 41 0;
#X connect 54 0 41 0;
#X connect 55 0 20 0;
#X connect 57 0 180 0;
#X connect 58 0 180 0;
#X connect 60 0 20 0;
#X connect 61 0 20 0;
#X connect 62 0 20 0;
#X connect 63 0 27 0;
#X connect 65 0 66 0;
#X connect 65 0 66 1;
#X connect 65 1 67 0;
#X connect 68 0 65 0;
#X connect 69 0 68 0;
#X connect 70 1 65 0;
#X connect 71 0 70 0;
#X connect 72 0 70 0;
#X connect 73 0 74 0;
#X connect 73 0 74 1;
#X connect 73 1 75 0;
#X connect 78 0 79 0;
#X connect 80 0 180 0;
#X connect 82 0 180 0;
#X connect 83 1 84 0;
#X connect 84 0 85 0;
#X connect 84 0 85 1;
#X connect 84 1 184 0;
#X connect 87 0 181 0;
#X connect 88 0 83 0;
#X connect 89 0 83 0;
#X connect 90 0 89 0;
#X connect 91 0 83 0;
#X connect 92 0 91 0;
#X connect 93 0 83 0;
#X connect 94 0 83 0;
#X connect 95 0 94 0;
#X connect 96 0 97 0;
#X connect 97 0 83 0;
#X connect 98 0 99 0;
#X connect 99 0 83 0;
#X connect 100 0 101 0;
#X connect 101 0 83 0;
#X connect 104 0 103 0;
#X connect 105 0 106 0;
#X connect 105 0 106 1;
#X connect 105 1 107 0;
#X connect 105 1 109 0;
#X connect 108 0 41 0;
#X connect 109 0 110 0;
#X connect 111 0 152 0;
#X connect 111 1 122 0;
#X connect 113 0 152 0;
#X connect 114 0 152 0;
#X connect 115 0 152 0;
#X connect 116 0 158 0;
#X connect 117 0 116 0;
#X connect 118 0 5 0;
#X connect 119 0 180 0;
#X connect 120 0 20 0;
#X connect 121 0 65 0;
#X connect 123 0 126 0;
#X connect 123 0 126 1;
#X connect 123 1 124 0;
#X connect 125 0 123 0;
#X connect 127 1 123 0;
#X connect 128 0 127 0;
#X connect 129 0 127 0;
#X connect 130 0 127 0;
#X connect 131 0 123 0;
#X connect 133 0 123 0;
#X connect 135 0 138 0;
#X connect 135 0 138 1;
#X connect 135 1 136 0;
#X connect 137 0 135 0;
#X connect 139 0 135 1;
#X connect 140 0 141 0;
#X connect 141 0 148 0;
#X connect 142 0 151 0;
#X connect 143 0 142 0;
#X connect 146 0 145 0;
#X connect 147 0 159 0;
#X connect 148 0 135 0;
#X connect 148 0 139 0;
#X connect 149 0 135 0;
#X connect 150 0 139 0;
#X connect 151 0 135 0;
#X connect 152 0 112 0;
#X connect 152 0 112 1;
#X connect 152 1 122 0;
#X connect 153 0 152 0;
#X connect 154 0 152 0;
#X connect 158 0 111 0;
#X connect 159 0 111 0;
#X connect 160 0 152 0;
#X connect 161 0 152 0;
#X connect 162 0 166 0;
#X connect 163 0 173 0;
#X connect 164 0 163 0;
#X connect 165 0 172 0;
#X connect 166 0 169 0;
#X connect 166 0 169 1;
#X connect 166 1 167 0;
#X connect 168 0 166 0;
#X connect 170 0 166 0;
#X connect 172 0 162 0;
#X connect 173 0 162 0;
#X connect 174 0 179 0;
#X connect 175 0 160 0;
#X connect 177 0 70 0;
#X connect 178 0 166 0;
#X connect 179 0 166 0;
#X connect 180 0 81 0;
#X connect 180 0 81 1;
#X connect 180 1 17 0;
#X connect 181 0 83 0;
#X connect 182 0 83 0;
#X connect 183 0 83 0;
#X connect 184 0 104 0;
#X connect 184 1 86 0;
