#N canvas 180 99 1214 761 12;
#X text 875 5139 hi there! you are great! :);
#X msg 986 165 dump;
#X obj 999 245 print;
#X msg 129 2953 open;
#X msg 174 3022 go;
#X msg 209 3023 stop;
#X obj 226 3124 print;
#X msg 261 3023 loop \$1;
#X obj 261 2997 tgl 19 0 empty empty empty 0 -10 0 12 #fcfcfc #000000 #000000 0 1;
#X msg 96 2912 read sequences/seq-help1.bopseq;
#X msg 253 448 path ../sample-test;
#X msg 263 481 path samples;
#X obj 179 662 print;
#X msg 361 537 folder \$1;
#X floatatom 361 509 5 0 0 0 - - - 0;
#X text 358 481 < default path;
#X text 177 2953 < else sequence content saved with parent patch, f 26;
#X text 93 2843 SEQUENCE;
#X text 69 183 CASIO~;
#X text 402 441 < alternative path relative to bop/, f 22;
#X msg 161 134 64 127;
#X obj 104 334 dac~;
#X msg 362 589 gain 1 1000;
#X msg 361 564 gain 0 1000;
#X obj 212 339 print;
#X msg 218 260 stop;
#X text 139 788 INTRUMENT~;
#X obj 113 981 dac~;
#X obj 264 985 print;
#X msg 137 826 loop 1 \, go;
#X msg 218 826 stop;
#X msg 180 445 0 127;
#X obj 102 663 dac~;
#X msg 267 617 stop;
#X obj 111 3722 dac~;
#X obj 335 3741 print;
#X obj 164 3291 hsl 162 19 0 1 0 0 empty empty empty -2 -10 0 12 #fcfcfc #000000 #000000 0 1;
#X msg 53 3544 dump;
#X msg 331 3504 octaves \$1;
#X floatatom 336 3466 5 0 0 0 - - - 0;
#X msg 90 3321 chord \$1;
#X floatatom 94 3288 5 0 0 0 - - - 0;
#X msg 86 3511 stop;
#X msg 419 3505 shuffle \$1;
#X obj 417 3475 tgl 19 0 empty empty empty 0 -10 0 12 #fcfcfc #000000 #000000 0 1;
#X floatatom 519 3464 5 0 0 0 - - - 0;
#X msg 515 3503 duration \$1;
#X floatatom 519 3530 5 0 0 0 - - - 0;
#X msg 518 3553 velocity \$1;
#X floatatom 263 3475 5 0 0 0 - - - 0;
#X msg 258 3503 root \$1;
#X text 58 3251 STRUM;
#X listbox 262 3783 37 0 0 0 - - - 0;
#X obj 262 3747 list;
#X obj 129 2712 dac~;
#X msg 388 2622 dump;
#X msg 346 2622 stop;
#X obj 49 2473 * 127;
#X obj 52 2436 tgl 19 0 empty empty empty 0 -10 0 12 #fcfcfc #000000 #000000 0 1;
#X msg 55 3012 dump;
#X msg 267 639 dump;
#X msg 219 283 dump;
#X obj 201 2707 print;
#X obj 214 1368 print;
#X msg 316 1275 dump;
#X obj 109 1383 dac~;
#X msg 238 1219 open;
#X msg 116 1191 loop 1 \, go;
#X msg 197 1191 stop;
#X text 78 1145 SYNTH~;
#X obj 166 1817 print;
#X msg 271 1734 dump, f 6;
#X obj 116 1838 dac~;
#X obj 142 1517 tgl 19 0 empty empty empty 0 -10 0 12 #fcfcfc #000000 #000000 0 1;
#X obj 142 1541 * 127;
#X floatatom 268 1677 5 0 0 0 - - - 0;
#X obj 268 1650 hsl 162 19 0 1 0 0 empty empty empty -2 -10 0 12 #fcfcfc #000000 #000000 0 1;
#X text 53 1635 FM~;
#X msg 42 52 \; pd dsp 1;
#X obj 42 19 loadbang;
#X msg 145 1572 30 \$1;
#X msg 272 1706 fm \$1 200;
#X msg 221 2395 delay-time loop 0.5 500 1 500;
#X msg 238 2422 delay-time 2.5 0.1 7000;
#X text 321 2465 cutoff (Hz);
#X text 71 2358 DELAY~;
#X text 322 2446 delay-time (seconds) max 2.5s;
#X msg 49 2503 60 \$1;
#X msg 249 2487 cutoff 1200 \, q 0.1 \, feedback 0.7 \, delay-time 0.7 \, delay-level 1 \, dry-level 1, f 24;
#X msg 254 2559 feedback 0.8 \, delay-time 0.5;
#X obj 196 2063 * 127;
#X obj 199 2026 tgl 19 0 empty empty empty 0 -10 0 12 #fcfcfc #000000 #000000 0 1;
#X obj 270 2224 print;
#X msg 305 2140 dump;
#X obj 147 2219 dac~;
#X msg 361 2145 stop;
#X text 132 1992 reverb~, f 8;
#X text 375 2017 cutoff (Hz);
#X msg 308 2095 dry 1 \, wet 0.7 \, cutoff 3000 \, damp 0.5 \, size 0.5, f 24;
#X msg 287 2039 dry 0.2 \, wet 1 \, cutoff 8000 \, damp 0.8 \, size 0.9, f 24;
#X obj 106 284 bop.casio~;
#A saved wave-1 0;
#A saved wave-2 0;
#A saved attack 0.1;
#A saved decay 0.3;
#A saved sustain 0.7;
#A saved release 0.2;
#A saved filter 1;
#A saved gain 1;
#X obj 102 609 bop.stream~;
#A saved path ../sample-test;
#A saved folder 0;
#A saved gain 1;
#X obj 113 941 bop.instrument~;
#A saved instrument 3;
#X obj 135 886 bop.sequence;
#A saved loop 0;
#A saved loop 0;
#X obj 114 1251 bop.sequence;
#A saved loop 0;
#A saved loop 0;
#X obj 115 1305 bop.synth~;
#A saved osc2-pulsewidth 0.5;
#A saved osc1-pulsewidth 0.5;
#A saved osc2-wave 3;
#A saved osc1-wave 1;
#A saved osc2-gain 1;
#A saved osc2-tune 0;
#A saved osc1-gain 1;
#A saved osc1-tune 0;
#A saved release 0.2;
#A saved sustain 0.7;
#A saved decay 0.3;
#A saved attack 0.1;
#A saved cutoff 2600;
#A saved mono 0;
#A saved noise 0;
#A saved gain 1;
#A saved q 0.5;
#A saved slide 0;
#X obj 116 1776 bop.fm~;
#A saved release 0.2;
#A saved sustain 0.7;
#A saved decay 0.3;
#A saved attack 0.1;
#A saved envelope 1;
#A saved detune 0;
#A saved divisor 1;
#A saved dividend 1;
#A saved frequency 333;
#A saved gain 0.75;
#A saved lfo-depth 0;
#A saved lfo-speed 0.25;
#A saved fm 0;
#X obj 132 1636 bop.fm~;
#A saved release 0.2;
#A saved sustain 0.7;
#A saved decay 0.3;
#A saved attack 0.1;
#A saved envelope 1;
#A saved detune 0;
#A saved divisor 1;
#A saved dividend 1;
#A saved frequency 333;
#A saved gain 0.75;
#A saved lfo-depth 0;
#A saved lfo-speed 0.25;
#A saved fm 0;
#X obj 917 209 bop.sampler~;
#X obj 111 3682 bop.instrument~;
#A saved instrument 3;
#X obj 128 2653 bop.delay~;
#A saved cutoff 1000;
#A saved q 0.3;
#A saved feedback 0.5;
#A saved delay-time 0.333;
#A saved delay-level 0.75;
#A saved dry-level 1;
#X obj 96 3088 bop.sequence;
#A saved instrument 3 \; chord 7 \; volume 1 50 \; delay-time loop 0.8 300 0.81 10000 \; === \; --- swell up \; delay-level 0.1 0.01 0.1 2000 0.5 3000 \; noteslider 0 \; noteslider 0.2 3000 0.8 9000 \; root 46 \; octaves 8 \; octaves 4 5000 \; shuffle 1 \; velocity 0.05 \; velocity 0.5 2800 0.1 5000 \; - 9500 \; --- fall \; noteslider 0.75 \; noteslider 0.1 4000 \; root 53 \; octaves 3 \; shuffle 0 \; velocity 0.9 0.2 4000 \; feedback 0.2 400 \; delay-level 0.8 200 0.5 6000 0 6000 \; - 6000 \;;
#A saved read sequences/seq-help1.bopseq;
#A saved loop 0;
#X obj 152 3601 bop.strum;
#A saved strum 0;
#A saved chord 0;
#A saved shuffle 1;
#A saved octaves 3;
#A saved root 46;
#A saved duration 0.444;
#A saved velocity 0.888;
#X msg 162 3320 strum \$1;
#X obj 262 3709 route strum;
#X obj 49 2547 bop.instrument~;
#A saved instrument 3;
#X obj 147 2174 bop.reverb~;
#A saved dry 1;
#A saved wet 0.7;
#A saved cutoff 3000;
#A saved damp 0.5;
#A saved size 0.5;
#X obj 98 2127 bop.instrument~;
#A saved instrument 3;
#X obj 153 1679 route list;
#X msg 285 815 dump;
#X msg 200 1612 stop;
#X msg 191 3369 strum loop 1 500 1 200 0.6 0 0 1000;
#X msg 196 2093 72 \$1;
#X msg 269 3448 50;
#X msg 293 1441 release 0.5 \, sustain 0.3 \, decay 0.5 \, attack 0.2 \, envelope 1 \, detune 0 \, divisor 8 \, dividend 1 \, gain 0.8 \, lfo-depth 0.9 \, lfo-speed 0.1 \, fm 0, f 36;
#X msg 277 1531 release 0.7 \, sustain 0.7 \, decay 0.3 \, attack 0.1 \, envelope 1 \, detune 0.5 \, divisor 1 \, dividend 1 \, gain 0.55 \, lfo-depth 0 \, lfo-speed 0.25 \, fm loop 0.4 2000 0.7 6000 0.4 1000, f 36;
#X msg 205 232 filter loop 0.99 400 0.1 400;
#X msg 383 4888 dump;
#X msg 373 4848 hold \$1;
#X obj 380 4813 tgl 19 0 empty empty empty 0 -10 0 12 #fcfcfc #000000 #000000 0 1;
#X msg 359 4773 velocity 1;
#X msg 332 4743 duration 1;
#X text 66 4709 SEMISTEPS;
#X msg 77 4299 dump;
#X msg 422 4261 hold \$1;
#X obj 422 4225 tgl 19 0 empty empty empty 0 -10 0 12 #fcfcfc #000000 #000000 0 1;
#X text 114 3940 FRETS;
#X msg 185 4087 frets -12.224;
#X msg 39 4300 stop;
#X text 217 3974 E B E G#;
#X msg 137 4004 frets 0.022;
#X text 239 4005 E A E A;
#X msg 171 4061 frets 1.33211;
#X text 281 4057 F C F A C F;
#X text 301 4084 E(8vb) B E B;
#X msg 158 4033 frets 3.20202;
#X text 269 4035 G B D A B F#;
#X msg 420 4115 duration 0.5;
#X msg 427 4191 tuning 0.55545;
#X msg 426 4891 stop;
#X obj 124 4500 dac~;
#X obj 275 4504 print;
#X listbox 322 4444 20 0 0 0 - - - 0;
#X obj 111 4998 dac~;
#X obj 262 5012 print;
#X msg 426 4148 velocity 0.5;
#X listbox 306 5018 20 0 0 0 - - - 0;
#X obj 117 4372 bop.frets;
#A saved frets 0.221;
#A saved hold 0;
#A saved root 42;
#A saved tuning 0.55545;
#A saved duration 0.3;
#A saved velocity 0.7;
#X obj 124 4460 bop.instrument~;
#A saved instrument 3;
#X obj 110 4913 bop.semisteps;
#A saved semisteps 7.43;
#A saved hold 0;
#A saved root 50;
#A saved duration 1;
#A saved velocity 1;
#X obj 111 4968 bop.instrument~;
#A saved instrument 3;
#X msg 415 4080 root 50;
#X msg 307 4719 root 50;
#X text 46 510 STREAM~;
#X text 41 99 WORKING -------------------------------------------------------------------------------------------, f 105;
#X text 878 112 in progress -----------------------------;
#X msg 265 3394 strum loop 0 0 0.9 150 0.9 800;
#X msg 248 4665 semisteps 0.43;
#X msg 221 4639 semisteps 5.43;
#X msg 194 4613 semisteps 7.43;
#X msg 269 4690 semisteps 0.779;
#X msg 116 3977 frets 0.221;
#X msg 297 256 filter loop 1 3000 0 2000 0.5 0 0.5 1000 0 0 0 1000;
#X floatatom 290 901 5 0 0 0 - - - 0;
#X msg 290 937 instrument \$1;
#X msg 295 1078 osc2-wave 3 \, osc1-wave 3 \, osc2-puslewidth loop 0.1 1234 0.9 1234 \, osc2-gain 1 \, osc2-tune 0 \, osc1-puslewidth loop 0.1 1000 0.9 1000 \, osc1-gain 1 \, osc1-tune -12.03 \, release 0 \, sustain 0 \, decay 1.1 \, attack 0.01 \, mono 0 \, noise 0.7 \, gain 1 \, q 0.5 \, slide 0.4 \, cutoff loop 1000 3000 10000 5000, f 30;
#X obj 322 4420 babs/babs.onlist;
#X obj 306 4994 babs/babs.onlist;
#X msg 221 306 reset;
#X msg 102 562 reset;
#X msg 266 665 reset;
#X msg 177 161 gain 0.9 \, release 0.1 \, sustain 0.507143 \, decay 0.535714 \, attack 0.3 \, wave-2 1 \, wave-1 5, f 36;
#X text 336 2909 < reference file;
#X obj 1002 428 bop.gui;
#X obj 868 639 dac~;
#X msg 905 504 64 127;
#X text 897 154 SAMPLER~;
#X text 931 435 GUI;
#X obj 868 550 bop.casio~, f 13;
#A saved wave-1 5;
#A saved wave-2 1;
#A saved attack 0.3;
#A saved decay 0.535714;
#A saved sustain 0.507143;
#A saved release 0.1;
#A saved filter 0.66;
#A saved gain 0.9;
#X connect 1 0 108 1;
#X connect 3 0 111 1;
#X connect 4 0 111 1;
#X connect 5 0 111 1;
#X connect 7 0 111 1;
#X connect 8 0 7 0;
#X connect 9 0 111 1;
#X connect 10 0 101 1;
#X connect 11 0 101 1;
#X connect 13 0 101 1;
#X connect 14 0 13 0;
#X connect 20 0 100 1;
#X connect 22 0 101 1;
#X connect 23 0 101 1;
#X connect 25 0 100 1;
#X connect 29 0 103 1;
#X connect 30 0 103 1;
#X connect 31 0 101 1;
#X connect 33 0 101 1;
#X connect 36 0 113 0;
#X connect 37 0 112 1;
#X connect 38 0 112 1;
#X connect 39 0 38 0;
#X connect 40 0 112 1;
#X connect 41 0 40 0;
#X connect 42 0 112 1;
#X connect 43 0 112 1;
#X connect 44 0 43 0;
#X connect 45 0 46 0;
#X connect 46 0 112 1;
#X connect 47 0 48 0;
#X connect 48 0 112 1;
#X connect 49 0 50 0;
#X connect 50 0 112 1;
#X connect 53 0 52 0;
#X connect 55 0 110 1;
#X connect 56 0 110 1;
#X connect 57 0 87 0;
#X connect 58 0 57 0;
#X connect 59 0 111 1;
#X connect 60 0 101 1;
#X connect 61 0 100 1;
#X connect 64 0 105 1;
#X connect 66 0 104 1;
#X connect 67 0 104 1;
#X connect 68 0 104 1;
#X connect 71 0 106 2;
#X connect 73 0 74 0;
#X connect 74 0 80 0;
#X connect 75 0 81 0;
#X connect 76 0 75 0;
#X connect 79 0 78 0;
#X connect 80 0 107 2;
#X connect 81 0 106 2;
#X connect 82 0 110 1;
#X connect 83 0 110 1;
#X connect 87 0 115 1;
#X connect 88 0 110 1;
#X connect 89 0 110 1;
#X connect 90 0 122 0;
#X connect 91 0 90 0;
#X connect 93 0 116 1;
#X connect 95 0 116 1;
#X connect 98 0 116 1;
#X connect 99 0 116 1;
#X connect 100 0 21 0;
#X connect 100 0 21 1;
#X connect 100 1 24 0;
#X connect 101 0 32 0;
#X connect 101 0 32 1;
#X connect 101 1 12 0;
#X connect 102 0 27 0;
#X connect 102 0 27 1;
#X connect 102 1 28 0;
#X connect 104 1 105 1;
#X connect 105 0 65 0;
#X connect 105 0 65 1;
#X connect 105 1 63 0;
#X connect 106 0 72 0;
#X connect 106 0 72 1;
#X connect 106 1 70 0;
#X connect 107 0 106 1;
#X connect 107 1 118 0;
#X connect 108 1 2 0;
#X connect 109 0 34 0;
#X connect 109 0 34 1;
#X connect 109 1 114 0;
#X connect 110 0 54 0;
#X connect 110 0 54 1;
#X connect 110 1 62 0;
#X connect 111 1 6 0;
#X connect 112 1 109 1;
#X connect 113 0 112 1;
#X connect 114 0 53 0;
#X connect 114 1 35 0;
#X connect 115 0 110 0;
#X connect 116 0 94 0;
#X connect 116 0 94 1;
#X connect 116 1 92 0;
#X connect 117 0 116 0;
#X connect 118 0 106 2;
#X connect 119 0 102 1;
#X connect 120 0 107 2;
#X connect 120 0 106 2;
#X connect 121 0 112 1;
#X connect 122 0 117 1;
#X connect 123 0 49 0;
#X connect 124 0 107 2;
#X connect 125 0 106 2;
#X connect 126 0 100 1;
#X connect 127 0 159 1;
#X connect 128 0 159 1;
#X connect 129 0 128 0;
#X connect 130 0 159 1;
#X connect 131 0 159 1;
#X connect 133 0 157 1;
#X connect 134 0 157 1;
#X connect 135 0 134 0;
#X connect 137 0 157 1;
#X connect 138 0 157 1;
#X connect 140 0 157 1;
#X connect 142 0 157 1;
#X connect 145 0 157 1;
#X connect 147 0 157 1;
#X connect 148 0 157 1;
#X connect 149 0 159 1;
#X connect 155 0 157 1;
#X connect 157 1 176 0;
#X connect 157 1 158 1;
#X connect 158 0 150 0;
#X connect 158 0 150 1;
#X connect 158 1 151 0;
#X connect 159 1 160 1;
#X connect 160 0 153 0;
#X connect 160 0 153 1;
#X connect 160 1 154 0;
#X connect 160 1 177 0;
#X connect 161 0 157 1;
#X connect 162 0 159 1;
#X connect 166 0 112 1;
#X connect 167 0 159 1;
#X connect 168 0 159 1;
#X connect 169 0 159 1;
#X connect 170 0 159 1;
#X connect 171 0 157 1;
#X connect 172 0 100 1;
#X connect 173 0 174 0;
#X connect 174 0 102 1;
#X connect 175 0 105 1;
#X connect 176 0 152 0;
#X connect 177 0 156 0;
#X connect 178 0 100 1;
#X connect 179 0 101 0;
#X connect 180 0 101 1;
#X connect 181 0 100 1;
#X connect 183 0 188 1;
#X connect 185 0 188 1;
#X connect 188 0 184 0;
#X connect 188 0 184 1;
#X connect 188 1 183 0;
