#N canvas 730 212 740 564 12;
#X declare -path ./bop.p;
#X obj 543 130 savestate, f 17;
#X obj 542 103 bop.p.autosave \$0;
#X obj 389 220 inlet~, f 25;
#X obj 561 400 outlet;
#X text 561 437 MIDI and messages dump out of right, f 13;
#X obj 389 410 outlet~;
#X text 379 438 Signal out of left, f 9;
#X text 385 194 Signal \, MIDI \, and messages in left, f 36;
#X obj 561 314 bop.p.inout \$0;
#X obj 356 115 declare -path ./bop.p;
#X obj 428 284 r \$0-midi-in;
#X obj 427 362 s \$0-midi-out;
#X text 370 48 ---------- bop module template -------------;
#X obj 110 130 bop.p.toggle \$0 run 0;
#X obj 183 130 bop.p.toggle \$0 loop 1;
#X obj 110 150 bop.p.button \$0 open;
#N canvas 538 199 822 636 seq 1;
#X obj 113 195 outlet~;
#X obj 112 82 inlet~;
#X obj 447 89 inlet;
#X obj 449 199 outlet;
#X obj 158 270 r \$0-get-open;
#X obj 158 328 text define -k \$0-seq;
#A set noteslider 1 0 1000 \; - 2000 \; noteslider 1 0 1000 \; velocity 0 1 3000 \; - 2000 \;;
#X msg 158 299 click;
#X obj 347 269 r \$0-get-run;
#X obj 347 303 sel 0 1, f 15;
#X msg 398 345 line 0 \, auto;
#X msg 347 345 stop;
#X obj 346 390 text sequence \$0-seq -w -;
#X obj 557 417 r \$0-get-loop;
#X obj 518 451 spigot;
#X obj 518 482 s \$0-retrigger;
#X obj 467 302 r \$0-retrigger;
#X obj 346 440 s \$0-out;
#X obj 470 160 r \$0-out;
#X obj 518 423 bng 19 250 50 0 empty empty empty 0 -10 0 12 #fcfcfc #000000 #000000;
#X obj 346 415 list trim;
#X obj 156 506 print;
#X obj 156 458 text tolist \$0-seq;
#X obj 157 427 bng 19 250 50 0 empty empty empty 0 -10 0 12 #fcfcfc #000000 #000000;
#X obj 157 396 r \$0-get-print;
#X obj 592 293 r \$1-stop;
#X obj 592 346 s \$0-set-run;
#X msg 592 317 stop;
#X connect 1 0 0 0;
#X connect 2 0 3 0;
#X connect 4 0 6 0;
#X connect 6 0 5 0;
#X connect 7 0 8 0;
#X connect 8 0 10 0;
#X connect 8 1 9 0;
#X connect 9 0 11 0;
#X connect 10 0 11 0;
#X connect 11 0 19 0;
#X connect 11 2 18 0;
#X connect 12 0 13 1;
#X connect 13 0 14 0;
#X connect 15 0 9 0;
#X connect 17 0 3 0;
#X connect 18 0 13 0;
#X connect 19 0 16 0;
#X connect 21 0 20 0;
#X connect 22 0 21 0;
#X connect 23 0 22 0;
#X connect 24 0 26 0;
#X connect 26 0 25 0;
#X restore 389 321 pd seq;
#X obj 183 150 bop.p.button \$0 print;
#X connect 0 0 1 1;
#X connect 0 1 1 0;
#X connect 1 0 0 0;
#X connect 2 0 16 0;
#X connect 2 1 8 0;
#X connect 8 0 3 0;
#X connect 10 0 16 1;
#X connect 16 0 5 0;
#X connect 16 1 11 0;
#X coords 0 -1 1 1 166 80 1 100 100;
