#N canvas 43 68 1094 457 12;
#X declare -path ./bop.p;
#X obj 823 105 savestate, f 17;
#X obj 822 78 bop.p.autosave \$0;
#X obj 669 175 inlet~, f 34;
#X obj 904 355 outlet;
#X text 904 392 MIDI and messages dump out of right, f 13;
#X obj 669 365 outlet~;
#X text 659 393 Signal out of left, f 9;
#X text 665 149 Signal \, MIDI \, and messages in left, f 36;
#X obj 904 269 bop.p.inout \$0;
#X obj 636 90 declare -path ./bop.p;
#X obj 772 239 r \$0-midi-in;
#X obj 771 317 s \$0-midi-out;
#N canvas 863 251 721 472 do-the-thing 0;
#X obj 94 332 outlet~;
#X obj 92 132 inlet~;
#X obj 158 132 inlet;
#X obj 160 332 outlet;
#X obj 318 52 r \$0-get-bang;
#X obj 530 111 r \$0-get-reset;
#X obj 530 140 bng 19 250 50 0 empty empty empty 0 -10 0 12 #fcfcfc #000000 #000000;
#X obj 318 144 bng 19 250 50 0 empty empty empty 0 -10 0 12 #fcfcfc #000000 #000000;
#X obj 318 172 bop.p.step \$0 1, f 16;
#X obj 530 169 s \$0-reset;
#X obj 318 201 bop.p.step \$0 2, f 16;
#X obj 181 295 r \$0-steps;
#X obj 318 230 bop.p.step \$0 3, f 16;
#X obj 318 259 bop.p.step \$0 4, f 16;
#X obj 318 288 bop.p.step \$0 5, f 16;
#X obj 427 406 s \$0-end-loop;
#X obj 395 81 r \$0-end-loop;
#X msg 427 140 1;
#X obj 318 317 bop.p.step \$0 6, f 16;
#X obj 318 346 bop.p.step \$0 7, f 16;
#X obj 318 375 bop.p.step \$0 8, f 16;
#X obj 395 107 t b b;
#X obj 174 173 route steps;
#X obj 175 224 s, f 11;
#X connect 1 0 0 0;
#X connect 2 0 3 0;
#X connect 2 0 22 0;
#X connect 4 0 7 0;
#X connect 5 0 6 0;
#X connect 5 0 17 0;
#X connect 6 0 9 0;
#X connect 7 0 8 0;
#X connect 8 0 10 0;
#X connect 8 1 10 1;
#X connect 10 0 12 0;
#X connect 10 1 12 1;
#X connect 11 0 3 0;
#X connect 12 0 13 0;
#X connect 12 1 13 1;
#X connect 13 0 14 0;
#X connect 13 1 14 1;
#X connect 14 0 18 0;
#X connect 14 1 18 1;
#X connect 16 0 21 0;
#X connect 17 0 8 1;
#X connect 18 0 19 0;
#X connect 18 1 19 1;
#X connect 19 0 20 0;
#X connect 19 1 20 1;
#X connect 20 1 15 0;
#X connect 21 0 7 0;
#X connect 21 1 17 0;
#X restore 669 276 pd do-the-thing;
#X obj 110 160 bop.p.step-params \$0 1;
#X obj 110 180 bop.p.step-params \$0 2;
#X obj 110 200 bop.p.step-params \$0 3;
#X obj 110 220 bop.p.step-params \$0 4;
#X obj 110 240 bop.p.step-params \$0 5;
#X obj 110 260 bop.p.step-params \$0 6;
#X obj 110 280 bop.p.step-params \$0 7;
#X obj 110 300 bop.p.step-params \$0 8;
#X obj 402 130 bop.p.button \$0 bang;
#X obj 475 130 bop.p.button \$0 reset;
#X connect 0 0 1 1;
#X connect 0 1 1 0;
#X connect 1 0 0 0;
#X connect 2 0 12 0;
#X connect 2 1 8 0;
#X connect 8 0 3 0;
#X connect 10 0 12 1;
#X connect 12 0 5 0;
#X connect 12 1 11 0;
#X coords 0 -1 1 1 458 230 1 100 100;
