#N canvas 640 166 508 537 12;
#X obj 199 110 bop.casio~;
#A saved filter 0.381607;
#A saved gain 0.728571;
#A saved wave-2 3;
#A saved wave-1 2;
#A saved release 0.128571;
#A saved sustain 0.392857;
#A saved decay 0.25;
#A saved attack 0;
#X obj 199 19 tgl 19 0 empty empty empty 0 -10 0 12 #fcfcfc #000000 #000000 0 1;
#X obj 358 503 print;
#N canvas 34 37 647 775 generate 0;
#X obj 481 22 inlet;
#X obj 350 746 outlet;
#X obj 12 142 bng 19 250 50 0 empty empty empty 0 -10 0 12 #fcfcfc #000000 #000000;
#X obj 12 118 metro 400;
#X obj 76 317 sel 0 1;
#X msg 76 360 0.4343;
#X msg 137 360 -3.3434;
#X obj 18 489 f;
#X obj 71 175 ./bop.p/bop.p.counter;
#X obj 76 264 sel 0;
#X obj 76 288 tgl 19 0 empty empty empty 0 -10 0 12 #fcfcfc #000000 #000000 0 1;
#X obj 76 240 % 16;
#X floatatom 126 240 5 0 0 0 - - - 0;
#X text 431 823 you have lovely eyes., f 24;
#X msg 467 274 volume \$1 100;
#X obj 191 585 bop.semisteps;
#A saved semisteps 0.4343;
#A saved root 55;
#A saved duration 0.367865;
#A saved velocity 0.75;
#X msg 12 526 semisteps \$1;
#X obj 234 199 sel 0 1, f 15;
#X msg 256 268 stop;
#X msg 309 336 duration loop 1 400 1 80 0.08 8000 0.08 4000, f 17;
#X msg 312 264 filter loop 1 400 1 80 0.1 8000 0.1 4000, f 17;
#X connect 0 0 3 0;
#X connect 0 0 14 0;
#X connect 0 0 17 0;
#X connect 2 0 7 0;
#X connect 2 0 8 0;
#X connect 3 0 2 0;
#X connect 4 0 5 0;
#X connect 4 1 6 0;
#X connect 5 0 7 1;
#X connect 6 0 7 1;
#X connect 7 0 16 0;
#X connect 8 0 11 0;
#X connect 8 0 12 0;
#X connect 9 0 10 0;
#X connect 10 0 4 0;
#X connect 11 0 9 0;
#X connect 14 0 15 0;
#X connect 15 1 1 0;
#X connect 16 0 15 0;
#X connect 17 0 18 0;
#X connect 17 1 20 0;
#X connect 17 1 19 0;
#X connect 18 0 15 0;
#X connect 19 0 15 0;
#X connect 20 0 15 0;
#X restore 199 62 pd generate;
#X text 19 391 signal out and through >;
#X text 13 87 signal/midi/messages in >;
#X text 366 380 < MIDI and messages out/through, f 12;
#X obj 199 422 bop.out~;
#A saved mute 0;
#A saved volume 1;
#X connect 0 0 7 0;
#X connect 0 1 7 0;
#X connect 1 0 3 0;
#X connect 3 0 0 0;
#X connect 7 2 2 0;
