#N canvas 0 37 1470 891 12;
#X declare -path ./babs;
#X obj 39 281 inlet~, f 9;
#X obj 141 432 outlet;
#X obj 42 411 outlet~;
#X text 151 311 < midi and messages;
#X obj 1249 679 text define \$0-chords;
#X obj 946 509 loadbang;
#X obj 962 879 text sequence \$0-chords;
#X msg 962 848 line 0 \, bang;
#X obj 949 719 bng 19 250 50 0 empty empty empty 0 -10 0 12 #fcfcfc #000000 #000000;
#X obj 949 788 t b b b, f 18;
#X obj 949 943 babs.accum, f 18;
#X msg 962 912 \$1;
#X obj 1171 878 list split 1;
#X obj 1211 944 text define \$0-notes;
#X obj 1171 849 text sequence \$0-chords;
#X msg 1171 818 line 0 \, bang;
#X obj 1343 849 text delete \$0-notes;
#X obj 1171 719 bng 19 250 50 0 empty empty empty 0 -10 0 12 #fcfcfc #000000 #000000;
#X obj 1171 785 t b b, f 25;
#X obj 387 663 text get \$0-notes;
#X obj 513 233 r \$0-numnotes;
#X obj 513 264 - 1;
#X obj 948 582 bng 19 250 50 0 empty empty empty 0 -10 0 12 #fcfcfc #000000 #000000;
#X msg 1341 816 -1;
#X obj 416 813 list length;
#X obj 1212 914 text set \$0-notes 1e+10;
#X obj 416 849 s \$0-numnotes;
#X obj 355 424 int;
#X obj 355 448 change;
#X obj 362 923 babs.nth, f 27;
#X obj 357 536 t b f, f 28;
#X obj 541 996 r \$0-get-duration;
#X obj 541 1020 pow 2;
#X obj 541 1044 * 5000;
#X obj 362 1148 makenote 127 100, f 26;
#X text 401 1034 < scale offset;
#X obj 382 1004 r \$0-get-root;
#X obj 361 1036 + 0;
#X obj 362 1235 pack;
#N canvas 42 117 783 792 scalemaker 0;
#X obj 241 100 inlet;
#X obj 265 757 outlet;
#X obj 311 322 bng 15 250 50 0 empty empty empty 17 7 0 10 #fcfcfc #000000 #000000;
#X floatatom 372 459 5 0 0 0 - - - 0;
#X obj 414 449 + 12;
#X obj 311 379 t b b;
#X obj 355 651 + 0;
#X msg 372 377 set 0;
#X obj 549 321 bng 15 250 50 0 empty empty empty 17 7 0 10 #fcfcfc #000000 #000000;
#X floatatom 241 179 5 0 0 0 - - - 0;
#X obj 241 205 t b f b, f 52;
#X msg 415 479 set \$1;
#X obj 310 284 until;
#X obj 278 576 babs.iter;
#X obj 81 47 inlet;
#X obj 81 113 t b l, f 8;
#X obj 241 124 int;
#X obj 291 469 list;
#X obj 265 704 babs.accum, f 45;
#X connect 0 0 16 0;
#X connect 2 0 5 0;
#X connect 3 0 4 0;
#X connect 3 0 6 1;
#X connect 4 0 11 0;
#X connect 5 0 17 0;
#X connect 5 1 3 0;
#X connect 6 0 18 0;
#X connect 7 0 3 0;
#X connect 8 0 7 0;
#X connect 9 0 10 0;
#X connect 10 0 18 0;
#X connect 10 1 12 0;
#X connect 10 2 8 0;
#X connect 10 2 18 1;
#X connect 11 0 3 0;
#X connect 12 0 2 0;
#X connect 13 0 6 0;
#X connect 14 0 15 0;
#X connect 15 0 9 0;
#X connect 15 1 17 1;
#X connect 16 0 9 0;
#X connect 17 0 13 0;
#X connect 18 0 1 0;
#X restore 387 761 pd scalemaker;
#X obj 413 712 r \$0-get-octaves;
#X obj 362 855 list;
#X obj 355 330 babs.scale 0 1 -0.05 5;
#X obj 355 363 moses 0;
#X obj 513 298 + 0.05;
#X obj 355 492 moses 0;
#X msg 355 393 -1;
#X text 451 398 handle high and low retriggering;
#X obj 386 569 r \$0-get-chord;
#X obj 398 1081 r \$0-get-velocity;
#X obj 398 1105 * 127;
#N canvas 571 261 625 571 shuffle 0;
#X obj 130 44 inlet;
#X obj 242 49 inlet;
#X obj 178 521 outlet;
#X obj 214 211 t f f;
#X obj 214 275 pack;
#X obj 212 241 % 2;
#X text 253 227 even = 0 \; odd = 1 \;;
#X obj 214 304 route 0 1;
#X obj 214 328 + 1;
#X obj 245 329 - 1;
#X obj 178 156 route 0 1;
#X obj 166 99 list prepend;
#X obj 212 188 + 1;
#X obj 337 77 inlet;
#X obj 214 376 -1;
#X obj 364 423 * -1;
#X obj 214 450 +;
#X obj 213 402 t f f;
#X obj 364 399 >=;
#X obj 364 447 - 1;
#X obj 217 488 max 0;
#X connect 0 0 11 0;
#X connect 1 0 11 1;
#X connect 3 0 5 0;
#X connect 3 1 4 1;
#X connect 4 0 7 0;
#X connect 5 0 4 0;
#X connect 7 0 8 0;
#X connect 7 1 9 0;
#X connect 8 0 14 0;
#X connect 9 0 14 0;
#X connect 10 0 2 0;
#X connect 10 1 12 0;
#X connect 11 0 10 0;
#X connect 12 0 3 0;
#X connect 13 0 18 1;
#X connect 14 0 17 0;
#X connect 15 0 19 0;
#X connect 16 0 20 0;
#X connect 17 0 16 0;
#X connect 17 1 18 0;
#X connect 18 0 15 0;
#X connect 19 0 16 1;
#X connect 20 0 2 0;
#X restore 549 728 pd shuffle;
#X obj 584 647 r \$0-get-shuffle;
#X obj 386 593 int;
#X text 1030 547 Read chords from texfile \; prepare notes for indexed access \; set enum label for ui \;;
#X obj 949 609 t b b b, f 64;
#X obj 540 1181 int;
#X msg 261 1107 stop;
#X obj 749 292 babs.onlist;
#X text 760 318 LIST OF HELD NOTES;
#X listbox 749 345 20 0 0 0 - - - 0;
#X obj 749 249 r \$0-midi;
#X text 678 226 run off of frets or semisteps instead?;
#X obj 800 33 loadbang;
#X obj 813 184 s \$0-params;
#X obj 617 687 r \$0-numnotes;
#X obj 800 67 delay 5;
#X obj 362 1264 s \$0-out;
#X obj 158 397 r \$0-out;
#X obj 47 225 declare -path ./babs;
#X msg 1249 648 read sub/strum/chords.txt;
#X obj 141 355 babs.inout \$0 bop.strum;
#X obj 355 225 r \$0-get-strum;
#X obj 140 275 inlet;
#X obj 261 1083 r \$0-get-stop;
#X obj 71 324 s \$0-in;
#X obj 191 277 r \$0-in;
#X obj 949 976 s \$0-chordlist;
#X obj 1472 185 r \$0-chordlist;
#X obj 582 151 savestate;
#X obj 582 124 babs.savestate \$0;
#X obj 1497 219 list length;
#X floatatom 1497 243 5 0 0 0 - - - 0;
#X listbox 1464 300 20 0 0 0 - - - 0;
#X obj 1460 246 bng 19 250 50 0 empty empty empty 0 -10 0 12 #fcfcfc #000000 #000000;
#X obj 1464 323 print;
#X obj 1461 266 list;
#X obj 824 92 r \$0-get-chord;
#X obj 808 114 f;
#X msg 813 160 chord \$1;
#X obj 1009 454 babs.param \$0 duration 0.444;
#X obj 1009 434 babs.param \$0 velocity 0.888;
#X obj 1084 406 babs.param.spacer \$0;
#X obj 1009 374 babs.param \$0 octaves 3 0 8;
#X obj 1009 354 babs.param \$0 root 46 0 127;
#X obj 1010 329 babs.param \$0 shuffle 1 0 1;
#X obj 1018 286 babs.param.spacer \$0;
#X obj 1005 218 babs.param.enum \$0 chord major minor major7 minor7 dominant7 minorb5 minor9 major7#11 diminished augmented wholetone whole-half half-whole blues;
#X obj 1005 144 babs.param \$0 chord 5 0 13;
#X obj 1049 118 babs.param.spacer \$0;
#X obj 999 92 babs.param \$0 strum;
#X connect 0 0 2 0;
#X connect 0 1 75 0;
#X connect 5 0 22 0;
#X connect 6 0 11 0;
#X connect 7 0 6 0;
#X connect 8 0 9 0;
#X connect 9 0 10 0;
#X connect 9 1 7 0;
#X connect 9 2 10 1;
#X connect 10 0 77 0;
#X connect 11 0 10 0;
#X connect 12 1 25 0;
#X connect 14 0 12 0;
#X connect 15 0 14 0;
#X connect 17 0 18 0;
#X connect 18 0 15 0;
#X connect 18 1 23 0;
#X connect 19 0 39 0;
#X connect 20 0 21 0;
#X connect 21 0 44 0;
#X connect 22 0 55 0;
#X connect 23 0 16 0;
#X connect 24 0 26 0;
#X connect 27 0 28 0;
#X connect 28 0 45 0;
#X connect 29 0 37 0;
#X connect 30 0 41 0;
#X connect 30 1 51 0;
#X connect 31 0 32 0;
#X connect 32 0 33 0;
#X connect 33 0 34 2;
#X connect 34 0 38 0;
#X connect 34 1 56 0;
#X connect 36 0 37 1;
#X connect 37 0 34 0;
#X connect 38 0 67 0;
#X connect 39 0 41 1;
#X connect 39 0 24 0;
#X connect 40 0 39 1;
#X connect 41 0 29 0;
#X connect 42 0 43 0;
#X connect 43 0 46 0;
#X connect 43 1 27 0;
#X connect 44 0 42 4;
#X connect 45 1 30 0;
#X connect 46 0 27 0;
#X connect 48 0 53 0;
#X connect 49 0 50 0;
#X connect 50 0 34 1;
#X connect 51 0 29 1;
#X connect 52 0 51 1;
#X connect 53 0 19 0;
#X connect 55 0 8 0;
#X connect 55 1 17 0;
#X connect 55 2 70 0;
#X connect 56 0 38 1;
#X connect 57 0 34 0;
#X connect 58 0 60 0;
#X connect 61 0 58 0;
#X connect 63 0 66 0;
#X connect 65 0 51 2;
#X connect 66 0 88 0;
#X connect 68 0 1 0;
#X connect 70 0 4 0;
#X connect 71 0 1 0;
#X connect 72 0 42 0;
#X connect 73 0 71 0;
#X connect 74 0 57 0;
#X connect 76 0 71 0;
#X connect 78 0 81 0;
#X connect 78 0 86 1;
#X connect 79 0 80 1;
#X connect 79 1 80 0;
#X connect 80 0 79 0;
#X connect 81 0 82 0;
#X connect 83 0 85 0;
#X connect 84 0 86 0;
#X connect 86 0 83 0;
#X connect 87 0 88 1;
#X connect 88 0 89 0;
#X connect 89 0 64 0;
#X coords 0 891 1 890 166 240 0;
