#N canvas 678 88 740 564 12;
#X declare -path ./bop.p;
#X obj 543 130 savestate, f 17;
#X obj 542 103 bop.p.autosave \$0;
#X obj 389 220 inlet~, f 25;
#X obj 561 400 outlet;
#X text 561 437 MIDI and messages dump out of right, f 13;
#X obj 389 410 outlet~;
#X text 379 438 Signal out of left, f 9;
#X text 385 194 Signal \, MIDI \, and messages in left, f 36;
#X obj 561 314 bop.p.inout \$0;
#X obj 356 115 declare -path ./bop.p;
#X obj 428 284 r \$0-midi-in;
#X obj 427 362 s \$0-midi-out;
#X text 370 48 ---------- bop module template -------------;
#X obj 110 130 bop.p.toggle \$0 run 0;
#X obj 183 130 bop.p.toggle \$0 loop 1;
#X obj 110 150 bop.p.button \$0 open;
#N canvas 169 59 1250 851 seq 1;
#X obj 113 195 outlet~;
#X obj 112 82 inlet~;
#X obj 447 89 inlet;
#X obj 449 199 outlet;
#X obj 407 322 r \$0-get-open;
#X msg 407 351 click;
#X obj 67 546 r \$0-get-run;
#X obj 67 580 sel 0 1, f 15;
#X msg 118 622 line 0 \, auto;
#X msg 67 622 stop;
#X obj 66 667 text sequence \$0-seq -w -;
#X obj 277 704 r \$0-get-loop;
#X obj 238 738 spigot;
#X obj 238 769 s \$0-retrigger;
#X obj 187 579 r \$0-retrigger;
#X obj 66 727 s \$0-out;
#X obj 470 160 r \$0-out;
#X obj 238 710 bng 19 250 50 0 empty empty empty 0 -10 0 12 #fcfcfc #000000 #000000;
#X obj 66 702 list trim;
#X obj 405 558 print;
#X obj 405 510 text tolist \$0-seq;
#X obj 406 479 bng 19 250 50 0 empty empty empty 0 -10 0 12 #fcfcfc #000000 #000000;
#X obj 406 448 r \$0-get-print;
#X obj 66 516 s \$0-set-run;
#X msg 66 487 0;
#X obj 66 463 r \$0-stop;
#X obj 845 124 r \$0-savestate;
#X obj 845 243 s \$0-params;
#X obj 844 214 list prepend sequence-list;
#X obj 845 154 bng 19 250 50 0 empty empty empty 0 -10 0 12 #fcfcfc #000000 #000000;
#X obj 846 406 text fromlist \$0-seq;
#X obj 846 284 r \$0-params;
#X obj 846 328 route sequence-list;
#X obj 844 185 text tolist \$0-seq;
#X obj 846 306 list trim;
#X obj 407 380 text define \$0-seq;
#X obj 846 374 list;
#X text 817 105 todo: external import/export of list;
#X text 818 90 --- store text with bop.p.autosave ---;
#X text 666 497 === \; // never return above here (brick wall header);
#X text 661 549 dashes work like comments;
#X text 660 581 === \; --- x 4 \; - 1 \; - 1 \; - 1 \; - 1 \; --- \; - 1 \; - 1 \; - 1 \; - 1 \; --- xx 2 \; - 1 \; - 1 \; - 1 \; - 1 \; --- \; - 1 \; - 1 \; --- xxx 8 \; - 1 \; - 1 \; --- \;, f 27;
#X connect 1 0 0 0;
#X connect 2 0 3 0;
#X connect 4 0 5 0;
#X connect 5 0 35 0;
#X connect 6 0 7 0;
#X connect 7 0 9 0;
#X connect 7 1 8 0;
#X connect 8 0 10 0;
#X connect 9 0 10 0;
#X connect 10 0 18 0;
#X connect 10 2 17 0;
#X connect 11 0 12 1;
#X connect 12 0 13 0;
#X connect 14 0 8 0;
#X connect 16 0 3 0;
#X connect 17 0 12 0;
#X connect 18 0 15 0;
#X connect 20 0 19 0;
#X connect 21 0 20 0;
#X connect 22 0 21 0;
#X connect 24 0 23 0;
#X connect 25 0 24 0;
#X connect 26 0 29 0;
#X connect 28 0 27 0;
#X connect 29 0 33 0;
#X connect 31 0 34 0;
#X connect 32 0 36 0;
#X connect 33 0 28 0;
#X connect 34 0 32 0;
#X connect 36 0 30 0;
#X restore 389 321 pd seq;
#X obj 183 150 bop.p.button \$0 print;
#X connect 0 0 1 1;
#X connect 0 1 1 0;
#X connect 1 0 0 0;
#X connect 2 0 16 0;
#X connect 2 1 8 0;
#X connect 8 0 3 0;
#X connect 10 0 16 1;
#X connect 16 0 5 0;
#X connect 16 1 11 0;
#X coords 0 -1 1 1 166 80 1 100 100;
