#N canvas 459 218 725 644 12;
#X declare -path ./bop.p;
#X obj 478 578 savestate, f 17;
#X obj 477 551 bop.p.autosave \$0;
#X text 318 499 Other messages get picked up in the bop.p.param \, bop.p.toggle \, and bop.p.number objects, f 20;
#X text 475 498 ... and are stored in here when the parent patch is saved, f 22;
#X text 313 470 Incoming lists are treated as MIDI note and velocity;
#X obj 330 105 inlet~, f 34;
#X obj 565 285 outlet;
#X text 565 322 MIDI and messages dump out of right, f 13;
#X obj 330 295 outlet~;
#X text 320 323 Signal out of left, f 9;
#X text 326 79 Signal \, MIDI \, and messages in left, f 36;
#X text 343 418 ---------- STATE SAVING ---------------, f 43;
#X obj 565 199 bop.p.inout \$0;
#X obj 333 45 declare -path ./bop.p;
#X obj 411 169 r \$0-midi-in;
#X obj 410 247 s \$0-midi-out;
#X obj 110 180 bop.p.param \$0 velocity 0.75;
#X obj 110 200 bop.p.param \$0 duration 0.25;
#X obj 110 150 bop.p.number \$0 root 42;
#X obj 110 130 bop.p.number \$0 semisteps 0;
#N canvas 537 232 678 552 semisteps 0;
#X obj 44 97 outlet~;
#X obj 44 34 inlet~;
#X obj 174 35 inlet;
#X obj 176 525 outlet;
#X obj 308 168 bop.p.iter;
#X obj 308 402 makenote 100 500;
#X obj 362 288 r \$0-get-velocity;
#X obj 362 312 * 127;
#X obj 417 338 r \$0-get-duration;
#X obj 417 364 * 5000;
#X obj 309 445 pack, f 16;
#X obj 309 261 +;
#X obj 329 222 r \$0-get-root;
#X msg 261 139 stop;
#X obj 308 99 t f b;
#X obj 218 337 r \$0-stop;
#X msg 218 361 stop;
#X obj 309 40 r \$0-get-semisteps;
#X obj 308 135 bop.p.semisteps;
#X connect 1 0 0 0;
#X connect 2 0 3 0;
#X connect 4 0 11 0;
#X connect 5 0 10 0;
#X connect 5 1 10 1;
#X connect 6 0 7 0;
#X connect 7 0 5 1;
#X connect 8 0 9 0;
#X connect 9 0 5 2;
#X connect 10 0 3 0;
#X connect 11 0 5 0;
#X connect 12 0 11 1;
#X connect 13 0 5 0;
#X connect 14 0 18 0;
#X connect 14 1 13 0;
#X connect 15 0 16 0;
#X connect 16 0 5 0;
#X connect 17 0 14 0;
#X connect 18 0 4 0;
#X restore 330 206 pd semisteps;
#X connect 0 0 1 1;
#X connect 0 1 1 0;
#X connect 1 0 0 0;
#X connect 5 0 20 0;
#X connect 5 1 12 0;
#X connect 12 0 6 0;
#X connect 14 0 20 1;
#X connect 20 0 8 0;
#X connect 20 1 15 0;
#X coords 0 -1 1 1 166 130 1 100 100;
