#N canvas 332 176 1076 656 12;
#X declare -path ./bop.p;
#N canvas 266 303 450 278 (subpatch) 0;
#X array \$0-view 100 float 3;
#A 0 0 0 0 0 0 0 0 0 0 0 0 0 0 0 0 0 0 0 0 0 0 0 0 0 0 0 0 0 0 0 0 0 0 0 0 0 0 0 0 0 0 0 0 0 0 0 0 0 0 0 0 0 0 0 0 0 0 0 0 0 0 0 0 0 0 0 0 0 0 0 0 0 0 0 0 0 0 0 0 0 0 0 0 0 0 0 0 0 0 0 0 0 0 0 0 0 0 0 0 0;
#X coords 0 1 100 -1 146 140 1 0 0;
#X restore 20 50 graph;
#X obj 233 262 metro 100;
#X obj 351 226 wrap~ -2 2;
#X obj 351 193 expr~ $v1 * 0.5 + 0.5;
#X obj 351 259 expr~ ($v1 - 0.5) * 2;
#X obj 351 299 tabwrite~ \$0-view;
#X obj 93 30 bop.p.toggle \$0 enable;
#X obj 233 230 r \$0-get-enable;
#X text 376 380 Other messages get picked up in the bop.p.param \, bop.p.toggle \, and bop.p.number objects, f 20;
#X obj 621 243 outlet;
#X obj 539 81 inlet~, f 12;
#X obj 536 244 outlet~;
#X obj 540 452 savestate, f 17;
#X obj 539 425 bop.p.autosave \$0;
#X text 537 372 ... and are stored in here when the parent patch is saved, f 22;
#X obj 485 28 declare -path ./bop.p;
#X obj 621 178 bop.p.inout;
#X connect 1 0 5 0;
#X connect 2 0 4 0;
#X connect 3 0 2 0;
#X connect 4 0 5 0;
#X connect 7 0 1 0;
#X connect 10 0 11 0;
#X connect 10 0 3 0;
#X connect 10 1 16 0;
#X connect 12 0 13 1;
#X connect 12 1 13 0;
#X connect 13 0 12 0;
#X connect 16 0 9 0;
#X coords 0 -1 1 1 166 195 1 10 10;
