#N canvas 611 91 663 687 12;
#X obj 168 492 bop.pluck~;
#A saved instrument 2;
#X obj 168 594 output~;
#X obj 168 229 bop.noteslider;
#A saved shuffle 0;
#A saved duration 0.685714;
#A saved velocity 0.2;
#A saved octaves 3;
#A saved root 45;
#A saved chord 7;
#A saved noteslider 0.1;
#X obj 168 76 tgl 19 0 empty empty empty 0 -10 0 12 #fcfcfc #000000 #000000 0 1;
#X obj 166 103 sel 0 1;
#X obj 172 14 tgl 19 0 empty empty empty 0 -10 0 12 #fcfcfc #000000 #000000 0 1;
#X obj 168 49 metro 4800;
#X text 236 98 set multiple parameters separated by commas;
#X msg 166 128 noteslider 0.1 2000 \, root 45 \, octaves 3 \, shuffle 0 \, velocity 0.2 2000;
#X msg 190 178 noteslider 0 \, noteslider 1 3600 \, root 50 \, octaves 2 \, shuffle 1 \, velocity 1 4000, f 64;
#X obj 55 86 bng 19 250 50 0 empty empty empty 0 -10 0 12 #fcfcfc #000000 #000000;
#X msg 55 198 instrument \$1;
#X obj 85 536 loadbang;
#X msg 85 560 level 1;
#X obj 57 116 f;
#X obj 93 116 + 1;
#X floatatom 57 150 5 0 0 0 - - - 0;
#X obj 58 175 % 4;
#X connect 0 0 1 0;
#X connect 2 1 0 0;
#X connect 3 0 4 0;
#X connect 4 0 8 0;
#X connect 4 1 9 0;
#X connect 5 0 6 0;
#X connect 6 0 3 0;
#X connect 6 0 10 0;
#X connect 8 0 2 0;
#X connect 9 0 2 0;
#X connect 10 0 14 0;
#X connect 11 0 2 0;
#X connect 12 0 13 0;
#X connect 13 0 1 0;
#X connect 14 0 15 0;
#X connect 14 0 16 0;
#X connect 15 0 14 1;
#X connect 16 0 17 0;
#X connect 17 0 11 0;
