#N struct text float x float y text t;
#N canvas 278 65 1164 855 10;
#X declare -path ./bop.p;
#X obj 1150 1390 cnv 15 180 60 empty empty empty 20 12 0 14 #bca8fc #404040 0;
#X obj 540 100 inlet~ left;
#X obj 640 100 inlet~ right;
#X obj 740 100 inlet note;
#X obj 940 100 inlet ctl;
#X obj 540 320 outlet~ left;
#X obj 640 320 outlet~ right;
#X obj 740 320 outlet note;
#X obj 940 460 outlet ctl;
#X text 1660 1990 comment;
#X obj 900 580 list fromsymbol;
#X msg 900 500 abcdefg;
#X msg 960 500 ABCDEFG;
#X msg 1020 500 #;
#X msg 1050 500 b;
#X text 1080 500 easier to not use flats for now;
#X msg 1840 1140 48 49 50 51 52 53 54 55 56 57;
#X text 1120 1140 0 1 2 3 4 5 6 7 8 9;
#X obj 900 644 print;
#X msg 1820 1170 97 98 99 100 101 102 103;
#X text 1190 1170 abcdefeg;
#X msg 1800 1220 65 66 67 68 69 70 71;
#X text 1190 1210 ABCDEFG;
#X msg 1780 1250 35;
#X text 1230 1280 #;
#X obj 420 750 list fromsymbol;
#X text 1270 1140 * 12;
#X text 1270 1170 0 2 3 5 7 8 10;
#X text 1250 1140 +;
#X text 1250 1170 +;
#X text 1250 1280 +;
#X text 1270 1280 1;
#X scalar text 286 637 \; \;;
#X msg 1540 1140 0 12 24 36 48 60 72 84 96 108;
#X msg 1480 1250 1;
#X obj 1560 1900 tabwrite \$0-ascii2semi;
#X obj 1660 1710 t b f;
#X obj 1560 1720 t b f;
#X obj 1510 1630 t f f;
#X obj 1870 1320 list append;
#X obj 1810 1370 list append;
#X obj 1390 1450 list length;
#X obj 1596 1282 list append;
#X obj 1536 1332 list append;
#X obj 1580 1310 list append;
#X obj 1850 1350 list append;
#X obj 1780 1100 t b b b b;
#X obj 1777 1069 bng 15 250 50 0 empty empty empty 17 7 0 10 #fcfcfc #000000 #000000;
#X obj 1480 1100 t b b b b;
#X obj 1477 1069 bng 15 250 50 0 empty empty empty 17 7 0 10 #fcfcfc #000000 #000000;
#X obj 1560 1770 list;
#X obj 1660 1770 list;
#X obj 1390 1540 until;
#X obj 1390 1490 t f 1, f 11;
#X obj 1390 1590 f, f 8;
#X obj 1460 1589 + 1;
#X msg 1370 1410 25;
#X obj 1160 1410 table \$0-ascii2semi 200;
#X obj 1420 910 bng 15 250 50 0 empty empty empty 17 7 0 10 #fcfcfc #000000 #000000;
#X obj 2050 1310 tabwrite \$0-ascii2semi;
#X obj 2050 1170 until;
#X obj 2050 1214 f, f 13;
#X obj 2100 1170 + 1;
#X msg 2050 1090 200;
#X obj 1420 1370 list;
#X obj 1420 960 t b b b b;
#X text 2050 1060 clear lookup table;
#X text 1270 1210 0 2 3 5 7 8 10;
#X text 1250 1210 +;
#X obj 1420 870 loadbang;
#X text 1420 840 create ascii2semi lookup table;
#N canvas 150 187 558 519 asciilist2note 0;
#X obj 60 170 tabread \$0-ascii2semi;
#X obj 110 270 f, f 13;
#X msg 110 310 set \$1;
#X msg 40 360 193;
#X obj 240 230 +;
#X obj 50 80 t b l 0 0, f 34;
#X obj 13 26 inlet;
#X obj 13 430 outlet;
#X obj 60 130 bop.p.iter;
#X connect 0 0 4 0;
#X connect 1 0 2 0;
#X connect 1 0 4 1;
#X connect 2 0 3 0;
#X connect 3 0 7 0;
#X connect 4 0 1 0;
#X connect 5 0 3 0;
#X connect 5 1 8 0;
#X connect 5 2 1 1;
#X connect 5 3 4 1;
#X connect 6 0 5 0;
#X connect 8 0 0 0;
#X restore 420 780 pd asciilist2note;
#X obj 390 880 list store, f 25;
#X obj 540 830 bng 15 250 50 0 empty empty empty 17 7 0 10 #fcfcfc #000000 #000000;
#X obj 390 720 bng 15 250 50 0 empty empty empty 17 7 0 10 #fcfcfc #000000 #000000;
#X msg 420 830 append \$1;
#X obj 390 690 t b l b, f 25;
#X obj 380 1750 list store, f 38;
#X obj 390 960 list length;
#X obj 120 1400 %;
#X obj 390 920 t l l, f 36;
#X obj 120 1330 - 1;
#X msg 371 1696 get \$1 1;
#X text 52 1422 wrap incoming note requests;
#X obj 119 1253 t f b;
#X msg 833 214 \$1 127;
#X obj 1070 227 s \$0-to-note;
#X obj 1000 300 s \$0-to-notelist;
#X obj 159 1303 s \$0-flush;
#X obj 380 1840 s \$0-note-out;
#X obj 782 146 r \$0-flush;
#X obj 833 184 r \$0-note-out;
#X obj 783 281 pack f f;
#X text 1440 1860 tune A0 to note 33;
#X text 1270 1235 33 35 24 26 28 29 31;
#X msg 1520 1170 33 35 24 26 28 29 31;
#X msg 1500 1210 33 35 24 26 28 29 31;
#X text 421 1730 throwing negative range error on init;
#X obj 280 1400 random;
#X text 456 1588 sequence \, random \, chord;
#X obj 390 990 s \$0-notelist-length;
#X obj 130 1370 r \$0-notelist-length;
#X obj 310 1360 r \$0-notelist-length;
#X obj 280 1370 bng 15 250 50 0 empty empty empty 17 7 0 10 #fcfcfc #000000 #000000;
#X obj 460 1410 until;
#X obj 470 1320 r \$0-notelist-length;
#X obj 460 1350 f;
#X obj 460 1290 bng 15 250 50 0 empty empty empty 17 7 0 10 #fcfcfc #000000 #000000;
#X obj 460 1450 f, f 13;
#X obj 510 1420 + 1;
#X obj 1090 197 s \$0-to-mode;
#X obj 1000 210 route get;
#X obj 1000 250 bng 15 250 50 0 empty empty empty 17 7 0 10 #fcfcfc #000000 #000000;
#X obj 1000 336 r \$0-from-notelist;
#X obj 990 400 list prepend notelist;
#X obj 990 430 list trim;
#X obj 997 367 route get;
#X obj 1030 270 tosymbol;
#X obj 1010 150 route notelist note mode, f 33;
#X obj 300 21 declare -path ./bop.p;
#X msg 121 509 sequence random chord;
#X obj 121 487 loadbang;
#X obj 110 150 bop.p.number \$0 note;
#X obj 110 180 bop.p.number \$0 mode;
#X obj 110 201 bop.p.enum \$0 mode;
#X obj 121 532 s \$0-set-mode-enum;
#X listbox 110 135 24 0 0 2 notelist \$0-set-notelist \$0-get-notelist 10;
#X obj 375 606 r \$0-get-notelist;
#X obj 420 720 bop.p.iter;
#X obj 783 252 poly 8 1;
#X msg 781 188 stop;
#X obj 1560 1810 bop.p.nth;
#X obj 1660 1810 bop.p.nth;
#X obj 900 540 list;
#X obj 2002 1248 print;
#X obj 2050 1262 t b f;
#X msg 2141 1147 0;
#X obj 2050 1120 t f b, f 13;
#X msg 2061 1289 -1;
#X msg 1459 1534 1;
#X floatatom 1349 1494 5 0 0 0 - - - 0;
#X obj 1396 1329 bng 16 250 50 0 empty empty empty 0 -8 0 10 #fcfcfc #000000 #000000;
#X msg 400 640 list c4 c#4 d4 d#4 e4 f4 f#4 g4 g#4 a5 a#5 b5;
#X msg 150 1457 0 \$1;
#X msg 280 1445 1 \$1;
#X msg 450 1489 2 \$1;
#X obj 443 1548 r \$0-get-mode;
#X floatatom 443 1629 5 0 0 0 - - - 0;
#X obj 269 1051 s \$0-set-note;
#X msg 271 1022 range 0 \$1;
#X obj 270 994 - 1;
#X obj 831 324 print;
#X obj 286 1196 r \$0-get-note;
#X obj 372 1649 route 0;
#X floatatom 114 1216 5 0 0 0 - - - 0;
#X msg 550 1408 0;
#X obj 460 1380 t f b, f 13;
#X connect 1 0 5 0;
#X connect 2 0 6 0;
#X connect 3 0 7 0;
#X connect 4 0 8 0;
#X connect 4 0 118 0;
#X connect 10 0 18 0;
#X connect 11 0 133 0;
#X connect 12 0 133 0;
#X connect 13 0 133 0;
#X connect 14 0 133 0;
#X connect 16 0 39 1;
#X connect 19 0 39 0;
#X connect 21 0 45 0;
#X connect 23 0 40 0;
#X connect 25 0 71 0;
#X connect 33 0 42 1;
#X connect 34 0 43 0;
#X connect 36 0 51 0;
#X connect 36 1 132 1;
#X connect 37 0 50 0;
#X connect 37 1 131 1;
#X connect 38 0 37 0;
#X connect 38 1 36 0;
#X connect 39 0 45 1;
#X connect 40 0 51 1;
#X connect 41 0 53 0;
#X connect 41 0 140 0;
#X connect 42 0 44 1;
#X connect 43 0 50 1;
#X connect 43 0 64 1;
#X connect 44 0 43 1;
#X connect 45 0 40 1;
#X connect 46 0 23 0;
#X connect 46 1 21 0;
#X connect 46 2 19 0;
#X connect 46 3 16 0;
#X connect 47 0 46 0;
#X connect 48 0 34 0;
#X connect 48 1 96 0;
#X connect 48 2 95 0;
#X connect 48 3 33 0;
#X connect 49 0 48 0;
#X connect 50 0 131 0;
#X connect 51 0 132 0;
#X connect 52 0 54 0;
#X connect 53 0 52 0;
#X connect 53 1 139 0;
#X connect 54 0 55 0;
#X connect 54 0 38 0;
#X connect 55 0 54 1;
#X connect 58 0 65 0;
#X connect 60 0 61 0;
#X connect 61 0 62 0;
#X connect 61 0 134 0;
#X connect 61 0 135 0;
#X connect 62 0 61 1;
#X connect 63 0 137 0;
#X connect 64 0 41 0;
#X connect 65 0 64 0;
#X connect 65 1 49 0;
#X connect 65 2 47 0;
#X connect 65 3 63 0;
#X connect 69 0 58 0;
#X connect 71 0 75 0;
#X connect 72 0 80 0;
#X connect 73 0 72 1;
#X connect 74 0 72 0;
#X connect 75 0 72 0;
#X connect 76 0 74 0;
#X connect 76 1 128 0;
#X connect 76 2 73 0;
#X connect 77 0 89 0;
#X connect 78 0 100 0;
#X connect 78 0 150 0;
#X connect 79 0 143 0;
#X connect 80 0 78 0;
#X connect 80 1 77 1;
#X connect 81 0 79 0;
#X connect 82 0 77 0;
#X connect 84 0 81 0;
#X connect 84 1 88 0;
#X connect 85 0 129 0;
#X connect 90 0 130 0;
#X connect 91 0 85 0;
#X connect 92 0 7 0;
#X connect 92 0 151 0;
#X connect 95 0 42 0;
#X connect 96 0 44 0;
#X connect 98 0 144 0;
#X connect 101 0 79 1;
#X connect 102 0 98 1;
#X connect 103 0 98 0;
#X connect 104 0 108 0;
#X connect 105 0 106 1;
#X connect 106 0 156 0;
#X connect 107 0 106 0;
#X connect 108 0 109 0;
#X connect 108 0 145 0;
#X connect 109 0 108 1;
#X connect 111 0 112 0;
#X connect 111 1 117 0;
#X connect 112 0 87 0;
#X connect 113 0 116 0;
#X connect 114 0 115 0;
#X connect 115 0 8 0;
#X connect 116 1 114 0;
#X connect 117 0 87 0;
#X connect 118 0 111 0;
#X connect 118 1 86 0;
#X connect 118 2 110 0;
#X connect 120 0 125 0;
#X connect 121 0 120 0;
#X connect 127 0 76 0;
#X connect 128 0 25 0;
#X connect 129 1 92 0;
#X connect 129 2 92 1;
#X connect 130 0 129 0;
#X connect 131 0 35 0;
#X connect 132 0 35 1;
#X connect 133 0 10 0;
#X connect 135 0 138 0;
#X connect 135 1 59 1;
#X connect 136 0 61 1;
#X connect 137 0 60 0;
#X connect 137 1 136 0;
#X connect 138 0 59 0;
#X connect 139 0 54 1;
#X connect 141 0 64 0;
#X connect 142 0 76 0;
#X connect 143 0 153 0;
#X connect 144 0 153 0;
#X connect 145 0 153 0;
#X connect 146 0 147 0;
#X connect 147 0 153 1;
#X connect 149 0 148 0;
#X connect 150 0 149 0;
#X connect 152 0 84 0;
#X connect 152 0 107 0;
#X connect 152 0 103 0;
#X connect 153 0 82 0;
#X connect 154 0 84 0;
#X connect 155 0 108 1;
#X connect 156 0 104 0;
#X connect 156 1 155 0;
#X coords 0 -1 1 1 166 120 1 100 100;
