#N canvas 0 217 1235 707 12;
#X declare -path ./bop.p;
#X obj 85 148 inlet~, f 12;
#X obj 599 228 outlet;
#X obj 130 1246 outlet~;
#X text 66 1192 Signal out of left, f 9;
#X obj 849 428 bop.p.param \$0 dry-level 1;
#X obj 851 216 bop.p.param \$0 delay-level 0.75;
#X obj 851 96 bop.p.param \$0 delay-time 0.333;
#X obj 208 851 *~;
#X obj 206 737 r~ \$0-get-feedback;
#X obj 411 752 bob~, f 16;
#X obj 411 366 pow~ 2;
#X obj 520 665 r~ \$0-get-q;
#X obj 208 797 *~ 1.2;
#X obj 127 1161 +~, f 17;
#X obj 520 689 *~ 4;
#X obj 411 330 lop~ 0.5;
#X obj 82 191 s~ \$0-dry;
#X obj 124 1006 r~ \$0-dry;
#X obj 126 1114 *~;
#X obj 143 1039 r~ \$0-get-dry-level;
#X obj 412 1026 *~;
#X obj 436 941 r~ \$0-get-delay-level;
#X obj 434 982 pow~ 2;
#X obj 143 1063 pow~ 2;
#X obj 208 773 pow~ 2;
#X obj 411 302 r~ \$0-get-delay-time;
#X obj 207 919 delwrite~ \$0-delay 2500;
#X obj 411 468 delread4~ \$0-delay;
#X obj 248 884 r~ \$0-dry;
#X obj 474 633 r~ \$0-get-cutoff;
#X obj 852 152 bop.p.param \$0 feedback 0.5;
#X obj 849 375 bop.p.param \$0 q 0.3;
#X obj 851 315 bop.p.param \$0 cutoff 1000;
#X obj 411 394 *~ 1000;
#X obj 412 431 clip~ 0 2500;
#X msg 96 874 clear;
#X obj 411 604 expr~ tanh($v1) * 2;
#X obj 88 60 declare -path ./bop.p;
#X obj 599 192 bop.p.inout \$0 bop.delay~;
#X obj 600 155 inlet;
#X obj 96 850 r \$0-get-stop;
#X obj 173 194 s \$0-in;
#X obj 654 157 r \$0-in;
#X connect 0 0 16 0;
#X connect 0 1 41 0;
#X connect 7 0 26 0;
#X connect 8 0 24 0;
#X connect 9 0 20 0;
#X connect 9 0 7 1;
#X connect 10 0 33 0;
#X connect 11 0 14 0;
#X connect 12 0 7 0;
#X connect 13 0 2 0;
#X connect 14 0 9 2;
#X connect 15 0 10 0;
#X connect 17 0 18 0;
#X connect 18 0 13 0;
#X connect 19 0 23 0;
#X connect 20 0 13 1;
#X connect 21 0 22 0;
#X connect 22 0 20 1;
#X connect 23 0 18 1;
#X connect 24 0 12 0;
#X connect 25 0 15 0;
#X connect 27 0 36 0;
#X connect 28 0 26 0;
#X connect 29 0 9 1;
#X connect 33 0 34 0;
#X connect 34 0 27 0;
#X connect 35 0 26 0;
#X connect 36 0 9 0;
#X connect 38 0 1 0;
#X connect 39 0 38 0;
#X connect 40 0 35 0;
#X connect 42 0 38 0;
#X coords 0 707 1 706 166 230 0;
