#N canvas 0 37 735 891 12;
#X declare -path ./bop.p;
#X obj 43 105 inlet~, f 34;
#X obj 278 875 outlet;
#X text 278 912 MIDI and messages dump out of right, f 13;
#X obj 43 525 outlet~;
#X text 33 553 Signal out of left, f 9;
#X text 39 79 Signal \, MIDI \, and messages in left, f 36;
#X obj 820 120 bop.p.param \$0 velocity 0.75;
#X obj 820 150 bop.p.param \$0 duration 0.25;
#X obj 341 46 r \$0-stop;
#X obj 495 46 r \$0-params;
#X obj 418 46 r \$0-midi;
#X obj 596 45 r \$0-dump;
#X obj 591 478 bop.p.iter;
#X obj 591 682 makenote 100 500, f 33;
#X obj 705 568 r \$0-get-velocity;
#X obj 705 592 * 127;
#X obj 819 611 r \$0-get-duration;
#X obj 819 637 * 5000;
#X obj 592 725 pack, f 33;
#X obj 591 551 +;
#X obj 610 512 r \$0-get-root;
#X obj 495 288 t f b, f 25;
#X obj 618 609 r \$0-stop;
#X msg 618 633 stop;
#X obj 496 229 r \$0-get-semisteps;
#X obj 576 361 r \$0-get-hold;
#X obj 495 394 list prepend;
#X obj 495 428 route 1 0, f 28;
#X obj 341 504 bop.p.iter;
#X obj 341 687 poly 64 1, f 15;
#X obj 341 566 +;
#X obj 359 537 r \$0-get-root;
#X obj 443 613 r \$0-get-velocity;
#X obj 443 637 * 127;
#X obj 360 633 r \$0-stop;
#X obj 392 729 pack, f 8;
#X obj 702 270 r \$0-get-hold;
#X obj 702 294 sel 0;
#X text 604 451 hold off;
#X text 501 453 hold on;
#X msg 360 658 stop;
#X obj 820 60 bop.p.param \$0 root 42;
#X obj 820 90 bop.p.param \$0 hold 0;
#X obj 495 324 bop.p.steps2tones;
#X obj 667 326 s \$0-noteoff;
#X obj 600 584 r \$0-noteoff;
#X obj 352 606 r \$0-noteoff;
#X obj 820 30 bop.p.param \$0 semisteps;
#X obj 46 45 declare -path ./bop.p;
#X obj 278 199 bop.p.inout \$0 bop.semisteps;
#X connect 0 0 3 0;
#X connect 0 1 49 0;
#X connect 12 0 19 0;
#X connect 13 0 18 0;
#X connect 13 1 18 1;
#X connect 14 0 15 0;
#X connect 15 0 13 1;
#X connect 16 0 17 0;
#X connect 17 0 13 2;
#X connect 18 0 1 0;
#X connect 19 0 13 0;
#X connect 20 0 19 1;
#X connect 21 0 43 0;
#X connect 21 1 44 0;
#X connect 22 0 23 0;
#X connect 23 0 13 0;
#X connect 24 0 21 0;
#X connect 25 0 26 1;
#X connect 26 0 27 0;
#X connect 27 0 28 0;
#X connect 27 1 12 0;
#X connect 28 0 30 0;
#X connect 29 1 35 0;
#X connect 29 2 35 1;
#X connect 30 0 29 0;
#X connect 31 0 30 1;
#X connect 32 0 33 0;
#X connect 33 0 29 1;
#X connect 34 0 40 0;
#X connect 35 0 1 0;
#X connect 36 0 37 0;
#X connect 37 0 44 0;
#X connect 40 0 29 0;
#X connect 43 0 26 0;
#X connect 45 0 23 0;
#X connect 46 0 40 0;
#X connect 49 0 1 0;
#X coords 0 891 1 890 166 150 0;
