#N canvas 0 37 1133 891 12;
#X declare -path ./bop.p;
#X obj 43 105 inlet~, f 10;
#X obj 278 875 outlet;
#X text 278 912 MIDI and messages dump out of right, f 13;
#X obj 43 525 outlet~;
#X text 33 553 Signal out of left, f 9;
#X obj 820 120 bop.p.param \$0 velocity 0.75;
#X obj 820 150 bop.p.param \$0 duration 0.25;
#X obj 591 478 bop.p.iter;
#X obj 591 682 makenote 100 500, f 33;
#X obj 735 568 r \$0-get-velocity;
#X obj 735 592 * 127;
#X obj 819 611 r \$0-get-duration;
#X obj 819 637 * 5000;
#X obj 592 725 pack, f 33;
#X obj 591 551 +;
#X obj 610 512 r \$0-get-root;
#X obj 495 288 t f b, f 25;
#X msg 618 633 stop;
#X obj 496 229 r \$0-get-semisteps;
#X obj 576 361 r \$0-get-hold;
#X obj 495 394 list prepend;
#X obj 495 428 route 1 0, f 28;
#X obj 341 504 bop.p.iter;
#X obj 341 687 poly 64 1, f 15;
#X obj 341 566 +;
#X obj 359 537 r \$0-get-root;
#X obj 443 613 r \$0-get-velocity;
#X obj 443 637 * 127;
#X obj 360 633 r \$0-stop;
#X obj 392 729 pack, f 8;
#X obj 702 270 r \$0-get-hold;
#X obj 702 294 sel 0;
#X text 604 451 hold off;
#X text 501 453 hold on;
#X msg 360 658 stop;
#X obj 820 60 bop.p.param \$0 root 42;
#X obj 820 90 bop.p.param \$0 hold 0;
#X obj 495 324 bop.p.steps2tones;
#X obj 667 326 s \$0-noteoff;
#X obj 600 584 r \$0-noteoff;
#X obj 352 606 r \$0-noteoff;
#X obj 820 30 bop.p.param \$0 semisteps;
#X obj 46 45 declare -path ./bop.p;
#X obj 278 199 bop.p.inout \$0 bop.semisteps;
#X obj 282 140 inlet;
#X obj 618 609 r \$0-get-stop;
#X connect 0 0 3 0;
#X connect 7 0 14 0;
#X connect 8 0 13 0;
#X connect 8 1 13 1;
#X connect 9 0 10 0;
#X connect 10 0 8 1;
#X connect 11 0 12 0;
#X connect 12 0 8 2;
#X connect 13 0 1 0;
#X connect 14 0 8 0;
#X connect 15 0 14 1;
#X connect 16 0 37 0;
#X connect 16 1 38 0;
#X connect 17 0 8 0;
#X connect 18 0 16 0;
#X connect 19 0 20 1;
#X connect 20 0 21 0;
#X connect 21 0 22 0;
#X connect 21 1 7 0;
#X connect 22 0 24 0;
#X connect 23 1 29 0;
#X connect 23 2 29 1;
#X connect 24 0 23 0;
#X connect 25 0 24 1;
#X connect 26 0 27 0;
#X connect 27 0 23 1;
#X connect 28 0 34 0;
#X connect 29 0 1 0;
#X connect 30 0 31 0;
#X connect 31 0 38 0;
#X connect 34 0 23 0;
#X connect 37 0 20 0;
#X connect 39 0 17 0;
#X connect 40 0 34 0;
#X connect 43 0 1 0;
#X connect 44 0 43 0;
#X connect 45 0 17 0;
#X coords 0 891 1 890 166 150 0;
