#N canvas 253 117 842 724 12;
#X declare -path ./babs;
#X declare -path ./help;
#X obj 218 105 metro 100;
#X obj 222 569 tabwrite~ \$0-view;
#X obj 550 223 outlet;
#X obj 420 141 inlet~, f 19;
#X obj 420 224 outlet~;
#X obj 29 328 snapshot~;
#X obj 29 357 s \$0-set-signal;
#X obj 30 441 list;
#X obj 30 407 r \$0-params;
#X obj 30 613 s \$0-display-midi;
#X obj 30 475 s \$0-display-params;
#X obj 709 118 r \$0-get-print;
#X obj 670 160 spigot;
#X obj 670 184 print bop.scope~;
#X obj 443 185 s~ \$0-inlet;
#X obj 222 307 r~ \$0-inlet;
#X obj 30 258 r~ \$0-inlet;
#X obj 218 141 s \$0-update;
#X obj 236 530 r \$0-update;
#X obj 63 290 r \$0-update;
#X obj 222 408 wrap~;
#X obj 222 469 expr~ $v1 * 2 - 1;
#X obj 222 350 expr~ $v1 * 0.499999 + 0.499999;
#X obj 416 37 declare -path ./babs;
#X obj 220 48 loadbang;
#X msg 220 72 1;
#X obj 530 267 route list;
#X obj 574 305 s \$0-params;
#X obj 530 341 s \$0-midi;
#X obj 30 525 r \$0-midi;
#X obj 416 63 declare -path ./help;
#X obj 11 11 cnv 19 164 207 empty \$0-label bop.scope~ 5 12 0 12 #c7c6ff #404040 0;
#X obj 21 51 cnv 19 145 99 empty empty empty 24 12 0 12 #c6feff #404040 0;
#N canvas 266 303 450 278 (subpatch) 0;
#X array \$0-view 100 float 2;
#X coords 0 1 100 -1 146 100 1 0 0;
#X restore 20 49 graph;
#X obj 20 149 nbx 9 17 -1e+37 1e+37 0 0 empty \$0-set-signal signal 90 9 0 10 #c6feff #000000 #000000 0 256;
#X obj 20 28 cnv 19 146 20 empty empty empty 20 12 0 12 #c7c6ff #404040 0;
#X obj 147 20 tgl 19 0 \$0-get-print empty print -35 8 0 10 #e3c6ff #c6feff #000000 0 1;
#X obj 72 441 s \$0-display-msg;
#X obj 20 176 cnv 19 120 30 empty empty empty 20 12 0 12 #c6feff #404040 0;
#X listbox 20 176 20 0 0 1 msg \$0-display-params \$0-null 10;
#X listbox 20 191 20 0 0 1 midi \$0-display-midi \$0-nowhere 10;
#X obj 127 191 bng 15 250 200 0 \$0-nowhere \$0-display-midi empty 0 -10 0 12 #e3c6ff #c6feff #000000;
#X obj 127 176 bng 15 250 200 0 \$0-nowhere \$0-display-msg empty 0 -10 0 12 #e3c6ff #c6feff #000000;
#X connect 0 0 17 0;
#X connect 3 0 4 0;
#X connect 3 0 14 0;
#X connect 3 1 12 0;
#X connect 3 1 2 0;
#X connect 3 1 26 0;
#X connect 5 0 6 0;
#X connect 7 0 10 0;
#X connect 7 0 37 0;
#X connect 8 0 7 0;
#X connect 11 0 12 1;
#X connect 12 0 13 0;
#X connect 15 0 22 0;
#X connect 16 0 5 0;
#X connect 18 0 1 0;
#X connect 19 0 5 0;
#X connect 20 0 21 0;
#X connect 21 0 1 0;
#X connect 22 0 20 0;
#X connect 24 0 25 0;
#X connect 25 0 0 0;
#X connect 26 0 28 0;
#X connect 26 1 27 0;
#X connect 29 0 9 0;
#X coords 0 -1 1 1 166 210 1 10 10;
