#N canvas 2 353 740 564 12;
#X declare -path ./bop.p;
#X obj 543 130 savestate, f 17;
#X obj 542 103 bop.p.autosave \$0;
#X obj 389 220 inlet~, f 25;
#X obj 561 400 outlet;
#X text 561 437 MIDI and messages dump out of right, f 13;
#X obj 389 410 outlet~;
#X text 379 438 Signal out of left, f 9;
#X text 385 194 Signal \, MIDI \, and messages in left, f 36;
#X obj 561 314 bop.p.inout \$0;
#X obj 356 115 declare -path ./bop.p;
#X obj 428 284 r \$0-midi-in;
#X obj 427 362 s \$0-midi-out;
#X text 370 48 ---------- bop module template -------------;
#X obj 183 150 bop.p.toggle \$0 loop 1;
#X obj 183 120 bop.p.button \$0 open;
#N canvas 406 37 1061 888 seq 0;
#X obj 340 78 outlet~;
#X obj 339 -35 inlet~;
#X obj 675 -45 inlet;
#X obj 677 95 outlet;
#X obj 196 372 r \$0-get-open;
#X msg 196 401 click;
#X msg 254 894 line 0 \, auto;
#X msg 153 862 stop;
#X obj 153 938 text sequence \$0-seq -w -, f 36;
#X obj 442 969 r \$0-get-loop;
#X obj 403 1003 spigot;
#X obj 403 1034 s \$0-retrigger;
#X obj 266 860 r \$0-retrigger;
#X obj 153 1025 s \$0-out;
#X obj 697 43 r \$0-out;
#X obj 403 975 bng 19 250 50 0 empty empty empty 0 -10 0 12 #fcfcfc #000000 #000000;
#X obj 1072 7 r \$0-savestate;
#X obj 1072 126 s \$0-params;
#X obj 1071 97 list prepend sequence-list;
#X obj 1072 37 bng 19 250 50 0 empty empty empty 0 -10 0 12 #fcfcfc #000000 #000000;
#X obj 1073 289 text fromlist \$0-seq;
#X obj 1073 167 r \$0-params;
#X obj 1073 211 route sequence-list;
#X obj 1071 68 text tolist \$0-seq;
#X obj 1073 189 list trim;
#X obj 196 430 text define \$0-seq;
#X obj 1073 257 list;
#X text 998 -46 todo: external import/export of list;
#X text 999 -61 --- store text with bop.p.autosave ---;
#X text 1174 372 === \; // never return above here (brick wall header);
#X text 1169 424 dashes work like comments;
#X text 1168 456 === \; --- x 4 \; - 1 \; - 1 \; - 1 \; - 1 \; --- \; - 1 \; - 1 \; - 1 \; - 1 \; --- xx 2 \; - 1 \; - 1 \; - 1 \; - 1 \; --- \; - 1 \; - 1 \; --- xxx 8 \; - 1 \; - 1 \; --- \;, f 27;
#X obj 932 473 r \$0-get-dump;
#X obj 724 189 route bop.seq;
#X obj 255 827 r \$0-get-go;
#X obj 153 826 r \$0-get-stop;
#X obj 741 274 print IMPORTING;
#X text 745 312 specify another text by name or pointer, f 19;
#X obj 931 542 \$0;
#X obj 932 511 bng 19 250 50 0 empty empty empty 0 -10 0 12 #fcfcfc #000000 #000000;
#X obj 932 586 makefilename %i-seq;
#X obj 931 616 list prepend bop.seq;
#X listbox 929 639 20 0 0 0 - - - 0;
#X obj 927 665 list trim;
#X obj 930 701 s \$0-out;
#X obj 724 162 r \$0-params;
#X msg 742 369 symbol bop.seq 1218-seq;
#X msg 725 421 symbol bop.seq 1218-seq;
#X text 856 249 IMPORT NOT WORKING;
#X obj 581 449 text set \$0-seq;
#X text 800 558 export seems to work but is name right?;
#X obj 677 379 symbol;
#N canvas 62 124 1177 747 process 0;
#X obj 40 38 inlet;
#X obj 32 267 outlet;
#X obj 147 213 route === --- -;
#X text 145 179 handle commands;
#N canvas 121 158 450 300 process-rests 0;
#X obj 28 93 inlet;
#X obj 31 203 outlet;
#X connect 0 0 1 0;
#X restore 210 254 pd process-rests;
#N canvas 121 158 450 300 process-commands 0;
#X obj 28 93 inlet;
#X obj 31 203 outlet;
#X connect 0 0 1 0;
#X restore 178 283 pd process-commands;
#N canvas 121 158 450 300 process-header 0;
#X obj 28 93 inlet;
#X obj 31 203 outlet;
#X connect 0 0 1 0;
#X restore 144 312 pd process-header;
#X obj 43 144 list trim;
#X obj 363 38 inlet;
#X text 414 37 rests come in here \;;
#X listbox 363 88 20 0 0 0 - - - 0;
#X text 634 67 === \; // never return above here (brick wall header);
#X text 638 124 multi-dashes work like comments \; nested looping?;
#X text 642 628 working on.... transfering sequences...required?;
#X text 354 215 - 3000 // 300 ms \; - 4b // bars \; - b4 // a quater of a bar \;;
#X text 134 486 Fire scenes from numbox? --- scene 1 \;;
#X text 629 36 todos...;
#X text 643 579 tempo and specifying time in bpm/subdivision of a bar:, f 27;
#X text 139 520 Repeats --- x 1 \;;
#X text 139 543 End Repeats --- :| \;;
#X text 645 548 Nested repeats.. maybe --- xx 1 \;;
#X text 642 178 === \; --- scene 1 \; --- x 4 \; - 1 \; - 1 \; - 1 \; - 1 \; --- \; - 1 \; - 1 \; - 1 \; - 1 \; --- xx 2 \; - 1 \; - 1 \; - 1 \; - 1 \; --- \; - 1 \; - 1 \; --- xxx 8 \; - 1 \; - 1 \; --- \;, f 27;
#X text 356 306 - B 4 // four bars \; - b 4 // a quater of a bar \;;
#X text 360 353 --- beat one \; - B 0.75 // rest for 3 beats \; --- beat 4 \; - b 4 // rest for 1 beat \;;
#X text 365 278 or ... \;;
#X text 146 568 --- repeat 8 \; 64 127 \; - b 4 \; 64 0 \; - b 4 --- repeat end \;;
#X connect 0 0 7 0;
#X connect 2 0 6 0;
#X connect 2 1 5 0;
#X connect 2 2 4 0;
#X connect 7 0 1 0;
#X connect 7 0 2 0;
#X connect 8 0 10 0;
#X restore 153 979 pd process;
#X f 18;
#X msg 122 195 read;
#N canvas 63 100 720 782 getpath 0;
#X obj 69 29 inlet;
#X obj 64 675 outlet;
#X obj 64 386 openpanel;
#X obj 77 139 list;
#X obj 120 177 list length;
#X obj 76 167 t l l;
#X obj 76 247 list prepend;
#X obj 79 319 route 1;
#X obj 189 410 symbol;
#X obj 150 381 list split 2;
#X obj 64 617 list prepend read;
#X obj 64 641 list trim;
#X obj 64 465 file normalize;
#X obj 173 561 print invalid file path;
#X obj 159 497 sel 1 2;
#X msg 155 531 warning;
#X msg 219 531 error;
#X connect 0 0 3 0;
#X connect 2 0 12 0;
#X connect 3 0 5 0;
#X connect 4 0 6 1;
#X connect 5 0 6 0;
#X connect 5 1 4 0;
#X connect 6 0 7 0;
#X connect 7 0 2 0;
#X connect 7 1 9 0;
#X connect 8 0 12 0;
#X connect 9 1 8 0;
#X connect 10 0 11 0;
#X connect 11 0 1 0;
#X connect 12 0 10 0;
#X connect 12 1 14 0;
#X connect 14 0 15 0;
#X connect 14 1 16 0;
#X connect 15 0 13 0;
#X connect 16 0 13 0;
#X restore 116 373 pd getpath;
#X msg 128 229 read seq/demo001.bopseq;
#X text 299 368 open default editor;
#X text 165 195 open file dialog;
#X text 298 228 read file into text;
#X msg 145 293 read sequences/bop.seq-help1.bopseq;
#X msg 148 317 read sequences/bop.seq-help2.bopseq;
#X obj 38 82 r \$0-params;
#X obj 38 109 route read;
#X obj 38 136 list prepend read;
#X connect 1 0 0 0;
#X connect 2 0 3 0;
#X connect 4 0 5 0;
#X connect 5 0 25 0;
#X connect 6 0 8 0;
#X connect 7 0 8 0;
#X connect 8 0 52 0;
#X connect 8 1 52 1;
#X connect 8 2 15 0;
#X connect 9 0 10 1;
#X connect 10 0 11 0;
#X connect 12 0 6 0;
#X connect 14 0 3 0;
#X connect 15 0 10 0;
#X connect 16 0 19 0;
#X connect 18 0 17 0;
#X connect 19 0 23 0;
#X connect 21 0 24 0;
#X connect 22 0 26 0;
#X connect 23 0 18 0;
#X connect 24 0 22 0;
#X connect 26 0 20 0;
#X connect 32 0 39 0;
#X connect 33 0 36 0;
#X connect 33 0 51 0;
#X connect 34 0 6 0;
#X connect 35 0 7 0;
#X connect 38 0 40 0;
#X connect 39 0 38 0;
#X connect 40 0 41 0;
#X connect 41 0 42 0;
#X connect 42 0 43 0;
#X connect 43 0 44 0;
#X connect 45 0 33 0;
#X connect 46 0 49 3;
#X connect 47 0 49 3;
#X connect 51 0 49 3;
#X connect 52 0 13 0;
#X connect 53 0 54 0;
#X connect 54 0 25 0;
#X connect 55 0 54 0;
#X connect 59 0 54 0;
#X connect 60 0 54 0;
#X connect 61 0 62 0;
#X connect 62 0 63 0;
#X connect 63 0 54 0;
#X restore 389 321 pd seq;
#X obj 183 170 bop.p.button \$0 dump;
#X obj 110 170 bop.p.button \$0 stop;
#X obj 110 150 bop.p.button \$0 go;
#X connect 0 0 1 1;
#X connect 0 1 1 0;
#X connect 1 0 0 0;
#X connect 2 0 15 0;
#X connect 2 1 8 0;
#X connect 8 0 3 0;
#X connect 10 0 15 1;
#X connect 15 0 5 0;
#X connect 15 1 11 0;
#X coords 0 -1 1 1 166 100 1 100 100;
