#N canvas 23 221 1235 707 12;
#X declare -path ./babs;
#X obj 85 148 inlet~, f 12;
#X obj 599 228 outlet;
#X obj 130 1246 outlet~;
#X text 66 1192 Signal out of left, f 9;
#X obj 208 851 *~;
#X obj 206 737 r~ \$0-get-feedback;
#X obj 411 752 bob~, f 16;
#X obj 411 366 pow~ 2;
#X obj 520 665 r~ \$0-get-q;
#X obj 208 797 *~ 1.2;
#X obj 127 1161 +~, f 17;
#X obj 520 689 *~ 4;
#X obj 411 330 lop~ 0.5;
#X obj 82 191 s~ \$0-dry;
#X obj 124 1006 r~ \$0-dry;
#X obj 126 1114 *~;
#X obj 412 1026 *~;
#X obj 434 982 pow~ 2;
#X obj 143 1063 pow~ 2;
#X obj 208 773 pow~ 2;
#X obj 207 919 delwrite~ \$0-delay 2500;
#X obj 411 468 delread4~ \$0-delay;
#X obj 248 884 r~ \$0-dry;
#X obj 474 633 r~ \$0-get-cutoff;
#X obj 411 394 *~ 1000;
#X obj 412 431 clip~ 0 2500;
#X msg 96 874 clear;
#X obj 411 604 expr~ tanh($v1) * 2;
#X obj 88 60 declare -path ./babs;
#X obj 599 192 babs.inout \$0 bop.delay~;
#X obj 600 155 inlet;
#X obj 96 850 r \$0-get-stop;
#X obj 173 194 s \$0-in;
#X obj 654 157 r \$0-in;
#X obj 370 133 savestate;
#X obj 370 106 babs.savestate \$0;
#X obj 436 941 r~ \$0-get-wet;
#X obj 143 1039 r~ \$0-get-dry;
#X obj 849 428 babs.param \$0 dry 1;
#X obj 846 386 babs.param \$0 wet 0.75;
#X obj 843 348 babs.param.spacer \$0;
#X obj 845 310 babs.param \$0 q 0.3;
#X obj 847 272 babs.param \$0 cutoff 1000 10 20000;
#X obj 842 246 babs.param.spacer \$0;
#X obj 842 218 babs.param \$0 feedback 0.5;
#X obj 842 188 babs.param \$0 time 0.333 0 2.5;
#X obj 411 302 r~ \$0-get-time;
#X obj 316 827 hip~ 200;
#X connect 0 0 13 0;
#X connect 0 1 32 0;
#X connect 4 0 20 0;
#X connect 5 0 19 0;
#X connect 6 0 16 0;
#X connect 6 0 47 0;
#X connect 7 0 24 0;
#X connect 8 0 11 0;
#X connect 9 0 4 0;
#X connect 10 0 2 0;
#X connect 11 0 6 2;
#X connect 12 0 7 0;
#X connect 14 0 15 0;
#X connect 15 0 10 0;
#X connect 16 0 10 1;
#X connect 17 0 16 1;
#X connect 18 0 15 1;
#X connect 19 0 9 0;
#X connect 21 0 27 0;
#X connect 22 0 20 0;
#X connect 23 0 6 1;
#X connect 24 0 25 0;
#X connect 25 0 21 0;
#X connect 26 0 20 0;
#X connect 27 0 6 0;
#X connect 29 0 1 0;
#X connect 30 0 29 0;
#X connect 31 0 26 0;
#X connect 33 0 29 0;
#X connect 34 0 35 1;
#X connect 34 1 35 0;
#X connect 35 0 34 0;
#X connect 36 0 17 0;
#X connect 37 0 18 0;
#X connect 46 0 12 0;
#X connect 47 0 4 1;
#X coords 0 707 1 706 166 230 0;
