#N canvas 63 180 609 630 12;
#X declare -path ./bop.p;
#X obj 535 103 savestate, f 17;
#X obj 534 76 bop.p.autosave \$0;
#X obj 381 193 inlet~, f 34;
#X obj 616 373 outlet;
#X text 616 410 MIDI and messages dump out of right, f 13;
#X obj 381 383 outlet~;
#X text 371 411 Signal out of left, f 9;
#X text 377 167 Signal \, MIDI \, and messages in left, f 36;
#X obj 616 287 bop.p.inout \$0;
#X obj 348 88 declare -path ./bop.p;
#X obj 448 257 r \$0-midi-in;
#X obj 447 335 s \$0-midi-out;
#N canvas 0 37 1470 891 sampler 1;
#X obj 63 305 outlet~;
#X obj 62 82 inlet~;
#X obj 443 82 inlet;
#X obj 445 202 outlet;
#X obj 1059 73 loadbang;
#X obj 1059 207 s \$0-set-mode;
#X msg 1059 178 range 0 1;
#X obj 1071 146 s \$0-set-mode-enum;
#X obj 1246 534 bng 19 250 50 0 empty empty empty 0 -10 0 12 #fcfcfc #000000 #000000;
#X text 1462 1283 comment;
#X obj 1195 657 change;
#X obj 152 82 r \$0-to-clone;
#X obj 1339 188 s \$0-to-clone;
#X msg 1413 147 vis 2 \$1;
#X obj 1416 120 tgl 19 0 empty empty empty 0 -10 0 12 #fcfcfc #000000 #000000 0 1;
#X obj 1339 116 tgl 19 0 empty empty empty 0 -10 0 12 #fcfcfc #000000 #000000 0 1;
#X msg 1339 147 vis 1 \$1;
#X obj 1143 426 loadbang;
#N canvas 649 92 581 816 load-samples 0;
#X obj 101 32 inlet;
#X obj 140 284 file glob;
#X obj 141 250 makefilename %s/*.wav;
#X obj 161 155 text define samples;
#X msg 161 120 clear;
#X obj 140 317 list split 1;
#X obj 140 349 text set samples 1e+10;
#X obj 121 392 text size samples;
#X obj 121 431 - 1;
#X msg 121 492 range 0 \$1;
#X obj 121 520 s \$0-set-sample;
#X obj 121 463 max 0;
#X obj 101 83 t b b f b;
#X text 302 347 store paths to samples;
#X text 181 423 number of samples;
#X obj 98 632 text sequence samples;
#X obj 98 569 t b b, f 24;
#X msg 263 677 set 0;
#X msg 98 599 line 0 \, auto;
#X msg 98 661 next read \$1;
#X obj 333 533 outlet;
#X obj 141 208 text get folders;
#X text 267 205 get path to folder;
#X obj 98 706 outlet;
#X connect 0 0 12 0;
#X connect 1 0 5 0;
#X connect 2 0 1 0;
#X connect 4 0 3 0;
#X connect 5 0 6 0;
#X connect 7 0 8 0;
#X connect 7 0 20 0;
#X connect 8 0 11 0;
#X connect 9 0 10 0;
#X connect 11 0 9 0;
#X connect 12 0 16 0;
#X connect 12 1 7 0;
#X connect 12 2 21 0;
#X connect 12 3 4 0;
#X connect 15 0 19 0;
#X connect 16 0 18 0;
#X connect 16 1 17 0;
#X connect 17 0 23 0;
#X connect 18 0 15 0;
#X connect 19 0 23 0;
#X connect 21 0 2 0;
#X restore 1167 884 pd load-samples;
#X f 17;
#X obj 1283 944 s \$0-num-samples;
#X obj 310 784 r \$0-num-samples;
#X obj 301 818 %, f 6;
#X obj 459 113 s \$0-midi;
#X obj 211 482 r \$0-midi;
#X obj 301 871 pack, f 26;
#X text 354 815 wrap notes;
#X obj 1283 914 min 16;
#X obj 211 1211 s \$0-to-clone;
#X obj 1144 509 t b b b, f 15;
#X msg 1195 569 set -1;
#X obj 1144 714 f;
#X obj 1223 625 int;
#X text 1075 399 ---------- SAMPLE LOADING ------------;
#X text 350 392 ---------- MIDI HANDLING ------------;
#X text 974 26 ---------- GUI INIT ------------;
#X text 1274 21 ---------- DEBUG ------------;
#N canvas 310 105 454 722 load-folders 0;
#X obj 32 18 inlet;
#X obj 102 347 file glob;
#X obj 104 260 pdcontrol;
#X msg 104 228 dir;
#X obj 103 304 makefilename %s/samples/*/;
#X msg 125 136 clear;
#X obj 104 382 list split 1;
#X obj 108 866 - 1;
#X msg 109 895 range 0 \$1;
#X text 144 864 number of banks;
#X text 123 410 store paths to banks;
#X obj 32 85 t b b b b b, f 14;
#X obj 76 776 bop.p.accum, f 25;
#X obj 76 510 t b b b, f 25;
#X obj 111 570 bop.p.iter;
#X obj 111 603 sel \\\;;
#X obj 112 635 file split;
#X obj 145 693 list length;
#X obj 113 663 t l l;
#X obj 113 747 bop.p.nth;
#X obj 145 717 - 1;
#X obj 109 835 list length;
#X obj 76 806 t l l;
#X obj 127 168 text define folders;
#X obj 104 433 text set folders 1e+10;
#X obj 101 540 text tolist folders;
#X obj 109 926 s \$0-set-folder;
#X obj 74 999 s \$0-set-folder-enum;
#X text 88 974 names of folders;
#X connect 0 0 11 0;
#X connect 1 0 6 0;
#X connect 2 0 4 0;
#X connect 3 0 2 0;
#X connect 4 0 1 0;
#X connect 5 0 23 0;
#X connect 6 0 24 0;
#X connect 7 0 8 0;
#X connect 8 0 26 0;
#X connect 11 2 13 0;
#X connect 11 3 3 0;
#X connect 11 4 5 0;
#X connect 12 0 22 0;
#X connect 13 0 12 0;
#X connect 13 1 25 0;
#X connect 13 2 12 1;
#X connect 14 0 15 0;
#X connect 15 1 16 0;
#X connect 16 0 18 0;
#X connect 17 0 20 0;
#X connect 18 0 19 0;
#X connect 18 1 17 0;
#X connect 19 0 12 0;
#X connect 20 0 19 1;
#X connect 21 0 7 0;
#X connect 22 0 27 0;
#X connect 22 1 21 0;
#X connect 25 0 14 0;
#X restore 1246 569 pd load-folders;
#X f 17;
#X obj 1223 600 r \$0-get-folder;
#X obj 184 228 r~ \$0-get-gain;
#X obj 152 259 *~, f 5;
#X obj 250 590 r \$0-get-mode;
#X obj 250 614 == 1;
#X obj 211 646 spigot;
#X obj 787 831 r \$0-get-sample;
#X obj 787 865 int;
#X obj 787 889 change;
#X msg 1079 107 list repitch keymap;
#X text 233 454 keymap mode;
#X obj 301 997 list append;
#X obj 374 961 r \$0-get-root;
#X obj 37 640 r \$0-get-sample;
#X obj 37 666 int;
#X obj 19 697 +;
#X text 68 671 todo \; offset sample \; requires poly to keep track of note offs, f 15;
#X obj 713 923 list append;
#X obj 1167 997 clone bop.p.sampler-loader 16 \$0;
#X obj 1167 1027 text define \$0-sample-info;
#X obj 1144 767 t b f b;
#X obj 1190 822 text delete \$0-sample-info, f 16;
#X obj 1144 484 bng 19 250 50 0 empty empty empty 0 -10 0 12 #fcfcfc #000000 #000000;
#X msg 1190 796 -1;
#X obj 1195 921 tgl 19 0 empty empty empty 0 -10 0 12 #fcfcfc #000000 #000000 0 1;
#X msg 1195 952 vis 1 \$1;
#X text 311 910 sample velocity;
#X text 312 1033 sample velocity pitch;
#X obj 211 545 pack f f f;
#X obj 211 514 poly 4 1;
#X text 310 541 target \, pitch \, velocity;
#X obj 211 683 unpack f f f, f 26;
#X obj 211 1133 list append;
#X msg 211 1171 \$1 play \$2 \$3 \$4;
#X obj 211 999 - 1;
#X text 314 1102 pitch velocity sample;
#X msg 301 1075 \$3 \$2 \$1;
#X text 634 1110 [target] play [pitch] [velocity] [sample];
#X obj 640 410 r \$0-midi;
#X obj 679 515 r \$0-get-mode;
#X obj 640 574 spigot;
#X obj 640 473 pack f f f;
#X text 739 469 target \, pitch \, velocity;
#X obj 679 542 == 0;
#X text 662 381 repitch mode;
#X obj 638 603 unpack f f f, f 29;
#X obj 713 758 pack, f 23;
#X obj 638 991 list append;
#X text 726 988 target pitch velocity sample;
#X obj 638 1078 s \$0-to-clone;
#X msg 638 1038 \$1 play \$2 \$3 \$4;
#X obj 637 779 - 1;
#X obj 1271 115 tgl 19 0 empty empty empty 0 -10 0 12 #fcfcfc #000000 #000000 0 1;
#X msg 1271 147 vis 0 \$1;
#X listbox 597 1160 20 0 0 0 - - - 0;
#X obj 150 157 clone bop.p.sampler-voice 4 \$0, f 33;
#X obj 637 441 poly 4 1;
#X obj 1143 451 delay 100;
#X connect 1 0 0 0;
#X connect 2 0 3 0;
#X connect 2 0 22 0;
#X connect 4 0 6 0;
#X connect 4 0 46 0;
#X connect 6 0 5 0;
#X connect 8 0 36 0;
#X connect 10 0 30 0;
#X connect 11 0 92 0;
#X connect 13 0 12 0;
#X connect 14 0 13 0;
#X connect 15 0 16 0;
#X connect 16 0 12 0;
#X connect 17 0 94 0;
#X connect 18 0 55 0;
#X connect 18 1 26 0;
#X connect 20 0 21 1;
#X connect 21 0 24 0;
#X connect 23 0 66 0;
#X connect 24 0 48 0;
#X connect 26 0 19 0;
#X connect 28 0 30 0;
#X connect 28 1 29 0;
#X connect 28 2 8 0;
#X connect 29 0 10 0;
#X connect 30 0 57 0;
#X connect 31 0 10 0;
#X connect 37 0 31 0;
#X connect 38 0 39 1;
#X connect 39 0 0 0;
#X connect 40 0 41 0;
#X connect 41 0 42 1;
#X connect 42 0 68 0;
#X connect 43 0 44 0;
#X connect 44 0 45 0;
#X connect 45 0 54 1;
#X connect 46 0 7 0;
#X connect 48 0 73 0;
#X connect 49 0 48 1;
#X connect 50 0 51 0;
#X connect 51 0 52 1;
#X connect 54 0 84 1;
#X connect 57 1 18 0;
#X connect 57 2 60 0;
#X connect 59 0 28 0;
#X connect 60 0 58 0;
#X connect 61 0 62 0;
#X connect 62 0 55 0;
#X connect 65 0 42 0;
#X connect 66 0 65 0;
#X connect 66 1 65 1;
#X connect 66 2 65 2;
#X connect 68 0 71 0;
#X connect 68 1 21 0;
#X connect 68 2 24 1;
#X connect 69 0 70 0;
#X connect 70 0 27 0;
#X connect 71 0 69 0;
#X connect 73 0 69 1;
#X connect 75 0 93 0;
#X connect 76 0 80 0;
#X connect 77 0 82 0;
#X connect 78 0 77 0;
#X connect 80 0 77 1;
#X connect 82 0 88 0;
#X connect 82 1 83 0;
#X connect 82 2 83 1;
#X connect 83 0 54 0;
#X connect 84 0 87 0;
#X connect 87 0 86 0;
#X connect 87 0 91 0;
#X connect 88 0 84 0;
#X connect 89 0 90 0;
#X connect 90 0 12 0;
#X connect 92 0 39 0;
#X connect 93 0 78 0;
#X connect 93 1 78 1;
#X connect 93 2 78 2;
#X connect 94 0 59 0;
#X restore 381 294 pd sampler;
#X obj 110 420 bop.p.param \$0 gain 1;
#X obj 110 180 bop.p.number \$0 mode 0;
#X obj 110 200 bop.p.enum \$0 mode;
#X obj 110 220 bop.p.number \$0 sample 0;
#X obj 110 130 bop.p.number \$0 folder 0;
#X obj 110 150 bop.p.enum \$0 folder;
#X obj 183 300 bop.p.toggle \$0 loop 0;
#X obj 110 320 bop.p.param \$0 loop-start 0;
#X obj 110 340 bop.p.param \$0 loop-length 1;
#X obj 110 250 bop.p.number \$0 tune 0;
#X obj 110 370 bop.p.param \$0 fade-in 0.1;
#X obj 110 390 bop.p.param \$0 fade-out 0.1;
#X obj 110 270 bop.p.number \$0 root 42;
#X connect 0 0 1 1;
#X connect 0 1 1 0;
#X connect 1 0 0 0;
#X connect 2 0 12 0;
#X connect 2 1 8 0;
#X connect 8 0 3 0;
#X connect 10 0 12 1;
#X connect 12 0 5 0;
#X connect 12 1 11 0;
#X coords 0 -1 1 1 166 350 1 100 100;
