#N canvas 329 230 482 564 12;
#X obj 34 119 bop.synth~;
#A saved mono 0;
#A saved osc-2-tune 11.9;
#A saved osc-1-tune 0;
#A saved osc-2-gain 1;
#A saved osc-2-pulsewidth 0;
#A saved osc-2-wave 2;
#A saved osc-1-gain 1;
#A saved osc-1-pulsewidth 0.0408741;
#A saved osc-1-wave 3;
#A saved noise 0.521429;
#A saved gain 1;
#A saved cutoff 3444.11;
#A saved q 0.178571;
#A saved slide 0.0642857;
#A saved r 0.128571;
#A saved s 0.292857;
#A saved d 0.221429;
#A saved a 0.0285714;
#X obj 34 14 tgl 19 0 empty empty empty 0 -10 0 12 #fcfcfc #000000 #000000 0 1;
#N canvas 335 65 915 825 generate 0;
#X obj 117 18 inlet;
#X obj 259 758 outlet;
#X obj 116 139 bng 19 250 50 0 empty empty empty 0 -10 0 12 #fcfcfc #000000 #000000;
#X obj 100 598 bop.intermal;
#A saved root 52;
#A saved intermal -3.3434;
#A saved duration 0.135714;
#A saved velocity 0.942857;
#X obj 553 280 tgl 19 0 empty empty empty 0 -10 0 12 #fcfcfc #000000 #000000 0 1;
#X obj 354 517 loadbang;
#X msg 354 541 level 1;
#X obj 116 115 metro 400;
#X obj 136 322 sel 0 1;
#X msg 136 365 0.4343;
#X msg 197 365 -3.3434;
#X obj 108 489 f;
#X msg 102 526 intermal \$1;
#X obj 136 221 ./bop.p/bop.p.counter;
#X obj 136 269 sel 0;
#X obj 136 293 tgl 19 0 empty empty empty 0 -10 0 12 #fcfcfc #000000 #000000 0 1;
#X obj 136 245 % 16;
#X floatatom 186 245 5 0 0 0 - - - 0;
#X obj 553 256 metro 10000;
#X msg 548 384 cutoff \$1 10000;
#X obj 339 261 ./bop.p/bop.p.counter;
#X obj 339 309 sel 0;
#X obj 339 333 tgl 19 0 empty empty empty 0 -10 0 12 #fcfcfc #000000 #000000 0 1;
#X obj 339 285 % 20;
#X msg 339 367 osc-1-pulsewidth \$1 8000;
#X text 583 877 you have lovely eyes \\\;), f 25;
#X obj 553 304 ./bop.p/bop.p.scale 0 1 350 5000;
#X connect 0 0 7 0;
#X connect 0 0 18 0;
#X connect 2 0 11 0;
#X connect 2 0 13 0;
#X connect 2 0 20 0;
#X connect 3 1 1 0;
#X connect 4 0 26 0;
#X connect 5 0 6 0;
#X connect 6 0 3 0;
#X connect 7 0 2 0;
#X connect 8 0 9 0;
#X connect 8 1 10 0;
#X connect 9 0 11 1;
#X connect 10 0 11 1;
#X connect 11 0 12 0;
#X connect 12 0 3 0;
#X connect 13 0 16 0;
#X connect 13 0 17 0;
#X connect 14 0 15 0;
#X connect 15 0 8 0;
#X connect 16 0 14 0;
#X connect 18 0 4 0;
#X connect 19 0 3 0;
#X connect 20 0 23 0;
#X connect 21 0 22 0;
#X connect 22 0 24 0;
#X connect 23 0 21 0;
#X connect 24 0 3 0;
#X connect 26 0 19 0;
#X restore 34 57 pd generate;
#X obj 34 434 output~;
#X msg 121 57 stop;
#X connect 0 0 3 0;
#X connect 0 1 3 0;
#X connect 1 0 2 0;
#X connect 2 0 0 0;
#X connect 4 0 0 0;
#X coords 0 564 1 563 288 60 0;
