#N canvas 253 117 842 724 12;
#X declare -path ./babs;
#X declare -path ./help;
#X obj 218 105 metro 100;
#X obj 222 569 tabwrite~ \$0-view;
#X obj 550 223 outlet;
#X obj 420 141 inlet~, f 19;
#X obj 420 224 outlet~;
#X obj 21 51 cnv 19 145 99 empty empty empty 24 12 0 12 #c6feff #404040 0;
#N canvas 266 303 450 278 (subpatch) 0;
#X array \$0-view 100 float 2;
#X coords 0 1 100 -1 146 100 1 0 0;
#X restore 20 49 graph;
#X obj 29 328 snapshot~;
#X obj 29 357 s \$0-set-signal;
#X listbox 20 176 20 0 0 1 msg \$0-display-params \$0-null 10;
#X obj 30 441 list;
#X listbox 20 191 19 0 0 1 midi \$0-display-midi \$0-null 10;
#X obj 30 407 r \$0-params;
#X obj 30 613 s \$0-display-midi;
#X obj 30 475 s \$0-display-params;
#X obj 709 118 r \$0-get-print;
#X obj 670 160 spigot;
#X obj 670 184 print bop.scope~;
#X obj 443 185 s~ \$0-inlet;
#X obj 222 307 r~ \$0-inlet;
#X obj 30 258 r~ \$0-inlet;
#X obj 218 141 s \$0-update;
#X obj 236 530 r \$0-update;
#X obj 63 290 r \$0-update;
#X obj 222 408 wrap~;
#X obj 222 469 expr~ $v1 * 2 - 1;
#X obj 222 350 expr~ $v1 * 0.499999 + 0.499999;
#X obj 20 149 nbx 9 17 -1e+37 1e+37 0 0 empty \$0-set-signal signal 90 9 0 10 #fcfcfc #000000 #000000 0 256;
#X obj 416 37 declare -path ./babs;
#X obj 20 28 cnv 19 146 20 empty empty empty 20 12 0 12 #ffffff #404040 0;
#X obj 147 30 tgl 19 0 \$0-get-print empty print -40 8 0 12 #e3c6ff #c6feff #000000 0 1;
#X obj 220 48 loadbang;
#X msg 220 72 1;
#X obj 530 267 route list;
#X obj 574 305 s \$0-params;
#X obj 530 341 s \$0-midi;
#X obj 30 525 r \$0-midi;
#X obj 416 63 declare -path ./help;
#X connect 0 0 21 0;
#X connect 3 0 4 0;
#X connect 3 0 18 0;
#X connect 3 1 16 0;
#X connect 3 1 2 0;
#X connect 3 1 33 0;
#X connect 7 0 8 0;
#X connect 10 0 14 0;
#X connect 12 0 10 0;
#X connect 15 0 16 1;
#X connect 16 0 17 0;
#X connect 19 0 26 0;
#X connect 20 0 7 0;
#X connect 22 0 1 0;
#X connect 23 0 7 0;
#X connect 24 0 25 0;
#X connect 25 0 1 0;
#X connect 26 0 24 0;
#X connect 31 0 32 0;
#X connect 32 0 0 0;
#X connect 33 0 35 0;
#X connect 33 1 34 0;
#X connect 36 0 13 0;
#X coords 0 -1 1 1 166 210 1 10 10;
