#N canvas 0 37 1470 891 12;
#X declare -path ./babs;
#X obj 79 151 inlet~, f 9;
#X obj 259 319 outlet;
#X obj 79 801 outlet~;
#X obj 188 481 route 1 2 3 4;
#X obj 314 411 r \$0-get-mono;
#X obj 185 441 babs.monopoly \$0 4;
#X obj 97 674 hip~ 5;
#X obj 79 728 +~;
#X obj 187 396 r \$0-midi;
#X obj 274 281 r \$0-out;
#X obj 46 66 declare -path ./babs;
#X obj 188 520 sub/synth~/voice \$0;
#X obj 198 550 sub/synth~/voice \$0;
#X obj 208 579 sub/synth~/voice \$0;
#X obj 218 608 sub/synth~/voice \$0;
#X obj 259 233 babs.inout \$0 bop.synth~;
#X obj 259 172 inlet;
#X obj 123 194 s \$0-in;
#X obj 315 173 r \$0-in;
#X obj 250 93 savestate;
#X obj 250 66 babs.savestate \$0;
#X obj 568 1088 babs.param \$0 gain 1;
#X obj 516 1045 babs.param.spacer \$0;
#X obj 549 993 babs.param \$0 release 0.2;
#X obj 540 951 babs.param \$0 sustain 0.7;
#X obj 537 913 babs.param \$0 decay 0.3;
#X obj 531 881 babs.param \$0 attack 0.1;
#X obj 503 845 babs.param.spacer \$0;
#X obj 531 809 babs.param \$0 slide 0;
#X obj 529 775 babs.param \$0 mono 0 1;
#X obj 461 736 babs.param.spacer \$0;
#X obj 534 688 babs.param \$0 q 0.5;
#X obj 532 656 babs.param \$0 cutoff 2600 0 20000;
#X obj 466 607 babs.param.spacer \$0;
#X obj 532 554 babs.param \$0 noise 0;
#X obj 477 498 babs.param.spacer \$0;
#X obj 520 440 babs.param \$0 osc2-gain 1;
#X obj 521 400 babs.param \$0 osc2-pulsewidth 0.5;
#X obj 515 364 babs.param \$0 osc2-tune 0 -100 100;
#X obj 513 338 babs.param.enum \$0 osc2-wave sine triangle saw pulse;
#X obj 513 301 babs.param \$0 osc2-wave 3 0 3;
#X obj 460 242 babs.param.spacer \$0;
#X obj 529 193 babs.param \$0 osc1-gain 1;
#X obj 528 157 babs.param \$0 osc1-pulsewidth 0.5;
#X obj 526 107 babs.param \$0 osc1-tune 0 -100 100;
#X obj 526 73 babs.param.enum \$0 osc1-wave sine triangle saw pulse;
#X obj 530 30 babs.param \$0 osc1-wave 1 0 3;
#X connect 0 0 7 0;
#X connect 0 1 17 0;
#X connect 3 0 11 0;
#X connect 3 1 12 0;
#X connect 3 2 13 0;
#X connect 3 3 14 0;
#X connect 4 0 5 1;
#X connect 5 0 3 0;
#X connect 6 0 7 1;
#X connect 7 0 2 0;
#X connect 8 0 5 0;
#X connect 9 0 1 0;
#X connect 11 0 6 0;
#X connect 12 0 6 0;
#X connect 13 0 6 0;
#X connect 14 0 6 0;
#X connect 15 0 1 0;
#X connect 16 0 15 0;
#X connect 18 0 15 0;
#X connect 19 0 20 1;
#X connect 19 1 20 0;
#X connect 20 0 19 0;
#X coords 0 891 1 890 322 280 0;
