#N canvas 9 37 608 332 12;
#X declare -path ./bop.p;
#X obj 535 103 savestate, f 17;
#X obj 534 76 bop.p.autosave \$0;
#X obj 381 193 inlet~, f 34;
#X obj 616 373 outlet;
#X text 616 410 MIDI and messages dump out of right, f 13;
#X obj 381 383 outlet~;
#X text 371 411 Signal out of left, f 9;
#X text 377 167 Signal \, MIDI \, and messages in left, f 36;
#X obj 616 287 bop.p.inout \$0;
#X obj 348 88 declare -path ./bop.p;
#X obj 448 257 r \$0-midi-in;
#X obj 447 335 s \$0-midi-out;
#X text 438 477 (Standard GOP width: 166);
#X text 362 21 ---------- bop module template -------------;
#N canvas 531 279 815 604 sampler 0;
#X obj 63 565 outlet~;
#X obj 62 82 inlet~;
#X obj 443 82 inlet;
#X obj 445 202 outlet;
#X obj 687 57 loadbang;
#X obj 687 191 s \$0-set-mode;
#X msg 687 162 range 0 1;
#X obj 699 130 s \$0-set-mode-enum;
#X msg 699 86 list note-to-pitch note-to-sample, f 18;
#X obj 764 291 bng 19 250 50 0 empty empty empty 0 -10 0 12 #fcfcfc #000000 #000000;
#X obj 583 371 r \$0-get-bank;
#X text 872 933 comment;
#X obj 584 400 change;
#X obj 584 432 f;
#X obj 637 400 bng 19 250 50 0 empty empty empty 0 -10 0 12 #fcfcfc #000000 #000000;
#X obj 92 452 r \$0-to-clone;
#X msg 702 400 1;
#X msg 668 400 0;
#X obj 92 485 clone bop.p.sampler-voice 16 \$0;
#X obj 577 309 s \$0-to-clone;
#X msg 651 268 vis 2 \$1;
#X obj 651 241 tgl 19 0 empty empty empty 0 -10 0 12 #fcfcfc #000000 #000000 0 1;
#X obj 577 237 tgl 19 0 empty empty empty 0 -10 0 12 #fcfcfc #000000 #000000 0 1;
#X msg 577 268 vis 1 \$1;
#X obj 765 259 loadbang;
#N canvas 310 105 454 722 load-banks 0;
#X obj 32 18 inlet;
#X obj 102 347 file glob;
#X obj 104 260 pdcontrol;
#X msg 104 228 dir;
#X obj 103 304 makefilename %s/samples/*/;
#X obj 127 168 text define banks;
#X msg 125 136 clear;
#X obj 104 434 text set banks 1e+10;
#X obj 104 382 list split 1;
#X obj 108 866 - 1;
#X msg 109 895 range 0 \$1;
#X obj 109 926 s \$0-set-bank;
#X text 144 864 number of banks;
#X text 123 410 store paths to banks;
#X obj 32 85 t b b b b b, f 14;
#X obj 101 540 text tolist banks;
#X obj 76 776 bop.p.accum, f 25;
#X obj 76 510 t b b b, f 25;
#X obj 111 570 bop.p.iter;
#X obj 111 603 sel \\\;;
#X obj 112 635 file split;
#X obj 145 693 list length;
#X obj 113 663 t l l;
#X obj 113 747 bop.p.nth;
#X obj 145 717 - 1;
#X obj 109 835 list length;
#X obj 76 806 t l l;
#X text 89 975 names of banks;
#X obj 76 1001 s \$0-set-bank-enum;
#X connect 0 0 14 0;
#X connect 1 0 8 0;
#X connect 2 0 4 0;
#X connect 3 0 2 0;
#X connect 4 0 1 0;
#X connect 6 0 5 0;
#X connect 8 0 7 0;
#X connect 9 0 10 0;
#X connect 10 0 11 0;
#X connect 14 2 17 0;
#X connect 14 3 3 0;
#X connect 14 4 6 0;
#X connect 15 0 18 0;
#X connect 16 0 26 0;
#X connect 17 0 16 0;
#X connect 17 1 15 0;
#X connect 17 2 16 1;
#X connect 18 0 19 0;
#X connect 19 1 20 0;
#X connect 20 0 22 0;
#X connect 21 0 24 0;
#X connect 22 0 23 0;
#X connect 22 1 21 0;
#X connect 23 0 16 0;
#X connect 24 0 23 1;
#X connect 25 0 9 0;
#X connect 26 0 28 0;
#X connect 26 1 25 0;
#X restore 764 326 pd load-banks;
#N canvas 543 65 531 784 load-samples 0;
#X obj 101 32 inlet;
#X obj 141 208 text get banks;
#X text 250 206 get path to bank;
#X obj 140 284 file glob;
#X obj 141 250 makefilename %s/*.wav;
#X obj 161 155 text define samples;
#X msg 161 120 clear;
#X obj 140 317 list split 1;
#X obj 140 349 text set samples 1e+10;
#X obj 121 392 text size samples;
#X obj 121 431 - 1;
#X msg 121 492 range 0 \$1;
#X obj 121 520 s \$0-set-sample;
#X obj 121 463 max 0;
#X obj 101 83 t b b f b;
#X text 302 347 store paths to samples;
#X text 181 423 number of samples;
#X obj 98 632 text sequence samples;
#X obj 98 569 t b b, f 24;
#X msg 263 677 set 0;
#X msg 98 599 line 0 \, auto;
#X obj 98 715 s \$0-to-clone;
#X msg 98 661 next read \$1;
#X obj 333 533 outlet;
#X connect 0 0 14 0;
#X connect 1 0 4 0;
#X connect 3 0 7 0;
#X connect 4 0 3 0;
#X connect 6 0 5 0;
#X connect 7 0 8 0;
#X connect 9 0 10 0;
#X connect 9 0 23 0;
#X connect 10 0 13 0;
#X connect 11 0 12 0;
#X connect 13 0 11 0;
#X connect 14 0 18 0;
#X connect 14 1 9 0;
#X connect 14 2 1 0;
#X connect 14 3 6 0;
#X connect 17 0 22 0;
#X connect 18 0 20 0;
#X connect 18 1 19 0;
#X connect 19 0 21 0;
#X connect 20 0 17 0;
#X connect 22 0 21 0;
#X restore 584 480 pd load-samples;
#X obj 320 292 tgl 19 0 empty empty empty 0 -10 0 12 #fcfcfc #000000 #000000 0 1;
#X msg 320 317 1 play \$1;
#X obj 584 534 s \$0-num-samples;
#X obj 175 202 r \$0-num-samples;
#X obj 157 256 %;
#X obj 459 113 s \$0-midi;
#X obj 157 170 unpack, f 20;
#X obj 157 130 r \$0-midi;
#X obj 157 289 pack, f 20;
#X text 185 257 wrap notes;
#X obj 584 508 min 16;
#X msg 157 324 \$1 play \$2;
#X obj 157 353 s \$0-to-clone;
#X obj 298 242 > 0;
#X connect 1 0 0 0;
#X connect 2 0 3 0;
#X connect 2 0 32 0;
#X connect 4 0 6 0;
#X connect 4 0 8 0;
#X connect 6 0 5 0;
#X connect 8 0 7 0;
#X connect 9 0 25 0;
#X connect 10 0 12 0;
#X connect 12 0 13 0;
#X connect 13 0 26 0;
#X connect 14 0 13 0;
#X connect 15 0 18 0;
#X connect 16 0 13 0;
#X connect 17 0 13 0;
#X connect 18 0 0 0;
#X connect 20 0 19 0;
#X connect 21 0 20 0;
#X connect 22 0 23 0;
#X connect 23 0 19 0;
#X connect 24 0 9 0;
#X connect 26 0 37 0;
#X connect 27 0 28 0;
#X connect 28 0 39 0;
#X connect 30 0 31 1;
#X connect 31 0 35 0;
#X connect 33 0 31 0;
#X connect 33 1 40 0;
#X connect 34 0 33 0;
#X connect 35 0 38 0;
#X connect 37 0 29 0;
#X connect 38 0 39 0;
#X connect 40 0 35 1;
#X restore 381 294 pd sampler;
#X obj 110 250 bop.p.param \$0 gain 1;
#X obj 110 130 bop.p.number \$0 bank 0;
#X obj 110 200 bop.p.number \$0 mode 0;
#X obj 110 220 bop.p.enum \$0 mode;
#X obj 110 170 bop.p.number \$0 sample 0;
#X obj 110 150 bop.p.enum \$0 bank;
#X connect 0 0 1 1;
#X connect 0 1 1 0;
#X connect 1 0 0 0;
#X connect 2 0 14 0;
#X connect 2 1 8 0;
#X connect 8 0 3 0;
#X connect 10 0 14 1;
#X connect 14 0 5 0;
#X connect 14 1 11 0;
#X coords 0 -1 1 1 166 180 1 100 100;
