#N canvas 696 127 647 751 12;
#X obj 37 80 bop.noteslider;
#A saved shuffle 0;
#A saved duration 0.444;
#A saved velocity 0.2;
#A saved octaves 3;
#A saved root 45;
#A saved chord 7;
#A saved noteslider 0.1;
#X obj 38 446 output~;
#X obj 37 18 tgl 19 0 empty empty empty 0 -10 0 12 #fcfcfc #000000 #000000 0 1;
#X obj 37 347 bop.pluck~;
#A saved instrument 3;
#X text 210 312 < MIDI and messages out;
#N canvas 467 357 661 416 generate 0;
#X obj 130 54 inlet;
#X obj 130 157 tgl 19 0 empty empty empty 0 -10 0 12 #fcfcfc #000000 #000000 0 1;
#X obj 130 184 sel 0 1;
#X obj 130 130 metro 4800;
#X text 200 179 set multiple parameters separated by commas;
#X obj 133 317 outlet;
#X obj 52 256 loadbang;
#X msg 52 280 level 1;
#X msg 130 209 noteslider 1 0.1 2000 \, root 45 \, octaves 3 \, shuffle 0 \, velocity 0.2 2000;
#X msg 62 349 velocity 0 \, noteslider 0.2;
#X msg 154 253 noteslider 0 1 5000 \, root 50 \, octaves 2 \, shuffle 1 \, velocity 1 4000, f 64;
#X connect 0 0 3 0;
#X connect 1 0 2 0;
#X connect 2 0 8 0;
#X connect 2 1 10 0;
#X connect 3 0 1 0;
#X connect 6 0 7 0;
#X connect 7 0 5 0;
#X connect 7 0 9 0;
#X connect 8 0 5 0;
#X connect 10 0 5 0;
#X restore 37 50 pd generate;
#X connect 0 0 3 0;
#X connect 0 1 3 0;
#X connect 2 0 5 0;
#X connect 3 0 1 0;
#X connect 3 1 1 0;
#X connect 5 0 0 0;
