#N canvas 57 113 771 737 12;
#X obj 50 119 bop.seq;
#A saved loop 1;
#A saved run 0;
#X obj 50 246 bop.noteslider;
#A saved shuffle 0;
#A saved duration 0.571429;
#A saved velocity 1;
#A saved octaves 3;
#A saved root 46;
#A saved chord 3;
#A saved noteslider 0;
#X obj 208 218 print;
#X obj 50 508 bop.pluck~;
#A saved instrument 2.58765;
#X msg 106 68 level 1;
#X obj 50 613 output~;
#X obj 106 40 loadbang;
#X obj 49 37 tgl 19 0 empty empty empty 0 -10 0 12 #fcfcfc #000000 #000000 0 1;
#X msg 49 67 run \$1;
#X msg 181 68 stop;
#X msg 235 75 instrument loop 0 3 6000;
#X text 268 344 todo: tempo and specifying time in bpm/subdivision of a bar., f 27;
#X text 275 247 - 2000 \; // indicates rest 2000 msec //at least one rest is required for a looping sequence, f 32;
#X text 274 152 Sequence messages and midi notes! \; click open to see sequence \; sequence is saved with patch \;;
#X connect 0 0 1 0;
#X connect 0 1 1 0;
#X connect 0 1 2 0;
#X connect 1 0 3 0;
#X connect 1 1 3 0;
#X connect 3 0 5 0;
#X connect 3 1 5 0;
#X connect 4 0 0 0;
#X connect 6 0 4 0;
#X connect 7 0 8 0;
#X connect 8 0 0 0;
#X connect 9 0 0 0;
#X connect 10 0 0 0;
