#N canvas 0 37 735 891 12;
#X declare -path ./babs;
#X obj 322 190 outlet;
#X obj 109 31 declare -path ./babs;
#X obj 245 100 bng 15 250 50 0 \$0-connect empty connect -36 8 0 8 #e3c6ff #c6feff #606060;
#X obj 322 162 r \$0-out;
#X msg 522 563 clear;
#N canvas 184 374 701 445 \$0-controls 0;
#X obj 12 12 sub/gui/msg 6427 stop;
#X obj 12 34 sub/gui/msg 6427 reset;
#X obj 12 56 sub/gui/msg 6427 dump;
#X obj 12 78 sub/gui/param 6427 root;
#X obj 12 100 sub/gui/param 6427 mode;
#X obj 12 122 sub/gui/param 6427 sample;
#X obj 12 144 sub/gui/param 6427 folder;
#X obj 12 166 sub/gui/param 6427 tune;
#X obj 12 188 sub/gui/param 6427 gain;
#X obj 12 210 sub/gui/param 6427 loop-start;
#X obj 12 232 sub/gui/param 6427 loop-length;
#X obj 12 254 sub/gui/param 6427 loop;
#X obj 12 276 sub/gui/param 6427 release;
#X obj 12 298 sub/gui/param 6427 attack;
#X coords 0 -1 1 1 150 310 1 10 10;
#X restore 105 130 pd \$0-controls;
#X obj 522 591 s pd-\$0-controls;
#X obj 109 54 namecanvas \$0-gui;
#X obj 502 260 loadbang;
#X obj 502 286 delay 10;
#N canvas 186 74 1221 821 make-param 0;
#X obj 47 27 inlet;
#X obj 47 523 t l l, f 35;
#X msg 289 653 obj 12 \$1 sub/gui/param \$2 \$3;
#X obj 289 688 s pd-\$0-controls;
#X obj 47 646 unpack f f s, f 14;
#X obj 86 679 pack f s, f 9;
#X obj 47 741 s, f 6;
#X obj 128 138 expr $f1 * 22 + 2 + 10;
#X obj 128 102 value \$0-numelements;
#X obj 47 60 t a b, f 12;
#X text 311 559 create parameter;
#X text 64 557 set parameter;
#X text 292 620 position \, \$0 \, paramname;
#X text 52 620 value \, \$0 \, paramname;
#X msg 86 703 symbol \$1-set-\$2;
#X obj 128 310 list length;
#X obj 47 291 t l l;
#X obj 47 367 list prepend;
#X obj 128 339 - 4;
#X obj 47 491 list;
#X obj 47 236 list prepend \$0;
#X obj 47 417 route 0, f 84;
#X obj 632 467 route 1 2;
#X obj 872 727 s pd-\$0-controls;
#X text 875 659 position \, \$0 \, paramname;
#X msg 872 692 obj 12 \$1 sub/gui/number \$2 \$3;
#X obj 47 194 list prepend;
#X obj 632 549 list;
#X text 976 614 create number;
#X obj 632 834 s, f 12;
#X text 641 616 set parameter;
#X text 64 390 additionalargs \$0 ypos paramname value (min) (max);
#X text 54 262 \$0 ypos paramname value;
#X msg 289 587 \$2 \$1 \$3;
#X msg 47 590 \$4 \$1 \$3;
#X msg 872 626 \$2 \$1 \$3;
#X text 675 487 \$0 ypos paramname value (min) (max);
#X text 59 454 \$0 ypos paramname value;
#X obj 629 324 s, f 14;
#X msg 724 273 symbol \$1-set-\$2;
#X msg 629 271 label \$1;
#X msg 629 180 \$1 \$3;
#X obj 629 229 t a a, f 14;
#X text 634 203 paramname \, \$0;
#X msg 753 784 symbol \$1-set-\$3;
#X obj 424 138 nbx 5 17 -1e+37 1e+37 0 0 empty empty empty 0 -10 0 12 #fcfcfc #000000 #000000 0 256;
#X obj 632 508 list append 1e+37;
#X obj 632 581 t l l l, f 35;
#X msg 632 747 label \$3 \, range \$5 \$6 \, \$4, f 12;
#X connect 0 0 9 0;
#X connect 1 0 34 0;
#X connect 1 1 33 0;
#X connect 2 0 3 0;
#X connect 4 0 6 0;
#X connect 4 1 5 0;
#X connect 4 2 5 1;
#X connect 5 0 14 0;
#X connect 7 0 26 1;
#X connect 8 0 7 0;
#X connect 9 0 26 0;
#X connect 9 1 8 0;
#X connect 14 0 6 1;
#X connect 15 0 18 0;
#X connect 16 0 17 0;
#X connect 16 1 15 0;
#X connect 17 0 21 0;
#X connect 18 0 17 1;
#X connect 19 0 1 0;
#X connect 20 0 16 0;
#X connect 21 0 19 0;
#X connect 21 1 22 0;
#X connect 22 0 46 0;
#X connect 22 1 27 0;
#X connect 25 0 23 0;
#X connect 26 0 20 0;
#X connect 27 0 47 0;
#X connect 33 0 2 0;
#X connect 34 0 4 0;
#X connect 35 0 25 0;
#X connect 39 0 38 1;
#X connect 40 0 38 0;
#X connect 41 0 42 0;
#X connect 42 0 40 0;
#X connect 42 1 39 0;
#X connect 44 0 29 1;
#X connect 46 0 27 0;
#X connect 47 0 48 0;
#X connect 47 1 44 0;
#X connect 47 2 35 0;
#X connect 48 0 29 0;
#X restore 465 798 pd make-param;
#N canvas 0 37 1470 891 resize 0;
#X obj 151 73 inlet;
#X obj 138 180 value \$0-numelements;
#X text 539 361 [donecanvasdialog <x-units> <y-units> <gop> <x-from> <y-from> <x-to> <y-to> <x-size> <y-size> <x-margin> <y-margin>(;
#X text 525 427 [donecanvasdialog <args> \, dirty 0( [namecanvas \$0-myabs] | [send \$0-myabs];
#X obj 130 500 s pd-\$0-controls;
#X obj 133 425 expr ($f1 + 1) * 22 + 2;
#X text 537 519 restore 105 130 pd \$0-controls \;;
#X obj 136 216 t f f, f 41;
#X msg 420 289 donecanvasdialog 0 0 1 0 -1 1 1 160 \$1 100 100 \, dirty 0;
#X obj 420 258 expr ($f1 + 1) * 22 + 2 +37;
#X obj 423 359 s \$0-gui;
#X text 385 117 from https://forum.pdpatchrepo.info/topic/5746/change-graph-on-parent-dimentions-from-inside;
#X msg 132 462 donecanvasdialog 0 0 1 0 -1 1 1 150 \$1 10 10 \, dirty 0;
#X connect 0 0 1 0;
#X connect 1 0 7 0;
#X connect 5 0 12 0;
#X connect 7 0 5 0;
#X connect 7 1 9 0;
#X connect 8 0 10 0;
#X connect 9 0 8 0;
#X connect 12 0 4 0;
#X restore 408 843 pd resize;
#N canvas 830 355 574 573 make-enum 0;
#X obj 67 27 inlet;
#X obj 67 293 t l l, f 35;
#X text 74 262 paramname value ypos \$0;
#X msg 309 354 \$3 \$4 \$1;
#X obj 309 458 s pd-\$0-controls;
#X msg 67 357 \$2 \$4 \$1;
#X obj 106 469 pack f s, f 9;
#X obj 67 531 s, f 6;
#X obj 67 236 list append \$0;
#X obj 67 194 list append, f 12;
#X obj 148 138 expr $f1 * 22 + 2 + 10;
#X obj 148 102 value \$0-numelements;
#X obj 67 60 t a b, f 12;
#X text 331 329 create parameter;
#X text 84 327 set parameter;
#X obj 67 416 unpack s f s, f 14;
#X msg 309 423 obj 12 \$1 sub/gui/enum \$2 \$3;
#X text 312 390 position \, \$0 \, paramname;
#X text 72 390 value \, \$0 \, paramname;
#X msg 106 493 symbol \$1-set-\$2-enum;
#X msg 22 472 label \$1;
#X connect 0 0 12 0;
#X connect 1 0 5 0;
#X connect 1 1 3 0;
#X connect 3 0 16 0;
#X connect 5 0 15 0;
#X connect 6 0 19 0;
#X connect 8 0 1 0;
#X connect 9 0 8 0;
#X connect 10 0 9 1;
#X connect 11 0 10 0;
#X connect 12 0 9 0;
#X connect 12 1 11 0;
#X connect 15 0 20 0;
#X connect 15 1 6 0;
#X connect 15 2 6 1;
#X connect 16 0 4 0;
#X connect 19 0 7 1;
#X connect 20 0 7 0;
#X restore 508 769 pd make-enum;
#N canvas 209 282 541 549 make-msg 0;
#X obj 47 27 inlet;
#X obj 47 293 t l l, f 35;
#X obj 289 458 s pd-\$0-controls;
#X obj 116 449 pack f s, f 9;
#X obj 47 511 s, f 6;
#X msg 116 473 symbol \$1-set-\$2;
#X obj 47 236 list append \$0;
#X obj 47 194 list append, f 12;
#X obj 128 138 expr $f1 * 22 + 2 + 10;
#X obj 128 102 value \$0-numelements;
#X obj 47 60 t a b, f 12;
#X text 311 329 create parameter;
#X text 292 390 position \, \$0 \, paramname;
#X msg 289 423 obj 12 \$1 sub/gui/msg \$2 \$3;
#X text 54 262 paramname ypos \$0;
#X msg 289 364 \$2 \$3 \$1;
#X text 64 327 set parameter label;
#X text 52 390 paramname \, \$0 \, paramname;
#X obj 47 416 unpack s f s, f 14;
#X obj 3 197 print;
#X msg 47 367 \$1 \$3 \$1;
#X msg 47 458 label \$1;
#X connect 0 0 10 0;
#X connect 1 0 20 0;
#X connect 1 1 15 0;
#X connect 3 0 5 0;
#X connect 5 0 4 1;
#X connect 6 0 1 0;
#X connect 7 0 6 0;
#X connect 8 0 7 1;
#X connect 9 0 8 0;
#X connect 10 0 7 0;
#X connect 10 1 9 0;
#X connect 13 0 2 0;
#X connect 15 0 13 0;
#X connect 18 0 21 0;
#X connect 18 1 3 0;
#X connect 18 2 3 1;
#X connect 20 0 18 0;
#X connect 21 0 4 0;
#X restore 589 710 pd make-msg;
#N canvas 893 204 574 666 make-attr 0;
#X obj 67 27 inlet;
#X obj 309 458 s pd-\$0-controls;
#X obj 188 761 s, f 6;
#X obj 67 236 list append \$0;
#X obj 67 194 list append, f 24;
#X obj 232 138 expr $f1 * 22 + 2 + 10;
#X obj 232 102 value \$0-numelements;
#X obj 67 60 t a b, f 24;
#X text 331 329 create parameter;
#X text 312 390 position \, \$0 \, paramname;
#X msg 309 423 obj 12 \$1 sub/gui/attr \$2 \$3;
#X obj 67 108 list split 1;
#X obj 108 147 s \$0-attrlist;
#X obj 71 683 list;
#X obj 96 632 r \$0-attrlist, f 11;
#X text 74 262 paramname ypos \$0;
#X msg 309 354 \$2 \$3 \$1;
#X text 84 611 set list;
#X text 244 507 set send;
#X msg 227 537 symbol \$3-set-\$1;
#X obj 67 293 t b l l, f 35;
#X connect 0 0 7 0;
#X connect 3 0 20 0;
#X connect 4 0 3 0;
#X connect 5 0 4 1;
#X connect 6 0 5 0;
#X connect 7 0 11 0;
#X connect 7 1 6 0;
#X connect 10 0 1 0;
#X connect 11 0 4 0;
#X connect 11 1 12 0;
#X connect 13 0 2 0;
#X connect 14 0 13 1;
#X connect 16 0 10 0;
#X connect 19 0 2 1;
#X connect 20 0 13 0;
#X connect 20 1 19 0;
#X connect 20 2 16 0;
#X restore 547 741 pd make-attr;
#X obj 537 534 loadbang;
#X obj 850 377 r \$0-params;
#X obj 850 431 babs.gate 0, f 18;
#X obj 973 375 r \$0-is-building;
#X obj 973 402 != 1;
#X obj 850 469 list trim;
#X obj 840 784 route devicename, f 45;
#X obj 1154 922 t l l, f 9;
#X obj 1154 842 list, f 9;
#X obj 840 719 babs.gate 0, f 18;
#X obj 963 663 r \$0-is-building;
#X obj 963 690 != 1;
#X obj 1154 1022 s, f 9;
#X msg 1214 990 symbol \$1-update-\$2;
#X text 1482 1047 heya :);
#X obj 840 1010 t l l, f 11;
#X obj 914 1044 list prepend \$0;
#X obj 840 981 list, f 11;
#X obj 840 1111 s, f 11;
#X obj 840 952 route enum;
#X msg 914 1073 symbol \$1-set-\$2-enum;
#X msg 840 1078 label \$2;
#N canvas 425 210 614 655 receive-dump 0;
#X obj 57 22 inlet;
#X obj 187 604 outlet;
#X msg 336 148 dump;
#X obj 336 180 s \$0-out;
#X msg 391 347 1;
#X obj 187 488 babs.gate 0, f 18;
#X msg 297 352 0;
#X obj 436 288 t b b, f 12;
#X obj 317 574 babs.counter, f 29;
#X obj 187 532 t a b, f 19;
#X msg 517 420 0;
#X obj 317 604 s \$0-numelements;
#X obj 350 407 s \$0-is-building;
#X obj 310 462 r \$0-is-building;
#X obj 57 64 t b b b b, f 60;
#X obj 91 255 list;
#X obj 91 282 list split 1;
#X obj 131 314 list trim;
#X obj 51 562 s \$0-devicename;
#X obj 51 394 symbol;
#X obj 93 156 r \$0-from-module;
#X obj 93 187 route list bang float symbol dump, f 16;
#X connect 0 0 14 0;
#X connect 2 0 3 0;
#X connect 4 0 12 0;
#X connect 5 0 9 0;
#X connect 6 0 12 0;
#X connect 7 0 4 0;
#X connect 7 1 10 0;
#X connect 8 0 11 0;
#X connect 9 0 1 0;
#X connect 9 1 8 0;
#X connect 10 0 8 1;
#X connect 13 0 5 1;
#X connect 14 0 19 0;
#X connect 14 1 6 0;
#X connect 14 2 2 0;
#X connect 14 3 7 0;
#X connect 15 0 16 0;
#X connect 16 0 19 1;
#X connect 16 1 17 0;
#X connect 17 0 5 0;
#X connect 19 0 18 0;
#X connect 20 0 21 0;
#X connect 21 5 15 0;
#X restore 465 645 pd receive-dump;
#X f 18;
#X obj 1152 742 r \$0-devicename;
#X obj 1154 873 list prepend \$0;
#X obj 1114 963 list split 2;
#X text 856 868 update enums;
#X text 997 815 update other params >;
#X text 857 904 < todo \; info;
#X obj 465 678 route param enum attr msg attr;
#X text 846 622 updating params ----------------------------------;
#X text 845 347 sending params ------------------------------------;
#X text 407 223 dynamic builder ------------------------------------;
#X text 423 87 ordering params: cut and paste back from the bottom up, f 27;
#X text 422 158 if param has min and max then gui will use number ui;
#X obj 408 260 r \$0-connect;
#X obj 408 354 t b b b b, f 25;
#X msg 580 429 gui-connect \$1;
#X obj 580 402 \$0;
#X obj 580 463 s \$0-out;
#X obj 1082 135 route module-connect;
#X obj 912 277 s, f 25;
#X text 904 91 connects to babs.inout;
#X obj 911 141 r \$0-to-module;
#X obj 1082 103 r \$0-from-module;
#X obj 841 664 r \$0-from-module;
#X text 1093 209 forwards directly to params, f 17;
#X obj 850 525 s \$0-to-module;
#X msg 1082 178 symbol \$1-to-module;
#X obj 729 650 print;
#X connect 3 0 0 0;
#X connect 4 0 6 0;
#X connect 8 0 9 0;
#X connect 9 0 51 0;
#X connect 15 0 4 0;
#X connect 16 0 17 0;
#X connect 17 0 20 0;
#X connect 18 0 19 0;
#X connect 19 0 17 1;
#X connect 20 0 62 0;
#X connect 21 0 34 0;
#X connect 21 1 23 0;
#X connect 22 0 40 0;
#X connect 22 1 28 0;
#X connect 23 0 39 0;
#X connect 24 0 21 0;
#X connect 25 0 26 0;
#X connect 26 0 24 1;
#X connect 28 0 27 1;
#X connect 30 0 36 0;
#X connect 30 1 31 0;
#X connect 31 0 35 0;
#X connect 32 0 30 0;
#X connect 34 0 32 0;
#X connect 35 0 33 1;
#X connect 36 0 33 0;
#X connect 37 0 44 0;
#X connect 38 0 21 1;
#X connect 39 0 22 0;
#X connect 40 1 27 0;
#X connect 44 0 10 0;
#X connect 44 1 12 0;
#X connect 44 2 14 0;
#X connect 44 3 13 0;
#X connect 50 0 51 0;
#X connect 51 0 11 0;
#X connect 51 1 37 0;
#X connect 51 2 4 0;
#X connect 51 3 53 0;
#X connect 52 0 54 0;
#X connect 53 0 52 0;
#X connect 55 0 63 0;
#X connect 58 0 56 0;
#X connect 59 0 55 0;
#X connect 60 0 24 0;
#X connect 63 0 56 1;
#X coords 0 -1 1 1 160 347 1 100 100;
