#N canvas 756 215 632 530 12;
#X obj 210 147 bop.scope~;
#A saved print 0;
#A saved signal 0;
#A saved enable 1;
#X obj 226 420 output~;
#X obj 214 26 tgl 19 1 empty empty enable 23 10 0 12 #fcfcfc #000000 #000000 1 1;
#X text 378 358 < midi and messages out/though;
#X text 29 138 signal/midi/messages in >;
#X msg 331 71 64 127;
#X msg 338 98 test 1 2 3;
#N canvas 291 148 512 758 generate 1;
#X obj 53 -63 inlet;
#X obj 53 -28 t f f;
#X obj 93 590 outlet~;
#X obj 312 573 outlet;
#X obj 79 19 * 0.001;
#X obj 93 354 bop.pluck~;
#A saved instrument 3;
#X obj 74 191 bop.seq;
#A saved sequence-list 30 60 \; instrument 1 \; - 5000 \; instrument 3 \; 30 60 \; - 100 \; instrument 1 \; - 5000 \;;
#A saved loop 1;
#X obj 21 408 noise~;
#X obj 21 432 lop~;
#X obj 21 456 *~ 0.1;
#X obj 90 522 expr~ tanh($v1 * 50) * 0.5;
#X obj 97 477 expr~ tanh($v1 * 5) * 0.5;
#X obj 35 58 inlet;
#X obj 19 89 sel 1 0;
#X msg 54 126 stop;
#X msg 19 125 go;
#X msg 130 95 level \$1;
#X connect 0 0 1 0;
#X connect 1 0 13 0;
#X connect 1 1 4 0;
#X connect 4 0 16 0;
#X connect 5 0 11 0;
#X connect 5 1 3 0;
#X connect 6 0 5 0;
#X connect 6 1 5 0;
#X connect 7 0 8 0;
#X connect 8 0 9 0;
#X connect 9 0 10 0;
#X connect 10 0 2 0;
#X connect 11 0 10 0;
#X connect 12 0 13 0;
#X connect 13 0 15 0;
#X connect 13 1 14 0;
#X connect 14 0 6 0;
#X connect 15 0 6 0;
#X connect 16 0 6 0;
#X restore 213 55 pd generate;
#X text 66 358 signal out/through >;
#X connect 0 0 1 0;
#X connect 0 1 1 0;
#X connect 2 0 7 1;
#X connect 5 0 0 0;
#X connect 6 0 0 0;
#X connect 7 0 0 0;
#X connect 7 1 0 0;
