#N canvas 0 37 836 891 12;
#X declare -path ./babs;
#X obj 85 132 inlet~, f 12;
#X obj 299 222 outlet;
#X text 311 259 MIDI and messages dump out of right, f 13;
#X obj 117 851 outlet~;
#X text 138 795 Signal out of left, f 9;
#X obj 114 766 +~, f 17;
#X obj 84 178 s~ \$0-dry;
#X obj 111 611 r~ \$0-dry;
#X obj 113 719 *~;
#X obj 130 668 pow~ 2;
#X obj 287 386 r~ \$0-dry;
#X obj 307 434 *~ -1;
#X obj 362 511 r \$0-get-size;
#X obj 340 465 r \$0-get-wet;
#X obj 340 489 * 100;
#X obj 362 539 expr $f1 * 20 + 80;
#X obj 413 620 r \$0-get-damp;
#X obj 413 644 * 100;
#X obj 380 578 r \$0-get-cutoff;
#X text 790 294 hz;
#X obj 130 644 r~ \$0-get-dry;
#X text 448 693 modified from rev3~ to include a stop receiver;
#X obj 88 44 declare -path ./babs;
#X obj 284 691 sub/reverb~/reverb~ \$0;
#X obj 299 186 babs.inout \$0 bop.reverb~;
#X obj 297 122 inlet;
#X obj 449 98 savestate;
#X obj 449 71 babs.savestate \$0;
#X obj 574 446 babs.param \$0 dry 1;
#X obj 578 399 babs.param \$0 wet 0.7;
#X obj 582 348 babs.param.spacer \$0;
#X obj 539 297 babs.param \$0 cutoff 3000 0 20000;
#X obj 559 228 babs.param.spacer \$0;
#X obj 535 180 babs.param \$0 damp 0.5;
#X obj 533 145 babs.param \$0 size 0.5;
#X connect 0 0 6 0;
#X connect 0 1 24 0;
#X connect 5 0 3 0;
#X connect 7 0 8 0;
#X connect 8 0 5 0;
#X connect 9 0 8 1;
#X connect 10 0 11 0;
#X connect 10 0 23 0;
#X connect 11 0 23 1;
#X connect 12 0 15 0;
#X connect 13 0 14 0;
#X connect 14 0 23 2;
#X connect 15 0 23 3;
#X connect 16 0 17 0;
#X connect 17 0 23 5;
#X connect 18 0 23 4;
#X connect 20 0 9 0;
#X connect 23 0 5 1;
#X connect 23 1 5 1;
#X connect 23 2 5 1;
#X connect 23 3 5 1;
#X connect 24 0 1 0;
#X connect 25 0 24 0;
#X connect 26 0 27 1;
#X connect 26 1 27 0;
#X connect 27 0 26 0;
#X coords 0 891 1 890 166 230 0;
