#N canvas 464 167 550 720 12;
#X obj 137 246 bop.control~;
#A saved cv-3 0;
#A saved cv-2 0.05;
#A saved cv-1 0;
#X obj 137 415 bop.scope~;
#A saved print 0;
#A saved signal 0.05;
#A saved enable 1;
#X obj 321 393 route cv-1 cv-2 cv-3;
#X msg 198 127 cv-1 loop 0 1000 0.5 1000 1 1000 0 1000;
#X msg 199 148 cv-1 stop;
#X msg 200 198 cv-2 stop;
#X text 56 316 signals get summed >, f 11;
#X text 312 331 < control rate values as floats, f 14;
#X floatatom 321 457 12 0 0 0 - - - 0;
#X floatatom 366 437 12 0 0 0 - - - 0;
#X floatatom 412 417 12 0 0 0 - - - 0;
#X text 68 22 bop.control~ provides automatable parameters that out output as individual floats \, as well as a summed signal. This allows for complex modulation or leveraging bop parameters \, messaging \, and sequencing in your PD patches.;
#X msg 197 175 cv-2 loop 0.05 0 0.05 100 -0.05 0 -0.05 100;
#X connect 0 0 1 0;
#X connect 0 1 1 0;
#X connect 0 1 2 0;
#X connect 2 0 8 0;
#X connect 2 1 9 0;
#X connect 2 2 10 0;
#X connect 3 0 0 0;
#X connect 4 0 0 0;
#X connect 5 0 0 0;
#X connect 12 0 0 0;
