#N canvas 497 327 694 491 12;
#X obj 30 90 bop.hit;
#A saved hit-list 1 2 1 2 1 2 1 2;
#A saved loop 1;
#A saved tick 316;
#N canvas 643 481 726 448 tick 0;
#X obj 95 26 inlet;
#X msg 145 123 1;
#X obj 95 164 ./bop.p/bop.p.counter;
#X obj 95 251 outlet;
#X msg 95 188 tick \$1;
#X obj 202 204 loadbang;
#X msg 117 224 level 1;
#X msg 202 226 value-list 0.43 2.34 4.34 5.43 7.43 9.34 11.33 -1.33;
#X obj 166 36 sel 0;
#X obj 95 54 metro 300;
#X connect 0 0 9 0;
#X connect 0 0 8 0;
#X connect 1 0 2 1;
#X connect 2 0 4 0;
#X connect 4 0 3 0;
#X connect 5 0 7 0;
#X connect 5 0 6 0;
#X connect 6 0 3 0;
#X connect 7 0 3 0;
#X connect 8 0 1 0;
#X connect 9 0 2 0;
#X restore 30 53 pd tick;
#X obj 189 203 print;
#X text 217 98 define rhythms as a list of tick-lengths;
#X obj 34 320 bop.index;
#A saved value-list 0.43 2.34 4.34 5.43 7.43 9.34 11.33 -1.33;
#A saved from-one 1;
#A saved index 3;
#X obj 427 316 bop.pluck~;
#A saved instrument 3;
#X obj 427 401 output~;
#X obj 246 318 bop.intermal;
#A saved root 42;
#A saved intermal 4.34;
#A saved duration 0.25;
#A saved velocity 0.75;
#X obj 246 257 route value;
#X msg 246 281 intermal \$1;
#X obj 30 13 tgl 19 0 empty empty empty 0 -10 0 12 #fcfcfc #000000 #000000 0 1;
#X text 219 142 bop.hit outputs the index of any hit aligning to incoming tick \; It is designed to operate with bop.index for creating sequences \;, f 66;
#X connect 0 1 4 0;
#X connect 0 1 2 0;
#X connect 1 0 0 0;
#X connect 4 1 8 0;
#X connect 5 0 6 0;
#X connect 5 1 6 0;
#X connect 7 1 5 0;
#X connect 8 0 9 0;
#X connect 8 1 7 0;
#X connect 9 0 7 0;
#X connect 10 0 1 0;
