#N canvas 0 37 1470 891 12;
#X declare -path ./bop.p;
#X obj 80 218 inlet~, f 34;
#X obj 315 1468 outlet;
#X obj 80 408 outlet~;
#X text 70 436 Signal out of left, f 9;
#X text 76 192 Signal \, MIDI \, and messages in left, f 36;
#X obj 406 242 bop.p.param \$0 velocity 0.7;
#X obj 406 272 bop.p.param \$0 duration 0.3;
#X obj 406 121 bop.p.param \$0 tuning 0.55545;
#X obj 406 172 bop.p.param \$0 root 42;
#X obj 406 207 bop.p.param \$0 hold 0;
#X obj 693 96 r \$0-get-frets;
#X obj 694 180 t f b, f 25;
#X obj 884 177 r \$0-get-hold;
#X obj 884 201 sel 0;
#X obj 694 263 bop.p.splitfloat;
#X msg 831 88 0.221;
#X msg 899 88 3.204;
#X msg 958 89 -12.221;
#X obj 1089 501 r \$0-get-tuning;
#X floatatom 1010 656 5 0 0 0 - - - 0;
#X obj 1010 679 t b f, f 9;
#X obj 1121 611 list length;
#X obj 1064 745 list;
#X obj 1089 580 t l l;
#X obj 1064 802 bop.p.nth;
#X floatatom 1064 826 5 0 0 0 - - - 0;
#X obj 1124 736 min;
#X obj 1142 654 - 1;
#X obj 896 360 bop.p.iter;
#X obj 1010 441 bop.p.counter;
#X msg 1098 363 0;
#X obj 896 394 t f b, f 17;
#X obj 896 877 +;
#X obj 691 922 bop.p.accum, f 88;
#X obj 694 297 t b l b b, f 87;
#X obj 787 1113 bop.p.iter;
#X obj 787 1317 makenote 100 500, f 33;
#X obj 901 1203 r \$0-get-velocity;
#X obj 901 1227 * 127;
#X obj 1015 1246 r \$0-get-duration;
#X obj 1015 1272 * 5000;
#X obj 788 1360 pack, f 33;
#X obj 787 1186 +;
#X obj 806 1147 r \$0-get-root;
#X obj 814 1254 r \$0-stop;
#X msg 814 1278 stop;
#X obj 772 996 r \$0-get-hold;
#X obj 691 1029 list prepend;
#X obj 691 1063 route 1 0, f 28;
#X obj 537 1119 bop.p.iter;
#X obj 537 1292 poly 64 1, f 15;
#X obj 537 1181 +;
#X obj 555 1152 r \$0-get-root;
#X obj 639 1218 r \$0-get-velocity;
#X obj 639 1242 * 127;
#X obj 556 1238 r \$0-stop;
#X obj 588 1334 pack, f 8;
#X text 800 1086 hold off;
#X text 697 1088 hold on;
#X msg 556 1263 stop;
#X obj 1089 541 bop.p.steps2tones;
#X obj 866 238 s \$0-noteoff;
#X obj 544 1213 r \$0-noteoff;
#X obj 799 1229 r \$0-noteoff;
#X obj 406 148 bop.p.param \$0 frets;
#X obj 47 113 declare -path ./bop.p;
#X obj 315 312 bop.p.inout \$0 bop.frets;
#X connect 0 0 2 0;
#X connect 0 1 66 0;
#X connect 10 0 11 0;
#X connect 11 0 14 0;
#X connect 11 1 61 0;
#X connect 12 0 13 0;
#X connect 13 0 61 0;
#X connect 14 0 34 0;
#X connect 15 0 11 0;
#X connect 16 0 11 0;
#X connect 17 0 11 0;
#X connect 18 0 60 0;
#X connect 19 0 20 0;
#X connect 20 0 22 0;
#X connect 20 1 26 0;
#X connect 21 0 27 0;
#X connect 22 0 24 0;
#X connect 23 0 22 1;
#X connect 23 1 21 0;
#X connect 24 0 25 0;
#X connect 25 0 32 1;
#X connect 26 0 24 1;
#X connect 27 0 26 1;
#X connect 28 0 31 0;
#X connect 29 0 19 0;
#X connect 30 0 29 1;
#X connect 31 0 32 0;
#X connect 31 1 29 0;
#X connect 32 0 33 0;
#X connect 33 0 47 0;
#X connect 34 0 33 0;
#X connect 34 1 28 0;
#X connect 34 2 30 0;
#X connect 34 3 33 1;
#X connect 35 0 42 0;
#X connect 36 0 41 0;
#X connect 36 1 41 1;
#X connect 37 0 38 0;
#X connect 38 0 36 1;
#X connect 39 0 40 0;
#X connect 40 0 36 2;
#X connect 41 0 1 0;
#X connect 42 0 36 0;
#X connect 43 0 42 1;
#X connect 44 0 45 0;
#X connect 45 0 36 0;
#X connect 46 0 47 1;
#X connect 47 0 48 0;
#X connect 48 0 49 0;
#X connect 48 1 35 0;
#X connect 49 0 51 0;
#X connect 50 1 56 0;
#X connect 50 2 56 1;
#X connect 51 0 50 0;
#X connect 52 0 51 1;
#X connect 53 0 54 0;
#X connect 54 0 50 1;
#X connect 55 0 59 0;
#X connect 56 0 1 0;
#X connect 59 0 50 0;
#X connect 60 0 23 0;
#X connect 62 0 59 0;
#X connect 63 0 45 0;
#X connect 66 0 1 0;
#X coords 0 891 1 890 166 180 0;
