#N canvas 883 215 554 621 12;
#X obj 48 27 tgl 19 0 empty empty on 23 10 0 10 #dfdfdf #000000 #000000 0 1;
#X obj 148 178 bop.echo~;
#A saved reverb-size 0.407143;
#A saved delay-time 0.645039;
#A saved delay-level 0.942857;
#A saved dry-level 0.95;
#A saved reverb-level 0.164286;
#A saved cutoff 1000;
#A saved q 0.357143;
#A saved feedback 0.364286;
#N canvas 276 248 603 595 generate 0;
#X obj 195 0 inlet;
#X obj 42 402 outlet~;
#X obj 204 384 outlet;
#X obj 41 60 bng 19 250 50 0 empty empty empty 17 7 0 10 #dfdfdf #000000 #000000;
#X obj 41 33 metro 8 120 permin;
#X obj 41 132 makenote 100 200;
#X obj 40 166 pack;
#X msg 41 99 52;
#X obj 41 370 *~ 2;
#X msg 150 220 volume \$1 50;
#X obj 296 65 inlet;
#X obj 41 277 bop.instrument~;
#A saved instrument 2;
#X connect 0 0 4 0;
#X connect 0 0 9 0;
#X connect 3 0 7 0;
#X connect 4 0 3 0;
#X connect 5 0 6 0;
#X connect 5 1 6 1;
#X connect 6 0 11 0;
#X connect 7 0 5 0;
#X connect 8 0 1 0;
#X connect 9 0 11 0;
#X connect 10 0 11 0;
#X connect 11 0 8 0;
#X connect 11 1 2 0;
#X restore 48 69 pd generate;
#X obj 307 541 print messages;
#X text 326 228 self oscillates above 0.5 with q at 0.5, f 18;
#X msg 171 122 delay-time 1 0.2 7000;
#X obj 149 453 bop.out~;
#A saved mute 0;
#A saved volume 0;
#X msg 173 67 delay-time loop 0.2 500 0.4 500;
#X msg 171 94 feedback loop 0.7 4000 0 3000;
#X msg 175 10 instrument 0;
#X msg 175 39 instrument 2;
#X connect 0 0 2 0;
#X connect 1 0 6 0;
#X connect 1 1 6 0;
#X connect 2 0 1 0;
#X connect 2 1 1 0;
#X connect 5 0 2 1;
#X connect 6 2 3 0;
#X connect 7 0 2 1;
#X connect 8 0 2 1;
#X connect 9 0 2 1;
#X connect 10 0 2 1;
