#N canvas 103 93 907 598 12;
#X declare -path ./bop.p;
#X obj 621 98 savestate, f 17;
#X obj 620 71 bop.p.autosave \$0;
#X obj 467 188 inlet~, f 34;
#X obj 702 368 outlet;
#X text 702 405 MIDI and messages dump out of right, f 13;
#X obj 467 378 outlet~;
#X text 457 406 Signal out of left, f 9;
#X text 463 162 Signal \, MIDI \, and messages in left, f 36;
#X obj 702 282 bop.p.inout \$0;
#X obj 434 83 declare -path ./bop.p;
#X obj 513 252 r \$0-midi-in;
#X obj 513 330 s \$0-midi-out;
#N canvas 86 63 1291 773 fret 0;
#X obj 113 195 outlet~;
#X obj 112 82 inlet~;
#X obj 313 82 inlet;
#X obj 313 1422 outlet;
#X text 163 136 BUILD MODULE HERE;
#X obj 513 70 r \$0-get-frets;
#X obj 514 154 t f b, f 25;
#X obj 686 192 s \$0-stop;
#X obj 721 136 r \$0-get-hold;
#X obj 721 160 sel 0;
#X obj 514 237 bop.p.splitfloat;
#X msg 651 62 0.221;
#X msg 719 62 3.204;
#X msg 778 63 -12.221;
#X obj 909 475 r \$0-get-tuning;
#X floatatom 830 630 5 0 0 0 - - - 0;
#X obj 830 653 t b f, f 9;
#X obj 941 585 list length;
#X obj 884 719 list;
#X obj 909 554 t l l;
#X obj 884 776 bop.p.nth;
#X floatatom 884 800 5 0 0 0 - - - 0;
#X obj 944 710 min;
#X obj 962 628 - 1;
#X obj 909 515 bop.p.semisteps;
#X obj 716 334 bop.p.iter;
#X obj 830 415 bop.p.counter;
#X msg 918 337 0;
#X obj 716 368 t f b, f 17;
#X obj 716 851 +;
#X obj 511 896 bop.p.accum, f 88;
#X obj 514 271 t b l b b, f 87;
#X text 1174 1545 comment;
#X obj 607 1087 bop.p.iter;
#X obj 607 1291 makenote 100 500, f 33;
#X obj 721 1177 r \$0-get-velocity;
#X obj 721 1201 * 127;
#X obj 835 1220 r \$0-get-duration;
#X obj 835 1246 * 5000;
#X obj 608 1334 pack, f 33;
#X obj 607 1160 +;
#X obj 626 1121 r \$0-get-root;
#X obj 634 1218 r \$0-stop;
#X msg 634 1242 stop;
#X obj 592 970 r \$0-get-hold;
#X obj 511 1003 list prepend;
#X obj 511 1037 route 1 0, f 28;
#X obj 357 1113 bop.p.iter;
#X obj 357 1266 poly 64 1, f 15;
#X obj 357 1175 +;
#X obj 375 1146 r \$0-get-root;
#X obj 459 1192 r \$0-get-velocity;
#X obj 459 1216 * 127;
#X obj 376 1212 r \$0-stop;
#X obj 408 1308 pack, f 8;
#X text 620 1060 hold off;
#X text 517 1062 hold on;
#X msg 376 1237 stop;
#X connect 1 0 0 0;
#X connect 2 0 3 0;
#X connect 5 0 6 0;
#X connect 6 0 10 0;
#X connect 6 1 7 0;
#X connect 8 0 9 0;
#X connect 9 0 7 0;
#X connect 10 0 31 0;
#X connect 11 0 6 0;
#X connect 12 0 6 0;
#X connect 13 0 6 0;
#X connect 14 0 24 0;
#X connect 15 0 16 0;
#X connect 16 0 18 0;
#X connect 16 1 22 0;
#X connect 17 0 23 0;
#X connect 18 0 20 0;
#X connect 19 0 18 1;
#X connect 19 1 17 0;
#X connect 20 0 21 0;
#X connect 21 0 29 1;
#X connect 22 0 20 1;
#X connect 23 0 22 1;
#X connect 24 0 19 0;
#X connect 25 0 28 0;
#X connect 26 0 15 0;
#X connect 27 0 26 1;
#X connect 28 0 29 0;
#X connect 28 1 26 0;
#X connect 29 0 30 0;
#X connect 30 0 45 0;
#X connect 31 0 30 0;
#X connect 31 1 25 0;
#X connect 31 2 27 0;
#X connect 31 3 30 1;
#X connect 33 0 40 0;
#X connect 34 0 39 0;
#X connect 34 1 39 1;
#X connect 35 0 36 0;
#X connect 36 0 34 1;
#X connect 37 0 38 0;
#X connect 38 0 34 2;
#X connect 39 0 3 0;
#X connect 40 0 34 0;
#X connect 41 0 40 1;
#X connect 42 0 43 0;
#X connect 43 0 34 0;
#X connect 44 0 45 1;
#X connect 45 0 46 0;
#X connect 46 0 47 0;
#X connect 46 1 33 0;
#X connect 47 0 49 0;
#X connect 48 1 54 0;
#X connect 48 2 54 1;
#X connect 49 0 48 0;
#X connect 50 0 49 1;
#X connect 51 0 52 0;
#X connect 52 0 48 1;
#X connect 53 0 57 0;
#X connect 54 0 3 0;
#X connect 57 0 48 0;
#X restore 467 288 pd fret;
#X obj 110 130 bop.p.number \$0 frets 0;
#X obj 110 170 bop.p.number \$0 root 42;
#X obj 110 220 bop.p.param \$0 velocity 0.7;
#X obj 110 240 bop.p.param \$0 duration 0.3;
#X obj 183 200 bop.p.toggle \$0 hold 0;
#X obj 110 150 bop.p.number \$0 tuning 0.55545;
#X connect 0 0 1 1;
#X connect 0 1 1 0;
#X connect 1 0 0 0;
#X connect 2 0 12 0;
#X connect 2 1 8 0;
#X connect 8 0 3 0;
#X connect 10 0 12 1;
#X connect 12 0 5 0;
#X connect 12 1 11 0;
#X coords 0 -1 1 1 166 170 1 100 100;
