#N canvas 310 422 279 398 12;
#X obj 24 214 bop.index;
#A saved value-list 1 2 3 4 5 6;
#A saved from-one 1;
#A saved index 22;
#X msg 24 134 index \$1;
#X floatatom 24 101 5 0 0 0 - - - 0;
#X obj 183 346 print;
#X obj 24 22 bng 19 250 50 0 empty empty empty 0 -10 0 12 #fcfcfc #000000 #000000;
#X obj 24 64 ./bop.p/bop.p.counter;
#X msg 168 26 0;
#X msg 136 26 1;
#X msg 91 135 value-list 1 2 3 4 5 6;
#X msg 90 167 value-list;
#X connect 0 1 3 0;
#X connect 1 0 0 0;
#X connect 2 0 1 0;
#X connect 4 0 5 0;
#X connect 5 0 2 0;
#X connect 6 0 5 1;
#X connect 7 0 5 1;
#X connect 8 0 0 0;
#X connect 9 0 0 0;
