#N canvas 0 37 735 891 12;
#X declare -path ./babs;
#X obj 49 136 inlet~, f 11;
#X obj 620 785 outlet;
#X obj 49 786 outlet~;
#X text 39 814 Signal out of left, f 9;
#X obj 139 356 pack f f f;
#X obj 139 385 route 1 2 3 4;
#X obj 139 276 unpack, f 10;
#X obj 139 314 poly 4 1, f 10;
#X obj 139 645 *~, f 9;
#X msg 66 232 stop;
#X obj 139 248 r \$0-midi;
#X obj 49 679 +~;
#X text 621 823 stop \, midi \, params \, and dump;
#X obj 43 50 declare -path ./babs;
#X obj 139 434 sub/casio~/voice \$0;
#X obj 161 464 sub/casio~/voice \$0;
#X obj 184 494 sub/casio~/voice \$0;
#X obj 205 524 sub/casio~/voice \$0;
#X obj 619 141 inlet;
#X obj 66 208 r \$0-get-stop;
#X obj 123 165 s \$0-in;
#X obj 671 142 r \$0-in;
#X obj 836 182 savestate;
#X obj 836 155 babs.savestate \$0;
#X obj 620 176 babs.inout \$0 bop.casio~;
#X obj 336 399 r~ \$0-get-filter;
#X obj 194 608 r~ \$0-get-gain;
#X obj 982 671 babs.param \$0 gain 1;
#X obj 980 642 babs.param.spacer \$0;
#X obj 985 612 babs.param \$0 release 0.2;
#X obj 979 584 babs.param \$0 sustain 0.7;
#X obj 979 555 babs.param \$0 decay 0.3;
#X obj 975 522 babs.param \$0 attack 0.1;
#X obj 967 486 babs.param.spacer \$0;
#X obj 969 452 babs.param \$0 filter 0.66;
#X obj 976 412 babs.param.spacer \$0;
#X obj 982 352 babs.param.enum \$0 wave-2 saw square pulse sinepulse halfpulse res-saw res-triangle res-trapezoid;
#X obj 983 314 babs.param \$0 wave-2 0 0 7;
#X obj 981 282 babs.param.spacer \$0;
#X obj 981 236 babs.param.enum \$0 wave-1 saw square pulse sinepulse halfpulse res-saw res-triangle res-trapezoid;
#X obj 985 200 babs.param \$0 wave-1 0 0 7;
#X connect 0 0 11 0;
#X connect 0 1 20 0;
#X connect 4 0 5 0;
#X connect 5 0 14 0;
#X connect 5 1 15 0;
#X connect 5 2 16 0;
#X connect 5 3 17 0;
#X connect 6 0 7 0;
#X connect 6 1 7 1;
#X connect 7 0 4 0;
#X connect 7 1 4 1;
#X connect 7 2 4 2;
#X connect 8 0 11 1;
#X connect 9 0 7 0;
#X connect 10 0 6 0;
#X connect 11 0 2 0;
#X connect 14 0 8 0;
#X connect 15 0 8 0;
#X connect 16 0 8 0;
#X connect 17 0 8 0;
#X connect 18 0 24 0;
#X connect 19 0 9 0;
#X connect 21 0 24 0;
#X connect 22 0 23 1;
#X connect 22 1 23 0;
#X connect 23 0 22 0;
#X connect 24 0 1 0;
#X connect 25 0 14 1;
#X connect 25 0 17 1;
#X connect 25 0 16 1;
#X connect 25 0 15 1;
#X connect 26 0 8 1;
#X coords 0 891 1 890 166 280 0;
