#N canvas 38 180 794 743 12;
#X declare -path ./bop.p;
#X obj 526 627 savestate, f 17;
#X obj 525 600 bop.p.autosave \$0;
#X text 366 548 Other messages get picked up in the bop.p.param \, bop.p.toggle \, and bop.p.number objects, f 20;
#X text 523 547 ... and are stored in here when the parent patch is saved, f 22;
#X text 361 519 Incoming lists are treated as MIDI note and velocity;
#X obj 402 146 inlet~, f 25;
#X obj 573 296 outlet;
#X text 585 333 MIDI and messages dump out of right, f 13;
#X obj 402 306 outlet~;
#X text 408 337 Signal out of left, f 9;
#X text 398 120 Signal \, MIDI \, and messages in left, f 36;
#X text 391 467 ---------- STATE SAVING ---------------, f 43;
#X obj 573 230 bop.p.inout \$0;
#X obj 405 86 declare -path ./bop.p;
#X text 360 43 ---------- In parent patch -------------;
#X text 371 673 GOP width: 166;
#X obj 110 130 bop.p.number \$0 instrument 0;
#X obj 110 150 bop.p.enum \$0 instrument;
#N canvas 33 77 1081 813 pluck 1;
#X obj 163 747 outlet~;
#X obj 163 124 inlet~;
#X obj 558 118 inlet;
#X obj 558 240 outlet;
#X obj 260 363 pack 0 0 0, f 13;
#X obj 260 243 unpack, f 13;
#X obj 566 593 clone bop.p.marimba~ 6;
#X obj 734 594 clone bop.p.rhodes~ 6;
#X obj 257 591 clone bop.p.harp~ 6;
#X obj 260 283 poly 6 1, f 13;
#X obj 260 335 - 1;
#X obj 258 463 list prepend;
#X obj 341 408 r \$0-get-instrument;
#X obj 257 503 route 0 1 2 3, f 91;
#X obj 405 593 clone bop.p.glok~ 6;
#X obj 535 387 loadbang;
#X msg 535 430 list harp glok marimba rhodes;
#X obj 535 464 s \$0-set-instrument-enum;
#X obj 341 436 int;
#X obj 732 644 *~ 0.35;
#X obj 405 640 *~ 2.2;
#X obj 215 199 r \$0-stop;
#X msg 215 223 stop;
#X obj 570 641 *~ 2.5;
#X obj 254 646 *~ 2;
#X connect 1 0 0 0;
#X connect 2 0 3 0;
#X connect 2 0 5 0;
#X connect 4 0 11 0;
#X connect 5 0 9 0;
#X connect 5 1 9 1;
#X connect 6 0 23 0;
#X connect 7 0 19 0;
#X connect 8 0 24 0;
#X connect 9 0 10 0;
#X connect 9 1 4 1;
#X connect 9 2 4 2;
#X connect 10 0 4 0;
#X connect 11 0 13 0;
#X connect 12 0 18 0;
#X connect 13 0 8 0;
#X connect 13 1 14 0;
#X connect 13 2 6 0;
#X connect 13 3 7 0;
#X connect 14 0 20 0;
#X connect 15 0 16 0;
#X connect 16 0 17 0;
#X connect 18 0 11 1;
#X connect 19 0 0 0;
#X connect 20 0 0 0;
#X connect 21 0 22 0;
#X connect 22 0 9 0;
#X connect 23 0 0 0;
#X connect 24 0 0 0;
#X restore 402 227 pd pluck;
#X obj 456 191 r \$0-midi-in;
#X obj 455 261 s \$0-midi-out;
#X connect 0 0 1 1;
#X connect 0 1 1 0;
#X connect 1 0 0 0;
#X connect 5 0 18 0;
#X connect 5 1 12 0;
#X connect 12 0 6 0;
#X connect 18 0 8 0;
#X connect 18 1 20 0;
#X connect 19 0 18 1;
#X coords 0 -1 1 1 166 80 1 100 100;
