#N canvas 0 37 1470 891 12;
#X declare -path ./babs;
#X obj 71 111 inlet~, f 10;
#X obj 138 302 outlet;
#X text 150 339 MIDI and messages dump out of right, f 13;
#X obj 71 811 outlet~;
#X obj 424 285 pack 0 0 0, f 13;
#X obj 424 165 unpack, f 13;
#X obj 424 205 poly 6 1, f 13;
#X obj 424 257 - 1;
#X obj 422 385 list prepend;
#X obj 505 330 r \$0-get-instrument;
#X obj 421 425 route 0 1 2 3, f 91;
#X obj 505 358 int;
#X msg 319 115 stop;
#X obj 425 112 r \$0-midi;
#X obj 417 679 clip~ -1 1;
#X obj 884 563 *~ 1;
#X obj 569 562 *~ 1.7;
#X obj 298 568 *~ 0.8;
#X obj 611 240 s \$0-get-instrumet;
#X obj 622 208 bng 19 250 50 0 empty empty empty 0 -10 0 12 #fcfcfc #000000 #000000;
#X obj 303 516 clone sub/instrument~/voice.harp 6;
#X obj 569 515 clone sub/instrument~/voice.glok 6;
#X obj 880 515 clone sub/instrument~/voice.marimba 6;
#X obj 1168 516 clone sub/instrument~/voice.rhodes 6;
#X obj 74 51 declare -path ./babs;
#X obj 138 226 babs.inout \$0 bop.instrument~;
#X obj 138 195 inlet;
#X obj 319 91 r \$0-get-stop;
#X obj 137 145 s \$0-in;
#X obj 183 196 r \$0-in;
#X obj 540 109 savestate;
#X obj 540 82 babs.savestate \$0;
#X text 433 135 force to 2 element list?;
#X obj 885 127 babs.param.enum \$0 instrument harp glok marimba rhodes;
#X obj 880 92 babs.param \$0 instrument 3 0 3;
#X obj 1166 566 *~ 0.25;
#X connect 0 0 3 0;
#X connect 0 1 28 0;
#X connect 4 0 8 0;
#X connect 5 0 6 0;
#X connect 5 1 6 1;
#X connect 6 0 7 0;
#X connect 6 1 4 1;
#X connect 6 2 4 2;
#X connect 7 0 4 0;
#X connect 8 0 10 0;
#X connect 9 0 11 0;
#X connect 10 0 20 0;
#X connect 10 1 21 0;
#X connect 10 2 22 0;
#X connect 10 3 23 0;
#X connect 11 0 8 1;
#X connect 12 0 6 0;
#X connect 13 0 5 0;
#X connect 14 0 3 0;
#X connect 15 0 14 0;
#X connect 16 0 14 0;
#X connect 17 0 14 0;
#X connect 19 0 18 0;
#X connect 20 0 17 0;
#X connect 21 0 16 0;
#X connect 22 0 15 0;
#X connect 23 0 35 0;
#X connect 25 0 1 0;
#X connect 26 0 25 0;
#X connect 27 0 12 0;
#X connect 29 0 25 0;
#X connect 30 0 31 1;
#X connect 30 1 31 0;
#X connect 31 0 30 0;
#X connect 35 0 14 0;
#X coords 0 891 1 890 166 80 0;
