#N canvas -12 256 698 650 12;
#X declare -path ./bop.p;
#X obj 49 -105 inlet~, f 11;
#X obj 620 544 outlet;
#X obj 49 545 outlet~;
#X text 39 573 Signal out of left, f 9;
#X obj 139 115 pack f f f;
#X obj 139 144 route 1 2 3 4;
#X obj 139 35 unpack, f 10;
#X obj 139 73 poly 4 1, f 10;
#X obj 139 404 *~, f 9;
#X msg 66 -9 stop;
#X obj 139 7 r \$0-midi;
#X obj 49 438 +~;
#X obj 561 -161 r \$0-stop;
#X obj 715 -161 r \$0-params;
#X obj 638 -161 r \$0-midi;
#X msg 999 91 saw square pulse sinepulse halfpulse res-saw res-triangle res-trapezoid, f 27;
#X obj 335 129 bop.p.param \$0 filter 0.66;
#X obj 799 88 bop.p.param \$0 wave-1 1;
#X obj 799 125 bop.p.param \$0 wave-2 1, f 26;
#X obj 799 162 bop.p.param \$0 attack 0.1;
#X obj 799 200 bop.p.param \$0 decay 0.3;
#X obj 799 238 bop.p.param \$0 sustain 0.7;
#X obj 799 276 bop.p.param \$0 release 0.2;
#X text 621 582 stop \, midi \, params \, and dump;
#X obj 816 -162 r \$0-dump;
#X obj 199 365 bop.p.param \$0 gain 1;
#X obj 43 -191 declare -path ./bop.p;
#X obj 139 193 sub/casio~/voice \$0;
#X obj 161 223 sub/casio~/voice \$0;
#X obj 184 253 sub/casio~/voice \$0;
#X obj 205 283 sub/casio~/voice \$0;
#X obj 620 -65 bop.p.inout \$0 bop.casio~;
#X obj 619 -100 inlet;
#X obj 66 -33 r \$0-get-stop;
#X connect 0 0 11 0;
#X connect 4 0 5 0;
#X connect 5 0 27 0;
#X connect 5 1 28 0;
#X connect 5 2 29 0;
#X connect 5 3 30 0;
#X connect 6 0 7 0;
#X connect 6 1 7 1;
#X connect 7 0 4 0;
#X connect 7 1 4 1;
#X connect 7 2 4 2;
#X connect 8 0 11 1;
#X connect 9 0 7 0;
#X connect 10 0 6 0;
#X connect 11 0 2 0;
#X connect 16 0 27 1;
#X connect 16 0 28 1;
#X connect 16 0 29 1;
#X connect 16 0 30 1;
#X connect 25 0 8 1;
#X connect 27 0 8 0;
#X connect 28 0 8 0;
#X connect 29 0 8 0;
#X connect 30 0 8 0;
#X connect 31 0 1 0;
#X connect 32 0 31 0;
#X connect 33 0 9 0;
#X coords 0 650 1 649 166 280 0;
