#N canvas 68 125 1274 609 12;
#X declare -path ./bop.p;
#X obj 630 69 savestate, f 17;
#X obj 629 42 bop.p.autosave \$0;
#X obj 382 144 inlet~, f 58;
#X obj 785 421 outlet;
#X text 777 447 MIDI and messages dump out of right, f 13;
#X obj 382 444 outlet~;
#X text 450 434 Signal out of left, f 9;
#X obj 785 385 bop.p.inout \$0;
#X obj 443 54 declare -path ./bop.p;
#X obj 659 293 r \$0-midi-in;
#X obj 659 371 s \$0-midi-out;
#X obj 110 140 bop.p.param \$0 volume 0;
#X obj 183 120 bop.p.toggle \$0 mute 0;
#N canvas 680 387 626 438 bop.out 0;
#X obj 48 514 outlet~;
#X obj 87 45 inlet~;
#X obj 342 60 inlet;
#X obj 344 170 outlet;
#X obj 149 46 inlet~;
#X obj 88 203 *~;
#X obj 148 202 *~;
#N canvas 495 63 405 314 switch 0;
#X obj 118 164 *~;
#X obj 154 43 inlet~;
#X obj 50 43 inlet~;
#X obj 50 246 outlet~;
#X obj 118 246 outlet~;
#X obj 154 193 *~;
#X obj 190 99 expr~ $v1 == 10000;
#X obj 172 164 -~;
#X obj 202 129 sig~ 1;
#X text 223 166 Check if signal is connected to right inlet and distribute left input to both outputs if not., f 20;
#X connect 0 0 4 0;
#X connect 1 0 5 0;
#X connect 1 0 6 0;
#X connect 2 0 0 0;
#X connect 2 0 3 0;
#X connect 5 0 4 0;
#X connect 6 0 0 1;
#X connect 6 0 7 1;
#X connect 7 0 5 1;
#X connect 8 0 7 0;
#X restore 88 129 pd switch;
#X obj 113 485 dac~;
#X obj 148 451 hip~ 3;
#X obj 88 451 hip~ 3;
#X obj 181 85 r~ \$0-get-volume;
#X obj 88 410 *~;
#X obj 148 409 *~;
#X obj 167 515 outlet~;
#X obj 181 257 r \$0-get-mute;
#X obj 177 156 pow~ 3;
#X obj 181 347 line~;
#X obj 181 283 expr 1 - $f1;
#X msg 181 321 \$1 50;
#X msg 285 413 \; pd dsp 1;
#X obj 332 377 loadbang;
#X obj 307 269 r \$0-get-volume;
#X obj 284 328 max;
#X obj 284 352 > 0;
#X obj 284 376 sel 1;
#X connect 1 0 7 0;
#X connect 2 0 3 0;
#X connect 4 0 7 1;
#X connect 5 0 12 0;
#X connect 6 0 13 0;
#X connect 7 0 5 0;
#X connect 7 1 6 0;
#X connect 9 0 8 1;
#X connect 9 0 14 0;
#X connect 10 0 8 0;
#X connect 10 0 0 0;
#X connect 11 0 16 0;
#X connect 12 0 10 0;
#X connect 13 0 9 0;
#X connect 15 0 18 0;
#X connect 16 0 6 1;
#X connect 16 0 5 1;
#X connect 17 0 13 1;
#X connect 17 0 12 1;
#X connect 18 0 19 0;
#X connect 18 0 23 0;
#X connect 19 0 17 0;
#X connect 21 0 20 0;
#X connect 22 0 23 0;
#X connect 23 0 24 0;
#X connect 24 0 25 0;
#X connect 25 0 20 0;
#X restore 382 335 pd bop.out;
#X f 40;
#X obj 519 238 inlet~;
#X text 388 174 Signal \, MIDI \, and messages in left, f 13;
#X text 576 230 optional right channel, f 15;
#X obj 520 447 outlet~;
#X text 582 440 Right signal out of middle, f 15;
#X obj 518 179 loadbang;
#X msg 518 203 10000;
#X connect 0 0 1 1;
#X connect 0 1 1 0;
#X connect 1 0 0 0;
#X connect 2 0 13 0;
#X connect 2 1 7 0;
#X connect 7 0 3 0;
#X connect 9 0 13 2;
#X connect 13 0 5 0;
#X connect 13 1 17 0;
#X connect 13 2 10 0;
#X connect 14 0 13 1;
#X connect 19 0 20 0;
#X connect 20 0 14 0;
#X coords 0 -1 1 1 166 70 1 100 100;
