#N canvas 0 37 735 891 12;
#X declare -path ./bop.p;
#X obj 1016 167 bop.p.param \$0 fm;
#X obj 82 113 inlet~, f 34;
#X obj 316 360 outlet;
#X obj 82 1362 outlet~;
#X text 95 140 signal2 is FM;
#X text 66 81 midi and messages in;
#X obj 82 1330 +~;
#X obj 1016 327 bop.p.param \$0 lfo-speed 0.25;
#X obj 1016 347 bop.p.param \$0 lfo-depth 0;
#X obj 1016 377 bop.p.param \$0 gain 0.75;
#X obj 462 100 inlet~ FM, f 12;
#X obj 145 202 r \$0-midi;
#X obj 1016 77 bop.p.param \$0 frequency 333;
#X obj 1016 97 bop.p.param \$0 dividend 1;
#X obj 1016 117 bop.p.param \$0 divisor 1;
#X obj 1016 137 bop.p.param \$0 detune;
#X obj 1089 197 bop.p.param \$0 envelope 1;
#X obj 742 355 *~;
#X obj 658 136 +~;
#X obj 696 194 *~;
#X obj 656 242 +~;
#X obj 465 771 *~, f 14;
#X obj 465 487 osc~;
#X obj 465 390 +~, f 40;
#X obj 465 350 *~;
#X obj 655 573 osc~ 0.5;
#X obj 655 698 *~;
#X obj 560 698 sig~ 1;
#X obj 560 734 -~, f 14;
#X obj 655 611 expr~ $v1 * 0.5 + 0.5;
#X obj 465 1205 *~;
#X obj 465 1065 *~, f 21;
#X obj 645 809 r \$0-velocity;
#X obj 143 310 mtof;
#X obj 143 270 unpack, f 10;
#X obj 210 322 s \$0-velocity;
#X obj 143 383 s \$0-set-frequency;
#X obj 657 76 r~ \$0-get-frequency;
#X obj 713 117 r~ \$0-get-detune;
#X obj 713 148 /~ 10000;
#X obj 813 183 r~ \$0-get-dividend;
#X obj 851 209 r~ \$0-get-divisor;
#X obj 812 250 /~, f 6;
#X obj 481 175 r~ \$0-get-fm;
#X obj 481 214 *~ 10;
#X obj 482 250 pow~ 4;
#X obj 655 499 r~ \$0-get-lfo-speed;
#X obj 655 522 pow~ 4;
#X obj 655 546 *~ 20;
#X obj 673 641 r~ \$0-get-lfo-depth;
#X obj 504 1170 r~ \$0-get-gain;
#X msg 143 347 \$1 0;
#X obj 481 963 expr~ 1 - $v1;
#X obj 627 963 *~;
#X obj 609 1028 +~;
#X obj 481 860 r \$0-get-envelope;
#X msg 481 886 \$1 5;
#X obj 481 912 line~;
#X obj 708 873 r \$1-get-sustain;
#X obj 732 894 r \$1-get-release;
#X obj 666 831 r \$0-get-attack;
#X obj 689 852 r \$0-get-decay;
#X obj 645 922 bop.p.adsr~;
#X obj 1004 423 bop.p.param \$0 attack 0.1;
#X obj 1010 472 bop.p.param \$0 decay 0.3;
#X obj 1013 510 bop.p.param \$0 sustain 0.7;
#X obj 1022 552 bop.p.param \$0 release 0.2;
#X obj 175 41 declare -path ./bop.p;
#X obj 317 152 bop.p.inout \$0 bop.fm~;
#X connect 1 0 6 0;
#X connect 1 1 68 0;
#X connect 6 0 3 0;
#X connect 10 0 24 0;
#X connect 11 0 34 0;
#X connect 17 0 23 1;
#X connect 18 0 19 0;
#X connect 18 0 20 0;
#X connect 19 0 20 1;
#X connect 20 0 17 0;
#X connect 21 0 31 0;
#X connect 22 0 21 0;
#X connect 23 0 22 0;
#X connect 24 0 23 0;
#X connect 25 0 29 0;
#X connect 26 0 28 1;
#X connect 27 0 28 0;
#X connect 28 0 21 1;
#X connect 29 0 26 0;
#X connect 30 0 6 1;
#X connect 31 0 30 0;
#X connect 32 0 62 0;
#X connect 33 0 51 0;
#X connect 34 0 33 0;
#X connect 34 1 35 0;
#X connect 37 0 18 0;
#X connect 38 0 39 0;
#X connect 39 0 19 1;
#X connect 40 0 42 0;
#X connect 41 0 42 1;
#X connect 42 0 17 1;
#X connect 43 0 44 0;
#X connect 44 0 45 0;
#X connect 45 0 24 1;
#X connect 46 0 47 0;
#X connect 47 0 48 0;
#X connect 48 0 25 0;
#X connect 49 0 26 1;
#X connect 50 0 30 1;
#X connect 51 0 36 0;
#X connect 52 0 54 0;
#X connect 53 0 54 1;
#X connect 54 0 31 1;
#X connect 55 0 56 0;
#X connect 56 0 57 0;
#X connect 57 0 53 0;
#X connect 57 0 52 0;
#X connect 58 0 62 3;
#X connect 59 0 62 4;
#X connect 60 0 62 1;
#X connect 61 0 62 2;
#X connect 62 0 53 1;
#X connect 68 0 2 0;
#X coords 0 891 1 890 166 340 0;
