#N canvas 0 37 1470 891 12;
#X declare -path ./bop.p;
#X obj 71 111 inlet~, f 10;
#X obj 138 252 outlet;
#X text 150 289 MIDI and messages dump out of right, f 13;
#X obj 71 811 outlet~;
#X obj 424 285 pack 0 0 0, f 13;
#X obj 424 165 unpack, f 13;
#X obj 424 205 poly 6 1, f 13;
#X obj 424 257 - 1;
#X obj 422 385 list prepend;
#X obj 505 330 r \$0-get-instrument;
#X obj 421 425 route 0 1 2 3, f 91;
#X msg 1031 163 list harp glok marimba rhodes;
#X obj 505 358 int;
#X obj 1166 566 *~ 0.35;
#X msg 319 115 stop;
#X obj 425 112 r \$0-midi;
#X obj 680 128 bop.p.param \$0 instrument 3;
#X obj 417 679 clip~ -1 1;
#X obj 884 563 *~ 1;
#X obj 569 562 *~ 1.7;
#X obj 298 568 *~ 0.8;
#X obj 908 304 bop.p.nth, f 10;
#X obj 908 78 r \$0-get-instrument;
#X obj 908 106 int;
#X obj 908 352 list trim;
#X obj 908 376 s \$0-out;
#X obj 163 214 r \$0-out;
#X obj 908 130 t b f b, f 18;
#X obj 1007 220 list length;
#X obj 975 273 clip 0;
#X obj 1014 248 - 1;
#X obj 907 271 list;
#X obj 932 189 t l l;
#X obj 908 328 list prepend instrumentname;
#X obj 611 240 s \$0-get-instrumet;
#X obj 622 208 bng 19 250 50 0 empty empty empty 0 -10 0 12 #fcfcfc #000000 #000000;
#X obj 303 516 clone sub/instrument~/voice.harp 6;
#X obj 569 515 clone sub/instrument~/voice.glok 6;
#X obj 880 515 clone sub/instrument~/voice.marimba 6;
#X obj 1168 516 clone sub/instrument~/voice.rhodes 6;
#X obj 74 51 declare -path ./bop.p;
#X obj 138 176 bop.p.inout \$0 bop.instrument~;
#X obj 138 145 inlet;
#X obj 319 91 r \$0-get-stop;
#X connect 0 0 3 0;
#X connect 4 0 8 0;
#X connect 5 0 6 0;
#X connect 5 1 6 1;
#X connect 6 0 7 0;
#X connect 6 1 4 1;
#X connect 6 2 4 2;
#X connect 7 0 4 0;
#X connect 8 0 10 0;
#X connect 9 0 12 0;
#X connect 10 0 36 0;
#X connect 10 1 37 0;
#X connect 10 2 38 0;
#X connect 10 3 39 0;
#X connect 11 0 32 0;
#X connect 12 0 8 1;
#X connect 13 0 17 0;
#X connect 14 0 6 0;
#X connect 15 0 5 0;
#X connect 17 0 3 0;
#X connect 18 0 17 0;
#X connect 19 0 17 0;
#X connect 20 0 17 0;
#X connect 21 0 33 0;
#X connect 22 0 23 0;
#X connect 23 0 27 0;
#X connect 24 0 25 0;
#X connect 26 0 1 0;
#X connect 27 0 31 0;
#X connect 27 1 29 0;
#X connect 27 2 11 0;
#X connect 28 0 30 0;
#X connect 29 0 21 1;
#X connect 30 0 29 2;
#X connect 31 0 21 0;
#X connect 32 0 31 1;
#X connect 32 1 28 0;
#X connect 33 0 24 0;
#X connect 35 0 34 0;
#X connect 36 0 20 0;
#X connect 37 0 19 0;
#X connect 38 0 18 0;
#X connect 39 0 13 0;
#X connect 41 0 1 0;
#X connect 42 0 41 0;
#X connect 43 0 14 0;
#X coords 0 891 1 890 166 80 0;
