#N canvas 45 346 740 564 12;
#X declare -path ./bop.p;
#X obj 543 130 savestate, f 17;
#X obj 542 103 bop.p.autosave \$0;
#X obj 389 220 inlet~, f 25;
#X obj 561 400 outlet;
#X text 561 437 MIDI and messages dump out of right, f 13;
#X obj 389 410 outlet~;
#X text 379 438 Signal out of left, f 9;
#X text 385 194 Signal \, MIDI \, and messages in left, f 36;
#X obj 561 314 bop.p.inout \$0;
#X obj 356 115 declare -path ./bop.p;
#X obj 428 284 r \$0-midi-in;
#X obj 427 362 s \$0-midi-out;
#X text 370 48 ---------- bop module template -------------;
#X obj 183 150 bop.p.toggle \$0 loop 1;
#X obj 183 120 bop.p.button \$0 open;
#N canvas 613 112 857 816 seq 0;
#X obj 113 195 outlet~;
#X obj 112 82 inlet~;
#X obj 448 72 inlet;
#X obj 450 212 outlet;
#X obj 66 313 r \$0-get-open;
#X msg 66 342 click;
#X msg 170 685 line 0 \, auto;
#X msg 69 653 stop;
#X obj 69 728 text sequence \$0-seq -w -;
#X obj 280 765 r \$0-get-loop;
#X obj 241 799 spigot;
#X obj 241 830 s \$0-retrigger;
#X obj 182 651 r \$0-retrigger;
#X obj 69 788 s \$0-out;
#X obj 470 160 r \$0-out;
#X obj 241 771 bng 19 250 50 0 empty empty empty 0 -10 0 12 #fcfcfc #000000 #000000;
#X obj 69 763 list trim;
#X obj 845 124 r \$0-savestate;
#X obj 845 243 s \$0-params;
#X obj 844 214 list prepend sequence-list;
#X obj 845 154 bng 19 250 50 0 empty empty empty 0 -10 0 12 #fcfcfc #000000 #000000;
#X obj 846 406 text fromlist \$0-seq;
#X obj 846 284 r \$0-params;
#X obj 846 328 route sequence-list;
#X obj 844 185 text tolist \$0-seq;
#X obj 846 306 list trim;
#X obj 66 371 text define \$0-seq;
#X obj 846 374 list;
#X text 771 71 todo: external import/export of list;
#X text 772 56 --- store text with bop.p.autosave ---;
#X text 947 489 === \; // never return above here (brick wall header);
#X text 942 541 dashes work like comments;
#X text 941 573 === \; --- x 4 \; - 1 \; - 1 \; - 1 \; - 1 \; --- \; - 1 \; - 1 \; - 1 \; - 1 \; --- xx 2 \; - 1 \; - 1 \; - 1 \; - 1 \; --- \; - 1 \; - 1 \; --- xxx 8 \; - 1 \; - 1 \; --- \;, f 27;
#X obj 705 590 r \$0-get-dump;
#X obj 497 306 route bop.seq;
#X obj 171 618 r \$0-get-go;
#X obj 69 617 r \$0-get-stop;
#X obj 514 391 print IMPORTING;
#X text 518 429 specify another text by name or pointer, f 19;
#X obj 704 659 \$0;
#X obj 705 628 bng 19 250 50 0 empty empty empty 0 -10 0 12 #fcfcfc #000000 #000000;
#X obj 705 703 makefilename %i-seq;
#X obj 704 733 list prepend bop.seq;
#X listbox 702 756 20 0 0 0 - - - 0;
#X obj 700 782 list trim;
#X obj 703 818 s \$0-out;
#X obj 497 279 r \$0-params;
#X msg 515 486 symbol bop.seq 1218-seq;
#X obj 127 277 send \$0-hi;
#X msg 498 538 symbol bop.seq 1218-seq;
#X text 629 366 IMPORT NOT WORKING;
#X obj 354 566 text set \$0-seq;
#X text 573 675 export seems to work but is name right?;
#X obj 450 496 symbol;
#X connect 1 0 0 0;
#X connect 2 0 3 0;
#X connect 4 0 5 0;
#X connect 5 0 26 0;
#X connect 6 0 8 0;
#X connect 7 0 8 0;
#X connect 8 0 16 0;
#X connect 8 2 15 0;
#X connect 9 0 10 1;
#X connect 10 0 11 0;
#X connect 12 0 6 0;
#X connect 14 0 3 0;
#X connect 15 0 10 0;
#X connect 16 0 13 0;
#X connect 17 0 20 0;
#X connect 19 0 18 0;
#X connect 20 0 24 0;
#X connect 22 0 25 0;
#X connect 23 0 27 0;
#X connect 24 0 19 0;
#X connect 25 0 23 0;
#X connect 27 0 21 0;
#X connect 33 0 40 0;
#X connect 34 0 37 0;
#X connect 34 0 53 0;
#X connect 35 0 6 0;
#X connect 36 0 7 0;
#X connect 39 0 41 0;
#X connect 40 0 39 0;
#X connect 41 0 42 0;
#X connect 42 0 43 0;
#X connect 43 0 44 0;
#X connect 44 0 45 0;
#X connect 46 0 34 0;
#X connect 47 0 51 3;
#X connect 49 0 51 3;
#X connect 53 0 51 3;
#X restore 389 321 pd seq;
#X obj 183 170 bop.p.button \$0 dump;
#X obj 110 170 bop.p.button \$0 stop;
#X obj 110 150 bop.p.button \$0 go;
#X connect 0 0 1 1;
#X connect 0 1 1 0;
#X connect 1 0 0 0;
#X connect 2 0 15 0;
#X connect 2 1 8 0;
#X connect 8 0 3 0;
#X connect 10 0 15 1;
#X connect 15 0 5 0;
#X connect 15 1 11 0;
#X coords 0 -1 1 1 166 100 1 100 100;
