#N canvas 662 336 336 274 12;
#X obj 41 125 bop.out~;
#A saved mute 0;
#A saved volume 0;
#N canvas 609 279 450 300 generate 0;
#X obj 209 40 inlet;
#X obj 76 165 outlet~;
#X obj 207 164 outlet;
#X obj 73 105 noise~ 0.2;
#X obj 78 129 *~ 0.15;
#X msg 208 120 volume \$1 1000;
#X connect 0 0 5 0;
#X connect 3 0 4 0;
#X connect 4 0 1 0;
#X connect 5 0 2 0;
#X restore 41 71 pd generate;
#X obj 41 34 tgl 19 0 empty empty empty 0 -10 0 12 #fcfcfc #000000 #000000 0 1;
#X obj 200 215 print;
#X text 210 118 < optional right channel, f 13;
#X text 118 200 ^ Right channel output, f 8;
#X connect 0 2 3 0;
#X connect 1 0 0 0;
#X connect 1 1 0 0;
#X connect 2 0 1 0;
