#N canvas 5 42 1235 712 12;
#X declare -path ./bop.p;
#X obj 39 102 inlet~, f 9;
#X obj 141 253 outlet;
#X obj 42 232 outlet~;
#X text 151 132 < midi and messages;
#X obj 1009 235 bop.p.param \$0 velocity 0.888;
#X obj 1009 255 bop.p.param \$0 duration 0.444;
#X obj 1009 185 bop.p.param \$0 root 46;
#X obj 1009 205 bop.p.param \$0 octaves 3;
#X obj 1249 500 text define \$0-chords;
#X obj 946 370 loadbang;
#X obj 962 700 text sequence \$0-chords;
#X msg 962 669 line 0 \, bang;
#X obj 949 540 bng 19 250 50 0 empty empty empty 0 -10 0 12 #fcfcfc #000000 #000000;
#X obj 949 609 t b b b, f 18;
#X obj 949 764 bop.p.accum, f 18;
#X msg 962 733 \$1;
#X obj 1171 699 list split 1;
#X obj 1211 765 text define \$0-notes;
#X obj 1171 670 text sequence \$0-chords;
#X msg 1171 639 line 0 \, bang;
#X obj 1343 670 text delete \$0-notes;
#X obj 1171 540 bng 19 250 50 0 empty empty empty 0 -10 0 12 #fcfcfc #000000 #000000;
#X obj 1171 606 t b b, f 25;
#X obj 387 484 text get \$0-notes;
#X obj 513 54 r \$0-numnotes;
#X obj 513 85 - 1;
#X obj 948 403 bng 19 250 50 0 empty empty empty 0 -10 0 12 #fcfcfc #000000 #000000;
#X msg 1341 637 -1;
#X obj 416 634 list length;
#X obj 1212 735 text set \$0-notes 1e+10;
#X obj 416 670 s \$0-numnotes;
#X obj 355 245 int;
#X obj 355 269 change;
#X obj 362 744 bop.p.nth, f 27;
#X floatatom 362 768 5 0 0 0 - - - 0;
#X floatatom 386 450 5 0 0 0 - - - 0;
#X obj 357 357 t b f, f 28;
#X obj 541 817 r \$0-get-duration;
#X obj 541 841 pow 2;
#X obj 541 865 * 5000;
#X obj 362 969 makenote 127 100, f 26;
#X text 401 855 < scale offset;
#X obj 382 825 r \$0-get-root;
#X obj 361 857 + 0;
#X obj 362 1056 pack;
#N canvas 42 117 783 792 scalemaker 0;
#X obj 241 100 inlet;
#X obj 265 757 outlet;
#X obj 311 322 bng 15 250 50 0 empty empty empty 17 7 0 10 #fcfcfc #000000 #000000;
#X floatatom 372 459 5 0 0 0 - - - 0;
#X obj 414 449 + 12;
#X obj 311 379 t b b;
#X obj 355 651 + 0;
#X msg 372 377 set 0;
#X obj 549 321 bng 15 250 50 0 empty empty empty 17 7 0 10 #fcfcfc #000000 #000000;
#X floatatom 241 179 5 0 0 0 - - - 0;
#X obj 241 205 t b f b, f 52;
#X msg 415 479 set \$1;
#X obj 310 284 until;
#X obj 278 576 bop.p.iter;
#X obj 81 47 inlet;
#X obj 81 113 t b l, f 8;
#X obj 241 124 int;
#X obj 291 469 list;
#X obj 265 704 bop.p.accum, f 45;
#X connect 0 0 16 0;
#X connect 2 0 5 0;
#X connect 3 0 4 0;
#X connect 3 0 6 1;
#X connect 4 0 11 0;
#X connect 5 0 17 0;
#X connect 5 1 3 0;
#X connect 6 0 18 0;
#X connect 7 0 3 0;
#X connect 8 0 7 0;
#X connect 9 0 10 0;
#X connect 10 0 18 0;
#X connect 10 1 12 0;
#X connect 10 2 8 0;
#X connect 10 2 18 1;
#X connect 11 0 3 0;
#X connect 12 0 2 0;
#X connect 13 0 6 0;
#X connect 14 0 15 0;
#X connect 15 0 9 0;
#X connect 15 1 17 1;
#X connect 16 0 9 0;
#X connect 17 0 13 0;
#X connect 18 0 1 0;
#X restore 387 582 pd scalemaker;
#X obj 413 533 r \$0-get-octaves;
#X obj 362 676 list;
#X obj 355 151 bop.p.scale 0 1 -0.05 5;
#X obj 355 184 moses 0;
#X obj 513 119 + 0.05;
#X obj 355 313 moses 0;
#X msg 355 214 -1;
#X text 451 219 handle high and low retriggering;
#X obj 386 390 r \$0-get-chord;
#X obj 398 902 r \$0-get-velocity;
#X obj 398 926 * 127;
#N canvas 571 261 625 571 shuffle 0;
#X obj 130 44 inlet;
#X obj 242 49 inlet;
#X obj 178 521 outlet;
#X obj 214 211 t f f;
#X obj 214 275 pack;
#X obj 212 241 % 2;
#X text 253 227 even = 0 \; odd = 1 \;;
#X obj 214 304 route 0 1;
#X obj 214 328 + 1;
#X obj 245 329 - 1;
#X obj 178 156 route 0 1;
#X obj 166 99 list prepend;
#X obj 212 188 + 1;
#X obj 337 77 inlet;
#X obj 214 376 -1;
#X obj 364 423 * -1;
#X obj 214 450 +;
#X obj 213 402 t f f;
#X obj 364 399 >=;
#X obj 364 447 - 1;
#X obj 217 488 max 0;
#X connect 0 0 11 0;
#X connect 1 0 11 1;
#X connect 3 0 5 0;
#X connect 3 1 4 1;
#X connect 4 0 7 0;
#X connect 5 0 4 0;
#X connect 7 0 8 0;
#X connect 7 1 9 0;
#X connect 8 0 14 0;
#X connect 9 0 14 0;
#X connect 10 0 2 0;
#X connect 10 1 12 0;
#X connect 11 0 10 0;
#X connect 12 0 3 0;
#X connect 13 0 18 1;
#X connect 14 0 17 0;
#X connect 15 0 19 0;
#X connect 16 0 20 0;
#X connect 17 0 16 0;
#X connect 17 1 18 0;
#X connect 18 0 15 0;
#X connect 19 0 16 1;
#X connect 20 0 2 0;
#X restore 549 549 pd shuffle;
#X obj 584 468 r \$0-get-shuffle;
#X obj 386 414 int;
#X text 1030 368 Read chords from texfile \; prepare notes for indexed access \; set enum label for ui \;;
#X obj 949 430 t b b b, f 64;
#X obj 540 1002 int;
#X msg 261 928 stop;
#X obj 749 113 bop.p.onlist;
#X text 760 139 LIST OF HELD NOTES;
#X listbox 749 166 20 0 0 0 - - - 0;
#X obj 749 70 r \$0-midi;
#X obj 840 827 list, f 16;
#X obj 840 907 bop.p.nth, f 10;
#X obj 838 725 r \$0-get-chord;
#X obj 838 749 int;
#X obj 840 778 t b f, f 10;
#X text 678 47 run off of frets or semisteps instead?;
#X obj 1010 150 bop.p.param \$0 shuffle 1;
#X obj 1216 75 loadbang;
#X msg 1216 123 chord 0;
#X obj 1216 147 s \$0-params;
#X obj 1009 105 bop.p.param \$0 chord;
#X obj 617 508 r \$0-numnotes;
#X obj 1216 99 delay 5;
#X obj 840 955 list trim;
#X obj 362 1085 s \$0-out;
#X obj 840 985 s \$0-out;
#X obj 840 931 list prepend chordname;
#X obj 158 218 r \$0-out;
#X obj 47 46 declare -path ./bop.p;
#X msg 1249 469 read sub/strum/chords.txt;
#X obj 141 176 bop.p.inout \$0 bop.strum;
#X obj 355 46 r \$0-get-strum;
#X obj 1009 75 bop.p.param \$0 strum;
#X obj 140 96 inlet;
#X obj 261 904 r \$0-get-stop;
#X obj 71 145 s \$0-in;
#X obj 191 98 r \$0-in;
#X connect 0 0 2 0;
#X connect 0 1 93 0;
#X connect 9 0 26 0;
#X connect 10 0 15 0;
#X connect 11 0 10 0;
#X connect 12 0 13 0;
#X connect 13 0 14 0;
#X connect 13 1 11 0;
#X connect 13 2 14 1;
#X connect 14 0 68 1;
#X connect 15 0 14 0;
#X connect 16 1 29 0;
#X connect 18 0 16 0;
#X connect 19 0 18 0;
#X connect 21 0 22 0;
#X connect 22 0 19 0;
#X connect 22 1 27 0;
#X connect 23 0 45 0;
#X connect 24 0 25 0;
#X connect 25 0 50 0;
#X connect 26 0 61 0;
#X connect 27 0 20 0;
#X connect 28 0 30 0;
#X connect 31 0 32 0;
#X connect 32 0 51 0;
#X connect 33 0 34 0;
#X connect 34 0 43 0;
#X connect 35 0 23 0;
#X connect 36 0 47 0;
#X connect 36 1 57 0;
#X connect 37 0 38 0;
#X connect 38 0 39 0;
#X connect 39 0 40 2;
#X connect 40 0 44 0;
#X connect 40 1 62 0;
#X connect 42 0 43 1;
#X connect 43 0 40 0;
#X connect 44 0 82 0;
#X connect 45 0 47 1;
#X connect 45 0 28 0;
#X connect 46 0 45 1;
#X connect 47 0 33 0;
#X connect 48 0 49 0;
#X connect 49 0 52 0;
#X connect 49 1 31 0;
#X connect 50 0 48 4;
#X connect 51 1 36 0;
#X connect 52 0 31 0;
#X connect 54 0 59 0;
#X connect 55 0 56 0;
#X connect 56 0 40 1;
#X connect 57 0 33 1;
#X connect 58 0 57 1;
#X connect 59 0 35 0;
#X connect 61 0 12 0;
#X connect 61 1 21 0;
#X connect 61 2 87 0;
#X connect 62 0 44 1;
#X connect 63 0 40 0;
#X connect 64 0 66 0;
#X connect 67 0 64 0;
#X connect 68 0 69 0;
#X connect 69 0 84 0;
#X connect 70 0 71 0;
#X connect 71 0 72 0;
#X connect 72 0 68 0;
#X connect 72 1 69 1;
#X connect 75 0 80 0;
#X connect 76 0 77 0;
#X connect 79 0 57 2;
#X connect 80 0 76 0;
#X connect 81 0 83 0;
#X connect 84 0 81 0;
#X connect 85 0 1 0;
#X connect 87 0 8 0;
#X connect 88 0 1 0;
#X connect 89 0 48 0;
#X connect 91 0 88 0;
#X connect 92 0 63 0;
#X connect 94 0 88 0;
#X coords 0 712 1 711 166 240 0;
