#N canvas 0 37 735 891 12;
#X declare -path ./babs;
#X obj 43 105 inlet~, f 10;
#X obj 278 875 outlet;
#X text 278 912 MIDI and messages dump out of right, f 13;
#X obj 43 525 outlet~;
#X text 33 553 Signal out of left, f 9;
#X obj 591 478 babs.iter;
#X obj 591 682 makenote 100 500, f 33;
#X obj 735 568 r \$0-get-velocity;
#X obj 735 592 * 127;
#X obj 819 611 r \$0-get-duration;
#X obj 819 637 * 5000;
#X obj 592 725 pack, f 33;
#X obj 591 551 +;
#X obj 610 512 r \$0-get-root;
#X obj 495 288 t f b, f 25;
#X msg 618 633 stop;
#X obj 497 122 r \$0-get-semisteps;
#X obj 576 361 r \$0-get-hold;
#X obj 495 394 list prepend;
#X obj 495 428 route 1 0, f 28;
#X obj 341 504 babs.iter;
#X obj 341 687 poly 64 1, f 15;
#X obj 341 566 +;
#X obj 359 537 r \$0-get-root;
#X obj 443 613 r \$0-get-velocity;
#X obj 443 637 * 127;
#X obj 360 633 r \$0-stop;
#X obj 392 729 pack, f 8;
#X obj 702 270 r \$0-get-hold;
#X obj 702 294 sel 0;
#X text 604 451 hold off;
#X text 501 453 hold on;
#X msg 360 658 stop;
#X obj 495 324 babs.steps2tones;
#X obj 667 326 s \$0-noteoff;
#X obj 600 584 r \$0-noteoff;
#X obj 352 606 r \$0-noteoff;
#X obj 46 45 declare -path ./babs;
#X obj 278 199 babs.inout \$0 bop.semisteps;
#X obj 282 140 inlet;
#X obj 618 609 r \$0-get-stop;
#X obj 123 154 s \$0-in;
#X obj 206 157 r \$0-in;
#X obj 241 64 savestate;
#X obj 241 37 babs.savestate \$0;
#X obj 577 146 loadbang;
#X obj 577 170 delay 10;
#X msg 577 194 1;
#X msg 610 197 0;
#X text 647 176 prevent output on load;
#X obj 495 226 babs.gate 0;
#X obj 824 223 babs.param \$0 velocity 0.75;
#X obj 826 199 babs.param \$0 duration 0.25;
#X obj 828 172 babs.param \$0 hold 0 0 1;
#X obj 846 127 babs.param.spacer \$0;
#X obj 828 78 babs.param \$0 root 42 -64 64;
#X obj 815 54 babs.param.spacer \$0;
#X obj 820 30 babs.param \$0 semisteps 0.43 -1e+37 1e+37;
#X connect 0 0 3 0;
#X connect 0 1 41 0;
#X connect 5 0 12 0;
#X connect 6 0 11 0;
#X connect 6 1 11 1;
#X connect 7 0 8 0;
#X connect 8 0 6 1;
#X connect 9 0 10 0;
#X connect 10 0 6 2;
#X connect 11 0 1 0;
#X connect 12 0 6 0;
#X connect 13 0 12 1;
#X connect 14 0 33 0;
#X connect 14 1 34 0;
#X connect 15 0 6 0;
#X connect 16 0 50 0;
#X connect 17 0 18 1;
#X connect 18 0 19 0;
#X connect 19 0 20 0;
#X connect 19 1 5 0;
#X connect 20 0 22 0;
#X connect 21 1 27 0;
#X connect 21 2 27 1;
#X connect 22 0 21 0;
#X connect 23 0 22 1;
#X connect 24 0 25 0;
#X connect 25 0 21 1;
#X connect 26 0 32 0;
#X connect 27 0 1 0;
#X connect 28 0 29 0;
#X connect 29 0 34 0;
#X connect 32 0 21 0;
#X connect 33 0 18 0;
#X connect 35 0 15 0;
#X connect 36 0 32 0;
#X connect 38 0 1 0;
#X connect 39 0 38 0;
#X connect 40 0 15 0;
#X connect 42 0 38 0;
#X connect 43 0 44 1;
#X connect 43 1 44 0;
#X connect 44 0 43 0;
#X connect 45 0 46 0;
#X connect 46 0 47 0;
#X connect 47 0 50 1;
#X connect 48 0 50 1;
#X connect 50 0 14 0;
#X coords 0 891 1 890 166 150 0;
