#N canvas 219 37 1085 891 12;
#X declare -path ./bop.p;
#X obj 79 151 inlet~, f 9;
#X obj 314 331 outlet;
#X obj 79 801 outlet~;
#X obj 720 682 bop.p.param \$0 slide 0;
#X obj 772 498 bop.p.param \$0 q 0.5;
#X obj 552 642 bop.p.param \$0 gain 1;
#X obj 772 383 bop.p.param \$0 noise 0;
#X obj 723 642 bop.p.param \$0 mono 0;
#X obj 772 438 bop.p.param \$0 cutoff 2600;
#X obj 188 481 route 1 2 3 4;
#X obj 314 411 r \$0-get-mono;
#X obj 185 441 bop.p.monopoly \$0 4;
#X obj 97 674 hip~ 5;
#X obj 79 728 +~;
#X obj 523 385 bop.p.param \$0 attack 0.1;
#X obj 529 434 bop.p.param \$0 decay 0.3;
#X obj 532 472 bop.p.param \$0 sustain 0.7;
#X obj 541 514 bop.p.param \$0 release 0.2;
#X obj 526 99 bop.p.param \$0 osc1-tune 0;
#X obj 524 176 bop.p.param \$0 osc1-gain 1;
#X obj 795 99 bop.p.param \$0 osc2-tune 0;
#X obj 796 180 bop.p.param \$0 osc2-gain 1;
#X obj 187 396 r \$0-midi;
#X obj 530 71 bop.p.param \$0 osc1-wave 1;
#X obj 793 70 bop.p.param \$0 osc2-wave 3;
#X obj 329 293 r \$0-out;
#X obj 522 261 bop.p.param \$0 osc1-pulsewidth 0.5;
#X obj 791 257 bop.p.param \$0 osc2-pulsewidth 0.5;
#X obj 46 66 declare -path ./bop.p;
#X obj 188 520 sub/synth~/voice \$0;
#X obj 198 550 sub/synth~/voice \$0;
#X obj 208 579 sub/synth~/voice \$0;
#X obj 218 608 sub/synth~/voice \$0;
#X obj 314 245 bop.p.inout \$0 bop.synth~;
#X obj 314 184 inlet;
#X obj 123 194 s \$0-in;
#X obj 370 185 r \$0-in;
#X obj 515 36 bop.p.param.enum \$0 osc1-wave sine triangle saw pulse;
#X obj 904 37 bop.p.param.enum \$0 osc2-wave sine triangle saw pulse;
#X connect 0 0 13 0;
#X connect 0 1 35 0;
#X connect 9 0 29 0;
#X connect 9 1 30 0;
#X connect 9 2 31 0;
#X connect 9 3 32 0;
#X connect 10 0 11 1;
#X connect 11 0 9 0;
#X connect 12 0 13 1;
#X connect 13 0 2 0;
#X connect 22 0 11 0;
#X connect 25 0 1 0;
#X connect 29 0 12 0;
#X connect 30 0 12 0;
#X connect 31 0 12 0;
#X connect 32 0 12 0;
#X connect 33 0 1 0;
#X connect 34 0 33 0;
#X connect 36 0 33 0;
#X coords 0 891 1 890 322 280 0;
