#N canvas 161 74 1222 844 12;
#X declare -path ./babs;
#X obj 332 170 outlet;
#X obj 331 41 declare -path ./babs;
#X obj 332 113 s \$0-in;
#X obj 245 100 bng 15 250 50 0 \$0-build empty update -48 10 0 12 #fcfcfc #000000 #000000;
#X obj 835 58 r \$0-build;
#X obj 835 82 t b b b, f 22;
#X msg 953 219 dump;
#X obj 332 84 inlet;
#X obj 332 142 r \$0-out;
#X obj 953 251 s \$0-out;
#X obj 787 389 route param enum msg attr;
#X msg 986 120 clear;
#X obj 910 179 t b b b, f 18;
#X text 833 21 sub/gui/param \$0 gain;
#N canvas 217 152 701 445 \$0-controls 0;
#X obj 12 12 sub/gui/param 18645 wave-2;
#X obj 12 34 sub/gui/param 18645 wave-1;
#X obj 12 56 sub/gui/param 18645 gain;
#X obj 12 78 sub/gui/param 18645 release;
#X obj 12 100 sub/gui/param 18645 sustain;
#X obj 12 122 sub/gui/param 18645 decay;
#X obj 12 144 sub/gui/param 18645 attack;
#X obj 12 166 sub/gui/param 18645 filter;
#X coords 0 -1 1 1 150 178 1 10 10;
#X restore 105 130 pd \$0-controls;
#X msg 1036 286 1;
#X obj 787 351 babs.gate 0, f 18;
#X msg 910 285 0;
#N canvas 184 157 450 300 receive-dump 0;
#X obj 157 208 outlet;
#X obj 119 30 r \$0-in;
#X obj 119 61 route list bang float symbol, f 16;
#X obj 117 109 list;
#X obj 117 136 list split 1;
#X obj 157 168 list trim;
#X connect 1 0 2 0;
#X connect 2 4 3 0;
#X connect 3 0 4 0;
#X connect 4 1 5 0;
#X connect 5 0 0 0;
#X restore 787 314 pd receive-dump;
#X obj 1036 211 t b b, f 12;
#X obj 986 148 s pd-\$0-controls;
#X obj 917 477 babs.counter, f 29;
#X obj 787 435 t a b, f 19;
#X obj 787 489 unpack s f;
#X obj 787 632 t l l, f 35;
#X obj 787 569 pack s f f \$0, f 30;
#X text 796 601 paramname value ypos \$0;
#X msg 1030 722 obj 12 \$1 sub/gui/param \$2 \$3;
#X msg 1030 663 \$3 \$4 \$1;
#X obj 1030 757 s pd-\$0-controls;
#X msg 1117 323 0;
#X text 1033 689 position \, \$0 \, param name;
#X text 792 689 param value \, \$0 \, param name;
#X msg 787 666 \$2 \$4 \$1;
#X obj 787 715 unpack f f s;
#X obj 826 748 pack f s;
#X obj 787 810 s, f 6;
#X msg 826 772 symbol \$1-set-\$2;
#X obj 936 507 s \$0-numelements;
#X obj 507 41 namecanvas \$0-gui;
#X obj 918 537 expr $f1 * 22 + 2 + 10;
#N canvas 1 37 1470 891 resize-canvases 0;
#X obj 151 73 inlet;
#X obj 138 180 value \$0-numelements;
#X text 539 361 [donecanvasdialog <x-units> <y-units> <gop> <x-from> <y-from> <x-to> <y-to> <x-size> <y-size> <x-margin> <y-margin>(;
#X text 525 427 [donecanvasdialog <args> \, dirty 0( [namecanvas \$0-myabs] | [send \$0-myabs];
#X obj 130 500 s pd-\$0-controls;
#X msg 132 462 donecanvasdialog 0 0 1 0 -1 1 1 150 \$1 10 10;
#X obj 133 425 expr ($f1 + 1) * 22 + 2;
#X text 537 519 restore 105 130 pd \$0-controls \;;
#X obj 136 216 t f f, f 41;
#X msg 420 289 donecanvasdialog 0 0 1 0 -1 1 1 160 \$1 100 100 \, dirty 0;
#X obj 420 258 expr ($f1 + 1) * 22 + 2 +37;
#X obj 423 359 s \$0-gui;
#X text 385 117 from https://forum.pdpatchrepo.info/topic/5746/change-graph-on-parent-dimentions-from-inside;
#X connect 0 0 1 0;
#X connect 1 0 8 0;
#X connect 5 0 4 0;
#X connect 6 0 5 0;
#X connect 8 0 6 0;
#X connect 8 1 10 0;
#X connect 9 0 11 0;
#X connect 10 0 9 0;
#X restore 718 195 pd resize-canvases;
#X connect 4 0 5 0;
#X connect 5 0 41 0;
#X connect 5 1 12 0;
#X connect 5 2 11 0;
#X connect 6 0 9 0;
#X connect 7 0 2 0;
#X connect 8 0 0 0;
#X connect 10 0 22 0;
#X connect 11 0 20 0;
#X connect 12 0 17 0;
#X connect 12 1 6 0;
#X connect 12 2 19 0;
#X connect 15 0 16 1;
#X connect 16 0 10 0;
#X connect 17 0 16 1;
#X connect 18 0 16 0;
#X connect 19 0 15 0;
#X connect 19 1 30 0;
#X connect 21 0 38 0;
#X connect 21 0 40 0;
#X connect 22 0 23 0;
#X connect 22 1 21 0;
#X connect 23 0 25 0;
#X connect 23 1 25 1;
#X connect 24 0 33 0;
#X connect 24 1 28 0;
#X connect 25 0 24 0;
#X connect 27 0 29 0;
#X connect 28 0 27 0;
#X connect 30 0 21 1;
#X connect 33 0 34 0;
#X connect 34 0 36 0;
#X connect 34 1 35 0;
#X connect 34 2 35 1;
#X connect 35 0 37 0;
#X connect 37 0 36 1;
#X connect 40 0 25 2;
#X coords 0 -1 1 1 160 215 1 100 100;
