#N canvas 48 108 973 761 12;
#X declare -path ./bop.p;
#X obj 637 85 savestate, f 17;
#X obj 636 58 bop.p.autosave \$0;
#X obj 483 155 inlet~, f 34;
#X obj 718 335 outlet;
#X text 718 372 MIDI and messages dump out of right, f 13;
#X obj 483 345 outlet~;
#X text 473 373 Signal out of left, f 9;
#X text 479 129 Signal \, MIDI \, and messages in left, f 36;
#X obj 718 249 bop.p.inout \$0;
#X obj 450 70 declare -path ./bop.p;
#X obj 536 219 r \$0-midi-in;
#X obj 535 297 s \$0-midi-out;
#X text 623 450 (Standard GOP width: 166);
#X obj 266 230 bop.p.adsr-params \$0;
#X obj 110 310 bop.p.param \$0 slide 0;
#X obj 240 550 bop.p.param \$0 saw 1;
#X obj 240 570 bop.p.param \$0 square 0;
#X obj 240 590 bop.p.param \$0 triangle 0;
#X obj 240 610 bop.p.param \$0 sine 0;
#X obj 110 130 bop.p.number \$0 osc-1 0;
#X obj 110 150 bop.p.enum \$0 osc-1 0;
#X obj 266 130 bop.p.number \$0 osc-2 0;
#X obj 266 150 bop.p.enum \$0 osc-2 0;
#X obj 110 170 bop.p.number \$0 osc-1-tune 0;
#X obj 266 170 bop.p.number \$0 osc-2-tune;
#X obj 110 190 bop.p.param \$0 osc-1-level 1;
#X obj 266 190 bop.p.param \$0 osc-2-level;
#X obj 110 250 bop.p.param \$0 q 0.5;
#X obj 110 230 bop.p.number \$0 cutoff 2600;
#X obj 266 320 bop.p.param \$0 gain 1;
#X obj 110 280 bop.p.param \$0 noise 0;
#N canvas 875 186 595 590 synth 0;
#X obj 32 485 outlet~;
#X obj 32 82 inlet~;
#X obj 293 82 inlet;
#X obj 295 192 outlet;
#X obj 32 446 +~;
#X obj 130 194 pack f f f;
#X obj 130 223 route 1 2 3 4;
#X obj 130 136 unpack, f 8;
#X obj 130 165 poly 4 1;
#X obj 130 262 bop.p.synth~ \$0;
#X obj 140 292 bop.p.synth~ \$0;
#X obj 150 321 bop.p.synth~ \$0;
#X obj 160 350 bop.p.synth~ \$0;
#X connect 1 0 4 0;
#X connect 2 0 3 0;
#X connect 2 0 7 0;
#X connect 4 0 0 0;
#X connect 5 0 6 0;
#X connect 6 0 9 0;
#X connect 6 1 10 0;
#X connect 6 2 11 0;
#X connect 6 3 12 0;
#X connect 7 0 8 0;
#X connect 7 1 8 1;
#X connect 8 0 5 0;
#X connect 8 1 5 1;
#X connect 8 2 5 2;
#X connect 9 0 4 1;
#X connect 10 0 4 1;
#X connect 11 0 4 1;
#X connect 12 0 4 1;
#X restore 483 256 pd synth;
#X obj 466 479 loadbang;
#X obj 476 656 s \$0-set-osc-2-enum;
#X obj 466 686 s \$0-set-osc-1-enum;
#X msg 466 503 list sine triangle saw pulse;
#X obj 496 537 list length;
#X msg 496 561 range 0 \$1;
#X obj 496 615 s \$0-set-osc-1;
#X obj 506 586 s \$0-set-osc-1;
#X connect 0 0 1 1;
#X connect 0 1 1 0;
#X connect 1 0 0 0;
#X connect 2 0 31 0;
#X connect 2 1 8 0;
#X connect 8 0 3 0;
#X connect 10 0 31 1;
#X connect 31 0 5 0;
#X connect 31 1 11 0;
#X connect 32 0 35 0;
#X connect 35 0 33 0;
#X connect 35 0 34 0;
#X connect 35 0 36 0;
#X connect 36 0 37 0;
#X connect 37 0 38 0;
#X connect 37 0 39 0;
#X coords 0 -1 1 1 322 250 1 100 100;
