#N canvas 195 109 853 706 12;
#X declare -path ./bop.p;
#X obj 592 123 savestate, f 17;
#X obj 591 96 bop.p.autosave \$0;
#X obj 438 193 inlet~, f 34;
#X obj 673 373 outlet;
#X text 673 410 MIDI and messages dump out of right, f 13;
#X obj 438 383 outlet~;
#X text 428 411 Signal out of left, f 9;
#X text 434 167 Signal \, MIDI \, and messages in left, f 36;
#X obj 673 287 bop.p.inout \$0;
#X obj 405 108 declare -path ./bop.p;
#X obj 477 257 r \$0-midi-in;
#X obj 476 335 s \$0-midi-out;
#X text 488 498 (Standard GOP width: 166);
#X text 416 565 -----------GLOBAL MESSAGES------------------;
#X msg 428 659 stop;
#X text 490 612 output all params from right outlet;
#X text 425 589 TODO....;
#X msg 428 613 get all;
#X text 472 658 flush hanging midi notes \, stop any automation;
#X obj 110 130 bop.p.number \$0 tick 0;
#X obj 183 250 bop.p.toggle \$0 loop 1;
#N canvas 103 83 1469 834 hit 0;
#X obj 53 225 outlet~;
#X obj 52 112 inlet~;
#X obj 253 162 inlet;
#X obj 255 562 outlet;
#X text 103 166 BUILD MODULE HERE;
#X obj 472 79 -;
#X obj 337 140 r \$0-get-tick;
#X obj 490 49 r \$0-get-from-loop;
#X obj 337 164 int;
#X obj 1006 209 f;
#X obj 960 209 +;
#X obj 960 164 t f b, f 7;
#X msg 1041 172 0;
#X obj 936 71 t b l b b, f 23;
#X obj 960 124 bop.p.iter;
#X obj 936 244 bop.p.accum, f 23;
#X floatatom 982 460 4 0 0 0 - - - 0;
#X obj 1042 347 list length;
#X obj 982 310 t l l, f 9;
#X obj 982 412 bop.p.nth;
#X obj 1042 371 - 1;
#X text 1017 458 set table size;
#X text 1039 567 set all values to -1;
#X text 510 379 in tick \; out index \;;
#X obj 936 278 t l b l;
#X obj 934 696 bop.p.iter;
#X obj 966 752 bop.p.counter;
#X obj 934 661 t l b, f 14;
#X obj 934 720 t f b;
#X obj 934 794 pack, f 5;
#X obj 982 490 pack f \$0;
#X msg 982 523 \; \$2-tick-list resize \$1;
#X msg 959 595 \; \$1-tick-list const -1;
#X obj 959 571 float \$0;
#X msg 934 826 \$2 \$1;
#X obj 934 860 unpack, f 21;
#X obj 982 436 + 1;
#X obj 337 382 tabread \$0-tick-list;
#X obj 934 893 tabwrite \$0-tick-list;
#X floatatom 337 406 5 0 0 0 - - - 0;
#X obj 1058 490 s \$0-total-ticks;
#X obj 374 192 r \$0-total-ticks;
#X floatatom 374 246 5 0 0 0 - - - 0;
#X floatatom 337 357 5 0 0 0 - - - 0;
#X text 385 408 index out;
#X msg 383 481 index \$1;
#X obj 337 283 %;
#X obj 723 25 cnv 19 160 76 empty empty empty 20 12 0 12 #e0e0e0 #404040 0;
#X obj 742 52 table \$0-tick-list;
#X obj 936 26 r \$0-get-hit-list;
#X msg 1054 689 0;
#X text 1080 689 index from 0;
#X obj 383 455 + 1;
#X obj 337 429 moses 0;
#X obj 337 308 + 1;
#X obj 337 188 - 1;
#X obj 374 216 - 1;
#X text 385 356 wrapped tick in;
#X connect 1 0 0 0;
#X connect 2 0 3 0;
#X connect 6 0 8 0;
#X connect 7 0 5 1;
#X connect 8 0 55 0;
#X connect 9 0 10 1;
#X connect 10 0 9 1;
#X connect 10 0 15 0;
#X connect 11 0 10 0;
#X connect 11 1 9 0;
#X connect 12 0 9 1;
#X connect 13 0 15 0;
#X connect 13 1 14 0;
#X connect 13 2 12 0;
#X connect 13 3 15 1;
#X connect 14 0 11 0;
#X connect 15 0 24 0;
#X connect 16 0 30 0;
#X connect 16 0 40 0;
#X connect 17 0 20 0;
#X connect 18 0 19 0;
#X connect 18 1 17 0;
#X connect 19 0 36 0;
#X connect 20 0 19 1;
#X connect 24 0 27 0;
#X connect 24 1 33 0;
#X connect 24 2 18 0;
#X connect 25 0 28 0;
#X connect 26 0 29 1;
#X connect 27 0 25 0;
#X connect 27 1 50 0;
#X connect 28 0 29 0;
#X connect 28 1 26 0;
#X connect 29 0 34 0;
#X connect 30 0 31 0;
#X connect 33 0 32 0;
#X connect 34 0 35 0;
#X connect 35 0 38 0;
#X connect 35 1 38 1;
#X connect 36 0 16 0;
#X connect 37 0 39 0;
#X connect 39 0 53 0;
#X connect 41 0 56 0;
#X connect 42 0 46 1;
#X connect 43 0 37 0;
#X connect 45 0 3 0;
#X connect 46 0 54 0;
#X connect 49 0 13 0;
#X connect 50 0 26 1;
#X connect 52 0 45 0;
#X connect 53 1 52 0;
#X connect 54 0 43 0;
#X connect 55 0 46 0;
#X connect 56 0 42 0;
#X restore 438 294 pd hit;
#X obj 110 150 bop.p.list \$0 hit-list;
#X connect 0 0 1 1;
#X connect 0 1 1 0;
#X connect 1 0 0 0;
#X connect 2 0 21 0;
#X connect 2 1 8 0;
#X connect 8 0 3 0;
#X connect 10 0 21 1;
#X connect 21 0 5 0;
#X connect 21 1 11 0;
#X coords 0 -1 1 1 166 100 1 100 100;
