#N canvas 705 345 691 583 12;
#X obj 246 53 inlet;
#X obj 313 52 inlet;
#X obj 238 475 outlet;
#X text 367 56 set mono bool;
#X text 181 54 midi in;
#X text 399 384 \$1 number of poly voices;
#X obj 237 251 unpack, f 8;
#X obj 237 280 poly 1 1;
#X obj 318 104 t f b;
#X obj 237 307 pack f f f;
#X obj 437 306 pack f f f;
#X obj 437 248 unpack, f 8;
#X obj 236 192 route 1 0;
#X obj 233 166 list prepend;
#X obj 351 143 s \$0-stop;
#X obj 160 250 r \$0-stop;
#X obj 359 247 r \$0-stop;
#X obj 237 372 list;
#X obj 437 277 poly \$1 1;
#X text 313 431 outputs list: \; voicenum note velocity;
#X msg 160 274 stop;
#X msg 359 271 stop;
#X connect 0 0 13 0;
#X connect 1 0 8 0;
#X connect 6 0 7 0;
#X connect 6 1 7 1;
#X connect 7 0 9 0;
#X connect 7 1 9 1;
#X connect 7 2 9 2;
#X connect 8 0 13 1;
#X connect 8 1 14 0;
#X connect 9 0 17 0;
#X connect 10 0 17 0;
#X connect 11 0 18 0;
#X connect 11 1 18 1;
#X connect 12 0 6 0;
#X connect 12 1 11 0;
#X connect 13 0 12 0;
#X connect 15 0 20 0;
#X connect 16 0 21 0;
#X connect 17 0 2 0;
#X connect 18 0 10 0;
#X connect 18 1 10 1;
#X connect 18 2 10 2;
#X connect 20 0 7 0;
#X connect 21 0 18 0;
