#N canvas 586 214 770 657 12;
#X declare -path ./bop.p;
#X obj 537 85 savestate, f 17;
#X obj 536 58 bop.p.autosave \$0;
#X obj 383 155 inlet~, f 34;
#X obj 618 335 outlet;
#X text 618 372 MIDI and messages dump out of right, f 13;
#X obj 383 345 outlet~;
#X text 373 373 Signal out of left, f 9;
#X text 379 129 Signal \, MIDI \, and messages in left, f 36;
#X obj 618 249 bop.p.inout \$0;
#X obj 350 70 declare -path ./bop.p;
#X obj 436 219 r \$0-midi-in;
#X obj 435 297 s \$0-midi-out;
#X text 433 500 (Standard GOP width: 166);
#N canvas 242 205 835 661 casio 0;
#X obj 33 480 outlet~;
#X obj 32 82 inlet~;
#X obj 293 82 inlet;
#X obj 295 192 outlet;
#X msg 454 80 list saw square pulse sinepulse halfpulse res-saw res-triangle res-trapezoid;
#X obj 454 51 loadbang;
#X obj 474 133 list length;
#X msg 474 157 range 0 \$1;
#X obj 484 186 s \$0-set-wave-1;
#X obj 474 215 s \$0-set-wave-2;
#X obj 464 254 s \$0-set-wave-1-enum;
#X obj 454 283 s \$0-set-wave-2-enum;
#X obj 32 366 +~;
#X obj 126 277 bop.p.casio~ \$0;
#X obj 126 219 pack f f f;
#X obj 126 248 route 1 2 3 4;
#X obj 136 307 bop.p.casio~ \$0;
#X obj 146 336 bop.p.casio~ \$0;
#X obj 156 365 bop.p.casio~ \$0;
#X obj 130 136 unpack;
#X obj 130 174 poly 4 1;
#X obj 51 410 r~ \$0-get-gain;
#X obj 33 451 *~;
#X obj 59 136 r \$0-stop;
#X msg 59 160 stop;
#X connect 1 0 12 0;
#X connect 2 0 3 0;
#X connect 2 0 19 0;
#X connect 4 0 6 0;
#X connect 4 0 10 0;
#X connect 4 0 11 0;
#X connect 5 0 4 0;
#X connect 6 0 7 0;
#X connect 7 0 8 0;
#X connect 7 0 9 0;
#X connect 12 0 22 0;
#X connect 13 0 12 1;
#X connect 14 0 15 0;
#X connect 15 0 13 0;
#X connect 15 1 16 0;
#X connect 15 2 17 0;
#X connect 15 3 18 0;
#X connect 16 0 12 1;
#X connect 17 0 12 1;
#X connect 18 0 12 1;
#X connect 19 0 20 0;
#X connect 19 1 20 1;
#X connect 20 0 14 0;
#X connect 20 1 14 1;
#X connect 20 2 14 2;
#X connect 21 0 22 1;
#X connect 22 0 0 0;
#X connect 23 0 24 0;
#X connect 24 0 20 0;
#X restore 383 256 pd casio;
#X obj 110 260 bop.p.adsr-params \$0;
#X obj 110 130 bop.p.number \$0 wave-1 0;
#X obj 110 150 bop.p.enum \$0 wave-1;
#X obj 110 180 bop.p.number \$0 wave-2 0;
#X obj 110 200 bop.p.enum \$0 wave-2;
#X obj 110 350 bop.p.param \$0 gain 1;
#X obj 110 230 bop.p.param \$0 filter 0.5;
#X connect 0 0 1 1;
#X connect 0 1 1 0;
#X connect 1 0 0 0;
#X connect 2 0 13 0;
#X connect 2 1 8 0;
#X connect 8 0 3 0;
#X connect 10 0 13 1;
#X connect 13 0 5 0;
#X connect 13 1 11 0;
#X coords 0 -1 1 1 166 280 1 100 100;
