#N canvas 63 100 1180 765 12;
#X declare -path ./bop.p;
#X obj 588 679 savestate, f 17;
#X obj 587 652 bop.p.autosave \$0;
#X text 428 600 Other messages get picked up in the bop.p.param \, bop.p.toggle \, and bop.p.number objects, f 20;
#X text 585 599 ... and are stored in here when the parent patch is saved, f 22;
#X text 423 571 Incoming lists are treated as MIDI note and velocity;
#X obj 464 158 inlet~, f 18;
#X obj 589 248 outlet;
#X text 601 285 MIDI and messages dump out of right, f 13;
#X obj 464 258 outlet~;
#X text 470 289 Signal out of left, f 9;
#X text 460 132 Signal \, MIDI \, and messages in left, f 36;
#X text 453 519 ---------- STATE SAVING ---------------, f 43;
#X text 431 355 ---midi handling---;
#X obj 589 212 bop.p.inout \$0;
#X obj 459 386 r \$1-midi-in;
#X obj 458 450 s \$1-midi-out;
#X obj 467 98 declare -path ./bop.p;
#X text 422 55 ---------- In parent patch -------------;
#N canvas 208 245 450 300 do-things 0;
#X obj 98 56 inlet;
#X obj 102 222 outlet;
#X connect 0 0 1 0;
#X restore 459 416 pd do-things;
#N canvas 421 120 1004 706 delay 1;
#X obj 161 636 outlet~;
#X obj 152 37 inlet~;
#X obj 263 612 delwrite~ \$0-delay1 2500;
#X obj 234 79 *~;
#X obj 153 289 +~;
#X obj 234 -35 delread4~ \$0-delay1;
#X obj 232 -111 r~ \$0-get-time;
#X obj 252 1 r~ \$0-get-feedback;
#X obj 233 -66 *~ 2500;
#X obj 252 27 pow~ 4;
#X obj 372 56 r~ \$0-get-cutoff;
#X obj 320 185 +~ 100;
#X obj 159 610 clip~ -1 1;
#X obj 202 215 bob~, f 34;
#X obj 320 161 *~ 5000;
#X obj 359 134 pow~ 4;
#X obj 372 80 *~ 0.5;
#X obj 372 104 +~ 0.5;
#X obj 233 -87 pow~ 2;
#X obj 252 53 *~ 1.5;
#X obj 225 374 rev1~, f 15;
#X obj 214 482 *~;
#X obj 161 554 +~;
#X obj 271 424 r~ \$0-get-reverb;
#X obj 278 258 r \$0-get-reverb-size;
#X obj 344 347 bng 19 250 50 0 empty empty empty 0 -10 0 12 #fcfcfc #000000 #000000;
#X obj 281 315 * 100;
#X obj 271 448 pow~ 4;
#X obj 447 132 r~ \$0-get-q;
#X obj 443 174 *~ 5;
#X obj 440 467 bop.scope~;
#A saved enable 1;
#X obj 340 284 loadbang;
#X obj 340 308 t b b;
#X obj 214 506 *~ 1.5;
#X connect 1 0 4 0;
#X connect 3 0 13 0;
#X connect 4 0 22 0;
#X connect 4 0 20 0;
#X connect 5 0 3 0;
#X connect 6 0 18 0;
#X connect 7 0 9 0;
#X connect 8 0 5 0;
#X connect 9 0 19 0;
#X connect 10 0 16 0;
#X connect 11 0 13 1;
#X connect 12 0 0 0;
#X connect 13 0 4 1;
#X connect 14 0 11 0;
#X connect 15 0 14 0;
#X connect 16 0 17 0;
#X connect 17 0 15 0;
#X connect 18 0 8 0;
#X connect 19 0 3 1;
#X connect 20 0 21 0;
#X connect 21 0 33 0;
#X connect 22 0 2 0;
#X connect 22 0 12 0;
#X connect 23 0 27 0;
#X connect 24 0 26 0;
#X connect 25 0 20 2;
#X connect 26 0 20 1;
#X connect 27 0 21 1;
#X connect 28 0 29 0;
#X connect 29 0 13 2;
#X connect 31 0 32 0;
#X connect 32 0 26 0;
#X connect 32 1 25 0;
#X connect 33 0 22 1;
#X restore 464 209 pd delay;
#X obj 110 180 bop.p.param \$0 cutoff;
#X obj 110 130 bop.p.param \$0 time 0.333;
#X obj 110 150 bop.p.param \$0 feedback 0.666;
#X obj 110 230 bop.p.param \$0 reverb 0.333;
#X obj 110 250 bop.p.param \$0 reverb-size;
#X obj 110 200 bop.p.param \$0 q 0.5;
#X connect 0 0 1 1;
#X connect 0 1 1 0;
#X connect 1 0 0 0;
#X connect 5 0 19 0;
#X connect 5 1 13 0;
#X connect 13 0 6 0;
#X connect 14 0 18 0;
#X connect 18 0 15 0;
#X connect 19 0 8 0;
#X coords 0 -1 1 1 166 180 1 100 100;
