#N canvas 345 126 973 761 12;
#X declare -path ./bop.p;
#X obj 657 85 savestate, f 17;
#X obj 656 58 bop.p.autosave \$0;
#X obj 503 155 inlet~, f 34;
#X obj 738 335 outlet;
#X text 738 372 MIDI and messages dump out of right, f 13;
#X obj 503 345 outlet~;
#X text 493 373 Signal out of left, f 9;
#X text 499 129 Signal \, MIDI \, and messages in left, f 36;
#X obj 738 249 bop.p.inout \$0;
#X obj 470 70 declare -path ./bop.p;
#X obj 556 219 r \$0-midi-in;
#X obj 555 297 s \$0-midi-out;
#X obj 266 250 bop.p.adsr-params \$0;
#X obj 110 330 bop.p.param \$0 slide 0;
#X obj 110 270 bop.p.param \$0 q 0.5;
#X obj 110 250 bop.p.number \$0 cutoff 2600;
#X obj 266 340 bop.p.param \$0 gain 1;
#X obj 110 300 bop.p.param \$0 noise 0;
#N canvas 875 186 595 590 synth 0;
#X obj 32 485 outlet~;
#X obj 32 82 inlet~;
#X obj 293 82 inlet;
#X obj 295 192 outlet;
#X obj 32 446 +~;
#X obj 130 194 pack f f f;
#X obj 130 223 route 1 2 3 4;
#X obj 130 136 unpack, f 8;
#X obj 130 262 bop.p.synth~ \$0;
#X obj 140 292 bop.p.synth~ \$0;
#X obj 150 321 bop.p.synth~ \$0;
#X obj 160 350 bop.p.synth~ \$0;
#X obj 130 165 poly 4 1;
#X connect 1 0 4 0;
#X connect 2 0 3 0;
#X connect 2 0 7 0;
#X connect 4 0 0 0;
#X connect 5 0 6 0;
#X connect 6 0 8 0;
#X connect 6 1 9 0;
#X connect 6 2 10 0;
#X connect 6 3 11 0;
#X connect 7 0 12 0;
#X connect 7 1 12 1;
#X connect 8 0 4 1;
#X connect 9 0 4 1;
#X connect 10 0 4 1;
#X connect 11 0 4 1;
#X connect 12 0 5 0;
#X connect 12 1 5 1;
#X connect 12 2 5 2;
#X restore 503 256 pd synth;
#X obj 110 150 bop.p.osc-params \$0 osc-1;
#X obj 266 150 bop.p.osc-params \$0 osc-2;
#X obj 110 130 bop.p.number \$0 osc-1-tune 0;
#X obj 266 130 bop.p.number \$0 osc-2-tune 0;
#X connect 0 0 1 1;
#X connect 0 1 1 0;
#X connect 1 0 0 0;
#X connect 2 0 18 0;
#X connect 2 1 8 0;
#X connect 8 0 3 0;
#X connect 10 0 18 1;
#X connect 18 0 5 0;
#X connect 18 1 11 0;
#X coords 0 -1 1 1 322 270 1 100 100;
