#N canvas 482 88 760 457 12;
#X declare -path ./bop.p;
#X obj 581 80 savestate, f 17;
#X obj 580 53 bop.p.autosave \$0;
#X obj 427 150 inlet~, f 22;
#X obj 578 330 outlet;
#X text 578 367 MIDI and messages dump out of right, f 13;
#X obj 427 340 outlet~;
#X text 417 368 Signal out of left, f 9;
#X text 423 124 Signal \, MIDI \, and messages in left, f 36;
#X obj 578 244 bop.p.inout \$0;
#X obj 394 65 declare -path ./bop.p;
#X obj 473 214 r \$0-midi-in;
#X obj 473 292 s \$0-midi-out;
#X obj 110 170 bop.p.step-params \$0 1;
#X obj 110 190 bop.p.step-params \$0 2;
#X obj 110 210 bop.p.step-params \$0 3;
#X obj 110 230 bop.p.step-params \$0 4;
#X obj 110 250 bop.p.step-params \$0 5;
#X obj 110 270 bop.p.step-params \$0 6;
#X obj 110 290 bop.p.step-params \$0 7;
#X obj 110 310 bop.p.step-params \$0 8;
#X obj 256 110 bop.p.button \$0 reset;
#X obj 183 140 bop.p.number \$0 step 1;
#X obj 110 140 bop.p.button \$0 tick;
#X text 242 369 out... \; step [1-8] \; value f \; tick \;;
#N canvas 809 276 699 527 step 0;
#X obj 34 242 outlet~;
#X obj 32 42 inlet~;
#X obj 98 42 inlet;
#X obj 100 242 outlet;
#X msg 121 179 step \$1;
#X msg 113 122 value \$1;
#X obj 30 301 r \$1-reset;
#X msg 30 325 0;
#X obj 30 349 s \$0-set-step;
#X obj 32 465 s \$0-set-step;
#X msg 31 440 range 1 8;
#X obj 30 414 loadbang;
#X obj 121 155 r \$0-get-step;
#X obj 519 188 f;
#X obj 519 222 + 1;
#X obj 519 289 > 8;
#X obj 519 257 t f f, f 12;
#X obj 519 323 sel 1;
#X obj 582 379 f;
#X obj 551 349 bng 19 250 50 0 empty empty empty 0 -10 0 12 #fcfcfc #000000 #000000;
#X msg 519 377 1;
#X obj 519 44 r \$0-get-tick;
#X obj 200 221 r \$0-get-step;
#X obj 519 440 s \$0-set-step;
#X obj 283 47 bop.p.step \$0 1;
#X obj 115 91 r \$0-value;
#X obj 283 66 bop.p.step \$0 2;
#X obj 283 104 bop.p.step \$0 4;
#X obj 283 123 bop.p.step \$0 5;
#X obj 283 142 bop.p.step \$0 6;
#X obj 283 161 bop.p.step \$0 7;
#X obj 283 180 bop.p.step \$0 8;
#X obj 283 85 bop.p.step \$0 3;
#X obj 210 373 int;
#X obj 210 397 change;
#X obj 210 312 moses 0;
#X msg 207 342 -1;
#X obj 71 349;
#X obj 8 336;
#X obj 330 313 f;
#X obj 286 346 ==;
#X obj 271 426 f;
#X obj 281 264 t f b f;
#X obj 217 478 s \$0-get-values;
#X obj 540 149 r \$0-get-step;
#X connect 1 0 0 0;
#X connect 2 0 3 0;
#X connect 4 0 3 0;
#X connect 5 0 3 0;
#X connect 6 0 7 0;
#X connect 7 0 8 0;
#X connect 10 0 9 0;
#X connect 11 0 10 0;
#X connect 12 0 4 0;
#X connect 13 0 14 0;
#X connect 14 0 16 0;
#X connect 15 0 17 0;
#X connect 16 0 15 0;
#X connect 16 1 18 1;
#X connect 17 0 20 0;
#X connect 17 1 19 0;
#X connect 18 0 23 0;
#X connect 19 0 18 0;
#X connect 20 0 23 0;
#X connect 21 0 13 0;
#X connect 22 0 35 0;
#X connect 22 0 42 0;
#X connect 25 0 5 0;
#X connect 33 0 34 0;
#X connect 34 0 43 0;
#X connect 35 0 36 0;
#X connect 35 1 33 0;
#X connect 36 0 33 0;
#X connect 37 0 38 0;
#X connect 39 0 40 1;
#X connect 40 0 41 0;
#X connect 41 0 43 0;
#X connect 42 0 39 1;
#X connect 42 0 40 0;
#X connect 42 1 39 0;
#X connect 42 2 41 1;
#X connect 44 0 13 1;
#X restore 427 251 pd step;
#X connect 0 0 1 1;
#X connect 0 1 1 0;
#X connect 1 0 0 0;
#X connect 2 0 24 0;
#X connect 2 1 8 0;
#X connect 8 0 3 0;
#X connect 10 0 24 1;
#X connect 24 0 5 0;
#X connect 24 1 11 0;
#X coords 0 -1 1 1 239 240 1 100 100;
