#N canvas 74 117 795 775 12;
#X declare -path ./bop1;
#X obj 219 727 bop.delay~;
#A saved reverb-size 1;
#A saved reverb 1;
#A saved feedback 0.635714;
#A saved time 0.571429;
#A saved cutoff 0.314286;
#X obj 228 354 bop.noteslider;
#A saved shuffle 0;
#A saved duration 0.214286;
#A saved velocity 0.492857;
#A saved octaves 4;
#A saved root 40;
#A saved chord 9;
#A saved noteslider 1;
#X obj 457 634 declare -path ./bop1;
#X obj 237 624 bop.rhodes;
#A saved 0;
#X obj 373 595 route list;
#X obj 237 935 output~;
#X obj 233 260 tgl 19 0 empty empty empty 0 -10 0 12 #fcfcfc #000000 #000000 0 1;
#X msg 383 313 level 1;
#X obj 383 286 loadbang;
#X obj 200 104 tgl 19 0 empty empty empty 17 7 0 10 #dfdfdf #000000 #000000 0 1;
#X msg 242 104 tempo \$1 permin;
#X floatatom 242 68 5 0 0 0 - - - 0;
#X text 147 105 on/off;
#X text 146 67 change tempo;
#X obj 242 183 bng 19 250 50 0 empty empty empty 17 7 0 10 #dfdfdf #000000 #000000;
#X obj 242 156 metro 8 120 permin, f 19;
#X msg 238 296 noteslider \$1 1;
#X connect 0 0 5 0;
#X connect 0 0 5 1;
#X connect 0 1 5 0;
#X connect 1 1 4 0;
#X connect 3 0 0 0;
#X connect 3 3 0 0;
#X connect 4 0 3 2;
#X connect 4 1 3 3;
#X connect 6 0 16 0;
#X connect 7 0 1 0;
#X connect 8 0 7 0;
#X connect 9 0 15 0;
#X connect 10 0 15 0;
#X connect 11 0 10 0;
#X connect 14 0 6 0;
#X connect 15 0 14 0;
#X connect 16 0 1 0;
