#N canvas 155 121 711 526 12;
#X obj 62 273 bop.intermal;
#A saved root 50;
#A saved intermal -12.5075;
#A saved duration 0.721429;
#A saved velocity 0.75;
#X obj 631 461 print;
#X msg 38 41 intermal 0.434;
#X msg 50 66 intermal 2.343;
#X msg 70 90 intermal 4.343;
#X msg 84 115 intermal 5.434;
#X text 281 45 Intermals are a fast and easy chord notation based on floating point numbers.;
#X text 47 433 See more here: https://zeal.co/notebook/intermals/;
#X text 201 40 I maj7;
#X text 189 88 III min7;
#X text 195 63 II min7;
#X text 196 112 IV maj7;
#X text 270 113 - The number to the left of the decimal defines the root \; - Digits following the decimal point reperesent additional voices up n semitones from the previous voice \;, f 60;
#X obj 472 373 bop.out~;
#A saved mute 0;
#A saved volume 1;
#X msg 98 180 intermal 12.5555;
#X msg 111 206 intermal -12.5075;
#X obj 472 276 bop.instrument~;
#A saved instrument 0;
#X connect 0 1 16 0;
#X connect 2 0 0 0;
#X connect 3 0 0 0;
#X connect 4 0 0 0;
#X connect 5 0 0 0;
#X connect 13 2 1 0;
#X connect 14 0 0 0;
#X connect 15 0 0 0;
#X connect 16 0 13 0;
#X connect 16 1 13 0;
