#N canvas 254 156 725 644 12;
#X declare -path ./bop.p;
#X obj 478 578 savestate, f 17;
#X obj 477 551 bop.p.autosave \$0;
#X text 318 499 Other messages get picked up in the bop.p.param \, bop.p.toggle \, and bop.p.number objects, f 20;
#X text 475 498 ... and are stored in here when the parent patch is saved, f 22;
#X text 313 470 Incoming lists are treated as MIDI note and velocity;
#X obj 330 105 inlet~, f 34;
#X obj 565 285 outlet;
#X text 565 322 MIDI and messages dump out of right, f 13;
#X obj 330 295 outlet~;
#X text 320 323 Signal out of left, f 9;
#X text 326 79 Signal \, MIDI \, and messages in left, f 36;
#X text 343 418 ---------- STATE SAVING ---------------, f 43;
#X obj 565 199 bop.p.inout \$0;
#X obj 333 45 declare -path ./bop.p;
#X obj 411 169 r \$0-midi-in;
#X obj 410 247 s \$0-midi-out;
#X obj 110 200 bop.p.param \$0 velocity 0.75;
#X obj 110 220 bop.p.param \$0 duration 0.25;
#X obj 110 150 bop.p.number \$0 root 42;
#X obj 110 130 bop.p.number \$0 semisteps 0;
#N canvas 123 137 777 661 semisteps 0;
#X obj 44 97 outlet~;
#X obj 44 34 inlet~;
#X obj 174 35 inlet;
#X obj 176 605 outlet;
#X obj 479 277 bop.p.iter;
#X obj 479 481 makenote 100 500, f 33;
#X obj 593 367 r \$0-get-velocity;
#X obj 593 391 * 127;
#X obj 707 410 r \$0-get-duration;
#X obj 707 436 * 5000;
#X obj 480 524 pack, f 33;
#X obj 479 350 +;
#X obj 498 311 r \$0-get-root;
#X obj 383 87 t f b, f 25;
#X obj 506 408 r \$0-stop;
#X msg 506 432 stop;
#X obj 384 28 r \$0-get-semisteps;
#X obj 383 123 bop.p.semisteps;
#X obj 464 160 r \$0-get-hold;
#X obj 383 193 list prepend;
#X obj 383 227 route 1 0, f 28;
#X obj 555 125 s \$0-stop;
#X obj 229 303 bop.p.iter;
#X obj 229 456 poly 64 1, f 15;
#X obj 229 365 +;
#X obj 247 336 r \$0-get-root;
#X obj 331 382 r \$0-get-velocity;
#X obj 331 406 * 127;
#X obj 248 402 r \$0-stop;
#X obj 280 498 pack, f 8;
#X obj 590 69 r \$0-get-hold;
#X obj 590 93 sel 0;
#X text 492 250 hold off;
#X text 389 252 hold on;
#X msg 248 427 stop;
#X connect 1 0 0 0;
#X connect 2 0 3 0;
#X connect 4 0 11 0;
#X connect 5 0 10 0;
#X connect 5 1 10 1;
#X connect 6 0 7 0;
#X connect 7 0 5 1;
#X connect 8 0 9 0;
#X connect 9 0 5 2;
#X connect 10 0 3 0;
#X connect 11 0 5 0;
#X connect 12 0 11 1;
#X connect 13 0 17 0;
#X connect 13 1 21 0;
#X connect 14 0 15 0;
#X connect 15 0 5 0;
#X connect 16 0 13 0;
#X connect 17 0 19 0;
#X connect 18 0 19 1;
#X connect 19 0 20 0;
#X connect 20 0 22 0;
#X connect 20 1 4 0;
#X connect 22 0 24 0;
#X connect 23 1 29 0;
#X connect 23 2 29 1;
#X connect 24 0 23 0;
#X connect 25 0 24 1;
#X connect 26 0 27 0;
#X connect 27 0 23 1;
#X connect 28 0 34 0;
#X connect 29 0 3 0;
#X connect 30 0 31 0;
#X connect 31 0 21 0;
#X connect 34 0 23 0;
#X restore 330 206 pd semisteps;
#X obj 183 180 bop.p.toggle \$0 hold 0;
#X connect 0 0 1 1;
#X connect 0 1 1 0;
#X connect 1 0 0 0;
#X connect 5 0 20 0;
#X connect 5 1 12 0;
#X connect 12 0 6 0;
#X connect 14 0 20 1;
#X connect 20 0 8 0;
#X connect 20 1 15 0;
#X coords 0 -1 1 1 166 150 1 100 100;
