#N canvas 94 69 1142 739 12;
#X declare -path ./bop.p;
#X text 1067 702 comment;
#X obj 20 320 bop.p.param \$0 gain;
#X obj 20 270 bop.p.param \$0 lfo-speed;
#X obj 20 290 bop.p.param \$0 lfo-depth;
#X obj 20 240 bop.p.param \$0 r;
#X obj 20 220 bop.p.param \$0 s;
#X obj 20 180 bop.p.param \$0 a;
#X obj 20 200 bop.p.param \$0 d;
#X obj 20 150 bop.p.param \$0 fm;
#X obj 20 80 bop.p.number \$0 dividend;
#X obj 20 100 bop.p.number \$0 divisor;
#X obj 20 120 bop.p.number \$0 detune;
#X obj 441 645 savestate, f 17;
#X obj 20 30 bop.p.number \$0 frequency;
#X obj 440 618 bop.p.autosave \$0;
#X text 281 566 Other messages get picked up in the bop.p.param \, bop.p.toggle \, and bop.p.number objects, f 20;
#X obj 94 50 bop.p.toggle \$0 keytrack;
#N canvas 0 37 1470 891 fm 0;
#X obj 416 326 *~;
#X obj 275 112 +~;
#X obj 326 171 *~;
#X obj 273 199 +~;
#X obj 73 1001 outlet~;
#X obj 73 727 *~, f 14;
#X obj 81 463 osc~;
#X obj 82 366 +~, f 40;
#X obj 84 27 inlet~;
#X obj 83 326 *~;
#X obj 201 479 osc~ 0.5;
#X obj 208 604 *~;
#X obj 152 604 sig~ 1;
#X obj 165 640 -~;
#X obj 203 517 expr~ $v1 * 0.5 + 0.5;
#X obj 74 951 *~;
#X obj 75 841 *~, f 53;
#X obj 562 505 r from-peak-\$1;
#X obj 434 536 moses 1;
#X obj 434 420 r \$0-velocity;
#X obj 479 580 / 127;
#X obj 444 802 *~;
#X obj 527 474 bop.p.scale 0 1 1 1000;
#X obj 601 565 bop.p.scale 0 1 1 3000;
#X obj 674 653 bop.p.scale 0 1 1 3000;
#X obj 722 708 bop.p.scale 0 1 -3 3;
#X obj 448 753 bop.p.adsr~ 1000 1 1000 0.5 1000 -3;
#X obj 527 444 r \$0-get-a;
#X obj 601 540 r \$0-get-d;
#X obj 674 621 r \$0-get-r;
#X obj 639 595 r \$0-get-s;
#X obj 722 684 r \$0-get-c;
#X text 145 25 FM;
#X obj 902 364 spigot;
#X obj 902 322 mtof;
#X obj 902 162 unpack, f 28;
#X obj 1153 423 s \$0-velocity;
#X obj 1223 305 spigot;
#X msg 1104 356 127;
#X obj 1083 306 sel 0 1;
#X obj 1153 356 f;
#X obj 901 425 s \$0-set-frequency;
#X obj 981 263 r \$0-get-keytrack;
#X obj 941 325 r \$0-get-keytrack;
#X obj 1253 261 r \$0-get-keytrack;
#X text 982 111 MIDI handling;
#X obj 274 42 r~ \$0-get-frequency;
#X obj 344 76 r~ \$0-get-detune;
#X obj 348 125 /~ 10000;
#X obj 437 113 r~ \$0-get-dividend;
#X obj 470 139 r~ \$0-get-divisor;
#X obj 429 226 /~, f 6;
#X obj 99 151 r~ \$0-get-fm;
#X obj 99 190 *~ 10;
#X obj 100 226 pow~ 4;
#X obj 202 405 r~ \$0-get-lfo-speed;
#X obj 204 428 pow~ 4;
#X obj 202 452 *~ 20;
#X obj 223 547 r~ \$0-get-lfo-depth;
#X obj 113 916 r~ \$0-get-gain;
#X msg 902 399 \$1 0;
#X obj 892 55 inlet;
#X obj 912 104 outlet;
#X connect 0 0 7 1;
#X connect 1 0 2 0;
#X connect 1 0 3 0;
#X connect 2 0 3 1;
#X connect 3 0 0 0;
#X connect 5 0 16 0;
#X connect 6 0 5 0;
#X connect 7 0 6 0;
#X connect 8 0 9 0;
#X connect 9 0 7 0;
#X connect 10 0 14 0;
#X connect 11 0 13 1;
#X connect 12 0 13 0;
#X connect 13 0 5 1;
#X connect 14 0 11 0;
#X connect 15 0 4 0;
#X connect 16 0 15 0;
#X connect 17 0 26 3;
#X connect 18 0 26 1;
#X connect 18 1 20 0;
#X connect 19 0 18 0;
#X connect 20 0 21 1;
#X connect 20 0 26 0;
#X connect 21 0 16 1;
#X connect 22 0 26 2;
#X connect 23 0 26 4;
#X connect 24 0 26 6;
#X connect 25 0 26 7;
#X connect 26 0 21 0;
#X connect 27 0 22 0;
#X connect 28 0 23 0;
#X connect 29 0 24 0;
#X connect 30 0 26 5;
#X connect 31 0 25 0;
#X connect 33 0 60 0;
#X connect 34 0 33 0;
#X connect 35 0 34 0;
#X connect 35 1 37 0;
#X connect 35 1 40 1;
#X connect 37 0 36 0;
#X connect 38 0 36 0;
#X connect 39 0 38 0;
#X connect 39 1 40 0;
#X connect 40 0 36 0;
#X connect 42 0 39 0;
#X connect 43 0 33 1;
#X connect 44 0 37 1;
#X connect 46 0 1 0;
#X connect 47 0 48 0;
#X connect 48 0 2 1;
#X connect 49 0 51 0;
#X connect 50 0 51 1;
#X connect 51 0 0 1;
#X connect 52 0 53 0;
#X connect 53 0 54 0;
#X connect 54 0 9 1;
#X connect 55 0 56 0;
#X connect 56 0 57 0;
#X connect 57 0 10 0;
#X connect 58 0 11 1;
#X connect 59 0 15 1;
#X connect 60 0 41 0;
#X connect 61 0 35 0;
#X connect 61 0 62 0;
#X restore 275 335 pd fm;
#X f 12;
#X obj 523 93 inlet~, f 12;
#X text 438 565 ... and are stored in here when the parent patch is saved, f 22;
#X obj 262 92 inlet~, f 12;
#X obj 531 339 outlet;
#X obj 274 401 outlet~;
#X text 280 432 Signal out of left, f 9;
#X obj 356 299 r \$0-midi-in;
#X obj 356 377 s \$0-midi-out;
#X obj 353 131 bop.p.inout \$0;
#X text 235 126 todo - use signal 1 to set carrier, f 11;
#X text 520 132 signal2 is FM;
#X text 237 60 midi and messages in;
#X text 543 365 dump midi and messages, f 13;
#X text 291 525 ---------- STATE SAVING ---------------, f 43;
#X obj 231 30 declare -path ./bop.p;
#X connect 12 0 14 1;
#X connect 12 1 14 0;
#X connect 14 0 12 0;
#X connect 17 0 22 0;
#X connect 17 1 25 0;
#X connect 18 0 17 0;
#X connect 20 1 26 0;
#X connect 24 0 17 1;
#X connect 26 0 21 0;
#X coords 0 -1 1 1 166 340 1 10 10;
