#N canvas 0 37 1470 891 12;
#X declare -path ./babs;
#X obj 63 535 outlet~;
#X obj 62 82 inlet~, f 41;
#X obj 398 181 outlet;
#X obj 1254 828 bng 19 250 50 0 empty empty empty 0 -10 0 12 #fcfcfc #000000 #000000;
#X text 1622 1804 comment;
#X obj 1183 981 change;
#X obj 107 255 r \$0-to-clone;
#X obj 1203 1581 s \$0-to-clone;
#X msg 1277 1540 vis 2 \$1;
#X obj 1280 1513 tgl 19 0 empty empty empty 0 -10 0 12 #fcfcfc #000000 #000000 0 1;
#X obj 1203 1509 tgl 19 0 empty empty empty 0 -10 0 12 #fcfcfc #000000 #000000 0 1;
#X msg 1203 1540 vis 1 \$1;
#X obj 1132 720 loadbang;
#N canvas 282 74 581 816 load-samples 0;
#X obj 101 32 inlet;
#X obj 140 284 file glob;
#X obj 141 250 makefilename %s/*.wav;
#X msg 161 120 clear;
#X obj 140 317 list split 1;
#X obj 121 431 - 1;
#X msg 121 492 range 0 \$1;
#X obj 121 520 s \$0-set-sample;
#X obj 121 463 max 0;
#X obj 101 83 t b b f b;
#X text 332 347 store paths to samples;
#X text 181 423 number of samples;
#X obj 98 569 t b b, f 27;
#X msg 284 677 set 0;
#X msg 98 599 line 0 \, auto;
#X msg 98 661 next read \$1;
#X obj 333 533 outlet;
#X text 287 205 get path to folder;
#X obj 98 706 outlet;
#X obj 161 155 text define \$0-samples;
#X obj 140 349 text set \$0-samples 1e+10;
#X obj 98 632 text sequence \$0-samples;
#X obj 121 392 text size \$0-samples;
#X obj 141 208 text get \$0-folders;
#X connect 0 0 9 0;
#X connect 1 0 4 0;
#X connect 2 0 1 0;
#X connect 3 0 19 0;
#X connect 4 0 20 0;
#X connect 5 0 8 0;
#X connect 6 0 7 0;
#X connect 8 0 6 0;
#X connect 9 0 12 0;
#X connect 9 1 22 0;
#X connect 9 2 23 0;
#X connect 9 3 3 0;
#X connect 12 0 14 0;
#X connect 12 1 13 0;
#X connect 13 0 18 0;
#X connect 14 0 21 0;
#X connect 15 0 18 0;
#X connect 21 0 15 0;
#X connect 22 0 5 0;
#X connect 22 0 16 0;
#X connect 23 0 2 0;
#X restore 1155 1168 pd load-samples;
#X f 17;
#X obj 1271 1228 s \$0-num-samples;
#X obj 337 1078 r \$0-num-samples;
#X obj 328 1112 %, f 6;
#X obj 238 776 r \$0-midi;
#X obj 328 1165 pack, f 26;
#X text 381 1109 wrap notes;
#X obj 1271 1198 min 16;
#X obj 238 1505 s \$0-to-clone;
#X obj 1132 803 t b b b, f 15;
#X msg 1183 863 set -1;
#X obj 1132 1018 f;
#X obj 1199 947 int;
#X text 1103 683 ---------- SAMPLE LOADING ------------;
#X text 407 695 ---------- MIDI HANDLING ------------;
#X text 1138 1414 ---------- DEBUG ------------;
#N canvas 0 37 735 891 load-folders 0;
#X obj 32 18 inlet;
#X obj 102 347 file glob;
#X obj 104 260 pdcontrol;
#X msg 104 228 dir;
#X msg 125 136 clear;
#X obj 104 382 list split 1;
#X obj 88 1046 - 1;
#X msg 89 1075 range 0 \$1;
#X text 124 1044 number of banks;
#X text 123 410 store paths to banks;
#X obj 32 85 t b b b b b, f 14;
#X obj 56 956 babs.accum, f 30;
#X obj 56 690 t b b b, f 30;
#X obj 94 750 babs.iter;
#X obj 94 783 sel \\\;;
#X obj 95 815 file split;
#X obj 128 873 list length;
#X obj 96 843 t l l;
#X obj 96 927 babs.nth;
#X obj 128 897 - 1;
#X obj 89 1015 list length;
#X obj 56 986 t l l;
#X obj 89 1106 s \$0-set-folder;
#X obj 54 1179 s \$0-set-folder-enum;
#X text 68 1154 names of folders;
#X obj 127 168 text define \$0-folders;
#X obj 104 433 text set \$0-folders 1e+10;
#X obj 84 720 text tolist \$0-folders;
#X obj 374 20 inlet;
#X text 419 20 custom path;
#X obj 374 58 symbol;
#X msg 376 238 set %s/samplepacks/\$1/*/;
#X obj 104 306 makefilename %s/samplepacks/bop_samplepack/*/;
#X obj 82 581 text size \$0-folders;
#X obj 82 605 outlet;
#X text 105 545 output number of folders;
#X connect 0 0 10 0;
#X connect 1 0 5 0;
#X connect 2 0 32 0;
#X connect 3 0 2 0;
#X connect 4 0 25 0;
#X connect 5 0 26 0;
#X connect 6 0 7 0;
#X connect 7 0 22 0;
#X connect 10 1 12 0;
#X connect 10 2 33 0;
#X connect 10 3 3 0;
#X connect 10 4 4 0;
#X connect 11 0 21 0;
#X connect 12 0 11 0;
#X connect 12 1 27 0;
#X connect 12 2 11 1;
#X connect 13 0 14 0;
#X connect 14 1 15 0;
#X connect 15 0 17 0;
#X connect 16 0 19 0;
#X connect 17 0 18 0;
#X connect 17 1 16 0;
#X connect 18 0 11 0;
#X connect 19 0 18 1;
#X connect 20 0 6 0;
#X connect 21 0 23 0;
#X connect 21 1 20 0;
#X connect 27 0 13 0;
#X connect 28 0 30 0;
#X connect 30 0 31 0;
#X connect 31 0 32 0;
#X connect 32 0 1 0;
#X connect 33 0 34 0;
#X restore 1254 863 pd load-folders;
#X obj 139 401 r~ \$0-get-gain;
#X obj 107 432 *~, f 5;
#X obj 277 884 r \$0-get-mode;
#X obj 277 908 == 1;
#X obj 238 940 spigot;
#X obj 814 1125 r \$0-get-sample;
#X obj 814 1159 int;
#X obj 814 1183 change;
#X text 260 748 keymap mode;
#X obj 328 1291 list append;
#X obj 401 1255 r \$0-get-root;
#X obj 47 1026 r \$0-get-sample;
#X obj 47 1052 int;
#X obj 29 1083 +;
#X obj 740 1217 list append;
#X obj 1155 1311 text define \$0-sample-info;
#X obj 1132 1051 t b f b;
#X obj 1178 1106 text delete \$0-sample-info, f 16;
#X obj 1132 778 bng 19 250 50 0 empty empty empty 0 -10 0 12 #fcfcfc #000000 #000000;
#X msg 1178 1080 -1;
#X obj 1183 1205 tgl 19 0 empty empty empty 0 -10 0 12 #fcfcfc #000000 #000000 0 1;
#X msg 1183 1236 vis 1 \$1;
#X text 338 1204 sample velocity;
#X text 339 1327 sample velocity pitch;
#X obj 238 839 pack f f f;
#X obj 238 808 poly 4 1;
#X text 337 835 target \, pitch \, velocity;
#X obj 238 977 unpack f f f, f 26;
#X obj 238 1427 list append;
#X msg 238 1465 \$1 play \$2 \$3 \$4;
#X obj 238 1293 - 1;
#X text 341 1396 pitch velocity sample;
#X msg 328 1369 \$3 \$2 \$1;
#X text 661 1404 [target] play [pitch] [velocity] [sample];
#X obj 667 784 r \$0-midi;
#X obj 706 889 r \$0-get-mode;
#X obj 667 948 spigot;
#X obj 667 847 pack f f f;
#X text 766 843 target \, pitch \, velocity;
#X obj 706 916 == 0;
#X text 668 749 repitch mode;
#X obj 665 977 unpack f f f, f 29;
#X obj 740 1052 pack, f 23;
#X obj 665 1285 list append;
#X text 753 1282 target pitch velocity sample;
#X obj 665 1372 s \$0-to-clone;
#X msg 665 1332 \$1 play \$2 \$3 \$4;
#X obj 664 1073 - 1;
#X obj 1135 1508 tgl 19 0 empty empty empty 0 -10 0 12 #fcfcfc #000000 #000000 0 1;
#X msg 1135 1540 vis 0 \$1;
#X obj 1132 748 delay 100;
#X obj 667 814 poly 4 1;
#X text 78 1057 todo \; offset sample \; may need to flush hanging notes when changing sample, f 13;
#X obj 653 170 r \$0-stop;
#X obj 687 214 r \$0-params;
#X obj 670 192 r \$0-midi;
#X obj 636 148 r \$0-dump;
#X obj 1201 921 r \$0-get-folder;
#X obj 400 133 babs.inout \$0 sampler~;
#X obj 60 29 declare -path ./babs;
#X obj 107 330 clone sub/sampler~/voice 4 \$0, f 33;
#X obj 1155 1281 clone sub/sampler~/loader 16 \$0;
#X obj 399 85 inlet;
#X obj 950 577 babs.param \$0 gain 1;
#X obj 945 542 babs.param.spacer \$0;
#X obj 932 506 babs.param \$0 release 0.3;
#X obj 928 473 babs.param \$0 attack 0.1;
#X obj 945 447 babs.param.spacer \$0;
#X obj 933 410 babs.param \$0 loop-length 1;
#X obj 934 386 babs.param \$0 loop-start 0;
#X obj 931 353 babs.param \$0 loop 1 0 1;
#X obj 941 320 babs.param.spacer \$0;
#X obj 939 288 babs.param \$0 root 40 0 127;
#X obj 939 261 babs.param \$0 tune 0 -100 100;
#X obj 939 235 babs.param.spacer \$0;
#X obj 926 201 babs.param.enum \$0 mode repitch keymap;
#X obj 925 170 babs.param \$0 mode 0 0 1;
#X obj 930 142 babs.param.spacer \$0;
#X obj 929 118 babs.param \$0 sample 0 0 999;
#X obj 926 85 babs.param \$0 folder 0 0 999;
#X obj 925 56 babs.param.attr \$0 pack bop_samplepack;
#X obj 661 80 babs.savestate;
#X obj 661 106 savestate, f 14;
#X obj 1294 752 t b a;
#X obj 1294 724 r \$0-get-pack;
#X obj 1255 895 s \$0-num-folders;
#X obj 164 727 r \$0-get-stop;
#X msg 164 751 stop;
#X obj 551 744 r \$0-get-stop;
#X msg 551 768 stop;
#X connect 1 0 0 0;
#X connect 1 1 88 0;
#X connect 3 0 29 0;
#X connect 5 0 24 0;
#X connect 6 0 90 0;
#X connect 8 0 7 0;
#X connect 9 0 8 0;
#X connect 10 0 11 0;
#X connect 11 0 7 0;
#X connect 12 0 80 0;
#X connect 13 0 91 0;
#X connect 13 1 20 0;
#X connect 15 0 16 1;
#X connect 16 0 18 0;
#X connect 17 0 55 0;
#X connect 18 0 39 0;
#X connect 20 0 14 0;
#X connect 22 0 24 0;
#X connect 22 1 23 0;
#X connect 22 2 3 0;
#X connect 23 0 5 0;
#X connect 24 0 46 0;
#X connect 25 0 5 0;
#X connect 29 0 115 0;
#X connect 30 0 31 1;
#X connect 31 0 0 0;
#X connect 32 0 33 0;
#X connect 33 0 34 1;
#X connect 34 0 57 0;
#X connect 35 0 36 0;
#X connect 36 0 37 0;
#X connect 37 0 44 1;
#X connect 39 0 62 0;
#X connect 40 0 39 1;
#X connect 41 0 42 0;
#X connect 42 0 43 1;
#X connect 44 0 73 1;
#X connect 46 1 13 0;
#X connect 46 2 49 0;
#X connect 48 0 22 0;
#X connect 49 0 47 0;
#X connect 50 0 51 0;
#X connect 51 0 91 0;
#X connect 54 0 34 0;
#X connect 55 0 54 0;
#X connect 55 1 54 1;
#X connect 55 2 54 2;
#X connect 57 0 60 0;
#X connect 57 1 16 0;
#X connect 57 2 18 1;
#X connect 58 0 59 0;
#X connect 59 0 21 0;
#X connect 60 0 58 0;
#X connect 62 0 58 1;
#X connect 64 0 81 0;
#X connect 65 0 69 0;
#X connect 66 0 71 0;
#X connect 67 0 66 0;
#X connect 69 0 66 1;
#X connect 71 0 77 0;
#X connect 71 1 72 0;
#X connect 71 2 72 1;
#X connect 72 0 44 0;
#X connect 73 0 76 0;
#X connect 76 0 75 0;
#X connect 77 0 73 0;
#X connect 78 0 79 0;
#X connect 79 0 7 0;
#X connect 80 0 48 0;
#X connect 81 0 67 0;
#X connect 81 1 67 1;
#X connect 81 2 67 2;
#X connect 87 0 25 0;
#X connect 88 0 2 0;
#X connect 90 0 31 0;
#X connect 92 0 88 0;
#X connect 111 0 112 0;
#X connect 112 0 111 1;
#X connect 112 1 111 0;
#X connect 113 0 48 0;
#X connect 113 1 29 1;
#X connect 114 0 113 0;
#X connect 116 0 117 0;
#X connect 117 0 55 0;
#X connect 118 0 119 0;
#X connect 119 0 81 0;
