#N canvas 0 37 836 891 12;
#X declare -path ./bop.p;
#X obj 85 132 inlet~, f 31;
#X obj 299 222 outlet;
#X text 311 259 MIDI and messages dump out of right, f 13;
#X obj 117 851 outlet~;
#X text 138 795 Signal out of left, f 9;
#X text 81 106 Signal \, MIDI \, and messages in left, f 36;
#X obj 114 766 +~, f 17;
#X obj 84 178 s~ \$0-dry;
#X obj 111 611 r~ \$0-dry;
#X obj 113 719 *~;
#X obj 130 668 pow~ 2;
#X obj 287 386 r~ \$0-dry;
#X obj 307 434 *~ -1;
#X obj 533 145 bop.p.param \$0 size 0.5;
#X obj 362 511 r \$0-get-size;
#X obj 535 180 bop.p.param \$0 damp 0.5;
#X obj 340 465 r \$0-get-wet;
#X obj 340 489 * 100;
#X obj 362 539 expr $f1 * 20 + 80;
#X obj 532 211 bop.p.param \$0 cutoff 3000;
#X obj 413 620 r \$0-get-damp;
#X obj 413 644 * 100;
#X obj 380 578 r \$0-get-cutoff;
#X text 732 213 hz;
#X obj 534 244 bop.p.param \$0 wet 0.7;
#X obj 530 291 bop.p.param \$0 dry 1;
#X obj 130 644 r~ \$0-get-dry;
#X text 448 693 modified from rev3~ to include a stop receiver;
#X obj 88 44 declare -path ./bop.p;
#X obj 284 691 sub/reverb~/reverb~ \$0;
#X obj 299 186 bop.p.inout \$0 bop.reverb~;
#X connect 0 0 7 0;
#X connect 0 1 30 0;
#X connect 6 0 3 0;
#X connect 8 0 9 0;
#X connect 9 0 6 0;
#X connect 10 0 9 1;
#X connect 11 0 12 0;
#X connect 11 0 29 0;
#X connect 12 0 29 1;
#X connect 14 0 18 0;
#X connect 16 0 17 0;
#X connect 17 0 29 2;
#X connect 18 0 29 3;
#X connect 20 0 21 0;
#X connect 21 0 29 5;
#X connect 22 0 29 4;
#X connect 26 0 10 0;
#X connect 29 0 6 1;
#X connect 29 1 6 1;
#X connect 29 2 6 1;
#X connect 29 3 6 1;
#X connect 30 0 1 0;
#X coords 0 891 1 890 166 230 0;
