#N canvas 50 185 790 678 12;
#X declare -path ./bop.p;
#X obj 110 130 bop.p.param \$0 noteslider;
#X obj 529 511 savestate, f 17;
#X obj 528 484 bop.p.autosave \$0;
#X text 369 432 Other messages get picked up in the bop.p.param \, bop.p.toggle \, and bop.p.number objects, f 20;
#X obj 386 106 inlet~, f 35;
#X text 526 431 ... and are stored in here when the parent patch is saved, f 22;
#X obj 628 317 outlet;
#X obj 389 316 outlet~;
#X obj 476 181 r \$0-midi-in;
#X obj 476 253 s \$0-midi-out;
#X obj 628 210 bop.p.inout \$0;
#X text 640 253 < MIDI and messages dump out of right, f 13;
#X text 324 251 Signal out of left >, f 9;
#X text 638 136 < midi and messages;
#X obj 417 54 declare -path ./bop.p;
#X obj 110 160 bop.p.number \$0 chord;
#X obj 110 180 bop.p.enum \$0 chord;
#X obj 110 240 bop.p.number \$0 root 46;
#X obj 110 260 bop.p.number \$0 octaves 3;
#X obj 110 290 bop.p.param \$0 velocity 0.888;
#X obj 110 310 bop.p.param \$0 duration 0.444;
#X obj 183 210 bop.p.toggle \$0 shuffle 0;
#X text 398 386 ---------- STATE SAVING ---------------, f 43;
#N canvas 29 37 1376 891 noteslider 1;
#X obj 188 1234 outlet;
#X obj 187 98 inlet;
#X obj 1124 393 text define \$0-chords;
#X msg 1124 362 read bop.p.chords.txt;
#X obj 804 213 loadbang;
#X obj 827 543 text sequence \$0-chords;
#X msg 827 512 line 0 \, bang;
#X obj 803 383 bng 19 250 50 0 empty empty empty 0 -10 0 12 #fcfcfc #000000 #000000;
#X obj 803 452 t b b b, f 18;
#X obj 814 607 bop.p.accum;
#X msg 827 576 \$1;
#X obj 1023 557 list split 1;
#X obj 1030 652 text define \$0-notes;
#X obj 1027 513 text sequence \$0-chords;
#X msg 1027 482 line 0 \, bang;
#X obj 1199 513 text delete \$0-notes;
#X obj 1016 383 bng 19 250 50 0 empty empty empty 0 -10 0 12 #fcfcfc #000000 #000000;
#X obj 1027 449 t b b, f 25;
#X obj 378 588 text get \$0-notes;
#X obj 506 158 r \$0-numnotes;
#X obj 348 150 r \$0-get-noteslider;
#X obj 506 189 - 1;
#X obj 806 246 bng 19 250 50 0 empty empty empty 0 -10 0 12 #fcfcfc #000000 #000000;
#X msg 1197 480 -1;
#X obj 413 738 list length;
#X obj 1064 593 text set \$0-notes 1e+10;
#X obj 413 774 s \$0-numnotes;
#X obj 348 349 int;
#X obj 348 373 change;
#X obj 367 848 bop.p.nth, f 25;
#X floatatom 367 872 5 0 0 0 - - - 0;
#X floatatom 377 554 5 0 0 0 - - - 0;
#X obj 350 461 t b f, f 28;
#X obj 546 921 r \$0-get-duration;
#X obj 546 945 pow 2;
#X obj 546 969 * 5000;
#X obj 367 1073 makenote 127 100, f 26;
#X text 1385 1741 comment;
#X text 406 959 < scale offset;
#X obj 387 929 r \$0-get-root;
#X obj 366 961 + 0;
#X obj 367 1160 pack;
#N canvas 42 117 783 792 scalemaker 0;
#X obj 241 100 inlet;
#X obj 265 757 outlet;
#X obj 311 322 bng 15 250 50 0 empty empty empty 17 7 0 10 #fcfcfc #000000 #000000;
#X floatatom 372 459 5 0 0 0 - - - 0;
#X obj 414 449 + 12;
#X obj 311 379 t b b;
#X obj 355 651 + 0;
#X msg 372 377 set 0;
#X obj 549 321 bng 15 250 50 0 empty empty empty 17 7 0 10 #fcfcfc #000000 #000000;
#X floatatom 241 179 5 0 0 0 - - - 0;
#X obj 241 205 t b f b, f 52;
#X msg 415 479 set \$1;
#X obj 310 284 until;
#X obj 278 576 bop.p.iter;
#X obj 81 47 inlet;
#X obj 81 113 t b l, f 8;
#X obj 241 124 int;
#X obj 291 469 list;
#X obj 265 704 bop.p.accum, f 45;
#X connect 0 0 16 0;
#X connect 2 0 5 0;
#X connect 3 0 4 0;
#X connect 3 0 6 1;
#X connect 4 0 11 0;
#X connect 5 0 17 0;
#X connect 5 1 3 0;
#X connect 6 0 18 0;
#X connect 7 0 3 0;
#X connect 8 0 7 0;
#X connect 9 0 10 0;
#X connect 10 0 18 0;
#X connect 10 1 12 0;
#X connect 10 2 8 0;
#X connect 10 2 18 1;
#X connect 11 0 3 0;
#X connect 12 0 2 0;
#X connect 13 0 6 0;
#X connect 14 0 15 0;
#X connect 15 0 9 0;
#X connect 15 1 17 1;
#X connect 16 0 9 0;
#X connect 17 0 13 0;
#X connect 18 0 1 0;
#X restore 384 686 pd scalemaker;
#X obj 410 637 r \$0-get-octaves;
#X obj 355 780 list;
#X obj 348 255 bop.p.scale 0 1 -0.05 5;
#X obj 348 288 moses 0;
#X obj 506 223 + 0.05;
#X obj 348 417 moses 0;
#X msg 348 318 -1;
#X text 444 323 handle high and low retriggering;
#X obj 377 494 r \$0-get-chord;
#X obj 816 653 s \$0-set-chord-enum;
#X obj 666 195 loadbang;
#X obj 666 254 s \$0-set-octaves;
#X msg 666 222 range 1 6;
#X obj 403 1006 r \$0-get-velocity;
#X obj 403 1030 * 127;
#N canvas 702 379 450 472 shuffle 0;
#X obj 130 44 inlet;
#X obj 242 49 inlet;
#X obj 167 421 outlet;
#X obj 214 211 t f f;
#X obj 214 275 pack;
#X obj 212 241 % 2;
#X text 253 227 even = 0 \; odd = 1 \;;
#X obj 214 304 route 0 1;
#X obj 214 328 + 1;
#X obj 245 329 - 1;
#X obj 178 156 route 0 1;
#X obj 166 99 list prepend;
#X obj 232 366 + 0;
#X connect 0 0 11 0;
#X connect 1 0 11 1;
#X connect 3 0 5 0;
#X connect 3 1 4 1;
#X connect 4 0 7 0;
#X connect 5 0 4 0;
#X connect 7 0 8 0;
#X connect 7 1 9 0;
#X connect 8 0 12 0;
#X connect 9 0 12 0;
#X connect 10 0 2 0;
#X connect 10 1 3 0;
#X connect 11 0 10 0;
#X connect 12 0 2 0;
#X restore 546 653 pd shuffle;
#X obj 613 597 r \$0-get-shuffle;
#X obj 377 518 int;
#X obj 41 103 inlet~;
#X obj 38 1236 outlet~;
#X text 888 211 Read chords from texfile \; prepare notes for indexed access \; set enum label for ui \;;
#X obj 807 273 t b b b, f 47;
#X obj 545 1106 int;
#X obj 266 1008 r \$0-stop;
#X msg 266 1032 stop;
#X obj 211 463 bop.p.onlist;
#X text 214 489 LIST OF HELD NOTES;
#X listbox 203 516 20 0 0 0 - - - 0;
#X connect 1 0 0 0;
#X connect 1 0 68 0;
#X connect 3 0 2 0;
#X connect 4 0 22 0;
#X connect 5 0 10 0;
#X connect 6 0 5 0;
#X connect 7 0 8 0;
#X connect 8 0 9 0;
#X connect 8 1 6 0;
#X connect 8 2 9 1;
#X connect 9 0 52 0;
#X connect 10 0 9 0;
#X connect 11 1 25 0;
#X connect 13 0 11 0;
#X connect 14 0 13 0;
#X connect 16 0 17 0;
#X connect 17 0 14 0;
#X connect 17 1 23 0;
#X connect 18 0 42 0;
#X connect 19 0 21 0;
#X connect 20 0 45 0;
#X connect 21 0 47 0;
#X connect 22 0 64 0;
#X connect 23 0 15 0;
#X connect 24 0 26 0;
#X connect 27 0 28 0;
#X connect 28 0 48 0;
#X connect 29 0 30 0;
#X connect 30 0 40 0;
#X connect 31 0 18 0;
#X connect 32 0 44 0;
#X connect 32 1 58 0;
#X connect 33 0 34 0;
#X connect 34 0 35 0;
#X connect 35 0 36 2;
#X connect 36 0 41 0;
#X connect 36 1 65 0;
#X connect 39 0 40 1;
#X connect 40 0 36 0;
#X connect 41 0 0 0;
#X connect 42 0 44 1;
#X connect 42 0 24 0;
#X connect 43 0 42 1;
#X connect 44 0 29 0;
#X connect 45 0 46 0;
#X connect 46 0 49 0;
#X connect 46 1 27 0;
#X connect 47 0 45 4;
#X connect 48 1 32 0;
#X connect 49 0 27 0;
#X connect 51 0 60 0;
#X connect 53 0 55 0;
#X connect 55 0 54 0;
#X connect 56 0 57 0;
#X connect 57 0 36 1;
#X connect 58 0 29 1;
#X connect 59 0 58 1;
#X connect 60 0 31 0;
#X connect 61 0 62 0;
#X connect 64 0 7 0;
#X connect 64 1 16 0;
#X connect 64 2 3 0;
#X connect 65 0 41 1;
#X connect 66 0 67 0;
#X connect 67 0 36 0;
#X connect 68 0 70 0;
#X restore 388 214 pd noteslider;
#X connect 1 0 2 1;
#X connect 1 1 2 0;
#X connect 2 0 1 0;
#X connect 4 0 23 0;
#X connect 4 1 10 0;
#X connect 8 0 23 1;
#X connect 10 0 6 0;
#X connect 23 0 7 0;
#X connect 23 1 9 0;
#X coords 0 -1 1 1 166 240 1 100 100;
