#N canvas 302 86 853 706 12;
#X declare -path ./bop.p;
#X obj 592 123 savestate, f 17;
#X obj 591 96 bop.p.autosave \$0;
#X obj 438 193 inlet~, f 34;
#X obj 673 373 outlet;
#X text 673 410 MIDI and messages dump out of right, f 13;
#X obj 438 383 outlet~;
#X text 428 411 Signal out of left, f 9;
#X text 434 167 Signal \, MIDI \, and messages in left, f 36;
#X obj 673 287 bop.p.inout \$0;
#X obj 405 108 declare -path ./bop.p;
#X obj 491 257 r \$0-midi-in;
#X obj 490 335 s \$0-midi-out;
#X text 488 498 (Standard GOP width: 166);
#X text 416 565 -----------GLOBAL MESSAGES------------------;
#X msg 428 659 stop;
#X text 490 612 output all params from right outlet;
#X text 425 589 TODO....;
#X msg 428 613 get all;
#X obj 110 130 bop.p.number \$0 index 1;
#X obj 183 200 bop.p.toggle \$0 from-one 1;
#N canvas 612 166 851 654 index 0;
#X obj 113 225 outlet~;
#X obj 112 112 inlet~;
#X obj 313 162 inlet;
#X obj 315 532 outlet;
#X text 163 166 BUILD MODULE HERE;
#X obj 434 160 list length;
#X obj 392 254 %, f 11;
#X obj 392 36 r \$0-get-index;
#X obj 393 440 bop.p.nth, f 22;
#X obj 392 311 t b f, f 22;
#X obj 392 404 list;
#X obj 392 213 spigot, f 7;
#X obj 434 184 t f f;
#X text 474 210 < close spigot for list size of 0;
#X obj 392 99 -;
#X obj 410 69 r \$0-get-from-one;
#X msg 393 494 value \$1;
#X obj 417 372 r \$0-get-value-list;
#X obj 434 136 r \$0-get-value-list;
#X connect 1 0 0 0;
#X connect 2 0 3 0;
#X connect 5 0 12 0;
#X connect 6 0 9 0;
#X connect 7 0 14 0;
#X connect 8 0 16 0;
#X connect 9 0 10 0;
#X connect 9 1 8 1;
#X connect 10 0 8 0;
#X connect 11 0 6 0;
#X connect 12 0 11 1;
#X connect 12 1 6 1;
#X connect 14 0 11 0;
#X connect 15 0 14 1;
#X connect 16 0 3 0;
#X connect 17 0 10 1;
#X connect 18 0 5 0;
#X restore 438 294 pd index;
#X text 472 658 flush hanging midi notes \, stop any automation;
#X obj 110 150 bop.p.list \$0 value-list;
#X connect 0 0 1 1;
#X connect 0 1 1 0;
#X connect 1 0 0 0;
#X connect 2 0 20 0;
#X connect 2 1 8 0;
#X connect 8 0 3 0;
#X connect 10 0 20 1;
#X connect 20 0 5 0;
#X connect 20 1 11 0;
#X coords 0 -1 1 1 166 130 1 100 100;
