#N canvas 394 272 1076 656 12;
#X declare -path ./bop.p;
#X obj 229 89 metro 100;
#X obj 351 193 expr~ $v1 * 0.5 + 0.5;
#X obj 351 299 tabwrite~ \$0-view;
#X obj 229 57 r \$0-get-enable;
#X text 376 380 Other messages get picked up in the bop.p.param \, bop.p.toggle \, and bop.p.number objects, f 20;
#X obj 621 243 outlet;
#X obj 539 81 inlet~, f 12;
#X obj 536 244 outlet~;
#X obj 540 452 savestate, f 17;
#X obj 539 425 bop.p.autosave \$0;
#X text 537 372 ... and are stored in here when the parent patch is saved, f 22;
#X obj 485 28 declare -path ./bop.p;
#X obj 21 61 cnv 19 145 99 empty empty empty 24 12 0 12 #c6feff #404040 0;
#N canvas 266 303 450 278 (subpatch) 0;
#X array \$0-view 100 float 3;
#A 0 0 0 0 0 0 0 0 0 0 0 0 0 0 0 0 0 0 0 0 0 0 0 0 0 0 0 0 0 0 0 0 0 0 0 0 0 0 0 0 0 0 0 0 0 0 0 0 0 0 0 0 0 0 0 0 0 0 0 0 0 0 0 0 0 0 0 0 0 0 0 0 0 0 0 0 0 0 0 0 0 0 0 0 0 0 0 0 0 0 0 0 0 0 0 0 0 0 0 0 0;
#X coords 0 1 100 -1 146 100 1 0 0;
#X restore 20 60 graph;
#X obj 20 40 bop.p.toggle \$0 enable 1;
#X obj 621 178 bop.p.inout \$0;
#X obj 351 226 wrap~ -2 2;
#X obj 351 259 expr~ ($v1 - 0.5) * 2;
#X obj 212 226 snapshot~;
#X obj 20 160 bop.p.number \$0 signal 0;
#X obj 218 261 s \$0-set-signal;
#X connect 0 0 2 0;
#X connect 0 0 18 0;
#X connect 1 0 16 0;
#X connect 3 0 0 0;
#X connect 6 0 7 0;
#X connect 6 0 1 0;
#X connect 6 0 18 0;
#X connect 6 1 15 0;
#X connect 8 0 9 1;
#X connect 8 1 9 0;
#X connect 9 0 8 0;
#X connect 15 0 5 0;
#X connect 16 0 17 0;
#X connect 17 0 2 0;
#X connect 18 0 20 0;
#X coords 0 -1 1 1 166 180 1 10 10;
