#N canvas 48 125 921 706 12;
#X declare -path ./bop.p;
#X obj 592 123 savestate, f 17;
#X obj 591 96 bop.p.autosave \$0;
#X obj 438 193 inlet~, f 34;
#X obj 673 373 outlet;
#X text 673 410 MIDI and messages dump out of right, f 13;
#X obj 438 383 outlet~;
#X text 428 411 Signal out of left, f 9;
#X text 434 167 Signal \, MIDI \, and messages in left, f 36;
#X obj 673 287 bop.p.inout \$0;
#X obj 405 108 declare -path ./bop.p;
#X obj 541 257 r \$0-midi-in;
#X obj 540 335 s \$0-midi-out;
#N canvas 668 255 851 532 do-the-thing 0;
#X obj 113 225 outlet~;
#X obj 112 112 inlet~;
#X obj 313 162 inlet;
#X obj 315 532 outlet;
#X text 163 166 BUILD MODULE HERE;
#X obj 434 106 r \$0-get-values;
#X obj 434 130 list length;
#X obj 392 224 %, f 11;
#X obj 392 6 r \$0-get-index;
#X obj 417 372 r \$0-get-values;
#X obj 393 440 bop.p.nth, f 22;
#X obj 392 311 t b f, f 22;
#X msg 393 494 value \$1;
#X floatatom 412 248 5 0 0 0 - - - 0;
#X obj 392 404 list;
#X obj 392 183 spigot, f 7;
#X obj 434 154 t f f;
#X text 474 180 < close spigot for list size of 0;
#X obj 392 69 -;
#X floatatom 430 73 5 0 0 0 - - - 0;
#X floatatom 342 103 5 0 0 0 - - - 0;
#X obj 410 39 r \$0-get-from-one;
#X connect 1 0 0 0;
#X connect 2 0 3 0;
#X connect 5 0 6 0;
#X connect 6 0 16 0;
#X connect 7 0 11 0;
#X connect 7 0 13 0;
#X connect 8 0 18 0;
#X connect 9 0 14 1;
#X connect 10 0 12 0;
#X connect 11 0 14 0;
#X connect 11 1 10 1;
#X connect 12 0 3 0;
#X connect 14 0 10 0;
#X connect 15 0 7 0;
#X connect 16 0 15 1;
#X connect 16 1 7 1;
#X connect 18 0 15 0;
#X connect 18 0 20 0;
#X connect 21 0 18 1;
#X connect 21 0 19 0;
#X restore 438 294 pd do-the-thing;
#X text 488 498 (Standard GOP width: 166);
#X text 416 565 -----------GLOBAL MESSAGES------------------;
#X msg 428 659 stop;
#X text 490 612 output all params from right outlet;
#X text 472 658 flush hanging midi notes;
#X text 425 589 TODO....;
#X msg 428 613 get all;
#X obj 110 140 bop.p.number \$0 index 1;
#X obj 183 120 bop.p.toggle \$0 from-one 1;
#X obj 110 160 bop.p.list \$0 values;
#X connect 0 0 1 1;
#X connect 0 1 1 0;
#X connect 1 0 0 0;
#X connect 2 0 12 0;
#X connect 2 1 8 0;
#X connect 8 0 3 0;
#X connect 10 0 12 1;
#X connect 12 0 5 0;
#X connect 12 1 11 0;
#X coords 0 -1 1 1 166 110 1 100 100;
