#N canvas 263 248 907 484 12;
#X declare -path ./bop.p;
#X obj 537 86 savestate, f 17;
#X obj 536 59 bop.p.autosave \$0;
#X obj 383 176 inlet~, f 34;
#X obj 618 356 outlet;
#X text 618 393 MIDI and messages dump out of right, f 13;
#X obj 383 366 outlet~;
#X text 373 394 Signal out of left, f 9;
#X text 379 150 Signal \, MIDI \, and messages in left, f 36;
#X obj 618 270 bop.p.inout \$0;
#X obj 350 71 declare -path ./bop.p;
#X obj 416 240 r \$0-midi-in;
#X obj 415 318 s \$0-midi-out;
#X obj 110 130 bop.p.param \$0 cv-1 0;
#X obj 110 150 bop.p.param \$0 cv-2 0;
#X obj 110 170 bop.p.param \$0 cv-3 0;
#N canvas 683 462 643 381 cv 0;
#X obj 33 325 outlet~;
#X obj 32 42 inlet~;
#X obj 358 42 inlet;
#X obj 360 332 outlet;
#X obj 78 168 r~ \$0-get-cv-1;
#X obj 77 203 r~ \$0-get-cv-2;
#X obj 80 239 r~ \$0-get-cv-3;
#X obj 425 57 r \$0-get-cv-1;
#X obj 436 153 r \$0-get-cv-2;
#X obj 446 242 r \$0-get-cv-3;
#X msg 425 111 cv-1 \$1;
#X msg 437 203 cv-2 \$1;
#X msg 446 296 cv-3 \$1;
#X text 59 137 cv signals get summed;
#X text 514 96 cv floats are prepended with addresses, f 15;
#X obj 425 84 route float;
#X obj 436 177 route float;
#X obj 446 269 route float;
#X connect 1 0 0 0;
#X connect 2 0 3 0;
#X connect 4 0 0 0;
#X connect 5 0 0 0;
#X connect 6 0 0 0;
#X connect 7 0 15 0;
#X connect 8 0 16 0;
#X connect 9 0 17 0;
#X connect 10 0 3 0;
#X connect 11 0 3 0;
#X connect 12 0 3 0;
#X connect 15 0 10 0;
#X connect 16 0 11 0;
#X connect 17 0 12 0;
#X restore 383 277 pd cv;
#X connect 0 0 1 1;
#X connect 0 1 1 0;
#X connect 1 0 0 0;
#X connect 2 0 15 0;
#X connect 2 1 8 0;
#X connect 8 0 3 0;
#X connect 10 0 15 1;
#X connect 15 0 5 0;
#X connect 15 1 11 0;
#X coords 0 -1 1 1 166 100 1 100 100;
