#N canvas 243 37 1227 891 12;
#X declare -path ./bop.p;
#X declare -path ./help;
#X obj 49 136 inlet~, f 82;
#X obj 620 785 outlet;
#X obj 49 786 outlet~;
#X text 39 814 Signal out of left, f 9;
#X text 45 110 Signal \, MIDI \, and messages in left, f 36;
#X obj 139 356 pack f f f;
#X obj 139 385 route 1 2 3 4;
#X obj 139 276 unpack, f 10;
#X obj 139 314 poly 4 1, f 10;
#X obj 139 645 *~, f 9;
#X obj 66 248 r \$0-stop;
#X msg 66 272 stop;
#X obj 139 248 r \$0-midi;
#X obj 49 679 +~;
#X obj 561 80 r \$0-stop;
#X obj 715 80 r \$0-params;
#X obj 638 80 r \$0-midi;
#X msg 999 332 saw square pulse sinepulse halfpulse res-saw res-triangle res-trapezoid, f 27;
#X obj 335 370 bop.p.param \$0 filter 0.66;
#X obj 799 329 bop.p.param \$0 wave-1 1;
#X obj 799 366 bop.p.param \$0 wave-2 1, f 26;
#X obj 799 403 bop.p.param \$0 attack 0.1;
#X obj 799 441 bop.p.param \$0 decay 0.3;
#X obj 799 479 bop.p.param \$0 sustain 0.7;
#X obj 799 517 bop.p.param \$0 release 0.2;
#X text 621 823 stop \, midi \, params \, and dump;
#X obj 816 79 r \$0-dump;
#X obj 199 606 bop.p.param \$0 gain 1;
#X obj 43 50 declare -path ./bop.p;
#X obj 139 434 sub/casio~/voice \$0;
#X obj 161 464 sub/casio~/voice \$0;
#X obj 184 494 sub/casio~/voice \$0;
#X obj 205 524 sub/casio~/voice \$0;
#X obj 252 56 declare -path ./help;
#X obj 620 176 bop.p.inout \$0 bop.casio~;
#X connect 0 0 13 0;
#X connect 0 1 34 0;
#X connect 5 0 6 0;
#X connect 6 0 29 0;
#X connect 6 1 30 0;
#X connect 6 2 31 0;
#X connect 6 3 32 0;
#X connect 7 0 8 0;
#X connect 7 1 8 1;
#X connect 8 0 5 0;
#X connect 8 1 5 1;
#X connect 8 2 5 2;
#X connect 9 0 13 1;
#X connect 10 0 11 0;
#X connect 11 0 8 0;
#X connect 12 0 7 0;
#X connect 13 0 2 0;
#X connect 18 0 29 1;
#X connect 18 0 30 1;
#X connect 18 0 31 1;
#X connect 18 0 32 1;
#X connect 27 0 9 1;
#X connect 29 0 9 0;
#X connect 30 0 9 0;
#X connect 31 0 9 0;
#X connect 32 0 9 0;
#X connect 34 0 1 0;
#X coords 0 891 1 890 166 280 0;
