#N canvas 518 125 531 657 12;
#X text 80 54 bop.instrument~ provides synthesized mallets \, keys \, and plucked strings, f 48;
#X obj 211 557 dac~;
#X msg 214 157 stop;
#X obj 130 224 bop.sequence;
#A saved loop 1;
#A saved internal-sequence bump \; 42 100 \; 49 100 \; - 200 \;;
#X msg 223 186 open;
#X msg 81 403 instrument \$1;
#X obj 238 282 bop.ui;
#X msg 194 134 go;
#X obj 80 328 babs/babs.counter;
#X obj 81 298 bng 19 250 50 0 empty empty empty 0 -10 0 12 #fcfcfc #000000 #000000;
#X obj 171 454 cnv 19 200 80 empty empty empty 20 12 0 12 #c6feff #404040 0;
#X obj 211 487 bop.instrument~;
#A saved instrument 2;
#X floatatom 91 380 5 0 0 0 - - - 0;
#X obj 81 356 % 4;
#X obj 82 275 route bump, f 19;
#X connect 2 0 3 1;
#X connect 3 1 14 0;
#X connect 4 0 3 1;
#X connect 5 0 11 0;
#X connect 6 0 11 0;
#X connect 7 0 3 1;
#X connect 8 0 13 0;
#X connect 9 0 8 0;
#X connect 11 0 1 0;
#X connect 11 0 1 1;
#X connect 13 0 5 0;
#X connect 13 0 12 0;
#X connect 14 0 9 0;
#X connect 14 1 11 0;
