#N canvas 49 46 854 835 12;
#X text 662 260 I maj7;
#X text 679 346 III min7;
#X text 675 319 II min7;
#X text 689 371 IV maj7;
#X obj 69 432 bop.instrument~, f 20;
#A saved instrument 3;
#X msg 333 218 semisteps 0.434, f 18;
#X obj 64 85 bop.ui;
#X obj 69 465 dac~;
#X obj 62 331 cnv 19 200 80 empty empty empty 20 12 0 12 #ffe3c6 #404040 0;
#X obj 68 362 bop.semisteps, f 22;
#A saved semisteps 0.434;
#A saved root 52;
#A saved hold 1;
#A saved duration 0.25;
#A saved velocity 0.75;
#X text 134 597 major triad;
#X text 142 624 minor triad;
#X text 145 659 power chord;
#X msg 274 600 0.434;
#X msg 280 625 0.343;
#X msg 466 625 0.3434;
#X msg 460 600 0.4343;
#X msg 644 603 0.43434;
#X msg 90 597 0.43;
#X msg 96 622 0.34;
#X msg 100 659 0.75;
#X msg 608 322 2.343;
#X msg 618 349 4.343;
#X msg 632 374 5.434;
#X floatatom 609 411 18 0 0 0 - - - 0;
#X text 97 561 Common chord types:;
#X obj 353 341 r semisteps;
#X msg 354 460 semisteps \$1;
#X obj 609 445 s semisteps;
#X text 177 39 semisteps are a simple chord notation based on floating point numbers., f 82;
#X text 393 186 0 . 4 3 4;
#X obj 76 793 s semisteps;
#X obj 260 790 s semisteps;
#X obj 454 792 s semisteps;
#X obj 635 798 s semisteps;
#X msg 652 632 0.34343;
#X text 346 261 voices 0 \, 4 \, 7 \, and 11 semitones above root;
#X obj 353 406 +;
#X floatatom 371 373 5 0 0 1 pitch\ offset - - 0;
#X floatatom 353 433 14 0 0 0 - - - 0;
#X text 262 120 the number to the left of the decimal defines the pitch of the lowest voice, f 19;
#X text 425 122 digits following the decimal point reperesent additional voices up n-semitones from the previous voice, f 37;
#X text 434 519 more here: https://zeal.co/notebook/intermals/;
#X msg 288 658 0.433;
#X msg 470 663 0.4334;
#X msg 661 661 0.43343;
#X msg 677 689 0.43344;
#X text 703 602 major 7 #11;
#X text 519 599 major 9;
#X text 324 599 major 7;
#X text 332 626 minor 7;
#X text 334 657 dom 7;
#X text 529 663 dom 9;
#X text 527 626 minor 9;
#X text 713 633 minor 11;
#X text 720 661 dom 11;
#X text 736 689 dom 9 #11;
#X text 335 686 minor 7 b5;
#X msg 292 687 0.334;
#X msg 479 695 0.344;
#X text 528 695 minor maj7;
#X msg 110 687 0.77;
#X text 155 687 power 9;
#X msg 120 719 0.57;
#X text 161 715 power 4;
#X msg 315 744 0.41;
#X text 353 742 cluster 3 4;
#X msg 127 748 0.25;
#X text 165 746 1 2 5;
#X text 343 719 cluster 2 3;
#X msg 308 720 0.22;
#X obj 136 482 babs/babs.onlist;
#X listbox 136 506 20 0 0 0 - - - 0;
#X connect 4 0 7 0;
#X connect 4 0 7 1;
#X connect 4 1 71 0;
#X connect 5 0 9 1;
#X connect 6 0 9 0;
#X connect 9 0 4 0;
#X connect 9 1 4 1;
#X connect 13 0 32 0;
#X connect 14 0 32 0;
#X connect 15 0 33 0;
#X connect 16 0 33 0;
#X connect 17 0 34 0;
#X connect 18 0 31 0;
#X connect 19 0 31 0;
#X connect 20 0 31 0;
#X connect 21 0 24 0;
#X connect 22 0 24 0;
#X connect 23 0 24 0;
#X connect 24 0 28 0;
#X connect 26 0 37 0;
#X connect 27 0 9 1;
#X connect 35 0 34 0;
#X connect 37 0 39 0;
#X connect 38 0 37 1;
#X connect 39 0 27 0;
#X connect 43 0 32 0;
#X connect 44 0 33 0;
#X connect 45 0 34 0;
#X connect 46 0 34 0;
#X connect 58 0 32 0;
#X connect 59 0 33 0;
#X connect 61 0 31 0;
#X connect 63 0 31 0;
#X connect 65 0 32 0;
#X connect 67 0 31 0;
#X connect 70 0 32 0;
#X connect 71 0 72 0;
