#N canvas 609 147 632 530 12;
#X obj 210 147 bop.scope~;
#X obj 214 26 tgl 19 0 empty empty enable 23 10 0 12 #fcfcfc #000000 #000000 0 1;
#X text 378 358 < midi and messages out/though;
#X text 29 138 signal/midi/messages in >;
#X msg 340 71 64 127;
#X msg 347 98 test 1 2 3;
#N canvas 197 154 440 474 generate 0;
#X obj 296 135 inlet;
#X obj 212 344 outlet~;
#X obj 55 148 osc~ 234;
#X obj 56 206 expr~ tanh($v1 * 2) * 0.5;
#X obj 211 318 *~;
#X obj 296 221 * 0.5;
#X msg 223 256 \$1 1000;
#X obj 221 285 line~;
#X obj 55 172 *~ 2;
#X connect 0 0 5 0;
#X connect 2 0 8 0;
#X connect 3 0 4 0;
#X connect 4 0 1 0;
#X connect 5 0 6 0;
#X connect 6 0 7 0;
#X connect 7 0 4 1;
#X connect 8 0 3 0;
#X restore 213 55 pd generate;
#X text 66 358 signal out/through >;
#X obj 212 401 dac~;
#X text 401 68 < midi notes;
#X text 431 99 < messages;
#X obj 369 398 list;
#X listbox 369 422 20 0 0 0 - - - 0;
#X connect 0 0 8 0;
#X connect 0 0 8 1;
#X connect 0 1 11 0;
#X connect 1 0 6 0;
#X connect 4 0 0 0;
#X connect 5 0 0 0;
#X connect 6 0 0 0;
#X connect 11 0 12 0;
