#N canvas 518 102 759 579 12;
#X obj 68 455 bop.instrument~;
#A saved instrument 0;
#X msg 239 227 frets -12.224;
#X msg 240 251 stop;
#X text 340 83 E B E G#;
#X msg 239 86 frets 0.221;
#X msg 240 113 frets 0.022;
#X text 342 114 E A E A;
#X msg 241 187 frets 1.33211;
#X text 351 183 F C F A C F;
#X text 355 224 E(8vb) B E B;
#X msg 241 149 frets 3.20202;
#X text 352 151 G B D A B F#;
#X obj 68 499 dac~;
#X obj 64 77 bop.ui;
#X text 288 332 bop.frets provides fret notation as floating point numbers. The number to the left of the decimal point is the fret of the first (lowest) string. Digits to the right of the decimal point are frets of subsequent strings. The strings can be tuned with the tuning parameter. This is set in semisteps. The number to the left of the decimal is the distance from the root in semitones. Digits to the right of the decimal define the pitch of subsequent strings as incrementally in semitones. The default tuning \, for example \, is 0.55545. Assuming a root of E \, this is E A D G B E., f 61;
#X obj 51 349 cnv 19 200 80 empty empty empty 20 12 0 12 #c6feff #404040 0;
#X obj 66 378 bop.frets, f 23;
#A saved frets 0.022;
#A saved tuning 0.55545;
#A saved root 52;
#A saved hold 0;
#A saved velocity 0.7;
#A saved duration 0.3;
#X obj 165 497 print;
#X connect 0 0 12 0;
#X connect 0 0 12 1;
#X connect 0 1 17 0;
#X connect 1 0 16 1;
#X connect 2 0 16 1;
#X connect 4 0 16 1;
#X connect 5 0 16 1;
#X connect 7 0 16 1;
#X connect 10 0 16 1;
#X connect 13 0 16 0;
#X connect 16 0 0 0;
#X connect 16 1 0 1;
