#N canvas 248 59 454 789 12;
#X obj 30 472 bop.casio~;
#A saved wave-1 7;
#A saved wave-2 5;
#A saved filter 0.385246;
#A saved attack 0;
#A saved decay 0.592857;
#A saved sustain 0.285714;
#A saved release 0.264286;
#A saved gain 0.728571;
#X obj 97 17 tgl 19 0 empty empty empty 0 -10 0 12 #fcfcfc #000000 #000000 0 1;
#N canvas 109 64 647 775 generate 0;
#X obj 336 33 inlet;
#X obj 350 746 outlet;
#X obj 12 142 bng 19 250 50 0 empty empty empty 0 -10 0 12 #fcfcfc #000000 #000000;
#X obj 12 118 metro 400;
#X obj 76 317 sel 0 1;
#X msg 76 360 0.4343;
#X msg 137 360 -3.3434;
#X obj 18 489 f;
#X obj 76 264 sel 0;
#X obj 76 288 tgl 19 0 empty empty empty 0 -10 0 12 #fcfcfc #000000 #000000 0 1;
#X obj 76 240 % 16;
#X floatatom 126 240 5 0 0 0 - - - 0;
#X text 431 823 you have lovely eyes., f 24;
#X obj 178 659 bop.semisteps;
#A saved semisteps -3.3434;
#A saved root 55;
#A saved hold 0;
#A saved duration 0.371585;
#A saved velocity 0.75;
#X msg 12 526 semisteps \$1;
#X obj 234 199 sel 0 1, f 15;
#X msg 205 272 stop;
#X msg 432 286 duration loop 1 400 1 80 0.08 8000 0.08 4000, f 17;
#X msg 262 290 filter loop 1 400 1 80 0.1 8000 0.1 4000, f 17;
#X obj 71 175 ./babs/babs.counter;
#X obj 421 425 bop.gui;
#X connect 0 0 3 0;
#X connect 0 0 15 0;
#X connect 2 0 7 0;
#X connect 2 0 19 0;
#X connect 3 0 2 0;
#X connect 4 0 5 0;
#X connect 4 1 6 0;
#X connect 5 0 7 1;
#X connect 6 0 7 1;
#X connect 7 0 14 0;
#X connect 8 0 9 0;
#X connect 9 0 4 0;
#X connect 10 0 8 0;
#X connect 13 1 1 0;
#X connect 14 0 13 1;
#X connect 15 0 16 0;
#X connect 15 1 18 0;
#X connect 15 1 17 0;
#X connect 16 0 13 1;
#X connect 17 0 13 1;
#X connect 18 0 13 1;
#X connect 19 0 10 0;
#X connect 19 0 11 0;
#X connect 20 0 13 1;
#X restore 97 60 pd generate;
#X obj 117 96 bop.gui;
#X obj 30 524 dac~;
#X text 154 21 4-voice cz style casio synthesizer;
#X obj 97 520 bop.scope~;
#X connect 0 0 4 0;
#X connect 0 0 4 1;
#X connect 0 0 6 0;
#X connect 0 1 6 0;
#X connect 1 0 2 0;
#X connect 2 0 0 1;
#X connect 3 0 0 1;
