#N canvas 403 71 924 851 12;
#X obj 197 622 notein;
#X obj 196 668 pack;
#X obj 51 116 bop.ui;
#X obj 285 776 dac~;
#X obj 348 703 print;
#X msg 437 727 pack bop_samplepack;
#X text 50 22 [bop.sampler~] is a simple sampler and spiritual successor to the super sweet casio sk-1, f 90;
#X msg 370 428 mode \$1;
#X obj 370 392 tgl 19 1 empty empty empty 0 -10 0 12 #fcfcfc #000000 #000000 1 1;
#X msg 451 515 folder \$1;
#X floatatom 453 492 5 0 0 0 - - - 0;
#X msg 244 120 stop;
#X text 526 484 loads a folder of wav files into ram, f 44;
#X text 532 507 may cause pauses - note when automating this parameter or loading large files, f 44;
#X obj 252 590 cnv 19 200 80 empty empty empty 20 12 0 12 #ffe3c6 #404040 0;
#X obj 301 619 bop.sampler~;
#A saved pack bop_samplepack;
#A saved folder 3;
#A saved mode 1;
#A saved sample 0;
#A saved tune 0;
#A saved root 53;
#A saved loop 0;
#A saved loop-start 0;
#A saved loop-length 1;
#A saved attack 0;
#A saved release 0;
#A saved gain 1;
#X text 49 44 it provides midi-to-pitch and drum-rack style sample playback with basic looping and simple enveloping, f 65;
#X text 438 700 set the samplepack folder by name relative to bop/samplepacks/, f 63;
#X msg 327 333 \$1 127;
#X floatatom 328 303 5 0 0 0 - - - 0;
#N canvas 266 303 450 300 inc-dec 0;
#X obj 174 358 outlet;
#X obj 199 315 f;
#X obj 198 231 t b f b;
#X obj 231 279 f;
#X obj 203 284 +;
#X msg 206 202 -1;
#X msg 140 208 1;
#X obj 108 111 bng 19 250 50 0 empty empty next 22 5 0 12 #fcfcfc #000000 #000000;
#X obj 108 132 bng 19 250 50 0 empty empty prev 22 5 0 12 #fcfcfc #000000 #000000;
#X connect 1 0 3 1;
#X connect 1 0 0 0;
#X connect 2 0 1 0;
#X connect 2 1 4 0;
#X connect 2 2 3 0;
#X connect 3 0 4 1;
#X connect 4 0 1 1;
#X connect 5 0 2 0;
#X connect 6 0 2 0;
#X connect 7 0 6 0;
#X connect 8 0 5 0;
#X coords 0 -1 1 1 85 60 2 100 100;
#X restore 328 225 pd inc-dec;
#X text 395 375 [mode 0] repitch: midi sets pitch of chosen sample \; [mode 1] keymap: midi sets sample from chosen folder (sample and root parameters become inactive) \;, f 54;
#X text 360 160 trigger samples with midi notes;
#X msg 282 155 53 127;
#X msg 305 189 52 127;
#X connect 0 0 1 0;
#X connect 0 1 1 1;
#X connect 1 0 15 0;
#X connect 2 0 15 0;
#X connect 5 0 15 1;
#X connect 7 0 15 0;
#X connect 8 0 7 0;
#X connect 9 0 15 1;
#X connect 10 0 9 0;
#X connect 11 0 15 0;
#X connect 15 0 3 0;
#X connect 15 0 3 1;
#X connect 15 1 4 0;
#X connect 18 0 15 0;
#X connect 19 0 18 0;
#X connect 20 0 19 0;
#X connect 23 0 15 0;
#X connect 24 0 15 0;
