#N canvas 12 127 996 744 12;
#X msg 319 249 stop;
#X msg 319 226 go;
#X text 353 224 < go!;
#X msg 313 135 open, f 6;
#X obj 276 544 bop.instrument~;
#A saved instrument 3;
#X obj 276 497 bop.strum, f 15;
#A saved strum 0.1;
#A saved chord 7;
#A saved shuffle 0;
#A saved root 53;
#A saved octaves 3;
#A saved velocity 0.2;
#A saved duration 0.444;
#X obj 276 606 bop.delay~;
#A saved time 0.6;
#A saved feedback 0.75;
#A saved cutoff 1000;
#A saved q 0.3;
#A saved wet 0.692857;
#A saved dry 1;
#X obj 357 604 bop.delay~;
#A saved time 1;
#A saved feedback 0.2;
#A saved cutoff 1000;
#A saved q 0.3;
#A saved wet 0.75;
#A saved dry 1;
#X obj 276 671 dac~, f 12;
#X msg 321 274 reset;
#X msg 321 298 dump;
#X msg 318 203 loop 1;
#X text 371 203 < loop sequence;
#X obj 427 564 print bop.sequence;
#X obj 252 342 cnv 19 200 80 empty empty empty 20 12 0 12 #ffe3c6 #404040 0;
#X obj 278 369 bop.sequence, f 21;
#A saved read help.bopseq;
#A saved loop 0;
#A saved internal-sequence --- strum from 0 to 1 in 1000ms \; strum 0 1 1000 \; --- wait 1000ms \; - 1000 \; --- play two midi notes \; 40 100 \; 47 100 \; --- wait 2000ms \; - 2000 \; --- stop everything \; stop \; --- wait 1 second \; - 1000 \;;
#N canvas 330 184 455 569 todo 0;
#X text 104 28 --- todo... \; --- global state-saving [x] \; --- addressable parameters [x] \; --- built-in automation[x] \; --- esoteric chord notation [x] \; --- flexible text sequencing[x] \; --- X-platorm [x] \; --- highly networkable [x] \; --- very embedable [x] \; --- \; === --- begin loop [ ] \; - 1b --- one bar rest [ ] \; - b2 --- 1/2 bar rest [ ] \; - b4 --- 1/4 bar rest [ ] \; - 1000 --- 1000ms rest [x] \; --- \; instrument 3 \; gain 0 1 3000 \; root 43 \; velocity 0.6 \; intermal 0.75 \; - 1000 \; velocity 1.1 \; intermal 0.43 \; - 3000 \; === --- end loop [ ] \; osc 255.255.255 /ping 1 \; osc 127.0.0.1 /flame-thrower 1 \; volume 1.5 \; fan 0 \; midi 25 127 \; midi 32 127 \; midi 555 127 \; run explode-drives.sh [ ] \;;
#X restore 17 683 pd todo;
#X text 267 45 bop.sequence is an editor/player of list of messages, f 56;
#X text 370 133 < view/edit sequence;
#X text 515 222 WRITING SCRIPTS;
#X text 517 301 at least one rest is required for a looping sequence, f 54;
#X text 517 335 other lines can be messages \, midi notes \, or anything else, f 59;
#X msg 535 458 read;
#X obj 66 278 bop.ui;
#X text 445 168 < load from file in sequences directory;
#X msg 316 167 read help.bopseq;
#X msg 535 486 read help.bopseq \, go;
#X text 688 488 read and run, f 13;
#X text 578 458 open file dialog, f 32;
#X text 744 524 read and run forever;
#X msg 534 524 read help.bopseq \, loop 1 \, go;
#X text 519 274 - 1000 \;;
#X text 578 275 indicates rest for 1000 milliseconds;
#X text 517 247 all lines end with \;;
#X msg 519 389 read help.bopseq \, open;
#X text 692 388 load help file and open, f 59;
#X connect 0 0 15 0;
#X connect 1 0 15 0;
#X connect 3 0 15 0;
#X connect 4 0 6 0;
#X connect 4 0 7 0;
#X connect 4 1 7 0;
#X connect 5 0 4 0;
#X connect 5 1 4 1;
#X connect 6 0 8 0;
#X connect 7 0 8 1;
#X connect 9 0 15 0;
#X connect 10 0 15 0;
#X connect 11 0 15 0;
#X connect 15 0 5 0;
#X connect 15 1 5 1;
#X connect 15 1 13 0;
#X connect 22 0 15 1;
#X connect 23 0 15 0;
#X connect 25 0 15 0;
#X connect 26 0 15 1;
#X connect 30 0 15 1;
#X connect 34 0 15 1;
