#N canvas 651 172 726 637 12;
#X obj 279 177 bop.ui;
#X obj 281 544 dac~;
#X msg 446 212 time loop 0.2 500 0.4 500;
#X text 212 29 bop.delay~ is an upto 2.5 second delay line with feedback and a lopass filter, f 38;
#X obj 120 177 bop.instrument~, f 19;
#A saved instrument 2;
#X obj 120 123 tgl 19 0 empty empty <\ go 25 7 0 12 #fcfcfc #000000 #000000 0 1;
#N canvas 875 176 450 300 makenotes 0;
#X obj 120 29 inlet;
#X obj 180 112 bng 19 250 50 0 empty empty empty 17 7 0 10 #dfdfdf #000000 #000000;
#X obj 180 85 metro 8 120 permin;
#X obj 176 225 makenote 100 200;
#X obj 261 259 pack;
#X msg 180 195 52;
#X obj 179 163 sel 0 1;
#X obj 179 138 tgl 19 0 empty empty empty 0 -10 0 12 #fcfcfc #000000 #000000 0 1;
#X msg 221 192 40;
#X msg 83 105 stop;
#X obj 94 280 outlet;
#X obj 82 76 sel 0;
#X connect 0 0 11 0;
#X connect 0 0 2 0;
#X connect 1 0 7 0;
#X connect 2 0 1 0;
#X connect 3 0 4 0;
#X connect 3 1 4 1;
#X connect 4 0 10 0;
#X connect 5 0 3 0;
#X connect 6 0 5 0;
#X connect 6 1 8 0;
#X connect 7 0 6 0;
#X connect 8 0 3 0;
#X connect 9 0 10 0;
#X connect 11 0 9 0;
#X restore 120 147 pd makenotes;
#X obj 264 450 cnv 19 200 80 empty empty empty 20 12 0 12 #c6feff #404040 0;
#X obj 279 481 bop.delay~, f 21;
#A saved time 2.5;
#A saved feedback 0.842857;
#A saved cutoff 1152.84;
#A saved q 0.221429;
#A saved wet 0.878571;
#A saved dry 1;
#X obj 368 544 print bop.delay~;
#X connect 0 0 8 0;
#X connect 2 0 8 1;
#X connect 4 0 8 0;
#X connect 4 1 8 0;
#X connect 5 0 6 0;
#X connect 6 0 4 0;
#X connect 8 0 1 0;
#X connect 8 0 1 1;
#X connect 8 1 9 0;
