#N canvas 175 117 997 581 12;
#X declare -path ./bop1;
#X obj 46 651 declare -path ./bop1;
#X obj 520 158 bop.fm~;
#X obj 727 282 bop.scope~;
#X obj 49 690 bop.sampler;
#A saved  0 0 0 0 0 1 1;
#X text 43 625 use declare to access old bop modules;
#X obj 32 23 cnv 19 126 76 empty empty bop2 20 20 0 36 #c6feff #c7c6ff 0;
#X text 34 233 CHECK OUT THE HELP PATCHES -->;
#X obj 717 56 bop.delay~;
#X obj 513 51 bop.pluck~;
#X text 11 116 Friendly modules for PD Vanilla;
#X obj 304 65 bop.noteslider;
#X text 908 1811 comment;
#X obj 304 335 bop.intermal;
#A saved root 42;
#A saved intermal 0.434;
#A saved duration 0.25;
#A saved velocity 0.75;
#X text 37 151 - state saving \; - parameter messaging \; - built-in easing \;;
