#N canvas 52 110 1111 743 12;
#X declare -path ../../babs;
#X obj 254 910 outlet~;
#X obj 352 9 inlet;
#X obj 352 37 unpack, f 53;
#X obj 720 668 babs.adsr~ \$1;
#X obj 254 737 *~, f 67;
#X obj 282 452 r~ \$1-get-noise;
#X obj 272 770 r~ \$1-get-gain;
#X obj 254 422 +~;
#X obj 335 477 noise~;
#X obj 272 516 *~, f 10;
#X obj 254 666 bob~, f 16;
#X obj 363 632 *~ 4;
#X obj 254 546 +~;
#X obj 254 840 *~;
#X obj 307 558 r~ \$1-get-cutoff;
#X obj 363 603 r~ \$1-get-q;
#X obj 282 476 pow~ 4;
#X obj 272 794 pow~ 4;
#X obj 254 864 *~ 0.4;
#X obj 51 236 babs.slide~ 0 0;
#X obj 62 77 sig~;
#X obj 56 280 mtof~;
#X obj 75 129 +~;
#X obj 160 175 r \$1-get-slide;
#X obj 427 255 babs.slide~ 0 0;
#X obj 438 96 sig~;
#X obj 432 299 mtof~;
#X obj 451 148 +~;
#X obj 536 194 r \$1-get-slide;
#X obj 743 518 r \$1-get-attack;
#X obj 766 559 r \$1-get-decay;
#X obj 785 605 r \$1-get-sustain;
#X obj 809 638 r \$1-get-release;
#X obj 474 119 r~ \$1-get-osc2-tune;
#X obj 98 100 r~ \$1-get-osc1-tune;
#X obj 70 22 declare -path ../../babs;
#X obj 59 311 multiosc \$1 osc1;
#X obj 434 346 multiosc \$1 osc2;
#X connect 1 0 2 0;
#X connect 2 0 20 0;
#X connect 2 0 25 0;
#X connect 2 1 3 0;
#X connect 3 0 4 1;
#X connect 4 0 13 0;
#X connect 5 0 16 0;
#X connect 6 0 17 0;
#X connect 7 0 12 0;
#X connect 8 0 9 1;
#X connect 9 0 12 1;
#X connect 10 0 4 0;
#X connect 11 0 10 2;
#X connect 12 0 10 0;
#X connect 13 0 18 0;
#X connect 14 0 10 1;
#X connect 15 0 11 0;
#X connect 16 0 9 0;
#X connect 17 0 13 1;
#X connect 18 0 0 0;
#X connect 19 0 21 0;
#X connect 20 0 22 0;
#X connect 21 0 36 0;
#X connect 22 0 19 0;
#X connect 23 0 19 1;
#X connect 23 0 19 2;
#X connect 24 0 26 0;
#X connect 25 0 27 0;
#X connect 26 0 37 0;
#X connect 27 0 24 0;
#X connect 28 0 24 1;
#X connect 28 0 24 2;
#X connect 29 0 3 1;
#X connect 30 0 3 2;
#X connect 31 0 3 3;
#X connect 32 0 3 4;
#X connect 33 0 27 1;
#X connect 34 0 22 1;
#X connect 36 0 7 0;
#X connect 37 0 7 1;
