#N canvas 55 231 693 549 12;
#X declare -path ../bop.p;
#X obj 375 61 savestate, f 17;
#X obj 374 34 bop.p.autosave \$0;
#X obj 383 155 inlet~, f 12;
#X obj 520 365 outlet;
#X text 522 392 MIDI and messages dump out of right, f 13;
#X obj 383 365 outlet~;
#X text 383 393 Signal out of left, f 9;
#X text 379 119 Signal \, MIDI \, and messages in left, f 36;
#X text 383 490 (Standard GOP width: 166);
#X obj 96 34 declare -path ../bop.p;
#X obj 110 230 bop.p.param.gui \$0 filter;
#X obj 110 200 bop.p.enum.gui \$0 wave-2;
#X obj 110 150 bop.p.enum.gui \$0 wave-1;
#X obj 110 350 bop.p.param.gui \$0 gain 1;
#X obj 110 130 bop.p.number.gui \$0 wave-1;
#X obj 110 180 bop.p.number.gui \$0 wave-2;
#X obj 110 260 bop.p.adsr-params.gui \$0;
#X obj 383 256 ../bop.module/casio~;
#X obj 549 310 bop.p.togui \$0;
#X obj 463 208 bop.p.fromgui \$0;
#X connect 0 0 1 1;
#X connect 0 1 1 0;
#X connect 1 0 0 0;
#X connect 2 0 17 0;
#X connect 2 1 17 0;
#X connect 17 0 5 0;
#X connect 17 1 3 0;
#X connect 17 1 18 0;
#X connect 19 0 17 0;
#X coords 0 -1 1 1 166 280 1 100 100;
