#N canvas 729 248 644 406 12;
#X obj 101 101 cnv 15 144 18 empty empty empty 3 10 0 12 #c6feff #ffffff 0;
#X text 94 218 \$1: parent \$0;
#X text 94 274 binds to a ui element in parent patch with sends and receives as so:, f 20;
#X text 93 198 arguments:;
#X text 93 237 \$2: label of paramname;
#X obj 207 101 cnv 13 40 18 empty empty empty 3 10 0 12 #ffffff #ffffff 0;
#X listbox 102 102 17 0 0 1 \$2 \$1-set-\$2 \$1-get-\$2 10;
#X text 93 367 recv: \$0-to-[paramname];
#X obj 330 198 r \$1-get-\$2;
#X obj 330 222 list prepend \$2;
#X obj 330 257 s \$1-params;
#X obj 471 201 r \$1-update-\$2;
#X obj 471 235 list prepend set;
#X obj 471 309 s \$1-set-\$2;
#X obj 471 275 list trim;
#X connect 8 0 9 0;
#X connect 9 0 10 0;
#X connect 11 0 12 0;
#X connect 12 0 14 0;
#X connect 14 0 13 0;
#X coords 0 -1 1 1 146 20 2 100 100;
