#N canvas 55 148 617 680 12;
#X text 187 89 \$1: parent \$0;
#X text 186 108 \$2: label;
#X obj 15 192 symbol \$2;
#X text 185 218 send: \$0-from-[label];
#X text 185 240 recv: \$0-to-[label];
#X text 186 147 binds to a ui element in parent patch with sends and receives as so:, f 20;
#X text 186 69 arguments:;
#X msg 15 227 label \$1;
#X obj 15 118 loadbang;
#X obj 15 152 bng 19 250 50 0 empty empty empty 0 -10 0 12 #fcfcfc #000000 #000000;
#X obj 15 257 s \$1-set-\$2;
#X obj 23 340 route \$2;
#X obj 23 306 r \$1-params;
#X text 112 305 Receive from parent patch:;
#X obj 23 421 s \$1-set-\$2;
#X text 19 85 ----LABEL----;
#X obj 23 365 bng 19 250 50 0 empty empty empty 0 -10 0 12 #fcfcfc #000000 #000000;
#X text 188 26 buttons have no savestate \, default value \, or easing;
#X obj 98 137 delay 1;
#X obj 11 11 cnv 15 144 18 empty empty empty 3 10 0 12 #e3c6ff #ffffff 0;
#X obj 10 10 bng 20 250 50 0 \$1-get-\$2 \$1-set-\$2 :\ 0 22 10 0 10 #e3c6ff #c6feff #000000;
#X obj 427 203 r \$1-get-\$2;
#X obj 427 227 list prepend \$2;
#X obj 427 262 s \$1-params;
#X connect 2 0 7 0;
#X connect 7 0 10 0;
#X connect 8 0 18 0;
#X connect 9 0 2 0;
#X connect 11 0 16 0;
#X connect 12 0 11 0;
#X connect 21 0 22 0;
#X connect 22 0 23 0;
#X coords 0 -1 1 1 146 20 2 10 10;
