#N canvas 85 165 618 714 12;
#X text 295 49 \$1: parent \$0;
#X text 294 68 \$2: label;
#X text 42 111 send: \$0-from-[label];
#X text 42 133 recv: \$0-to-[label];
#X text 294 29 arguments:;
#X obj 299 185 r \$1-get-\$2;
#X obj 299 215 list prepend \$2;
#X obj 299 250 s \$1-params;
#X obj 41 197 r \$1-update-\$2;
#X obj 41 279 int;
#X obj 41 390 s \$1-set-\$2;
#X text 293 91 \$3: min;
#X text 292 114 \$4: min;
#X obj 11 11 cnv 15 144 18 empty empty empty 3 10 0 12 #ffffff #ffffff 0;
#X obj 10 10 nbx 7 20 0 20000 0 0 \$1-get-\$2 \$1-set-\$2 cutoff 78 10 0 10 #c6feff #000000 #000000 0 256;
#X msg 41 360 set \$1;
#X obj 41 252 * 100000;
#X obj 41 306 / 100000;
#X obj 40 223 route float;
#X obj 21 81 cnv 15 144 18 empty empty empty 3 10 0 12 #c6feff #ffffff 0;
#X connect 5 0 6 0;
#X connect 6 0 7 0;
#X connect 8 0 18 0;
#X connect 9 0 17 0;
#X connect 15 0 10 0;
#X connect 16 0 9 0;
#X connect 17 0 15 0;
#X connect 18 0 16 0;
#X coords 0 -1 1 1 146 20 2 10 10;
