#N canvas 815 113 554 643 12;
#X text 223 65 \$1: parent \$0;
#X text 222 84 \$2: label;
#X obj 36 369 t b f, f 13;
#X obj 37 502 pack s f, f 13;
#X obj 36 453 symbol \$2;
#X obj 122 408 * 1000;
#X obj 122 435 int;
#X obj 122 462 / 1000;
#X text 4 123 send: \$0-from-[label];
#X text 4 145 recv: \$0-to-[label];
#X text 222 45 arguments:;
#X obj 13 10 hsl 141 20 0 1 0 0 \$1-get-\$2 \$1-set-\$2 :\ 0 3 10 0 10 #e3c6ff #c6feff #000000 0 1;
#X obj 37 566 s \$1-set-\$2;
#X obj 36 314 r \$1-get-\$2;
#X obj 45 407 loadbang;
#X msg 37 536 label \$1:\\\ \$2;
#X text 36 277 ----LABEL----;
#X obj 288 185 r \$1-get-\$2;
#X obj 288 209 list prepend \$2;
#X obj 288 244 s \$1-params;
#X obj 255 335 r \$1-update-\$2;
#X obj 258 369 t b f, f 13;
#X obj 259 502 pack s f, f 13;
#X obj 258 453 symbol \$2;
#X obj 344 408 * 1000;
#X obj 344 435 int;
#X obj 344 462 / 1000;
#X obj 269 566 s \$1-set-\$2;
#X obj 267 407 loadbang;
#X msg 269 536 label \$1:\\\ \$2 \, set \$2;
#X connect 2 0 4 0;
#X connect 2 1 5 0;
#X connect 3 0 15 0;
#X connect 4 0 3 0;
#X connect 5 0 6 0;
#X connect 6 0 7 0;
#X connect 7 0 3 1;
#X connect 13 0 2 0;
#X connect 14 0 4 0;
#X connect 15 0 12 0;
#X connect 17 0 18 0;
#X connect 18 0 19 0;
#X connect 20 0 21 0;
#X connect 21 0 23 0;
#X connect 21 1 24 0;
#X connect 22 0 29 0;
#X connect 23 0 22 0;
#X connect 24 0 25 0;
#X connect 25 0 26 0;
#X connect 26 0 22 1;
#X connect 28 0 23 0;
#X connect 29 0 27 0;
#X coords 0 -1 1 1 146 20 2 10 10;
