#N canvas 834 159 554 718 12;
#X text 191 35 \$1: parent \$0;
#X text 190 54 \$2: label;
#X obj 36 369 t b f, f 13;
#X obj 37 502 pack s f, f 13;
#X obj 36 453 symbol \$2;
#X obj 122 408 * 1000;
#X obj 122 435 int;
#X obj 122 462 / 1000;
#X text 4 123 send: \$0-from-[label];
#X text 4 145 recv: \$0-to-[label];
#X text 190 15 arguments:;
#X obj 13 10 hsl 141 20 0 1 0 0 \$1-get-\$2 \$1-set-\$2 gain:\ 0 3 10 0 10 #e3c6ff #c6feff #000000 0 1;
#X obj 37 566 s \$1-set-\$2;
#X obj 36 314 r \$1-get-\$2;
#X obj 45 407 loadbang;
#X msg 37 536 label \$1:\\\ \$2;
#X text 36 277 ----LABEL----;
#X obj 268 192 r \$1-params;
#X obj 268 216 route \$2;
#X obj 270 261 s \$1-set-\$2;
#X connect 2 0 4 0;
#X connect 2 1 5 0;
#X connect 3 0 15 0;
#X connect 4 0 3 0;
#X connect 5 0 6 0;
#X connect 6 0 7 0;
#X connect 7 0 3 1;
#X connect 13 0 2 0;
#X connect 14 0 4 0;
#X connect 15 0 12 0;
#X connect 17 0 18 0;
#X connect 18 0 19 0;
#X coords 0 -1 1 1 146 20 2 10 10;
