#N canvas 617 159 800 728 12;
#X declare -path ../;
#X obj 222 210 cnv 19 150 50 empty empty empty 20 12 0 12 #ffe3c6 #404040 0;
#X obj 233 225 bop.strum, f 18;
#A saved strum 0;
#A saved chord 5;
#A saved shuffle 1;
#A saved root 46;
#A saved octaves 3;
#A saved velocity 0.888;
#A saved duration 0.444;
#X obj 231 668 dac~;
#X msg 348 141 instrument 0;
#X msg 289 82 strum 1 0 1000;
#X msg 234 39 50 127;
#X obj 354 666 print midi/msgs;
#X text 144 523 signal in >;
#X text 137 542 signal out >;
#X obj 223 516 cnv 19 150 50 empty empty empty 20 12 0 12 #ffe3c6 #404040 0;
#X obj 232 532 bop.instrument~, f 18;
#A saved instrument 2;
#X text 172 36 click >;
#X obj 55 210 cnv 19 150 50 empty empty empty 20 12 0 12 #feffc6 #404040 0;
#X text 61 226 this is a bop module -->;
#X obj 580 660 declare -path ../;
#X msg 416 504 dump;
#X text 240 409 signal passes through left inlets and outlets, f 16;
#X text 294 35 midi notes can be sent to any inlet;
#X msg 406 178 62 127;
#X text 239 307 you can chain modules together and messages are passed down the chain, f 18;
#X text 400 80 ... as can messages;
#X text 362 307 <------ all midi/msgs are forwarded to the right outlet, f 58;
#X text 440 139 all parameters can be automated with messages;
#X msg 397 446 instrument 2;
#X msg 391 420 instrument 1;
#X text 463 497 the dump message dumps all parameter names and values out the right outlet, f 40;
#X msg 416 548 52 127;
#X msg 417 571 52.5 127;
#X text 485 571 (notes are microtonal);
#X connect 1 0 10 0;
#X connect 1 1 10 1;
#X connect 3 0 1 1;
#X connect 4 0 1 1;
#X connect 5 0 1 0;
#X connect 10 0 2 0;
#X connect 10 1 6 0;
#X connect 15 0 10 1;
#X connect 18 0 1 1;
#X connect 23 0 10 1;
#X connect 24 0 10 1;
#X connect 26 0 10 1;
#X connect 27 0 10 1;
