#N canvas 337 71 873 731 12;
#X declare -path ../;
#X obj 224 208 cnv 19 150 50 empty empty empty 20 12 0 12 #ffe3c6 #404040 0;
#X obj 235 223 bop.strum, f 18;
#A saved strum 0;
#A saved chord 5;
#A saved shuffle 1;
#A saved root 46;
#A saved octaves 3;
#A saved velocity 0.888;
#A saved duration 0.444;
#X obj 233 646 dac~;
#X msg 374 143 instrument 0;
#X msg 359 118 strum 1 0 1000;
#X msg 236 57 50 127;
#X obj 356 644 print midi/msgs;
#X msg 387 167 instrument 2;
#X text 146 471 signal in >;
#X text 139 490 signal out >;
#X obj 225 464 cnv 19 150 50 empty empty empty 20 12 0 12 #ffe3c6 #404040 0;
#X obj 234 480 bop.instrument~, f 18;
#A saved instrument 2;
#X text 174 58 click >;
#X obj 252 557 cnv 19 150 50 empty empty empty 20 12 0 12 #ffe3c6 #404040 0;
#X obj 280 572 bop.reverb~;
#A saved size 0.878571;
#A saved damp 0.414286;
#A saved cutoff 900;
#A saved wet 1;
#A saved dry 0;
#X obj 58 213 cnv 19 150 50 empty empty empty 20 12 0 12 #feffc6 #404040 0;
#X text 63 224 this is a bop module -->;
#X obj 652 659 declare -path ../;
#X text 491 131 all parameters of bop modules can be set with messages, f 31;
#X msg 433 225 dump;
#X text 240 396 signal passes through left inlets and outlets, f 15;
#X text 520 103 same with messages;
#X text 296 58 midi notes can be sent to any inlet;
#X msg 250 82 62 127;
#X text 480 218 the dump message outputs all parameters and values out the right outlet, f 40;
#X text 364 283 <------ all incoming midi/msgs are forwarded to the right outlet, f 65;
#X text 364 325 you can chain modules together and messages are passed down the chain, f 23;
#X connect 1 0 11 0;
#X connect 1 1 11 1;
#X connect 3 0 1 1;
#X connect 4 0 1 1;
#X connect 5 0 1 0;
#X connect 7 0 1 1;
#X connect 11 0 2 0;
#X connect 11 0 14 0;
#X connect 11 1 14 1;
#X connect 14 0 2 1;
#X connect 14 1 6 0;
#X connect 19 0 1 1;
#X connect 23 0 1 1;
