#N canvas 476 105 841 728 12;
#X declare -path ../;
#X obj 184 210 cnv 19 150 50 empty empty empty 20 12 0 12 #ffe3c6 #404040 0;
#X obj 195 225 bop.strum, f 18;
#A saved strum 0;
#A saved chord 5;
#A saved shuffle 1;
#A saved root 46;
#A saved octaves 3;
#A saved velocity 0.888;
#A saved duration 0.444;
#X obj 193 648 dac~;
#X msg 334 145 instrument 0;
#X msg 319 120 strum 1 0 1000;
#X msg 196 59 50 127;
#X obj 316 646 print midi/msgs;
#X msg 347 169 instrument 2;
#X text 106 473 signal in >;
#X text 99 492 signal out >;
#X obj 185 466 cnv 19 150 50 empty empty empty 20 12 0 12 #ffe3c6 #404040 0;
#X obj 194 482 bop.instrument~, f 18;
#A saved instrument 2;
#X text 134 56 click >;
#X obj 212 559 cnv 19 150 50 empty empty empty 20 12 0 12 #ffe3c6 #404040 0;
#X obj 240 574 bop.reverb~;
#A saved size 0.878571;
#A saved damp 0.414286;
#A saved cutoff 900;
#A saved wet 1;
#A saved dry 0;
#X obj 17 210 cnv 19 150 50 empty empty empty 20 12 0 12 #feffc6 #404040 0;
#X text 23 226 this is a bop module -->;
#X obj 26 695 declare -path ../;
#X msg 393 223 dump;
#X text 200 398 signal passes through left inlets and outlets, f 15;
#X text 256 55 midi notes can be sent to any inlet;
#X msg 207 84 62 127;
#X text 324 285 <------ all incoming midi/msgs are forwarded to the right outlet, f 65;
#X text 324 327 you can chain modules together and messages are passed down the chain, f 23;
#X text 445 113 ... as can messages;
#X text 450 149 all parameters can be set with messages, f 40;
#X text 440 216 the dump message dumps all names and values out the right outlet, f 40;
#X msg 327 530 stop;
#X connect 1 0 11 0;
#X connect 1 1 11 1;
#X connect 3 0 1 1;
#X connect 4 0 1 1;
#X connect 5 0 1 0;
#X connect 7 0 1 1;
#X connect 11 0 2 0;
#X connect 11 0 14 0;
#X connect 11 1 14 1;
#X connect 14 0 2 1;
#X connect 14 1 6 0;
#X connect 18 0 1 1;
#X connect 21 0 1 1;
#X connect 27 0 14 1;
