#N canvas 249 43 913 845 12;
#X declare -path ../;
#X obj 269 233 cnv 19 150 50 empty empty empty 20 12 0 12 #ffe3c6 #404040 0;
#X obj 280 248 bop.strum, f 18;
#A saved strum 0;
#A saved chord 5;
#A saved shuffle 1;
#A saved root 42;
#A saved octaves 3;
#A saved velocity 0.888;
#A saved duration 0.444;
#X obj 278 691 dac~;
#X msg 341 147 strum 1 0 1000;
#X msg 281 88 50 127;
#X obj 401 689 print midi/msgs;
#X text 191 546 signal in >;
#X text 184 565 signal out >;
#X obj 270 539 cnv 19 150 50 empty empty empty 20 12 0 12 #ffe3c6 #404040 0;
#X obj 279 555 bop.instrument~, f 18;
#A saved instrument 2;
#X text 219 85 click >;
#X obj 102 233 cnv 19 150 50 empty empty empty 20 12 0 12 #feffc6 #404040 0;
#X text 108 249 this is a bop module -->;
#X obj 681 785 declare -path ../;
#X msg 463 547 dump;
#X text 341 84 midi notes can be sent to any inlet;
#X text 452 145 ... as can messages;
#X text 409 370 <------ all midi/msgs are forwarded to the right outlet, f 58;
#X msg 516 454 instrument 2;
#X msg 516 335 instrument 1;
#X text 510 540 the dump message dumps all parameter names and values out the right outlet, f 40;
#X msg 463 581 52 127;
#X msg 464 604 52.5 127;
#X msg 451 212 root 40;
#X msg 471 243 root 42;
#X text 536 604 notes are microtonal;
#X text 148 507 signal passes through the left, f 17;
#X msg 298 115 64 100;
#X text 448 182 all parameters in bop can be automated with messages;
#X text 464 401 chain modules together and messages are passed down the chain, f 50;
#X connect 1 0 9 0;
#X connect 1 1 9 1;
#X connect 3 0 1 1;
#X connect 4 0 1 0;
#X connect 9 0 2 0;
#X connect 9 1 5 0;
#X connect 14 0 9 1;
#X connect 18 0 9 1;
#X connect 19 0 1 1;
#X connect 21 0 9 1;
#X connect 22 0 9 1;
#X connect 23 0 1 1;
#X connect 24 0 1 1;
#X connect 27 0 1 1;
