#N canvas 268 63 993 853 12;
#X declare -path ../;
#X msg 210 256 0 1 1000;
#X msg 235 182 1 1000;
#X msg 297 183 0 1000;
#X msg 314 588 stop;
#X msg 252 418 1 1000 0 1000;
#X msg 198 383 1 1000 0 1000 0.5 500;
#X msg 190 766 1 1000 0 1000 10;
#X msg 160 688 loop 0.5;
#X msg 240 689 loop 0.75 1000;
#X text 360 686 loops ignored for one and two element lists;
#X msg 283 257 1 0 4000;
#X msg 190 734 loop 1 1000 0 1000 10;
#X msg 163 488 loop 1 1000 0 1000 0.5 500;
#X msg 251 512 loop 0 1 1000;
#X msg 254 101 0.5;
#X msg 316 103 1;
#X text 362 752 odd lengthed lists >=5 error;
#X msg 591 412 a b a b;
#X msg 592 382 a b a b a b;
#X msg 593 350 a b a b a b a b;
#X msg 588 108 x;
#X msg 590 185 x y;
#X msg 589 257 x y z;
#X text 363 103 go to x;
#X text 364 182 go to x in y ms;
#X text 361 257 go from x to y in z ms;
#X text 363 412 go to a in b milliseconds x 2;
#X text 362 383 go to a in b milliseconds x 3;
#X msg 133 354 1 1000 0 1000 0.5 500 0.2 2000;
#X text 364 352 go to a in b milliseconds x 4;
#X text 368 586 stop automation \, freeze output;
#X text 358 511 lists of 3+ elements can be looped;
#X text 390 22 parameter messages in bop;
#X obj 751 800 declare -path ../;
#X obj 756 252 bop.scope~;
#X obj 826 105 r gain;
#X obj 137 425 s gain;
#X obj 159 551 s gain;
#X obj 119 795 s gain;
#X obj 254 127 s gain;
#X obj 826 139 list prepend gain;
#X obj 826 172 list trim;
#X obj 210 291 s gain;
#X obj 236 211 s gain;
#X obj 306 617 s gain;
#X obj 759 201 bop.synth~;
#A saved osc1-wave 3;
#A saved osc1-tune 0;
#A saved osc1-pulsewidth 0.528571;
#A saved osc1-gain 1;
#A saved osc2-wave 3;
#A saved osc2-tune 0;
#A saved osc2-pulsewidth 0.442857;
#A saved osc2-gain 1;
#A saved noise 0.842857;
#A saved cutoff 20000;
#A saved q 0;
#A saved mono 0;
#A saved slide 0;
#A saved attack 0.1;
#A saved decay 0;
#A saved sustain 1;
#A saved release 0;
#A saved gain 0.716167;
#X obj 748 102 loadbang;
#X msg 748 126 64 127;
#X connect 0 0 42 0;
#X connect 1 0 43 0;
#X connect 2 0 43 0;
#X connect 3 0 44 0;
#X connect 4 0 36 0;
#X connect 5 0 36 0;
#X connect 6 0 38 0;
#X connect 7 0 38 0;
#X connect 8 0 38 0;
#X connect 10 0 42 0;
#X connect 11 0 38 0;
#X connect 12 0 37 0;
#X connect 13 0 37 0;
#X connect 14 0 39 0;
#X connect 15 0 39 0;
#X connect 28 0 36 0;
#X connect 35 0 40 0;
#X connect 40 0 41 0;
#X connect 41 0 45 1;
#X connect 45 0 34 0;
#X connect 46 0 47 0;
#X connect 47 0 45 0;
