#N canvas 115 55 1266 862 12;
#X declare -path ../;
#X msg 293 909 stop;
#X text 381 832 loops ignored for one and two element lists;
#X text 377 619 odd lengthed lists >=5 error;
#X msg 462 495 a b a b;
#X msg 461 526 a b a b a b;
#X msg 461 561 a b a b a b a b;
#X msg 452 190 x;
#X msg 452 254 x y;
#X msg 453 317 x y z;
#X text 511 253 go to x in y ms;
#X text 512 318 go from x to y in z ms;
#X text 381 900 stop automation \, freeze output;
#X text 383 765 lists of 3+ elements can be looped;
#X obj 946 1120 declare -path ../;
#X obj 942 578 bop.scope~;
#X text 378 189 1 element;
#X text 370 254 2 elements;
#X text 372 319 3 elements;
#X text 379 499 4 elements;
#X text 380 530 6 elements;
#X text 379 561 8 elements;
#X text 537 495 (go to a in b ms then) x 2;
#X text 559 525 (go to a in b ms then) x 3;
#X text 584 560 (go to a in b ms then) x 4;
#X text 510 189 go to x;
#X text 62 65 all parameters in bop can be controlled with messages;
#X obj 1010 103 bop.ui;
#X obj 941 504 bop.casio~, f 22;
#A saved wave-1 5;
#A saved wave-2 3;
#A saved filter 1;
#A saved attack 0.1;
#A saved decay 0.3;
#A saved sustain 1;
#A saved release 0.2;
#A saved gain 1;
#X msg 936 59 dump;
#X msg 882 62 stop;
#X obj 1099 482 r to-casio;
#X msg 849 27 52 127;
#X obj 945 851 dac~;
#X obj 190 360 s to-casio;
#X obj 45 608 s to-casio;
#X obj 63 793 s to-casio;
#X msg 224 184 filter 0.5;
#X msg 227 209 filter 1;
#X msg 229 241 filter 0 1000;
#X msg 229 267 filter 1 1000;
#X msg 228 302 filter 1 0 4000;
#X msg 229 329 filter 0 1 1000;
#X msg 57 497 filter 1 1000 0 1000;
#X msg 69 528 filter 1 1000 0 1000 0.5 500;
#X msg 71 561 filter 1 1000 0 1000 0.5 500 0.2 2000;
#X msg 102 750 filter loop 1 1000 0 1000 0.5 500;
#X msg 190 774 filter loop 0 1 1000;
#X obj 250 955 s to-casio;
#X msg 223 847 filter loop 0.5;
#X msg 127 607 filter loop 1 1000 0 1000 10;
#X msg 176 823 filter loop 0.75 1000;
#X msg 138 634 filter 1 1000 0 1000 10;
#X obj 137 874 s to-casio;
#X text 982 45 use [bop.ui] or send a dump message to see available parameters, f 36;
#X text 378 457 4+ elements lists that are (destination \, duration) pairs, f 60;
#X obj 105 661 s to-casio;
#X text 65 153 parameters are addressed by name, f 35;
#X text 356 153 list elements following the parameter name define an automation curve, f 73;
#X text 793 28 start >;
#X connect 0 0 47 0;
#X connect 14 0 32 0;
#X connect 14 0 32 1;
#X connect 26 0 27 1;
#X connect 27 0 14 0;
#X connect 27 1 14 0;
#X connect 28 0 27 0;
#X connect 29 0 27 0;
#X connect 30 0 27 1;
#X connect 31 0 27 0;
#X connect 36 0 33 0;
#X connect 37 0 33 0;
#X connect 38 0 33 0;
#X connect 39 0 33 0;
#X connect 40 0 33 0;
#X connect 41 0 33 0;
#X connect 42 0 34 0;
#X connect 43 0 34 0;
#X connect 44 0 34 0;
#X connect 45 0 35 0;
#X connect 46 0 35 0;
#X connect 48 0 52 0;
#X connect 49 0 55 0;
#X connect 50 0 52 0;
#X connect 51 0 55 0;
