#N canvas 674 47 711 826 12;
#X declare -path ../;
#X obj 1 14 cnv 19 650 1300 empty empty empty 20 12 0 12 #feffc6 #404040 0;
#X obj 50 852 bop.scope~;
#X obj 48 722 bop.sequence;
#X msg 47 656 go;
#X obj 49 1095 dac~;
#X obj 493 1259 dac~;
#X obj 493 1182 bop.strum, f 15;
#X obj 493 1214 bop.instrument~;
#X msg 493 1148 strum 1 0 5000;
#X obj 357 269 bop.delay~;
#X obj 455 472 bop.ui;
#X obj 50 764 bop.casio~, f 17;
#X text 46 228 connect to any bop module inlet and click (connect)->, f 55;
#X text 59 550 all parameter values are saved with the patch;
#X text 250 950 use [bop.scope~] to inspect signal \, midi and messages, f 60;
#X msg 83 682 stop;
#X text 47 528 [bop.ui] can be used to inspect and tweak modules, f 53;
#X obj 448 161 bop.ui;
#X text 152 69 [bop.ui] provides a control panel for any bop module, f 57;
#X text 64 1188 omit [bop.ui] and [bop.scope~] for fast \, minimal code;
#X obj 15 37 declare -path ../;
#X connect 1 0 4 0;
#X connect 1 0 4 1;
#X connect 2 0 11 0;
#X connect 2 1 11 1;
#X connect 3 0 2 0;
#X connect 6 0 7 0;
#X connect 6 1 7 1;
#X connect 7 0 5 0;
#X connect 7 0 5 1;
#X connect 8 0 6 0;
#X connect 10 0 11 1;
#X connect 11 0 1 0;
#X connect 11 1 1 0;
#X connect 15 0 2 0;
