#N canvas 0 37 1023 707 10;
#X text 146 224 558.227;
#X text 196 224 1470;
#X text 146 204 79;
#X text 196 204 30;
#X text 236 204 16;
#X text 236 244 4.9375;
#X text 236 224 2756.25;
#X text 196 244 2.633;
#X text 286 224 4009.09;
#X text 286 204 11;
#X text 286 244 7.18181;
#X text 336 204 8;
#X text 336 224 5512.5;
#X text 336 244 9.875;
#X text 336 264 89;
#X text 286 264 64;
#X text 236 264 45;
#X text 196 264 24;
#X obj 12 280 phasor~;
#X obj 12 301 *~ 9;
#X obj 12 322 -~ 0.25;
#X obj 12 343 cos~;
#X obj 62 322 -~ 0.25;
#X obj 62 343 cos~;
#X obj 62 301 *~ 24;
#X obj 122 322 -~ 0.25;
#X obj 122 343 cos~;
#X obj 182 322 -~ 0.25;
#X obj 182 343 cos~;
#X obj 122 301 *~ 45;
#X obj 182 301 *~ 64;
#X obj 242 322 -~ 0.25;
#X obj 242 343 cos~;
#X obj 12 364 *~;
#X obj 62 386 *~;
#X obj 122 386 *~;
#X obj 182 386 *~;
#X obj 242 386 *~;
#X obj 402 210 t b b;
#X obj 402 252 del 2;
#X obj 402 294 unpack f f;
#X msg 459 315 1000 \$1;
#X obj 459 336 /;
#X obj 402 350 lop~;
#X obj 12 259 / 9;
#X obj 242 301 *~ 89;
#X obj 302 322 -~ 0.25;
#X obj 302 343 cos~;
#X obj 302 386 *~;
#X obj 302 301 *~ 115;
#X obj 352 322 -~ 0.25;
#X obj 352 343 cos~;
#X obj 352 301 *~ 127;
#X obj 317 364 pow~ 16;
#X obj 77 364 pow~ 2;
#X obj 137 364 pow~ 4;
#X obj 197 364 pow~ 8;
#X obj 62 407 /~ 4;
#X obj 122 407 /~ 8;
#X obj 182 407 /~ 16;
#X msg 420 120 1000 \$1;
#X obj 420 141 /;
#X obj 420 184 t b f;
#X obj 402 273 pack f f;
#X obj 12 238 t f f;
#X obj 12 22 inlet;
#X obj 81 154 > 0;
#X obj 12 175 list prepend;
#X obj 12 196 route 1;
#X obj 12 217 pipe 2;
#X obj 572 386 sel 1;
#X obj 602 407 del 2;
#X msg 602 428 1 0;
#X msg 572 428 0 1;
#X obj 572 449 line~;
#X obj 489 147 sel 0;
#X obj 516 281 - 1;
#X obj 516 302 / 126;
#X msg 516 323 1 \$1;
#X obj 516 344 -;
#X obj 516 386 + 100;
#X obj 516 407 dbtorms;
#X obj 516 428 pipe 2;
#X obj 12 442 *~;
#X obj 12 463 *~;
#X obj 572 477 env~;
#X obj 572 498 change;
#X obj 572 519 sel 0;
#X msg 572 540 0;
#X msg 602 540 1;
#X obj 572 561 switch~;
#X msg 354 268 0;
#X obj 302 407 /~ 16;
#X msg 429 231 1 2;
#X obj 257 364 pow~ 32;
#X obj 516 365 * -24;
#X obj 12 536 outlet~;
#X obj 12 421 /~ 8;
#X obj 420 162 * 2048;
#X obj 81 133 clip 0 127;
#X obj 12 65 unpack;
#X obj 10 115 mtof;
#X obj 13 499 hip~ 5;
#X connect 18 0 19 0;
#X connect 18 0 24 0;
#X connect 18 0 29 0;
#X connect 18 0 30 0;
#X connect 18 0 45 0;
#X connect 18 0 52 0;
#X connect 18 0 49 0;
#X connect 19 0 20 0;
#X connect 20 0 21 0;
#X connect 21 0 33 0;
#X connect 22 0 23 0;
#X connect 23 0 34 0;
#X connect 24 0 22 0;
#X connect 25 0 26 0;
#X connect 26 0 35 0;
#X connect 27 0 28 0;
#X connect 28 0 36 0;
#X connect 29 0 25 0;
#X connect 30 0 27 0;
#X connect 31 0 32 0;
#X connect 32 0 37 0;
#X connect 33 0 97 0;
#X connect 34 0 57 0;
#X connect 35 0 58 0;
#X connect 36 0 59 0;
#X connect 37 0 59 0;
#X connect 38 0 39 0;
#X connect 38 1 93 0;
#X connect 39 0 63 0;
#X connect 40 0 43 0;
#X connect 40 1 41 0;
#X connect 41 0 42 0;
#X connect 42 0 43 1;
#X connect 43 0 33 1;
#X connect 43 0 53 0;
#X connect 43 0 54 0;
#X connect 43 0 55 0;
#X connect 43 0 56 0;
#X connect 43 0 94 0;
#X connect 44 0 18 0;
#X connect 45 0 31 0;
#X connect 46 0 47 0;
#X connect 47 0 48 0;
#X connect 48 0 92 0;
#X connect 49 0 46 0;
#X connect 50 0 51 0;
#X connect 51 0 47 0;
#X connect 52 0 50 0;
#X connect 53 0 48 1;
#X connect 54 0 34 1;
#X connect 55 0 35 1;
#X connect 56 0 36 1;
#X connect 57 0 97 0;
#X connect 58 0 97 0;
#X connect 59 0 97 0;
#X connect 60 0 61 0;
#X connect 61 0 98 0;
#X connect 62 0 38 0;
#X connect 62 1 63 1;
#X connect 63 0 40 0;
#X connect 64 0 44 0;
#X connect 64 1 60 0;
#X connect 65 0 100 0;
#X connect 66 0 67 1;
#X connect 66 0 70 0;
#X connect 67 0 68 0;
#X connect 68 0 69 0;
#X connect 69 0 64 0;
#X connect 70 0 71 0;
#X connect 70 0 73 0;
#X connect 71 0 72 0;
#X connect 71 0 89 0;
#X connect 71 0 91 0;
#X connect 72 0 74 0;
#X connect 73 0 74 0;
#X connect 74 0 84 1;
#X connect 75 1 76 0;
#X connect 76 0 77 0;
#X connect 77 0 78 0;
#X connect 78 0 79 0;
#X connect 79 0 95 0;
#X connect 80 0 81 0;
#X connect 81 0 82 0;
#X connect 82 0 83 1;
#X connect 83 0 84 0;
#X connect 84 0 85 0;
#X connect 84 0 102 0;
#X connect 85 0 86 0;
#X connect 86 0 87 0;
#X connect 87 0 88 0;
#X connect 88 0 90 0;
#X connect 89 0 90 0;
#X connect 91 0 18 1;
#X connect 92 0 59 0;
#X connect 93 0 40 0;
#X connect 94 0 37 1;
#X connect 95 0 80 0;
#X connect 97 0 83 0;
#X connect 98 0 62 0;
#X connect 99 0 66 0;
#X connect 99 0 75 0;
#X connect 100 0 101 0;
#X connect 100 1 99 0;
#X connect 101 0 67 0;
#X connect 102 0 96 0;
