#N canvas 32 67 976 772 10;
#X obj 870 35 inlet~ left;
#X obj 963 35 inlet~ right;
#X obj 1350 100 inlet note;
#X obj 1450 100 inlet ctl;
#X obj 970 452 outlet~ left;
#X obj 1086 451 outlet~ right;
#X obj 1350 300 outlet note;
#X obj 1450 300 outlet ctl;
#X obj 480 280 savestate, f 11;
#X text 570 280 👈 bangs when parent is saved;
#X obj 480 100 f;
#X obj 480 20 r save-state-\$0;
#X obj 550 310 s save-state-\$0;
#X obj 100 120 cnv 15 210 20 empty empty empty 7 7 0 14 #c8e1f7 #ffffff 0;
#X obj 50 620 s to-freeverb-\$0;
#X obj 1110 144 r to-freeverb-\$0;
#X obj 110 130 hsl 185 15 0 1.1 0 1 from-room-size-\$0 to-room-size-\$0 room-size:0.938587 5 5 0 10 #fcfcfc #000000 #000000 15700 1;
#X obj 110 150 hsl 185 15 0 1.25 0 1 from-damping-\$0 to-damping-\$0 damping:0.0883152 5 5 0 10 #fcfcfc #000000 #000000 1300 1;
#X obj 40 560 r from-room-size-\$0;
#X obj 40 680 s to-room-size-\$0;
#X obj 498 47 r from-room-size-\$0;
#X obj 480 500 s to-room-size-\$0;
#X obj 260 620 s to-freeverb-\$0;
#X msg 260 590 damping \$1;
#X obj 250 680 s to-damping-\$0;
#X obj 250 560 r from-damping-\$0;
#X obj 518 77 r from-damping-\$0;
#X obj 500 480 s to-damping-\$0;
#X obj 110 180 hsl 185 15 0.0125 1.25 1 1 from-wet-\$0 to-wet-\$0 wet:0.292735 5 5 0 10 #fcfcfc #000000 #000000 12600 1;
#X obj 600 620 s to-freeverb-\$0;
#X obj 590 560 r from-wet-\$0;
#X msg 600 590 wet \$1;
#X obj 590 680 s to-wet-\$0;
#X obj 568 127 r from-wet-\$0;
#X obj 540 430 s to-wet-\$0;
#X obj 110 200 hsl 185 15 0.01 1 1 1 from-dry-\$0 to-dry-\$0 dry:0.637306 5 5 0 10 #fcfcfc #000000 #000000 16600 1;
#X obj 770 620 s to-freeverb-\$0;
#X obj 760 560 r from-dry-\$0;
#X msg 770 590 dry \$1;
#X obj 760 680 s to-dry-\$0;
#X obj 570 410 s to-dry-\$0;
#X obj 580 150 r from-dry-\$0;
#X obj 590 180 r from-freeze-\$0;
#X obj 600 210 r from-bypass-\$0;
#X obj 590 390 s from-freeze-\$0;
#X obj 610 370 s from-bypass-\$0;
#X obj 1542 302 s to-room-size-\$0;
#X obj 1562 282 s to-damping-\$0;
#X obj 1582 262 s to-wet-\$0;
#X obj 1612 242 s to-dry-\$0;
#X obj 110 290 hsl 185 15 0 2 0 1 from-width-\$0 to-width-\$0 width:2 5 5 0 10 #fcfcfc #000000 #000000 18400 1;
#X obj 430 620 s to-freeverb-\$0;
#X obj 420 560 r from-width-\$0;
#X msg 430 590 width \$1;
#X obj 420 680 s to-width-\$0;
#X obj 478 337 unpack f f f f f f f;
#X obj 520 455 s to-width-\$0;
#X obj 480 250 pack f f f f f f f;
#X obj 528 102 r from-width-\$0;
#X obj 1480 150 route room-size damping wet dry freeze bypass width;
#X obj 1700 180 s to-width-\$0;
#X msg 50 590 roomsize \$1;
#X obj 1632 222 s to-freeze-\$0;
#X obj 1652 202 s to-bypass-\$0;
#X msg 40 650 label room-size:\$1;
#X msg 250 650 label damping:\$1;
#X msg 420 650 label width:\$1;
#X msg 592 645 label wet:\$1;
#X msg 760 650 label dry:\$1;
#X obj 1032 251 rev3~, f 22;
#X obj 1389 415 r to-freeverb-\$0;
#X text 1511 407 control inlets:;
#X text 1508 426 1: output level \, dB \, 0-100;
#X text 1507 476 4: high frequency damping \, 0-100;
#X text 1508 459 3: crossover frequency in Hz. (3000 default);
#X text 1508 442 2: liveness \, 0-100 \, usually between 85 and 100;
#X obj 1167 219 * 100;
#X obj 834 277 *~;
#X text 1156 274 todo- width;
#X obj 925 281 *~;
#X obj 1014 63 r to-freeverb-\$0;
#X obj 1014 90 route dry wet;
#X obj 1110 171 route roomsize damping;
#X obj 1110 194 * 100;
#X obj 969 368 *~;
#X obj 1060 372 *~;
#X connect 0 0 69 0;
#X connect 0 0 77 0;
#X connect 1 0 69 1;
#X connect 1 0 79 0;
#X connect 2 0 6 0;
#X connect 3 0 7 0;
#X connect 3 0 59 0;
#X connect 8 0 55 0;
#X connect 8 1 12 0;
#X connect 10 0 57 0;
#X connect 11 0 10 0;
#X connect 15 0 82 0;
#X connect 18 0 61 0;
#X connect 18 0 64 0;
#X connect 20 0 10 1;
#X connect 23 0 22 0;
#X connect 25 0 23 0;
#X connect 25 0 65 0;
#X connect 26 0 57 1;
#X connect 30 0 31 0;
#X connect 30 0 67 0;
#X connect 31 0 29 0;
#X connect 33 0 57 3;
#X connect 37 0 38 0;
#X connect 37 0 68 0;
#X connect 38 0 36 0;
#X connect 41 0 57 4;
#X connect 42 0 57 5;
#X connect 43 0 57 6;
#X connect 52 0 53 0;
#X connect 52 0 66 0;
#X connect 53 0 51 0;
#X connect 55 0 21 0;
#X connect 55 1 27 0;
#X connect 55 2 56 0;
#X connect 55 3 34 0;
#X connect 55 4 40 0;
#X connect 55 5 44 0;
#X connect 55 6 45 0;
#X connect 57 0 8 0;
#X connect 58 0 57 2;
#X connect 59 0 46 0;
#X connect 59 1 47 0;
#X connect 59 2 48 0;
#X connect 59 3 49 0;
#X connect 59 4 62 0;
#X connect 59 5 63 0;
#X connect 59 6 60 0;
#X connect 61 0 14 0;
#X connect 64 0 19 0;
#X connect 65 0 24 0;
#X connect 66 0 54 0;
#X connect 67 0 32 0;
#X connect 68 0 39 0;
#X connect 69 0 84 0;
#X connect 69 1 84 0;
#X connect 69 2 85 0;
#X connect 69 3 85 0;
#X connect 76 0 69 5;
#X connect 77 0 4 0;
#X connect 79 0 5 0;
#X connect 80 0 81 0;
#X connect 81 0 77 1;
#X connect 81 0 79 1;
#X connect 81 1 84 1;
#X connect 81 1 85 1;
#X connect 82 0 83 0;
#X connect 82 1 76 0;
#X connect 83 0 69 3;
#X connect 84 0 4 0;
#X connect 85 0 5 0;
#X coords 0 -1 1 1 210 120 1 100 100;
