#N canvas 456 37 768 778 10;
#X obj 670 100 inlet~ left;
#X obj 900 100 inlet~ right;
#X obj 1000 100 inlet note;
#X obj 670 220 outlet~ left;
#X obj 900 220 outlet~ right;
#X obj 1020 160 outlet note;
#X obj 1000 410 pack 0 0 0;
#X obj 1000 440 route 1 2 3 4, f 97;
#X obj 1000 580 *~ 0.5;
#X obj 1000 490 unpack;
#X obj 1000 520 mtof;
#X obj 1150 580 *~ 0.5;
#X obj 1150 490 unpack;
#X obj 1150 520 mtof;
#X obj 1290 580 *~ 0.5;
#X obj 1290 490 unpack;
#X obj 1290 520 mtof;
#X obj 1430 580 *~ 0.5;
#X obj 1430 490 unpack;
#X obj 1430 520 mtof;
#X obj 760 120 hip~ 5;
#X obj 760 145 clip~ -1 1;
#X obj 760 100 catch~ instrument-\$0;
#X obj 1000 620 throw~ instrument-\$0;
#X obj 1150 620 throw~ instrument-\$0;
#X obj 1290 620 throw~ instrument-\$0;
#X obj 1430 620 throw~ instrument-\$0;
#X obj 100 120 cnv 15 210 20 empty empty empty 7 7 0 14 #94c4ec #fcfcfc 0;
#X obj 1000 370 poly 4 1, f 10;
#X obj 875 288 r bop-play;
#X obj 875 308 sel 0;
#X obj 380 230 savestate, f 11;
#X text 470 230 👈 bangs when parent is saved;
#X obj 380 150 f;
#X obj 440 260 s save-state-\$0;
#X obj 380 190 pack f;
#X obj 380 260 unpack f;
#X obj 380 100 r save-state-\$0;
#X obj 1222 102 inlet ctl;
#X obj 1222 202 outlet ctl;
#X obj 110 130 tgl 15 1 from-pedal-\$0 to-pedal-\$0 pedal 20 5 0 10 #fcfcfc #000000 #000000 1 1;
#X obj 390 120 r from-pedal-\$0;
#X obj 380 300 s to-pedal-\$0;
#X obj 1060 200 r from-pedal-\$0;
#X obj 1242 142 route pedal;
#X obj 1242 172 s to-pedal-\$0;
#X obj 1000 550 sub.bop.rds~;
#X obj 1150 550 sub.bop.rds~;
#X obj 1290 550 sub.bop.rds~;
#X obj 1430 550 sub.bop.rds~;
#X obj 1000 240 sub.bop.util.sustain;
#X msg 875 329 stop;
#X obj 1000 340 unpack;
#X connect 0 0 3 0;
#X connect 1 0 4 0;
#X connect 2 0 5 0;
#X connect 2 0 50 0;
#X connect 6 0 7 0;
#X connect 7 0 9 0;
#X connect 7 1 12 0;
#X connect 7 2 15 0;
#X connect 7 3 18 0;
#X connect 8 0 23 0;
#X connect 9 0 10 0;
#X connect 9 1 46 1;
#X connect 10 0 46 0;
#X connect 11 0 24 0;
#X connect 12 0 13 0;
#X connect 12 1 47 1;
#X connect 13 0 47 0;
#X connect 14 0 25 0;
#X connect 15 0 16 0;
#X connect 15 1 48 1;
#X connect 16 0 48 0;
#X connect 17 0 26 0;
#X connect 18 0 19 0;
#X connect 18 1 49 1;
#X connect 19 0 49 0;
#X connect 20 0 21 0;
#X connect 21 0 3 0;
#X connect 21 0 4 0;
#X connect 22 0 20 0;
#X connect 28 0 6 0;
#X connect 28 1 6 1;
#X connect 28 2 6 2;
#X connect 29 0 30 0;
#X connect 30 0 51 0;
#X connect 31 0 36 0;
#X connect 31 1 34 0;
#X connect 33 0 35 0;
#X connect 35 0 31 0;
#X connect 36 0 42 0;
#X connect 37 0 33 0;
#X connect 38 0 39 0;
#X connect 38 0 44 0;
#X connect 41 0 33 1;
#X connect 43 0 50 1;
#X connect 44 0 45 0;
#X connect 46 0 8 0;
#X connect 47 0 11 0;
#X connect 48 0 14 0;
#X connect 49 0 17 0;
#X connect 50 0 52 0;
#X connect 51 0 28 0;
#X connect 52 0 28 0;
#X connect 52 1 28 1;
#X coords 0 -1 1 1 210 60 1 100 100;
