#N canvas 398 54 1272 870 12;
#X obj 110 150 hsl 185 15 0.0098 0.98 0 1 from-amount-\$0 to-amount-\$0 amount:0.526537 5 5 0 10 #fcfcfc #000000 #000000 9800 1;
#X obj 450 270 savestate, f 11;
#X text 540 270 👈 bangs when parent is saved;
#X obj 450 120 f;
#X obj 448 317 t b l;
#X obj 800 100 inlet~ left;
#X obj 1020 100 inlet~ right;
#X obj 800 370 outlet~ left;
#X obj 1020 380 outlet~ right;
#X obj 1200 100 inlet note;
#X obj 1300 100 inlet ctrl;
#X obj 450 40 r save-state-\$0;
#X obj 528 317 s save-state-\$0;
#X obj 1200 220 outlet note;
#X obj 1300 350 outlet ctrl;
#X obj 100 120 cnv 15 210 20 empty empty empty 7 7 0 14 #c8e1f7 #ffffff 0;
#X obj 460 70 r from-amount-\$0;
#X obj 480 530 s to-amount-\$0;
#X obj 1550 446 s to-amount-\$0;
#X obj 40 420 r from-amount-\$0;
#X obj 40 480 s to-amount-\$0;
#X obj 110 190 hsl 185 15 0.01 1 1 1 from-dry-\$0 to-dry-\$0 dry:0.951176 5 5 0 10 #fcfcfc #000000 #000000 18200 1;
#X obj 39 510 r from-dry-\$0;
#X obj 39 570 s to-dry-\$0;
#X obj 110 210 hsl 185 15 0.01 1 0 1 from-wet-\$0 to-wet-\$0 wet:0.198315 5 5 0 10 #fcfcfc #000000 #000000 3500 1;
#X obj 39 610 r from-wet-\$0;
#X obj 39 670 s to-wet-\$0;
#X obj 520 500 s to-dry-\$0;
#X obj 540 470 s to-wet-\$0;
#X obj 480 100 r from-dry-\$0;
#X obj 510 130 r from-wet-\$0;
#X obj 1590 396 s to-dry-\$0;
#X obj 1630 366 s to-wet-\$0;
#X obj 800 280 sub.bop.distortion.channel \$0;
#X obj 1020 280 sub.bop.distortion.channel \$0;
#X msg 39 450 label amount:\$1;
#X msg 37 552 label dry:\$1;
#X msg 39 640 label wet:\$1;
#X floatatom 230 380 5 0 0 0 - - - 0;
#X obj 110 130 hsl 185 15 0 1.9 0 1 from-mode-\$0 to-mode-\$0 mode:1(soft-clip) 5 5 0 10 #fcfcfc #000000 #000000 14700 1;
#X obj 230 350 i;
#X obj 230 460 r from-mode-\$0;
#X obj 230 807 s to-mode-\$0;
#X obj 230 500 int;
#X obj 230 530 t f b f;
#X obj 230 707 int;
#X obj 270 707 symbol;
#X obj 230 737 pack f s;
#X obj 230 420 s mode-\$0;
#X msg 253 558 crush soft-clip;
#X msg 230 766 label mode:\$1(\$2);
#X obj 230 310 r from-mode-\$0;
#X obj 570 440 s to-mode-\$0;
#X obj 530 160 r from-mode-\$0;
#X obj 1670 336 s to-mode-\$0;
#X obj 110 170 hsl 185 15 0 1 0 1 from-boost-\$0 to-boost-\$0 boost:0.646739 5 5 0 10 #fcfcfc #000000 #000000 11900 1;
#X obj 450 230 pack f f f f f;
#X obj 480 380 unpack f f f f f;
#X obj 460 590 r from-boost-\$0;
#X obj 460 720 s to-boost-\$0;
#X msg 460 680 label boost:\$1;
#X obj 550 190 r from-boost-\$0;
#X obj 590 410 s to-boost-\$0;
#X obj 1550 276 route amount dry wet mode boost;
#X obj 1720 306 s to-boost-\$0;
#X obj 820 160 r from-boost-\$0;
#X obj 800 240 *~;
#X obj 820 200 expr $f1 * 2 + 1;
#X obj 1039 154 r from-boost-\$0;
#X obj 1019 234 *~;
#X obj 1039 194 expr $f1 * 2 + 1;
#X obj 1500 200 route get;
#X text 1360 240 Send state as list out right inlet, f 25;
#X obj 253 619 list split;
#X obj 253 587 list prepend mode;
#X obj 321 525 + 1;
#X obj 253 648 list prepend mode;
#X msg 254 677 \$2;
#X connect 1 0 4 0;
#X connect 1 1 12 0;
#X connect 3 0 56 0;
#X connect 4 1 57 0;
#X connect 5 0 66 0;
#X connect 6 0 69 0;
#X connect 9 0 13 0;
#X connect 10 0 14 0;
#X connect 10 0 71 0;
#X connect 11 0 3 0;
#X connect 16 0 3 1;
#X connect 19 0 35 0;
#X connect 22 0 36 0;
#X connect 25 0 37 0;
#X connect 29 0 56 1;
#X connect 30 0 56 2;
#X connect 33 0 7 0;
#X connect 34 0 8 0;
#X connect 35 0 20 0;
#X connect 36 0 23 0;
#X connect 37 0 26 0;
#X connect 38 0 48 0;
#X connect 40 0 38 0;
#X connect 41 0 43 0;
#X connect 43 0 44 0;
#X connect 44 0 45 0;
#X connect 44 1 49 0;
#X connect 44 2 75 0;
#X connect 45 0 47 0;
#X connect 46 0 47 1;
#X connect 47 0 50 0;
#X connect 49 0 74 0;
#X connect 50 0 42 0;
#X connect 51 0 40 0;
#X connect 53 0 56 3;
#X connect 56 0 1 0;
#X connect 57 0 17 0;
#X connect 57 1 27 0;
#X connect 57 2 28 0;
#X connect 57 3 52 0;
#X connect 57 4 62 0;
#X connect 58 0 60 0;
#X connect 60 0 59 0;
#X connect 61 0 56 4;
#X connect 63 0 18 0;
#X connect 63 1 31 0;
#X connect 63 2 32 0;
#X connect 63 3 54 0;
#X connect 63 4 64 0;
#X connect 65 0 67 0;
#X connect 66 0 33 0;
#X connect 67 0 66 1;
#X connect 68 0 70 0;
#X connect 69 0 34 0;
#X connect 70 0 69 1;
#X connect 71 1 63 0;
#X connect 73 1 76 0;
#X connect 74 0 73 0;
#X connect 75 0 73 1;
#X connect 76 0 77 0;
#X connect 77 0 46 0;
#X coords 0 -1 1 1 210 140 1 100 100;
