#N canvas 161 119 1310 768 10;
#X obj 670 100 inlet~ left;
#X obj 900 100 inlet~ right;
#X obj 1000 100 inlet note;
#X obj 1100 100 inlet ctl;
#X obj 670 220 outlet~ left;
#X obj 900 220 outlet~ right;
#X obj 1020 200 outlet note;
#X obj 1100 200 outlet ctl;
#X obj 400 260 savestate, f 11;
#X text 490 260 👈 bangs when parent is saved;
#X obj 400 180 f;
#X obj 460 290 s save-state-\$0;
#X obj 1000 640 pack 0 0 0, f 13;
#X obj 1000 670 route 1 2 3 4, f 84;
#X obj 1000 810 *~ 0.5;
#X obj 1000 720 unpack;
#X obj 1000 750 mtof;
#X obj 1136 812 *~ 0.5;
#X obj 1136 722 unpack;
#X obj 1136 752 mtof;
#X obj 1268 810 *~ 0.5;
#X obj 1268 720 unpack;
#X obj 1268 750 mtof;
#X obj 1401 811 *~ 0.5;
#X obj 1401 721 unpack;
#X obj 1401 751 mtof;
#X obj 400 220 pack f;
#X obj 400 290 unpack f;
#X obj 767 90 hip~ 5;
#X obj 767 115 clip~ -1 1;
#X obj 100 120 cnv 15 210 20 empty empty empty 7 7 0 14 #97c5ee #ffffff 0;
#X obj 1000 600 poly 4 1, f 13;
#X obj 894 529 sel 0;
#X obj 110 130 tgl 15 1 from-pedal-\$0 to-pedal-\$0 pedal 20 5 0 10 #fcfcfc #000000 #000000 0 1;
#X obj 400 130 r save-state-\$0;
#X obj 410 150 r from-pedal-\$0;
#X obj 400 330 s to-pedal-\$0;
#X obj 1020 260 r from-pedal-\$0;
#X obj 1130 140 route pedal;
#X obj 1130 170 s to-pedal-\$0;
#X obj 1000 850 throw~ instrument-\$0;
#X obj 1136 852 throw~ instrument-\$0;
#X obj 1268 850 throw~ instrument-\$0;
#X obj 1401 851 throw~ instrument-\$0;
#X obj 767 70 catch~ instrument-\$0;
#X obj 1000 780 sub.bop.chimes~;
#X obj 1136 782 sub.bop.chimes~;
#X obj 1268 780 sub.bop.chimes~;
#X obj 1401 781 sub.bop.chimes~;
#X msg 894 555 stop;
#X obj 1000 300 sub.bop.util.sustain;
#X obj 1000 560 unpack, f 13;
#X obj 887 471 r from-pedal-\$0;
#X connect 0 0 4 0;
#X connect 1 0 5 0;
#X connect 2 0 6 0;
#X connect 2 0 50 0;
#X connect 3 0 7 0;
#X connect 3 0 38 0;
#X connect 8 0 27 0;
#X connect 8 1 11 0;
#X connect 10 0 26 0;
#X connect 12 0 13 0;
#X connect 13 0 15 0;
#X connect 13 1 18 0;
#X connect 13 2 21 0;
#X connect 13 3 24 0;
#X connect 14 0 40 0;
#X connect 15 0 16 0;
#X connect 15 1 45 1;
#X connect 16 0 45 0;
#X connect 17 0 41 0;
#X connect 18 0 19 0;
#X connect 18 1 46 1;
#X connect 19 0 46 0;
#X connect 20 0 42 0;
#X connect 21 0 22 0;
#X connect 21 1 47 1;
#X connect 22 0 47 0;
#X connect 23 0 43 0;
#X connect 24 0 25 0;
#X connect 24 1 48 1;
#X connect 25 0 48 0;
#X connect 26 0 8 0;
#X connect 27 0 36 0;
#X connect 28 0 29 0;
#X connect 29 0 4 0;
#X connect 29 0 5 0;
#X connect 31 0 12 0;
#X connect 31 1 12 1;
#X connect 31 2 12 2;
#X connect 32 0 49 0;
#X connect 34 0 10 0;
#X connect 35 0 10 1;
#X connect 37 0 50 1;
#X connect 38 0 39 0;
#X connect 44 0 28 0;
#X connect 45 0 14 0;
#X connect 46 0 17 0;
#X connect 47 0 20 0;
#X connect 48 0 23 0;
#X connect 49 0 31 0;
#X connect 50 0 51 0;
#X connect 51 0 31 0;
#X connect 51 1 31 1;
#X connect 52 0 32 0;
#X coords 0 -1 1 1 210 60 1 100 100;
