#N canvas 63 100 574 474 12;
#X obj 329 41 inlet;
#X obj 143 39 inlet;
#X obj 205 351 outlet;
#X obj 205 311 route, f 18;
#X obj 143 140 t l l;
#X msg 143 246 0 \$1 \$2;
#X obj 205 177 stripnote;
#X obj 205 213 pack;
#X msg 205 246 1 \$1 \$2;
#X connect 0 0 3 1;
#X connect 1 0 4 0;
#X connect 3 0 2 0;
#X connect 4 0 5 0;
#X connect 4 1 6 0;
#X connect 5 0 3 0;
#X connect 6 0 7 0;
#X connect 6 1 7 1;
#X connect 7 0 8 0;
#X connect 8 0 3 0;
