#N canvas 426 326 840 491 12;
#X obj 300 70 expr max(2 \, (1-$f1) * 256);
#X obj 13 26 inlet~;
#X obj 10 590 outlet~;
#X obj 300 30 r from-amount-\$1;
#X obj 300 129 line~;
#X msg 300 99 \$1 20;
#X obj 10 280 *~;
#X obj 30 240 r from-dry-\$1;
#X obj 190 480 *~;
#X obj 208 438 r from-wet-\$1;
#X obj 10 550 +~;
#X obj 190 200 sub.bop.fx.crush~;
#X obj 410 200 sub.bop.fx.softclip;
#X obj 240 280 r mode-\$1;
#X obj 220 250 sig~ 1;
#X obj 220 310 -~;
#X obj 190 360 *~;
#X obj 430 300 r mode-\$1;
#X obj 410 360 *~;
#X obj 190 400 +~;
#X obj 530 140 line~;
#X msg 530 110 \$1 20;
#X obj 530 20 r from-amount-\$1;
#X obj 530 50 pow 2;
#X obj 530 80 * 60;
#X connect 0 0 5 0;
#X connect 1 0 6 0;
#X connect 1 0 11 0;
#X connect 1 0 12 0;
#X connect 3 0 0 0;
#X connect 4 0 11 1;
#X connect 5 0 4 0;
#X connect 6 0 10 0;
#X connect 7 0 6 1;
#X connect 8 0 10 1;
#X connect 9 0 8 1;
#X connect 10 0 2 0;
#X connect 11 0 16 0;
#X connect 12 0 18 0;
#X connect 13 0 15 1;
#X connect 14 0 15 0;
#X connect 15 0 16 1;
#X connect 16 0 19 0;
#X connect 17 0 18 1;
#X connect 18 0 19 1;
#X connect 19 0 8 0;
#X connect 20 0 12 1;
#X connect 21 0 20 0;
#X connect 22 0 23 0;
#X connect 23 0 24 0;
#X connect 24 0 21 0;
