#N canvas 0 0 1522 772 10;
#X obj 230 60 inlet;
#X obj 70 170 - \$1;
#X obj 70 230 *;
#X obj 180 170 f \$2;
#X obj 180 210 - \$1;
#X obj 169 303 /;
#X obj 170 340 +;
#X obj 280 200 f \$3;
#X obj 170 370 outlet;
#X obj 150 100 t f b b b;
#X text 550 120 (((b-a)*(x-min))/(max-min) + a);
#X text 550 70 scaling from min - max to a - b;
#X obj 290 60 inlet;
#X obj 340 60 inlet;
#X obj 390 60 inlet;
#X obj 440 60 inlet;
#X obj 110 170 f \$4;
#X obj 110 200 - \$3;
#X connect 0 0 9 0;
#X connect 1 0 2 0;
#X connect 2 0 5 0;
#X connect 3 0 4 0;
#X connect 4 0 5 1;
#X connect 5 0 6 0;
#X connect 6 0 8 0;
#X connect 7 0 6 1;
#X connect 9 0 1 0;
#X connect 9 1 16 0;
#X connect 9 2 3 0;
#X connect 9 3 7 0;
#X connect 12 0 1 1;
#X connect 12 0 4 1;
#X connect 13 0 3 1;
#X connect 14 0 7 1;
#X connect 14 0 17 1;
#X connect 15 0 16 1;
#X connect 16 0 17 0;
#X connect 17 0 2 1;
