#N canvas 615 23 450 504 12;
#X obj 104 18 inlet~;
#N canvas 369 269 805 574 mktanh 0;
#N canvas 0 22 450 300 tanh 0;
#X obj 105 29 inlet;
#X obj 105 119 t a a;
#X obj 105 73 * 2;
#X obj 105 94 exp;
#X obj 105 172 / 1;
#X obj 105 199 outlet;
#X obj 105 148 - 1;
#X obj 137 148 + 1;
#X text 289 97 exp(2x) - 1;
#X text 290 125 exp(2x) + 1;
#X text 240 109 tanh = -----------;
#X obj 105 51 f;
#X connect 0 0 11 0;
#X connect 1 0 6 0;
#X connect 1 1 7 0;
#X connect 2 0 3 0;
#X connect 3 0 1 0;
#X connect 4 0 5 0;
#X connect 6 0 4 0;
#X connect 7 0 4 1;
#X connect 11 0 2 0;
#X restore 82 319 pd tanh;
#X msg 467 201 6.28319;
#X obj 82 292 * 6.28319;
#X obj 82 138 until;
#X obj 82 198 t a a;
#X obj 112 168 + 1;
#X obj 82 168 f 0;
#X msg 127 136 0;
#X obj 82 108 t f b;
#X obj 82 348 tabwrite \$0-tanh;
#X obj 82 262 - 1;
#X obj 82 56 loadbang;
#X text 466 179 2PI;
#X obj 82 374 table \$0-tanh 5000;
#X msg 82 84 5000;
#X obj 82 237 / 2500;
#X connect 0 0 9 0;
#X connect 2 0 0 0;
#X connect 3 0 6 0;
#X connect 4 0 15 0;
#X connect 4 1 9 1;
#X connect 5 0 6 1;
#X connect 6 0 5 0;
#X connect 6 0 4 0;
#X connect 7 0 6 1;
#X connect 8 0 3 0;
#X connect 8 1 7 0;
#X connect 10 0 2 0;
#X connect 11 0 14 0;
#X connect 14 0 8 0;
#X connect 15 0 10 0;
#X restore 235 232 pd mktanh;
#X obj 104 232 tabread4~ \$0-tanh;
#X obj 105 82 *~;
#X obj 103 168 +~ 2500;
#X obj 104 124 *~ 1000;
#X text 71 -33 clipping using tanh-waveshaper from rjdj ❤️;
#X obj 158 17 inlet~;
#X obj 110 340 outlet~;
#X obj 100 280 *~ 0.5;
#X connect 0 0 3 0;
#X connect 2 0 9 0;
#X connect 3 0 5 0;
#X connect 4 0 2 0;
#X connect 5 0 4 0;
#X connect 7 0 3 1;
#X connect 9 0 8 0;
