#N canvas 0 0 1522 772 10;
#X declare -path ../utils;
#N canvas 412 171 698 429 pb.tri~ 0;
#X obj 125 13 inlet~ freq;
#X obj 12 69 phasor~;
#X obj 125 140 *~;
#X obj 12 199 +~;
#N canvas 0 22 220 222 saw 0;
#X obj 62 119 -~ 1;
#X obj 62 141 outlet~;
#X obj 62 73 inlet~;
#X obj 62 97 +~;
#X connect 0 0 1 0;
#X connect 2 0 3 0;
#X connect 2 0 3 1;
#X connect 3 0 0 0;
#X restore 12 172 pd saw;
#X obj 372 113 wrap~;
#X obj 312 216 -~;
#X obj 327 189 +~;
#N canvas 0 22 220 222 saw 0;
#X obj 62 119 -~ 1;
#X obj 62 141 outlet~;
#X obj 62 73 inlet~;
#X obj 62 97 +~;
#X connect 0 0 1 0;
#X connect 2 0 3 0;
#X connect 2 0 3 1;
#X connect 3 0 0 0;
#X restore 327 162 pd saw;
#N canvas 0 22 253 235 1/Fs 0;
#X obj 55 77 samplerate~;
#X obj 55 57 loadbang;
#X msg 55 97 1 \$1;
#X obj 55 117 /;
#X obj 55 137 sig~;
#X obj 55 159 outlet~;
#X connect 0 0 2 0;
#X connect 1 0 0 0;
#X connect 2 0 3 0;
#X connect 3 0 4 0;
#X connect 4 0 5 0;
#X restore 140 113 pd 1/Fs;
#N canvas 0 22 532 303 polyblep 0;
#X obj 147 244 -~;
#X obj 372 82 -~;
#X obj 157 12 sig~ 1;
#X obj 177 49 /~;
#X obj 147 271 outlet~;
#X obj 12 12 inlet~ phase;
#X obj 387 12 inlet~ normalisedFreq;
#X obj 12 190 *~;
#X obj 162 190 *~;
#X obj 12 106 *~;
#X obj 162 163 -~;
#N canvas 467 216 175 111 @hv_obj 0;
#X obj 62 22 inlet~;
#X obj 12 12 inlet~;
#X obj 12 66 outlet~;
#X obj 12 39 *~;
#X connect 0 0 3 1;
#X connect 1 0 3 0;
#X connect 3 0 2 0;
#X restore 12 217 pd @hv_obj __and~f;
#N canvas 116 32 191 233 @hv_obj 0;
#X obj 49 83 -~;
#X obj 50 109 clip~ -1e-37 0;
#X obj 49 32 inlet~;
#X obj 93 33 inlet~;
#X obj 50 174 outlet~;
#X obj 50 151 *~ 1e+37;
#X obj 49 58 min~;
#X obj 50 130 +~ 1e-37;
#X connect 0 0 1 0;
#X connect 1 0 7 0;
#X connect 2 0 6 0;
#X connect 2 0 0 1;
#X connect 3 0 6 1;
#X connect 5 0 4 0;
#X connect 6 0 0 0;
#X connect 7 0 5 0;
#X restore 117 109 pd @hv_obj __lte~f;
#N canvas 258 74 144 198 @hv_obj 0;
#X obj 23 69 -~;
#X obj 23 94 clip~ -1e-37 0;
#X obj 23 18 inlet~;
#X obj 67 19 inlet~;
#X obj 23 159 outlet~;
#X obj 23 136 *~ 1e+37;
#X obj 23 44 min~;
#X obj 23 115 +~ 1e-37;
#X connect 0 0 1 0;
#X connect 1 0 7 0;
#X connect 2 0 6 0;
#X connect 3 0 6 1;
#X connect 3 0 0 1;
#X connect 5 0 4 0;
#X connect 6 0 0 0;
#X connect 7 0 5 0;
#X restore 267 109 pd @hv_obj __gte~f;
#X obj 177 136 -~;
#X obj 12 163 -~;
#N canvas 467 216 175 111 @hv_obj 0;
#X obj 62 22 inlet~;
#X obj 12 12 inlet~;
#X obj 12 66 outlet~;
#X obj 12 39 *~;
#X connect 0 0 3 1;
#X connect 1 0 3 0;
#X connect 3 0 2 0;
#X restore 162 217 pd @hv_obj __and~f;
#X connect 0 0 4 0;
#X connect 1 0 13 1;
#X connect 2 0 3 0;
#X connect 2 0 1 0;
#X connect 2 0 14 1;
#X connect 2 0 15 1;
#X connect 3 0 9 1;
#X connect 3 0 14 0;
#X connect 5 0 9 0;
#X connect 5 0 12 0;
#X connect 5 0 13 0;
#X connect 6 0 1 1;
#X connect 6 0 3 1;
#X connect 6 0 12 1;
#X connect 7 0 11 0;
#X connect 8 0 16 0;
#X connect 9 0 10 0;
#X connect 9 0 15 0;
#X connect 10 0 8 0;
#X connect 10 0 8 1;
#X connect 11 0 0 0;
#X connect 12 0 11 1;
#X connect 13 0 16 1;
#X connect 14 0 10 1;
#X connect 15 0 7 0;
#X connect 15 0 7 1;
#X connect 16 0 0 1;
#X restore 62 182 pd polyblep;
#N canvas 0 22 532 303 polyblep 0;
#X obj 147 244 -~;
#X obj 372 82 -~;
#X obj 157 12 sig~ 1;
#X obj 177 49 /~;
#X obj 147 271 outlet~;
#X obj 12 12 inlet~ phase;
#X obj 387 12 inlet~ normalisedFreq;
#X obj 12 190 *~;
#X obj 162 190 *~;
#X obj 12 106 *~;
#X obj 162 163 -~;
#N canvas 467 216 175 111 @hv_obj 0;
#X obj 62 22 inlet~;
#X obj 12 12 inlet~;
#X obj 12 66 outlet~;
#X obj 12 39 *~;
#X connect 0 0 3 1;
#X connect 1 0 3 0;
#X connect 3 0 2 0;
#X restore 12 217 pd @hv_obj __and~f;
#N canvas 116 32 191 233 @hv_obj 0;
#X obj 49 83 -~;
#X obj 50 109 clip~ -1e-37 0;
#X obj 49 32 inlet~;
#X obj 93 33 inlet~;
#X obj 50 174 outlet~;
#X obj 50 151 *~ 1e+37;
#X obj 49 58 min~;
#X obj 50 130 +~ 1e-37;
#X connect 0 0 1 0;
#X connect 1 0 7 0;
#X connect 2 0 6 0;
#X connect 2 0 0 1;
#X connect 3 0 6 1;
#X connect 5 0 4 0;
#X connect 6 0 0 0;
#X connect 7 0 5 0;
#X restore 117 109 pd @hv_obj __lte~f;
#N canvas 258 74 144 198 @hv_obj 0;
#X obj 23 69 -~;
#X obj 23 94 clip~ -1e-37 0;
#X obj 23 18 inlet~;
#X obj 67 19 inlet~;
#X obj 23 159 outlet~;
#X obj 23 136 *~ 1e+37;
#X obj 23 44 min~;
#X obj 23 115 +~ 1e-37;
#X connect 0 0 1 0;
#X connect 1 0 7 0;
#X connect 2 0 6 0;
#X connect 3 0 6 1;
#X connect 3 0 0 1;
#X connect 5 0 4 0;
#X connect 6 0 0 0;
#X connect 7 0 5 0;
#X restore 267 109 pd @hv_obj __gte~f;
#X obj 177 136 -~;
#X obj 12 163 -~;
#N canvas 467 216 175 111 @hv_obj 0;
#X obj 62 22 inlet~;
#X obj 12 12 inlet~;
#X obj 12 66 outlet~;
#X obj 12 39 *~;
#X connect 0 0 3 1;
#X connect 1 0 3 0;
#X connect 3 0 2 0;
#X restore 162 217 pd @hv_obj __and~f;
#X connect 0 0 4 0;
#X connect 1 0 13 1;
#X connect 2 0 3 0;
#X connect 2 0 1 0;
#X connect 2 0 14 1;
#X connect 2 0 15 1;
#X connect 3 0 9 1;
#X connect 3 0 14 0;
#X connect 5 0 9 0;
#X connect 5 0 12 0;
#X connect 5 0 13 0;
#X connect 6 0 1 1;
#X connect 6 0 3 1;
#X connect 6 0 12 1;
#X connect 7 0 11 0;
#X connect 8 0 16 0;
#X connect 9 0 10 0;
#X connect 9 0 15 0;
#X connect 10 0 8 0;
#X connect 10 0 8 1;
#X connect 11 0 0 0;
#X connect 12 0 11 1;
#X connect 13 0 16 1;
#X connect 14 0 10 1;
#X connect 15 0 7 0;
#X connect 15 0 7 1;
#X connect 16 0 0 1;
#X restore 372 157 pd polyblep;
#X obj 565 52 inlet phase;
#X obj 312 329 rpole~;
#X obj 520 168 loadbang;
#X obj 520 190 samplerate~;
#X obj 452 192 /~;
#X obj 377 246 /~;
#X obj 452 170 sig~ 1000;
#X obj 377 268 exp~;
#X obj 312 307 *~;
#X obj 327 285 -~;
#X obj 520 212 / 1000;
#X obj 452 229 *~;
#X obj 377 224 sig~ -0.5;
#X obj 312 351 *~ 8;
#X obj 312 373 clip~ -1 1;
#X obj 157 307 outlet~ square;
#X obj 467 30 abs~;
#X obj 467 52 clip~ 0 44100;
#X obj 312 395 outlet~ triangle;
#X obj 327 263 sig~ 1;
#X obj 222 103 +~;
#X obj 222 130 wrap~;
#X obj 157 226 -~;
#X obj 172 189 +~;
#N canvas 0 22 220 222 saw 0;
#X obj 62 119 -~ 1;
#X obj 62 141 outlet~;
#X obj 62 73 inlet~;
#X obj 62 97 +~;
#X connect 0 0 1 0;
#X connect 2 0 3 0;
#X connect 2 0 3 1;
#X connect 3 0 0 0;
#X restore 172 162 pd saw;
#X obj 157 280 -~ 1;
#X obj 157 253 +~;
#X obj 295 86 samphold~;
#X obj 295 193 +~;
#X obj 295 37 inlet~ width;
#N canvas 0 22 532 303 polyblep 0;
#X obj 147 244 -~;
#X obj 372 82 -~;
#X obj 157 12 sig~ 1;
#X obj 177 49 /~;
#X obj 147 271 outlet~;
#X obj 12 12 inlet~ phase;
#X obj 387 12 inlet~ normalisedFreq;
#X obj 12 190 *~;
#X obj 162 190 *~;
#X obj 12 106 *~;
#X obj 162 163 -~;
#N canvas 467 216 175 111 @hv_obj 0;
#X obj 62 22 inlet~;
#X obj 12 12 inlet~;
#X obj 12 66 outlet~;
#X obj 12 39 *~;
#X connect 0 0 3 1;
#X connect 1 0 3 0;
#X connect 3 0 2 0;
#X restore 12 217 pd @hv_obj __and~f;
#N canvas 116 32 191 233 @hv_obj 0;
#X obj 49 83 -~;
#X obj 50 109 clip~ -1e-37 0;
#X obj 49 32 inlet~;
#X obj 93 33 inlet~;
#X obj 50 174 outlet~;
#X obj 50 151 *~ 1e+37;
#X obj 49 58 min~;
#X obj 50 130 +~ 1e-37;
#X connect 0 0 1 0;
#X connect 1 0 7 0;
#X connect 2 0 6 0;
#X connect 2 0 0 1;
#X connect 3 0 6 1;
#X connect 5 0 4 0;
#X connect 6 0 0 0;
#X connect 7 0 5 0;
#X restore 117 109 pd @hv_obj __lte~f;
#N canvas 258 74 144 198 @hv_obj 0;
#X obj 23 69 -~;
#X obj 23 94 clip~ -1e-37 0;
#X obj 23 18 inlet~;
#X obj 67 19 inlet~;
#X obj 23 159 outlet~;
#X obj 23 136 *~ 1e+37;
#X obj 23 44 min~;
#X obj 23 115 +~ 1e-37;
#X connect 0 0 1 0;
#X connect 1 0 7 0;
#X connect 2 0 6 0;
#X connect 3 0 6 1;
#X connect 3 0 0 1;
#X connect 5 0 4 0;
#X connect 6 0 0 0;
#X connect 7 0 5 0;
#X restore 267 109 pd @hv_obj __gte~f;
#X obj 177 136 -~;
#X obj 12 163 -~;
#N canvas 467 216 175 111 @hv_obj 0;
#X obj 62 22 inlet~;
#X obj 12 12 inlet~;
#X obj 12 66 outlet~;
#X obj 12 39 *~;
#X connect 0 0 3 1;
#X connect 1 0 3 0;
#X connect 3 0 2 0;
#X restore 162 217 pd @hv_obj __and~f;
#X connect 0 0 4 0;
#X connect 1 0 13 1;
#X connect 2 0 3 0;
#X connect 2 0 1 0;
#X connect 2 0 14 1;
#X connect 2 0 15 1;
#X connect 3 0 9 1;
#X connect 3 0 14 0;
#X connect 5 0 9 0;
#X connect 5 0 12 0;
#X connect 5 0 13 0;
#X connect 6 0 1 1;
#X connect 6 0 3 1;
#X connect 6 0 12 1;
#X connect 7 0 11 0;
#X connect 8 0 16 0;
#X connect 9 0 10 0;
#X connect 9 0 15 0;
#X connect 10 0 8 0;
#X connect 10 0 8 1;
#X connect 11 0 0 0;
#X connect 12 0 11 1;
#X connect 13 0 16 1;
#X connect 14 0 10 1;
#X connect 15 0 7 0;
#X connect 15 0 7 1;
#X connect 16 0 0 1;
#X restore 222 157 pd polyblep;
#X obj 295 59 clip~ 0 1;
#X obj 12 278 *~ -1;
#X obj 372 86 +~ 0.5;
#X obj 542 25 / 2;
#X obj 600 83 cos~;
#X obj 600 104 outlet~ sine;
#X obj 12 300 outlet~ saw;
#X connect 0 0 28 0;
#X connect 1 0 4 0;
#X connect 1 0 10 0;
#X connect 1 0 32 0;
#X connect 1 0 39 1;
#X connect 1 0 45 0;
#X connect 1 0 47 0;
#X connect 2 0 10 1;
#X connect 2 0 11 1;
#X connect 2 0 42 1;
#X connect 3 0 6 0;
#X connect 3 0 34 0;
#X connect 3 0 44 0;
#X connect 4 0 3 0;
#X connect 5 0 8 0;
#X connect 5 0 11 0;
#X connect 6 0 20 0;
#X connect 7 0 6 1;
#X connect 8 0 7 0;
#X connect 9 0 2 1;
#X connect 10 0 3 1;
#X connect 11 0 7 1;
#X connect 12 0 1 1;
#X connect 13 0 25 0;
#X connect 14 0 15 0;
#X connect 15 0 22 0;
#X connect 15 0 46 0;
#X connect 16 0 23 0;
#X connect 17 0 19 0;
#X connect 18 0 16 0;
#X connect 19 0 13 1;
#X connect 19 0 21 1;
#X connect 20 0 13 0;
#X connect 21 0 20 1;
#X connect 22 0 23 1;
#X connect 23 0 17 1;
#X connect 24 0 17 0;
#X connect 25 0 26 0;
#X connect 26 0 30 0;
#X connect 28 0 29 0;
#X connect 29 0 16 1;
#X connect 29 0 1 0;
#X connect 29 0 2 0;
#X connect 31 0 21 0;
#X connect 32 0 33 0;
#X connect 33 0 36 0;
#X connect 33 0 42 0;
#X connect 34 0 38 0;
#X connect 35 0 34 1;
#X connect 36 0 35 0;
#X connect 37 0 27 0;
#X connect 38 0 37 0;
#X connect 39 0 32 1;
#X connect 39 0 40 0;
#X connect 39 0 40 1;
#X connect 40 0 38 1;
#X connect 41 0 43 0;
#X connect 42 0 35 1;
#X connect 43 0 39 0;
#X connect 44 0 49 0;
#X connect 45 0 5 0;
#X connect 46 0 29 2;
#X connect 47 0 48 0;
#X restore 180 520 pd pb.tri~;
#X obj 480 910 *~;
#X obj 480 950 outlet~;
#X obj 170 30 declare -path ../utils;
#X obj 180 322 inlet;
#X obj 180 410 mtof;
#X obj 180 350 unpack f f f;
#X obj 610 329 > 0;
#X obj 610 350 sel 1 0;
#X obj 670 328 r from-attack-\$1;
#X obj 690 378 r from-peak-\$1;
#X obj 720 408 r from-decay-\$1;
#X obj 750 458 r from-sustain-\$1;
#X obj 770 488 r from-release-\$1;
#X obj 820 530 r from-curve-\$1;
#X text 180 540 square;
#X text 280 540 saw;
#X text 360 550 triangle;
#X text 430 550 sine;
#X obj 250 810 +~;
#X obj 280 670 *~ 1;
#X obj 180 660 *~ 1;
#X obj 370 670 *~ 1;
#X obj 460 680 *~ 1;
#X obj 320 830 +~;
#X obj 370 860 +~;
#X obj 60 600 r from-square-\$1;
#X obj 190 610 r from-saw-\$1;
#X obj 300 620 r from-triangle-\$1;
#X obj 380 590 r from-sine-\$1;
#X obj 670 358 sub.bop.util.scale 0 1 1 1000;
#X obj 720 428 sub.bop.util.scale 0 1 1 2000;
#X obj 770 508 sub.bop.util.scale 0 1 1 1000;
#X obj 820 550 sub.bop.util.scale 0 1 -3 3;
#X obj 610 590 sub.bop.en.adsr~ 1000 1 1000 0.5 1000 -3;
#X obj 550 660 *~ 1;
#X obj 520 540 r from-noise-\$1;
#N canvas 0 0 450 300 pinknoise 0;
#X obj 42 89 noise~;
#X obj 151 105 *~ 0.099046;
#X text 179 83 b0;
#X text 297 84 b1;
#X text 397 83 b2;
#X obj 271 105 *~ 0.296516;
#X obj 371 105 *~ 1.05269;
#X obj 42 163 +~;
#X obj 42 184 +~;
#X obj 42 137 *~ 0.1848;
#X obj 42 205 +~;
#X obj 42 248 outlet~;
#X text 172 203 http://www.firstpr.com.au/dsp/pink-noise/;
#X obj 42 226 *~ 0.2;
#X obj 184 126 sig~ 0.99765;
#X obj 304 126 sig~ 0.963;
#X obj 404 126 sig~ 0.57;
#X obj 151 147 rpole~;
#X obj 271 147 rpole~;
#X obj 371 147 rpole~;
#X text 172 223 Paul Kellet's economy method:;
#X text 172 243 b0 = 0.99765 * b0 + white * 0.099046 \;;
#X text 172 263 b1 = 0.963 * b1 + white * 0.296516 \;;
#X text 172 283 b2 = 0.57 * b2 + white * 1.05269 \;;
#X text 172 303 tmp = b0 + b1 + b2 + white * 0.1848 \;;
#X text 42 268 (01) Output;
#X obj 78 42 inlet;
#X obj 78 63 t a b;
#X msg 105 131 clear;
#X text 78 22 (I1) Reset noise's seed and filter's state;
#X connect 0 0 1 0;
#X connect 0 0 5 0;
#X connect 0 0 6 0;
#X connect 0 0 9 0;
#X connect 1 0 17 0;
#X connect 5 0 18 0;
#X connect 6 0 19 0;
#X connect 7 0 8 0;
#X connect 8 0 10 0;
#X connect 9 0 7 0;
#X connect 10 0 13 0;
#X connect 13 0 11 0;
#X connect 14 0 17 1;
#X connect 15 0 18 1;
#X connect 16 0 19 1;
#X connect 17 0 7 1;
#X connect 18 0 8 1;
#X connect 19 0 10 1;
#X connect 26 0 27 0;
#X connect 27 0 0 0;
#X connect 27 1 28 0;
#X connect 28 0 17 0;
#X connect 28 0 19 0;
#X connect 28 0 18 0;
#X restore 490 620 pd pinknoise;
#X obj 454 823 +~;
#X obj 180 480 line~;
#X obj 220 390 r from-slide-\$1;
#X obj 180 450 pack f f;
#X obj 220 420 * 1200;
#X obj 328 453 sig~ 0.5;
#X connect 0 0 21 0;
#X connect 0 1 20 0;
#X connect 0 2 22 0;
#X connect 0 3 23 0;
#X connect 1 0 2 0;
#X connect 4 0 6 0;
#X connect 5 0 41 0;
#X connect 6 1 5 0;
#X connect 6 2 7 0;
#X connect 7 0 8 0;
#X connect 8 0 34 0;
#X connect 8 1 34 1;
#X connect 9 0 30 0;
#X connect 10 0 34 3;
#X connect 11 0 31 0;
#X connect 12 0 34 5;
#X connect 13 0 32 0;
#X connect 14 0 33 0;
#X connect 19 0 24 0;
#X connect 20 0 19 1;
#X connect 21 0 19 0;
#X connect 22 0 24 1;
#X connect 23 0 25 1;
#X connect 24 0 25 0;
#X connect 25 0 38 0;
#X connect 26 0 21 1;
#X connect 27 0 20 1;
#X connect 28 0 22 1;
#X connect 29 0 23 1;
#X connect 30 0 34 2;
#X connect 31 0 34 4;
#X connect 32 0 34 6;
#X connect 33 0 34 7;
#X connect 34 0 1 1;
#X connect 35 0 38 1;
#X connect 36 0 35 1;
#X connect 37 0 35 0;
#X connect 38 0 1 0;
#X connect 39 0 0 0;
#X connect 40 0 42 0;
#X connect 41 0 39 0;
#X connect 42 0 41 1;
#X connect 43 0 0 1;
