#N canvas 181 279 632 499 12;
#X obj 73 -159 i;
#X msg 73 -39 list ticks 16ths 12ths 8ths beats bars, f 18;
#X obj 73 -69 t b f, f 21;
#X text 280 -35 todo: calculate bars according to time signature, f 17;
#X obj 267 -99 t b f, f 21;
#X msg 267 -69 1 6 8 12 24 96, f 18;
#X obj 266 156 *;
#X obj 279 120 t b f;
#X obj 72 -193 inlet;
#X obj 288 88 inlet;
#X obj 73 109 outlet;
#X obj 264 210 outlet;
#X obj 73 74 symbol;
#X obj 73 33 sub.bop.util.nth, f 21;
#X obj 267 47 sub.bop.util.nth, f 21;
#X connect 0 0 2 0;
#X connect 0 0 4 0;
#X connect 1 0 13 0;
#X connect 2 0 1 0;
#X connect 2 1 13 1;
#X connect 4 0 5 0;
#X connect 4 1 14 1;
#X connect 5 0 14 0;
#X connect 6 0 11 0;
#X connect 7 0 6 0;
#X connect 7 1 6 1;
#X connect 8 0 0 0;
#X connect 9 0 7 0;
#X connect 12 0 10 0;
#X connect 13 0 12 0;
#X connect 14 0 6 0;
