#N canvas 376 0 770 772 10;
#X obj 20 688 *~ 0.5;
#X obj 20 10 inlet;
#X obj 20 98 mtof;
#X msg 90 167 \$1 100;
#X obj 90 188 line~;
#X obj 50 68 s velocity-in-\$0;
#X obj 30 327 r velocity-in-\$0;
#X obj 160 148 r from-wave-1-\$1;
#X obj 210 178 r from-wave-2-\$1;
#X obj 160 178 int;
#X obj 210 208 int;
#X obj 90 128 r from-filter-\$1;
#X obj 30 359 > 0;
#X obj 30 380 sel 1 0;
#X obj 20 658 *~;
#X obj 90 358 r from-attack-\$1;
#X obj 110 408 r from-peak-\$1;
#X obj 140 438 r from-decay-\$1;
#X obj 170 488 r from-sustain-\$1;
#X obj 190 518 r from-release-\$1;
#X obj 240 560 r from-curve-\$1;
#X obj 20 38 unpack f f f;
#X obj 20 750 outlet~;
#X obj 90 388 sub.bop.util.scale 0 1 1 1000;
#X obj 140 458 sub.bop.util.scale 0 1 1 2000;
#X obj 190 538 sub.bop.util.scale 0 1 1 1000;
#X obj 240 580 sub.bop.util.scale 0 1 -3 3;
#X obj 20 278 sub.bop.cz-osc~ 0, f 37;
#X obj 30 620 sub.bop.en.adsr~ 1000 1 1000 0.5 1000 -3;
#X connect 0 0 22 0;
#X connect 1 0 21 0;
#X connect 2 0 27 0;
#X connect 3 0 4 0;
#X connect 4 0 27 1;
#X connect 6 0 12 0;
#X connect 7 0 9 0;
#X connect 8 0 10 0;
#X connect 9 0 27 2;
#X connect 10 0 27 3;
#X connect 11 0 3 0;
#X connect 12 0 13 0;
#X connect 13 0 28 0;
#X connect 13 1 28 1;
#X connect 14 0 0 0;
#X connect 15 0 23 0;
#X connect 16 0 28 3;
#X connect 17 0 24 0;
#X connect 18 0 28 5;
#X connect 19 0 25 0;
#X connect 20 0 26 0;
#X connect 21 1 2 0;
#X connect 21 2 5 0;
#X connect 23 0 28 2;
#X connect 24 0 28 4;
#X connect 25 0 28 6;
#X connect 26 0 28 7;
#X connect 27 0 14 0;
#X connect 28 0 14 1;
