#N canvas 615 23 450 300 10;
#X obj 20 50 t l l, f 16;
#X msg 110 80 \$2, f 5;
#X obj 110 110 > 0;
#X obj 20 20 inlet;
#X obj 20 230 outlet;
#X obj 120 230 outlet;
#X obj 20 190 sub.bop.util.gate;
#X text 140 110 1 = noteon \, 0 = noteoff;
#X connect 0 0 6 1;
#X connect 0 1 1 0;
#X connect 1 0 2 0;
#X connect 2 0 6 0;
#X connect 3 0 0 0;
#X connect 6 0 4 0;
#X connect 6 1 5 0;
