#N canvas 36 120 450 300 10;
#X obj 38 226 expr $f2+(($f1-$f2)/$f3);
#X obj 108 196 t f;
#X obj 38 56 t f f;
#X obj 67 87 >;
#X obj 97 119 sel 1 0;
#X obj 38 13 inlet;
#X obj 170 14 inlet slideup;
#X obj 289 16 inlet slidedown;
#X obj 38 268 outlet;
#X obj 161 170 f \$1;
#X obj 195 170 f \$2;
#X text 349 263 .mmb;
#X connect 0 0 1 0;
#X connect 0 0 3 1;
#X connect 0 0 8 0;
#X connect 1 0 0 1;
#X connect 2 0 0 0;
#X connect 2 1 3 0;
#X connect 3 0 4 0;
#X connect 4 0 9 0;
#X connect 4 1 10 0;
#X connect 5 0 2 0;
#X connect 6 0 9 1;
#X connect 7 0 10 1;
#X connect 9 0 0 2;
#X connect 10 0 0 2;
