#N canvas 435 78 1041 810 12;
#X declare -path ../;
#X obj 298 999 dac~;
#X obj 329 553 bop.instrument~;
#A saved instrument 0;
#X obj 327 522 bop.strum, f 22;
#A saved strum 0.12;
#A saved chord 1;
#A saved shuffle 1;
#A saved root 62;
#A saved octaves 2;
#A saved velocity 0.888;
#A saved duration 0.444;
#X obj 330 631 bop.delay~;
#A saved time 2.4;
#A saved feedback 0.578571;
#A saved cutoff 20000;
#A saved q 0;
#A saved wet 0.564286;
#A saved dry 0.607143;
#X obj 528 304 random 100;
#X obj 528 330 / 100;
#X obj 158 122 bng 19 250 50 0 empty empty empty 0 -10 0 12 #fcfcfc #000000 #000000;
#X obj 159 12 tgl 19 0 empty empty empty 0 -10 0 12 #fcfcfc #000000 #000000 0 1;
#X floatatom 172 254 5 0 0 0 - - - 0;
#X msg 174 361 root \$1;
#X obj 318 681 bop.instrument~;
#A saved instrument 1;
#X obj 301 829 bop.reverb~, f 24;
#A saved size 0.5;
#A saved damp 0.5;
#A saved cutoff 3000;
#A saved wet 0.7;
#A saved dry 1;
#X obj 338 588 bop.reverb~;
#A saved size 0.5;
#A saved damp 0.5;
#A saved cutoff 3000;
#A saved wet 0.7;
#A saved dry 1;
#X obj 317 29 declare -path ../;
#X obj 173 222 babs/babs.counter 4;
#X obj 158 66 random 100;
#X obj 159 37 metro 10400;
#X obj 414 900 sig~;
#X obj 296 945 expr~ tanh($v1 * $v2) * $v3, f 35;
#X obj 507 905 sig~;
#X obj 509 879 nbx 5 17 -1e+37 1e+37 0 1 empty empty empty 0 -10 0 12 #fcfcfc #000000 #000000 0.7 256;
#X obj 419 865 nbx 5 17 -1e+37 1e+37 0 1 empty empty empty 0 -10 0 12 #fcfcfc #000000 #000000 1.6 256;
#X obj 321 136 tgl 19 0 empty empty empty 0 -10 0 12 #fcfcfc #000000 #000000 0 1;
#X obj 60 246 sel 1;
#X msg 168 450 stop;
#X obj 60 269 bng 19 250 50 0 empty empty empty 0 -10 0 12 #fcfcfc #000000 #000000;
#X obj 20 547 bop.semisteps;
#A saved semisteps -12.752;
#A saved root 62;
#A saved hold 1;
#A saved duration 0.25;
#A saved velocity 0.557143;
#X obj 22 586 bop.instrument~;
#A saved instrument 1;
#X obj 490 370 f;
#X obj 460 405 pack;
#X obj 462 313 bng 19 250 50 0 empty empty empty 0 -10 0 12 #fcfcfc #000000 #000000;
#X msg 526 396 strum \$1 1100;
#X msg 458 441 strum \$2 1100 \$1 1100;
#X obj 172 301 * 5;
#X obj 172 325 + 52;
#X obj 300 914 lop~ 1200;
#X msg 1 448 stop \, semisteps -12.752 \, attack 8 \, decay 15, f 21;
#X obj 35 726 expr~ tanh(tanh($v1 * 3) * 3) * 0.3;
#X obj 32 683 bop.reverb~;
#A saved size 0.914286;
#A saved damp 0.807143;
#A saved cutoff 1200;
#A saved wet 0.921429;
#A saved dry 0.814286;
#X obj 466 269 sel 1 0, f 18;
#X obj 172 277 % 3;
#X obj 158 94 > 10;
#X connect 1 0 12 0;
#X connect 1 1 12 1;
#X connect 2 0 1 0;
#X connect 2 1 1 1;
#X connect 3 0 10 0;
#X connect 3 1 10 1;
#X connect 4 0 5 0;
#X connect 5 0 31 0;
#X connect 5 0 28 1;
#X connect 6 0 14 0;
#X connect 6 0 22 0;
#X connect 7 0 16 0;
#X connect 8 0 40 0;
#X connect 9 0 2 1;
#X connect 9 0 26 1;
#X connect 10 0 11 0;
#X connect 10 1 11 1;
#X connect 11 0 35 0;
#X connect 12 0 3 0;
#X connect 12 1 3 1;
#X connect 14 0 8 0;
#X connect 15 0 41 0;
#X connect 16 0 15 0;
#X connect 17 0 18 1;
#X connect 18 0 0 0;
#X connect 18 0 0 1;
#X connect 19 0 18 2;
#X connect 20 0 19 0;
#X connect 21 0 17 0;
#X connect 22 0 23 0;
#X connect 22 0 39 0;
#X connect 23 0 25 0;
#X connect 24 0 3 0;
#X connect 25 0 24 0;
#X connect 25 0 36 0;
#X connect 26 0 27 0;
#X connect 26 1 27 1;
#X connect 27 0 38 0;
#X connect 27 1 38 1;
#X connect 28 0 29 1;
#X connect 29 0 32 0;
#X connect 30 0 29 0;
#X connect 31 0 2 1;
#X connect 32 0 2 1;
#X connect 33 0 34 0;
#X connect 34 0 9 0;
#X connect 35 0 18 0;
#X connect 36 0 26 0;
#X connect 37 0 11 0;
#X connect 38 0 37 0;
#X connect 39 0 30 0;
#X connect 39 1 4 0;
#X connect 40 0 33 0;
#X connect 41 0 6 0;
