#N canvas 736 279 378 546 12;
#X declare -path ../;
#X obj 193 468 declare -path ../;
#X floatatom 23 106 5 0 0 0 - - - 0;
#X msg 24 54 80;
#X msg 101 54 60;
#X msg 173 55 40;
#X obj 23 436 dac~;
#X msg 285 59 stop;
#X obj 22 370 bop.casio~, f 38;
#A saved wave-1 3;
#A saved wave-2 3;
#A saved filter 0.957143;
#A saved attack 0.1;
#A saved decay 0.228571;
#A saved sustain 0.792857;
#A saved release 0.0285714;
#A saved gain 1;
#X obj 91 246 ftom;
#X floatatom 91 272 5 0 0 0 - - - 0;
#X msg 91 295 \$1 127;
#X obj 162 245 ftom;
#X floatatom 162 271 5 0 0 0 - - - 0;
#X msg 162 294 \$1 127;
#X obj 91 218 * 3;
#X obj 162 217 * 2;
#X msg 231 296 stop;
#X obj 23 248 ftom;
#X floatatom 23 274 5 0 0 0 - - - 0;
#X msg 23 297 \$1 127;
#X obj 23 220 * 4;
#X obj 23 140 t f b, f 30;
#X connect 1 0 21 0;
#X connect 2 0 1 0;
#X connect 3 0 1 0;
#X connect 4 0 1 0;
#X connect 6 0 7 1;
#X connect 7 0 5 0;
#X connect 7 0 5 1;
#X connect 8 0 9 0;
#X connect 9 0 10 0;
#X connect 10 0 7 0;
#X connect 11 0 12 0;
#X connect 12 0 13 0;
#X connect 13 0 7 0;
#X connect 14 0 8 0;
#X connect 15 0 11 0;
#X connect 16 0 7 1;
#X connect 17 0 18 0;
#X connect 18 0 19 0;
#X connect 19 0 7 0;
#X connect 20 0 17 0;
#X connect 21 0 20 0;
#X connect 21 0 14 0;
#X connect 21 0 15 0;
#X connect 21 1 16 0;
