#N canvas 736 279 329 403 12;
#X declare -path ../;
#X obj 20 36 declare -path ../;
#X floatatom 23 116 5 0 0 0 - - - 0;
#X msg 23 86 80;
#X msg 62 84 60;
#X msg 103 86 40;
#N canvas 700 270 402 353 perfect-triad 0;
#X obj 27 16 inlet;
#X obj 297 271 outlet;
#X obj 95 171 ftom;
#X floatatom 95 197 5 0 0 0 - - - 0;
#X msg 95 220 \$1 127;
#X obj 166 170 ftom;
#X floatatom 166 196 5 0 0 0 - - - 0;
#X msg 166 219 \$1 127;
#X obj 95 143 * 3;
#X obj 166 142 * 2;
#X msg 235 221 stop;
#X obj 27 173 ftom;
#X floatatom 27 199 5 0 0 0 - - - 0;
#X msg 27 222 \$1 127;
#X obj 27 145 * 4;
#X obj 27 85 t f b, f 30;
#X obj 27 50 route perfect-triad, f 39;
#X connect 0 0 16 0;
#X connect 2 0 3 0;
#X connect 3 0 4 0;
#X connect 4 0 1 0;
#X connect 5 0 6 0;
#X connect 6 0 7 0;
#X connect 7 0 1 0;
#X connect 8 0 2 0;
#X connect 9 0 5 0;
#X connect 10 0 1 0;
#X connect 11 0 12 0;
#X connect 12 0 13 0;
#X connect 13 0 1 0;
#X connect 14 0 11 0;
#X connect 15 0 14 0;
#X connect 15 0 8 0;
#X connect 15 0 9 0;
#X connect 15 1 10 0;
#X connect 16 0 15 0;
#X connect 16 1 1 0;
#X restore 22 176 pd perfect-triad;
#X msg 22 143 perfect-triad \$1;
#X text 139 177 < microtonal tuning;
#X obj 23 356 dac~;
#X msg 284 89 stop;
#X obj 22 210 bop.synth~, f 38;
#A saved osc1-tune 0;
#A saved osc1-wave 2;
#A saved osc1-pulsewidth 0.350367;
#A saved osc1-gain 1;
#A saved osc2-tune 0;
#A saved osc2-wave 3;
#A saved osc2-pulsewidth 0.5;
#A saved osc2-gain 1;
#A saved noise 0;
#A saved cutoff 2600;
#A saved q 0.5;
#A saved mono 0;
#A saved slide 0;
#A saved attack 0.1;
#A saved decay 0.3;
#A saved sustain 0.7;
#A saved release 0.2;
#A saved gain 1;
#X connect 1 0 6 0;
#X connect 2 0 1 0;
#X connect 3 0 1 0;
#X connect 4 0 1 0;
#X connect 5 0 10 0;
#X connect 6 0 5 0;
#X connect 9 0 10 1;
#X connect 10 0 8 0;
#X connect 10 0 8 1;
