#N canvas 712 92 577 768 12;
#X declare -path ../;
#X obj 137 588 dac~;
#X obj 152 345 bop.instrument~;
#A saved instrument 1;
#X obj 171 231 bop.strum;
#A saved strum 0.01;
#A saved chord 7;
#A saved shuffle 1;
#A saved root 48;
#A saved octaves 3;
#A saved velocity 0.888;
#A saved duration 0.444;
#X obj 159 439 bop.delay~;
#A saved time 1.2;
#A saved feedback 0.35;
#A saved cutoff 1000;
#A saved q 0.3;
#A saved wet 1;
#A saved dry 1;
#X obj 231 131 random 100;
#X obj 231 155 / 100;
#X obj 231 91 bng 19 250 50 0 empty empty empty 0 -10 0 12 #fcfcfc #000000 #000000;
#X obj 233 33 tgl 19 0 empty empty empty 0 -10 0 12 #fcfcfc #000000 #000000 0 1;
#X msg 231 179 strum \$1 1200;
#X obj 23 726 declare -path ../;
#X obj 361 122 f 1;
#X obj 414 133 + 1;
#X msg 361 216 root \$1;
#X obj 361 183 expr (($f1 % 4) * 4) + 36;
#X obj 232 64 metro 6600;
#X obj 242 507 bop.scope~;
#X msg 283 267 wet 0 8000 \, dry 0 8000;
#X msg 285 297 wet 1 8000 \, dry 1 8000;
#X obj 361 148 t f f;
#X text 450 269 fade down;
#X text 453 296 fade up;
#X connect 1 0 3 0;
#X connect 1 1 3 1;
#X connect 2 0 1 0;
#X connect 2 1 1 1;
#X connect 3 0 0 0;
#X connect 3 0 0 1;
#X connect 3 0 15 0;
#X connect 3 1 15 0;
#X connect 4 0 5 0;
#X connect 5 0 8 0;
#X connect 6 0 4 0;
#X connect 6 0 10 0;
#X connect 7 0 14 0;
#X connect 8 0 2 1;
#X connect 10 0 18 0;
#X connect 11 0 10 1;
#X connect 12 0 2 1;
#X connect 13 0 12 0;
#X connect 14 0 6 0;
#X connect 16 0 1 1;
#X connect 17 0 1 1;
#X connect 18 0 13 0;
#X connect 18 1 11 0;
