#N canvas 111 214 765 564 12;
#X obj 107 117 inlet;
#X obj 107 162 route list, f 12;
#X obj 107 358 s \$1-midi;
#X obj 521 242 route bang;
#X text 519 171 Output all params on dump, f 16;
#X obj 588 359 list trim;
#X obj 37 482 outlet;
#X text 662 396 dump;
#X obj 117 212 s \$0-out;
#X obj 290 254 s \$0-out;
#X obj 37 426 r \$0-out;
#X obj 188 357 s \$1-params;
#X text 53 9 recieves messages from parent patcher \, filters out midi messages \, coordinates dumping of parameters \, provides forwarding to [r \$0-get-paramname];
#X text 360 88 args \; \$1 parent \$0 \; \$2 modulename;
#X obj 588 335 list prepend \$2;
#X obj 589 397 s \$0-out;
#X obj 223 219 route dump;
#X obj 521 209 r \$1-get-dump;
#X text 220 188 capture dump messages;
#X text 196 280 Forward all incoming params, f 10;
#X text 18 197 passthrough midi, f 12;
#X obj 507 121 babs.param.msg \$1 dump;
#X obj 507 91 babs.param.msg \$1 reset;
#X obj 505 63 babs.param.msg \$1 stop;
#X connect 0 0 1 0;
#X connect 1 0 2 0;
#X connect 1 0 8 0;
#X connect 1 1 11 0;
#X connect 1 1 16 0;
#X connect 3 1 14 0;
#X connect 5 0 15 0;
#X connect 10 0 6 0;
#X connect 14 0 5 0;
#X connect 16 1 9 0;
#X connect 17 0 3 0;
