#N canvas 150 187 604 639 12;
#X obj 110 149 until;
#X obj 150 331 list store;
#X obj 110 116 t b b l, f 17;
#X obj 108 236 f;
#X obj 148 236 + 1;
#X msg 168 149 0, f 2;
#X msg 137 304 get \$1 1;
#X obj 109 34 inlet;
#X obj 210 503 outlet;
#X obj 104 381 list append;
#X obj 107 267 t f f;
#X obj 110 75 t l 1, f 26;
#X obj 210 429 list prepend;
#X msg 237 360 0;
#X obj 210 466 route 1;
#X connect 0 0 3 0;
#X connect 1 0 9 1;
#X connect 1 1 0 1;
#X connect 1 1 13 0;
#X connect 2 0 0 0;
#X connect 2 1 5 0;
#X connect 2 2 1 1;
#X connect 3 0 4 0;
#X connect 3 0 10 0;
#X connect 4 0 3 1;
#X connect 5 0 3 1;
#X connect 6 0 1 0;
#X connect 7 0 11 0;
#X connect 9 0 12 0;
#X connect 10 0 9 0;
#X connect 10 1 6 0;
#X connect 11 0 2 0;
#X connect 11 1 12 1;
#X connect 12 0 14 0;
#X connect 13 0 12 1;
#X connect 14 0 8 0;
