#N canvas 672 283 450 300 12;
#X obj 101 53 inlet;
#X obj 101 91 bng 19 250 50 0 empty empty empty 0 -10 0 12 #fcfcfc #000000 #000000;
#X obj 174 54 inlet;
#X obj 106 149 f;
#X obj 145 150 + 1;
#X text 176 82 < reset to n on next count;
#X obj 103 224 outlet;
#X connect 0 0 1 0;
#X connect 1 0 3 0;
#X connect 2 0 3 1;
#X connect 3 0 4 0;
#X connect 3 0 6 0;
#X connect 4 0 3 1;
