#N canvas 287 147 591 430 12;
#X text 476 73 \$1: parent \$0;
#X text 475 92 \$2: label;
#X text 475 53 arguments:;
#X text 116 123 route based on param name;
#X text 118 87 receives params from parent module;
#X obj 23 88 r \$1-params;
#X obj 23 122 route \$2;
#X obj 23 269 outlet;
#X obj 202 206 route bang;
#X obj 202 296 list trim;
#X obj 76 269 s \$1-get-\$2;
#X obj 202 239 symbol \$2, f 14;
#X obj 202 265 list prepend msg;
#X obj 23 179 bng 19 250 50 0 empty empty empty 0 -10 0 12 #fcfcfc #000000 #000000;
#X obj 23 216 t b b, f 8;
#X text 18 49 sends bang to named receive when msg matches param label;
#X obj 202 181 r \$1-get-dump;
#X obj 202 326 s \$1-get-dump;
#X text 307 178 receive dump from parent;
#X connect 5 0 6 0;
#X connect 6 0 13 0;
#X connect 8 0 11 0;
#X connect 9 0 17 0;
#X connect 11 0 12 0;
#X connect 12 0 9 0;
#X connect 13 0 14 0;
#X connect 14 0 7 0;
#X connect 14 1 10 0;
#X connect 16 0 8 0;
#X coords 0 430 1 429 146 20 0;
