#N canvas 356 37 735 891 12;
#X text 476 44 \$1: parent \$0;
#X text 475 63 \$2: label;
#X text 475 24 arguments:;
#X obj 506 204 loadbang;
#X obj 173 967 outlet;
#X obj 88 339 route bang;
#X obj 225 930 list trim;
#X obj 506 270 pdcontrol;
#X msg 506 244 args 0;
#X obj 506 323 list length;
#X obj 506 348 >= 3;
#X obj 306 392 symbol \$2, f 14;
#X obj 529 441 list split 2;
#X obj 506 294 t l l, f 15;
#X obj 529 407 list, f 12;
#X obj 506 372 sel 0 1;
#X msg 506 529 list NULL;
#X obj 506 553 t b l;
#X obj 506 619 s \$0-fire;
#X obj 46 208 r \$1-get-dump;
#X obj 225 967 s \$1-get-dump;
#X text 475 83 \$3... : arg1 \, arg2 \, etc.;
#X obj 88 237 r \$1-get-\$2;
#X obj 86 599 int, f 13;
#X obj 569 474 s \$0-enumlist;
#X obj 538 592 s \$0-enum;
#X text 502 168 init list;
#X obj 85 781 babs.nth, f 19;
#X obj 85 746 list;
#X obj 108 699 r \$0-enumlist;
#X obj 85 658 t b f, f 19;
#X obj 306 418 list prepend enum;
#X obj 225 839 list prepend;
#X text 81 52 dump and output indexed enum when receiving from associated named param or dump message, f 36;
#X obj 82 121 inlet enumlist;
#X obj 82 178 s \$0-enumlist;
#X obj 82 145 list;
#X obj 88 275 t b f, f 13;
#X obj 189 439 r \$0-enumlist;
#X obj 189 463 list length;
#X obj 189 491 f 0;
#X obj 189 522 > 0;
#X obj 87 558 babs.gate, f 15;
#X connect 3 0 8 0;
#X connect 5 0 11 0;
#X connect 5 0 42 0;
#X connect 6 0 20 0;
#X connect 6 0 4 0;
#X connect 7 0 13 0;
#X connect 8 0 7 0;
#X connect 9 0 10 0;
#X connect 10 0 15 0;
#X connect 11 0 31 0;
#X connect 12 1 24 0;
#X connect 13 0 9 0;
#X connect 13 1 14 1;
#X connect 14 0 12 0;
#X connect 15 0 16 0;
#X connect 15 1 14 0;
#X connect 16 0 17 0;
#X connect 19 0 5 0;
#X connect 22 0 37 0;
#X connect 23 0 30 0;
#X connect 27 0 32 0;
#X connect 28 0 27 0;
#X connect 29 0 28 1;
#X connect 30 0 28 0;
#X connect 30 1 27 1;
#X connect 31 0 32 1;
#X connect 32 0 6 0;
#X connect 34 0 36 0;
#X connect 36 0 35 0;
#X connect 37 0 5 0;
#X connect 37 1 23 1;
#X connect 38 0 39 0;
#X connect 39 0 40 0;
#X connect 40 0 41 0;
#X connect 41 0 42 1;
#X connect 42 0 23 0;
#X coords 0 891 1 890 146 20 0;
