#N canvas 795 302 450 437 12;
#X obj 97 56 inlet;
#X obj 186 55 inlet;
#X obj 104 207 outlet;
#X obj 97 145 s, f 13;
#X obj 104 181 r \$0-out1;
#X obj 317 44 loadbang;
#X obj 317 68 f \$1;
#X text 230 177 \$1 = initial;
#X obj 185 110 makefilename \$0-out%d;
#X text 225 138 0 = closed \; 1 = open;
#X connect 0 0 3 0;
#X connect 1 0 8 0;
#X connect 4 0 2 0;
#X connect 5 0 6 0;
#X connect 6 0 8 0;
#X connect 8 0 3 1;
