#N canvas 150 187 450 300 12;
#X obj 110 109 until;
#X obj 123 192 list store;
#X obj 144 76 t b b l;
#X obj 108 132 f;
#X obj 148 135 + 1;
#X msg 167 109 0, f 2;
#X msg 110 165 get \$1 1;
#X obj 147 33 inlet;
#X obj 123 247 outlet;
#X obj 23 220 list append;
#X obj 32 167 t f f;
#X connect 0 0 3 0;
#X connect 1 0 9 1;
#X connect 1 1 0 1;
#X connect 2 0 0 0;
#X connect 2 1 5 0;
#X connect 2 2 1 1;
#X connect 3 0 4 0;
#X connect 3 0 10 0;
#X connect 4 0 3 1;
#X connect 5 0 3 1;
#X connect 6 0 1 0;
#X connect 7 0 2 0;
#X connect 9 0 8 0;
#X connect 10 0 9 0;
#X connect 10 1 6 0;
