#N canvas 65 110 1163 672 12;
#X obj 495 1509 phasor~, f 21;
#X msg 639 1464 0;
#X obj 495 1251 t f 0 b f, f 37;
#X obj 697 1826 snapshot~;
#X obj 750 1543 bng 19 250 50 0 empty empty empty 0 -10 0 12 #fcfcfc #000000 #000000;
#X msg 750 1379 0 \, 1 \$1;
#X obj 750 1509 line 0 10;
#X obj 349 1126 pipe;
#X msg 349 1063 \$2 \$3;
#X obj 349 1087 unpack;
#X obj 750 1352 - 1;
#X obj 210 1600 s \$0-float-out;
#X msg 495 1214 \$3;
#X obj 59 36 inlet;
#X obj 584 1943 outlet~;
#X obj 697 1962 outlet;
#X obj 697 1919 r \$0-float-out;
#X obj 958 1634 sig~;
#X msg 958 1593 \$1;
#X msg 1001 1593 \$2;
#X obj 1001 1634 sig~;
#X obj 584 1720 expr~ ($v3 - $v2) * $v1/1 + $v2, f 60;
#X obj 697 1886 s \$0-float-out;
#X obj 958 1561 t l l;
#X obj 495 1464 expr 1/$f1 * 1000;
#X obj 750 1317 abs;
#X obj 585 1680 expr~ tanh($v1 * 2);
#X obj 349 986 t l l l b, f 88;
#X msg 303 1425 0;
#X obj 649 1351 s \$0-sh;
#X msg 649 1317 1;
#X text 334 1423 stop phasor, f 12;
#X text 220 20 a curvy combination of line and line~;
#X obj 243 1340 t f b f b;
#X obj 283 1462 sig~;
#X obj 263 1548 s \$0-hold;
#X msg 263 1514 1;
#X obj 283 1486 s~ \$0-holdsig;
#N canvas 115 305 450 374 hold~ 0;
#X obj 177 186 inlet~;
#X obj 126 317 outlet~;
#X obj 126 75 r~ \$0-holdsig;
#X obj 144 109 r \$0-hold;
#X obj 126 214 *~;
#X obj 229 144 expr 1 - $f1;
#X obj 176 248 *~, f 8;
#X obj 126 282 +~;
#X connect 0 0 6 0;
#X connect 2 0 4 0;
#X connect 3 0 4 1;
#X connect 3 0 5 0;
#X connect 4 0 7 0;
#X connect 5 0 6 1;
#X connect 6 0 7 1;
#X connect 7 0 1 0;
#X restore 584 1765 pd hold~;
#X obj 962 1072 s \$0-hold;
#X msg 962 1048 0;
#X msg 777 1471 stop, f 8;
#X obj 244 1219 s \$0-stop;
#X obj 212 1180 t f b;
#X obj 777 1418 r \$0-stop;
#X obj 378 394 list length;
#X obj 346 347 t l l;
#X obj 346 436 list prepend;
#X obj 346 544 route 2 3, f 62;
#X msg 562 766 \$1 \$2 \$3;
#X text 933 2308 you have great buns.;
#X obj 212 1260 t f f;
#X obj 512 389 s \$0-setsignal;
#X msg 512 353 \$1;
#X obj 255 1304 r \$0-setsignal;
#X text 661 22 bob@zeal.co 2023;
#X obj 777 1444 bng 19 250 50 0 empty empty empty 0 -10 0 12 #fcfcfc #000000 #000000;
#X obj 217 156 t a b;
#X obj 249 199 s \$0-start;
#X obj 257 1051 r \$0-start;
#X msg 257 1075 clear;
#X text 627 118 [setsignal \$1( sets signal without float output;
#X text 630 87 float sets output;
#X obj 378 690 r \$0-float-out;
#X text 575 575 start \, end \, duration;
#X text 362 575 end \, duration;
#X obj 345 763 pack f f f, f 18;
#X obj 345 725 f;
#X obj 346 626 t b l, f 20;
#X obj 483 723 unpack;
#X obj 364 657 r \$0-setsignal;
#X obj 750 1577 s \$0-snap-metro;
#X obj 697 1790 r \$0-snap-metro;
#X text 957 2682 yes \, you Cayn :P, f 25;
#X text 630 171 list \; [2] end \, milliseconds \; [3] start \, end \, milliseconds \;;
#X obj 59 231 s \$0-stop;
#X obj 90 206 s \$0-stop-phasor;
#X obj 59 179 t b b;
#X text 628 144 [stop( freezes output;
#X obj 316 1386 r \$0-stop-phasor;
#X msg 275 111 0 0;
#X msg 326 114 1 0;
#X msg 371 122 0.5 0;
#X text 236 825 if duration is 0 \, treat as float, f 12;
#X msg 346 843 \$3 \$1 \$2;
#X obj 257 891 route 0, f 8;
#X text 425 842 duration start end;
#X msg 346 915 \$2 \$3 \$1;
#X text 419 914 start end duration;
#X msg 256 931 \$2;
#X obj 697 1856 change;
#X text 636 242 todo: \; - curve control \; - switch~ \;;
#X obj 59 61 route stop, f 23;
#X obj 217 299 route float list setsignal, f 58;
#X connect 0 0 26 0;
#X connect 1 0 0 1;
#X connect 2 0 24 0;
#X connect 2 1 1 0;
#X connect 2 2 30 0;
#X connect 2 3 25 0;
#X connect 3 0 90 0;
#X connect 4 0 71 0;
#X connect 5 0 6 0;
#X connect 6 0 4 0;
#X connect 7 0 43 0;
#X connect 8 0 9 0;
#X connect 9 0 7 0;
#X connect 9 1 7 1;
#X connect 10 0 5 0;
#X connect 12 0 2 0;
#X connect 13 0 92 0;
#X connect 16 0 15 0;
#X connect 17 0 21 1;
#X connect 18 0 17 0;
#X connect 19 0 20 0;
#X connect 20 0 21 2;
#X connect 21 0 38 0;
#X connect 23 0 18 0;
#X connect 23 1 19 0;
#X connect 24 0 0 0;
#X connect 25 0 10 0;
#X connect 26 0 21 0;
#X connect 27 0 8 0;
#X connect 27 1 12 0;
#X connect 27 2 23 0;
#X connect 27 3 40 0;
#X connect 28 0 0 0;
#X connect 30 0 29 0;
#X connect 33 1 36 0;
#X connect 33 2 34 0;
#X connect 33 3 28 0;
#X connect 34 0 37 0;
#X connect 36 0 35 0;
#X connect 38 0 3 0;
#X connect 38 0 14 0;
#X connect 40 0 39 0;
#X connect 41 0 6 0;
#X connect 43 0 51 0;
#X connect 43 1 42 0;
#X connect 44 0 56 0;
#X connect 45 0 47 1;
#X connect 46 0 47 0;
#X connect 46 1 45 0;
#X connect 47 0 48 0;
#X connect 48 0 68 0;
#X connect 48 1 49 0;
#X connect 49 0 84 0;
#X connect 51 0 11 0;
#X connect 51 1 33 0;
#X connect 53 0 52 0;
#X connect 54 0 33 0;
#X connect 56 0 41 0;
#X connect 57 0 93 0;
#X connect 57 1 58 0;
#X connect 59 0 60 0;
#X connect 60 0 7 0;
#X connect 63 0 67 1;
#X connect 66 0 84 0;
#X connect 67 0 66 0;
#X connect 68 0 67 0;
#X connect 68 1 69 0;
#X connect 69 0 66 1;
#X connect 69 1 66 2;
#X connect 70 0 67 1;
#X connect 72 0 3 0;
#X connect 77 0 75 0;
#X connect 77 1 76 0;
#X connect 79 0 28 0;
#X connect 80 0 57 0;
#X connect 81 0 57 0;
#X connect 82 0 57 0;
#X connect 84 0 85 0;
#X connect 85 0 89 0;
#X connect 85 1 87 0;
#X connect 87 0 27 0;
#X connect 89 0 43 0;
#X connect 90 0 22 0;
#X connect 92 0 77 0;
#X connect 92 1 57 0;
#X connect 93 0 43 0;
#X connect 93 1 46 0;
#X connect 93 2 53 0;
