#N canvas 221 137 591 430 12;
#X text 476 73 \$1: parent \$0;
#X text 475 92 \$2: label;
#X text 475 53 arguments:;
#X text 18 49 just provides a spacer for the gui;
#X text 115 192 route based on param name;
#X text 117 156 receives params from parent module;
#X obj 22 157 r \$1-params;
#X obj 22 191 route \$2;
#X obj 22 338 outlet;
#X obj 201 275 route bang;
#X obj 201 365 list trim;
#X obj 75 338 s \$1-get-\$2;
#X obj 201 308 symbol \$2, f 14;
#X obj 22 285 t b b, f 8;
#X text 17 118 sends bang to named receive when msg matches param label;
#X obj 201 240 r \$1-get-dump;
#X obj 201 395 s \$1-get-dump;
#X text 306 237 receive dump from parent;
#X obj 201 334 list prepend spacer;
#X obj 22 249 bang;
#X connect 7 0 19 0;
#X connect 9 0 12 0;
#X connect 10 0 16 0;
#X connect 12 0 18 0;
#X connect 13 0 8 0;
#X connect 13 1 11 0;
#X connect 15 0 9 0;
#X connect 18 0 10 0;
#X connect 19 0 13 0;
#X coords 0 430 1 429 146 20 0;
