#N canvas 193 59 936 836 12;
#X text 393 78 \$1: parent \$0;
#X text 392 97 \$2: label;
#X text 392 58 arguments:;
#X text 117 108 route based on param name;
#X text 119 72 receives params from parent module;
#X text 391 115 \$3: default;
#X obj 24 443 babs.bline~, f 20;
#X obj 24 73 r \$1-params;
#X obj 24 107 route \$2;
#X text 83 1018 a signal receive can be used for smoother control;
#X obj 24 388 babs.blineseq;
#X text 131 394 handles looping;
#X text 178 435 adds ease-in-out (see help), f 20;
#X obj 22 1020 outlet~;
#X obj 493 773 outlet;
#X obj 66 564 route bang;
#X obj 66 757 float, f 14;
#X obj 66 884 list trim;
#X text 32 244 separate number messages, f 10;
#X obj 403 772 s \$1-get-\$2;
#X obj 209 276 list prepend loop;
#X obj 209 300 list trim;
#X text 254 255 loop messages;
#X text 252 353 stop from parent;
#X msg 211 351 stop;
#X obj 46 502 s~ \$1-get-\$2;
#X obj 24 216 route float list loop bang, f 73;
#X obj 66 793 list prepend param \$2;
#X obj 211 332 r \$1-get-stop;
#X obj 66 539 r \$1-get-dump;
#X obj 66 914 s \$1-get-dump;
#X obj 639 442 r \$1-savestate;
#X obj 402 566 float;
#X text 431 316 < bangs retrigger, f 12;
#X text 682 538 savestate outputs current value, f 13;
#X obj 639 478 route bang;
#X obj 640 627 s \$1-savestate;
#X obj 639 601 list prepend \$2;
#N canvas 497 72 453 595 init 0;
#X obj 41 106 loadbang;
#X obj 41 376 f \$3;
#X obj 41 243 pdcontrol;
#X msg 41 217 args 0;
#X obj 41 273 list length;
#X obj 41 298 >= 3;
#X obj 41 322 sel 1;
#X obj 41 346 bng 19 250 50 0 empty empty empty 0 -10 0 12 #fcfcfc #000000 #000000;
#X text 87 302 instantiate default if arg exists, f 13;
#X obj 62 178 r \$1-get-reset;
#X obj 268 69 route \$2;
#X text 313 288 override default from savestate before loadbang, f 17;
#X obj 268 35 r \$1-loadstate;
#N canvas 63 100 450 300 switch-loadbang 0;
#X obj 120 39 inlet bang;
#X obj 167 231 outlet;
#X obj 168 121 int 0;
#X msg 222 87 1;
#X obj 168 149 sel 0 1, f 22;
#X obj 220 57 inlet switch;
#X obj 243 235 outlet;
#X connect 0 0 2 0;
#X connect 2 0 4 0;
#X connect 3 0 2 1;
#X connect 4 0 1 0;
#X connect 4 1 6 0;
#X connect 5 0 3 0;
#X restore 41 137 pd switch-loadbang;
#X f 33;
#X obj 268 99 t b f;
#X obj 278 390 f;
#X obj 41 518 outlet;
#X connect 0 0 13 0;
#X connect 1 0 16 0;
#X connect 2 0 4 0;
#X connect 3 0 2 0;
#X connect 4 0 5 0;
#X connect 5 0 6 0;
#X connect 6 0 7 0;
#X connect 7 0 1 0;
#X connect 9 0 3 0;
#X connect 10 0 14 0;
#X connect 12 0 10 0;
#X connect 13 0 3 0;
#X connect 13 1 15 0;
#X connect 14 0 13 1;
#X connect 14 1 15 1;
#X connect 15 0 16 0;
#X restore 42 174 pd init;
#X f 10;
#X obj 639 554 float;
#X obj 672 512 r \$1-get-\$2;
#X text 551 308 < everything else \; (required?);
#X text 641 658 todo - pull this from r \$1-params to store last command rather than last value (ie store loops), f 30;
#X text 392 175 \$5: min;
#X text 391 155 \$4: min;
#X text 453 166 optional - bop.gui creates numberbox;
#X obj 774 253 pdcontrol;
#X msg 774 225 args 0;
#X obj 774 277 list length;
#X obj 774 309 >= 4;
#X obj 774 333 s \$0-has-bounds;
#X obj 786 391 value \$0-has-bounds;
#X floatatom 786 415 5 0 0 0 - - - 0;
#X obj 746 370 bng 19 250 50 0 empty empty empty 0 -10 0 12 #fcfcfc #000000 #000000;
#X obj 774 198 loadbang;
#X obj 66 829 list append, f 26;
#X obj 66 603 t b b;
#X obj 247 692 value \$0-has-bounds;
#X obj 247 729 sel 0 1;
#X obj 272 765 list \$4 \$5;
#X msg 271 796 list \$1 \$2;
#X connect 6 0 13 0;
#X connect 6 0 25 0;
#X connect 6 1 16 1;
#X connect 6 1 32 0;
#X connect 7 0 8 0;
#X connect 8 0 26 0;
#X connect 10 0 6 0;
#X connect 15 0 56 0;
#X connect 16 0 27 0;
#X connect 17 0 30 0;
#X connect 20 0 21 0;
#X connect 21 0 10 0;
#X connect 24 0 10 0;
#X connect 26 0 10 0;
#X connect 26 1 10 0;
#X connect 26 2 20 0;
#X connect 26 3 32 0;
#X connect 27 0 55 0;
#X connect 28 0 24 0;
#X connect 29 0 15 0;
#X connect 31 0 35 0;
#X connect 32 0 19 0;
#X connect 32 0 14 0;
#X connect 35 0 39 0;
#X connect 37 0 36 0;
#X connect 38 0 26 0;
#X connect 39 0 37 0;
#X connect 40 0 39 1;
#X connect 46 0 48 0;
#X connect 47 0 46 0;
#X connect 48 0 49 0;
#X connect 49 0 50 0;
#X connect 51 0 52 0;
#X connect 53 0 51 0;
#X connect 54 0 47 0;
#X connect 55 0 17 0;
#X connect 56 0 16 0;
#X connect 56 1 57 0;
#X connect 57 0 58 0;
#X connect 58 0 55 1;
#X connect 58 1 59 0;
#X connect 59 0 60 0;
#X connect 60 0 55 1;
#X coords 0 836 1 835 146 20 0;
