#N canvas 45 207 582 356 12;
#X obj 87 66 inlet;
#X obj 287 66 inlet;
#X obj 88 300 outlet;
#X text 70 15 randomer;
#X obj 87 122 bng 19 250 50 0 empty empty empty 0 -10 0 12 #fcfcfc #000000 #000000;
#X obj 123 123 noise~;
#X obj 325 154 \$1;
#X obj 325 91 loadbang;
#X text 238 24 requires DSP to be on;
#X obj 87 166 snapshot~;
#X obj 325 123 t b b, f 6;
#X msg 364 154 2;
#X obj 87 231 expr int(($f1 + 1) / 2 * $f2);
#X msg 399 154 5;
#X text 72 33 more random random;
#X obj 103 89 r \$0-trigger;
#X text 439 156 arg1: range \;;
#X connect 0 0 4 0;
#X connect 1 0 12 1;
#X connect 4 0 9 0;
#X connect 5 0 9 0;
#X connect 6 0 12 1;
#X connect 7 0 10 0;
#X connect 9 0 12 0;
#X connect 10 0 6 0;
#X connect 10 1 11 0;
#X connect 11 0 12 1;
#X connect 12 0 2 0;
#X connect 13 0 12 1;
#X connect 15 0 4 0;
