#N canvas 305 106 1082 804 12;
#X text 476 -43 \$1: parent \$0;
#X text 475 -24 \$2: label;
#X text 475 -63 arguments:;
#X text 116 7 route based on param name;
#X text 118 -29 receives params from parent module;
#X obj 23 -28 r \$1-params;
#X obj 23 6 route \$2;
#X obj 23 473 outlet;
#X obj 202 90 route bang;
#X obj 202 250 list trim;
#X obj 97 473 s \$1-get-\$2;
#X obj 661 370 pdcontrol;
#X msg 661 344 args 0;
#X obj 661 453 list length;
#X obj 661 478 >= 3;
#X obj 202 123 symbol \$2, f 14;
#X text 18 -67 sends bang to named receive when msg matches param label;
#X text 475 -4 \$3: default;
#X obj 23 353 list, f 7;
#X obj 23 61 t b l, f 7;
#X obj 202 149 list prepend attr;
#X obj 69 101 s \$0-attrlist;
#X obj 202 217 list append;
#X obj 276 185 r \$0-attrlist;
#X obj 69 315 r \$0-attrlist;
#X obj 23 400 t l l, f 11;
#X obj 97 435 list trim;
#X obj 23 435 list trim;
#X obj 661 424 t l l, f 15;
#X obj 684 537 list, f 12;
#X obj 778 657 s \$0-attrlist;
#X obj 23 126 s \$0-fire;
#X obj 23 291 r \$0-fire;
#X obj 685 615 t b l, f 14;
#X obj 685 650 s \$0-fire;
#X obj 661 502 sel 0 1;
#X obj 23 35 list;
#X obj 202 65 r \$1-get-dump;
#X obj 202 280 s \$1-get-dump;
#X obj 686 285 r \$1-get-reset;
#X obj 270 378 r \$1-savestate;
#X obj 270 414 route bang;
#X obj 271 531 s \$1-savestate;
#X obj 270 505 list prepend \$2;
#X obj 270 468 list;
#X obj 296 438 r \$0-attrlist;
#X text 411 439 savestate outputs current value, f 13;
#X text 680 262 output default on reset;
#X text 503 275 loadbang to default if no loadstate, f 21;
#X obj 664 192 loadbang;
#X obj 891 95 route \$2;
#X obj 891 61 r \$1-loadstate;
#N canvas 63 100 450 300 switch-loadbang 0;
#X obj 120 39 inlet bang;
#X obj 167 231 outlet;
#X obj 168 121 int 0;
#X msg 222 87 1;
#X obj 168 149 sel 0 1, f 22;
#X obj 220 57 inlet switch;
#X obj 243 235 outlet;
#X connect 0 0 2 0;
#X connect 2 0 4 0;
#X connect 3 0 2 1;
#X connect 4 0 1 0;
#X connect 4 1 6 0;
#X connect 5 0 3 0;
#X restore 664 223 pd switch-loadbang;
#X f 33;
#X obj 891 147 list;
#X obj 891 185 t b l;
#X obj 738 486 list split 2;
#X obj 860 550 list;
#X text 926 275 loadbang to loadstate if loadstate sent before loadbang, f 16;
#X connect 5 0 6 0;
#X connect 6 0 36 0;
#X connect 8 0 15 0;
#X connect 9 0 38 0;
#X connect 11 0 28 0;
#X connect 12 0 11 0;
#X connect 13 0 14 0;
#X connect 14 0 35 0;
#X connect 15 0 20 0;
#X connect 18 0 25 0;
#X connect 19 0 31 0;
#X connect 19 1 21 0;
#X connect 20 0 22 0;
#X connect 22 0 9 0;
#X connect 23 0 22 1;
#X connect 24 0 18 1;
#X connect 25 0 27 0;
#X connect 25 1 26 0;
#X connect 26 0 10 0;
#X connect 27 0 7 0;
#X connect 28 0 13 0;
#X connect 28 1 55 0;
#X connect 29 0 33 0;
#X connect 32 0 18 0;
#X connect 33 0 34 0;
#X connect 33 1 30 0;
#X connect 35 1 29 0;
#X connect 36 0 19 0;
#X connect 37 0 8 0;
#X connect 39 0 12 0;
#X connect 40 0 41 0;
#X connect 41 0 44 0;
#X connect 43 0 42 0;
#X connect 44 0 43 0;
#X connect 45 0 44 1;
#X connect 49 0 52 0;
#X connect 50 0 53 0;
#X connect 51 0 50 0;
#X connect 52 0 12 0;
#X connect 52 1 56 0;
#X connect 53 0 54 0;
#X connect 54 0 52 1;
#X connect 54 1 56 1;
#X connect 55 1 29 1;
#X connect 56 0 33 0;
#X coords 0 804 1 803 146 20 0;
