#N canvas 123 42 997 857 12;
#X obj 76 552 list store;
#X obj 77 656 route bang;
#X obj 65 159 select 192;
#X obj 534 325 select 219;
#X obj 597 522 select 220 221;
#X msg 585 576 192;
#X msg 632 574 219;
#X obj 607 487 t a b;
#N canvas 156 156 450 300 iterate 0;
#X obj 118 136 until;
#X obj 131 219 list store;
#X obj 152 103 t b b l;
#X obj 118 161 f;
#X obj 156 162 + 1;
#X msg 175 136 0, f 2;
#X msg 118 192 get \$1 1;
#X obj 159 28 inlet;
#X obj 175 266 outlet;
#X connect 0 0 3 0;
#X connect 1 0 8 0;
#X connect 1 1 0 1;
#X connect 2 0 0 0;
#X connect 2 1 5 0;
#X connect 2 2 1 1;
#X connect 3 0 4 0;
#X connect 3 0 6 0;
#X connect 4 0 3 1;
#X connect 5 0 3 1;
#X connect 6 0 1 0;
#X connect 7 0 2 0;
#X restore 65 111 pd iterate;
#X obj 192 919 outlet decoded;
#X obj 423 909 outlet error;
#N canvas 182 182 896 652 switcher 0;
#X obj 217 67 inlet;
#X obj 230 412 outlet out0;
#X obj 432 408 outlet out1;
#X obj 392 65 inlet select outlet;
#X obj 270 281 route 0 1;
#X obj 265 222 list prepend 0;
#X connect 0 0 5 0;
#X connect 3 0 5 1;
#X connect 4 0 1 0;
#X connect 4 1 2 0;
#X connect 5 0 4 0;
#X restore 582 436 pd switcher;
#X msg 476 631 append \$1;
#X msg 703 414 0;
#X msg 530 382 1;
#X obj 64 314 t b b b b;
#X msg 324 733 0;
#X msg 716 649 1;
#X obj 66 31 inlet list;
#N canvas 182 182 896 652 switcher 0;
#X obj 217 67 inlet;
#X obj 230 412 outlet out0;
#X obj 432 408 outlet out1;
#X obj 392 65 inlet select outlet;
#X obj 270 281 route 0 1;
#X obj 265 222 list prepend 0;
#X connect 0 0 5 0;
#X connect 3 0 5 1;
#X connect 4 0 1 0;
#X connect 4 1 2 0;
#X connect 5 0 4 0;
#X restore 252 792 pd switcher;
#X text 237 38 from Thomas Fredericks \; https://github.com/thomasfredericks/MicroOsc;
#N canvas 121 158 450 300 sizeIsMultOf4 0;
#X obj 157 132 list length;
#X obj 161 161 % 4;
#X obj 168 199 == 0;
#X obj 236 245 select 0;
#N canvas 182 182 896 652 switcher 0;
#X obj 217 67 inlet;
#X obj 230 412 outlet out0;
#X obj 432 408 outlet out1;
#X obj 392 65 inlet select outlet;
#X obj 270 281 route 0 1;
#X obj 265 222 list prepend 0;
#X connect 0 0 5 0;
#X connect 3 0 5 1;
#X connect 4 0 1 0;
#X connect 4 1 2 0;
#X connect 5 0 4 0;
#X restore 104 312 pd switcher;
#X obj 103 96 t a a b;
#X msg 270 90 0;
#X msg 238 284 1;
#X obj 246 434 outlet error;
#X obj 105 431 outlet valid;
#X obj 102 37 inlet list;
#X connect 0 0 1 0;
#X connect 1 0 2 0;
#X connect 2 0 3 0;
#X connect 3 0 7 0;
#X connect 4 0 9 0;
#X connect 4 1 8 0;
#X connect 5 0 4 0;
#X connect 5 1 0 0;
#X connect 5 2 6 0;
#X connect 6 0 4 1;
#X connect 7 0 4 1;
#X connect 10 0 5 0;
#X restore 208 845 pd sizeIsMultOf4;
#X connect 0 0 1 0;
#X connect 1 1 19 0;
#X connect 2 0 15 0;
#X connect 2 1 3 0;
#X connect 3 0 14 0;
#X connect 3 1 11 0;
#X connect 4 0 5 0;
#X connect 4 1 6 0;
#X connect 4 2 17 0;
#X connect 5 0 12 0;
#X connect 6 0 12 0;
#X connect 7 0 4 0;
#X connect 7 1 13 0;
#X connect 8 0 2 0;
#X connect 11 0 12 0;
#X connect 11 1 7 0;
#X connect 12 0 0 0;
#X connect 13 0 11 1;
#X connect 14 0 11 1;
#X connect 15 0 16 0;
#X connect 15 1 0 1;
#X connect 15 2 0 0;
#X connect 16 0 19 1;
#X connect 17 0 19 1;
#X connect 18 0 8 0;
#X connect 19 0 21 0;
#X connect 19 1 10 0;
#X connect 21 0 9 0;
#X connect 21 1 10 0;
