#N canvas 504 252 867 612 12;
#X obj 54 117 inlet;
#X obj 226 202 route list, f 15;
#X obj 226 518 s \$1-midi;
#X obj 527 242 route bang;
#X text 525 171 Output all params on dump, f 16;
#X obj 594 359 list trim;
#X obj 37 502 outlet;
#X obj 236 252 s \$0-out;
#X obj 429 294 s \$0-out;
#X obj 37 446 r \$0-out;
#X obj 327 517 s \$1-params;
#X text 360 88 args \; \$1 parent \$0 \; \$2 modulename;
#X obj 594 335 list prepend \$2;
#X obj 578 577 s \$0-out;
#X obj 362 259 route dump;
#X obj 527 209 r \$1-get-dump;
#X text 365 220 capture dump messages, f 14;
#X text 335 359 Forward all incoming params, f 10;
#X text 229 408 passthrough midi, f 12;
#X obj 54 152 route gui-connect, f 25;
#X obj 606 393 s \$0-to-gui;
#N canvas 943 319 450 300 connect-to-module 0;
#X obj 35 44 inlet;
#X msg 35 158 module-connect \$1;
#X obj 35 124 \$0;
#X obj 35 224 s, f 19;
#X obj 35 74 t b f, f 19;
#X msg 165 120 symbol \$1-from-module;
#X text 109 38 create connection with bop.gui;
#X obj 101 186 inlet;
#X connect 0 0 4 0;
#X connect 1 0 3 0;
#X connect 2 0 1 0;
#X connect 4 0 2 0;
#X connect 4 1 5 0;
#X connect 5 0 3 1;
#X connect 7 0 3 0;
#X restore 54 271 pd connect-to-module;
#X obj 112 234 r \$0-to-gui;
#X text 66 191 connect to bop.gui, f 12;
#X text 53 9 recieves messages from parent patcher \, filters out midi messages \, coordinates dumping of parameters \, provides forwarding to [r \$0-get-paramname] \, communicates with bop.gui;
#X obj 348 447 r \$0-to-module;
#X text 342 480 inject messages from gui, f 17;
#X text 651 576 dump out;
#X text 695 392 dump to create gui;
#X obj 342 326 s \$0-to-gui;
#X obj 532 113 babs.param.msg \$1 dump;
#X obj 532 83 babs.param.msg \$1 reset;
#X obj 530 55 babs.param.msg \$1 stop;
#X obj 530 33 babs.param.spacer \$1;
#X obj 591 439 route \$2;
#X obj 591 463 route spacer;
#X obj 595 502 list prepend \$2;
#X obj 595 526 list trim;
#X connect 0 0 19 0;
#X connect 1 0 2 0;
#X connect 1 0 7 0;
#X connect 1 1 10 0;
#X connect 1 1 14 0;
#X connect 1 1 29 0;
#X connect 3 1 12 0;
#X connect 5 0 20 0;
#X connect 5 0 34 0;
#X connect 9 0 6 0;
#X connect 12 0 5 0;
#X connect 14 1 8 0;
#X connect 15 0 3 0;
#X connect 19 0 21 0;
#X connect 19 1 1 0;
#X connect 22 0 21 1;
#X connect 25 0 10 0;
#X connect 34 0 35 0;
#X connect 35 1 36 0;
#X connect 36 0 37 0;
#X connect 37 0 13 0;
