#N canvas 795 302 450 437 12;
#X obj 97 56 inlet;
#X obj 186 55 inlet;
#X obj 104 207 outlet;
#X obj 97 145 s, f 13;
#X obj 159 233 outlet;
#X obj 220 256 outlet;
#X obj 275 286 outlet;
#X obj 104 181 r \$0-out1;
#X obj 159 206 r \$0-out2;
#X obj 220 228 r \$0-out3;
#X obj 275 256 r \$0-out4;
#X text 225 138 0 = off \; [1-4] = outlet [1-4];
#X obj 317 44 loadbang;
#X obj 317 68 f \$1;
#X text 230 177 \$1 = initial;
#X obj 185 110 makefilename \$0-out%d;
#X connect 0 0 3 0;
#X connect 1 0 15 0;
#X connect 7 0 2 0;
#X connect 8 0 4 0;
#X connect 9 0 5 0;
#X connect 10 0 6 0;
#X connect 12 0 13 0;
#X connect 13 0 15 0;
#X connect 15 0 3 1;
