#N canvas 63 100 1057 792 12;
#X obj 37 37 inlet;
#X obj 442 39 inlet;
#X obj 36 907 outlet;
#X text 84 35 hot;
#X obj 37 79 route list bang;
#X obj 36 176 list;
#X obj 37 130 t b l;
#X obj 417 613 list;
#X obj 417 666 babs.nth, f 24;
#X obj 582 623 %;
#X obj 600 487 list length;
#X floatatom 600 511 5 0 0 0 - - - 0;
#X obj 442 433 t l;
#X obj 36 813 babs.accum, f 37;
#X obj 139 327 babs.iter;
#X obj 171 428 babs.counter;
#X msg 259 375 0;
#X obj 36 239 t b l b, f 30;
#X obj 259 323 t b b;
#X text 272 270 clear counter \, reset list, f 14;
#X obj 139 383 t f b;
#X obj 417 492 t b f, f 24;
#X text 505 85 right list is iterated \, wrapping back to 0 \, and added to left list, f 32;
#X obj 467 340 loadbang;
#X obj 140 723 *;
#X msg 468 371 1;
#X connect 0 0 4 0;
#X connect 1 0 12 0;
#X connect 4 0 6 0;
#X connect 4 1 5 0;
#X connect 5 0 17 0;
#X connect 6 0 5 0;
#X connect 6 1 5 1;
#X connect 7 0 8 0;
#X connect 8 0 24 1;
#X connect 9 0 8 1;
#X connect 10 0 11 0;
#X connect 11 0 9 1;
#X connect 12 0 10 0;
#X connect 12 0 7 1;
#X connect 13 0 2 0;
#X connect 14 0 20 0;
#X connect 15 0 21 0;
#X connect 16 0 15 1;
#X connect 17 0 13 0;
#X connect 17 1 14 0;
#X connect 17 2 18 0;
#X connect 18 0 16 0;
#X connect 18 1 13 1;
#X connect 20 0 24 0;
#X connect 20 1 15 0;
#X connect 21 0 7 0;
#X connect 21 1 9 0;
#X connect 23 0 25 0;
#X connect 24 0 13 0;
#X connect 25 0 12 0;
