#N canvas 240 271 314 529 12;
#X obj 166 326 float;
#X obj 129 362 +;
#X obj 97 287 t b b f;
#X msg 200 277 0;
#X obj 61 64 t b l b, f 21;
#X obj 62 435 float;
#X obj 71 142 until;
#X obj 84 225 list store;
#X obj 105 109 t b b l;
#X obj 71 167 f;
#X obj 109 168 + 1;
#X msg 128 142 0, f 2;
#X msg 71 198 get \$1 1;
#X obj 61 36 inlet;
#X obj 62 469 outlet;
#X connect 0 0 1 0;
#X connect 1 0 0 1;
#X connect 1 0 5 1;
#X connect 2 1 0 0;
#X connect 2 2 1 1;
#X connect 3 0 0 1;
#X connect 4 0 5 0;
#X connect 4 0 8 0;
#X connect 4 2 3 0;
#X connect 5 0 14 0;
#X connect 6 0 9 0;
#X connect 7 0 2 0;
#X connect 7 1 6 1;
#X connect 8 0 6 0;
#X connect 8 1 11 0;
#X connect 8 2 7 1;
#X connect 9 0 10 0;
#X connect 9 0 12 0;
#X connect 10 0 9 1;
#X connect 11 0 9 1;
#X connect 12 0 7 0;
#X connect 13 0 4 0;
