#N canvas 483 37 735 891 12;
#X text 476 44 \$1: parent \$0;
#X text 475 63 \$2: label;
#X text 475 24 arguments:;
#X text 116 94 route based on param name;
#X text 118 58 receives params from parent module;
#X obj 413 233 loadbang;
#X obj 23 59 r \$1-params;
#X obj 23 93 route \$2;
#X obj 23 560 outlet;
#X obj 202 177 route bang;
#X obj 202 337 list trim;
#X obj 97 560 s \$1-get-\$2;
#X obj 413 290 pdcontrol;
#X msg 413 264 args 0;
#X obj 413 343 list length;
#X obj 413 368 >= 3;
#X obj 202 210 symbol \$2, f 14;
#X text 18 20 sends bang to named receive when msg matches param label;
#X text 475 83 \$3: default;
#X obj 23 440 list, f 7;
#X obj 23 148 t b l, f 7;
#X obj 202 236 list prepend attr;
#X obj 69 188 s \$0-attrlist;
#X obj 202 304 list append;
#X obj 276 272 r \$0-attrlist;
#X obj 69 402 r \$0-attrlist;
#X obj 23 487 t l l, f 11;
#X obj 97 522 list trim;
#X obj 23 522 list trim;
#X obj 531 491 list split 2;
#X obj 413 314 t l l, f 15;
#X obj 436 427 list, f 12;
#X obj 571 524 s \$0-attrlist;
#X obj 23 213 s \$0-fire;
#X obj 23 378 r \$0-fire;
#X obj 436 456 t b l, f 14;
#X obj 436 491 s \$0-fire;
#X obj 413 392 sel 0 1;
#X msg 413 549 list NULL;
#X obj 413 573 t b l;
#X obj 445 612 s \$0-attrlist;
#X obj 413 639 s \$0-fire;
#X obj 23 122 list;
#X obj 202 152 r \$1-get-dump;
#X obj 202 367 s \$1-get-dump;
#X obj 492 233 r \$1-get-reset;
#X connect 5 0 13 0;
#X connect 6 0 7 0;
#X connect 7 0 42 0;
#X connect 9 0 16 0;
#X connect 10 0 44 0;
#X connect 12 0 30 0;
#X connect 13 0 12 0;
#X connect 14 0 15 0;
#X connect 15 0 37 0;
#X connect 16 0 21 0;
#X connect 19 0 26 0;
#X connect 20 0 33 0;
#X connect 20 1 22 0;
#X connect 21 0 23 0;
#X connect 23 0 10 0;
#X connect 24 0 23 1;
#X connect 25 0 19 1;
#X connect 26 0 28 0;
#X connect 26 1 27 0;
#X connect 27 0 11 0;
#X connect 28 0 8 0;
#X connect 29 1 32 0;
#X connect 30 0 14 0;
#X connect 30 1 31 1;
#X connect 31 0 35 0;
#X connect 34 0 19 0;
#X connect 35 0 36 0;
#X connect 35 1 29 0;
#X connect 37 0 38 0;
#X connect 37 1 31 0;
#X connect 38 0 39 0;
#X connect 42 0 20 0;
#X connect 43 0 9 0;
#X connect 45 0 13 0;
#X coords 0 891 1 890 146 20 0;
